G04 #@! TF.GenerationSoftware,KiCad,Pcbnew,(6.0.7)*
G04 #@! TF.CreationDate,2022-12-13T13:41:41-06:00*
G04 #@! TF.ProjectId,Narwal_v1,4e617277-616c-45f7-9631-2e6b69636164,1*
G04 #@! TF.SameCoordinates,Original*
G04 #@! TF.FileFunction,Legend,Top*
G04 #@! TF.FilePolarity,Positive*
%FSLAX46Y46*%
G04 Gerber Fmt 4.6, Leading zero omitted, Abs format (unit mm)*
G04 Created by KiCad (PCBNEW (6.0.7)) date 2022-12-13 13:41:41*
%MOMM*%
%LPD*%
G01*
G04 APERTURE LIST*
G04 Aperture macros list*
%AMRoundRect*
0 Rectangle with rounded corners*
0 $1 Rounding radius*
0 $2 $3 $4 $5 $6 $7 $8 $9 X,Y pos of 4 corners*
0 Add a 4 corners polygon primitive as box body*
4,1,4,$2,$3,$4,$5,$6,$7,$8,$9,$2,$3,0*
0 Add four circle primitives for the rounded corners*
1,1,$1+$1,$2,$3*
1,1,$1+$1,$4,$5*
1,1,$1+$1,$6,$7*
1,1,$1+$1,$8,$9*
0 Add four rect primitives between the rounded corners*
20,1,$1+$1,$2,$3,$4,$5,0*
20,1,$1+$1,$4,$5,$6,$7,0*
20,1,$1+$1,$6,$7,$8,$9,0*
20,1,$1+$1,$8,$9,$2,$3,0*%
%AMFreePoly0*
4,1,11,0.965200,2.159000,0.965200,-0.254000,0.457200,-0.762000,0.457200,-2.667000,-0.457200,-2.667000,-0.457200,-0.762000,-0.965200,-0.254000,-0.965200,2.159000,-0.457200,2.667000,0.457200,2.667000,0.965200,2.159000,0.965200,2.159000,$1*%
G04 Aperture macros list end*
%ADD10C,0.200000*%
%ADD11C,0.300000*%
%ADD12C,0.180000*%
%ADD13C,0.215000*%
%ADD14C,0.120000*%
%ADD15C,0.010000*%
%ADD16RoundRect,0.250000X-0.312500X-0.625000X0.312500X-0.625000X0.312500X0.625000X-0.312500X0.625000X0*%
%ADD17R,1.800000X1.800000*%
%ADD18C,1.800000*%
%ADD19R,0.850000X0.250000*%
%ADD20R,0.250000X0.850000*%
%ADD21R,2.700000X2.700000*%
%ADD22RoundRect,0.237500X-0.237500X0.287500X-0.237500X-0.287500X0.237500X-0.287500X0.237500X0.287500X0*%
%ADD23RoundRect,0.237500X-0.287500X-0.237500X0.287500X-0.237500X0.287500X0.237500X-0.287500X0.237500X0*%
%ADD24RoundRect,0.250000X-0.850000X0.375000X-0.850000X-0.375000X0.850000X-0.375000X0.850000X0.375000X0*%
%ADD25C,5.000000*%
%ADD26RoundRect,0.250000X0.650000X-0.325000X0.650000X0.325000X-0.650000X0.325000X-0.650000X-0.325000X0*%
%ADD27RoundRect,0.250000X0.312500X0.625000X-0.312500X0.625000X-0.312500X-0.625000X0.312500X-0.625000X0*%
%ADD28R,2.775000X2.775000*%
%ADD29C,2.775000*%
%ADD30RoundRect,0.250000X-0.325000X-0.650000X0.325000X-0.650000X0.325000X0.650000X-0.325000X0.650000X0*%
%ADD31RoundRect,0.250000X0.350000X0.650000X-0.350000X0.650000X-0.350000X-0.650000X0.350000X-0.650000X0*%
%ADD32RoundRect,0.150000X0.150000X0.625000X-0.150000X0.625000X-0.150000X-0.625000X0.150000X-0.625000X0*%
%ADD33R,1.524000X1.524000*%
%ADD34C,1.524000*%
%ADD35RoundRect,0.250000X-0.650000X0.325000X-0.650000X-0.325000X0.650000X-0.325000X0.650000X0.325000X0*%
%ADD36R,0.610000X1.350000*%
%ADD37RoundRect,0.041300X-0.983700X-0.253700X0.983700X-0.253700X0.983700X0.253700X-0.983700X0.253700X0*%
%ADD38RoundRect,0.250000X-0.625000X0.312500X-0.625000X-0.312500X0.625000X-0.312500X0.625000X0.312500X0*%
%ADD39RoundRect,0.250000X0.325000X0.650000X-0.325000X0.650000X-0.325000X-0.650000X0.325000X-0.650000X0*%
%ADD40C,1.508000*%
%ADD41C,1.920000*%
%ADD42R,1.200000X2.800000*%
%ADD43RoundRect,0.250000X0.625000X-0.312500X0.625000X0.312500X-0.625000X0.312500X-0.625000X-0.312500X0*%
%ADD44RoundRect,0.250000X-0.375000X-0.850000X0.375000X-0.850000X0.375000X0.850000X-0.375000X0.850000X0*%
%ADD45R,0.711200X1.498600*%
%ADD46FreePoly0,180.000000*%
G04 APERTURE END LIST*
D10*
X132728571Y-124542857D02*
X132728571Y-123342857D01*
X133414285Y-124542857D01*
X133414285Y-123342857D01*
X134214285Y-123342857D02*
X134442857Y-123342857D01*
X134557142Y-123400000D01*
X134671428Y-123514285D01*
X134728571Y-123742857D01*
X134728571Y-124142857D01*
X134671428Y-124371428D01*
X134557142Y-124485714D01*
X134442857Y-124542857D01*
X134214285Y-124542857D01*
X134100000Y-124485714D01*
X133985714Y-124371428D01*
X133928571Y-124142857D01*
X133928571Y-123742857D01*
X133985714Y-123514285D01*
X134100000Y-123400000D01*
X134214285Y-123342857D01*
X135185714Y-124200000D02*
X135757142Y-124200000D01*
X135071428Y-124542857D02*
X135471428Y-123342857D01*
X135871428Y-124542857D01*
X136271428Y-124542857D02*
X136271428Y-123342857D01*
X136671428Y-124200000D01*
X137071428Y-123342857D01*
X137071428Y-124542857D01*
X137642857Y-124542857D02*
X137642857Y-123342857D01*
X138100000Y-123342857D01*
X138214285Y-123400000D01*
X138271428Y-123457142D01*
X138328571Y-123571428D01*
X138328571Y-123742857D01*
X138271428Y-123857142D01*
X138214285Y-123914285D01*
X138100000Y-123971428D01*
X137642857Y-123971428D01*
X120300000Y-121042857D02*
X119900000Y-120471428D01*
X119614285Y-121042857D02*
X119614285Y-119842857D01*
X120071428Y-119842857D01*
X120185714Y-119900000D01*
X120242857Y-119957142D01*
X120300000Y-120071428D01*
X120300000Y-120242857D01*
X120242857Y-120357142D01*
X120185714Y-120414285D01*
X120071428Y-120471428D01*
X119614285Y-120471428D01*
X120700000Y-119842857D02*
X121500000Y-121042857D01*
X121500000Y-119842857D02*
X120700000Y-121042857D01*
X134585714Y-115342857D02*
X135271428Y-115342857D01*
X134928571Y-116542857D02*
X134928571Y-115342857D01*
X135557142Y-115342857D02*
X136357142Y-116542857D01*
X136357142Y-115342857D02*
X135557142Y-116542857D01*
X155828571Y-88542857D02*
X155828571Y-87342857D01*
X156285714Y-87342857D01*
X156400000Y-87400000D01*
X156457142Y-87457142D01*
X156514285Y-87571428D01*
X156514285Y-87742857D01*
X156457142Y-87857142D01*
X156400000Y-87914285D01*
X156285714Y-87971428D01*
X155828571Y-87971428D01*
X156971428Y-88200000D02*
X157542857Y-88200000D01*
X156857142Y-88542857D02*
X157257142Y-87342857D01*
X157657142Y-88542857D01*
X158971428Y-88542857D02*
X158971428Y-87342857D01*
X159428571Y-87342857D01*
X159542857Y-87400000D01*
X159600000Y-87457142D01*
X159657142Y-87571428D01*
X159657142Y-87742857D01*
X159600000Y-87857142D01*
X159542857Y-87914285D01*
X159428571Y-87971428D01*
X158971428Y-87971428D01*
X160057142Y-87342857D02*
X160342857Y-88542857D01*
X160571428Y-87685714D01*
X160800000Y-88542857D01*
X161085714Y-87342857D01*
X162228571Y-88542857D02*
X161828571Y-87971428D01*
X161542857Y-88542857D02*
X161542857Y-87342857D01*
X162000000Y-87342857D01*
X162114285Y-87400000D01*
X162171428Y-87457142D01*
X162228571Y-87571428D01*
X162228571Y-87742857D01*
X162171428Y-87857142D01*
X162114285Y-87914285D01*
X162000000Y-87971428D01*
X161542857Y-87971428D01*
X128478571Y-140042857D02*
X127907142Y-140042857D01*
X127907142Y-138842857D01*
X128878571Y-140042857D02*
X128878571Y-138842857D01*
X129564285Y-140042857D01*
X129564285Y-138842857D01*
X130078571Y-139700000D02*
X130650000Y-139700000D01*
X129964285Y-140042857D02*
X130364285Y-138842857D01*
X130764285Y-140042857D01*
X157885714Y-117542857D02*
X157885714Y-116342857D01*
X158342857Y-116342857D01*
X158457142Y-116400000D01*
X158514285Y-116457142D01*
X158571428Y-116571428D01*
X158571428Y-116742857D01*
X158514285Y-116857142D01*
X158457142Y-116914285D01*
X158342857Y-116971428D01*
X157885714Y-116971428D01*
X159028571Y-117200000D02*
X159600000Y-117200000D01*
X158914285Y-117542857D02*
X159314285Y-116342857D01*
X159714285Y-117542857D01*
X160114285Y-117542857D02*
X160114285Y-116342857D01*
X160514285Y-117200000D01*
X160914285Y-116342857D01*
X160914285Y-117542857D01*
X161485714Y-117542857D02*
X161485714Y-116342857D01*
X161942857Y-116342857D01*
X162057142Y-116400000D01*
X162114285Y-116457142D01*
X162171428Y-116571428D01*
X162171428Y-116742857D01*
X162114285Y-116857142D01*
X162057142Y-116914285D01*
X161942857Y-116971428D01*
X161485714Y-116971428D01*
X160500000Y-97250000D02*
X160500000Y-98750000D01*
X153250000Y-98000000D02*
G75*
G03*
X153250000Y-98000000I-750000J0D01*
G01*
X120301428Y-144742857D02*
X120587142Y-145542857D01*
X120872857Y-144742857D01*
X121958571Y-145542857D02*
X121272857Y-145542857D01*
X121615714Y-145542857D02*
X121615714Y-144342857D01*
X121501428Y-144514285D01*
X121387142Y-144628571D01*
X121272857Y-144685714D01*
D11*
X108171190Y-145654761D02*
X108171190Y-143654761D01*
X109314047Y-145654761D01*
X109314047Y-143654761D01*
X110171190Y-145083333D02*
X111123571Y-145083333D01*
X109980714Y-145654761D02*
X110647380Y-143654761D01*
X111314047Y-145654761D01*
X113123571Y-145654761D02*
X112456904Y-144702380D01*
X111980714Y-145654761D02*
X111980714Y-143654761D01*
X112742619Y-143654761D01*
X112933095Y-143750000D01*
X113028333Y-143845238D01*
X113123571Y-144035714D01*
X113123571Y-144321428D01*
X113028333Y-144511904D01*
X112933095Y-144607142D01*
X112742619Y-144702380D01*
X111980714Y-144702380D01*
X113790238Y-143654761D02*
X114266428Y-145654761D01*
X114647380Y-144226190D01*
X115028333Y-145654761D01*
X115504523Y-143654761D01*
X116171190Y-145083333D02*
X117123571Y-145083333D01*
X115980714Y-145654761D02*
X116647380Y-143654761D01*
X117314047Y-145654761D01*
X118933095Y-145654761D02*
X117980714Y-145654761D01*
X117980714Y-143654761D01*
X109084285Y-148178571D02*
X108584285Y-147464285D01*
X108227142Y-148178571D02*
X108227142Y-146678571D01*
X108798571Y-146678571D01*
X108941428Y-146750000D01*
X109012857Y-146821428D01*
X109084285Y-146964285D01*
X109084285Y-147178571D01*
X109012857Y-147321428D01*
X108941428Y-147392857D01*
X108798571Y-147464285D01*
X108227142Y-147464285D01*
X109727142Y-148178571D02*
X109727142Y-147178571D01*
X109727142Y-146678571D02*
X109655714Y-146750000D01*
X109727142Y-146821428D01*
X109798571Y-146750000D01*
X109727142Y-146678571D01*
X109727142Y-146821428D01*
X111084285Y-148107142D02*
X110941428Y-148178571D01*
X110655714Y-148178571D01*
X110512857Y-148107142D01*
X110441428Y-148035714D01*
X110370000Y-147892857D01*
X110370000Y-147464285D01*
X110441428Y-147321428D01*
X110512857Y-147250000D01*
X110655714Y-147178571D01*
X110941428Y-147178571D01*
X111084285Y-147250000D01*
X112298571Y-148107142D02*
X112155714Y-148178571D01*
X111870000Y-148178571D01*
X111727142Y-148107142D01*
X111655714Y-147964285D01*
X111655714Y-147392857D01*
X111727142Y-147250000D01*
X111870000Y-147178571D01*
X112155714Y-147178571D01*
X112298571Y-147250000D01*
X112370000Y-147392857D01*
X112370000Y-147535714D01*
X111655714Y-147678571D01*
X114155714Y-147392857D02*
X114655714Y-147392857D01*
X114870000Y-148178571D02*
X114155714Y-148178571D01*
X114155714Y-146678571D01*
X114870000Y-146678571D01*
X116155714Y-148107142D02*
X116012857Y-148178571D01*
X115727142Y-148178571D01*
X115584285Y-148107142D01*
X115512857Y-148035714D01*
X115441428Y-147892857D01*
X115441428Y-147464285D01*
X115512857Y-147321428D01*
X115584285Y-147250000D01*
X115727142Y-147178571D01*
X116012857Y-147178571D01*
X116155714Y-147250000D01*
X117012857Y-148178571D02*
X116870000Y-148107142D01*
X116798571Y-147964285D01*
X116798571Y-146678571D01*
X117584285Y-148178571D02*
X117584285Y-147178571D01*
X117584285Y-146678571D02*
X117512857Y-146750000D01*
X117584285Y-146821428D01*
X117655714Y-146750000D01*
X117584285Y-146678571D01*
X117584285Y-146821428D01*
X118298571Y-147178571D02*
X118298571Y-148678571D01*
X118298571Y-147250000D02*
X118441428Y-147178571D01*
X118727142Y-147178571D01*
X118870000Y-147250000D01*
X118941428Y-147321428D01*
X119012857Y-147464285D01*
X119012857Y-147892857D01*
X118941428Y-148035714D01*
X118870000Y-148107142D01*
X118727142Y-148178571D01*
X118441428Y-148178571D01*
X118298571Y-148107142D01*
X119584285Y-148107142D02*
X119727142Y-148178571D01*
X120012857Y-148178571D01*
X120155714Y-148107142D01*
X120227142Y-147964285D01*
X120227142Y-147892857D01*
X120155714Y-147750000D01*
X120012857Y-147678571D01*
X119798571Y-147678571D01*
X119655714Y-147607142D01*
X119584285Y-147464285D01*
X119584285Y-147392857D01*
X119655714Y-147250000D01*
X119798571Y-147178571D01*
X120012857Y-147178571D01*
X120155714Y-147250000D01*
X121441428Y-148107142D02*
X121298571Y-148178571D01*
X121012857Y-148178571D01*
X120870000Y-148107142D01*
X120798571Y-147964285D01*
X120798571Y-147392857D01*
X120870000Y-147250000D01*
X121012857Y-147178571D01*
X121298571Y-147178571D01*
X121441428Y-147250000D01*
X121512857Y-147392857D01*
X121512857Y-147535714D01*
X120798571Y-147678571D01*
X123298571Y-147607142D02*
X124441428Y-147607142D01*
X127155714Y-148178571D02*
X126655714Y-147464285D01*
X126298571Y-148178571D02*
X126298571Y-146678571D01*
X126870000Y-146678571D01*
X127012857Y-146750000D01*
X127084285Y-146821428D01*
X127155714Y-146964285D01*
X127155714Y-147178571D01*
X127084285Y-147321428D01*
X127012857Y-147392857D01*
X126870000Y-147464285D01*
X126298571Y-147464285D01*
X128298571Y-147392857D02*
X127798571Y-147392857D01*
X127798571Y-148178571D02*
X127798571Y-146678571D01*
X128512857Y-146678571D01*
D10*
X138300000Y-130542857D02*
X137900000Y-129971428D01*
X137614285Y-130542857D02*
X137614285Y-129342857D01*
X138071428Y-129342857D01*
X138185714Y-129400000D01*
X138242857Y-129457142D01*
X138300000Y-129571428D01*
X138300000Y-129742857D01*
X138242857Y-129857142D01*
X138185714Y-129914285D01*
X138071428Y-129971428D01*
X137614285Y-129971428D01*
X139328571Y-129742857D02*
X139328571Y-130542857D01*
X139042857Y-129285714D02*
X138757142Y-130142857D01*
X139500000Y-130142857D01*
X167114285Y-65037857D02*
X167114285Y-63837857D01*
X167400000Y-63837857D01*
X167571428Y-63895000D01*
X167685714Y-64009285D01*
X167742857Y-64123571D01*
X167800000Y-64352142D01*
X167800000Y-64523571D01*
X167742857Y-64752142D01*
X167685714Y-64866428D01*
X167571428Y-64980714D01*
X167400000Y-65037857D01*
X167114285Y-65037857D01*
X168942857Y-65037857D02*
X168257142Y-65037857D01*
X168600000Y-65037857D02*
X168600000Y-63837857D01*
X168485714Y-64009285D01*
X168371428Y-64123571D01*
X168257142Y-64180714D01*
X119585714Y-109592857D02*
X119585714Y-110564285D01*
X119642857Y-110678571D01*
X119700000Y-110735714D01*
X119814285Y-110792857D01*
X120042857Y-110792857D01*
X120157142Y-110735714D01*
X120214285Y-110678571D01*
X120271428Y-110564285D01*
X120271428Y-109592857D01*
X120728571Y-109592857D02*
X121471428Y-109592857D01*
X121071428Y-110050000D01*
X121242857Y-110050000D01*
X121357142Y-110107142D01*
X121414285Y-110164285D01*
X121471428Y-110278571D01*
X121471428Y-110564285D01*
X121414285Y-110678571D01*
X121357142Y-110735714D01*
X121242857Y-110792857D01*
X120900000Y-110792857D01*
X120785714Y-110735714D01*
X120728571Y-110678571D01*
X163585714Y-134842857D02*
X163585714Y-135814285D01*
X163642857Y-135928571D01*
X163700000Y-135985714D01*
X163814285Y-136042857D01*
X164042857Y-136042857D01*
X164157142Y-135985714D01*
X164214285Y-135928571D01*
X164271428Y-135814285D01*
X164271428Y-134842857D01*
X165414285Y-134842857D02*
X164842857Y-134842857D01*
X164785714Y-135414285D01*
X164842857Y-135357142D01*
X164957142Y-135300000D01*
X165242857Y-135300000D01*
X165357142Y-135357142D01*
X165414285Y-135414285D01*
X165471428Y-135528571D01*
X165471428Y-135814285D01*
X165414285Y-135928571D01*
X165357142Y-135985714D01*
X165242857Y-136042857D01*
X164957142Y-136042857D01*
X164842857Y-135985714D01*
X164785714Y-135928571D01*
X169800000Y-119542857D02*
X169228571Y-119542857D01*
X169228571Y-118342857D01*
X170085714Y-118342857D02*
X170828571Y-118342857D01*
X170428571Y-118800000D01*
X170600000Y-118800000D01*
X170714285Y-118857142D01*
X170771428Y-118914285D01*
X170828571Y-119028571D01*
X170828571Y-119314285D01*
X170771428Y-119428571D01*
X170714285Y-119485714D01*
X170600000Y-119542857D01*
X170257142Y-119542857D01*
X170142857Y-119485714D01*
X170085714Y-119428571D01*
X152800000Y-112542857D02*
X152228571Y-112542857D01*
X152228571Y-111342857D01*
X153142857Y-111457142D02*
X153200000Y-111400000D01*
X153314285Y-111342857D01*
X153600000Y-111342857D01*
X153714285Y-111400000D01*
X153771428Y-111457142D01*
X153828571Y-111571428D01*
X153828571Y-111685714D01*
X153771428Y-111857142D01*
X153085714Y-112542857D01*
X153828571Y-112542857D01*
X141300000Y-119292857D02*
X140728571Y-119292857D01*
X140728571Y-118092857D01*
X142214285Y-118492857D02*
X142214285Y-119292857D01*
X141928571Y-118035714D02*
X141642857Y-118892857D01*
X142385714Y-118892857D01*
X125728571Y-131428571D02*
X125671428Y-131485714D01*
X125500000Y-131542857D01*
X125385714Y-131542857D01*
X125214285Y-131485714D01*
X125100000Y-131371428D01*
X125042857Y-131257142D01*
X124985714Y-131028571D01*
X124985714Y-130857142D01*
X125042857Y-130628571D01*
X125100000Y-130514285D01*
X125214285Y-130400000D01*
X125385714Y-130342857D01*
X125500000Y-130342857D01*
X125671428Y-130400000D01*
X125728571Y-130457142D01*
X126871428Y-131542857D02*
X126185714Y-131542857D01*
X126528571Y-131542857D02*
X126528571Y-130342857D01*
X126414285Y-130514285D01*
X126300000Y-130628571D01*
X126185714Y-130685714D01*
X127271428Y-130342857D02*
X128071428Y-130342857D01*
X127557142Y-131542857D01*
X155800000Y-105042857D02*
X155400000Y-104471428D01*
X155114285Y-105042857D02*
X155114285Y-103842857D01*
X155571428Y-103842857D01*
X155685714Y-103900000D01*
X155742857Y-103957142D01*
X155800000Y-104071428D01*
X155800000Y-104242857D01*
X155742857Y-104357142D01*
X155685714Y-104414285D01*
X155571428Y-104471428D01*
X155114285Y-104471428D01*
X156257142Y-103957142D02*
X156314285Y-103900000D01*
X156428571Y-103842857D01*
X156714285Y-103842857D01*
X156828571Y-103900000D01*
X156885714Y-103957142D01*
X156942857Y-104071428D01*
X156942857Y-104185714D01*
X156885714Y-104357142D01*
X156200000Y-105042857D01*
X156942857Y-105042857D01*
X150085714Y-88485714D02*
X150257142Y-88542857D01*
X150542857Y-88542857D01*
X150657142Y-88485714D01*
X150714285Y-88428571D01*
X150771428Y-88314285D01*
X150771428Y-88200000D01*
X150714285Y-88085714D01*
X150657142Y-88028571D01*
X150542857Y-87971428D01*
X150314285Y-87914285D01*
X150200000Y-87857142D01*
X150142857Y-87800000D01*
X150085714Y-87685714D01*
X150085714Y-87571428D01*
X150142857Y-87457142D01*
X150200000Y-87400000D01*
X150314285Y-87342857D01*
X150600000Y-87342857D01*
X150771428Y-87400000D01*
X151914285Y-88542857D02*
X151228571Y-88542857D01*
X151571428Y-88542857D02*
X151571428Y-87342857D01*
X151457142Y-87514285D01*
X151342857Y-87628571D01*
X151228571Y-87685714D01*
X172728571Y-124928571D02*
X172671428Y-124985714D01*
X172500000Y-125042857D01*
X172385714Y-125042857D01*
X172214285Y-124985714D01*
X172100000Y-124871428D01*
X172042857Y-124757142D01*
X171985714Y-124528571D01*
X171985714Y-124357142D01*
X172042857Y-124128571D01*
X172100000Y-124014285D01*
X172214285Y-123900000D01*
X172385714Y-123842857D01*
X172500000Y-123842857D01*
X172671428Y-123900000D01*
X172728571Y-123957142D01*
X173871428Y-125042857D02*
X173185714Y-125042857D01*
X173528571Y-125042857D02*
X173528571Y-123842857D01*
X173414285Y-124014285D01*
X173300000Y-124128571D01*
X173185714Y-124185714D01*
X174614285Y-123842857D02*
X174728571Y-123842857D01*
X174842857Y-123900000D01*
X174900000Y-123957142D01*
X174957142Y-124071428D01*
X175014285Y-124300000D01*
X175014285Y-124585714D01*
X174957142Y-124814285D01*
X174900000Y-124928571D01*
X174842857Y-124985714D01*
X174728571Y-125042857D01*
X174614285Y-125042857D01*
X174500000Y-124985714D01*
X174442857Y-124928571D01*
X174385714Y-124814285D01*
X174328571Y-124585714D01*
X174328571Y-124300000D01*
X174385714Y-124071428D01*
X174442857Y-123957142D01*
X174500000Y-123900000D01*
X174614285Y-123842857D01*
X112800000Y-137042857D02*
X112228571Y-137042857D01*
X112228571Y-135842857D01*
X113771428Y-135842857D02*
X113200000Y-135842857D01*
X113142857Y-136414285D01*
X113200000Y-136357142D01*
X113314285Y-136300000D01*
X113600000Y-136300000D01*
X113714285Y-136357142D01*
X113771428Y-136414285D01*
X113828571Y-136528571D01*
X113828571Y-136814285D01*
X113771428Y-136928571D01*
X113714285Y-136985714D01*
X113600000Y-137042857D01*
X113314285Y-137042857D01*
X113200000Y-136985714D01*
X113142857Y-136928571D01*
X164600000Y-57842857D02*
X164600000Y-58700000D01*
X164542857Y-58871428D01*
X164428571Y-58985714D01*
X164257142Y-59042857D01*
X164142857Y-59042857D01*
X165114285Y-57957142D02*
X165171428Y-57900000D01*
X165285714Y-57842857D01*
X165571428Y-57842857D01*
X165685714Y-57900000D01*
X165742857Y-57957142D01*
X165800000Y-58071428D01*
X165800000Y-58185714D01*
X165742857Y-58357142D01*
X165057142Y-59042857D01*
X165800000Y-59042857D01*
X167242857Y-54542857D02*
X167242857Y-53342857D01*
X168671428Y-53285714D02*
X167642857Y-54828571D01*
X169300000Y-53342857D02*
X169528571Y-53342857D01*
X169642857Y-53400000D01*
X169757142Y-53514285D01*
X169814285Y-53742857D01*
X169814285Y-54142857D01*
X169757142Y-54371428D01*
X169642857Y-54485714D01*
X169528571Y-54542857D01*
X169300000Y-54542857D01*
X169185714Y-54485714D01*
X169071428Y-54371428D01*
X169014285Y-54142857D01*
X169014285Y-53742857D01*
X169071428Y-53514285D01*
X169185714Y-53400000D01*
X169300000Y-53342857D01*
X170300000Y-110542857D02*
X169728571Y-110542857D01*
X169728571Y-109342857D01*
X171328571Y-110542857D02*
X170642857Y-110542857D01*
X170985714Y-110542857D02*
X170985714Y-109342857D01*
X170871428Y-109514285D01*
X170757142Y-109628571D01*
X170642857Y-109685714D01*
X153228571Y-144428571D02*
X153171428Y-144485714D01*
X153000000Y-144542857D01*
X152885714Y-144542857D01*
X152714285Y-144485714D01*
X152600000Y-144371428D01*
X152542857Y-144257142D01*
X152485714Y-144028571D01*
X152485714Y-143857142D01*
X152542857Y-143628571D01*
X152600000Y-143514285D01*
X152714285Y-143400000D01*
X152885714Y-143342857D01*
X153000000Y-143342857D01*
X153171428Y-143400000D01*
X153228571Y-143457142D01*
X154371428Y-144542857D02*
X153685714Y-144542857D01*
X154028571Y-144542857D02*
X154028571Y-143342857D01*
X153914285Y-143514285D01*
X153800000Y-143628571D01*
X153685714Y-143685714D01*
X154942857Y-144542857D02*
X155171428Y-144542857D01*
X155285714Y-144485714D01*
X155342857Y-144428571D01*
X155457142Y-144257142D01*
X155514285Y-144028571D01*
X155514285Y-143571428D01*
X155457142Y-143457142D01*
X155400000Y-143400000D01*
X155285714Y-143342857D01*
X155057142Y-143342857D01*
X154942857Y-143400000D01*
X154885714Y-143457142D01*
X154828571Y-143571428D01*
X154828571Y-143857142D01*
X154885714Y-143971428D01*
X154942857Y-144028571D01*
X155057142Y-144085714D01*
X155285714Y-144085714D01*
X155400000Y-144028571D01*
X155457142Y-143971428D01*
X155514285Y-143857142D01*
X159085714Y-108342857D02*
X159085714Y-109314285D01*
X159142857Y-109428571D01*
X159200000Y-109485714D01*
X159314285Y-109542857D01*
X159542857Y-109542857D01*
X159657142Y-109485714D01*
X159714285Y-109428571D01*
X159771428Y-109314285D01*
X159771428Y-108342857D01*
X160857142Y-108742857D02*
X160857142Y-109542857D01*
X160571428Y-108285714D02*
X160285714Y-109142857D01*
X161028571Y-109142857D01*
X149228571Y-144428571D02*
X149171428Y-144485714D01*
X149000000Y-144542857D01*
X148885714Y-144542857D01*
X148714285Y-144485714D01*
X148600000Y-144371428D01*
X148542857Y-144257142D01*
X148485714Y-144028571D01*
X148485714Y-143857142D01*
X148542857Y-143628571D01*
X148600000Y-143514285D01*
X148714285Y-143400000D01*
X148885714Y-143342857D01*
X149000000Y-143342857D01*
X149171428Y-143400000D01*
X149228571Y-143457142D01*
X149685714Y-143457142D02*
X149742857Y-143400000D01*
X149857142Y-143342857D01*
X150142857Y-143342857D01*
X150257142Y-143400000D01*
X150314285Y-143457142D01*
X150371428Y-143571428D01*
X150371428Y-143685714D01*
X150314285Y-143857142D01*
X149628571Y-144542857D01*
X150371428Y-144542857D01*
X151114285Y-143342857D02*
X151228571Y-143342857D01*
X151342857Y-143400000D01*
X151400000Y-143457142D01*
X151457142Y-143571428D01*
X151514285Y-143800000D01*
X151514285Y-144085714D01*
X151457142Y-144314285D01*
X151400000Y-144428571D01*
X151342857Y-144485714D01*
X151228571Y-144542857D01*
X151114285Y-144542857D01*
X151000000Y-144485714D01*
X150942857Y-144428571D01*
X150885714Y-144314285D01*
X150828571Y-144085714D01*
X150828571Y-143800000D01*
X150885714Y-143571428D01*
X150942857Y-143457142D01*
X151000000Y-143400000D01*
X151114285Y-143342857D01*
X135228571Y-107928571D02*
X135171428Y-107985714D01*
X135000000Y-108042857D01*
X134885714Y-108042857D01*
X134714285Y-107985714D01*
X134600000Y-107871428D01*
X134542857Y-107757142D01*
X134485714Y-107528571D01*
X134485714Y-107357142D01*
X134542857Y-107128571D01*
X134600000Y-107014285D01*
X134714285Y-106900000D01*
X134885714Y-106842857D01*
X135000000Y-106842857D01*
X135171428Y-106900000D01*
X135228571Y-106957142D01*
X136371428Y-108042857D02*
X135685714Y-108042857D01*
X136028571Y-108042857D02*
X136028571Y-106842857D01*
X135914285Y-107014285D01*
X135800000Y-107128571D01*
X135685714Y-107185714D01*
X136771428Y-106842857D02*
X137514285Y-106842857D01*
X137114285Y-107300000D01*
X137285714Y-107300000D01*
X137400000Y-107357142D01*
X137457142Y-107414285D01*
X137514285Y-107528571D01*
X137514285Y-107814285D01*
X137457142Y-107928571D01*
X137400000Y-107985714D01*
X137285714Y-108042857D01*
X136942857Y-108042857D01*
X136828571Y-107985714D01*
X136771428Y-107928571D01*
X118800000Y-95928571D02*
X118742857Y-95985714D01*
X118571428Y-96042857D01*
X118457142Y-96042857D01*
X118285714Y-95985714D01*
X118171428Y-95871428D01*
X118114285Y-95757142D01*
X118057142Y-95528571D01*
X118057142Y-95357142D01*
X118114285Y-95128571D01*
X118171428Y-95014285D01*
X118285714Y-94900000D01*
X118457142Y-94842857D01*
X118571428Y-94842857D01*
X118742857Y-94900000D01*
X118800000Y-94957142D01*
X119200000Y-94842857D02*
X119942857Y-94842857D01*
X119542857Y-95300000D01*
X119714285Y-95300000D01*
X119828571Y-95357142D01*
X119885714Y-95414285D01*
X119942857Y-95528571D01*
X119942857Y-95814285D01*
X119885714Y-95928571D01*
X119828571Y-95985714D01*
X119714285Y-96042857D01*
X119371428Y-96042857D01*
X119257142Y-95985714D01*
X119200000Y-95928571D01*
X135228571Y-111428571D02*
X135171428Y-111485714D01*
X135000000Y-111542857D01*
X134885714Y-111542857D01*
X134714285Y-111485714D01*
X134600000Y-111371428D01*
X134542857Y-111257142D01*
X134485714Y-111028571D01*
X134485714Y-110857142D01*
X134542857Y-110628571D01*
X134600000Y-110514285D01*
X134714285Y-110400000D01*
X134885714Y-110342857D01*
X135000000Y-110342857D01*
X135171428Y-110400000D01*
X135228571Y-110457142D01*
X136371428Y-111542857D02*
X135685714Y-111542857D01*
X136028571Y-111542857D02*
X136028571Y-110342857D01*
X135914285Y-110514285D01*
X135800000Y-110628571D01*
X135685714Y-110685714D01*
X136828571Y-110457142D02*
X136885714Y-110400000D01*
X137000000Y-110342857D01*
X137285714Y-110342857D01*
X137400000Y-110400000D01*
X137457142Y-110457142D01*
X137514285Y-110571428D01*
X137514285Y-110685714D01*
X137457142Y-110857142D01*
X136771428Y-111542857D01*
X137514285Y-111542857D01*
X113550000Y-58928571D02*
X113492857Y-58985714D01*
X113321428Y-59042857D01*
X113207142Y-59042857D01*
X113035714Y-58985714D01*
X112921428Y-58871428D01*
X112864285Y-58757142D01*
X112807142Y-58528571D01*
X112807142Y-58357142D01*
X112864285Y-58128571D01*
X112921428Y-58014285D01*
X113035714Y-57900000D01*
X113207142Y-57842857D01*
X113321428Y-57842857D01*
X113492857Y-57900000D01*
X113550000Y-57957142D01*
X114578571Y-58242857D02*
X114578571Y-59042857D01*
X114292857Y-57785714D02*
X114007142Y-58642857D01*
X114750000Y-58642857D01*
X127085714Y-54342857D02*
X127085714Y-55314285D01*
X127142857Y-55428571D01*
X127200000Y-55485714D01*
X127314285Y-55542857D01*
X127542857Y-55542857D01*
X127657142Y-55485714D01*
X127714285Y-55428571D01*
X127771428Y-55314285D01*
X127771428Y-54342857D01*
X128285714Y-54457142D02*
X128342857Y-54400000D01*
X128457142Y-54342857D01*
X128742857Y-54342857D01*
X128857142Y-54400000D01*
X128914285Y-54457142D01*
X128971428Y-54571428D01*
X128971428Y-54685714D01*
X128914285Y-54857142D01*
X128228571Y-55542857D01*
X128971428Y-55542857D01*
X143978571Y-130428571D02*
X143921428Y-130485714D01*
X143750000Y-130542857D01*
X143635714Y-130542857D01*
X143464285Y-130485714D01*
X143350000Y-130371428D01*
X143292857Y-130257142D01*
X143235714Y-130028571D01*
X143235714Y-129857142D01*
X143292857Y-129628571D01*
X143350000Y-129514285D01*
X143464285Y-129400000D01*
X143635714Y-129342857D01*
X143750000Y-129342857D01*
X143921428Y-129400000D01*
X143978571Y-129457142D01*
X145121428Y-130542857D02*
X144435714Y-130542857D01*
X144778571Y-130542857D02*
X144778571Y-129342857D01*
X144664285Y-129514285D01*
X144550000Y-129628571D01*
X144435714Y-129685714D01*
X145807142Y-129857142D02*
X145692857Y-129800000D01*
X145635714Y-129742857D01*
X145578571Y-129628571D01*
X145578571Y-129571428D01*
X145635714Y-129457142D01*
X145692857Y-129400000D01*
X145807142Y-129342857D01*
X146035714Y-129342857D01*
X146150000Y-129400000D01*
X146207142Y-129457142D01*
X146264285Y-129571428D01*
X146264285Y-129628571D01*
X146207142Y-129742857D01*
X146150000Y-129800000D01*
X146035714Y-129857142D01*
X145807142Y-129857142D01*
X145692857Y-129914285D01*
X145635714Y-129971428D01*
X145578571Y-130085714D01*
X145578571Y-130314285D01*
X145635714Y-130428571D01*
X145692857Y-130485714D01*
X145807142Y-130542857D01*
X146035714Y-130542857D01*
X146150000Y-130485714D01*
X146207142Y-130428571D01*
X146264285Y-130314285D01*
X146264285Y-130085714D01*
X146207142Y-129971428D01*
X146150000Y-129914285D01*
X146035714Y-129857142D01*
X146050000Y-112178571D02*
X145992857Y-112235714D01*
X145821428Y-112292857D01*
X145707142Y-112292857D01*
X145535714Y-112235714D01*
X145421428Y-112121428D01*
X145364285Y-112007142D01*
X145307142Y-111778571D01*
X145307142Y-111607142D01*
X145364285Y-111378571D01*
X145421428Y-111264285D01*
X145535714Y-111150000D01*
X145707142Y-111092857D01*
X145821428Y-111092857D01*
X145992857Y-111150000D01*
X146050000Y-111207142D01*
X146450000Y-111092857D02*
X147250000Y-111092857D01*
X146735714Y-112292857D01*
X175300000Y-86042857D02*
X174900000Y-85471428D01*
X174614285Y-86042857D02*
X174614285Y-84842857D01*
X175071428Y-84842857D01*
X175185714Y-84900000D01*
X175242857Y-84957142D01*
X175300000Y-85071428D01*
X175300000Y-85242857D01*
X175242857Y-85357142D01*
X175185714Y-85414285D01*
X175071428Y-85471428D01*
X174614285Y-85471428D01*
X176442857Y-86042857D02*
X175757142Y-86042857D01*
X176100000Y-86042857D02*
X176100000Y-84842857D01*
X175985714Y-85014285D01*
X175871428Y-85128571D01*
X175757142Y-85185714D01*
X139300000Y-63428571D02*
X139242857Y-63485714D01*
X139071428Y-63542857D01*
X138957142Y-63542857D01*
X138785714Y-63485714D01*
X138671428Y-63371428D01*
X138614285Y-63257142D01*
X138557142Y-63028571D01*
X138557142Y-62857142D01*
X138614285Y-62628571D01*
X138671428Y-62514285D01*
X138785714Y-62400000D01*
X138957142Y-62342857D01*
X139071428Y-62342857D01*
X139242857Y-62400000D01*
X139300000Y-62457142D01*
X139757142Y-62457142D02*
X139814285Y-62400000D01*
X139928571Y-62342857D01*
X140214285Y-62342857D01*
X140328571Y-62400000D01*
X140385714Y-62457142D01*
X140442857Y-62571428D01*
X140442857Y-62685714D01*
X140385714Y-62857142D01*
X139700000Y-63542857D01*
X140442857Y-63542857D01*
X132728571Y-139428571D02*
X132671428Y-139485714D01*
X132500000Y-139542857D01*
X132385714Y-139542857D01*
X132214285Y-139485714D01*
X132100000Y-139371428D01*
X132042857Y-139257142D01*
X131985714Y-139028571D01*
X131985714Y-138857142D01*
X132042857Y-138628571D01*
X132100000Y-138514285D01*
X132214285Y-138400000D01*
X132385714Y-138342857D01*
X132500000Y-138342857D01*
X132671428Y-138400000D01*
X132728571Y-138457142D01*
X133871428Y-139542857D02*
X133185714Y-139542857D01*
X133528571Y-139542857D02*
X133528571Y-138342857D01*
X133414285Y-138514285D01*
X133300000Y-138628571D01*
X133185714Y-138685714D01*
X134900000Y-138342857D02*
X134671428Y-138342857D01*
X134557142Y-138400000D01*
X134500000Y-138457142D01*
X134385714Y-138628571D01*
X134328571Y-138857142D01*
X134328571Y-139314285D01*
X134385714Y-139428571D01*
X134442857Y-139485714D01*
X134557142Y-139542857D01*
X134785714Y-139542857D01*
X134900000Y-139485714D01*
X134957142Y-139428571D01*
X135014285Y-139314285D01*
X135014285Y-139028571D01*
X134957142Y-138914285D01*
X134900000Y-138857142D01*
X134785714Y-138800000D01*
X134557142Y-138800000D01*
X134442857Y-138857142D01*
X134385714Y-138914285D01*
X134328571Y-139028571D01*
X109728571Y-127928571D02*
X109671428Y-127985714D01*
X109500000Y-128042857D01*
X109385714Y-128042857D01*
X109214285Y-127985714D01*
X109100000Y-127871428D01*
X109042857Y-127757142D01*
X108985714Y-127528571D01*
X108985714Y-127357142D01*
X109042857Y-127128571D01*
X109100000Y-127014285D01*
X109214285Y-126900000D01*
X109385714Y-126842857D01*
X109500000Y-126842857D01*
X109671428Y-126900000D01*
X109728571Y-126957142D01*
X110871428Y-128042857D02*
X110185714Y-128042857D01*
X110528571Y-128042857D02*
X110528571Y-126842857D01*
X110414285Y-127014285D01*
X110300000Y-127128571D01*
X110185714Y-127185714D01*
X111900000Y-127242857D02*
X111900000Y-128042857D01*
X111614285Y-126785714D02*
X111328571Y-127642857D01*
X112071428Y-127642857D01*
X169800000Y-100428571D02*
X169742857Y-100485714D01*
X169571428Y-100542857D01*
X169457142Y-100542857D01*
X169285714Y-100485714D01*
X169171428Y-100371428D01*
X169114285Y-100257142D01*
X169057142Y-100028571D01*
X169057142Y-99857142D01*
X169114285Y-99628571D01*
X169171428Y-99514285D01*
X169285714Y-99400000D01*
X169457142Y-99342857D01*
X169571428Y-99342857D01*
X169742857Y-99400000D01*
X169800000Y-99457142D01*
X170885714Y-99342857D02*
X170314285Y-99342857D01*
X170257142Y-99914285D01*
X170314285Y-99857142D01*
X170428571Y-99800000D01*
X170714285Y-99800000D01*
X170828571Y-99857142D01*
X170885714Y-99914285D01*
X170942857Y-100028571D01*
X170942857Y-100314285D01*
X170885714Y-100428571D01*
X170828571Y-100485714D01*
X170714285Y-100542857D01*
X170428571Y-100542857D01*
X170314285Y-100485714D01*
X170257142Y-100428571D01*
X169600000Y-139342857D02*
X169600000Y-140200000D01*
X169542857Y-140371428D01*
X169428571Y-140485714D01*
X169257142Y-140542857D01*
X169142857Y-140542857D01*
X170057142Y-139342857D02*
X170800000Y-139342857D01*
X170400000Y-139800000D01*
X170571428Y-139800000D01*
X170685714Y-139857142D01*
X170742857Y-139914285D01*
X170800000Y-140028571D01*
X170800000Y-140314285D01*
X170742857Y-140428571D01*
X170685714Y-140485714D01*
X170571428Y-140542857D01*
X170228571Y-140542857D01*
X170114285Y-140485714D01*
X170057142Y-140428571D01*
X114300000Y-95928571D02*
X114242857Y-95985714D01*
X114071428Y-96042857D01*
X113957142Y-96042857D01*
X113785714Y-95985714D01*
X113671428Y-95871428D01*
X113614285Y-95757142D01*
X113557142Y-95528571D01*
X113557142Y-95357142D01*
X113614285Y-95128571D01*
X113671428Y-95014285D01*
X113785714Y-94900000D01*
X113957142Y-94842857D01*
X114071428Y-94842857D01*
X114242857Y-94900000D01*
X114300000Y-94957142D01*
X115442857Y-96042857D02*
X114757142Y-96042857D01*
X115100000Y-96042857D02*
X115100000Y-94842857D01*
X114985714Y-95014285D01*
X114871428Y-95128571D01*
X114757142Y-95185714D01*
X123835714Y-81342857D02*
X123835714Y-82314285D01*
X123892857Y-82428571D01*
X123950000Y-82485714D01*
X124064285Y-82542857D01*
X124292857Y-82542857D01*
X124407142Y-82485714D01*
X124464285Y-82428571D01*
X124521428Y-82314285D01*
X124521428Y-81342857D01*
X125721428Y-82542857D02*
X125035714Y-82542857D01*
X125378571Y-82542857D02*
X125378571Y-81342857D01*
X125264285Y-81514285D01*
X125150000Y-81628571D01*
X125035714Y-81685714D01*
X163800000Y-129928571D02*
X163742857Y-129985714D01*
X163571428Y-130042857D01*
X163457142Y-130042857D01*
X163285714Y-129985714D01*
X163171428Y-129871428D01*
X163114285Y-129757142D01*
X163057142Y-129528571D01*
X163057142Y-129357142D01*
X163114285Y-129128571D01*
X163171428Y-129014285D01*
X163285714Y-128900000D01*
X163457142Y-128842857D01*
X163571428Y-128842857D01*
X163742857Y-128900000D01*
X163800000Y-128957142D01*
X164485714Y-129357142D02*
X164371428Y-129300000D01*
X164314285Y-129242857D01*
X164257142Y-129128571D01*
X164257142Y-129071428D01*
X164314285Y-128957142D01*
X164371428Y-128900000D01*
X164485714Y-128842857D01*
X164714285Y-128842857D01*
X164828571Y-128900000D01*
X164885714Y-128957142D01*
X164942857Y-129071428D01*
X164942857Y-129128571D01*
X164885714Y-129242857D01*
X164828571Y-129300000D01*
X164714285Y-129357142D01*
X164485714Y-129357142D01*
X164371428Y-129414285D01*
X164314285Y-129471428D01*
X164257142Y-129585714D01*
X164257142Y-129814285D01*
X164314285Y-129928571D01*
X164371428Y-129985714D01*
X164485714Y-130042857D01*
X164714285Y-130042857D01*
X164828571Y-129985714D01*
X164885714Y-129928571D01*
X164942857Y-129814285D01*
X164942857Y-129585714D01*
X164885714Y-129471428D01*
X164828571Y-129414285D01*
X164714285Y-129357142D01*
X175300000Y-59080357D02*
X174900000Y-58508928D01*
X174614285Y-59080357D02*
X174614285Y-57880357D01*
X175071428Y-57880357D01*
X175185714Y-57937500D01*
X175242857Y-57994642D01*
X175300000Y-58108928D01*
X175300000Y-58280357D01*
X175242857Y-58394642D01*
X175185714Y-58451785D01*
X175071428Y-58508928D01*
X174614285Y-58508928D01*
X175700000Y-57880357D02*
X176442857Y-57880357D01*
X176042857Y-58337500D01*
X176214285Y-58337500D01*
X176328571Y-58394642D01*
X176385714Y-58451785D01*
X176442857Y-58566071D01*
X176442857Y-58851785D01*
X176385714Y-58966071D01*
X176328571Y-59023214D01*
X176214285Y-59080357D01*
X175871428Y-59080357D01*
X175757142Y-59023214D01*
X175700000Y-58966071D01*
X132300000Y-130542857D02*
X131728571Y-130542857D01*
X131728571Y-129342857D01*
X133214285Y-129342857D02*
X132985714Y-129342857D01*
X132871428Y-129400000D01*
X132814285Y-129457142D01*
X132700000Y-129628571D01*
X132642857Y-129857142D01*
X132642857Y-130314285D01*
X132700000Y-130428571D01*
X132757142Y-130485714D01*
X132871428Y-130542857D01*
X133100000Y-130542857D01*
X133214285Y-130485714D01*
X133271428Y-130428571D01*
X133328571Y-130314285D01*
X133328571Y-130028571D01*
X133271428Y-129914285D01*
X133214285Y-129857142D01*
X133100000Y-129800000D01*
X132871428Y-129800000D01*
X132757142Y-129857142D01*
X132700000Y-129914285D01*
X132642857Y-130028571D01*
X154550000Y-119428571D02*
X154492857Y-119485714D01*
X154321428Y-119542857D01*
X154207142Y-119542857D01*
X154035714Y-119485714D01*
X153921428Y-119371428D01*
X153864285Y-119257142D01*
X153807142Y-119028571D01*
X153807142Y-118857142D01*
X153864285Y-118628571D01*
X153921428Y-118514285D01*
X154035714Y-118400000D01*
X154207142Y-118342857D01*
X154321428Y-118342857D01*
X154492857Y-118400000D01*
X154550000Y-118457142D01*
X155121428Y-119542857D02*
X155350000Y-119542857D01*
X155464285Y-119485714D01*
X155521428Y-119428571D01*
X155635714Y-119257142D01*
X155692857Y-119028571D01*
X155692857Y-118571428D01*
X155635714Y-118457142D01*
X155578571Y-118400000D01*
X155464285Y-118342857D01*
X155235714Y-118342857D01*
X155121428Y-118400000D01*
X155064285Y-118457142D01*
X155007142Y-118571428D01*
X155007142Y-118857142D01*
X155064285Y-118971428D01*
X155121428Y-119028571D01*
X155235714Y-119085714D01*
X155464285Y-119085714D01*
X155578571Y-119028571D01*
X155635714Y-118971428D01*
X155692857Y-118857142D01*
X109728571Y-131928571D02*
X109671428Y-131985714D01*
X109500000Y-132042857D01*
X109385714Y-132042857D01*
X109214285Y-131985714D01*
X109100000Y-131871428D01*
X109042857Y-131757142D01*
X108985714Y-131528571D01*
X108985714Y-131357142D01*
X109042857Y-131128571D01*
X109100000Y-131014285D01*
X109214285Y-130900000D01*
X109385714Y-130842857D01*
X109500000Y-130842857D01*
X109671428Y-130900000D01*
X109728571Y-130957142D01*
X110871428Y-132042857D02*
X110185714Y-132042857D01*
X110528571Y-132042857D02*
X110528571Y-130842857D01*
X110414285Y-131014285D01*
X110300000Y-131128571D01*
X110185714Y-131185714D01*
X111957142Y-130842857D02*
X111385714Y-130842857D01*
X111328571Y-131414285D01*
X111385714Y-131357142D01*
X111500000Y-131300000D01*
X111785714Y-131300000D01*
X111900000Y-131357142D01*
X111957142Y-131414285D01*
X112014285Y-131528571D01*
X112014285Y-131814285D01*
X111957142Y-131928571D01*
X111900000Y-131985714D01*
X111785714Y-132042857D01*
X111500000Y-132042857D01*
X111385714Y-131985714D01*
X111328571Y-131928571D01*
X169800000Y-104928571D02*
X169742857Y-104985714D01*
X169571428Y-105042857D01*
X169457142Y-105042857D01*
X169285714Y-104985714D01*
X169171428Y-104871428D01*
X169114285Y-104757142D01*
X169057142Y-104528571D01*
X169057142Y-104357142D01*
X169114285Y-104128571D01*
X169171428Y-104014285D01*
X169285714Y-103900000D01*
X169457142Y-103842857D01*
X169571428Y-103842857D01*
X169742857Y-103900000D01*
X169800000Y-103957142D01*
X170828571Y-103842857D02*
X170600000Y-103842857D01*
X170485714Y-103900000D01*
X170428571Y-103957142D01*
X170314285Y-104128571D01*
X170257142Y-104357142D01*
X170257142Y-104814285D01*
X170314285Y-104928571D01*
X170371428Y-104985714D01*
X170485714Y-105042857D01*
X170714285Y-105042857D01*
X170828571Y-104985714D01*
X170885714Y-104928571D01*
X170942857Y-104814285D01*
X170942857Y-104528571D01*
X170885714Y-104414285D01*
X170828571Y-104357142D01*
X170714285Y-104300000D01*
X170485714Y-104300000D01*
X170371428Y-104357142D01*
X170314285Y-104414285D01*
X170257142Y-104528571D01*
X172728571Y-129428571D02*
X172671428Y-129485714D01*
X172500000Y-129542857D01*
X172385714Y-129542857D01*
X172214285Y-129485714D01*
X172100000Y-129371428D01*
X172042857Y-129257142D01*
X171985714Y-129028571D01*
X171985714Y-128857142D01*
X172042857Y-128628571D01*
X172100000Y-128514285D01*
X172214285Y-128400000D01*
X172385714Y-128342857D01*
X172500000Y-128342857D01*
X172671428Y-128400000D01*
X172728571Y-128457142D01*
X173871428Y-129542857D02*
X173185714Y-129542857D01*
X173528571Y-129542857D02*
X173528571Y-128342857D01*
X173414285Y-128514285D01*
X173300000Y-128628571D01*
X173185714Y-128685714D01*
X175014285Y-129542857D02*
X174328571Y-129542857D01*
X174671428Y-129542857D02*
X174671428Y-128342857D01*
X174557142Y-128514285D01*
X174442857Y-128628571D01*
X174328571Y-128685714D01*
X120085714Y-138782657D02*
X120085714Y-139754085D01*
X120142857Y-139868371D01*
X120200000Y-139925514D01*
X120314285Y-139982657D01*
X120542857Y-139982657D01*
X120657142Y-139925514D01*
X120714285Y-139868371D01*
X120771428Y-139754085D01*
X120771428Y-138782657D01*
X121857142Y-138782657D02*
X121628571Y-138782657D01*
X121514285Y-138839800D01*
X121457142Y-138896942D01*
X121342857Y-139068371D01*
X121285714Y-139296942D01*
X121285714Y-139754085D01*
X121342857Y-139868371D01*
X121400000Y-139925514D01*
X121514285Y-139982657D01*
X121742857Y-139982657D01*
X121857142Y-139925514D01*
X121914285Y-139868371D01*
X121971428Y-139754085D01*
X121971428Y-139468371D01*
X121914285Y-139354085D01*
X121857142Y-139296942D01*
X121742857Y-139239800D01*
X121514285Y-139239800D01*
X121400000Y-139296942D01*
X121342857Y-139354085D01*
X121285714Y-139468371D01*
X154600000Y-57842857D02*
X154600000Y-58700000D01*
X154542857Y-58871428D01*
X154428571Y-58985714D01*
X154257142Y-59042857D01*
X154142857Y-59042857D01*
X155800000Y-59042857D02*
X155114285Y-59042857D01*
X155457142Y-59042857D02*
X155457142Y-57842857D01*
X155342857Y-58014285D01*
X155228571Y-58128571D01*
X155114285Y-58185714D01*
X145328571Y-54542857D02*
X145328571Y-53342857D01*
X145842857Y-53457142D02*
X145900000Y-53400000D01*
X146014285Y-53342857D01*
X146300000Y-53342857D01*
X146414285Y-53400000D01*
X146471428Y-53457142D01*
X146528571Y-53571428D01*
X146528571Y-53685714D01*
X146471428Y-53857142D01*
X145785714Y-54542857D01*
X146528571Y-54542857D01*
X147728571Y-54428571D02*
X147671428Y-54485714D01*
X147500000Y-54542857D01*
X147385714Y-54542857D01*
X147214285Y-54485714D01*
X147100000Y-54371428D01*
X147042857Y-54257142D01*
X146985714Y-54028571D01*
X146985714Y-53857142D01*
X147042857Y-53628571D01*
X147100000Y-53514285D01*
X147214285Y-53400000D01*
X147385714Y-53342857D01*
X147500000Y-53342857D01*
X147671428Y-53400000D01*
X147728571Y-53457142D01*
D12*
X137772936Y-133160000D02*
X139227064Y-133160000D01*
X137772936Y-131340000D02*
X139227064Y-131340000D01*
X174045000Y-61935000D02*
X170955000Y-61935000D01*
X170955170Y-61935000D02*
G75*
G03*
X172500462Y-67485000I1544830J-2560000D01*
G01*
X172499538Y-67485000D02*
G75*
G03*
X174044830Y-61935000I462J2990000D01*
G01*
D13*
X122567500Y-109865000D02*
G75*
G03*
X122567500Y-109865000I-107500J0D01*
G01*
X163107500Y-139345000D02*
G75*
G03*
X163107500Y-139345000I-107500J0D01*
G01*
D14*
X166990000Y-118828733D02*
X166990000Y-119171267D01*
X168010000Y-118828733D02*
X168010000Y-119171267D01*
X152828733Y-114760000D02*
X153171267Y-114760000D01*
X152828733Y-113740000D02*
X153171267Y-113740000D01*
D12*
X145860000Y-118488748D02*
X145860000Y-119011252D01*
X143640000Y-118488748D02*
X143640000Y-119011252D01*
X122340000Y-131711252D02*
X122340000Y-130288748D01*
X124160000Y-131711252D02*
X124160000Y-130288748D01*
X160727064Y-103590000D02*
X159272936Y-103590000D01*
X160727064Y-105410000D02*
X159272936Y-105410000D01*
X150075000Y-91250000D02*
X150075000Y-89700000D01*
X162925000Y-96300000D02*
X150075000Y-96300000D01*
X150075000Y-89700000D02*
X162925000Y-89700000D01*
X150075000Y-96300000D02*
X150075000Y-94750000D01*
X162925000Y-89700000D02*
X162925000Y-91250000D01*
X162925000Y-94750000D02*
X162925000Y-96300000D01*
X163900000Y-93100000D02*
G75*
G03*
X163900000Y-93100000I-100000J0D01*
G01*
X168263748Y-125410000D02*
X169686252Y-125410000D01*
X168263748Y-123590000D02*
X169686252Y-123590000D01*
X115900000Y-135000000D02*
X119100000Y-135000000D01*
X119100000Y-138000000D02*
X115900000Y-138000000D01*
X159390000Y-55785000D02*
X160440000Y-55785000D01*
X165610000Y-55785000D02*
X164560000Y-55785000D01*
X164440000Y-51315000D02*
X160560000Y-51315000D01*
X165610000Y-53285000D02*
X165610000Y-55785000D01*
X164560000Y-55785000D02*
X164560000Y-56775000D01*
X159390000Y-53285000D02*
X159390000Y-55785000D01*
X168610000Y-109738748D02*
X168610000Y-110261252D01*
X166390000Y-109738748D02*
X166390000Y-110261252D01*
X153090000Y-139763748D02*
X153090000Y-141186252D01*
X154910000Y-139763748D02*
X154910000Y-141186252D01*
X162250000Y-113594000D02*
X162250000Y-113594000D01*
X162250000Y-111154000D02*
X161750000Y-111154000D01*
X157755000Y-113594000D02*
X157755000Y-113594000D01*
X157755000Y-111154000D02*
X157755000Y-113594000D01*
X162250000Y-113594000D02*
X162250000Y-111154000D01*
X157755000Y-111154000D02*
X158250000Y-111154000D01*
X150910000Y-139763748D02*
X150910000Y-141186252D01*
X149090000Y-139763748D02*
X149090000Y-141186252D01*
X130788748Y-108410000D02*
X132211252Y-108410000D01*
X130788748Y-106590000D02*
X132211252Y-106590000D01*
X119910000Y-99711252D02*
X119910000Y-98288748D01*
X118090000Y-99711252D02*
X118090000Y-98288748D01*
X130788748Y-110090000D02*
X132211252Y-110090000D01*
X130788748Y-111910000D02*
X132211252Y-111910000D01*
X117038748Y-57590000D02*
X118461252Y-57590000D01*
X117038748Y-59410000D02*
X118461252Y-59410000D01*
X124200000Y-66750000D02*
X131800000Y-66750000D01*
X124200000Y-56250000D02*
X131800000Y-56250000D01*
X121395000Y-56465000D02*
G75*
G03*
X121395000Y-56465000I-100000J0D01*
G01*
X144038748Y-133160000D02*
X145461252Y-133160000D01*
X144038748Y-131340000D02*
X145461252Y-131340000D01*
X145538748Y-113090000D02*
X146961252Y-113090000D01*
X145538748Y-114910000D02*
X146961252Y-114910000D01*
X171590000Y-84772936D02*
X171590000Y-86227064D01*
X173410000Y-84772936D02*
X173410000Y-86227064D01*
X135865000Y-62288748D02*
X135865000Y-63711252D01*
X137685000Y-62288748D02*
X137685000Y-63711252D01*
X133686252Y-137410000D02*
X132263748Y-137410000D01*
X133686252Y-135590000D02*
X132263748Y-135590000D01*
X115736252Y-126590000D02*
X114313748Y-126590000D01*
X115736252Y-128410000D02*
X114313748Y-128410000D01*
X166736252Y-99090000D02*
X165313748Y-99090000D01*
X166736252Y-100910000D02*
X165313748Y-100910000D01*
X166800000Y-146000000D02*
X166800000Y-144000000D01*
X169000000Y-141800000D02*
X171000000Y-141800000D01*
X173200000Y-144000000D02*
X173200000Y-146000000D01*
X171000000Y-148200000D02*
X169000000Y-148200000D01*
X113590000Y-99711252D02*
X113590000Y-98288748D01*
X115410000Y-99711252D02*
X115410000Y-98288748D01*
X124000000Y-101000000D02*
X124000000Y-85000000D01*
X140000000Y-85000000D02*
X140000000Y-101000000D01*
X139165000Y-82865000D02*
G75*
G03*
X139165000Y-82865000I-100000J0D01*
G01*
X164711252Y-132660000D02*
X163288748Y-132660000D01*
X164711252Y-130840000D02*
X163288748Y-130840000D01*
X171590000Y-59264564D02*
X171590000Y-57810436D01*
X173410000Y-59264564D02*
X173410000Y-57810436D01*
X132313748Y-133360000D02*
X132836252Y-133360000D01*
X132313748Y-131140000D02*
X132836252Y-131140000D01*
X151090000Y-118288748D02*
X151090000Y-119711252D01*
X152910000Y-118288748D02*
X152910000Y-119711252D01*
X115736252Y-130590000D02*
X114313748Y-130590000D01*
X115736252Y-132410000D02*
X114313748Y-132410000D01*
X166736252Y-105410000D02*
X165313748Y-105410000D01*
X166736252Y-103590000D02*
X165313748Y-103590000D01*
X168263748Y-128090000D02*
X169686252Y-128090000D01*
X168263748Y-129910000D02*
X169686252Y-129910000D01*
X122714000Y-140659000D02*
X122714000Y-138220600D01*
X122714000Y-138220600D02*
X123500000Y-138220600D01*
X127311400Y-138246000D02*
X126500000Y-138246000D01*
X127311400Y-140684400D02*
X126500000Y-140684400D01*
X127311400Y-140684400D02*
X127311400Y-138246000D01*
X123500000Y-140659000D02*
X122714000Y-140659000D01*
X155610000Y-53285000D02*
X155610000Y-55785000D01*
X149390000Y-55785000D02*
X150440000Y-55785000D01*
X154560000Y-55785000D02*
X154560000Y-56775000D01*
X149390000Y-53285000D02*
X149390000Y-55785000D01*
X155610000Y-55785000D02*
X154560000Y-55785000D01*
X154440000Y-51315000D02*
X150560000Y-51315000D01*
%LPC*%
G36*
X116950000Y-137600000D02*
G01*
X115750000Y-137600000D01*
X115750000Y-137100000D01*
X114650000Y-137100000D01*
X114650000Y-135900000D01*
X115750000Y-135900000D01*
X115750000Y-135400000D01*
X116950000Y-135400000D01*
X116950000Y-137600000D01*
G37*
D15*
X116950000Y-137600000D02*
X115750000Y-137600000D01*
X115750000Y-137100000D01*
X114650000Y-137100000D01*
X114650000Y-135900000D01*
X115750000Y-135900000D01*
X115750000Y-135400000D01*
X116950000Y-135400000D01*
X116950000Y-137600000D01*
G36*
X119250000Y-135900000D02*
G01*
X120350000Y-135900000D01*
X120350000Y-137100000D01*
X119250000Y-137100000D01*
X119250000Y-137600000D01*
X118050000Y-137600000D01*
X118050000Y-135400000D01*
X119250000Y-135400000D01*
X119250000Y-135900000D01*
G37*
X119250000Y-135900000D02*
X120350000Y-135900000D01*
X120350000Y-137100000D01*
X119250000Y-137100000D01*
X119250000Y-137600000D01*
X118050000Y-137600000D01*
X118050000Y-135400000D01*
X119250000Y-135400000D01*
X119250000Y-135900000D01*
G36*
X161292500Y-110633830D02*
G01*
X161292500Y-113294000D01*
X160824269Y-113294000D01*
X160492500Y-113627330D01*
X160492500Y-115169000D01*
X159512500Y-115169000D01*
X159512500Y-113627330D01*
X159180731Y-113294000D01*
X158712500Y-113294000D01*
X158712500Y-110633830D01*
X159075131Y-110274000D01*
X160929869Y-110274000D01*
X161292500Y-110633830D01*
G37*
X161292500Y-110633830D02*
X161292500Y-113294000D01*
X160824269Y-113294000D01*
X160492500Y-113627330D01*
X160492500Y-115169000D01*
X159512500Y-115169000D01*
X159512500Y-113627330D01*
X159180731Y-113294000D01*
X158712500Y-113294000D01*
X158712500Y-110633830D01*
X159075131Y-110274000D01*
X160929869Y-110274000D01*
X161292500Y-110633830D01*
G36*
X126092200Y-138195200D02*
G01*
X126092200Y-140735200D01*
X125584200Y-141243200D01*
X124441200Y-141243200D01*
X123933200Y-140735200D01*
X123933200Y-138195200D01*
X124441200Y-137687200D01*
X125584200Y-137687200D01*
X126092200Y-138195200D01*
G37*
D16*
X137037500Y-132250000D03*
X139962500Y-132250000D03*
D17*
X172500000Y-63225000D03*
D18*
X172500000Y-65765000D03*
D19*
X123050000Y-111250000D03*
X123050000Y-111750000D03*
X123050000Y-112250000D03*
X123050000Y-112750000D03*
X123050000Y-113250000D03*
X123050000Y-113750000D03*
D20*
X123750000Y-114450000D03*
X124250000Y-114450000D03*
X124750000Y-114450000D03*
X125250000Y-114450000D03*
X125750000Y-114450000D03*
X126250000Y-114450000D03*
D19*
X126950000Y-113750000D03*
X126950000Y-113250000D03*
X126950000Y-112750000D03*
X126950000Y-112250000D03*
X126950000Y-111750000D03*
X126950000Y-111250000D03*
D20*
X126250000Y-110550000D03*
X125750000Y-110550000D03*
X125250000Y-110550000D03*
X124750000Y-110550000D03*
X124250000Y-110550000D03*
X123750000Y-110550000D03*
D21*
X125000000Y-112500000D03*
D19*
X161950000Y-138500000D03*
X161950000Y-138000000D03*
X161950000Y-137500000D03*
X161950000Y-137000000D03*
X161950000Y-136500000D03*
X161950000Y-136000000D03*
D20*
X161250000Y-135300000D03*
X160750000Y-135300000D03*
X160250000Y-135300000D03*
X159750000Y-135300000D03*
X159250000Y-135300000D03*
X158750000Y-135300000D03*
D19*
X158050000Y-136000000D03*
X158050000Y-136500000D03*
X158050000Y-137000000D03*
X158050000Y-137500000D03*
X158050000Y-138000000D03*
X158050000Y-138500000D03*
D20*
X158750000Y-139200000D03*
X159250000Y-139200000D03*
X159750000Y-139200000D03*
X160250000Y-139200000D03*
X160750000Y-139200000D03*
X161250000Y-139200000D03*
D21*
X160000000Y-137250000D03*
D22*
X167500000Y-118125000D03*
X167500000Y-119875000D03*
D23*
X152125000Y-114250000D03*
X153875000Y-114250000D03*
D24*
X144750000Y-117675000D03*
X144750000Y-119825000D03*
D25*
X103500000Y-53500000D03*
D26*
X123250000Y-132475000D03*
X123250000Y-129525000D03*
D25*
X181500000Y-53500000D03*
D27*
X158537500Y-104500000D03*
X161462500Y-104500000D03*
D25*
X181500000Y-146500000D03*
D28*
X161200000Y-93000000D03*
D29*
X156500000Y-93000000D03*
X151800000Y-93000000D03*
D30*
X167500000Y-124500000D03*
X170450000Y-124500000D03*
D31*
X159700000Y-52125000D03*
X165300000Y-52125000D03*
D32*
X161000000Y-56000000D03*
X162000000Y-56000000D03*
X163000000Y-56000000D03*
X164000000Y-56000000D03*
D24*
X167500000Y-108925000D03*
X167500000Y-111075000D03*
D33*
X108370000Y-76270000D03*
D34*
X108370000Y-73730000D03*
X110910000Y-76270000D03*
X110910000Y-73730000D03*
X113450000Y-76270000D03*
X113450000Y-73730000D03*
X115990000Y-76270000D03*
X115990000Y-73730000D03*
X118530000Y-76270000D03*
X118530000Y-73730000D03*
X121070000Y-76270000D03*
X121070000Y-73730000D03*
X123610000Y-76270000D03*
X123610000Y-73730000D03*
X126150000Y-76270000D03*
X126150000Y-73730000D03*
X128690000Y-76270000D03*
X128690000Y-73730000D03*
X131230000Y-76270000D03*
X131230000Y-73730000D03*
X133770000Y-76270000D03*
X133770000Y-73730000D03*
X136310000Y-76270000D03*
X136310000Y-73730000D03*
X138850000Y-76270000D03*
X138850000Y-73730000D03*
X141390000Y-76270000D03*
X141390000Y-73730000D03*
X143930000Y-76270000D03*
X143930000Y-73730000D03*
X146470000Y-76270000D03*
X146470000Y-73730000D03*
X149010000Y-76270000D03*
X149010000Y-73730000D03*
X151550000Y-76270000D03*
X151550000Y-73730000D03*
X154090000Y-76270000D03*
X154090000Y-73730000D03*
X156630000Y-76270000D03*
X156630000Y-73730000D03*
D35*
X154000000Y-139000000D03*
X154000000Y-141950000D03*
D36*
X158507500Y-114394000D03*
X161497500Y-114394000D03*
D35*
X150000000Y-141950000D03*
X150000000Y-139000000D03*
D30*
X130025000Y-107500000D03*
X132975000Y-107500000D03*
D26*
X119000000Y-100475000D03*
X119000000Y-97525000D03*
D30*
X130025000Y-111000000D03*
X132975000Y-111000000D03*
X116275000Y-58500000D03*
X119225000Y-58500000D03*
D37*
X123345000Y-57055000D03*
X123345000Y-58325000D03*
X123345000Y-59595000D03*
X123345000Y-60865000D03*
X123345000Y-62135000D03*
X123345000Y-63405000D03*
X123345000Y-64675000D03*
X123345000Y-65945000D03*
X132655000Y-65945000D03*
X132655000Y-64675000D03*
X132655000Y-63405000D03*
X132655000Y-62135000D03*
X132655000Y-60865000D03*
X132655000Y-59595000D03*
X132655000Y-58325000D03*
X132655000Y-57055000D03*
D30*
X143275000Y-132250000D03*
X146225000Y-132250000D03*
X144775000Y-114000000D03*
X147725000Y-114000000D03*
D38*
X172500000Y-86962500D03*
X172500000Y-84037500D03*
D35*
X136775000Y-61525000D03*
X136775000Y-64475000D03*
D25*
X103500000Y-146500000D03*
D39*
X131500000Y-136500000D03*
X134450000Y-136500000D03*
X116500000Y-127500000D03*
X113550000Y-127500000D03*
X167500000Y-100000000D03*
X164550000Y-100000000D03*
D40*
X170000000Y-145000000D03*
D41*
X167600000Y-142600000D03*
X167600000Y-147400000D03*
X172400000Y-147400000D03*
X172400000Y-142600000D03*
D26*
X114500000Y-100475000D03*
X114500000Y-97525000D03*
D42*
X139000000Y-85000000D03*
X137000000Y-85000000D03*
X135000000Y-85000000D03*
X133000000Y-85000000D03*
X131000000Y-85000000D03*
X129000000Y-85000000D03*
X127000000Y-85000000D03*
X125000000Y-85000000D03*
X125000000Y-101000000D03*
X127000000Y-101000000D03*
X129000000Y-101000000D03*
X131000000Y-101000000D03*
X133000000Y-101000000D03*
X135000000Y-101000000D03*
X137000000Y-101000000D03*
X139000000Y-101000000D03*
D39*
X165475000Y-131750000D03*
X162525000Y-131750000D03*
D43*
X172500000Y-57075000D03*
X172500000Y-60000000D03*
D44*
X131500000Y-132250000D03*
X133650000Y-132250000D03*
D35*
X152000000Y-117525000D03*
X152000000Y-120475000D03*
D39*
X116500000Y-131500000D03*
X113550000Y-131500000D03*
X167500000Y-104500000D03*
X164550000Y-104500000D03*
D30*
X167500000Y-129000000D03*
X170450000Y-129000000D03*
D45*
X126498600Y-136595000D03*
D46*
X125000000Y-138500000D03*
D45*
X123501400Y-136595000D03*
D32*
X154000000Y-56000000D03*
X153000000Y-56000000D03*
X152000000Y-56000000D03*
X151000000Y-56000000D03*
D31*
X149700000Y-52125000D03*
X155300000Y-52125000D03*
M02*
