G04 #@! TF.GenerationSoftware,KiCad,Pcbnew,(6.0.7)*
G04 #@! TF.CreationDate,2022-12-13T13:41:41-06:00*
G04 #@! TF.ProjectId,Narwal_v1,4e617277-616c-45f7-9631-2e6b69636164,1*
G04 #@! TF.SameCoordinates,Original*
G04 #@! TF.FileFunction,Paste,Top*
G04 #@! TF.FilePolarity,Positive*
%FSLAX46Y46*%
G04 Gerber Fmt 4.6, Leading zero omitted, Abs format (unit mm)*
G04 Created by KiCad (PCBNEW (6.0.7)) date 2022-12-13 13:41:41*
%MOMM*%
%LPD*%
G01*
G04 APERTURE LIST*
G04 Aperture macros list*
%AMRoundRect*
0 Rectangle with rounded corners*
0 $1 Rounding radius*
0 $2 $3 $4 $5 $6 $7 $8 $9 X,Y pos of 4 corners*
0 Add a 4 corners polygon primitive as box body*
4,1,4,$2,$3,$4,$5,$6,$7,$8,$9,$2,$3,0*
0 Add four circle primitives for the rounded corners*
1,1,$1+$1,$2,$3*
1,1,$1+$1,$4,$5*
1,1,$1+$1,$6,$7*
1,1,$1+$1,$8,$9*
0 Add four rect primitives between the rounded corners*
20,1,$1+$1,$2,$3,$4,$5,0*
20,1,$1+$1,$4,$5,$6,$7,0*
20,1,$1+$1,$6,$7,$8,$9,0*
20,1,$1+$1,$8,$9,$2,$3,0*%
%AMFreePoly0*
4,1,37,3.720550,1.194255,3.722286,1.193536,3.722291,1.193524,3.722302,1.193519,4.023552,0.889469,4.024254,0.887752,4.025000,0.885950,4.025000,-0.885950,4.024254,-0.887752,4.023552,-0.889469,3.722302,-1.193519,3.722291,-1.193524,3.722286,-1.193536,3.720550,-1.194255,3.718773,-1.195001,3.718760,-1.194996,3.718750,-1.195000,1.200000,-1.195000,1.196464,-1.193536,1.195000,-1.190000,
1.195000,-0.782427,0.806025,-0.395000,-0.675000,-0.395000,-0.678536,-0.393536,-0.680000,-0.390000,-0.680000,0.390000,-0.678536,0.393536,-0.675000,0.395000,0.806025,0.395000,1.195000,0.782427,1.195000,1.190000,1.196464,1.193536,1.200000,1.195000,3.718750,1.195000,3.718760,1.194996,3.718773,1.195001,3.720550,1.194255,3.720550,1.194255,$1*%
%AMFreePoly1*
4,1,11,0.965200,2.159000,0.965200,-0.254000,0.457200,-0.762000,0.457200,-2.667000,-0.457200,-2.667000,-0.457200,-0.762000,-0.965200,-0.254000,-0.965200,2.159000,-0.457200,2.667000,0.457200,2.667000,0.965200,2.159000,0.965200,2.159000,$1*%
G04 Aperture macros list end*
%ADD10C,0.010000*%
%ADD11RoundRect,0.250000X-0.312500X-0.625000X0.312500X-0.625000X0.312500X0.625000X-0.312500X0.625000X0*%
%ADD12R,0.850000X0.250000*%
%ADD13R,0.250000X0.850000*%
%ADD14R,2.700000X2.700000*%
%ADD15RoundRect,0.237500X-0.237500X0.287500X-0.237500X-0.287500X0.237500X-0.287500X0.237500X0.287500X0*%
%ADD16RoundRect,0.237500X-0.287500X-0.237500X0.287500X-0.237500X0.287500X0.237500X-0.287500X0.237500X0*%
%ADD17RoundRect,0.250000X-0.850000X0.375000X-0.850000X-0.375000X0.850000X-0.375000X0.850000X0.375000X0*%
%ADD18RoundRect,0.250000X0.650000X-0.325000X0.650000X0.325000X-0.650000X0.325000X-0.650000X-0.325000X0*%
%ADD19RoundRect,0.250000X0.312500X0.625000X-0.312500X0.625000X-0.312500X-0.625000X0.312500X-0.625000X0*%
%ADD20RoundRect,0.250000X-0.325000X-0.650000X0.325000X-0.650000X0.325000X0.650000X-0.325000X0.650000X0*%
%ADD21RoundRect,0.250000X0.350000X0.650000X-0.350000X0.650000X-0.350000X-0.650000X0.350000X-0.650000X0*%
%ADD22RoundRect,0.150000X0.150000X0.625000X-0.150000X0.625000X-0.150000X-0.625000X0.150000X-0.625000X0*%
%ADD23RoundRect,0.250000X-0.650000X0.325000X-0.650000X-0.325000X0.650000X-0.325000X0.650000X0.325000X0*%
%ADD24R,0.610000X1.350000*%
%ADD25FreePoly0,90.000000*%
%ADD26RoundRect,0.041300X-0.983700X-0.253700X0.983700X-0.253700X0.983700X0.253700X-0.983700X0.253700X0*%
%ADD27RoundRect,0.250000X-0.625000X0.312500X-0.625000X-0.312500X0.625000X-0.312500X0.625000X0.312500X0*%
%ADD28RoundRect,0.250000X0.325000X0.650000X-0.325000X0.650000X-0.325000X-0.650000X0.325000X-0.650000X0*%
%ADD29R,1.200000X2.800000*%
%ADD30RoundRect,0.250000X0.625000X-0.312500X0.625000X0.312500X-0.625000X0.312500X-0.625000X-0.312500X0*%
%ADD31RoundRect,0.250000X-0.375000X-0.850000X0.375000X-0.850000X0.375000X0.850000X-0.375000X0.850000X0*%
%ADD32R,0.711200X1.498600*%
%ADD33FreePoly1,180.000000*%
G04 APERTURE END LIST*
G36*
X119150000Y-136000000D02*
G01*
X120250000Y-136000000D01*
X120250000Y-137000000D01*
X119150000Y-137000000D01*
X119150000Y-137500000D01*
X118150000Y-137500000D01*
X118150000Y-135500000D01*
X119150000Y-135500000D01*
X119150000Y-136000000D01*
G37*
D10*
X119150000Y-136000000D02*
X120250000Y-136000000D01*
X120250000Y-137000000D01*
X119150000Y-137000000D01*
X119150000Y-137500000D01*
X118150000Y-137500000D01*
X118150000Y-135500000D01*
X119150000Y-135500000D01*
X119150000Y-136000000D01*
G36*
X116850000Y-137500000D02*
G01*
X115850000Y-137500000D01*
X115850000Y-137000000D01*
X114750000Y-137000000D01*
X114750000Y-136000000D01*
X115850000Y-136000000D01*
X115850000Y-135500000D01*
X116850000Y-135500000D01*
X116850000Y-137500000D01*
G37*
X116850000Y-137500000D02*
X115850000Y-137500000D01*
X115850000Y-137000000D01*
X114750000Y-137000000D01*
X114750000Y-136000000D01*
X115850000Y-136000000D01*
X115850000Y-135500000D01*
X116850000Y-135500000D01*
X116850000Y-137500000D01*
G36*
X160938500Y-112500000D02*
G01*
X159066500Y-112500000D01*
X159066500Y-111068000D01*
X160938500Y-111068000D01*
X160938500Y-112500000D01*
G37*
X160938500Y-112500000D02*
X159066500Y-112500000D01*
X159066500Y-111068000D01*
X160938500Y-111068000D01*
X160938500Y-112500000D01*
D11*
X137037500Y-132250000D03*
X139962500Y-132250000D03*
D12*
X123050000Y-111250000D03*
X123050000Y-111750000D03*
X123050000Y-112250000D03*
X123050000Y-112750000D03*
X123050000Y-113250000D03*
X123050000Y-113750000D03*
D13*
X123750000Y-114450000D03*
X124250000Y-114450000D03*
X124750000Y-114450000D03*
X125250000Y-114450000D03*
X125750000Y-114450000D03*
X126250000Y-114450000D03*
D12*
X126950000Y-113750000D03*
X126950000Y-113250000D03*
X126950000Y-112750000D03*
X126950000Y-112250000D03*
X126950000Y-111750000D03*
X126950000Y-111250000D03*
D13*
X126250000Y-110550000D03*
X125750000Y-110550000D03*
X125250000Y-110550000D03*
X124750000Y-110550000D03*
X124250000Y-110550000D03*
X123750000Y-110550000D03*
D14*
X125000000Y-112500000D03*
D12*
X161950000Y-138500000D03*
X161950000Y-138000000D03*
X161950000Y-137500000D03*
X161950000Y-137000000D03*
X161950000Y-136500000D03*
X161950000Y-136000000D03*
D13*
X161250000Y-135300000D03*
X160750000Y-135300000D03*
X160250000Y-135300000D03*
X159750000Y-135300000D03*
X159250000Y-135300000D03*
X158750000Y-135300000D03*
D12*
X158050000Y-136000000D03*
X158050000Y-136500000D03*
X158050000Y-137000000D03*
X158050000Y-137500000D03*
X158050000Y-138000000D03*
X158050000Y-138500000D03*
D13*
X158750000Y-139200000D03*
X159250000Y-139200000D03*
X159750000Y-139200000D03*
X160250000Y-139200000D03*
X160750000Y-139200000D03*
X161250000Y-139200000D03*
D14*
X160000000Y-137250000D03*
D15*
X167500000Y-118125000D03*
X167500000Y-119875000D03*
D16*
X152125000Y-114250000D03*
X153875000Y-114250000D03*
D17*
X144750000Y-117675000D03*
X144750000Y-119825000D03*
D18*
X123250000Y-132475000D03*
X123250000Y-129525000D03*
D19*
X158537500Y-104500000D03*
X161462500Y-104500000D03*
D20*
X167500000Y-124500000D03*
X170450000Y-124500000D03*
D21*
X159700000Y-52125000D03*
X165300000Y-52125000D03*
D22*
X161000000Y-56000000D03*
X162000000Y-56000000D03*
X163000000Y-56000000D03*
X164000000Y-56000000D03*
D17*
X167500000Y-108925000D03*
X167500000Y-111075000D03*
D23*
X154000000Y-139000000D03*
X154000000Y-141950000D03*
D24*
X158507500Y-114394000D03*
D25*
X160002500Y-114394000D03*
D24*
X161497500Y-114394000D03*
D23*
X150000000Y-141950000D03*
X150000000Y-139000000D03*
D20*
X130025000Y-107500000D03*
X132975000Y-107500000D03*
D18*
X119000000Y-100475000D03*
X119000000Y-97525000D03*
D20*
X130025000Y-111000000D03*
X132975000Y-111000000D03*
X116275000Y-58500000D03*
X119225000Y-58500000D03*
D26*
X123345000Y-57055000D03*
X123345000Y-58325000D03*
X123345000Y-59595000D03*
X123345000Y-60865000D03*
X123345000Y-62135000D03*
X123345000Y-63405000D03*
X123345000Y-64675000D03*
X123345000Y-65945000D03*
X132655000Y-65945000D03*
X132655000Y-64675000D03*
X132655000Y-63405000D03*
X132655000Y-62135000D03*
X132655000Y-60865000D03*
X132655000Y-59595000D03*
X132655000Y-58325000D03*
X132655000Y-57055000D03*
D20*
X143275000Y-132250000D03*
X146225000Y-132250000D03*
X144775000Y-114000000D03*
X147725000Y-114000000D03*
D27*
X172500000Y-86962500D03*
X172500000Y-84037500D03*
D23*
X136775000Y-61525000D03*
X136775000Y-64475000D03*
D28*
X131500000Y-136500000D03*
X134450000Y-136500000D03*
X116500000Y-127500000D03*
X113550000Y-127500000D03*
X167500000Y-100000000D03*
X164550000Y-100000000D03*
D18*
X114500000Y-100475000D03*
X114500000Y-97525000D03*
D29*
X139000000Y-85000000D03*
X137000000Y-85000000D03*
X135000000Y-85000000D03*
X133000000Y-85000000D03*
X131000000Y-85000000D03*
X129000000Y-85000000D03*
X127000000Y-85000000D03*
X125000000Y-85000000D03*
X125000000Y-101000000D03*
X127000000Y-101000000D03*
X129000000Y-101000000D03*
X131000000Y-101000000D03*
X133000000Y-101000000D03*
X135000000Y-101000000D03*
X137000000Y-101000000D03*
X139000000Y-101000000D03*
D28*
X165475000Y-131750000D03*
X162525000Y-131750000D03*
D30*
X172500000Y-57075000D03*
X172500000Y-60000000D03*
D31*
X131500000Y-132250000D03*
X133650000Y-132250000D03*
D23*
X152000000Y-117525000D03*
X152000000Y-120475000D03*
D28*
X116500000Y-131500000D03*
X113550000Y-131500000D03*
X167500000Y-104500000D03*
X164550000Y-104500000D03*
D20*
X167500000Y-129000000D03*
X170450000Y-129000000D03*
D32*
X126498600Y-136595000D03*
D33*
X125000000Y-138500000D03*
D32*
X123501400Y-136595000D03*
D22*
X154000000Y-56000000D03*
X153000000Y-56000000D03*
X152000000Y-56000000D03*
X151000000Y-56000000D03*
D21*
X149700000Y-52125000D03*
X155300000Y-52125000D03*
M02*
