%TF.GenerationSoftware,KiCad,Pcbnew,(6.0.7)*%
%TF.CreationDate,2022-12-13T13:42:50-06:00*%
%TF.ProjectId,Narwal_v1,4e617277-616c-45f7-9631-2e6b69636164,1*%
%TF.SameCoordinates,Original*%
%TF.FileFunction,Drillmap*%
%TF.FilePolarity,Positive*%
%FSLAX45Y45*%
G04 Gerber Fmt 4.5, Leading zero omitted, Abs format (unit mm)*
G04 Created by KiCad (PCBNEW (6.0.7)) date 2022-12-13 13:42:50*
%MOMM*%
%LPD*%
G01*
G04 APERTURE LIST*
%ADD10C,0.160000*%
%ADD11C,0.200000*%
%ADD12C,0.040000*%
%ADD13C,0.090000*%
%ADD14C,0.100000*%
%ADD15C,0.101600*%
%ADD16C,0.128000*%
%ADD17C,0.185000*%
%ADD18C,0.250000*%
G04 APERTURE END LIST*
D10*
X10000000Y-5000000D02*
X18500000Y-5000000D01*
X18500000Y-5000000D02*
X18500000Y-15000000D01*
X18500000Y-15000000D02*
X10000000Y-15000000D01*
X10000000Y-15000000D02*
X10000000Y-5000000D01*
D11*
D12*
X11455000Y-6805000D02*
X11495000Y-6845000D01*
X11495000Y-6805000D02*
X11455000Y-6845000D01*
X11630000Y-12530000D02*
X11670000Y-12570000D01*
X11670000Y-12530000D02*
X11630000Y-12570000D01*
X11780000Y-12730000D02*
X11820000Y-12770000D01*
X11820000Y-12730000D02*
X11780000Y-12770000D01*
X11905000Y-5630000D02*
X11945000Y-5670000D01*
X11945000Y-5630000D02*
X11905000Y-5670000D01*
X12130000Y-9730000D02*
X12170000Y-9770000D01*
X12170000Y-9730000D02*
X12130000Y-9770000D01*
X12155000Y-12805000D02*
X12195000Y-12845000D01*
X12195000Y-12805000D02*
X12155000Y-12845000D01*
X12180000Y-11180000D02*
X12220000Y-11220000D01*
X12220000Y-11180000D02*
X12180000Y-11220000D01*
X12180000Y-11280000D02*
X12220000Y-11320000D01*
X12220000Y-11280000D02*
X12180000Y-11320000D01*
X12230000Y-11480000D02*
X12270000Y-11520000D01*
X12270000Y-11480000D02*
X12230000Y-11520000D01*
X12230000Y-11630000D02*
X12270000Y-11670000D01*
X12270000Y-11630000D02*
X12230000Y-11670000D01*
X12230000Y-11730000D02*
X12270000Y-11770000D01*
X12270000Y-11730000D02*
X12230000Y-11770000D01*
X12230000Y-11830000D02*
X12270000Y-11870000D01*
X12270000Y-11830000D02*
X12230000Y-11870000D01*
X12230000Y-11930000D02*
X12270000Y-11970000D01*
X12270000Y-11930000D02*
X12230000Y-11970000D01*
X12230000Y-12030000D02*
X12270000Y-12070000D01*
X12270000Y-12030000D02*
X12230000Y-12070000D01*
X12230000Y-12130000D02*
X12270000Y-12170000D01*
X12270000Y-12130000D02*
X12230000Y-12170000D01*
X12230000Y-12230000D02*
X12270000Y-12270000D01*
X12270000Y-12230000D02*
X12230000Y-12270000D01*
X12230000Y-12330000D02*
X12270000Y-12370000D01*
X12270000Y-12330000D02*
X12230000Y-12370000D01*
X12230000Y-12430000D02*
X12270000Y-12470000D01*
X12270000Y-12430000D02*
X12230000Y-12470000D01*
X12230000Y-12530000D02*
X12270000Y-12570000D01*
X12270000Y-12530000D02*
X12230000Y-12570000D01*
X12230000Y-12630000D02*
X12270000Y-12670000D01*
X12270000Y-12630000D02*
X12230000Y-12670000D01*
X12230000Y-12730000D02*
X12270000Y-12770000D01*
X12270000Y-12730000D02*
X12230000Y-12770000D01*
X12255000Y-13380000D02*
X12295000Y-13420000D01*
X12295000Y-13380000D02*
X12255000Y-13420000D01*
X12255000Y-13480000D02*
X12295000Y-13520000D01*
X12295000Y-13480000D02*
X12255000Y-13520000D01*
X12280000Y-9955000D02*
X12320000Y-9995000D01*
X12320000Y-9955000D02*
X12280000Y-9995000D01*
X12280000Y-10055000D02*
X12320000Y-10095000D01*
X12320000Y-10055000D02*
X12280000Y-10095000D01*
X12280000Y-10155000D02*
X12320000Y-10195000D01*
X12320000Y-10155000D02*
X12280000Y-10195000D01*
X12280000Y-10255000D02*
X12320000Y-10295000D01*
X12320000Y-10255000D02*
X12280000Y-10295000D01*
X12380000Y-10330000D02*
X12420000Y-10370000D01*
X12420000Y-10330000D02*
X12380000Y-10370000D01*
X12380000Y-10430000D02*
X12420000Y-10470000D01*
X12420000Y-10430000D02*
X12380000Y-10470000D01*
X12380000Y-10530000D02*
X12420000Y-10570000D01*
X12420000Y-10530000D02*
X12380000Y-10570000D01*
X12380000Y-10630000D02*
X12420000Y-10670000D01*
X12420000Y-10630000D02*
X12380000Y-10670000D01*
X12380000Y-10730000D02*
X12420000Y-10770000D01*
X12420000Y-10730000D02*
X12380000Y-10770000D01*
X12380000Y-10830000D02*
X12420000Y-10870000D01*
X12420000Y-10830000D02*
X12380000Y-10870000D01*
X12380000Y-10930000D02*
X12420000Y-10970000D01*
X12420000Y-10930000D02*
X12380000Y-10970000D01*
X12380000Y-11630000D02*
X12420000Y-11670000D01*
X12420000Y-11630000D02*
X12380000Y-11670000D01*
X12380000Y-11730000D02*
X12420000Y-11770000D01*
X12420000Y-11730000D02*
X12380000Y-11770000D01*
X12380000Y-11830000D02*
X12420000Y-11870000D01*
X12420000Y-11830000D02*
X12380000Y-11870000D01*
X12380000Y-11930000D02*
X12420000Y-11970000D01*
X12420000Y-11930000D02*
X12380000Y-11970000D01*
X12380000Y-12030000D02*
X12420000Y-12070000D01*
X12420000Y-12030000D02*
X12380000Y-12070000D01*
X12380000Y-12130000D02*
X12420000Y-12170000D01*
X12420000Y-12130000D02*
X12380000Y-12170000D01*
X12380000Y-12230000D02*
X12420000Y-12270000D01*
X12420000Y-12230000D02*
X12380000Y-12270000D01*
X12380000Y-12330000D02*
X12420000Y-12370000D01*
X12420000Y-12330000D02*
X12380000Y-12370000D01*
X12380000Y-12430000D02*
X12420000Y-12470000D01*
X12420000Y-12430000D02*
X12380000Y-12470000D01*
X12380000Y-12530000D02*
X12420000Y-12570000D01*
X12420000Y-12530000D02*
X12380000Y-12570000D01*
X12380000Y-12630000D02*
X12420000Y-12670000D01*
X12420000Y-12630000D02*
X12380000Y-12670000D01*
X12380000Y-12730000D02*
X12420000Y-12770000D01*
X12420000Y-12730000D02*
X12380000Y-12770000D01*
X12405000Y-11155000D02*
X12445000Y-11195000D01*
X12445000Y-11155000D02*
X12405000Y-11195000D01*
X12405000Y-11305000D02*
X12445000Y-11345000D01*
X12445000Y-11305000D02*
X12405000Y-11345000D01*
X12405000Y-13380000D02*
X12445000Y-13420000D01*
X12445000Y-13380000D02*
X12405000Y-13420000D01*
X12405000Y-13480000D02*
X12445000Y-13520000D01*
X12445000Y-13480000D02*
X12405000Y-13520000D01*
X12430000Y-13880000D02*
X12470000Y-13920000D01*
X12470000Y-13880000D02*
X12430000Y-13920000D01*
X12430000Y-14005000D02*
X12470000Y-14045000D01*
X12470000Y-14005000D02*
X12430000Y-14045000D01*
X12455000Y-12805000D02*
X12495000Y-12845000D01*
X12495000Y-12805000D02*
X12455000Y-12845000D01*
X12480000Y-11530000D02*
X12520000Y-11570000D01*
X12520000Y-11530000D02*
X12480000Y-11570000D01*
X12480000Y-11630000D02*
X12520000Y-11670000D01*
X12520000Y-11630000D02*
X12480000Y-11670000D01*
X12480000Y-11730000D02*
X12520000Y-11770000D01*
X12520000Y-11730000D02*
X12480000Y-11770000D01*
X12480000Y-11830000D02*
X12520000Y-11870000D01*
X12520000Y-11830000D02*
X12480000Y-11870000D01*
X12480000Y-11930000D02*
X12520000Y-11970000D01*
X12520000Y-11930000D02*
X12480000Y-11970000D01*
X12480000Y-12030000D02*
X12520000Y-12070000D01*
X12520000Y-12030000D02*
X12480000Y-12070000D01*
X12530000Y-10330000D02*
X12570000Y-10370000D01*
X12570000Y-10330000D02*
X12530000Y-10370000D01*
X12530000Y-10430000D02*
X12570000Y-10470000D01*
X12570000Y-10430000D02*
X12530000Y-10470000D01*
X12530000Y-10530000D02*
X12570000Y-10570000D01*
X12570000Y-10530000D02*
X12530000Y-10570000D01*
X12530000Y-10630000D02*
X12570000Y-10670000D01*
X12570000Y-10630000D02*
X12530000Y-10670000D01*
X12530000Y-10730000D02*
X12570000Y-10770000D01*
X12570000Y-10730000D02*
X12530000Y-10770000D01*
X12530000Y-10830000D02*
X12570000Y-10870000D01*
X12570000Y-10830000D02*
X12530000Y-10870000D01*
X12530000Y-10930000D02*
X12570000Y-10970000D01*
X12570000Y-10930000D02*
X12530000Y-10970000D01*
X12530000Y-13880000D02*
X12570000Y-13920000D01*
X12570000Y-13880000D02*
X12530000Y-13920000D01*
X12530000Y-14005000D02*
X12570000Y-14045000D01*
X12570000Y-14005000D02*
X12530000Y-14045000D01*
X12555000Y-11155000D02*
X12595000Y-11195000D01*
X12595000Y-11155000D02*
X12555000Y-11195000D01*
X12555000Y-11305000D02*
X12595000Y-11345000D01*
X12595000Y-11305000D02*
X12555000Y-11345000D01*
X12555000Y-12105000D02*
X12595000Y-12145000D01*
X12595000Y-12105000D02*
X12555000Y-12145000D01*
X12630000Y-10330000D02*
X12670000Y-10370000D01*
X12670000Y-10330000D02*
X12630000Y-10370000D01*
X12630000Y-11530000D02*
X12670000Y-11570000D01*
X12670000Y-11530000D02*
X12630000Y-11570000D01*
X12630000Y-11630000D02*
X12670000Y-11670000D01*
X12670000Y-11630000D02*
X12630000Y-11670000D01*
X12630000Y-11730000D02*
X12670000Y-11770000D01*
X12670000Y-11730000D02*
X12630000Y-11770000D01*
X12630000Y-11830000D02*
X12670000Y-11870000D01*
X12670000Y-11830000D02*
X12630000Y-11870000D01*
X12630000Y-11930000D02*
X12670000Y-11970000D01*
X12670000Y-11930000D02*
X12630000Y-11970000D01*
X12630000Y-12180000D02*
X12670000Y-12220000D01*
X12670000Y-12180000D02*
X12630000Y-12220000D01*
X12680000Y-10830000D02*
X12720000Y-10870000D01*
X12720000Y-10830000D02*
X12680000Y-10870000D01*
X12705000Y-12005000D02*
X12745000Y-12045000D01*
X12745000Y-12005000D02*
X12705000Y-12045000D01*
X12705000Y-12255000D02*
X12745000Y-12295000D01*
X12745000Y-12255000D02*
X12705000Y-12295000D01*
X12730000Y-11480000D02*
X12770000Y-11520000D01*
X12770000Y-11480000D02*
X12730000Y-11520000D01*
X12755000Y-13555000D02*
X12795000Y-13595000D01*
X12795000Y-13555000D02*
X12755000Y-13595000D01*
X12755000Y-13730000D02*
X12795000Y-13770000D01*
X12795000Y-13730000D02*
X12755000Y-13770000D01*
X12780000Y-12080000D02*
X12820000Y-12120000D01*
X12820000Y-12080000D02*
X12780000Y-12120000D01*
X12780000Y-12330000D02*
X12820000Y-12370000D01*
X12820000Y-12330000D02*
X12780000Y-12370000D01*
X12805000Y-11080000D02*
X12845000Y-11120000D01*
X12845000Y-11080000D02*
X12805000Y-11120000D01*
X12805000Y-11430000D02*
X12845000Y-11470000D01*
X12845000Y-11430000D02*
X12805000Y-11470000D01*
X12855000Y-12155000D02*
X12895000Y-12195000D01*
X12895000Y-12155000D02*
X12855000Y-12195000D01*
X12855000Y-12405000D02*
X12895000Y-12445000D01*
X12895000Y-12405000D02*
X12855000Y-12445000D01*
X12855000Y-13555000D02*
X12895000Y-13595000D01*
X12895000Y-13555000D02*
X12855000Y-13595000D01*
X12855000Y-13730000D02*
X12895000Y-13770000D01*
X12895000Y-13730000D02*
X12855000Y-13770000D01*
X12905000Y-11280000D02*
X12945000Y-11320000D01*
X12945000Y-11280000D02*
X12905000Y-11320000D01*
X12905000Y-11430000D02*
X12945000Y-11470000D01*
X12945000Y-11430000D02*
X12905000Y-11470000D01*
X12930000Y-12230000D02*
X12970000Y-12270000D01*
X12970000Y-12230000D02*
X12930000Y-12270000D01*
X12930000Y-12480000D02*
X12970000Y-12520000D01*
X12970000Y-12480000D02*
X12930000Y-12520000D01*
X12955000Y-13555000D02*
X12995000Y-13595000D01*
X12995000Y-13555000D02*
X12955000Y-13595000D01*
X12955000Y-13730000D02*
X12995000Y-13770000D01*
X12995000Y-13730000D02*
X12955000Y-13770000D01*
X12980000Y-8730000D02*
X13020000Y-8770000D01*
X13020000Y-8730000D02*
X12980000Y-8770000D01*
X12980000Y-10530000D02*
X13020000Y-10570000D01*
X13020000Y-10530000D02*
X12980000Y-10570000D01*
X13005000Y-11280000D02*
X13045000Y-11320000D01*
X13045000Y-11280000D02*
X13005000Y-11320000D01*
X13005000Y-11430000D02*
X13045000Y-11470000D01*
X13045000Y-11430000D02*
X13005000Y-11470000D01*
X13005000Y-12305000D02*
X13045000Y-12345000D01*
X13045000Y-12305000D02*
X13005000Y-12345000D01*
X13005000Y-12555000D02*
X13045000Y-12595000D01*
X13045000Y-12555000D02*
X13005000Y-12595000D01*
X13080000Y-12380000D02*
X13120000Y-12420000D01*
X13120000Y-12380000D02*
X13080000Y-12420000D01*
X13080000Y-12630000D02*
X13120000Y-12670000D01*
X13120000Y-12630000D02*
X13080000Y-12670000D01*
X13105000Y-11280000D02*
X13145000Y-11320000D01*
X13145000Y-11280000D02*
X13105000Y-11320000D01*
X13105000Y-11430000D02*
X13145000Y-11470000D01*
X13145000Y-11430000D02*
X13105000Y-11470000D01*
X13155000Y-12455000D02*
X13195000Y-12495000D01*
X13195000Y-12455000D02*
X13155000Y-12495000D01*
X13170000Y-12680000D02*
X13210000Y-12720000D01*
X13210000Y-12680000D02*
X13170000Y-12720000D01*
X13180000Y-8130000D02*
X13220000Y-8170000D01*
X13220000Y-8130000D02*
X13180000Y-8170000D01*
X13205000Y-11280000D02*
X13245000Y-11320000D01*
X13245000Y-11280000D02*
X13205000Y-11320000D01*
X13205000Y-11430000D02*
X13245000Y-11470000D01*
X13245000Y-11430000D02*
X13205000Y-11470000D01*
X13230000Y-12530000D02*
X13270000Y-12570000D01*
X13270000Y-12530000D02*
X13230000Y-12570000D01*
X13262500Y-12680000D02*
X13302500Y-12720000D01*
X13302500Y-12680000D02*
X13262500Y-12720000D01*
X13280000Y-7930000D02*
X13320000Y-7970000D01*
X13320000Y-7930000D02*
X13280000Y-7970000D01*
X13280000Y-9730000D02*
X13320000Y-9770000D01*
X13320000Y-9730000D02*
X13280000Y-9770000D01*
X13305000Y-11280000D02*
X13345000Y-11320000D01*
X13345000Y-11280000D02*
X13305000Y-11320000D01*
X13305000Y-11430000D02*
X13345000Y-11470000D01*
X13345000Y-11430000D02*
X13305000Y-11470000D01*
X13355000Y-12530000D02*
X13395000Y-12570000D01*
X13395000Y-12530000D02*
X13355000Y-12570000D01*
X13355000Y-12680000D02*
X13395000Y-12720000D01*
X13395000Y-12680000D02*
X13355000Y-12720000D01*
X13405000Y-11280000D02*
X13445000Y-11320000D01*
X13445000Y-11280000D02*
X13405000Y-11320000D01*
X13405000Y-11430000D02*
X13445000Y-11470000D01*
X13445000Y-11430000D02*
X13405000Y-11470000D01*
X13455000Y-12530000D02*
X13495000Y-12570000D01*
X13495000Y-12530000D02*
X13455000Y-12570000D01*
X13455000Y-12680000D02*
X13495000Y-12720000D01*
X13495000Y-12680000D02*
X13455000Y-12720000D01*
X13505000Y-11280000D02*
X13545000Y-11320000D01*
X13545000Y-11280000D02*
X13505000Y-11320000D01*
X13505000Y-11430000D02*
X13545000Y-11470000D01*
X13545000Y-11430000D02*
X13505000Y-11470000D01*
X13555000Y-12530000D02*
X13595000Y-12570000D01*
X13595000Y-12530000D02*
X13555000Y-12570000D01*
X13555000Y-12680000D02*
X13595000Y-12720000D01*
X13595000Y-12680000D02*
X13555000Y-12720000D01*
X13605000Y-11280000D02*
X13645000Y-11320000D01*
X13645000Y-11280000D02*
X13605000Y-11320000D01*
X13605000Y-11430000D02*
X13645000Y-11470000D01*
X13645000Y-11430000D02*
X13605000Y-11470000D01*
X13605000Y-13555000D02*
X13645000Y-13595000D01*
X13645000Y-13555000D02*
X13605000Y-13595000D01*
X13605000Y-13705000D02*
X13645000Y-13745000D01*
X13645000Y-13705000D02*
X13605000Y-13745000D01*
X13655000Y-12530000D02*
X13695000Y-12570000D01*
X13695000Y-12530000D02*
X13655000Y-12570000D01*
X13655000Y-12680000D02*
X13695000Y-12720000D01*
X13695000Y-12680000D02*
X13655000Y-12720000D01*
X13657500Y-5930000D02*
X13697500Y-5970000D01*
X13697500Y-5930000D02*
X13657500Y-5970000D01*
X13705000Y-11280000D02*
X13745000Y-11320000D01*
X13745000Y-11280000D02*
X13705000Y-11320000D01*
X13705000Y-11430000D02*
X13745000Y-11470000D01*
X13745000Y-11430000D02*
X13705000Y-11470000D01*
X13705000Y-13555000D02*
X13745000Y-13595000D01*
X13745000Y-13555000D02*
X13705000Y-13595000D01*
X13705000Y-13705000D02*
X13745000Y-13745000D01*
X13745000Y-13705000D02*
X13705000Y-13745000D01*
X13755000Y-12530000D02*
X13795000Y-12570000D01*
X13795000Y-12530000D02*
X13755000Y-12570000D01*
X13755000Y-12680000D02*
X13795000Y-12720000D01*
X13795000Y-12680000D02*
X13755000Y-12720000D01*
X13805000Y-11280000D02*
X13845000Y-11320000D01*
X13845000Y-11280000D02*
X13805000Y-11320000D01*
X13805000Y-11430000D02*
X13845000Y-11470000D01*
X13845000Y-11430000D02*
X13805000Y-11470000D01*
X13805000Y-13555000D02*
X13845000Y-13595000D01*
X13845000Y-13555000D02*
X13805000Y-13595000D01*
X13805000Y-13705000D02*
X13845000Y-13745000D01*
X13845000Y-13705000D02*
X13805000Y-13745000D01*
X13830000Y-5680000D02*
X13870000Y-5720000D01*
X13870000Y-5680000D02*
X13830000Y-5720000D01*
X13855000Y-12530000D02*
X13895000Y-12570000D01*
X13895000Y-12530000D02*
X13855000Y-12570000D01*
X13855000Y-12680000D02*
X13895000Y-12720000D01*
X13895000Y-12680000D02*
X13855000Y-12720000D01*
X13905000Y-11280000D02*
X13945000Y-11320000D01*
X13945000Y-11280000D02*
X13905000Y-11320000D01*
X13905000Y-11430000D02*
X13945000Y-11470000D01*
X13945000Y-11430000D02*
X13905000Y-11470000D01*
X13905000Y-13555000D02*
X13945000Y-13595000D01*
X13945000Y-13555000D02*
X13905000Y-13595000D01*
X13905000Y-13705000D02*
X13945000Y-13745000D01*
X13945000Y-13705000D02*
X13905000Y-13745000D01*
X13955000Y-12530000D02*
X13995000Y-12570000D01*
X13995000Y-12530000D02*
X13955000Y-12570000D01*
X13955000Y-12680000D02*
X13995000Y-12720000D01*
X13995000Y-12680000D02*
X13955000Y-12720000D01*
X14005000Y-11280000D02*
X14045000Y-11320000D01*
X14045000Y-11280000D02*
X14005000Y-11320000D01*
X14005000Y-11430000D02*
X14045000Y-11470000D01*
X14045000Y-11430000D02*
X14005000Y-11470000D01*
X14005000Y-13555000D02*
X14045000Y-13595000D01*
X14045000Y-13555000D02*
X14005000Y-13595000D01*
X14005000Y-13705000D02*
X14045000Y-13745000D01*
X14045000Y-13705000D02*
X14005000Y-13745000D01*
X14055000Y-12530000D02*
X14095000Y-12570000D01*
X14095000Y-12530000D02*
X14055000Y-12570000D01*
X14055000Y-12680000D02*
X14095000Y-12720000D01*
X14095000Y-12680000D02*
X14055000Y-12720000D01*
X14105000Y-11280000D02*
X14145000Y-11320000D01*
X14145000Y-11280000D02*
X14105000Y-11320000D01*
X14105000Y-11430000D02*
X14145000Y-11470000D01*
X14145000Y-11430000D02*
X14105000Y-11470000D01*
X14105000Y-13555000D02*
X14145000Y-13595000D01*
X14145000Y-13555000D02*
X14105000Y-13595000D01*
X14105000Y-13705000D02*
X14145000Y-13745000D01*
X14145000Y-13705000D02*
X14105000Y-13745000D01*
X14155000Y-12530000D02*
X14195000Y-12570000D01*
X14195000Y-12530000D02*
X14155000Y-12570000D01*
X14155000Y-12680000D02*
X14195000Y-12720000D01*
X14195000Y-12680000D02*
X14155000Y-12720000D01*
X14205000Y-11280000D02*
X14245000Y-11320000D01*
X14245000Y-11280000D02*
X14205000Y-11320000D01*
X14205000Y-11430000D02*
X14245000Y-11470000D01*
X14245000Y-11430000D02*
X14205000Y-11470000D01*
X14205000Y-13555000D02*
X14245000Y-13595000D01*
X14245000Y-13555000D02*
X14205000Y-13595000D01*
X14205000Y-13705000D02*
X14245000Y-13745000D01*
X14245000Y-13705000D02*
X14205000Y-13745000D01*
X14230000Y-5730000D02*
X14270000Y-5770000D01*
X14270000Y-5730000D02*
X14230000Y-5770000D01*
X14255000Y-12530000D02*
X14295000Y-12570000D01*
X14295000Y-12530000D02*
X14255000Y-12570000D01*
X14255000Y-12680000D02*
X14295000Y-12720000D01*
X14295000Y-12680000D02*
X14255000Y-12720000D01*
X14305000Y-11280000D02*
X14345000Y-11320000D01*
X14345000Y-11280000D02*
X14305000Y-11320000D01*
X14305000Y-11430000D02*
X14345000Y-11470000D01*
X14345000Y-11430000D02*
X14305000Y-11470000D01*
X14305000Y-13555000D02*
X14345000Y-13595000D01*
X14345000Y-13555000D02*
X14305000Y-13595000D01*
X14305000Y-13705000D02*
X14345000Y-13745000D01*
X14345000Y-13705000D02*
X14305000Y-13745000D01*
X14355000Y-12530000D02*
X14395000Y-12570000D01*
X14395000Y-12530000D02*
X14355000Y-12570000D01*
X14355000Y-12680000D02*
X14395000Y-12720000D01*
X14395000Y-12680000D02*
X14355000Y-12720000D01*
X14405000Y-13555000D02*
X14445000Y-13595000D01*
X14445000Y-13555000D02*
X14405000Y-13595000D01*
X14405000Y-13705000D02*
X14445000Y-13745000D01*
X14445000Y-13705000D02*
X14405000Y-13745000D01*
X14455000Y-12530000D02*
X14495000Y-12570000D01*
X14495000Y-12530000D02*
X14455000Y-12570000D01*
X14455000Y-12680000D02*
X14495000Y-12720000D01*
X14495000Y-12680000D02*
X14455000Y-12720000D01*
X14505000Y-13555000D02*
X14545000Y-13595000D01*
X14545000Y-13555000D02*
X14505000Y-13595000D01*
X14505000Y-13705000D02*
X14545000Y-13745000D01*
X14545000Y-13705000D02*
X14505000Y-13745000D01*
X14555000Y-12530000D02*
X14595000Y-12570000D01*
X14595000Y-12530000D02*
X14555000Y-12570000D01*
X14555000Y-12680000D02*
X14595000Y-12720000D01*
X14595000Y-12680000D02*
X14555000Y-12720000D01*
X14605000Y-13555000D02*
X14645000Y-13595000D01*
X14645000Y-13555000D02*
X14605000Y-13595000D01*
X14605000Y-13705000D02*
X14645000Y-13745000D01*
X14645000Y-13705000D02*
X14605000Y-13745000D01*
X14630000Y-9980000D02*
X14670000Y-10020000D01*
X14670000Y-9980000D02*
X14630000Y-10020000D01*
X14630000Y-10280000D02*
X14670000Y-10320000D01*
X14670000Y-10280000D02*
X14630000Y-10320000D01*
X14655000Y-12530000D02*
X14695000Y-12570000D01*
X14695000Y-12530000D02*
X14655000Y-12570000D01*
X14655000Y-12680000D02*
X14695000Y-12720000D01*
X14695000Y-12680000D02*
X14655000Y-12720000D01*
X14705000Y-13555000D02*
X14745000Y-13595000D01*
X14745000Y-13555000D02*
X14705000Y-13595000D01*
X14705000Y-13705000D02*
X14745000Y-13745000D01*
X14745000Y-13705000D02*
X14705000Y-13745000D01*
X14730000Y-13880000D02*
X14770000Y-13920000D01*
X14770000Y-13880000D02*
X14730000Y-13920000D01*
X14755000Y-12530000D02*
X14795000Y-12570000D01*
X14795000Y-12530000D02*
X14755000Y-12570000D01*
X14755000Y-12680000D02*
X14795000Y-12720000D01*
X14795000Y-12680000D02*
X14755000Y-12720000D01*
X14780000Y-13205000D02*
X14820000Y-13245000D01*
X14820000Y-13205000D02*
X14780000Y-13245000D01*
X14805000Y-13555000D02*
X14845000Y-13595000D01*
X14845000Y-13555000D02*
X14805000Y-13595000D01*
X14805000Y-13705000D02*
X14845000Y-13745000D01*
X14845000Y-13705000D02*
X14805000Y-13745000D01*
X14855000Y-12530000D02*
X14895000Y-12570000D01*
X14895000Y-12530000D02*
X14855000Y-12570000D01*
X14855000Y-12680000D02*
X14895000Y-12720000D01*
X14895000Y-12680000D02*
X14855000Y-12720000D01*
X14905000Y-13555000D02*
X14945000Y-13595000D01*
X14945000Y-13555000D02*
X14905000Y-13595000D01*
X14905000Y-13705000D02*
X14945000Y-13745000D01*
X14945000Y-13705000D02*
X14905000Y-13745000D01*
X14930000Y-11330000D02*
X14970000Y-11370000D01*
X14970000Y-11330000D02*
X14930000Y-11370000D01*
X14930000Y-11480000D02*
X14970000Y-11520000D01*
X14970000Y-11480000D02*
X14930000Y-11520000D01*
X14955000Y-12530000D02*
X14995000Y-12570000D01*
X14995000Y-12530000D02*
X14955000Y-12570000D01*
X14955000Y-12680000D02*
X14995000Y-12720000D01*
X14995000Y-12680000D02*
X14955000Y-12720000D01*
X15005000Y-13555000D02*
X15045000Y-13595000D01*
X15045000Y-13555000D02*
X15005000Y-13595000D01*
X15005000Y-13705000D02*
X15045000Y-13745000D01*
X15045000Y-13705000D02*
X15005000Y-13745000D01*
X15030000Y-11330000D02*
X15070000Y-11370000D01*
X15070000Y-11330000D02*
X15030000Y-11370000D01*
X15030000Y-11480000D02*
X15070000Y-11520000D01*
X15070000Y-11480000D02*
X15030000Y-11520000D01*
X15055000Y-12530000D02*
X15095000Y-12570000D01*
X15095000Y-12530000D02*
X15055000Y-12570000D01*
X15055000Y-12680000D02*
X15095000Y-12720000D01*
X15095000Y-12680000D02*
X15055000Y-12720000D01*
X15105000Y-13555000D02*
X15145000Y-13595000D01*
X15145000Y-13555000D02*
X15105000Y-13595000D01*
X15105000Y-13705000D02*
X15145000Y-13745000D01*
X15145000Y-13705000D02*
X15105000Y-13745000D01*
X15155000Y-12530000D02*
X15195000Y-12570000D01*
X15195000Y-12530000D02*
X15155000Y-12570000D01*
X15155000Y-12680000D02*
X15195000Y-12720000D01*
X15195000Y-12680000D02*
X15155000Y-12720000D01*
X15205000Y-13555000D02*
X15245000Y-13595000D01*
X15245000Y-13555000D02*
X15205000Y-13595000D01*
X15205000Y-13705000D02*
X15245000Y-13745000D01*
X15245000Y-13705000D02*
X15205000Y-13745000D01*
X15255000Y-12530000D02*
X15295000Y-12570000D01*
X15295000Y-12530000D02*
X15255000Y-12570000D01*
X15255000Y-12680000D02*
X15295000Y-12720000D01*
X15295000Y-12680000D02*
X15255000Y-12720000D01*
X15305000Y-13555000D02*
X15345000Y-13595000D01*
X15345000Y-13555000D02*
X15305000Y-13595000D01*
X15305000Y-13705000D02*
X15345000Y-13745000D01*
X15345000Y-13705000D02*
X15305000Y-13745000D01*
X15355000Y-12530000D02*
X15395000Y-12570000D01*
X15395000Y-12530000D02*
X15355000Y-12570000D01*
X15355000Y-12680000D02*
X15395000Y-12720000D01*
X15395000Y-12680000D02*
X15355000Y-12720000D01*
X15405000Y-13555000D02*
X15445000Y-13595000D01*
X15445000Y-13555000D02*
X15405000Y-13595000D01*
X15405000Y-13705000D02*
X15445000Y-13745000D01*
X15445000Y-13705000D02*
X15405000Y-13745000D01*
X15455000Y-12530000D02*
X15495000Y-12570000D01*
X15495000Y-12530000D02*
X15455000Y-12570000D01*
X15455000Y-12680000D02*
X15495000Y-12720000D01*
X15495000Y-12680000D02*
X15455000Y-12720000D01*
X15505000Y-13555000D02*
X15545000Y-13595000D01*
X15545000Y-13555000D02*
X15505000Y-13595000D01*
X15505000Y-13705000D02*
X15545000Y-13745000D01*
X15545000Y-13705000D02*
X15505000Y-13745000D01*
X15530000Y-11330000D02*
X15570000Y-11370000D01*
X15570000Y-11330000D02*
X15530000Y-11370000D01*
X15530000Y-11480000D02*
X15570000Y-11520000D01*
X15570000Y-11480000D02*
X15530000Y-11520000D01*
X15555000Y-12530000D02*
X15595000Y-12570000D01*
X15595000Y-12530000D02*
X15555000Y-12570000D01*
X15555000Y-12680000D02*
X15595000Y-12720000D01*
X15595000Y-12680000D02*
X15555000Y-12720000D01*
X15605000Y-13555000D02*
X15645000Y-13595000D01*
X15645000Y-13555000D02*
X15605000Y-13595000D01*
X15605000Y-13705000D02*
X15645000Y-13745000D01*
X15645000Y-13705000D02*
X15605000Y-13745000D01*
X15655000Y-11330000D02*
X15695000Y-11370000D01*
X15695000Y-11330000D02*
X15655000Y-11370000D01*
X15655000Y-11480000D02*
X15695000Y-11520000D01*
X15695000Y-11480000D02*
X15655000Y-11520000D01*
X15655000Y-12530000D02*
X15695000Y-12570000D01*
X15695000Y-12530000D02*
X15655000Y-12570000D01*
X15655000Y-12680000D02*
X15695000Y-12720000D01*
X15695000Y-12680000D02*
X15655000Y-12720000D01*
X15680000Y-13405000D02*
X15720000Y-13445000D01*
X15720000Y-13405000D02*
X15680000Y-13445000D01*
X15680000Y-14080000D02*
X15720000Y-14120000D01*
X15720000Y-14080000D02*
X15680000Y-14120000D01*
X15730000Y-12755000D02*
X15770000Y-12795000D01*
X15770000Y-12755000D02*
X15730000Y-12795000D01*
X15780000Y-12555000D02*
X15820000Y-12595000D01*
X15820000Y-12555000D02*
X15780000Y-12595000D01*
X15780000Y-14080000D02*
X15820000Y-14120000D01*
X15820000Y-14080000D02*
X15780000Y-14120000D01*
X15805000Y-7905000D02*
X15845000Y-7945000D01*
X15845000Y-7905000D02*
X15805000Y-7945000D01*
X15805000Y-12830000D02*
X15845000Y-12870000D01*
X15845000Y-12830000D02*
X15805000Y-12870000D01*
X15830000Y-12930000D02*
X15870000Y-12970000D01*
X15870000Y-12930000D02*
X15830000Y-12970000D01*
X15830000Y-13030000D02*
X15870000Y-13070000D01*
X15870000Y-13030000D02*
X15830000Y-13070000D01*
X15830000Y-13130000D02*
X15870000Y-13170000D01*
X15870000Y-13130000D02*
X15830000Y-13170000D01*
X15830000Y-13230000D02*
X15870000Y-13270000D01*
X15870000Y-13230000D02*
X15830000Y-13270000D01*
X15830000Y-13330000D02*
X15870000Y-13370000D01*
X15870000Y-13330000D02*
X15830000Y-13370000D01*
X15855000Y-12630000D02*
X15895000Y-12670000D01*
X15895000Y-12630000D02*
X15855000Y-12670000D01*
X15905000Y-13630000D02*
X15945000Y-13670000D01*
X15945000Y-13630000D02*
X15905000Y-13670000D01*
X15905000Y-13780000D02*
X15945000Y-13820000D01*
X15945000Y-13780000D02*
X15905000Y-13820000D01*
X15905000Y-14080000D02*
X15945000Y-14120000D01*
X15945000Y-14080000D02*
X15905000Y-14120000D01*
X15930000Y-11080000D02*
X15970000Y-11120000D01*
X15970000Y-11080000D02*
X15930000Y-11120000D01*
X15930000Y-11230000D02*
X15970000Y-11270000D01*
X15970000Y-11230000D02*
X15930000Y-11270000D01*
X15930000Y-12705000D02*
X15970000Y-12745000D01*
X15970000Y-12705000D02*
X15930000Y-12745000D01*
X15930000Y-14180000D02*
X15970000Y-14220000D01*
X15970000Y-14180000D02*
X15930000Y-14220000D01*
X15980000Y-12805000D02*
X16020000Y-12845000D01*
X16020000Y-12805000D02*
X15980000Y-12845000D01*
X15980000Y-12930000D02*
X16020000Y-12970000D01*
X16020000Y-12930000D02*
X15980000Y-12970000D01*
X15980000Y-13030000D02*
X16020000Y-13070000D01*
X16020000Y-13030000D02*
X15980000Y-13070000D01*
X15980000Y-13130000D02*
X16020000Y-13170000D01*
X16020000Y-13130000D02*
X15980000Y-13170000D01*
X15980000Y-13230000D02*
X16020000Y-13270000D01*
X16020000Y-13230000D02*
X15980000Y-13270000D01*
X15980000Y-13330000D02*
X16020000Y-13370000D01*
X16020000Y-13330000D02*
X15980000Y-13370000D01*
X16005000Y-14255000D02*
X16045000Y-14295000D01*
X16045000Y-14255000D02*
X16005000Y-14295000D01*
X16030000Y-11080000D02*
X16070000Y-11120000D01*
X16070000Y-11080000D02*
X16030000Y-11120000D01*
X16030000Y-11230000D02*
X16070000Y-11270000D01*
X16070000Y-11230000D02*
X16030000Y-11270000D01*
X16055000Y-13630000D02*
X16095000Y-13670000D01*
X16095000Y-13630000D02*
X16055000Y-13670000D01*
X16055000Y-13780000D02*
X16095000Y-13820000D01*
X16095000Y-13780000D02*
X16055000Y-13820000D01*
X16080000Y-13080000D02*
X16120000Y-13120000D01*
X16120000Y-13080000D02*
X16080000Y-13120000D01*
X16105000Y-14105000D02*
X16145000Y-14145000D01*
X16145000Y-14105000D02*
X16105000Y-14145000D01*
X16130000Y-13330000D02*
X16170000Y-13370000D01*
X16170000Y-13330000D02*
X16130000Y-13370000D01*
X16180000Y-14180000D02*
X16220000Y-14220000D01*
X16220000Y-14180000D02*
X16180000Y-14220000D01*
X16230000Y-14480000D02*
X16270000Y-14520000D01*
X16270000Y-14480000D02*
X16230000Y-14520000D01*
X16280000Y-13405000D02*
X16320000Y-13445000D01*
X16320000Y-13405000D02*
X16280000Y-13445000D01*
X16280000Y-14005000D02*
X16320000Y-14045000D01*
X16320000Y-14005000D02*
X16280000Y-14045000D01*
X16305000Y-11330000D02*
X16345000Y-11370000D01*
X16345000Y-11330000D02*
X16305000Y-11370000D01*
X16305000Y-11530000D02*
X16345000Y-11570000D01*
X16345000Y-11530000D02*
X16305000Y-11570000D01*
X16305000Y-14555000D02*
X16345000Y-14595000D01*
X16345000Y-14555000D02*
X16305000Y-14595000D01*
X16330000Y-13705000D02*
X16370000Y-13745000D01*
X16370000Y-13705000D02*
X16330000Y-13745000D01*
X16330000Y-14330000D02*
X16370000Y-14370000D01*
X16370000Y-14330000D02*
X16330000Y-14370000D01*
X16405000Y-11330000D02*
X16445000Y-11370000D01*
X16445000Y-11330000D02*
X16405000Y-11370000D01*
X16405000Y-11530000D02*
X16445000Y-11570000D01*
X16445000Y-11530000D02*
X16405000Y-11570000D01*
X16405000Y-14405000D02*
X16445000Y-14445000D01*
X16445000Y-14405000D02*
X16405000Y-14445000D01*
X16405000Y-14555000D02*
X16445000Y-14595000D01*
X16445000Y-14555000D02*
X16405000Y-14595000D01*
X16505000Y-11330000D02*
X16545000Y-11370000D01*
X16545000Y-11330000D02*
X16505000Y-11370000D01*
X16505000Y-11530000D02*
X16545000Y-11570000D01*
X16545000Y-11530000D02*
X16505000Y-11570000D01*
X16505000Y-14405000D02*
X16545000Y-14445000D01*
X16545000Y-14405000D02*
X16505000Y-14445000D01*
X16505000Y-14555000D02*
X16545000Y-14595000D01*
X16545000Y-14555000D02*
X16505000Y-14595000D01*
X16580000Y-11680000D02*
X16620000Y-11720000D01*
X16620000Y-11680000D02*
X16580000Y-11720000D01*
X16605000Y-11280000D02*
X16645000Y-11320000D01*
X16645000Y-11280000D02*
X16605000Y-11320000D01*
X16605000Y-11580000D02*
X16645000Y-11620000D01*
X16645000Y-11580000D02*
X16605000Y-11620000D01*
X16605000Y-14405000D02*
X16645000Y-14445000D01*
X16645000Y-14405000D02*
X16605000Y-14445000D01*
X16605000Y-14555000D02*
X16645000Y-14595000D01*
X16645000Y-14555000D02*
X16605000Y-14595000D01*
X16630000Y-13030000D02*
X16670000Y-13070000D01*
X16670000Y-13030000D02*
X16630000Y-13070000D01*
X16655000Y-12130000D02*
X16695000Y-12170000D01*
X16695000Y-12130000D02*
X16655000Y-12170000D01*
X16655000Y-12230000D02*
X16695000Y-12270000D01*
X16695000Y-12230000D02*
X16655000Y-12270000D01*
X16655000Y-12605000D02*
X16695000Y-12645000D01*
X16695000Y-12605000D02*
X16655000Y-12645000D01*
X16655000Y-12705000D02*
X16695000Y-12745000D01*
X16695000Y-12705000D02*
X16655000Y-12745000D01*
X16680000Y-13230000D02*
X16720000Y-13270000D01*
X16720000Y-13230000D02*
X16680000Y-13270000D01*
X16780000Y-11380000D02*
X16820000Y-11420000D01*
X16820000Y-11380000D02*
X16780000Y-11420000D01*
X16780000Y-11480000D02*
X16820000Y-11520000D01*
X16820000Y-11480000D02*
X16780000Y-11520000D01*
X16780000Y-13155000D02*
X16820000Y-13195000D01*
X16820000Y-13155000D02*
X16780000Y-13195000D01*
X16805000Y-12130000D02*
X16845000Y-12170000D01*
X16845000Y-12130000D02*
X16805000Y-12170000D01*
X16805000Y-12230000D02*
X16845000Y-12270000D01*
X16845000Y-12230000D02*
X16805000Y-12270000D01*
X16805000Y-12605000D02*
X16845000Y-12645000D01*
X16845000Y-12605000D02*
X16805000Y-12645000D01*
X16805000Y-12705000D02*
X16845000Y-12745000D01*
X16845000Y-12705000D02*
X16805000Y-12745000D01*
X16805000Y-13055000D02*
X16845000Y-13095000D01*
X16845000Y-13055000D02*
X16805000Y-13095000D01*
X16830000Y-11280000D02*
X16870000Y-11320000D01*
X16870000Y-11280000D02*
X16830000Y-11320000D01*
X16830000Y-11580000D02*
X16870000Y-11620000D01*
X16870000Y-11580000D02*
X16830000Y-11620000D01*
X16880000Y-11680000D02*
X16920000Y-11720000D01*
X16920000Y-11680000D02*
X16880000Y-11720000D01*
X17230000Y-6880000D02*
X17270000Y-6920000D01*
X17270000Y-6880000D02*
X17230000Y-6920000D01*
X17230000Y-7930000D02*
X17270000Y-7970000D01*
X17270000Y-7930000D02*
X17230000Y-7970000D01*
X17230000Y-8055000D02*
X17270000Y-8095000D01*
X17270000Y-8055000D02*
X17230000Y-8095000D01*
X17230000Y-8180000D02*
X17270000Y-8220000D01*
X17270000Y-8180000D02*
X17230000Y-8220000D01*
D13*
X17295000Y-6322500D02*
G75*
G03*
X17295000Y-6322500I-45000J0D01*
G01*
X17295000Y-6576500D02*
G75*
G03*
X17295000Y-6576500I-45000J0D01*
G01*
D14*
X17000000Y-14450000D02*
X17000000Y-14550000D01*
X16950000Y-14500000D02*
X17050000Y-14500000D01*
D15*
X10872921Y-7408921D02*
X10872921Y-7337079D01*
X10801079Y-7337079D01*
X10801079Y-7408921D01*
X10872921Y-7408921D01*
X10872921Y-7662921D02*
X10872921Y-7591079D01*
X10801079Y-7591079D01*
X10801079Y-7662921D01*
X10872921Y-7662921D01*
X11126921Y-7408921D02*
X11126921Y-7337079D01*
X11055079Y-7337079D01*
X11055079Y-7408921D01*
X11126921Y-7408921D01*
X11126921Y-7662921D02*
X11126921Y-7591079D01*
X11055079Y-7591079D01*
X11055079Y-7662921D01*
X11126921Y-7662921D01*
X11380921Y-7408921D02*
X11380921Y-7337079D01*
X11309079Y-7337079D01*
X11309079Y-7408921D01*
X11380921Y-7408921D01*
X11380921Y-7662921D02*
X11380921Y-7591079D01*
X11309079Y-7591079D01*
X11309079Y-7662921D01*
X11380921Y-7662921D01*
X11634921Y-7408921D02*
X11634921Y-7337079D01*
X11563079Y-7337079D01*
X11563079Y-7408921D01*
X11634921Y-7408921D01*
X11634921Y-7662921D02*
X11634921Y-7591079D01*
X11563079Y-7591079D01*
X11563079Y-7662921D01*
X11634921Y-7662921D01*
X11888921Y-7408921D02*
X11888921Y-7337079D01*
X11817079Y-7337079D01*
X11817079Y-7408921D01*
X11888921Y-7408921D01*
X11888921Y-7662921D02*
X11888921Y-7591079D01*
X11817079Y-7591079D01*
X11817079Y-7662921D01*
X11888921Y-7662921D01*
X12142921Y-7408921D02*
X12142921Y-7337079D01*
X12071079Y-7337079D01*
X12071079Y-7408921D01*
X12142921Y-7408921D01*
X12142921Y-7662921D02*
X12142921Y-7591079D01*
X12071079Y-7591079D01*
X12071079Y-7662921D01*
X12142921Y-7662921D01*
X12396921Y-7408921D02*
X12396921Y-7337079D01*
X12325079Y-7337079D01*
X12325079Y-7408921D01*
X12396921Y-7408921D01*
X12396921Y-7662921D02*
X12396921Y-7591079D01*
X12325079Y-7591079D01*
X12325079Y-7662921D01*
X12396921Y-7662921D01*
X12650921Y-7408921D02*
X12650921Y-7337079D01*
X12579079Y-7337079D01*
X12579079Y-7408921D01*
X12650921Y-7408921D01*
X12650921Y-7662921D02*
X12650921Y-7591079D01*
X12579079Y-7591079D01*
X12579079Y-7662921D01*
X12650921Y-7662921D01*
X12904921Y-7408921D02*
X12904921Y-7337079D01*
X12833079Y-7337079D01*
X12833079Y-7408921D01*
X12904921Y-7408921D01*
X12904921Y-7662921D02*
X12904921Y-7591079D01*
X12833079Y-7591079D01*
X12833079Y-7662921D01*
X12904921Y-7662921D01*
X13158921Y-7408921D02*
X13158921Y-7337079D01*
X13087079Y-7337079D01*
X13087079Y-7408921D01*
X13158921Y-7408921D01*
X13158921Y-7662921D02*
X13158921Y-7591079D01*
X13087079Y-7591079D01*
X13087079Y-7662921D01*
X13158921Y-7662921D01*
X13412921Y-7408921D02*
X13412921Y-7337079D01*
X13341079Y-7337079D01*
X13341079Y-7408921D01*
X13412921Y-7408921D01*
X13412921Y-7662921D02*
X13412921Y-7591079D01*
X13341079Y-7591079D01*
X13341079Y-7662921D01*
X13412921Y-7662921D01*
X13666921Y-7408921D02*
X13666921Y-7337079D01*
X13595079Y-7337079D01*
X13595079Y-7408921D01*
X13666921Y-7408921D01*
X13666921Y-7662921D02*
X13666921Y-7591079D01*
X13595079Y-7591079D01*
X13595079Y-7662921D01*
X13666921Y-7662921D01*
X13920921Y-7408921D02*
X13920921Y-7337079D01*
X13849079Y-7337079D01*
X13849079Y-7408921D01*
X13920921Y-7408921D01*
X13920921Y-7662921D02*
X13920921Y-7591079D01*
X13849079Y-7591079D01*
X13849079Y-7662921D01*
X13920921Y-7662921D01*
X14174921Y-7408921D02*
X14174921Y-7337079D01*
X14103079Y-7337079D01*
X14103079Y-7408921D01*
X14174921Y-7408921D01*
X14174921Y-7662921D02*
X14174921Y-7591079D01*
X14103079Y-7591079D01*
X14103079Y-7662921D01*
X14174921Y-7662921D01*
X14428921Y-7408921D02*
X14428921Y-7337079D01*
X14357079Y-7337079D01*
X14357079Y-7408921D01*
X14428921Y-7408921D01*
X14428921Y-7662921D02*
X14428921Y-7591079D01*
X14357079Y-7591079D01*
X14357079Y-7662921D01*
X14428921Y-7662921D01*
X14682921Y-7408921D02*
X14682921Y-7337079D01*
X14611079Y-7337079D01*
X14611079Y-7408921D01*
X14682921Y-7408921D01*
X14682921Y-7662921D02*
X14682921Y-7591079D01*
X14611079Y-7591079D01*
X14611079Y-7662921D01*
X14682921Y-7662921D01*
X14936921Y-7408921D02*
X14936921Y-7337079D01*
X14865079Y-7337079D01*
X14865079Y-7408921D01*
X14936921Y-7408921D01*
X14936921Y-7662921D02*
X14936921Y-7591079D01*
X14865079Y-7591079D01*
X14865079Y-7662921D01*
X14936921Y-7662921D01*
X15190921Y-7408921D02*
X15190921Y-7337079D01*
X15119079Y-7337079D01*
X15119079Y-7408921D01*
X15190921Y-7408921D01*
X15190921Y-7662921D02*
X15190921Y-7591079D01*
X15119079Y-7591079D01*
X15119079Y-7662921D01*
X15190921Y-7662921D01*
X15444921Y-7408921D02*
X15444921Y-7337079D01*
X15373079Y-7337079D01*
X15373079Y-7408921D01*
X15444921Y-7408921D01*
X15444921Y-7662921D02*
X15444921Y-7591079D01*
X15373079Y-7591079D01*
X15373079Y-7662921D01*
X15444921Y-7662921D01*
X15698921Y-7408921D02*
X15698921Y-7337079D01*
X15627079Y-7337079D01*
X15627079Y-7408921D01*
X15698921Y-7408921D01*
X15698921Y-7662921D02*
X15698921Y-7591079D01*
X15627079Y-7591079D01*
X15627079Y-7662921D01*
X15698921Y-7662921D01*
D16*
X16760000Y-14324000D02*
X16824000Y-14260000D01*
X16760000Y-14196000D01*
X16696000Y-14260000D01*
X16760000Y-14324000D01*
X16760000Y-14804000D02*
X16824000Y-14740000D01*
X16760000Y-14676000D01*
X16696000Y-14740000D01*
X16760000Y-14804000D01*
X17240000Y-14324000D02*
X17304000Y-14260000D01*
X17240000Y-14196000D01*
X17176000Y-14260000D01*
X17240000Y-14324000D01*
X17240000Y-14804000D02*
X17304000Y-14740000D01*
X17240000Y-14676000D01*
X17176000Y-14740000D01*
X17240000Y-14804000D01*
D17*
X15087500Y-9207500D02*
X15272500Y-9392500D01*
X15272500Y-9207500D02*
X15087500Y-9392500D01*
X15272500Y-9300000D02*
G75*
G03*
X15272500Y-9300000I-92500J0D01*
G01*
X15557500Y-9207500D02*
X15742500Y-9392500D01*
X15742500Y-9207500D02*
X15557500Y-9392500D01*
X15742500Y-9300000D02*
G75*
G03*
X15742500Y-9300000I-92500J0D01*
G01*
X16027500Y-9207500D02*
X16212500Y-9392500D01*
X16212500Y-9207500D02*
X16027500Y-9392500D01*
X16212500Y-9300000D02*
G75*
G03*
X16212500Y-9300000I-92500J0D01*
G01*
D18*
X10225000Y-5225000D02*
X10475000Y-5475000D01*
X10475000Y-5225000D02*
X10225000Y-5475000D01*
X10350000Y-5225000D02*
X10350000Y-5475000D01*
X10225000Y-5350000D02*
X10475000Y-5350000D01*
X10225000Y-14525000D02*
X10475000Y-14775000D01*
X10475000Y-14525000D02*
X10225000Y-14775000D01*
X10350000Y-14525000D02*
X10350000Y-14775000D01*
X10225000Y-14650000D02*
X10475000Y-14650000D01*
X18025000Y-5225000D02*
X18275000Y-5475000D01*
X18275000Y-5225000D02*
X18025000Y-5475000D01*
X18150000Y-5225000D02*
X18150000Y-5475000D01*
X18025000Y-5350000D02*
X18275000Y-5350000D01*
X18025000Y-14525000D02*
X18275000Y-14775000D01*
X18275000Y-14525000D02*
X18025000Y-14775000D01*
X18150000Y-14525000D02*
X18150000Y-14775000D01*
X18025000Y-14650000D02*
X18275000Y-14650000D01*
D11*
X10249619Y-15318476D02*
X10249619Y-15118476D01*
X10297238Y-15118476D01*
X10325810Y-15128000D01*
X10344857Y-15147048D01*
X10354381Y-15166095D01*
X10363905Y-15204190D01*
X10363905Y-15232762D01*
X10354381Y-15270857D01*
X10344857Y-15289905D01*
X10325810Y-15308952D01*
X10297238Y-15318476D01*
X10249619Y-15318476D01*
X10449619Y-15318476D02*
X10449619Y-15185143D01*
X10449619Y-15223238D02*
X10459143Y-15204190D01*
X10468667Y-15194667D01*
X10487714Y-15185143D01*
X10506762Y-15185143D01*
X10573429Y-15318476D02*
X10573429Y-15185143D01*
X10573429Y-15118476D02*
X10563905Y-15128000D01*
X10573429Y-15137524D01*
X10582952Y-15128000D01*
X10573429Y-15118476D01*
X10573429Y-15137524D01*
X10697238Y-15318476D02*
X10678190Y-15308952D01*
X10668667Y-15289905D01*
X10668667Y-15118476D01*
X10802000Y-15318476D02*
X10782952Y-15308952D01*
X10773429Y-15289905D01*
X10773429Y-15118476D01*
X11030571Y-15318476D02*
X11030571Y-15118476D01*
X11097238Y-15261333D01*
X11163905Y-15118476D01*
X11163905Y-15318476D01*
X11344857Y-15318476D02*
X11344857Y-15213714D01*
X11335333Y-15194667D01*
X11316286Y-15185143D01*
X11278190Y-15185143D01*
X11259143Y-15194667D01*
X11344857Y-15308952D02*
X11325809Y-15318476D01*
X11278190Y-15318476D01*
X11259143Y-15308952D01*
X11249619Y-15289905D01*
X11249619Y-15270857D01*
X11259143Y-15251809D01*
X11278190Y-15242286D01*
X11325809Y-15242286D01*
X11344857Y-15232762D01*
X11440095Y-15185143D02*
X11440095Y-15385143D01*
X11440095Y-15194667D02*
X11459143Y-15185143D01*
X11497238Y-15185143D01*
X11516286Y-15194667D01*
X11525809Y-15204190D01*
X11535333Y-15223238D01*
X11535333Y-15280381D01*
X11525809Y-15299428D01*
X11516286Y-15308952D01*
X11497238Y-15318476D01*
X11459143Y-15318476D01*
X11440095Y-15308952D01*
X11621048Y-15299428D02*
X11630571Y-15308952D01*
X11621048Y-15318476D01*
X11611524Y-15308952D01*
X11621048Y-15299428D01*
X11621048Y-15318476D01*
X11621048Y-15194667D02*
X11630571Y-15204190D01*
X11621048Y-15213714D01*
X11611524Y-15204190D01*
X11621048Y-15194667D01*
X11621048Y-15213714D01*
D12*
X9952000Y-15628000D02*
X9992000Y-15668000D01*
X9992000Y-15628000D02*
X9952000Y-15668000D01*
D11*
X10287714Y-15538476D02*
X10306762Y-15538476D01*
X10325810Y-15548000D01*
X10335333Y-15557524D01*
X10344857Y-15576571D01*
X10354381Y-15614667D01*
X10354381Y-15662286D01*
X10344857Y-15700381D01*
X10335333Y-15719428D01*
X10325810Y-15728952D01*
X10306762Y-15738476D01*
X10287714Y-15738476D01*
X10268667Y-15728952D01*
X10259143Y-15719428D01*
X10249619Y-15700381D01*
X10240095Y-15662286D01*
X10240095Y-15614667D01*
X10249619Y-15576571D01*
X10259143Y-15557524D01*
X10268667Y-15548000D01*
X10287714Y-15538476D01*
X10440095Y-15719428D02*
X10449619Y-15728952D01*
X10440095Y-15738476D01*
X10430571Y-15728952D01*
X10440095Y-15719428D01*
X10440095Y-15738476D01*
X10621048Y-15605143D02*
X10621048Y-15738476D01*
X10573429Y-15528952D02*
X10525810Y-15671809D01*
X10649619Y-15671809D01*
X10763905Y-15538476D02*
X10782952Y-15538476D01*
X10802000Y-15548000D01*
X10811524Y-15557524D01*
X10821048Y-15576571D01*
X10830571Y-15614667D01*
X10830571Y-15662286D01*
X10821048Y-15700381D01*
X10811524Y-15719428D01*
X10802000Y-15728952D01*
X10782952Y-15738476D01*
X10763905Y-15738476D01*
X10744857Y-15728952D01*
X10735333Y-15719428D01*
X10725810Y-15700381D01*
X10716286Y-15662286D01*
X10716286Y-15614667D01*
X10725810Y-15576571D01*
X10735333Y-15557524D01*
X10744857Y-15548000D01*
X10763905Y-15538476D01*
X10954381Y-15538476D02*
X10973429Y-15538476D01*
X10992476Y-15548000D01*
X11002000Y-15557524D01*
X11011524Y-15576571D01*
X11021048Y-15614667D01*
X11021048Y-15662286D01*
X11011524Y-15700381D01*
X11002000Y-15719428D01*
X10992476Y-15728952D01*
X10973429Y-15738476D01*
X10954381Y-15738476D01*
X10935333Y-15728952D01*
X10925810Y-15719428D01*
X10916286Y-15700381D01*
X10906762Y-15662286D01*
X10906762Y-15614667D01*
X10916286Y-15576571D01*
X10925810Y-15557524D01*
X10935333Y-15548000D01*
X10954381Y-15538476D01*
X11106762Y-15738476D02*
X11106762Y-15605143D01*
X11106762Y-15624190D02*
X11116286Y-15614667D01*
X11135333Y-15605143D01*
X11163905Y-15605143D01*
X11182952Y-15614667D01*
X11192476Y-15633714D01*
X11192476Y-15738476D01*
X11192476Y-15633714D02*
X11202000Y-15614667D01*
X11221048Y-15605143D01*
X11249619Y-15605143D01*
X11268667Y-15614667D01*
X11278190Y-15633714D01*
X11278190Y-15738476D01*
X11373428Y-15738476D02*
X11373428Y-15605143D01*
X11373428Y-15624190D02*
X11382952Y-15614667D01*
X11402000Y-15605143D01*
X11430571Y-15605143D01*
X11449619Y-15614667D01*
X11459143Y-15633714D01*
X11459143Y-15738476D01*
X11459143Y-15633714D02*
X11468667Y-15614667D01*
X11487714Y-15605143D01*
X11516286Y-15605143D01*
X11535333Y-15614667D01*
X11544857Y-15633714D01*
X11544857Y-15738476D01*
X11935333Y-15528952D02*
X11763905Y-15786095D01*
X12192476Y-15538476D02*
X12211524Y-15538476D01*
X12230571Y-15548000D01*
X12240095Y-15557524D01*
X12249619Y-15576571D01*
X12259143Y-15614667D01*
X12259143Y-15662286D01*
X12249619Y-15700381D01*
X12240095Y-15719428D01*
X12230571Y-15728952D01*
X12211524Y-15738476D01*
X12192476Y-15738476D01*
X12173428Y-15728952D01*
X12163905Y-15719428D01*
X12154381Y-15700381D01*
X12144857Y-15662286D01*
X12144857Y-15614667D01*
X12154381Y-15576571D01*
X12163905Y-15557524D01*
X12173428Y-15548000D01*
X12192476Y-15538476D01*
X12344857Y-15719428D02*
X12354381Y-15728952D01*
X12344857Y-15738476D01*
X12335333Y-15728952D01*
X12344857Y-15719428D01*
X12344857Y-15738476D01*
X12478190Y-15538476D02*
X12497238Y-15538476D01*
X12516286Y-15548000D01*
X12525809Y-15557524D01*
X12535333Y-15576571D01*
X12544857Y-15614667D01*
X12544857Y-15662286D01*
X12535333Y-15700381D01*
X12525809Y-15719428D01*
X12516286Y-15728952D01*
X12497238Y-15738476D01*
X12478190Y-15738476D01*
X12459143Y-15728952D01*
X12449619Y-15719428D01*
X12440095Y-15700381D01*
X12430571Y-15662286D01*
X12430571Y-15614667D01*
X12440095Y-15576571D01*
X12449619Y-15557524D01*
X12459143Y-15548000D01*
X12478190Y-15538476D01*
X12735333Y-15738476D02*
X12621048Y-15738476D01*
X12678190Y-15738476D02*
X12678190Y-15538476D01*
X12659143Y-15567048D01*
X12640095Y-15586095D01*
X12621048Y-15595619D01*
X12916286Y-15538476D02*
X12821048Y-15538476D01*
X12811524Y-15633714D01*
X12821048Y-15624190D01*
X12840095Y-15614667D01*
X12887714Y-15614667D01*
X12906762Y-15624190D01*
X12916286Y-15633714D01*
X12925809Y-15652762D01*
X12925809Y-15700381D01*
X12916286Y-15719428D01*
X12906762Y-15728952D01*
X12887714Y-15738476D01*
X12840095Y-15738476D01*
X12821048Y-15728952D01*
X12811524Y-15719428D01*
X12992476Y-15538476D02*
X13125809Y-15538476D01*
X13040095Y-15738476D01*
X13192476Y-15538476D02*
X13192476Y-15576571D01*
X13268667Y-15538476D02*
X13268667Y-15576571D01*
X13563905Y-15814667D02*
X13554381Y-15805143D01*
X13535333Y-15776571D01*
X13525809Y-15757524D01*
X13516286Y-15728952D01*
X13506762Y-15681333D01*
X13506762Y-15643238D01*
X13516286Y-15595619D01*
X13525809Y-15567048D01*
X13535333Y-15548000D01*
X13554381Y-15519428D01*
X13563905Y-15509905D01*
X13621048Y-15538476D02*
X13744857Y-15538476D01*
X13678190Y-15614667D01*
X13706762Y-15614667D01*
X13725809Y-15624190D01*
X13735333Y-15633714D01*
X13744857Y-15652762D01*
X13744857Y-15700381D01*
X13735333Y-15719428D01*
X13725809Y-15728952D01*
X13706762Y-15738476D01*
X13649619Y-15738476D01*
X13630571Y-15728952D01*
X13621048Y-15719428D01*
X13821048Y-15557524D02*
X13830571Y-15548000D01*
X13849619Y-15538476D01*
X13897238Y-15538476D01*
X13916286Y-15548000D01*
X13925809Y-15557524D01*
X13935333Y-15576571D01*
X13935333Y-15595619D01*
X13925809Y-15624190D01*
X13811524Y-15738476D01*
X13935333Y-15738476D01*
X14125809Y-15738476D02*
X14011524Y-15738476D01*
X14068667Y-15738476D02*
X14068667Y-15538476D01*
X14049619Y-15567048D01*
X14030571Y-15586095D01*
X14011524Y-15595619D01*
X14363905Y-15738476D02*
X14363905Y-15538476D01*
X14449619Y-15738476D02*
X14449619Y-15633714D01*
X14440095Y-15614667D01*
X14421048Y-15605143D01*
X14392476Y-15605143D01*
X14373428Y-15614667D01*
X14363905Y-15624190D01*
X14573428Y-15738476D02*
X14554381Y-15728952D01*
X14544857Y-15719428D01*
X14535333Y-15700381D01*
X14535333Y-15643238D01*
X14544857Y-15624190D01*
X14554381Y-15614667D01*
X14573428Y-15605143D01*
X14602000Y-15605143D01*
X14621048Y-15614667D01*
X14630571Y-15624190D01*
X14640095Y-15643238D01*
X14640095Y-15700381D01*
X14630571Y-15719428D01*
X14621048Y-15728952D01*
X14602000Y-15738476D01*
X14573428Y-15738476D01*
X14754381Y-15738476D02*
X14735333Y-15728952D01*
X14725809Y-15709905D01*
X14725809Y-15538476D01*
X14906762Y-15728952D02*
X14887714Y-15738476D01*
X14849619Y-15738476D01*
X14830571Y-15728952D01*
X14821048Y-15709905D01*
X14821048Y-15633714D01*
X14830571Y-15614667D01*
X14849619Y-15605143D01*
X14887714Y-15605143D01*
X14906762Y-15614667D01*
X14916286Y-15633714D01*
X14916286Y-15652762D01*
X14821048Y-15671809D01*
X14992476Y-15728952D02*
X15011524Y-15738476D01*
X15049619Y-15738476D01*
X15068667Y-15728952D01*
X15078190Y-15709905D01*
X15078190Y-15700381D01*
X15068667Y-15681333D01*
X15049619Y-15671809D01*
X15021048Y-15671809D01*
X15002000Y-15662286D01*
X14992476Y-15643238D01*
X14992476Y-15633714D01*
X15002000Y-15614667D01*
X15021048Y-15605143D01*
X15049619Y-15605143D01*
X15068667Y-15614667D01*
X15144857Y-15814667D02*
X15154381Y-15805143D01*
X15173428Y-15776571D01*
X15182952Y-15757524D01*
X15192476Y-15728952D01*
X15202000Y-15681333D01*
X15202000Y-15643238D01*
X15192476Y-15595619D01*
X15182952Y-15567048D01*
X15173428Y-15548000D01*
X15154381Y-15519428D01*
X15144857Y-15509905D01*
D13*
X9992000Y-15912000D02*
G75*
G03*
X9992000Y-15912000I-45000J0D01*
G01*
D11*
X10287714Y-15802476D02*
X10306762Y-15802476D01*
X10325810Y-15812000D01*
X10335333Y-15821524D01*
X10344857Y-15840571D01*
X10354381Y-15878667D01*
X10354381Y-15926286D01*
X10344857Y-15964381D01*
X10335333Y-15983428D01*
X10325810Y-15992952D01*
X10306762Y-16002476D01*
X10287714Y-16002476D01*
X10268667Y-15992952D01*
X10259143Y-15983428D01*
X10249619Y-15964381D01*
X10240095Y-15926286D01*
X10240095Y-15878667D01*
X10249619Y-15840571D01*
X10259143Y-15821524D01*
X10268667Y-15812000D01*
X10287714Y-15802476D01*
X10440095Y-15983428D02*
X10449619Y-15992952D01*
X10440095Y-16002476D01*
X10430571Y-15992952D01*
X10440095Y-15983428D01*
X10440095Y-16002476D01*
X10544857Y-16002476D02*
X10582952Y-16002476D01*
X10602000Y-15992952D01*
X10611524Y-15983428D01*
X10630571Y-15954857D01*
X10640095Y-15916762D01*
X10640095Y-15840571D01*
X10630571Y-15821524D01*
X10621048Y-15812000D01*
X10602000Y-15802476D01*
X10563905Y-15802476D01*
X10544857Y-15812000D01*
X10535333Y-15821524D01*
X10525810Y-15840571D01*
X10525810Y-15888190D01*
X10535333Y-15907238D01*
X10544857Y-15916762D01*
X10563905Y-15926286D01*
X10602000Y-15926286D01*
X10621048Y-15916762D01*
X10630571Y-15907238D01*
X10640095Y-15888190D01*
X10763905Y-15802476D02*
X10782952Y-15802476D01*
X10802000Y-15812000D01*
X10811524Y-15821524D01*
X10821048Y-15840571D01*
X10830571Y-15878667D01*
X10830571Y-15926286D01*
X10821048Y-15964381D01*
X10811524Y-15983428D01*
X10802000Y-15992952D01*
X10782952Y-16002476D01*
X10763905Y-16002476D01*
X10744857Y-15992952D01*
X10735333Y-15983428D01*
X10725810Y-15964381D01*
X10716286Y-15926286D01*
X10716286Y-15878667D01*
X10725810Y-15840571D01*
X10735333Y-15821524D01*
X10744857Y-15812000D01*
X10763905Y-15802476D01*
X10954381Y-15802476D02*
X10973429Y-15802476D01*
X10992476Y-15812000D01*
X11002000Y-15821524D01*
X11011524Y-15840571D01*
X11021048Y-15878667D01*
X11021048Y-15926286D01*
X11011524Y-15964381D01*
X11002000Y-15983428D01*
X10992476Y-15992952D01*
X10973429Y-16002476D01*
X10954381Y-16002476D01*
X10935333Y-15992952D01*
X10925810Y-15983428D01*
X10916286Y-15964381D01*
X10906762Y-15926286D01*
X10906762Y-15878667D01*
X10916286Y-15840571D01*
X10925810Y-15821524D01*
X10935333Y-15812000D01*
X10954381Y-15802476D01*
X11106762Y-16002476D02*
X11106762Y-15869143D01*
X11106762Y-15888190D02*
X11116286Y-15878667D01*
X11135333Y-15869143D01*
X11163905Y-15869143D01*
X11182952Y-15878667D01*
X11192476Y-15897714D01*
X11192476Y-16002476D01*
X11192476Y-15897714D02*
X11202000Y-15878667D01*
X11221048Y-15869143D01*
X11249619Y-15869143D01*
X11268667Y-15878667D01*
X11278190Y-15897714D01*
X11278190Y-16002476D01*
X11373428Y-16002476D02*
X11373428Y-15869143D01*
X11373428Y-15888190D02*
X11382952Y-15878667D01*
X11402000Y-15869143D01*
X11430571Y-15869143D01*
X11449619Y-15878667D01*
X11459143Y-15897714D01*
X11459143Y-16002476D01*
X11459143Y-15897714D02*
X11468667Y-15878667D01*
X11487714Y-15869143D01*
X11516286Y-15869143D01*
X11535333Y-15878667D01*
X11544857Y-15897714D01*
X11544857Y-16002476D01*
X11935333Y-15792952D02*
X11763905Y-16050095D01*
X12192476Y-15802476D02*
X12211524Y-15802476D01*
X12230571Y-15812000D01*
X12240095Y-15821524D01*
X12249619Y-15840571D01*
X12259143Y-15878667D01*
X12259143Y-15926286D01*
X12249619Y-15964381D01*
X12240095Y-15983428D01*
X12230571Y-15992952D01*
X12211524Y-16002476D01*
X12192476Y-16002476D01*
X12173428Y-15992952D01*
X12163905Y-15983428D01*
X12154381Y-15964381D01*
X12144857Y-15926286D01*
X12144857Y-15878667D01*
X12154381Y-15840571D01*
X12163905Y-15821524D01*
X12173428Y-15812000D01*
X12192476Y-15802476D01*
X12344857Y-15983428D02*
X12354381Y-15992952D01*
X12344857Y-16002476D01*
X12335333Y-15992952D01*
X12344857Y-15983428D01*
X12344857Y-16002476D01*
X12478190Y-15802476D02*
X12497238Y-15802476D01*
X12516286Y-15812000D01*
X12525809Y-15821524D01*
X12535333Y-15840571D01*
X12544857Y-15878667D01*
X12544857Y-15926286D01*
X12535333Y-15964381D01*
X12525809Y-15983428D01*
X12516286Y-15992952D01*
X12497238Y-16002476D01*
X12478190Y-16002476D01*
X12459143Y-15992952D01*
X12449619Y-15983428D01*
X12440095Y-15964381D01*
X12430571Y-15926286D01*
X12430571Y-15878667D01*
X12440095Y-15840571D01*
X12449619Y-15821524D01*
X12459143Y-15812000D01*
X12478190Y-15802476D01*
X12611524Y-15802476D02*
X12735333Y-15802476D01*
X12668667Y-15878667D01*
X12697238Y-15878667D01*
X12716286Y-15888190D01*
X12725809Y-15897714D01*
X12735333Y-15916762D01*
X12735333Y-15964381D01*
X12725809Y-15983428D01*
X12716286Y-15992952D01*
X12697238Y-16002476D01*
X12640095Y-16002476D01*
X12621048Y-15992952D01*
X12611524Y-15983428D01*
X12916286Y-15802476D02*
X12821048Y-15802476D01*
X12811524Y-15897714D01*
X12821048Y-15888190D01*
X12840095Y-15878667D01*
X12887714Y-15878667D01*
X12906762Y-15888190D01*
X12916286Y-15897714D01*
X12925809Y-15916762D01*
X12925809Y-15964381D01*
X12916286Y-15983428D01*
X12906762Y-15992952D01*
X12887714Y-16002476D01*
X12840095Y-16002476D01*
X12821048Y-15992952D01*
X12811524Y-15983428D01*
X13097238Y-15869143D02*
X13097238Y-16002476D01*
X13049619Y-15792952D02*
X13002000Y-15935809D01*
X13125809Y-15935809D01*
X13192476Y-15802476D02*
X13192476Y-15840571D01*
X13268667Y-15802476D02*
X13268667Y-15840571D01*
X13563905Y-16078667D02*
X13554381Y-16069143D01*
X13535333Y-16040571D01*
X13525809Y-16021524D01*
X13516286Y-15992952D01*
X13506762Y-15945333D01*
X13506762Y-15907238D01*
X13516286Y-15859619D01*
X13525809Y-15831048D01*
X13535333Y-15812000D01*
X13554381Y-15783428D01*
X13563905Y-15773905D01*
X13630571Y-15821524D02*
X13640095Y-15812000D01*
X13659143Y-15802476D01*
X13706762Y-15802476D01*
X13725809Y-15812000D01*
X13735333Y-15821524D01*
X13744857Y-15840571D01*
X13744857Y-15859619D01*
X13735333Y-15888190D01*
X13621048Y-16002476D01*
X13744857Y-16002476D01*
X13982952Y-16002476D02*
X13982952Y-15802476D01*
X14068667Y-16002476D02*
X14068667Y-15897714D01*
X14059143Y-15878667D01*
X14040095Y-15869143D01*
X14011524Y-15869143D01*
X13992476Y-15878667D01*
X13982952Y-15888190D01*
X14192476Y-16002476D02*
X14173428Y-15992952D01*
X14163905Y-15983428D01*
X14154381Y-15964381D01*
X14154381Y-15907238D01*
X14163905Y-15888190D01*
X14173428Y-15878667D01*
X14192476Y-15869143D01*
X14221048Y-15869143D01*
X14240095Y-15878667D01*
X14249619Y-15888190D01*
X14259143Y-15907238D01*
X14259143Y-15964381D01*
X14249619Y-15983428D01*
X14240095Y-15992952D01*
X14221048Y-16002476D01*
X14192476Y-16002476D01*
X14373428Y-16002476D02*
X14354381Y-15992952D01*
X14344857Y-15973905D01*
X14344857Y-15802476D01*
X14525809Y-15992952D02*
X14506762Y-16002476D01*
X14468667Y-16002476D01*
X14449619Y-15992952D01*
X14440095Y-15973905D01*
X14440095Y-15897714D01*
X14449619Y-15878667D01*
X14468667Y-15869143D01*
X14506762Y-15869143D01*
X14525809Y-15878667D01*
X14535333Y-15897714D01*
X14535333Y-15916762D01*
X14440095Y-15935809D01*
X14611524Y-15992952D02*
X14630571Y-16002476D01*
X14668667Y-16002476D01*
X14687714Y-15992952D01*
X14697238Y-15973905D01*
X14697238Y-15964381D01*
X14687714Y-15945333D01*
X14668667Y-15935809D01*
X14640095Y-15935809D01*
X14621048Y-15926286D01*
X14611524Y-15907238D01*
X14611524Y-15897714D01*
X14621048Y-15878667D01*
X14640095Y-15869143D01*
X14668667Y-15869143D01*
X14687714Y-15878667D01*
X14763905Y-16078667D02*
X14773428Y-16069143D01*
X14792476Y-16040571D01*
X14802000Y-16021524D01*
X14811524Y-15992952D01*
X14821048Y-15945333D01*
X14821048Y-15907238D01*
X14811524Y-15859619D01*
X14802000Y-15831048D01*
X14792476Y-15812000D01*
X14773428Y-15783428D01*
X14763905Y-15773905D01*
D14*
X9942000Y-16126000D02*
X9942000Y-16226000D01*
X9892000Y-16176000D02*
X9992000Y-16176000D01*
D11*
X10354381Y-16266476D02*
X10240095Y-16266476D01*
X10297238Y-16266476D02*
X10297238Y-16066476D01*
X10278190Y-16095048D01*
X10259143Y-16114095D01*
X10240095Y-16123619D01*
X10440095Y-16247428D02*
X10449619Y-16256952D01*
X10440095Y-16266476D01*
X10430571Y-16256952D01*
X10440095Y-16247428D01*
X10440095Y-16266476D01*
X10573429Y-16066476D02*
X10592476Y-16066476D01*
X10611524Y-16076000D01*
X10621048Y-16085524D01*
X10630571Y-16104571D01*
X10640095Y-16142667D01*
X10640095Y-16190286D01*
X10630571Y-16228381D01*
X10621048Y-16247428D01*
X10611524Y-16256952D01*
X10592476Y-16266476D01*
X10573429Y-16266476D01*
X10554381Y-16256952D01*
X10544857Y-16247428D01*
X10535333Y-16228381D01*
X10525810Y-16190286D01*
X10525810Y-16142667D01*
X10535333Y-16104571D01*
X10544857Y-16085524D01*
X10554381Y-16076000D01*
X10573429Y-16066476D01*
X10763905Y-16066476D02*
X10782952Y-16066476D01*
X10802000Y-16076000D01*
X10811524Y-16085524D01*
X10821048Y-16104571D01*
X10830571Y-16142667D01*
X10830571Y-16190286D01*
X10821048Y-16228381D01*
X10811524Y-16247428D01*
X10802000Y-16256952D01*
X10782952Y-16266476D01*
X10763905Y-16266476D01*
X10744857Y-16256952D01*
X10735333Y-16247428D01*
X10725810Y-16228381D01*
X10716286Y-16190286D01*
X10716286Y-16142667D01*
X10725810Y-16104571D01*
X10735333Y-16085524D01*
X10744857Y-16076000D01*
X10763905Y-16066476D01*
X10954381Y-16066476D02*
X10973429Y-16066476D01*
X10992476Y-16076000D01*
X11002000Y-16085524D01*
X11011524Y-16104571D01*
X11021048Y-16142667D01*
X11021048Y-16190286D01*
X11011524Y-16228381D01*
X11002000Y-16247428D01*
X10992476Y-16256952D01*
X10973429Y-16266476D01*
X10954381Y-16266476D01*
X10935333Y-16256952D01*
X10925810Y-16247428D01*
X10916286Y-16228381D01*
X10906762Y-16190286D01*
X10906762Y-16142667D01*
X10916286Y-16104571D01*
X10925810Y-16085524D01*
X10935333Y-16076000D01*
X10954381Y-16066476D01*
X11106762Y-16266476D02*
X11106762Y-16133143D01*
X11106762Y-16152190D02*
X11116286Y-16142667D01*
X11135333Y-16133143D01*
X11163905Y-16133143D01*
X11182952Y-16142667D01*
X11192476Y-16161714D01*
X11192476Y-16266476D01*
X11192476Y-16161714D02*
X11202000Y-16142667D01*
X11221048Y-16133143D01*
X11249619Y-16133143D01*
X11268667Y-16142667D01*
X11278190Y-16161714D01*
X11278190Y-16266476D01*
X11373428Y-16266476D02*
X11373428Y-16133143D01*
X11373428Y-16152190D02*
X11382952Y-16142667D01*
X11402000Y-16133143D01*
X11430571Y-16133143D01*
X11449619Y-16142667D01*
X11459143Y-16161714D01*
X11459143Y-16266476D01*
X11459143Y-16161714D02*
X11468667Y-16142667D01*
X11487714Y-16133143D01*
X11516286Y-16133143D01*
X11535333Y-16142667D01*
X11544857Y-16161714D01*
X11544857Y-16266476D01*
X11935333Y-16056952D02*
X11763905Y-16314095D01*
X12192476Y-16066476D02*
X12211524Y-16066476D01*
X12230571Y-16076000D01*
X12240095Y-16085524D01*
X12249619Y-16104571D01*
X12259143Y-16142667D01*
X12259143Y-16190286D01*
X12249619Y-16228381D01*
X12240095Y-16247428D01*
X12230571Y-16256952D01*
X12211524Y-16266476D01*
X12192476Y-16266476D01*
X12173428Y-16256952D01*
X12163905Y-16247428D01*
X12154381Y-16228381D01*
X12144857Y-16190286D01*
X12144857Y-16142667D01*
X12154381Y-16104571D01*
X12163905Y-16085524D01*
X12173428Y-16076000D01*
X12192476Y-16066476D01*
X12344857Y-16247428D02*
X12354381Y-16256952D01*
X12344857Y-16266476D01*
X12335333Y-16256952D01*
X12344857Y-16247428D01*
X12344857Y-16266476D01*
X12478190Y-16066476D02*
X12497238Y-16066476D01*
X12516286Y-16076000D01*
X12525809Y-16085524D01*
X12535333Y-16104571D01*
X12544857Y-16142667D01*
X12544857Y-16190286D01*
X12535333Y-16228381D01*
X12525809Y-16247428D01*
X12516286Y-16256952D01*
X12497238Y-16266476D01*
X12478190Y-16266476D01*
X12459143Y-16256952D01*
X12449619Y-16247428D01*
X12440095Y-16228381D01*
X12430571Y-16190286D01*
X12430571Y-16142667D01*
X12440095Y-16104571D01*
X12449619Y-16085524D01*
X12459143Y-16076000D01*
X12478190Y-16066476D01*
X12611524Y-16066476D02*
X12735333Y-16066476D01*
X12668667Y-16142667D01*
X12697238Y-16142667D01*
X12716286Y-16152190D01*
X12725809Y-16161714D01*
X12735333Y-16180762D01*
X12735333Y-16228381D01*
X12725809Y-16247428D01*
X12716286Y-16256952D01*
X12697238Y-16266476D01*
X12640095Y-16266476D01*
X12621048Y-16256952D01*
X12611524Y-16247428D01*
X12830571Y-16266476D02*
X12868667Y-16266476D01*
X12887714Y-16256952D01*
X12897238Y-16247428D01*
X12916286Y-16218857D01*
X12925809Y-16180762D01*
X12925809Y-16104571D01*
X12916286Y-16085524D01*
X12906762Y-16076000D01*
X12887714Y-16066476D01*
X12849619Y-16066476D01*
X12830571Y-16076000D01*
X12821048Y-16085524D01*
X12811524Y-16104571D01*
X12811524Y-16152190D01*
X12821048Y-16171238D01*
X12830571Y-16180762D01*
X12849619Y-16190286D01*
X12887714Y-16190286D01*
X12906762Y-16180762D01*
X12916286Y-16171238D01*
X12925809Y-16152190D01*
X13097238Y-16133143D02*
X13097238Y-16266476D01*
X13049619Y-16056952D02*
X13002000Y-16199809D01*
X13125809Y-16199809D01*
X13192476Y-16066476D02*
X13192476Y-16104571D01*
X13268667Y-16066476D02*
X13268667Y-16104571D01*
X13563905Y-16342667D02*
X13554381Y-16333143D01*
X13535333Y-16304571D01*
X13525809Y-16285524D01*
X13516286Y-16256952D01*
X13506762Y-16209333D01*
X13506762Y-16171238D01*
X13516286Y-16123619D01*
X13525809Y-16095048D01*
X13535333Y-16076000D01*
X13554381Y-16047428D01*
X13563905Y-16037905D01*
X13744857Y-16266476D02*
X13630571Y-16266476D01*
X13687714Y-16266476D02*
X13687714Y-16066476D01*
X13668667Y-16095048D01*
X13649619Y-16114095D01*
X13630571Y-16123619D01*
X13982952Y-16266476D02*
X13982952Y-16066476D01*
X14068667Y-16266476D02*
X14068667Y-16161714D01*
X14059143Y-16142667D01*
X14040095Y-16133143D01*
X14011524Y-16133143D01*
X13992476Y-16142667D01*
X13982952Y-16152190D01*
X14192476Y-16266476D02*
X14173428Y-16256952D01*
X14163905Y-16247428D01*
X14154381Y-16228381D01*
X14154381Y-16171238D01*
X14163905Y-16152190D01*
X14173428Y-16142667D01*
X14192476Y-16133143D01*
X14221048Y-16133143D01*
X14240095Y-16142667D01*
X14249619Y-16152190D01*
X14259143Y-16171238D01*
X14259143Y-16228381D01*
X14249619Y-16247428D01*
X14240095Y-16256952D01*
X14221048Y-16266476D01*
X14192476Y-16266476D01*
X14373428Y-16266476D02*
X14354381Y-16256952D01*
X14344857Y-16237905D01*
X14344857Y-16066476D01*
X14525809Y-16256952D02*
X14506762Y-16266476D01*
X14468667Y-16266476D01*
X14449619Y-16256952D01*
X14440095Y-16237905D01*
X14440095Y-16161714D01*
X14449619Y-16142667D01*
X14468667Y-16133143D01*
X14506762Y-16133143D01*
X14525809Y-16142667D01*
X14535333Y-16161714D01*
X14535333Y-16180762D01*
X14440095Y-16199809D01*
X14602000Y-16342667D02*
X14611524Y-16333143D01*
X14630571Y-16304571D01*
X14640095Y-16285524D01*
X14649619Y-16256952D01*
X14659143Y-16209333D01*
X14659143Y-16171238D01*
X14649619Y-16123619D01*
X14640095Y-16095048D01*
X14630571Y-16076000D01*
X14611524Y-16047428D01*
X14602000Y-16037905D01*
D15*
X9977121Y-16475921D02*
X9977121Y-16404079D01*
X9905279Y-16404079D01*
X9905279Y-16475921D01*
X9977121Y-16475921D01*
D11*
X10354381Y-16530476D02*
X10240095Y-16530476D01*
X10297238Y-16530476D02*
X10297238Y-16330476D01*
X10278190Y-16359048D01*
X10259143Y-16378095D01*
X10240095Y-16387619D01*
X10440095Y-16511428D02*
X10449619Y-16520952D01*
X10440095Y-16530476D01*
X10430571Y-16520952D01*
X10440095Y-16511428D01*
X10440095Y-16530476D01*
X10573429Y-16330476D02*
X10592476Y-16330476D01*
X10611524Y-16340000D01*
X10621048Y-16349524D01*
X10630571Y-16368571D01*
X10640095Y-16406667D01*
X10640095Y-16454286D01*
X10630571Y-16492381D01*
X10621048Y-16511428D01*
X10611524Y-16520952D01*
X10592476Y-16530476D01*
X10573429Y-16530476D01*
X10554381Y-16520952D01*
X10544857Y-16511428D01*
X10535333Y-16492381D01*
X10525810Y-16454286D01*
X10525810Y-16406667D01*
X10535333Y-16368571D01*
X10544857Y-16349524D01*
X10554381Y-16340000D01*
X10573429Y-16330476D01*
X10830571Y-16530476D02*
X10716286Y-16530476D01*
X10773429Y-16530476D02*
X10773429Y-16330476D01*
X10754381Y-16359048D01*
X10735333Y-16378095D01*
X10716286Y-16387619D01*
X11002000Y-16330476D02*
X10963905Y-16330476D01*
X10944857Y-16340000D01*
X10935333Y-16349524D01*
X10916286Y-16378095D01*
X10906762Y-16416190D01*
X10906762Y-16492381D01*
X10916286Y-16511428D01*
X10925810Y-16520952D01*
X10944857Y-16530476D01*
X10982952Y-16530476D01*
X11002000Y-16520952D01*
X11011524Y-16511428D01*
X11021048Y-16492381D01*
X11021048Y-16444762D01*
X11011524Y-16425714D01*
X11002000Y-16416190D01*
X10982952Y-16406667D01*
X10944857Y-16406667D01*
X10925810Y-16416190D01*
X10916286Y-16425714D01*
X10906762Y-16444762D01*
X11106762Y-16530476D02*
X11106762Y-16397143D01*
X11106762Y-16416190D02*
X11116286Y-16406667D01*
X11135333Y-16397143D01*
X11163905Y-16397143D01*
X11182952Y-16406667D01*
X11192476Y-16425714D01*
X11192476Y-16530476D01*
X11192476Y-16425714D02*
X11202000Y-16406667D01*
X11221048Y-16397143D01*
X11249619Y-16397143D01*
X11268667Y-16406667D01*
X11278190Y-16425714D01*
X11278190Y-16530476D01*
X11373428Y-16530476D02*
X11373428Y-16397143D01*
X11373428Y-16416190D02*
X11382952Y-16406667D01*
X11402000Y-16397143D01*
X11430571Y-16397143D01*
X11449619Y-16406667D01*
X11459143Y-16425714D01*
X11459143Y-16530476D01*
X11459143Y-16425714D02*
X11468667Y-16406667D01*
X11487714Y-16397143D01*
X11516286Y-16397143D01*
X11535333Y-16406667D01*
X11544857Y-16425714D01*
X11544857Y-16530476D01*
X11935333Y-16320952D02*
X11763905Y-16578095D01*
X12192476Y-16330476D02*
X12211524Y-16330476D01*
X12230571Y-16340000D01*
X12240095Y-16349524D01*
X12249619Y-16368571D01*
X12259143Y-16406667D01*
X12259143Y-16454286D01*
X12249619Y-16492381D01*
X12240095Y-16511428D01*
X12230571Y-16520952D01*
X12211524Y-16530476D01*
X12192476Y-16530476D01*
X12173428Y-16520952D01*
X12163905Y-16511428D01*
X12154381Y-16492381D01*
X12144857Y-16454286D01*
X12144857Y-16406667D01*
X12154381Y-16368571D01*
X12163905Y-16349524D01*
X12173428Y-16340000D01*
X12192476Y-16330476D01*
X12344857Y-16511428D02*
X12354381Y-16520952D01*
X12344857Y-16530476D01*
X12335333Y-16520952D01*
X12344857Y-16511428D01*
X12344857Y-16530476D01*
X12478190Y-16330476D02*
X12497238Y-16330476D01*
X12516286Y-16340000D01*
X12525809Y-16349524D01*
X12535333Y-16368571D01*
X12544857Y-16406667D01*
X12544857Y-16454286D01*
X12535333Y-16492381D01*
X12525809Y-16511428D01*
X12516286Y-16520952D01*
X12497238Y-16530476D01*
X12478190Y-16530476D01*
X12459143Y-16520952D01*
X12449619Y-16511428D01*
X12440095Y-16492381D01*
X12430571Y-16454286D01*
X12430571Y-16406667D01*
X12440095Y-16368571D01*
X12449619Y-16349524D01*
X12459143Y-16340000D01*
X12478190Y-16330476D01*
X12716286Y-16397143D02*
X12716286Y-16530476D01*
X12668667Y-16320952D02*
X12621048Y-16463809D01*
X12744857Y-16463809D01*
X12859143Y-16330476D02*
X12878190Y-16330476D01*
X12897238Y-16340000D01*
X12906762Y-16349524D01*
X12916286Y-16368571D01*
X12925809Y-16406667D01*
X12925809Y-16454286D01*
X12916286Y-16492381D01*
X12906762Y-16511428D01*
X12897238Y-16520952D01*
X12878190Y-16530476D01*
X12859143Y-16530476D01*
X12840095Y-16520952D01*
X12830571Y-16511428D01*
X12821048Y-16492381D01*
X12811524Y-16454286D01*
X12811524Y-16406667D01*
X12821048Y-16368571D01*
X12830571Y-16349524D01*
X12840095Y-16340000D01*
X12859143Y-16330476D01*
X13049619Y-16330476D02*
X13068667Y-16330476D01*
X13087714Y-16340000D01*
X13097238Y-16349524D01*
X13106762Y-16368571D01*
X13116286Y-16406667D01*
X13116286Y-16454286D01*
X13106762Y-16492381D01*
X13097238Y-16511428D01*
X13087714Y-16520952D01*
X13068667Y-16530476D01*
X13049619Y-16530476D01*
X13030571Y-16520952D01*
X13021048Y-16511428D01*
X13011524Y-16492381D01*
X13002000Y-16454286D01*
X13002000Y-16406667D01*
X13011524Y-16368571D01*
X13021048Y-16349524D01*
X13030571Y-16340000D01*
X13049619Y-16330476D01*
X13192476Y-16330476D02*
X13192476Y-16368571D01*
X13268667Y-16330476D02*
X13268667Y-16368571D01*
X13563905Y-16606667D02*
X13554381Y-16597143D01*
X13535333Y-16568571D01*
X13525809Y-16549524D01*
X13516286Y-16520952D01*
X13506762Y-16473333D01*
X13506762Y-16435238D01*
X13516286Y-16387619D01*
X13525809Y-16359048D01*
X13535333Y-16340000D01*
X13554381Y-16311428D01*
X13563905Y-16301905D01*
X13725809Y-16397143D02*
X13725809Y-16530476D01*
X13678190Y-16320952D02*
X13630571Y-16463809D01*
X13754381Y-16463809D01*
X13868667Y-16330476D02*
X13887714Y-16330476D01*
X13906762Y-16340000D01*
X13916286Y-16349524D01*
X13925809Y-16368571D01*
X13935333Y-16406667D01*
X13935333Y-16454286D01*
X13925809Y-16492381D01*
X13916286Y-16511428D01*
X13906762Y-16520952D01*
X13887714Y-16530476D01*
X13868667Y-16530476D01*
X13849619Y-16520952D01*
X13840095Y-16511428D01*
X13830571Y-16492381D01*
X13821048Y-16454286D01*
X13821048Y-16406667D01*
X13830571Y-16368571D01*
X13840095Y-16349524D01*
X13849619Y-16340000D01*
X13868667Y-16330476D01*
X14173428Y-16530476D02*
X14173428Y-16330476D01*
X14259143Y-16530476D02*
X14259143Y-16425714D01*
X14249619Y-16406667D01*
X14230571Y-16397143D01*
X14202000Y-16397143D01*
X14182952Y-16406667D01*
X14173428Y-16416190D01*
X14382952Y-16530476D02*
X14363905Y-16520952D01*
X14354381Y-16511428D01*
X14344857Y-16492381D01*
X14344857Y-16435238D01*
X14354381Y-16416190D01*
X14363905Y-16406667D01*
X14382952Y-16397143D01*
X14411524Y-16397143D01*
X14430571Y-16406667D01*
X14440095Y-16416190D01*
X14449619Y-16435238D01*
X14449619Y-16492381D01*
X14440095Y-16511428D01*
X14430571Y-16520952D01*
X14411524Y-16530476D01*
X14382952Y-16530476D01*
X14563905Y-16530476D02*
X14544857Y-16520952D01*
X14535333Y-16501905D01*
X14535333Y-16330476D01*
X14716286Y-16520952D02*
X14697238Y-16530476D01*
X14659143Y-16530476D01*
X14640095Y-16520952D01*
X14630571Y-16501905D01*
X14630571Y-16425714D01*
X14640095Y-16406667D01*
X14659143Y-16397143D01*
X14697238Y-16397143D01*
X14716286Y-16406667D01*
X14725809Y-16425714D01*
X14725809Y-16444762D01*
X14630571Y-16463809D01*
X14802000Y-16520952D02*
X14821048Y-16530476D01*
X14859143Y-16530476D01*
X14878190Y-16520952D01*
X14887714Y-16501905D01*
X14887714Y-16492381D01*
X14878190Y-16473333D01*
X14859143Y-16463809D01*
X14830571Y-16463809D01*
X14811524Y-16454286D01*
X14802000Y-16435238D01*
X14802000Y-16425714D01*
X14811524Y-16406667D01*
X14830571Y-16397143D01*
X14859143Y-16397143D01*
X14878190Y-16406667D01*
X14954381Y-16606667D02*
X14963905Y-16597143D01*
X14982952Y-16568571D01*
X14992476Y-16549524D01*
X15002000Y-16520952D01*
X15011524Y-16473333D01*
X15011524Y-16435238D01*
X15002000Y-16387619D01*
X14992476Y-16359048D01*
X14982952Y-16340000D01*
X14963905Y-16311428D01*
X14954381Y-16301905D01*
D16*
X9928000Y-16768000D02*
X9992000Y-16704000D01*
X9928000Y-16640000D01*
X9864000Y-16704000D01*
X9928000Y-16768000D01*
D11*
X10354381Y-16794476D02*
X10240095Y-16794476D01*
X10297238Y-16794476D02*
X10297238Y-16594476D01*
X10278190Y-16623048D01*
X10259143Y-16642095D01*
X10240095Y-16651619D01*
X10440095Y-16775428D02*
X10449619Y-16784952D01*
X10440095Y-16794476D01*
X10430571Y-16784952D01*
X10440095Y-16775428D01*
X10440095Y-16794476D01*
X10525810Y-16613524D02*
X10535333Y-16604000D01*
X10554381Y-16594476D01*
X10602000Y-16594476D01*
X10621048Y-16604000D01*
X10630571Y-16613524D01*
X10640095Y-16632571D01*
X10640095Y-16651619D01*
X10630571Y-16680190D01*
X10516286Y-16794476D01*
X10640095Y-16794476D01*
X10754381Y-16680190D02*
X10735333Y-16670667D01*
X10725810Y-16661143D01*
X10716286Y-16642095D01*
X10716286Y-16632571D01*
X10725810Y-16613524D01*
X10735333Y-16604000D01*
X10754381Y-16594476D01*
X10792476Y-16594476D01*
X10811524Y-16604000D01*
X10821048Y-16613524D01*
X10830571Y-16632571D01*
X10830571Y-16642095D01*
X10821048Y-16661143D01*
X10811524Y-16670667D01*
X10792476Y-16680190D01*
X10754381Y-16680190D01*
X10735333Y-16689714D01*
X10725810Y-16699238D01*
X10716286Y-16718286D01*
X10716286Y-16756381D01*
X10725810Y-16775428D01*
X10735333Y-16784952D01*
X10754381Y-16794476D01*
X10792476Y-16794476D01*
X10811524Y-16784952D01*
X10821048Y-16775428D01*
X10830571Y-16756381D01*
X10830571Y-16718286D01*
X10821048Y-16699238D01*
X10811524Y-16689714D01*
X10792476Y-16680190D01*
X10954381Y-16594476D02*
X10973429Y-16594476D01*
X10992476Y-16604000D01*
X11002000Y-16613524D01*
X11011524Y-16632571D01*
X11021048Y-16670667D01*
X11021048Y-16718286D01*
X11011524Y-16756381D01*
X11002000Y-16775428D01*
X10992476Y-16784952D01*
X10973429Y-16794476D01*
X10954381Y-16794476D01*
X10935333Y-16784952D01*
X10925810Y-16775428D01*
X10916286Y-16756381D01*
X10906762Y-16718286D01*
X10906762Y-16670667D01*
X10916286Y-16632571D01*
X10925810Y-16613524D01*
X10935333Y-16604000D01*
X10954381Y-16594476D01*
X11106762Y-16794476D02*
X11106762Y-16661143D01*
X11106762Y-16680190D02*
X11116286Y-16670667D01*
X11135333Y-16661143D01*
X11163905Y-16661143D01*
X11182952Y-16670667D01*
X11192476Y-16689714D01*
X11192476Y-16794476D01*
X11192476Y-16689714D02*
X11202000Y-16670667D01*
X11221048Y-16661143D01*
X11249619Y-16661143D01*
X11268667Y-16670667D01*
X11278190Y-16689714D01*
X11278190Y-16794476D01*
X11373428Y-16794476D02*
X11373428Y-16661143D01*
X11373428Y-16680190D02*
X11382952Y-16670667D01*
X11402000Y-16661143D01*
X11430571Y-16661143D01*
X11449619Y-16670667D01*
X11459143Y-16689714D01*
X11459143Y-16794476D01*
X11459143Y-16689714D02*
X11468667Y-16670667D01*
X11487714Y-16661143D01*
X11516286Y-16661143D01*
X11535333Y-16670667D01*
X11544857Y-16689714D01*
X11544857Y-16794476D01*
X11935333Y-16584952D02*
X11763905Y-16842095D01*
X12192476Y-16594476D02*
X12211524Y-16594476D01*
X12230571Y-16604000D01*
X12240095Y-16613524D01*
X12249619Y-16632571D01*
X12259143Y-16670667D01*
X12259143Y-16718286D01*
X12249619Y-16756381D01*
X12240095Y-16775428D01*
X12230571Y-16784952D01*
X12211524Y-16794476D01*
X12192476Y-16794476D01*
X12173428Y-16784952D01*
X12163905Y-16775428D01*
X12154381Y-16756381D01*
X12144857Y-16718286D01*
X12144857Y-16670667D01*
X12154381Y-16632571D01*
X12163905Y-16613524D01*
X12173428Y-16604000D01*
X12192476Y-16594476D01*
X12344857Y-16775428D02*
X12354381Y-16784952D01*
X12344857Y-16794476D01*
X12335333Y-16784952D01*
X12344857Y-16775428D01*
X12344857Y-16794476D01*
X12478190Y-16594476D02*
X12497238Y-16594476D01*
X12516286Y-16604000D01*
X12525809Y-16613524D01*
X12535333Y-16632571D01*
X12544857Y-16670667D01*
X12544857Y-16718286D01*
X12535333Y-16756381D01*
X12525809Y-16775428D01*
X12516286Y-16784952D01*
X12497238Y-16794476D01*
X12478190Y-16794476D01*
X12459143Y-16784952D01*
X12449619Y-16775428D01*
X12440095Y-16756381D01*
X12430571Y-16718286D01*
X12430571Y-16670667D01*
X12440095Y-16632571D01*
X12449619Y-16613524D01*
X12459143Y-16604000D01*
X12478190Y-16594476D01*
X12725809Y-16594476D02*
X12630571Y-16594476D01*
X12621048Y-16689714D01*
X12630571Y-16680190D01*
X12649619Y-16670667D01*
X12697238Y-16670667D01*
X12716286Y-16680190D01*
X12725809Y-16689714D01*
X12735333Y-16708762D01*
X12735333Y-16756381D01*
X12725809Y-16775428D01*
X12716286Y-16784952D01*
X12697238Y-16794476D01*
X12649619Y-16794476D01*
X12630571Y-16784952D01*
X12621048Y-16775428D01*
X12859143Y-16594476D02*
X12878190Y-16594476D01*
X12897238Y-16604000D01*
X12906762Y-16613524D01*
X12916286Y-16632571D01*
X12925809Y-16670667D01*
X12925809Y-16718286D01*
X12916286Y-16756381D01*
X12906762Y-16775428D01*
X12897238Y-16784952D01*
X12878190Y-16794476D01*
X12859143Y-16794476D01*
X12840095Y-16784952D01*
X12830571Y-16775428D01*
X12821048Y-16756381D01*
X12811524Y-16718286D01*
X12811524Y-16670667D01*
X12821048Y-16632571D01*
X12830571Y-16613524D01*
X12840095Y-16604000D01*
X12859143Y-16594476D01*
X13097238Y-16661143D02*
X13097238Y-16794476D01*
X13049619Y-16584952D02*
X13002000Y-16727809D01*
X13125809Y-16727809D01*
X13192476Y-16594476D02*
X13192476Y-16632571D01*
X13268667Y-16594476D02*
X13268667Y-16632571D01*
X13563905Y-16870667D02*
X13554381Y-16861143D01*
X13535333Y-16832571D01*
X13525809Y-16813524D01*
X13516286Y-16784952D01*
X13506762Y-16737333D01*
X13506762Y-16699238D01*
X13516286Y-16651619D01*
X13525809Y-16623048D01*
X13535333Y-16604000D01*
X13554381Y-16575428D01*
X13563905Y-16565905D01*
X13725809Y-16661143D02*
X13725809Y-16794476D01*
X13678190Y-16584952D02*
X13630571Y-16727809D01*
X13754381Y-16727809D01*
X13982952Y-16794476D02*
X13982952Y-16594476D01*
X14068667Y-16794476D02*
X14068667Y-16689714D01*
X14059143Y-16670667D01*
X14040095Y-16661143D01*
X14011524Y-16661143D01*
X13992476Y-16670667D01*
X13982952Y-16680190D01*
X14192476Y-16794476D02*
X14173428Y-16784952D01*
X14163905Y-16775428D01*
X14154381Y-16756381D01*
X14154381Y-16699238D01*
X14163905Y-16680190D01*
X14173428Y-16670667D01*
X14192476Y-16661143D01*
X14221048Y-16661143D01*
X14240095Y-16670667D01*
X14249619Y-16680190D01*
X14259143Y-16699238D01*
X14259143Y-16756381D01*
X14249619Y-16775428D01*
X14240095Y-16784952D01*
X14221048Y-16794476D01*
X14192476Y-16794476D01*
X14373428Y-16794476D02*
X14354381Y-16784952D01*
X14344857Y-16765905D01*
X14344857Y-16594476D01*
X14525809Y-16784952D02*
X14506762Y-16794476D01*
X14468667Y-16794476D01*
X14449619Y-16784952D01*
X14440095Y-16765905D01*
X14440095Y-16689714D01*
X14449619Y-16670667D01*
X14468667Y-16661143D01*
X14506762Y-16661143D01*
X14525809Y-16670667D01*
X14535333Y-16689714D01*
X14535333Y-16708762D01*
X14440095Y-16727809D01*
X14611524Y-16784952D02*
X14630571Y-16794476D01*
X14668667Y-16794476D01*
X14687714Y-16784952D01*
X14697238Y-16765905D01*
X14697238Y-16756381D01*
X14687714Y-16737333D01*
X14668667Y-16727809D01*
X14640095Y-16727809D01*
X14621048Y-16718286D01*
X14611524Y-16699238D01*
X14611524Y-16689714D01*
X14621048Y-16670667D01*
X14640095Y-16661143D01*
X14668667Y-16661143D01*
X14687714Y-16670667D01*
X14763905Y-16870667D02*
X14773428Y-16861143D01*
X14792476Y-16832571D01*
X14802000Y-16813524D01*
X14811524Y-16784952D01*
X14821048Y-16737333D01*
X14821048Y-16699238D01*
X14811524Y-16651619D01*
X14802000Y-16623048D01*
X14792476Y-16604000D01*
X14773428Y-16575428D01*
X14763905Y-16565905D01*
D17*
X9807000Y-16875500D02*
X9992000Y-17060500D01*
X9992000Y-16875500D02*
X9807000Y-17060500D01*
X9992000Y-16968000D02*
G75*
G03*
X9992000Y-16968000I-92500J0D01*
G01*
D11*
X10354381Y-17058476D02*
X10240095Y-17058476D01*
X10297238Y-17058476D02*
X10297238Y-16858476D01*
X10278190Y-16887048D01*
X10259143Y-16906095D01*
X10240095Y-16915619D01*
X10440095Y-17039429D02*
X10449619Y-17048952D01*
X10440095Y-17058476D01*
X10430571Y-17048952D01*
X10440095Y-17039429D01*
X10440095Y-17058476D01*
X10563905Y-16944190D02*
X10544857Y-16934667D01*
X10535333Y-16925143D01*
X10525810Y-16906095D01*
X10525810Y-16896571D01*
X10535333Y-16877524D01*
X10544857Y-16868000D01*
X10563905Y-16858476D01*
X10602000Y-16858476D01*
X10621048Y-16868000D01*
X10630571Y-16877524D01*
X10640095Y-16896571D01*
X10640095Y-16906095D01*
X10630571Y-16925143D01*
X10621048Y-16934667D01*
X10602000Y-16944190D01*
X10563905Y-16944190D01*
X10544857Y-16953714D01*
X10535333Y-16963238D01*
X10525810Y-16982286D01*
X10525810Y-17020381D01*
X10535333Y-17039429D01*
X10544857Y-17048952D01*
X10563905Y-17058476D01*
X10602000Y-17058476D01*
X10621048Y-17048952D01*
X10630571Y-17039429D01*
X10640095Y-17020381D01*
X10640095Y-16982286D01*
X10630571Y-16963238D01*
X10621048Y-16953714D01*
X10602000Y-16944190D01*
X10821048Y-16858476D02*
X10725810Y-16858476D01*
X10716286Y-16953714D01*
X10725810Y-16944190D01*
X10744857Y-16934667D01*
X10792476Y-16934667D01*
X10811524Y-16944190D01*
X10821048Y-16953714D01*
X10830571Y-16972762D01*
X10830571Y-17020381D01*
X10821048Y-17039429D01*
X10811524Y-17048952D01*
X10792476Y-17058476D01*
X10744857Y-17058476D01*
X10725810Y-17048952D01*
X10716286Y-17039429D01*
X10954381Y-16858476D02*
X10973429Y-16858476D01*
X10992476Y-16868000D01*
X11002000Y-16877524D01*
X11011524Y-16896571D01*
X11021048Y-16934667D01*
X11021048Y-16982286D01*
X11011524Y-17020381D01*
X11002000Y-17039429D01*
X10992476Y-17048952D01*
X10973429Y-17058476D01*
X10954381Y-17058476D01*
X10935333Y-17048952D01*
X10925810Y-17039429D01*
X10916286Y-17020381D01*
X10906762Y-16982286D01*
X10906762Y-16934667D01*
X10916286Y-16896571D01*
X10925810Y-16877524D01*
X10935333Y-16868000D01*
X10954381Y-16858476D01*
X11106762Y-17058476D02*
X11106762Y-16925143D01*
X11106762Y-16944190D02*
X11116286Y-16934667D01*
X11135333Y-16925143D01*
X11163905Y-16925143D01*
X11182952Y-16934667D01*
X11192476Y-16953714D01*
X11192476Y-17058476D01*
X11192476Y-16953714D02*
X11202000Y-16934667D01*
X11221048Y-16925143D01*
X11249619Y-16925143D01*
X11268667Y-16934667D01*
X11278190Y-16953714D01*
X11278190Y-17058476D01*
X11373428Y-17058476D02*
X11373428Y-16925143D01*
X11373428Y-16944190D02*
X11382952Y-16934667D01*
X11402000Y-16925143D01*
X11430571Y-16925143D01*
X11449619Y-16934667D01*
X11459143Y-16953714D01*
X11459143Y-17058476D01*
X11459143Y-16953714D02*
X11468667Y-16934667D01*
X11487714Y-16925143D01*
X11516286Y-16925143D01*
X11535333Y-16934667D01*
X11544857Y-16953714D01*
X11544857Y-17058476D01*
X11935333Y-16848952D02*
X11763905Y-17106095D01*
X12192476Y-16858476D02*
X12211524Y-16858476D01*
X12230571Y-16868000D01*
X12240095Y-16877524D01*
X12249619Y-16896571D01*
X12259143Y-16934667D01*
X12259143Y-16982286D01*
X12249619Y-17020381D01*
X12240095Y-17039429D01*
X12230571Y-17048952D01*
X12211524Y-17058476D01*
X12192476Y-17058476D01*
X12173428Y-17048952D01*
X12163905Y-17039429D01*
X12154381Y-17020381D01*
X12144857Y-16982286D01*
X12144857Y-16934667D01*
X12154381Y-16896571D01*
X12163905Y-16877524D01*
X12173428Y-16868000D01*
X12192476Y-16858476D01*
X12344857Y-17039429D02*
X12354381Y-17048952D01*
X12344857Y-17058476D01*
X12335333Y-17048952D01*
X12344857Y-17039429D01*
X12344857Y-17058476D01*
X12478190Y-16858476D02*
X12497238Y-16858476D01*
X12516286Y-16868000D01*
X12525809Y-16877524D01*
X12535333Y-16896571D01*
X12544857Y-16934667D01*
X12544857Y-16982286D01*
X12535333Y-17020381D01*
X12525809Y-17039429D01*
X12516286Y-17048952D01*
X12497238Y-17058476D01*
X12478190Y-17058476D01*
X12459143Y-17048952D01*
X12449619Y-17039429D01*
X12440095Y-17020381D01*
X12430571Y-16982286D01*
X12430571Y-16934667D01*
X12440095Y-16896571D01*
X12449619Y-16877524D01*
X12459143Y-16868000D01*
X12478190Y-16858476D01*
X12611524Y-16858476D02*
X12744857Y-16858476D01*
X12659143Y-17058476D01*
X12811524Y-16877524D02*
X12821048Y-16868000D01*
X12840095Y-16858476D01*
X12887714Y-16858476D01*
X12906762Y-16868000D01*
X12916286Y-16877524D01*
X12925809Y-16896571D01*
X12925809Y-16915619D01*
X12916286Y-16944190D01*
X12802000Y-17058476D01*
X12925809Y-17058476D01*
X13040095Y-16944190D02*
X13021048Y-16934667D01*
X13011524Y-16925143D01*
X13002000Y-16906095D01*
X13002000Y-16896571D01*
X13011524Y-16877524D01*
X13021048Y-16868000D01*
X13040095Y-16858476D01*
X13078190Y-16858476D01*
X13097238Y-16868000D01*
X13106762Y-16877524D01*
X13116286Y-16896571D01*
X13116286Y-16906095D01*
X13106762Y-16925143D01*
X13097238Y-16934667D01*
X13078190Y-16944190D01*
X13040095Y-16944190D01*
X13021048Y-16953714D01*
X13011524Y-16963238D01*
X13002000Y-16982286D01*
X13002000Y-17020381D01*
X13011524Y-17039429D01*
X13021048Y-17048952D01*
X13040095Y-17058476D01*
X13078190Y-17058476D01*
X13097238Y-17048952D01*
X13106762Y-17039429D01*
X13116286Y-17020381D01*
X13116286Y-16982286D01*
X13106762Y-16963238D01*
X13097238Y-16953714D01*
X13078190Y-16944190D01*
X13192476Y-16858476D02*
X13192476Y-16896571D01*
X13268667Y-16858476D02*
X13268667Y-16896571D01*
X13563905Y-17134667D02*
X13554381Y-17125143D01*
X13535333Y-17096571D01*
X13525809Y-17077524D01*
X13516286Y-17048952D01*
X13506762Y-17001333D01*
X13506762Y-16963238D01*
X13516286Y-16915619D01*
X13525809Y-16887048D01*
X13535333Y-16868000D01*
X13554381Y-16839429D01*
X13563905Y-16829905D01*
X13621048Y-16858476D02*
X13744857Y-16858476D01*
X13678190Y-16934667D01*
X13706762Y-16934667D01*
X13725809Y-16944190D01*
X13735333Y-16953714D01*
X13744857Y-16972762D01*
X13744857Y-17020381D01*
X13735333Y-17039429D01*
X13725809Y-17048952D01*
X13706762Y-17058476D01*
X13649619Y-17058476D01*
X13630571Y-17048952D01*
X13621048Y-17039429D01*
X13982952Y-17058476D02*
X13982952Y-16858476D01*
X14068667Y-17058476D02*
X14068667Y-16953714D01*
X14059143Y-16934667D01*
X14040095Y-16925143D01*
X14011524Y-16925143D01*
X13992476Y-16934667D01*
X13982952Y-16944190D01*
X14192476Y-17058476D02*
X14173428Y-17048952D01*
X14163905Y-17039429D01*
X14154381Y-17020381D01*
X14154381Y-16963238D01*
X14163905Y-16944190D01*
X14173428Y-16934667D01*
X14192476Y-16925143D01*
X14221048Y-16925143D01*
X14240095Y-16934667D01*
X14249619Y-16944190D01*
X14259143Y-16963238D01*
X14259143Y-17020381D01*
X14249619Y-17039429D01*
X14240095Y-17048952D01*
X14221048Y-17058476D01*
X14192476Y-17058476D01*
X14373428Y-17058476D02*
X14354381Y-17048952D01*
X14344857Y-17029905D01*
X14344857Y-16858476D01*
X14525809Y-17048952D02*
X14506762Y-17058476D01*
X14468667Y-17058476D01*
X14449619Y-17048952D01*
X14440095Y-17029905D01*
X14440095Y-16953714D01*
X14449619Y-16934667D01*
X14468667Y-16925143D01*
X14506762Y-16925143D01*
X14525809Y-16934667D01*
X14535333Y-16953714D01*
X14535333Y-16972762D01*
X14440095Y-16991810D01*
X14611524Y-17048952D02*
X14630571Y-17058476D01*
X14668667Y-17058476D01*
X14687714Y-17048952D01*
X14697238Y-17029905D01*
X14697238Y-17020381D01*
X14687714Y-17001333D01*
X14668667Y-16991810D01*
X14640095Y-16991810D01*
X14621048Y-16982286D01*
X14611524Y-16963238D01*
X14611524Y-16953714D01*
X14621048Y-16934667D01*
X14640095Y-16925143D01*
X14668667Y-16925143D01*
X14687714Y-16934667D01*
X14763905Y-17134667D02*
X14773428Y-17125143D01*
X14792476Y-17096571D01*
X14802000Y-17077524D01*
X14811524Y-17048952D01*
X14821048Y-17001333D01*
X14821048Y-16963238D01*
X14811524Y-16915619D01*
X14802000Y-16887048D01*
X14792476Y-16868000D01*
X14773428Y-16839429D01*
X14763905Y-16829905D01*
X9792000Y-17173000D02*
X9992000Y-17373000D01*
X9992000Y-17173000D02*
X9792000Y-17373000D01*
X9892000Y-17173000D02*
X9892000Y-17373000D01*
X9792000Y-17273000D02*
X9992000Y-17273000D01*
X10240095Y-17182524D02*
X10249619Y-17173000D01*
X10268667Y-17163476D01*
X10316286Y-17163476D01*
X10335333Y-17173000D01*
X10344857Y-17182524D01*
X10354381Y-17201571D01*
X10354381Y-17220619D01*
X10344857Y-17249190D01*
X10230571Y-17363476D01*
X10354381Y-17363476D01*
X10440095Y-17344429D02*
X10449619Y-17353952D01*
X10440095Y-17363476D01*
X10430571Y-17353952D01*
X10440095Y-17344429D01*
X10440095Y-17363476D01*
X10630571Y-17163476D02*
X10535333Y-17163476D01*
X10525810Y-17258714D01*
X10535333Y-17249190D01*
X10554381Y-17239667D01*
X10602000Y-17239667D01*
X10621048Y-17249190D01*
X10630571Y-17258714D01*
X10640095Y-17277762D01*
X10640095Y-17325381D01*
X10630571Y-17344429D01*
X10621048Y-17353952D01*
X10602000Y-17363476D01*
X10554381Y-17363476D01*
X10535333Y-17353952D01*
X10525810Y-17344429D01*
X10763905Y-17163476D02*
X10782952Y-17163476D01*
X10802000Y-17173000D01*
X10811524Y-17182524D01*
X10821048Y-17201571D01*
X10830571Y-17239667D01*
X10830571Y-17287286D01*
X10821048Y-17325381D01*
X10811524Y-17344429D01*
X10802000Y-17353952D01*
X10782952Y-17363476D01*
X10763905Y-17363476D01*
X10744857Y-17353952D01*
X10735333Y-17344429D01*
X10725810Y-17325381D01*
X10716286Y-17287286D01*
X10716286Y-17239667D01*
X10725810Y-17201571D01*
X10735333Y-17182524D01*
X10744857Y-17173000D01*
X10763905Y-17163476D01*
X10954381Y-17163476D02*
X10973429Y-17163476D01*
X10992476Y-17173000D01*
X11002000Y-17182524D01*
X11011524Y-17201571D01*
X11021048Y-17239667D01*
X11021048Y-17287286D01*
X11011524Y-17325381D01*
X11002000Y-17344429D01*
X10992476Y-17353952D01*
X10973429Y-17363476D01*
X10954381Y-17363476D01*
X10935333Y-17353952D01*
X10925810Y-17344429D01*
X10916286Y-17325381D01*
X10906762Y-17287286D01*
X10906762Y-17239667D01*
X10916286Y-17201571D01*
X10925810Y-17182524D01*
X10935333Y-17173000D01*
X10954381Y-17163476D01*
X11106762Y-17363476D02*
X11106762Y-17230143D01*
X11106762Y-17249190D02*
X11116286Y-17239667D01*
X11135333Y-17230143D01*
X11163905Y-17230143D01*
X11182952Y-17239667D01*
X11192476Y-17258714D01*
X11192476Y-17363476D01*
X11192476Y-17258714D02*
X11202000Y-17239667D01*
X11221048Y-17230143D01*
X11249619Y-17230143D01*
X11268667Y-17239667D01*
X11278190Y-17258714D01*
X11278190Y-17363476D01*
X11373428Y-17363476D02*
X11373428Y-17230143D01*
X11373428Y-17249190D02*
X11382952Y-17239667D01*
X11402000Y-17230143D01*
X11430571Y-17230143D01*
X11449619Y-17239667D01*
X11459143Y-17258714D01*
X11459143Y-17363476D01*
X11459143Y-17258714D02*
X11468667Y-17239667D01*
X11487714Y-17230143D01*
X11516286Y-17230143D01*
X11535333Y-17239667D01*
X11544857Y-17258714D01*
X11544857Y-17363476D01*
X11935333Y-17153952D02*
X11763905Y-17411095D01*
X12192476Y-17163476D02*
X12211524Y-17163476D01*
X12230571Y-17173000D01*
X12240095Y-17182524D01*
X12249619Y-17201571D01*
X12259143Y-17239667D01*
X12259143Y-17287286D01*
X12249619Y-17325381D01*
X12240095Y-17344429D01*
X12230571Y-17353952D01*
X12211524Y-17363476D01*
X12192476Y-17363476D01*
X12173428Y-17353952D01*
X12163905Y-17344429D01*
X12154381Y-17325381D01*
X12144857Y-17287286D01*
X12144857Y-17239667D01*
X12154381Y-17201571D01*
X12163905Y-17182524D01*
X12173428Y-17173000D01*
X12192476Y-17163476D01*
X12344857Y-17344429D02*
X12354381Y-17353952D01*
X12344857Y-17363476D01*
X12335333Y-17353952D01*
X12344857Y-17344429D01*
X12344857Y-17363476D01*
X12478190Y-17163476D02*
X12497238Y-17163476D01*
X12516286Y-17173000D01*
X12525809Y-17182524D01*
X12535333Y-17201571D01*
X12544857Y-17239667D01*
X12544857Y-17287286D01*
X12535333Y-17325381D01*
X12525809Y-17344429D01*
X12516286Y-17353952D01*
X12497238Y-17363476D01*
X12478190Y-17363476D01*
X12459143Y-17353952D01*
X12449619Y-17344429D01*
X12440095Y-17325381D01*
X12430571Y-17287286D01*
X12430571Y-17239667D01*
X12440095Y-17201571D01*
X12449619Y-17182524D01*
X12459143Y-17173000D01*
X12478190Y-17163476D01*
X12640095Y-17363476D02*
X12678190Y-17363476D01*
X12697238Y-17353952D01*
X12706762Y-17344429D01*
X12725809Y-17315857D01*
X12735333Y-17277762D01*
X12735333Y-17201571D01*
X12725809Y-17182524D01*
X12716286Y-17173000D01*
X12697238Y-17163476D01*
X12659143Y-17163476D01*
X12640095Y-17173000D01*
X12630571Y-17182524D01*
X12621048Y-17201571D01*
X12621048Y-17249190D01*
X12630571Y-17268238D01*
X12640095Y-17277762D01*
X12659143Y-17287286D01*
X12697238Y-17287286D01*
X12716286Y-17277762D01*
X12725809Y-17268238D01*
X12735333Y-17249190D01*
X12849619Y-17249190D02*
X12830571Y-17239667D01*
X12821048Y-17230143D01*
X12811524Y-17211095D01*
X12811524Y-17201571D01*
X12821048Y-17182524D01*
X12830571Y-17173000D01*
X12849619Y-17163476D01*
X12887714Y-17163476D01*
X12906762Y-17173000D01*
X12916286Y-17182524D01*
X12925809Y-17201571D01*
X12925809Y-17211095D01*
X12916286Y-17230143D01*
X12906762Y-17239667D01*
X12887714Y-17249190D01*
X12849619Y-17249190D01*
X12830571Y-17258714D01*
X12821048Y-17268238D01*
X12811524Y-17287286D01*
X12811524Y-17325381D01*
X12821048Y-17344429D01*
X12830571Y-17353952D01*
X12849619Y-17363476D01*
X12887714Y-17363476D01*
X12906762Y-17353952D01*
X12916286Y-17344429D01*
X12925809Y-17325381D01*
X12925809Y-17287286D01*
X12916286Y-17268238D01*
X12906762Y-17258714D01*
X12887714Y-17249190D01*
X13097238Y-17230143D02*
X13097238Y-17363476D01*
X13049619Y-17153952D02*
X13002000Y-17296810D01*
X13125809Y-17296810D01*
X13192476Y-17163476D02*
X13192476Y-17201571D01*
X13268667Y-17163476D02*
X13268667Y-17201571D01*
X13563905Y-17439667D02*
X13554381Y-17430143D01*
X13535333Y-17401571D01*
X13525809Y-17382524D01*
X13516286Y-17353952D01*
X13506762Y-17306333D01*
X13506762Y-17268238D01*
X13516286Y-17220619D01*
X13525809Y-17192048D01*
X13535333Y-17173000D01*
X13554381Y-17144429D01*
X13563905Y-17134905D01*
X13725809Y-17230143D02*
X13725809Y-17363476D01*
X13678190Y-17153952D02*
X13630571Y-17296810D01*
X13754381Y-17296810D01*
X13982952Y-17363476D02*
X13982952Y-17163476D01*
X14068667Y-17363476D02*
X14068667Y-17258714D01*
X14059143Y-17239667D01*
X14040095Y-17230143D01*
X14011524Y-17230143D01*
X13992476Y-17239667D01*
X13982952Y-17249190D01*
X14192476Y-17363476D02*
X14173428Y-17353952D01*
X14163905Y-17344429D01*
X14154381Y-17325381D01*
X14154381Y-17268238D01*
X14163905Y-17249190D01*
X14173428Y-17239667D01*
X14192476Y-17230143D01*
X14221048Y-17230143D01*
X14240095Y-17239667D01*
X14249619Y-17249190D01*
X14259143Y-17268238D01*
X14259143Y-17325381D01*
X14249619Y-17344429D01*
X14240095Y-17353952D01*
X14221048Y-17363476D01*
X14192476Y-17363476D01*
X14373428Y-17363476D02*
X14354381Y-17353952D01*
X14344857Y-17334905D01*
X14344857Y-17163476D01*
X14525809Y-17353952D02*
X14506762Y-17363476D01*
X14468667Y-17363476D01*
X14449619Y-17353952D01*
X14440095Y-17334905D01*
X14440095Y-17258714D01*
X14449619Y-17239667D01*
X14468667Y-17230143D01*
X14506762Y-17230143D01*
X14525809Y-17239667D01*
X14535333Y-17258714D01*
X14535333Y-17277762D01*
X14440095Y-17296810D01*
X14611524Y-17353952D02*
X14630571Y-17363476D01*
X14668667Y-17363476D01*
X14687714Y-17353952D01*
X14697238Y-17334905D01*
X14697238Y-17325381D01*
X14687714Y-17306333D01*
X14668667Y-17296810D01*
X14640095Y-17296810D01*
X14621048Y-17287286D01*
X14611524Y-17268238D01*
X14611524Y-17258714D01*
X14621048Y-17239667D01*
X14640095Y-17230143D01*
X14668667Y-17230143D01*
X14687714Y-17239667D01*
X14763905Y-17439667D02*
X14773428Y-17430143D01*
X14792476Y-17401571D01*
X14802000Y-17382524D01*
X14811524Y-17353952D01*
X14821048Y-17306333D01*
X14821048Y-17268238D01*
X14811524Y-17220619D01*
X14802000Y-17192048D01*
X14792476Y-17173000D01*
X14773428Y-17144429D01*
X14763905Y-17134905D01*
M02*
