G04 #@! TF.GenerationSoftware,KiCad,Pcbnew,(6.0.7)*
G04 #@! TF.CreationDate,2022-12-13T13:41:41-06:00*
G04 #@! TF.ProjectId,Narwal_v1,4e617277-616c-45f7-9631-2e6b69636164,1*
G04 #@! TF.SameCoordinates,Original*
G04 #@! TF.FileFunction,Soldermask,Top*
G04 #@! TF.FilePolarity,Negative*
%FSLAX46Y46*%
G04 Gerber Fmt 4.6, Leading zero omitted, Abs format (unit mm)*
G04 Created by KiCad (PCBNEW (6.0.7)) date 2022-12-13 13:41:41*
%MOMM*%
%LPD*%
G01*
G04 APERTURE LIST*
G04 Aperture macros list*
%AMRoundRect*
0 Rectangle with rounded corners*
0 $1 Rounding radius*
0 $2 $3 $4 $5 $6 $7 $8 $9 X,Y pos of 4 corners*
0 Add a 4 corners polygon primitive as box body*
4,1,4,$2,$3,$4,$5,$6,$7,$8,$9,$2,$3,0*
0 Add four circle primitives for the rounded corners*
1,1,$1+$1,$2,$3*
1,1,$1+$1,$4,$5*
1,1,$1+$1,$6,$7*
1,1,$1+$1,$8,$9*
0 Add four rect primitives between the rounded corners*
20,1,$1+$1,$2,$3,$4,$5,0*
20,1,$1+$1,$4,$5,$6,$7,0*
20,1,$1+$1,$6,$7,$8,$9,0*
20,1,$1+$1,$8,$9,$2,$3,0*%
%AMFreePoly0*
4,1,11,0.965200,2.159000,0.965200,-0.254000,0.457200,-0.762000,0.457200,-2.667000,-0.457200,-2.667000,-0.457200,-0.762000,-0.965200,-0.254000,-0.965200,2.159000,-0.457200,2.667000,0.457200,2.667000,0.965200,2.159000,0.965200,2.159000,$1*%
G04 Aperture macros list end*
%ADD10C,0.010000*%
%ADD11RoundRect,0.250000X-0.312500X-0.625000X0.312500X-0.625000X0.312500X0.625000X-0.312500X0.625000X0*%
%ADD12R,1.800000X1.800000*%
%ADD13C,1.800000*%
%ADD14R,0.850000X0.250000*%
%ADD15R,0.250000X0.850000*%
%ADD16R,2.700000X2.700000*%
%ADD17RoundRect,0.237500X-0.237500X0.287500X-0.237500X-0.287500X0.237500X-0.287500X0.237500X0.287500X0*%
%ADD18RoundRect,0.237500X-0.287500X-0.237500X0.287500X-0.237500X0.287500X0.237500X-0.287500X0.237500X0*%
%ADD19RoundRect,0.250000X-0.850000X0.375000X-0.850000X-0.375000X0.850000X-0.375000X0.850000X0.375000X0*%
%ADD20C,5.000000*%
%ADD21RoundRect,0.250000X0.650000X-0.325000X0.650000X0.325000X-0.650000X0.325000X-0.650000X-0.325000X0*%
%ADD22RoundRect,0.250000X0.312500X0.625000X-0.312500X0.625000X-0.312500X-0.625000X0.312500X-0.625000X0*%
%ADD23R,2.775000X2.775000*%
%ADD24C,2.775000*%
%ADD25RoundRect,0.250000X-0.325000X-0.650000X0.325000X-0.650000X0.325000X0.650000X-0.325000X0.650000X0*%
%ADD26RoundRect,0.250000X0.350000X0.650000X-0.350000X0.650000X-0.350000X-0.650000X0.350000X-0.650000X0*%
%ADD27RoundRect,0.150000X0.150000X0.625000X-0.150000X0.625000X-0.150000X-0.625000X0.150000X-0.625000X0*%
%ADD28R,1.524000X1.524000*%
%ADD29C,1.524000*%
%ADD30RoundRect,0.250000X-0.650000X0.325000X-0.650000X-0.325000X0.650000X-0.325000X0.650000X0.325000X0*%
%ADD31R,0.610000X1.350000*%
%ADD32RoundRect,0.041300X-0.983700X-0.253700X0.983700X-0.253700X0.983700X0.253700X-0.983700X0.253700X0*%
%ADD33RoundRect,0.250000X-0.625000X0.312500X-0.625000X-0.312500X0.625000X-0.312500X0.625000X0.312500X0*%
%ADD34RoundRect,0.250000X0.325000X0.650000X-0.325000X0.650000X-0.325000X-0.650000X0.325000X-0.650000X0*%
%ADD35C,1.508000*%
%ADD36C,1.920000*%
%ADD37R,1.200000X2.800000*%
%ADD38RoundRect,0.250000X0.625000X-0.312500X0.625000X0.312500X-0.625000X0.312500X-0.625000X-0.312500X0*%
%ADD39RoundRect,0.250000X-0.375000X-0.850000X0.375000X-0.850000X0.375000X0.850000X-0.375000X0.850000X0*%
%ADD40R,0.711200X1.498600*%
%ADD41FreePoly0,180.000000*%
G04 APERTURE END LIST*
G36*
X116950000Y-137600000D02*
G01*
X115750000Y-137600000D01*
X115750000Y-137100000D01*
X114650000Y-137100000D01*
X114650000Y-135900000D01*
X115750000Y-135900000D01*
X115750000Y-135400000D01*
X116950000Y-135400000D01*
X116950000Y-137600000D01*
G37*
D10*
X116950000Y-137600000D02*
X115750000Y-137600000D01*
X115750000Y-137100000D01*
X114650000Y-137100000D01*
X114650000Y-135900000D01*
X115750000Y-135900000D01*
X115750000Y-135400000D01*
X116950000Y-135400000D01*
X116950000Y-137600000D01*
G36*
X119250000Y-135900000D02*
G01*
X120350000Y-135900000D01*
X120350000Y-137100000D01*
X119250000Y-137100000D01*
X119250000Y-137600000D01*
X118050000Y-137600000D01*
X118050000Y-135400000D01*
X119250000Y-135400000D01*
X119250000Y-135900000D01*
G37*
X119250000Y-135900000D02*
X120350000Y-135900000D01*
X120350000Y-137100000D01*
X119250000Y-137100000D01*
X119250000Y-137600000D01*
X118050000Y-137600000D01*
X118050000Y-135400000D01*
X119250000Y-135400000D01*
X119250000Y-135900000D01*
G36*
X161292500Y-110633830D02*
G01*
X161292500Y-113294000D01*
X160824269Y-113294000D01*
X160492500Y-113627330D01*
X160492500Y-115169000D01*
X159512500Y-115169000D01*
X159512500Y-113627330D01*
X159180731Y-113294000D01*
X158712500Y-113294000D01*
X158712500Y-110633830D01*
X159075131Y-110274000D01*
X160929869Y-110274000D01*
X161292500Y-110633830D01*
G37*
X161292500Y-110633830D02*
X161292500Y-113294000D01*
X160824269Y-113294000D01*
X160492500Y-113627330D01*
X160492500Y-115169000D01*
X159512500Y-115169000D01*
X159512500Y-113627330D01*
X159180731Y-113294000D01*
X158712500Y-113294000D01*
X158712500Y-110633830D01*
X159075131Y-110274000D01*
X160929869Y-110274000D01*
X161292500Y-110633830D01*
G36*
X126092200Y-138195200D02*
G01*
X126092200Y-140735200D01*
X125584200Y-141243200D01*
X124441200Y-141243200D01*
X123933200Y-140735200D01*
X123933200Y-138195200D01*
X124441200Y-137687200D01*
X125584200Y-137687200D01*
X126092200Y-138195200D01*
G37*
D11*
X137037500Y-132250000D03*
X139962500Y-132250000D03*
D12*
X172500000Y-63225000D03*
D13*
X172500000Y-65765000D03*
D14*
X123050000Y-111250000D03*
X123050000Y-111750000D03*
X123050000Y-112250000D03*
X123050000Y-112750000D03*
X123050000Y-113250000D03*
X123050000Y-113750000D03*
D15*
X123750000Y-114450000D03*
X124250000Y-114450000D03*
X124750000Y-114450000D03*
X125250000Y-114450000D03*
X125750000Y-114450000D03*
X126250000Y-114450000D03*
D14*
X126950000Y-113750000D03*
X126950000Y-113250000D03*
X126950000Y-112750000D03*
X126950000Y-112250000D03*
X126950000Y-111750000D03*
X126950000Y-111250000D03*
D15*
X126250000Y-110550000D03*
X125750000Y-110550000D03*
X125250000Y-110550000D03*
X124750000Y-110550000D03*
X124250000Y-110550000D03*
X123750000Y-110550000D03*
D16*
X125000000Y-112500000D03*
D14*
X161950000Y-138500000D03*
X161950000Y-138000000D03*
X161950000Y-137500000D03*
X161950000Y-137000000D03*
X161950000Y-136500000D03*
X161950000Y-136000000D03*
D15*
X161250000Y-135300000D03*
X160750000Y-135300000D03*
X160250000Y-135300000D03*
X159750000Y-135300000D03*
X159250000Y-135300000D03*
X158750000Y-135300000D03*
D14*
X158050000Y-136000000D03*
X158050000Y-136500000D03*
X158050000Y-137000000D03*
X158050000Y-137500000D03*
X158050000Y-138000000D03*
X158050000Y-138500000D03*
D15*
X158750000Y-139200000D03*
X159250000Y-139200000D03*
X159750000Y-139200000D03*
X160250000Y-139200000D03*
X160750000Y-139200000D03*
X161250000Y-139200000D03*
D16*
X160000000Y-137250000D03*
D17*
X167500000Y-118125000D03*
X167500000Y-119875000D03*
D18*
X152125000Y-114250000D03*
X153875000Y-114250000D03*
D19*
X144750000Y-117675000D03*
X144750000Y-119825000D03*
D20*
X103500000Y-53500000D03*
D21*
X123250000Y-132475000D03*
X123250000Y-129525000D03*
D20*
X181500000Y-53500000D03*
D22*
X158537500Y-104500000D03*
X161462500Y-104500000D03*
D20*
X181500000Y-146500000D03*
D23*
X161200000Y-93000000D03*
D24*
X156500000Y-93000000D03*
X151800000Y-93000000D03*
D25*
X167500000Y-124500000D03*
X170450000Y-124500000D03*
D26*
X159700000Y-52125000D03*
X165300000Y-52125000D03*
D27*
X161000000Y-56000000D03*
X162000000Y-56000000D03*
X163000000Y-56000000D03*
X164000000Y-56000000D03*
D19*
X167500000Y-108925000D03*
X167500000Y-111075000D03*
D28*
X108370000Y-76270000D03*
D29*
X108370000Y-73730000D03*
X110910000Y-76270000D03*
X110910000Y-73730000D03*
X113450000Y-76270000D03*
X113450000Y-73730000D03*
X115990000Y-76270000D03*
X115990000Y-73730000D03*
X118530000Y-76270000D03*
X118530000Y-73730000D03*
X121070000Y-76270000D03*
X121070000Y-73730000D03*
X123610000Y-76270000D03*
X123610000Y-73730000D03*
X126150000Y-76270000D03*
X126150000Y-73730000D03*
X128690000Y-76270000D03*
X128690000Y-73730000D03*
X131230000Y-76270000D03*
X131230000Y-73730000D03*
X133770000Y-76270000D03*
X133770000Y-73730000D03*
X136310000Y-76270000D03*
X136310000Y-73730000D03*
X138850000Y-76270000D03*
X138850000Y-73730000D03*
X141390000Y-76270000D03*
X141390000Y-73730000D03*
X143930000Y-76270000D03*
X143930000Y-73730000D03*
X146470000Y-76270000D03*
X146470000Y-73730000D03*
X149010000Y-76270000D03*
X149010000Y-73730000D03*
X151550000Y-76270000D03*
X151550000Y-73730000D03*
X154090000Y-76270000D03*
X154090000Y-73730000D03*
X156630000Y-76270000D03*
X156630000Y-73730000D03*
D30*
X154000000Y-139000000D03*
X154000000Y-141950000D03*
D31*
X158507500Y-114394000D03*
X161497500Y-114394000D03*
D30*
X150000000Y-141950000D03*
X150000000Y-139000000D03*
D25*
X130025000Y-107500000D03*
X132975000Y-107500000D03*
D21*
X119000000Y-100475000D03*
X119000000Y-97525000D03*
D25*
X130025000Y-111000000D03*
X132975000Y-111000000D03*
X116275000Y-58500000D03*
X119225000Y-58500000D03*
D32*
X123345000Y-57055000D03*
X123345000Y-58325000D03*
X123345000Y-59595000D03*
X123345000Y-60865000D03*
X123345000Y-62135000D03*
X123345000Y-63405000D03*
X123345000Y-64675000D03*
X123345000Y-65945000D03*
X132655000Y-65945000D03*
X132655000Y-64675000D03*
X132655000Y-63405000D03*
X132655000Y-62135000D03*
X132655000Y-60865000D03*
X132655000Y-59595000D03*
X132655000Y-58325000D03*
X132655000Y-57055000D03*
D25*
X143275000Y-132250000D03*
X146225000Y-132250000D03*
X144775000Y-114000000D03*
X147725000Y-114000000D03*
D33*
X172500000Y-86962500D03*
X172500000Y-84037500D03*
D30*
X136775000Y-61525000D03*
X136775000Y-64475000D03*
D20*
X103500000Y-146500000D03*
D34*
X131500000Y-136500000D03*
X134450000Y-136500000D03*
X116500000Y-127500000D03*
X113550000Y-127500000D03*
X167500000Y-100000000D03*
X164550000Y-100000000D03*
D35*
X170000000Y-145000000D03*
D36*
X167600000Y-142600000D03*
X167600000Y-147400000D03*
X172400000Y-147400000D03*
X172400000Y-142600000D03*
D21*
X114500000Y-100475000D03*
X114500000Y-97525000D03*
D37*
X139000000Y-85000000D03*
X137000000Y-85000000D03*
X135000000Y-85000000D03*
X133000000Y-85000000D03*
X131000000Y-85000000D03*
X129000000Y-85000000D03*
X127000000Y-85000000D03*
X125000000Y-85000000D03*
X125000000Y-101000000D03*
X127000000Y-101000000D03*
X129000000Y-101000000D03*
X131000000Y-101000000D03*
X133000000Y-101000000D03*
X135000000Y-101000000D03*
X137000000Y-101000000D03*
X139000000Y-101000000D03*
D34*
X165475000Y-131750000D03*
X162525000Y-131750000D03*
D38*
X172500000Y-57075000D03*
X172500000Y-60000000D03*
D39*
X131500000Y-132250000D03*
X133650000Y-132250000D03*
D30*
X152000000Y-117525000D03*
X152000000Y-120475000D03*
D34*
X116500000Y-131500000D03*
X113550000Y-131500000D03*
X167500000Y-104500000D03*
X164550000Y-104500000D03*
D25*
X167500000Y-129000000D03*
X170450000Y-129000000D03*
D40*
X126498600Y-136595000D03*
D41*
X125000000Y-138500000D03*
D40*
X123501400Y-136595000D03*
D27*
X154000000Y-56000000D03*
X153000000Y-56000000D03*
X152000000Y-56000000D03*
X151000000Y-56000000D03*
D26*
X149700000Y-52125000D03*
X155300000Y-52125000D03*
M02*
