%TF.GenerationSoftware,KiCad,Pcbnew,(6.0.7)*%
%TF.CreationDate,2022-12-13T13:42:50-06:00*%
%TF.ProjectId,Narwal_v1,4e617277-616c-45f7-9631-2e6b69636164,1*%
%TF.SameCoordinates,Original*%
%TF.FileFunction,Drillmap*%
%TF.FilePolarity,Positive*%
%FSLAX45Y45*%
G04 Gerber Fmt 4.5, Leading zero omitted, Abs format (unit mm)*
G04 Created by KiCad (PCBNEW (6.0.7)) date 2022-12-13 13:42:50*
%MOMM*%
%LPD*%
G01*
G04 APERTURE LIST*
%ADD10C,0.160000*%
%ADD11C,0.200000*%
G04 APERTURE END LIST*
D10*
X10000000Y-5000000D02*
X18500000Y-5000000D01*
X18500000Y-5000000D02*
X18500000Y-15000000D01*
X18500000Y-15000000D02*
X10000000Y-15000000D01*
X10000000Y-15000000D02*
X10000000Y-5000000D01*
D11*
X10249619Y-15318476D02*
X10249619Y-15118476D01*
X10297238Y-15118476D01*
X10325810Y-15128000D01*
X10344857Y-15147048D01*
X10354381Y-15166095D01*
X10363905Y-15204190D01*
X10363905Y-15232762D01*
X10354381Y-15270857D01*
X10344857Y-15289905D01*
X10325810Y-15308952D01*
X10297238Y-15318476D01*
X10249619Y-15318476D01*
X10449619Y-15318476D02*
X10449619Y-15185143D01*
X10449619Y-15223238D02*
X10459143Y-15204190D01*
X10468667Y-15194667D01*
X10487714Y-15185143D01*
X10506762Y-15185143D01*
X10573429Y-15318476D02*
X10573429Y-15185143D01*
X10573429Y-15118476D02*
X10563905Y-15128000D01*
X10573429Y-15137524D01*
X10582952Y-15128000D01*
X10573429Y-15118476D01*
X10573429Y-15137524D01*
X10697238Y-15318476D02*
X10678190Y-15308952D01*
X10668667Y-15289905D01*
X10668667Y-15118476D01*
X10802000Y-15318476D02*
X10782952Y-15308952D01*
X10773429Y-15289905D01*
X10773429Y-15118476D01*
X11030571Y-15318476D02*
X11030571Y-15118476D01*
X11097238Y-15261333D01*
X11163905Y-15118476D01*
X11163905Y-15318476D01*
X11344857Y-15318476D02*
X11344857Y-15213714D01*
X11335333Y-15194667D01*
X11316286Y-15185143D01*
X11278190Y-15185143D01*
X11259143Y-15194667D01*
X11344857Y-15308952D02*
X11325809Y-15318476D01*
X11278190Y-15318476D01*
X11259143Y-15308952D01*
X11249619Y-15289905D01*
X11249619Y-15270857D01*
X11259143Y-15251809D01*
X11278190Y-15242286D01*
X11325809Y-15242286D01*
X11344857Y-15232762D01*
X11440095Y-15185143D02*
X11440095Y-15385143D01*
X11440095Y-15194667D02*
X11459143Y-15185143D01*
X11497238Y-15185143D01*
X11516286Y-15194667D01*
X11525809Y-15204190D01*
X11535333Y-15223238D01*
X11535333Y-15280381D01*
X11525809Y-15299428D01*
X11516286Y-15308952D01*
X11497238Y-15318476D01*
X11459143Y-15318476D01*
X11440095Y-15308952D01*
X11621048Y-15299428D02*
X11630571Y-15308952D01*
X11621048Y-15318476D01*
X11611524Y-15308952D01*
X11621048Y-15299428D01*
X11621048Y-15318476D01*
X11621048Y-15194667D02*
X11630571Y-15204190D01*
X11621048Y-15213714D01*
X11611524Y-15204190D01*
X11621048Y-15194667D01*
X11621048Y-15213714D01*
M02*
