%TF.GenerationSoftware,KiCad,Pcbnew,(6.0.7)*%
%TF.CreationDate,2022-12-07T20:31:12-06:00*%
%TF.ProjectId,Narwal_v1,4e617277-616c-45f7-9631-2e6b69636164,1*%
%TF.SameCoordinates,Original*%
%TF.FileFunction,Soldermask,Top*%
%TF.FilePolarity,Negative*%
%FSLAX46Y46*%
G04 Gerber Fmt 4.6, Leading zero omitted, Abs format (unit mm)*
G04 Created by KiCad (PCBNEW (6.0.7)) date 2022-12-07 20:31:12*
%MOMM*%
%LPD*%
G01*
G04 APERTURE LIST*
G04 Aperture macros list*
%AMRoundRect*
0 Rectangle with rounded corners*
0 $1 Rounding radius*
0 $2 $3 $4 $5 $6 $7 $8 $9 X,Y pos of 4 corners*
0 Add a 4 corners polygon primitive as box body*
4,1,4,$2,$3,$4,$5,$6,$7,$8,$9,$2,$3,0*
0 Add four circle primitives for the rounded corners*
1,1,$1+$1,$2,$3*
1,1,$1+$1,$4,$5*
1,1,$1+$1,$6,$7*
1,1,$1+$1,$8,$9*
0 Add four rect primitives between the rounded corners*
20,1,$1+$1,$2,$3,$4,$5,0*
20,1,$1+$1,$4,$5,$6,$7,0*
20,1,$1+$1,$6,$7,$8,$9,0*
20,1,$1+$1,$8,$9,$2,$3,0*%
%AMFreePoly0*
4,1,11,0.965200,2.159000,0.965200,-0.254000,0.457200,-0.762000,0.457200,-2.667000,-0.457200,-2.667000,-0.457200,-0.762000,-0.965200,-0.254000,-0.965200,2.159000,-0.457200,2.667000,0.457200,2.667000,0.965200,2.159000,0.965200,2.159000,$1*%
G04 Aperture macros list end*
%ADD10C,0.010000*%
%ADD11C,1.800000*%
%ADD12R,1.800000X1.800000*%
%ADD13C,2.775000*%
%ADD14R,2.775000X2.775000*%
%ADD15RoundRect,0.250000X-0.625000X0.312500X-0.625000X-0.312500X0.625000X-0.312500X0.625000X0.312500X0*%
%ADD16RoundRect,0.250000X0.312500X0.625000X-0.312500X0.625000X-0.312500X-0.625000X0.312500X-0.625000X0*%
%ADD17C,5.000000*%
%ADD18RoundRect,0.250000X-0.850000X0.375000X-0.850000X-0.375000X0.850000X-0.375000X0.850000X0.375000X0*%
%ADD19RoundRect,0.250000X0.650000X-0.325000X0.650000X0.325000X-0.650000X0.325000X-0.650000X-0.325000X0*%
%ADD20RoundRect,0.250000X-0.375000X-1.075000X0.375000X-1.075000X0.375000X1.075000X-0.375000X1.075000X0*%
%ADD21R,2.700000X2.700000*%
%ADD22R,0.250000X0.850000*%
%ADD23R,0.850000X0.250000*%
%ADD24RoundRect,0.250000X-0.325000X-0.650000X0.325000X-0.650000X0.325000X0.650000X-0.325000X0.650000X0*%
%ADD25RoundRect,0.250000X0.350000X0.650000X-0.350000X0.650000X-0.350000X-0.650000X0.350000X-0.650000X0*%
%ADD26RoundRect,0.150000X0.150000X0.625000X-0.150000X0.625000X-0.150000X-0.625000X0.150000X-0.625000X0*%
%ADD27C,1.524000*%
%ADD28R,1.524000X1.524000*%
%ADD29RoundRect,0.250000X-0.650000X0.325000X-0.650000X-0.325000X0.650000X-0.325000X0.650000X0.325000X0*%
%ADD30R,0.610000X1.350000*%
%ADD31RoundRect,0.041300X-0.983700X-0.253700X0.983700X-0.253700X0.983700X0.253700X-0.983700X0.253700X0*%
%ADD32RoundRect,0.250000X0.325000X0.650000X-0.325000X0.650000X-0.325000X-0.650000X0.325000X-0.650000X0*%
%ADD33C,1.920000*%
%ADD34C,1.508000*%
%ADD35RoundRect,0.250000X-0.312500X-0.625000X0.312500X-0.625000X0.312500X0.625000X-0.312500X0.625000X0*%
%ADD36R,1.200000X2.800000*%
%ADD37RoundRect,0.250000X-1.075000X0.375000X-1.075000X-0.375000X1.075000X-0.375000X1.075000X0.375000X0*%
%ADD38RoundRect,0.250000X0.625000X-0.312500X0.625000X0.312500X-0.625000X0.312500X-0.625000X-0.312500X0*%
%ADD39RoundRect,0.250000X-0.375000X-0.850000X0.375000X-0.850000X0.375000X0.850000X-0.375000X0.850000X0*%
%ADD40R,0.711200X1.498600*%
%ADD41FreePoly0,180.000000*%
%ADD42C,0.800000*%
G04 APERTURE END LIST*
G36*
X119750000Y-135900000D02*
G01*
X120850000Y-135900000D01*
X120850000Y-137100000D01*
X119750000Y-137100000D01*
X119750000Y-137600000D01*
X118550000Y-137600000D01*
X118550000Y-135400000D01*
X119750000Y-135400000D01*
X119750000Y-135900000D01*
G37*
D10*
X119750000Y-135900000D02*
X120850000Y-135900000D01*
X120850000Y-137100000D01*
X119750000Y-137100000D01*
X119750000Y-137600000D01*
X118550000Y-137600000D01*
X118550000Y-135400000D01*
X119750000Y-135400000D01*
X119750000Y-135900000D01*
G36*
X117450000Y-137600000D02*
G01*
X116250000Y-137600000D01*
X116250000Y-137100000D01*
X115150000Y-137100000D01*
X115150000Y-135900000D01*
X116250000Y-135900000D01*
X116250000Y-135400000D01*
X117450000Y-135400000D01*
X117450000Y-137600000D01*
G37*
X117450000Y-137600000D02*
X116250000Y-137600000D01*
X116250000Y-137100000D01*
X115150000Y-137100000D01*
X115150000Y-135900000D01*
X116250000Y-135900000D01*
X116250000Y-135400000D01*
X117450000Y-135400000D01*
X117450000Y-137600000D01*
G36*
X161292500Y-110633830D02*
G01*
X161292500Y-113294000D01*
X160824269Y-113294000D01*
X160492500Y-113627330D01*
X160492500Y-115169000D01*
X159512500Y-115169000D01*
X159512500Y-113627330D01*
X159180731Y-113294000D01*
X158712500Y-113294000D01*
X158712500Y-110633830D01*
X159075131Y-110274000D01*
X160929869Y-110274000D01*
X161292500Y-110633830D01*
G37*
X161292500Y-110633830D02*
X161292500Y-113294000D01*
X160824269Y-113294000D01*
X160492500Y-113627330D01*
X160492500Y-115169000D01*
X159512500Y-115169000D01*
X159512500Y-113627330D01*
X159180731Y-113294000D01*
X158712500Y-113294000D01*
X158712500Y-110633830D01*
X159075131Y-110274000D01*
X160929869Y-110274000D01*
X161292500Y-110633830D01*
G36*
X126092200Y-138195200D02*
G01*
X126092200Y-140735200D01*
X125584200Y-141243200D01*
X124441200Y-141243200D01*
X123933200Y-140735200D01*
X123933200Y-138195200D01*
X124441200Y-137687200D01*
X125584200Y-137687200D01*
X126092200Y-138195200D01*
G37*
D11*
X172500000Y-65040000D03*
D12*
X172500000Y-62500000D03*
D13*
X156500000Y-93000000D03*
D14*
X161200000Y-93000000D03*
D13*
X151800000Y-93000000D03*
D15*
X172500000Y-86962500D03*
X172500000Y-84037500D03*
D16*
X154712500Y-85500000D03*
X151787500Y-85500000D03*
D17*
X103500000Y-146500000D03*
X181500000Y-146500000D03*
X181500000Y-53500000D03*
X103500000Y-53500000D03*
D18*
X144750000Y-119825000D03*
X144750000Y-117675000D03*
D19*
X123250000Y-129525000D03*
X123250000Y-132475000D03*
D16*
X158537500Y-104500000D03*
X161462500Y-104500000D03*
D20*
X154150000Y-114250000D03*
X151350000Y-114250000D03*
D21*
X160000000Y-137250000D03*
D22*
X161250000Y-139200000D03*
X160750000Y-139200000D03*
X160250000Y-139200000D03*
X159750000Y-139200000D03*
X159250000Y-139200000D03*
X158750000Y-139200000D03*
D23*
X158050000Y-138500000D03*
X158050000Y-138000000D03*
X158050000Y-137500000D03*
X158050000Y-137000000D03*
X158050000Y-136500000D03*
X158050000Y-136000000D03*
D22*
X158750000Y-135300000D03*
X159250000Y-135300000D03*
X159750000Y-135300000D03*
X160250000Y-135300000D03*
X160750000Y-135300000D03*
X161250000Y-135300000D03*
D23*
X161950000Y-136000000D03*
X161950000Y-136500000D03*
X161950000Y-137000000D03*
X161950000Y-137500000D03*
X161950000Y-138000000D03*
X161950000Y-138500000D03*
D24*
X170450000Y-124500000D03*
X167500000Y-124500000D03*
D25*
X165300000Y-52125000D03*
X159700000Y-52125000D03*
D26*
X161000000Y-56000000D03*
X162000000Y-56000000D03*
X163000000Y-56000000D03*
X164000000Y-56000000D03*
D18*
X167500000Y-111075000D03*
X167500000Y-108925000D03*
D27*
X156630000Y-73730000D03*
X156630000Y-76270000D03*
X154090000Y-73730000D03*
X154090000Y-76270000D03*
X151550000Y-73730000D03*
X151550000Y-76270000D03*
X149010000Y-73730000D03*
X149010000Y-76270000D03*
X146470000Y-73730000D03*
X146470000Y-76270000D03*
X143930000Y-73730000D03*
X143930000Y-76270000D03*
X141390000Y-73730000D03*
X141390000Y-76270000D03*
X138850000Y-73730000D03*
X138850000Y-76270000D03*
X136310000Y-73730000D03*
X136310000Y-76270000D03*
X133770000Y-73730000D03*
X133770000Y-76270000D03*
X131230000Y-73730000D03*
X131230000Y-76270000D03*
X128690000Y-73730000D03*
X128690000Y-76270000D03*
X126150000Y-73730000D03*
X126150000Y-76270000D03*
X123610000Y-73730000D03*
X123610000Y-76270000D03*
X121070000Y-73730000D03*
X121070000Y-76270000D03*
X118530000Y-73730000D03*
X118530000Y-76270000D03*
X115990000Y-73730000D03*
X115990000Y-76270000D03*
X113450000Y-73730000D03*
X113450000Y-76270000D03*
X110910000Y-73730000D03*
X110910000Y-76270000D03*
X108370000Y-73730000D03*
D28*
X108370000Y-76270000D03*
D29*
X154000000Y-141950000D03*
X154000000Y-139000000D03*
D30*
X161497500Y-114394000D03*
X158507500Y-114394000D03*
D29*
X150000000Y-141950000D03*
X150000000Y-139000000D03*
D24*
X132975000Y-107500000D03*
X130025000Y-107500000D03*
D19*
X119000000Y-97525000D03*
X119000000Y-100475000D03*
D24*
X132975000Y-111000000D03*
X130025000Y-111000000D03*
X119225000Y-58500000D03*
X116275000Y-58500000D03*
D31*
X132655000Y-57055000D03*
X132655000Y-58325000D03*
X132655000Y-59595000D03*
X132655000Y-60865000D03*
X132655000Y-62135000D03*
X132655000Y-63405000D03*
X132655000Y-64675000D03*
X132655000Y-65945000D03*
X123345000Y-65945000D03*
X123345000Y-64675000D03*
X123345000Y-63405000D03*
X123345000Y-62135000D03*
X123345000Y-60865000D03*
X123345000Y-59595000D03*
X123345000Y-58325000D03*
X123345000Y-57055000D03*
D24*
X146225000Y-132250000D03*
X143275000Y-132250000D03*
X147725000Y-114250000D03*
X144775000Y-114250000D03*
D29*
X136775000Y-64475000D03*
X136775000Y-61525000D03*
D32*
X131500000Y-136500000D03*
X134450000Y-136500000D03*
X113550000Y-127500000D03*
X116500000Y-127500000D03*
X164550000Y-100000000D03*
X167500000Y-100000000D03*
D33*
X172400000Y-142600000D03*
X172400000Y-147400000D03*
X167600000Y-147400000D03*
X167600000Y-142600000D03*
D34*
X170000000Y-145000000D03*
D35*
X139962500Y-132250000D03*
X137037500Y-132250000D03*
D19*
X114500000Y-97525000D03*
X114500000Y-100475000D03*
D36*
X139000000Y-101000000D03*
X137000000Y-101000000D03*
X135000000Y-101000000D03*
X133000000Y-101000000D03*
X131000000Y-101000000D03*
X129000000Y-101000000D03*
X127000000Y-101000000D03*
X125000000Y-101000000D03*
X125000000Y-85000000D03*
X127000000Y-85000000D03*
X129000000Y-85000000D03*
X131000000Y-85000000D03*
X133000000Y-85000000D03*
X135000000Y-85000000D03*
X137000000Y-85000000D03*
X139000000Y-85000000D03*
D37*
X167500000Y-120300000D03*
X167500000Y-117500000D03*
D32*
X162525000Y-131750000D03*
X165475000Y-131750000D03*
D38*
X172500000Y-57075000D03*
X172500000Y-60000000D03*
D39*
X133650000Y-132250000D03*
X131500000Y-132250000D03*
D29*
X151250000Y-120475000D03*
X151250000Y-117525000D03*
D32*
X113550000Y-131500000D03*
X116500000Y-131500000D03*
X164550000Y-104500000D03*
X167500000Y-104500000D03*
D21*
X125000000Y-112500000D03*
D22*
X123750000Y-110550000D03*
X124250000Y-110550000D03*
X124750000Y-110550000D03*
X125250000Y-110550000D03*
X125750000Y-110550000D03*
X126250000Y-110550000D03*
D23*
X126950000Y-111250000D03*
X126950000Y-111750000D03*
X126950000Y-112250000D03*
X126950000Y-112750000D03*
X126950000Y-113250000D03*
X126950000Y-113750000D03*
D22*
X126250000Y-114450000D03*
X125750000Y-114450000D03*
X125250000Y-114450000D03*
X124750000Y-114450000D03*
X124250000Y-114450000D03*
X123750000Y-114450000D03*
D23*
X123050000Y-113750000D03*
X123050000Y-113250000D03*
X123050000Y-112750000D03*
X123050000Y-112250000D03*
X123050000Y-111750000D03*
X123050000Y-111250000D03*
D24*
X170450000Y-129000000D03*
X167500000Y-129000000D03*
D40*
X123501400Y-136595000D03*
D41*
X125000000Y-138500000D03*
D40*
X126498600Y-136595000D03*
D25*
X149700000Y-52125000D03*
X155300000Y-52125000D03*
D26*
X151000000Y-56000000D03*
X152000000Y-56000000D03*
X153000000Y-56000000D03*
X154000000Y-56000000D03*
D42*
X172500000Y-79500000D03*
X172500000Y-80750000D03*
X172500000Y-82000000D03*
X146500000Y-100000000D03*
X146500000Y-103000000D03*
X128250000Y-111000000D03*
X158250000Y-79250000D03*
X157000000Y-141000000D03*
X141250000Y-135750000D03*
X128000000Y-121000000D03*
X125500000Y-104500000D03*
X124000000Y-106500000D03*
X158500000Y-131500000D03*
X160000000Y-137250000D03*
X163500000Y-137250000D03*
X126500000Y-117500000D03*
X159500000Y-127250000D03*
X134250000Y-113000000D03*
X164250000Y-145750000D03*
X140250000Y-137250000D03*
X166250000Y-144250000D03*
X168500000Y-113000000D03*
X130250000Y-125750000D03*
X131250000Y-114500000D03*
X168250000Y-130750000D03*
X122000000Y-113000000D03*
X148000000Y-132250000D03*
X159500000Y-112000000D03*
X148750000Y-127000000D03*
X167000000Y-132500000D03*
X159250000Y-141000000D03*
X124000000Y-109500000D03*
X139250000Y-113000000D03*
X124000000Y-108500000D03*
X154250000Y-137250000D03*
X136750000Y-125500000D03*
X152750000Y-125500000D03*
X137250000Y-113000000D03*
X123000000Y-99750000D03*
X154750000Y-125500000D03*
X155750000Y-115000000D03*
X149500000Y-115000000D03*
X134750000Y-127000000D03*
X165250000Y-145750000D03*
X147750000Y-127000000D03*
X160000000Y-129500000D03*
X166750000Y-126250000D03*
X159500000Y-111000000D03*
X155750000Y-127000000D03*
X122500000Y-119500000D03*
X161250000Y-141250000D03*
X156750000Y-115000000D03*
X124000000Y-125500000D03*
X125000000Y-112500000D03*
X123000000Y-100750000D03*
X150250000Y-135750000D03*
X146250000Y-135750000D03*
X126500000Y-116500000D03*
X147750000Y-125500000D03*
X123000000Y-101750000D03*
X129250000Y-114500000D03*
X168500000Y-116000000D03*
X125000000Y-115500000D03*
X147250000Y-137250000D03*
X138750000Y-127000000D03*
X153750000Y-127000000D03*
X125500000Y-109500000D03*
X142250000Y-135750000D03*
X129250000Y-113000000D03*
X145250000Y-135750000D03*
X127750000Y-135750000D03*
X149500000Y-113500000D03*
X163000000Y-134250000D03*
X128750000Y-137500000D03*
X125500000Y-139250000D03*
X130250000Y-113000000D03*
X141250000Y-113000000D03*
X148750000Y-125500000D03*
X165250000Y-144250000D03*
X127250000Y-120250000D03*
X125750000Y-111750000D03*
X122500000Y-124500000D03*
X121750000Y-128250000D03*
X148250000Y-137250000D03*
X124500000Y-140250000D03*
X144750000Y-127000000D03*
X151750000Y-125500000D03*
X125000000Y-116500000D03*
X124000000Y-116500000D03*
X150750000Y-127000000D03*
X124000000Y-121500000D03*
X128750000Y-135750000D03*
X153750000Y-125500000D03*
X124000000Y-123500000D03*
X161000000Y-131000000D03*
X124000000Y-105500000D03*
X154250000Y-135750000D03*
X153250000Y-135750000D03*
X136250000Y-113000000D03*
X164250000Y-115500000D03*
X148250000Y-135750000D03*
X158750000Y-126500000D03*
X141750000Y-125500000D03*
X166250000Y-116000000D03*
X142250000Y-113000000D03*
X166750000Y-127250000D03*
X122500000Y-126500000D03*
X124000000Y-126500000D03*
X124250000Y-134000000D03*
X149250000Y-137250000D03*
X160250000Y-142750000D03*
X137750000Y-127000000D03*
X128000000Y-123500000D03*
X168000000Y-114000000D03*
X140250000Y-135750000D03*
X142750000Y-125500000D03*
X156750000Y-125500000D03*
X163500000Y-143500000D03*
X136750000Y-127000000D03*
X127250000Y-122750000D03*
X156250000Y-137250000D03*
X163250000Y-145750000D03*
X135250000Y-113000000D03*
X122750000Y-134000000D03*
X168250000Y-122750000D03*
X132250000Y-114500000D03*
X153250000Y-137250000D03*
X156750000Y-113500000D03*
X156250000Y-135750000D03*
X124000000Y-120500000D03*
X163000000Y-140250000D03*
X122500000Y-115000000D03*
X147250000Y-135750000D03*
X151250000Y-137250000D03*
X146250000Y-137250000D03*
X168250000Y-126250000D03*
X122750000Y-135000000D03*
X158000000Y-125750000D03*
X136250000Y-137250000D03*
X141250000Y-137250000D03*
X122500000Y-125500000D03*
X125000000Y-120500000D03*
X140750000Y-125500000D03*
X139250000Y-114500000D03*
X127500000Y-115000000D03*
X143250000Y-114500000D03*
X143250000Y-135750000D03*
X135250000Y-114500000D03*
X145750000Y-125500000D03*
X125000000Y-138250000D03*
X144250000Y-137250000D03*
X137250000Y-114500000D03*
X162500000Y-145000000D03*
X152250000Y-135750000D03*
X158500000Y-129500000D03*
X158250000Y-128500000D03*
X125500000Y-105500000D03*
X163250000Y-115500000D03*
X123000000Y-102750000D03*
X138250000Y-114500000D03*
X160000000Y-128250000D03*
X161500000Y-144750000D03*
X125000000Y-119500000D03*
X125750000Y-113250000D03*
X159250000Y-136500000D03*
X166750000Y-121750000D03*
X140250000Y-114500000D03*
X126500000Y-119500000D03*
X135750000Y-125500000D03*
X125500000Y-108500000D03*
X165250000Y-113500000D03*
X145250000Y-137250000D03*
X132500000Y-125500000D03*
X124000000Y-104500000D03*
X134750000Y-125500000D03*
X125750000Y-121250000D03*
X157500000Y-127750000D03*
X125500000Y-140250000D03*
X131750000Y-124750000D03*
X160000000Y-131500000D03*
X145750000Y-127000000D03*
X142250000Y-114500000D03*
X160500000Y-111000000D03*
X166250000Y-113000000D03*
X168250000Y-121750000D03*
X155750000Y-113500000D03*
X143250000Y-137250000D03*
X126500000Y-118500000D03*
X132825000Y-127000000D03*
X138250000Y-137250000D03*
X155250000Y-137250000D03*
X125500000Y-107500000D03*
X164250000Y-144250000D03*
X124000000Y-124500000D03*
X128250000Y-114500000D03*
X122500000Y-120500000D03*
X151250000Y-135750000D03*
X122500000Y-122500000D03*
X158500000Y-130500000D03*
X124000000Y-107500000D03*
X155750000Y-125500000D03*
X140750000Y-127000000D03*
X124750000Y-128250000D03*
X157000000Y-134250000D03*
X146750000Y-127000000D03*
X134250000Y-114500000D03*
X122500000Y-127500000D03*
X124000000Y-127500000D03*
X137250000Y-135750000D03*
X160000000Y-113000000D03*
X131900000Y-127000000D03*
X130250000Y-114500000D03*
X168000000Y-115000000D03*
X128750000Y-121750000D03*
X131250000Y-113000000D03*
X133750000Y-125500000D03*
X133250000Y-113000000D03*
X142750000Y-127000000D03*
X122500000Y-116500000D03*
X146750000Y-125500000D03*
X122000000Y-112000000D03*
X144250000Y-135750000D03*
X126500000Y-122000000D03*
X137750000Y-125500000D03*
X122500000Y-118500000D03*
X159500000Y-142000000D03*
X136250000Y-114500000D03*
X152250000Y-137250000D03*
X126500000Y-103500000D03*
X126500000Y-115500000D03*
X129750000Y-135750000D03*
X124000000Y-117500000D03*
X129750000Y-137500000D03*
X122500000Y-121500000D03*
X124000000Y-118500000D03*
X165250000Y-115500000D03*
X141750000Y-127000000D03*
X130250000Y-123250000D03*
X149750000Y-127000000D03*
X125500000Y-106500000D03*
X129500000Y-125000000D03*
X158500000Y-132500000D03*
X159250000Y-138000000D03*
X133750000Y-127000000D03*
X122500000Y-123500000D03*
X127750000Y-137500000D03*
X161500000Y-133500000D03*
X151750000Y-127000000D03*
X168000000Y-131750000D03*
X124000000Y-122500000D03*
X139250000Y-135750000D03*
X160750000Y-138000000D03*
X140250000Y-113000000D03*
X160750000Y-136500000D03*
X131000000Y-124000000D03*
X162000000Y-142000000D03*
X164250000Y-113500000D03*
X135750000Y-127000000D03*
X139750000Y-127000000D03*
X163250000Y-113500000D03*
X128750000Y-124250000D03*
X138750000Y-125500000D03*
X143250000Y-113000000D03*
X155250000Y-135750000D03*
X158500000Y-133500000D03*
X139250000Y-137250000D03*
X149250000Y-135750000D03*
X143750000Y-127000000D03*
X124250000Y-113250000D03*
X125000000Y-117500000D03*
X152750000Y-127000000D03*
X166750000Y-122750000D03*
X166500000Y-130500000D03*
X160500000Y-112000000D03*
X166250000Y-145750000D03*
X133250000Y-114500000D03*
X132250000Y-113000000D03*
X124250000Y-111750000D03*
X124000000Y-119500000D03*
X168250000Y-127250000D03*
X149750000Y-125500000D03*
X143750000Y-125500000D03*
X156750000Y-127000000D03*
X124000000Y-103500000D03*
X150750000Y-125500000D03*
X125500000Y-103500000D03*
X154750000Y-127000000D03*
X142250000Y-137250000D03*
X141250000Y-114500000D03*
X136250000Y-135750000D03*
X139750000Y-125500000D03*
X160000000Y-132500000D03*
X125000000Y-118500000D03*
X160000000Y-133500000D03*
X137250000Y-137250000D03*
X144750000Y-125500000D03*
X129500000Y-122500000D03*
X150250000Y-137250000D03*
X138250000Y-113000000D03*
X160000000Y-130500000D03*
X131000000Y-126500000D03*
X124250000Y-135000000D03*
X138250000Y-135750000D03*
X124500000Y-139250000D03*
X122500000Y-117500000D03*
X127000000Y-108500000D03*
X158000000Y-141000000D03*
X133000000Y-97500000D03*
X121500000Y-97500000D03*
X119250000Y-56500000D03*
X116500000Y-125500000D03*
X130000000Y-105500000D03*
X118000000Y-127500000D03*
X172500000Y-67500000D03*
X147500000Y-139000000D03*
X142500000Y-57500000D03*
X138500000Y-57000000D03*
X114750000Y-68250000D03*
X133000000Y-79500000D03*
X132000000Y-81500000D03*
X136775000Y-59500000D03*
X130000000Y-87500000D03*
M02*
