M48
; DRILL file {KiCad (6.0.7)} date Wed Dec  7 20:32:30 2022
; FORMAT={-:-/ absolute / metric / decimal}
; #@! TF.CreationDate,2022-12-07T20:32:30-06:00
; #@! TF.GenerationSoftware,Kicad,Pcbnew,(6.0.7)
; #@! TF.FileFunction,Plated,1,4,PTH
FMAT,2
METRIC
; #@! TA.AperFunction,Plated,PTH,ViaDrill
T1C0.400
; #@! TA.AperFunction,Plated,PTH,ComponentDrill
T2C0.900
; #@! TA.AperFunction,Plated,PTH,ComponentDrill
T3C1.000
; #@! TA.AperFunction,Plated,PTH,ComponentDrill
T4C1.016
; #@! TA.AperFunction,Plated,PTH,ComponentDrill
T5C1.280
; #@! TA.AperFunction,Plated,PTH,ComponentDrill
T6C1.850
; #@! TA.AperFunction,Plated,PTH,ComponentDrill
T7C2.500
%
G90
G05
T1
X114.75Y-68.25
X116.5Y-125.5
X118.0Y-127.5
X119.25Y-56.5
X121.5Y-97.5
X121.75Y-128.25
X122.0Y-112.0
X122.0Y-113.0
X122.5Y-115.0
X122.5Y-116.5
X122.5Y-117.5
X122.5Y-118.5
X122.5Y-119.5
X122.5Y-120.5
X122.5Y-121.5
X122.5Y-122.5
X122.5Y-123.5
X122.5Y-124.5
X122.5Y-125.5
X122.5Y-126.5
X122.5Y-127.5
X122.75Y-134.0
X122.75Y-135.0
X123.0Y-99.75
X123.0Y-100.75
X123.0Y-101.75
X123.0Y-102.75
X124.0Y-103.5
X124.0Y-104.5
X124.0Y-105.5
X124.0Y-106.5
X124.0Y-107.5
X124.0Y-108.5
X124.0Y-109.5
X124.0Y-116.5
X124.0Y-117.5
X124.0Y-118.5
X124.0Y-119.5
X124.0Y-120.5
X124.0Y-121.5
X124.0Y-122.5
X124.0Y-123.5
X124.0Y-124.5
X124.0Y-125.5
X124.0Y-126.5
X124.0Y-127.5
X124.25Y-111.75
X124.25Y-113.25
X124.25Y-134.0
X124.25Y-135.0
X124.5Y-139.25
X124.5Y-140.25
X124.75Y-128.25
X125.0Y-112.5
X125.0Y-115.5
X125.0Y-116.5
X125.0Y-117.5
X125.0Y-118.5
X125.0Y-119.5
X125.0Y-120.5
X125.0Y-138.25
X125.5Y-103.5
X125.5Y-104.5
X125.5Y-105.5
X125.5Y-106.5
X125.5Y-107.5
X125.5Y-108.5
X125.5Y-109.5
X125.5Y-139.25
X125.5Y-140.25
X125.75Y-111.75
X125.75Y-113.25
X125.75Y-121.25
X126.5Y-103.5
X126.5Y-115.5
X126.5Y-116.5
X126.5Y-117.5
X126.5Y-118.5
X126.5Y-119.5
X126.5Y-122.0
X127.0Y-108.5
X127.25Y-120.25
X127.25Y-122.75
X127.5Y-115.0
X127.75Y-135.75
X127.75Y-137.5
X128.0Y-121.0
X128.0Y-123.5
X128.25Y-111.0
X128.25Y-114.5
X128.75Y-121.75
X128.75Y-124.25
X128.75Y-135.75
X128.75Y-137.5
X129.25Y-113.0
X129.25Y-114.5
X129.5Y-122.5
X129.5Y-125.0
X129.75Y-135.75
X129.75Y-137.5
X130.0Y-87.5
X130.0Y-105.5
X130.25Y-113.0
X130.25Y-114.5
X130.25Y-123.25
X130.25Y-125.75
X131.0Y-124.0
X131.0Y-126.5
X131.25Y-113.0
X131.25Y-114.5
X131.75Y-124.75
X131.9Y-127.0
X132.0Y-81.5
X132.25Y-113.0
X132.25Y-114.5
X132.5Y-125.5
X132.825Y-127.0
X133.0Y-79.5
X133.0Y-97.5
X133.25Y-113.0
X133.25Y-114.5
X133.75Y-125.5
X133.75Y-127.0
X134.25Y-113.0
X134.25Y-114.5
X134.75Y-125.5
X134.75Y-127.0
X135.25Y-113.0
X135.25Y-114.5
X135.75Y-125.5
X135.75Y-127.0
X136.25Y-113.0
X136.25Y-114.5
X136.25Y-135.75
X136.25Y-137.25
X136.75Y-125.5
X136.75Y-127.0
X136.775Y-59.5
X137.25Y-113.0
X137.25Y-114.5
X137.25Y-135.75
X137.25Y-137.25
X137.75Y-125.5
X137.75Y-127.0
X138.25Y-113.0
X138.25Y-114.5
X138.25Y-135.75
X138.25Y-137.25
X138.5Y-57.0
X138.75Y-125.5
X138.75Y-127.0
X139.25Y-113.0
X139.25Y-114.5
X139.25Y-135.75
X139.25Y-137.25
X139.75Y-125.5
X139.75Y-127.0
X140.25Y-113.0
X140.25Y-114.5
X140.25Y-135.75
X140.25Y-137.25
X140.75Y-125.5
X140.75Y-127.0
X141.25Y-113.0
X141.25Y-114.5
X141.25Y-135.75
X141.25Y-137.25
X141.75Y-125.5
X141.75Y-127.0
X142.25Y-113.0
X142.25Y-114.5
X142.25Y-135.75
X142.25Y-137.25
X142.5Y-57.5
X142.75Y-125.5
X142.75Y-127.0
X143.25Y-113.0
X143.25Y-114.5
X143.25Y-135.75
X143.25Y-137.25
X143.75Y-125.5
X143.75Y-127.0
X144.25Y-135.75
X144.25Y-137.25
X144.75Y-125.5
X144.75Y-127.0
X145.25Y-135.75
X145.25Y-137.25
X145.75Y-125.5
X145.75Y-127.0
X146.25Y-135.75
X146.25Y-137.25
X146.5Y-100.0
X146.5Y-103.0
X146.75Y-125.5
X146.75Y-127.0
X147.25Y-135.75
X147.25Y-137.25
X147.5Y-139.0
X147.75Y-125.5
X147.75Y-127.0
X148.0Y-132.25
X148.25Y-135.75
X148.25Y-137.25
X148.75Y-125.5
X148.75Y-127.0
X149.25Y-135.75
X149.25Y-137.25
X149.5Y-113.5
X149.5Y-115.0
X149.75Y-125.5
X149.75Y-127.0
X150.25Y-135.75
X150.25Y-137.25
X150.75Y-125.5
X150.75Y-127.0
X151.25Y-135.75
X151.25Y-137.25
X151.75Y-125.5
X151.75Y-127.0
X152.25Y-135.75
X152.25Y-137.25
X152.75Y-125.5
X152.75Y-127.0
X153.25Y-135.75
X153.25Y-137.25
X153.75Y-125.5
X153.75Y-127.0
X154.25Y-135.75
X154.25Y-137.25
X154.75Y-125.5
X154.75Y-127.0
X155.25Y-135.75
X155.25Y-137.25
X155.75Y-113.5
X155.75Y-115.0
X155.75Y-125.5
X155.75Y-127.0
X156.25Y-135.75
X156.25Y-137.25
X156.75Y-113.5
X156.75Y-115.0
X156.75Y-125.5
X156.75Y-127.0
X157.0Y-134.25
X157.0Y-141.0
X157.5Y-127.75
X158.0Y-125.75
X158.0Y-141.0
X158.25Y-79.25
X158.25Y-128.5
X158.5Y-129.5
X158.5Y-130.5
X158.5Y-131.5
X158.5Y-132.5
X158.5Y-133.5
X158.75Y-126.5
X159.25Y-136.5
X159.25Y-138.0
X159.25Y-141.0
X159.5Y-111.0
X159.5Y-112.0
X159.5Y-127.25
X159.5Y-142.0
X160.0Y-113.0
X160.0Y-128.25
X160.0Y-129.5
X160.0Y-130.5
X160.0Y-131.5
X160.0Y-132.5
X160.0Y-133.5
X160.0Y-137.25
X160.25Y-142.75
X160.5Y-111.0
X160.5Y-112.0
X160.75Y-136.5
X160.75Y-138.0
X161.0Y-131.0
X161.25Y-141.25
X161.5Y-133.5
X161.5Y-144.75
X162.0Y-142.0
X162.5Y-145.0
X163.0Y-134.25
X163.0Y-140.25
X163.25Y-113.5
X163.25Y-115.5
X163.25Y-145.75
X163.5Y-137.25
X163.5Y-143.5
X164.25Y-113.5
X164.25Y-115.5
X164.25Y-144.25
X164.25Y-145.75
X165.25Y-113.5
X165.25Y-115.5
X165.25Y-144.25
X165.25Y-145.75
X166.25Y-113.0
X166.25Y-116.0
X166.25Y-144.25
X166.25Y-145.75
X166.5Y-130.5
X166.75Y-121.75
X166.75Y-122.75
X166.75Y-126.25
X166.75Y-127.25
X167.0Y-132.5
X168.0Y-114.0
X168.0Y-115.0
X168.0Y-131.75
X168.25Y-121.75
X168.25Y-122.75
X168.25Y-126.25
X168.25Y-127.25
X168.25Y-130.75
X168.5Y-113.0
X168.5Y-116.0
X172.5Y-67.5
X172.5Y-79.5
X172.5Y-80.75
X172.5Y-82.0
T2
X172.5Y-62.5
X172.5Y-65.04
T3
X170.0Y-145.0
T4
X108.37Y-73.73
X108.37Y-76.27
X110.91Y-73.73
X110.91Y-76.27
X113.45Y-73.73
X113.45Y-76.27
X115.99Y-73.73
X115.99Y-76.27
X118.53Y-73.73
X118.53Y-76.27
X121.07Y-73.73
X121.07Y-76.27
X123.61Y-73.73
X123.61Y-76.27
X126.15Y-73.73
X126.15Y-76.27
X128.69Y-73.73
X128.69Y-76.27
X131.23Y-73.73
X131.23Y-76.27
X133.77Y-73.73
X133.77Y-76.27
X136.31Y-73.73
X136.31Y-76.27
X138.85Y-73.73
X138.85Y-76.27
X141.39Y-73.73
X141.39Y-76.27
X143.93Y-73.73
X143.93Y-76.27
X146.47Y-73.73
X146.47Y-76.27
X149.01Y-73.73
X149.01Y-76.27
X151.55Y-73.73
X151.55Y-76.27
X154.09Y-73.73
X154.09Y-76.27
X156.63Y-73.73
X156.63Y-76.27
T5
X167.6Y-142.6
X167.6Y-147.4
X172.4Y-142.6
X172.4Y-147.4
T6
X151.8Y-93.0
X156.5Y-93.0
X161.2Y-93.0
T7
X103.5Y-53.5
X103.5Y-146.5
X181.5Y-53.5
X181.5Y-146.5
T0
M30
