%TF.GenerationSoftware,KiCad,Pcbnew,(6.0.7)*%
%TF.CreationDate,2022-12-07T20:31:12-06:00*%
%TF.ProjectId,Narwal_v1,4e617277-616c-45f7-9631-2e6b69636164,1*%
%TF.SameCoordinates,Original*%
%TF.FileFunction,Legend,Top*%
%TF.FilePolarity,Positive*%
%FSLAX46Y46*%
G04 Gerber Fmt 4.6, Leading zero omitted, Abs format (unit mm)*
G04 Created by KiCad (PCBNEW (6.0.7)) date 2022-12-07 20:31:12*
%MOMM*%
%LPD*%
G01*
G04 APERTURE LIST*
G04 Aperture macros list*
%AMRoundRect*
0 Rectangle with rounded corners*
0 $1 Rounding radius*
0 $2 $3 $4 $5 $6 $7 $8 $9 X,Y pos of 4 corners*
0 Add a 4 corners polygon primitive as box body*
4,1,4,$2,$3,$4,$5,$6,$7,$8,$9,$2,$3,0*
0 Add four circle primitives for the rounded corners*
1,1,$1+$1,$2,$3*
1,1,$1+$1,$4,$5*
1,1,$1+$1,$6,$7*
1,1,$1+$1,$8,$9*
0 Add four rect primitives between the rounded corners*
20,1,$1+$1,$2,$3,$4,$5,0*
20,1,$1+$1,$4,$5,$6,$7,0*
20,1,$1+$1,$6,$7,$8,$9,0*
20,1,$1+$1,$8,$9,$2,$3,0*%
%AMFreePoly0*
4,1,11,0.965200,2.159000,0.965200,-0.254000,0.457200,-0.762000,0.457200,-2.667000,-0.457200,-2.667000,-0.457200,-0.762000,-0.965200,-0.254000,-0.965200,2.159000,-0.457200,2.667000,0.457200,2.667000,0.965200,2.159000,0.965200,2.159000,$1*%
G04 Aperture macros list end*
%ADD10C,0.200000*%
%ADD11C,0.300000*%
%ADD12C,0.150000*%
%ADD13C,0.127000*%
%ADD14C,0.120000*%
%ADD15C,0.250000*%
%ADD16C,0.203200*%
%ADD17C,0.010000*%
%ADD18C,1.800000*%
%ADD19R,1.800000X1.800000*%
%ADD20C,2.775000*%
%ADD21R,2.775000X2.775000*%
%ADD22RoundRect,0.250000X-0.625000X0.312500X-0.625000X-0.312500X0.625000X-0.312500X0.625000X0.312500X0*%
%ADD23RoundRect,0.250000X0.312500X0.625000X-0.312500X0.625000X-0.312500X-0.625000X0.312500X-0.625000X0*%
%ADD24C,5.000000*%
%ADD25RoundRect,0.250000X-0.850000X0.375000X-0.850000X-0.375000X0.850000X-0.375000X0.850000X0.375000X0*%
%ADD26RoundRect,0.250000X0.650000X-0.325000X0.650000X0.325000X-0.650000X0.325000X-0.650000X-0.325000X0*%
%ADD27RoundRect,0.250000X-0.375000X-1.075000X0.375000X-1.075000X0.375000X1.075000X-0.375000X1.075000X0*%
%ADD28R,2.700000X2.700000*%
%ADD29R,0.250000X0.850000*%
%ADD30R,0.850000X0.250000*%
%ADD31RoundRect,0.250000X-0.325000X-0.650000X0.325000X-0.650000X0.325000X0.650000X-0.325000X0.650000X0*%
%ADD32RoundRect,0.250000X0.350000X0.650000X-0.350000X0.650000X-0.350000X-0.650000X0.350000X-0.650000X0*%
%ADD33RoundRect,0.150000X0.150000X0.625000X-0.150000X0.625000X-0.150000X-0.625000X0.150000X-0.625000X0*%
%ADD34C,1.524000*%
%ADD35R,1.524000X1.524000*%
%ADD36RoundRect,0.250000X-0.650000X0.325000X-0.650000X-0.325000X0.650000X-0.325000X0.650000X0.325000X0*%
%ADD37R,0.610000X1.350000*%
%ADD38RoundRect,0.041300X-0.983700X-0.253700X0.983700X-0.253700X0.983700X0.253700X-0.983700X0.253700X0*%
%ADD39RoundRect,0.250000X0.325000X0.650000X-0.325000X0.650000X-0.325000X-0.650000X0.325000X-0.650000X0*%
%ADD40C,1.920000*%
%ADD41C,1.508000*%
%ADD42RoundRect,0.250000X-0.312500X-0.625000X0.312500X-0.625000X0.312500X0.625000X-0.312500X0.625000X0*%
%ADD43R,1.200000X2.800000*%
%ADD44RoundRect,0.250000X-1.075000X0.375000X-1.075000X-0.375000X1.075000X-0.375000X1.075000X0.375000X0*%
%ADD45RoundRect,0.250000X0.625000X-0.312500X0.625000X0.312500X-0.625000X0.312500X-0.625000X-0.312500X0*%
%ADD46RoundRect,0.250000X-0.375000X-0.850000X0.375000X-0.850000X0.375000X0.850000X-0.375000X0.850000X0*%
%ADD47R,0.711200X1.498600*%
%ADD48FreePoly0,180.000000*%
%ADD49C,0.800000*%
G04 APERTURE END LIST*
D10*
X120308571Y-144132142D02*
X120606190Y-144965476D01*
X120903809Y-144132142D01*
X122034761Y-144965476D02*
X121320476Y-144965476D01*
X121677619Y-144965476D02*
X121677619Y-143715476D01*
X121558571Y-143894047D01*
X121439523Y-144013095D01*
X121320476Y-144072619D01*
D11*
X108171190Y-144904761D02*
X108171190Y-142904761D01*
X109314047Y-144904761D01*
X109314047Y-142904761D01*
X110171190Y-144333333D02*
X111123571Y-144333333D01*
X109980714Y-144904761D02*
X110647380Y-142904761D01*
X111314047Y-144904761D01*
X113123571Y-144904761D02*
X112456904Y-143952380D01*
X111980714Y-144904761D02*
X111980714Y-142904761D01*
X112742619Y-142904761D01*
X112933095Y-143000000D01*
X113028333Y-143095238D01*
X113123571Y-143285714D01*
X113123571Y-143571428D01*
X113028333Y-143761904D01*
X112933095Y-143857142D01*
X112742619Y-143952380D01*
X111980714Y-143952380D01*
X113790238Y-142904761D02*
X114266428Y-144904761D01*
X114647380Y-143476190D01*
X115028333Y-144904761D01*
X115504523Y-142904761D01*
X116171190Y-144333333D02*
X117123571Y-144333333D01*
X115980714Y-144904761D02*
X116647380Y-142904761D01*
X117314047Y-144904761D01*
X118933095Y-144904761D02*
X117980714Y-144904761D01*
X117980714Y-142904761D01*
D10*
X108816904Y-147565476D02*
X108400238Y-146970238D01*
X108102619Y-147565476D02*
X108102619Y-146315476D01*
X108578809Y-146315476D01*
X108697857Y-146375000D01*
X108757380Y-146434523D01*
X108816904Y-146553571D01*
X108816904Y-146732142D01*
X108757380Y-146851190D01*
X108697857Y-146910714D01*
X108578809Y-146970238D01*
X108102619Y-146970238D01*
X109352619Y-147565476D02*
X109352619Y-146732142D01*
X109352619Y-146315476D02*
X109293095Y-146375000D01*
X109352619Y-146434523D01*
X109412142Y-146375000D01*
X109352619Y-146315476D01*
X109352619Y-146434523D01*
X110483571Y-147505952D02*
X110364523Y-147565476D01*
X110126428Y-147565476D01*
X110007380Y-147505952D01*
X109947857Y-147446428D01*
X109888333Y-147327380D01*
X109888333Y-146970238D01*
X109947857Y-146851190D01*
X110007380Y-146791666D01*
X110126428Y-146732142D01*
X110364523Y-146732142D01*
X110483571Y-146791666D01*
X111495476Y-147505952D02*
X111376428Y-147565476D01*
X111138333Y-147565476D01*
X111019285Y-147505952D01*
X110959761Y-147386904D01*
X110959761Y-146910714D01*
X111019285Y-146791666D01*
X111138333Y-146732142D01*
X111376428Y-146732142D01*
X111495476Y-146791666D01*
X111555000Y-146910714D01*
X111555000Y-147029761D01*
X110959761Y-147148809D01*
X113043095Y-146910714D02*
X113459761Y-146910714D01*
X113638333Y-147565476D02*
X113043095Y-147565476D01*
X113043095Y-146315476D01*
X113638333Y-146315476D01*
X114709761Y-147505952D02*
X114590714Y-147565476D01*
X114352619Y-147565476D01*
X114233571Y-147505952D01*
X114174047Y-147446428D01*
X114114523Y-147327380D01*
X114114523Y-146970238D01*
X114174047Y-146851190D01*
X114233571Y-146791666D01*
X114352619Y-146732142D01*
X114590714Y-146732142D01*
X114709761Y-146791666D01*
X115424047Y-147565476D02*
X115305000Y-147505952D01*
X115245476Y-147386904D01*
X115245476Y-146315476D01*
X115900238Y-147565476D02*
X115900238Y-146732142D01*
X115900238Y-146315476D02*
X115840714Y-146375000D01*
X115900238Y-146434523D01*
X115959761Y-146375000D01*
X115900238Y-146315476D01*
X115900238Y-146434523D01*
X116495476Y-146732142D02*
X116495476Y-147982142D01*
X116495476Y-146791666D02*
X116614523Y-146732142D01*
X116852619Y-146732142D01*
X116971666Y-146791666D01*
X117031190Y-146851190D01*
X117090714Y-146970238D01*
X117090714Y-147327380D01*
X117031190Y-147446428D01*
X116971666Y-147505952D01*
X116852619Y-147565476D01*
X116614523Y-147565476D01*
X116495476Y-147505952D01*
X117566904Y-147505952D02*
X117685952Y-147565476D01*
X117924047Y-147565476D01*
X118043095Y-147505952D01*
X118102619Y-147386904D01*
X118102619Y-147327380D01*
X118043095Y-147208333D01*
X117924047Y-147148809D01*
X117745476Y-147148809D01*
X117626428Y-147089285D01*
X117566904Y-146970238D01*
X117566904Y-146910714D01*
X117626428Y-146791666D01*
X117745476Y-146732142D01*
X117924047Y-146732142D01*
X118043095Y-146791666D01*
X119114523Y-147505952D02*
X118995476Y-147565476D01*
X118757380Y-147565476D01*
X118638333Y-147505952D01*
X118578809Y-147386904D01*
X118578809Y-146910714D01*
X118638333Y-146791666D01*
X118757380Y-146732142D01*
X118995476Y-146732142D01*
X119114523Y-146791666D01*
X119174047Y-146910714D01*
X119174047Y-147029761D01*
X118578809Y-147148809D01*
D12*
X117968333Y-134547380D02*
X117492142Y-134547380D01*
X117492142Y-133547380D01*
X118777857Y-133547380D02*
X118301666Y-133547380D01*
X118254047Y-134023571D01*
X118301666Y-133975952D01*
X118396904Y-133928333D01*
X118635000Y-133928333D01*
X118730238Y-133975952D01*
X118777857Y-134023571D01*
X118825476Y-134118809D01*
X118825476Y-134356904D01*
X118777857Y-134452142D01*
X118730238Y-134499761D01*
X118635000Y-134547380D01*
X118396904Y-134547380D01*
X118301666Y-134499761D01*
X118254047Y-134452142D01*
X168511904Y-64222380D02*
X168511904Y-63222380D01*
X168750000Y-63222380D01*
X168892857Y-63270000D01*
X168988095Y-63365238D01*
X169035714Y-63460476D01*
X169083333Y-63650952D01*
X169083333Y-63793809D01*
X169035714Y-63984285D01*
X168988095Y-64079523D01*
X168892857Y-64174761D01*
X168750000Y-64222380D01*
X168511904Y-64222380D01*
X170035714Y-64222380D02*
X169464285Y-64222380D01*
X169750000Y-64222380D02*
X169750000Y-63222380D01*
X169654761Y-63365238D01*
X169559523Y-63460476D01*
X169464285Y-63508095D01*
X158913095Y-97849761D02*
X159055952Y-97897380D01*
X159294047Y-97897380D01*
X159389285Y-97849761D01*
X159436904Y-97802142D01*
X159484523Y-97706904D01*
X159484523Y-97611666D01*
X159436904Y-97516428D01*
X159389285Y-97468809D01*
X159294047Y-97421190D01*
X159103571Y-97373571D01*
X159008333Y-97325952D01*
X158960714Y-97278333D01*
X158913095Y-97183095D01*
X158913095Y-97087857D01*
X158960714Y-96992619D01*
X159008333Y-96945000D01*
X159103571Y-96897380D01*
X159341666Y-96897380D01*
X159484523Y-96945000D01*
X160436904Y-97897380D02*
X159865476Y-97897380D01*
X160151190Y-97897380D02*
X160151190Y-96897380D01*
X160055952Y-97040238D01*
X159960714Y-97135476D01*
X159865476Y-97183095D01*
X174583333Y-85952380D02*
X174250000Y-85476190D01*
X174011904Y-85952380D02*
X174011904Y-84952380D01*
X174392857Y-84952380D01*
X174488095Y-85000000D01*
X174535714Y-85047619D01*
X174583333Y-85142857D01*
X174583333Y-85285714D01*
X174535714Y-85380952D01*
X174488095Y-85428571D01*
X174392857Y-85476190D01*
X174011904Y-85476190D01*
X174964285Y-85047619D02*
X175011904Y-85000000D01*
X175107142Y-84952380D01*
X175345238Y-84952380D01*
X175440476Y-85000000D01*
X175488095Y-85047619D01*
X175535714Y-85142857D01*
X175535714Y-85238095D01*
X175488095Y-85380952D01*
X174916666Y-85952380D01*
X175535714Y-85952380D01*
X153083333Y-83952380D02*
X152750000Y-83476190D01*
X152511904Y-83952380D02*
X152511904Y-82952380D01*
X152892857Y-82952380D01*
X152988095Y-83000000D01*
X153035714Y-83047619D01*
X153083333Y-83142857D01*
X153083333Y-83285714D01*
X153035714Y-83380952D01*
X152988095Y-83428571D01*
X152892857Y-83476190D01*
X152511904Y-83476190D01*
X154035714Y-83952380D02*
X153464285Y-83952380D01*
X153750000Y-83952380D02*
X153750000Y-82952380D01*
X153654761Y-83095238D01*
X153559523Y-83190476D01*
X153464285Y-83238095D01*
X142083333Y-119202380D02*
X141607142Y-119202380D01*
X141607142Y-118202380D01*
X142845238Y-118535714D02*
X142845238Y-119202380D01*
X142607142Y-118154761D02*
X142369047Y-118869047D01*
X142988095Y-118869047D01*
X125357142Y-131357142D02*
X125309523Y-131404761D01*
X125166666Y-131452380D01*
X125071428Y-131452380D01*
X124928571Y-131404761D01*
X124833333Y-131309523D01*
X124785714Y-131214285D01*
X124738095Y-131023809D01*
X124738095Y-130880952D01*
X124785714Y-130690476D01*
X124833333Y-130595238D01*
X124928571Y-130500000D01*
X125071428Y-130452380D01*
X125166666Y-130452380D01*
X125309523Y-130500000D01*
X125357142Y-130547619D01*
X126309523Y-131452380D02*
X125738095Y-131452380D01*
X126023809Y-131452380D02*
X126023809Y-130452380D01*
X125928571Y-130595238D01*
X125833333Y-130690476D01*
X125738095Y-130738095D01*
X126642857Y-130452380D02*
X127309523Y-130452380D01*
X126880952Y-131452380D01*
X159833333Y-102952380D02*
X159500000Y-102476190D01*
X159261904Y-102952380D02*
X159261904Y-101952380D01*
X159642857Y-101952380D01*
X159738095Y-102000000D01*
X159785714Y-102047619D01*
X159833333Y-102142857D01*
X159833333Y-102285714D01*
X159785714Y-102380952D01*
X159738095Y-102428571D01*
X159642857Y-102476190D01*
X159261904Y-102476190D01*
X160166666Y-101952380D02*
X160785714Y-101952380D01*
X160452380Y-102333333D01*
X160595238Y-102333333D01*
X160690476Y-102380952D01*
X160738095Y-102428571D01*
X160785714Y-102523809D01*
X160785714Y-102761904D01*
X160738095Y-102857142D01*
X160690476Y-102904761D01*
X160595238Y-102952380D01*
X160309523Y-102952380D01*
X160214285Y-102904761D01*
X160166666Y-102857142D01*
X152583333Y-112202380D02*
X152107142Y-112202380D01*
X152107142Y-111202380D01*
X152869047Y-111297619D02*
X152916666Y-111250000D01*
X153011904Y-111202380D01*
X153250000Y-111202380D01*
X153345238Y-111250000D01*
X153392857Y-111297619D01*
X153440476Y-111392857D01*
X153440476Y-111488095D01*
X153392857Y-111630952D01*
X152821428Y-112202380D01*
X153440476Y-112202380D01*
X163488095Y-135202380D02*
X163488095Y-136011904D01*
X163535714Y-136107142D01*
X163583333Y-136154761D01*
X163678571Y-136202380D01*
X163869047Y-136202380D01*
X163964285Y-136154761D01*
X164011904Y-136107142D01*
X164059523Y-136011904D01*
X164059523Y-135202380D01*
X165011904Y-135202380D02*
X164535714Y-135202380D01*
X164488095Y-135678571D01*
X164535714Y-135630952D01*
X164630952Y-135583333D01*
X164869047Y-135583333D01*
X164964285Y-135630952D01*
X165011904Y-135678571D01*
X165059523Y-135773809D01*
X165059523Y-136011904D01*
X165011904Y-136107142D01*
X164964285Y-136154761D01*
X164869047Y-136202380D01*
X164630952Y-136202380D01*
X164535714Y-136154761D01*
X164488095Y-136107142D01*
X172332142Y-124857142D02*
X172284523Y-124904761D01*
X172141666Y-124952380D01*
X172046428Y-124952380D01*
X171903571Y-124904761D01*
X171808333Y-124809523D01*
X171760714Y-124714285D01*
X171713095Y-124523809D01*
X171713095Y-124380952D01*
X171760714Y-124190476D01*
X171808333Y-124095238D01*
X171903571Y-124000000D01*
X172046428Y-123952380D01*
X172141666Y-123952380D01*
X172284523Y-124000000D01*
X172332142Y-124047619D01*
X173284523Y-124952380D02*
X172713095Y-124952380D01*
X172998809Y-124952380D02*
X172998809Y-123952380D01*
X172903571Y-124095238D01*
X172808333Y-124190476D01*
X172713095Y-124238095D01*
X173903571Y-123952380D02*
X173998809Y-123952380D01*
X174094047Y-124000000D01*
X174141666Y-124047619D01*
X174189285Y-124142857D01*
X174236904Y-124333333D01*
X174236904Y-124571428D01*
X174189285Y-124761904D01*
X174141666Y-124857142D01*
X174094047Y-124904761D01*
X173998809Y-124952380D01*
X173903571Y-124952380D01*
X173808333Y-124904761D01*
X173760714Y-124857142D01*
X173713095Y-124761904D01*
X173665476Y-124571428D01*
X173665476Y-124333333D01*
X173713095Y-124142857D01*
X173760714Y-124047619D01*
X173808333Y-124000000D01*
X173903571Y-123952380D01*
X167166666Y-53452380D02*
X167166666Y-54166666D01*
X167119047Y-54309523D01*
X167023809Y-54404761D01*
X166880952Y-54452380D01*
X166785714Y-54452380D01*
X167595238Y-53547619D02*
X167642857Y-53500000D01*
X167738095Y-53452380D01*
X167976190Y-53452380D01*
X168071428Y-53500000D01*
X168119047Y-53547619D01*
X168166666Y-53642857D01*
X168166666Y-53738095D01*
X168119047Y-53880952D01*
X167547619Y-54452380D01*
X168166666Y-54452380D01*
X169833333Y-110452380D02*
X169357142Y-110452380D01*
X169357142Y-109452380D01*
X170690476Y-110452380D02*
X170119047Y-110452380D01*
X170404761Y-110452380D02*
X170404761Y-109452380D01*
X170309523Y-109595238D01*
X170214285Y-109690476D01*
X170119047Y-109738095D01*
X153357142Y-144107142D02*
X153309523Y-144154761D01*
X153166666Y-144202380D01*
X153071428Y-144202380D01*
X152928571Y-144154761D01*
X152833333Y-144059523D01*
X152785714Y-143964285D01*
X152738095Y-143773809D01*
X152738095Y-143630952D01*
X152785714Y-143440476D01*
X152833333Y-143345238D01*
X152928571Y-143250000D01*
X153071428Y-143202380D01*
X153166666Y-143202380D01*
X153309523Y-143250000D01*
X153357142Y-143297619D01*
X154309523Y-144202380D02*
X153738095Y-144202380D01*
X154023809Y-144202380D02*
X154023809Y-143202380D01*
X153928571Y-143345238D01*
X153833333Y-143440476D01*
X153738095Y-143488095D01*
X154785714Y-144202380D02*
X154976190Y-144202380D01*
X155071428Y-144154761D01*
X155119047Y-144107142D01*
X155214285Y-143964285D01*
X155261904Y-143773809D01*
X155261904Y-143392857D01*
X155214285Y-143297619D01*
X155166666Y-143250000D01*
X155071428Y-143202380D01*
X154880952Y-143202380D01*
X154785714Y-143250000D01*
X154738095Y-143297619D01*
X154690476Y-143392857D01*
X154690476Y-143630952D01*
X154738095Y-143726190D01*
X154785714Y-143773809D01*
X154880952Y-143821428D01*
X155071428Y-143821428D01*
X155166666Y-143773809D01*
X155214285Y-143726190D01*
X155261904Y-143630952D01*
X159238095Y-108702380D02*
X159238095Y-109511904D01*
X159285714Y-109607142D01*
X159333333Y-109654761D01*
X159428571Y-109702380D01*
X159619047Y-109702380D01*
X159714285Y-109654761D01*
X159761904Y-109607142D01*
X159809523Y-109511904D01*
X159809523Y-108702380D01*
X160714285Y-109035714D02*
X160714285Y-109702380D01*
X160476190Y-108654761D02*
X160238095Y-109369047D01*
X160857142Y-109369047D01*
X149357142Y-144107142D02*
X149309523Y-144154761D01*
X149166666Y-144202380D01*
X149071428Y-144202380D01*
X148928571Y-144154761D01*
X148833333Y-144059523D01*
X148785714Y-143964285D01*
X148738095Y-143773809D01*
X148738095Y-143630952D01*
X148785714Y-143440476D01*
X148833333Y-143345238D01*
X148928571Y-143250000D01*
X149071428Y-143202380D01*
X149166666Y-143202380D01*
X149309523Y-143250000D01*
X149357142Y-143297619D01*
X149738095Y-143297619D02*
X149785714Y-143250000D01*
X149880952Y-143202380D01*
X150119047Y-143202380D01*
X150214285Y-143250000D01*
X150261904Y-143297619D01*
X150309523Y-143392857D01*
X150309523Y-143488095D01*
X150261904Y-143630952D01*
X149690476Y-144202380D01*
X150309523Y-144202380D01*
X150928571Y-143202380D02*
X151023809Y-143202380D01*
X151119047Y-143250000D01*
X151166666Y-143297619D01*
X151214285Y-143392857D01*
X151261904Y-143583333D01*
X151261904Y-143821428D01*
X151214285Y-144011904D01*
X151166666Y-144107142D01*
X151119047Y-144154761D01*
X151023809Y-144202380D01*
X150928571Y-144202380D01*
X150833333Y-144154761D01*
X150785714Y-144107142D01*
X150738095Y-144011904D01*
X150690476Y-143821428D01*
X150690476Y-143583333D01*
X150738095Y-143392857D01*
X150785714Y-143297619D01*
X150833333Y-143250000D01*
X150928571Y-143202380D01*
X134857142Y-107857142D02*
X134809523Y-107904761D01*
X134666666Y-107952380D01*
X134571428Y-107952380D01*
X134428571Y-107904761D01*
X134333333Y-107809523D01*
X134285714Y-107714285D01*
X134238095Y-107523809D01*
X134238095Y-107380952D01*
X134285714Y-107190476D01*
X134333333Y-107095238D01*
X134428571Y-107000000D01*
X134571428Y-106952380D01*
X134666666Y-106952380D01*
X134809523Y-107000000D01*
X134857142Y-107047619D01*
X135809523Y-107952380D02*
X135238095Y-107952380D01*
X135523809Y-107952380D02*
X135523809Y-106952380D01*
X135428571Y-107095238D01*
X135333333Y-107190476D01*
X135238095Y-107238095D01*
X136142857Y-106952380D02*
X136761904Y-106952380D01*
X136428571Y-107333333D01*
X136571428Y-107333333D01*
X136666666Y-107380952D01*
X136714285Y-107428571D01*
X136761904Y-107523809D01*
X136761904Y-107761904D01*
X136714285Y-107857142D01*
X136666666Y-107904761D01*
X136571428Y-107952380D01*
X136285714Y-107952380D01*
X136190476Y-107904761D01*
X136142857Y-107857142D01*
X118833333Y-96107142D02*
X118785714Y-96154761D01*
X118642857Y-96202380D01*
X118547619Y-96202380D01*
X118404761Y-96154761D01*
X118309523Y-96059523D01*
X118261904Y-95964285D01*
X118214285Y-95773809D01*
X118214285Y-95630952D01*
X118261904Y-95440476D01*
X118309523Y-95345238D01*
X118404761Y-95250000D01*
X118547619Y-95202380D01*
X118642857Y-95202380D01*
X118785714Y-95250000D01*
X118833333Y-95297619D01*
X119166666Y-95202380D02*
X119785714Y-95202380D01*
X119452380Y-95583333D01*
X119595238Y-95583333D01*
X119690476Y-95630952D01*
X119738095Y-95678571D01*
X119785714Y-95773809D01*
X119785714Y-96011904D01*
X119738095Y-96107142D01*
X119690476Y-96154761D01*
X119595238Y-96202380D01*
X119309523Y-96202380D01*
X119214285Y-96154761D01*
X119166666Y-96107142D01*
X134857142Y-111357142D02*
X134809523Y-111404761D01*
X134666666Y-111452380D01*
X134571428Y-111452380D01*
X134428571Y-111404761D01*
X134333333Y-111309523D01*
X134285714Y-111214285D01*
X134238095Y-111023809D01*
X134238095Y-110880952D01*
X134285714Y-110690476D01*
X134333333Y-110595238D01*
X134428571Y-110500000D01*
X134571428Y-110452380D01*
X134666666Y-110452380D01*
X134809523Y-110500000D01*
X134857142Y-110547619D01*
X135809523Y-111452380D02*
X135238095Y-111452380D01*
X135523809Y-111452380D02*
X135523809Y-110452380D01*
X135428571Y-110595238D01*
X135333333Y-110690476D01*
X135238095Y-110738095D01*
X136190476Y-110547619D02*
X136238095Y-110500000D01*
X136333333Y-110452380D01*
X136571428Y-110452380D01*
X136666666Y-110500000D01*
X136714285Y-110547619D01*
X136761904Y-110642857D01*
X136761904Y-110738095D01*
X136714285Y-110880952D01*
X136142857Y-111452380D01*
X136761904Y-111452380D01*
X113583333Y-58857142D02*
X113535714Y-58904761D01*
X113392857Y-58952380D01*
X113297619Y-58952380D01*
X113154761Y-58904761D01*
X113059523Y-58809523D01*
X113011904Y-58714285D01*
X112964285Y-58523809D01*
X112964285Y-58380952D01*
X113011904Y-58190476D01*
X113059523Y-58095238D01*
X113154761Y-58000000D01*
X113297619Y-57952380D01*
X113392857Y-57952380D01*
X113535714Y-58000000D01*
X113583333Y-58047619D01*
X114440476Y-58285714D02*
X114440476Y-58952380D01*
X114202380Y-57904761D02*
X113964285Y-58619047D01*
X114583333Y-58619047D01*
X127238095Y-54702380D02*
X127238095Y-55511904D01*
X127285714Y-55607142D01*
X127333333Y-55654761D01*
X127428571Y-55702380D01*
X127619047Y-55702380D01*
X127714285Y-55654761D01*
X127761904Y-55607142D01*
X127809523Y-55511904D01*
X127809523Y-54702380D01*
X128238095Y-54797619D02*
X128285714Y-54750000D01*
X128380952Y-54702380D01*
X128619047Y-54702380D01*
X128714285Y-54750000D01*
X128761904Y-54797619D01*
X128809523Y-54892857D01*
X128809523Y-54988095D01*
X128761904Y-55130952D01*
X128190476Y-55702380D01*
X128809523Y-55702380D01*
X144107142Y-130607142D02*
X144059523Y-130654761D01*
X143916666Y-130702380D01*
X143821428Y-130702380D01*
X143678571Y-130654761D01*
X143583333Y-130559523D01*
X143535714Y-130464285D01*
X143488095Y-130273809D01*
X143488095Y-130130952D01*
X143535714Y-129940476D01*
X143583333Y-129845238D01*
X143678571Y-129750000D01*
X143821428Y-129702380D01*
X143916666Y-129702380D01*
X144059523Y-129750000D01*
X144107142Y-129797619D01*
X145059523Y-130702380D02*
X144488095Y-130702380D01*
X144773809Y-130702380D02*
X144773809Y-129702380D01*
X144678571Y-129845238D01*
X144583333Y-129940476D01*
X144488095Y-129988095D01*
X145630952Y-130130952D02*
X145535714Y-130083333D01*
X145488095Y-130035714D01*
X145440476Y-129940476D01*
X145440476Y-129892857D01*
X145488095Y-129797619D01*
X145535714Y-129750000D01*
X145630952Y-129702380D01*
X145821428Y-129702380D01*
X145916666Y-129750000D01*
X145964285Y-129797619D01*
X146011904Y-129892857D01*
X146011904Y-129940476D01*
X145964285Y-130035714D01*
X145916666Y-130083333D01*
X145821428Y-130130952D01*
X145630952Y-130130952D01*
X145535714Y-130178571D01*
X145488095Y-130226190D01*
X145440476Y-130321428D01*
X145440476Y-130511904D01*
X145488095Y-130607142D01*
X145535714Y-130654761D01*
X145630952Y-130702380D01*
X145821428Y-130702380D01*
X145916666Y-130654761D01*
X145964285Y-130607142D01*
X146011904Y-130511904D01*
X146011904Y-130321428D01*
X145964285Y-130226190D01*
X145916666Y-130178571D01*
X145821428Y-130130952D01*
X146083333Y-112607142D02*
X146035714Y-112654761D01*
X145892857Y-112702380D01*
X145797619Y-112702380D01*
X145654761Y-112654761D01*
X145559523Y-112559523D01*
X145511904Y-112464285D01*
X145464285Y-112273809D01*
X145464285Y-112130952D01*
X145511904Y-111940476D01*
X145559523Y-111845238D01*
X145654761Y-111750000D01*
X145797619Y-111702380D01*
X145892857Y-111702380D01*
X146035714Y-111750000D01*
X146083333Y-111797619D01*
X146416666Y-111702380D02*
X147083333Y-111702380D01*
X146654761Y-112702380D01*
X136583333Y-66607142D02*
X136535714Y-66654761D01*
X136392857Y-66702380D01*
X136297619Y-66702380D01*
X136154761Y-66654761D01*
X136059523Y-66559523D01*
X136011904Y-66464285D01*
X135964285Y-66273809D01*
X135964285Y-66130952D01*
X136011904Y-65940476D01*
X136059523Y-65845238D01*
X136154761Y-65750000D01*
X136297619Y-65702380D01*
X136392857Y-65702380D01*
X136535714Y-65750000D01*
X136583333Y-65797619D01*
X136964285Y-65797619D02*
X137011904Y-65750000D01*
X137107142Y-65702380D01*
X137345238Y-65702380D01*
X137440476Y-65750000D01*
X137488095Y-65797619D01*
X137535714Y-65892857D01*
X137535714Y-65988095D01*
X137488095Y-66130952D01*
X136916666Y-66702380D01*
X137535714Y-66702380D01*
X132332142Y-138857142D02*
X132284523Y-138904761D01*
X132141666Y-138952380D01*
X132046428Y-138952380D01*
X131903571Y-138904761D01*
X131808333Y-138809523D01*
X131760714Y-138714285D01*
X131713095Y-138523809D01*
X131713095Y-138380952D01*
X131760714Y-138190476D01*
X131808333Y-138095238D01*
X131903571Y-138000000D01*
X132046428Y-137952380D01*
X132141666Y-137952380D01*
X132284523Y-138000000D01*
X132332142Y-138047619D01*
X133284523Y-138952380D02*
X132713095Y-138952380D01*
X132998809Y-138952380D02*
X132998809Y-137952380D01*
X132903571Y-138095238D01*
X132808333Y-138190476D01*
X132713095Y-138238095D01*
X134141666Y-137952380D02*
X133951190Y-137952380D01*
X133855952Y-138000000D01*
X133808333Y-138047619D01*
X133713095Y-138190476D01*
X133665476Y-138380952D01*
X133665476Y-138761904D01*
X133713095Y-138857142D01*
X133760714Y-138904761D01*
X133855952Y-138952380D01*
X134046428Y-138952380D01*
X134141666Y-138904761D01*
X134189285Y-138857142D01*
X134236904Y-138761904D01*
X134236904Y-138523809D01*
X134189285Y-138428571D01*
X134141666Y-138380952D01*
X134046428Y-138333333D01*
X133855952Y-138333333D01*
X133760714Y-138380952D01*
X133713095Y-138428571D01*
X133665476Y-138523809D01*
X110632142Y-127857142D02*
X110584523Y-127904761D01*
X110441666Y-127952380D01*
X110346428Y-127952380D01*
X110203571Y-127904761D01*
X110108333Y-127809523D01*
X110060714Y-127714285D01*
X110013095Y-127523809D01*
X110013095Y-127380952D01*
X110060714Y-127190476D01*
X110108333Y-127095238D01*
X110203571Y-127000000D01*
X110346428Y-126952380D01*
X110441666Y-126952380D01*
X110584523Y-127000000D01*
X110632142Y-127047619D01*
X111584523Y-127952380D02*
X111013095Y-127952380D01*
X111298809Y-127952380D02*
X111298809Y-126952380D01*
X111203571Y-127095238D01*
X111108333Y-127190476D01*
X111013095Y-127238095D01*
X112441666Y-127285714D02*
X112441666Y-127952380D01*
X112203571Y-126904761D02*
X111965476Y-127619047D01*
X112584523Y-127619047D01*
X169333333Y-100357142D02*
X169285714Y-100404761D01*
X169142857Y-100452380D01*
X169047619Y-100452380D01*
X168904761Y-100404761D01*
X168809523Y-100309523D01*
X168761904Y-100214285D01*
X168714285Y-100023809D01*
X168714285Y-99880952D01*
X168761904Y-99690476D01*
X168809523Y-99595238D01*
X168904761Y-99500000D01*
X169047619Y-99452380D01*
X169142857Y-99452380D01*
X169285714Y-99500000D01*
X169333333Y-99547619D01*
X170238095Y-99452380D02*
X169761904Y-99452380D01*
X169714285Y-99928571D01*
X169761904Y-99880952D01*
X169857142Y-99833333D01*
X170095238Y-99833333D01*
X170190476Y-99880952D01*
X170238095Y-99928571D01*
X170285714Y-100023809D01*
X170285714Y-100261904D01*
X170238095Y-100357142D01*
X170190476Y-100404761D01*
X170095238Y-100452380D01*
X169857142Y-100452380D01*
X169761904Y-100404761D01*
X169714285Y-100357142D01*
X169666666Y-139952380D02*
X169666666Y-140666666D01*
X169619047Y-140809523D01*
X169523809Y-140904761D01*
X169380952Y-140952380D01*
X169285714Y-140952380D01*
X170047619Y-139952380D02*
X170666666Y-139952380D01*
X170333333Y-140333333D01*
X170476190Y-140333333D01*
X170571428Y-140380952D01*
X170619047Y-140428571D01*
X170666666Y-140523809D01*
X170666666Y-140761904D01*
X170619047Y-140857142D01*
X170571428Y-140904761D01*
X170476190Y-140952380D01*
X170190476Y-140952380D01*
X170095238Y-140904761D01*
X170047619Y-140857142D01*
X138333333Y-130702380D02*
X138000000Y-130226190D01*
X137761904Y-130702380D02*
X137761904Y-129702380D01*
X138142857Y-129702380D01*
X138238095Y-129750000D01*
X138285714Y-129797619D01*
X138333333Y-129892857D01*
X138333333Y-130035714D01*
X138285714Y-130130952D01*
X138238095Y-130178571D01*
X138142857Y-130226190D01*
X137761904Y-130226190D01*
X139238095Y-129702380D02*
X138761904Y-129702380D01*
X138714285Y-130178571D01*
X138761904Y-130130952D01*
X138857142Y-130083333D01*
X139095238Y-130083333D01*
X139190476Y-130130952D01*
X139238095Y-130178571D01*
X139285714Y-130273809D01*
X139285714Y-130511904D01*
X139238095Y-130607142D01*
X139190476Y-130654761D01*
X139095238Y-130702380D01*
X138857142Y-130702380D01*
X138761904Y-130654761D01*
X138714285Y-130607142D01*
X114333333Y-96107142D02*
X114285714Y-96154761D01*
X114142857Y-96202380D01*
X114047619Y-96202380D01*
X113904761Y-96154761D01*
X113809523Y-96059523D01*
X113761904Y-95964285D01*
X113714285Y-95773809D01*
X113714285Y-95630952D01*
X113761904Y-95440476D01*
X113809523Y-95345238D01*
X113904761Y-95250000D01*
X114047619Y-95202380D01*
X114142857Y-95202380D01*
X114285714Y-95250000D01*
X114333333Y-95297619D01*
X115285714Y-96202380D02*
X114714285Y-96202380D01*
X115000000Y-96202380D02*
X115000000Y-95202380D01*
X114904761Y-95345238D01*
X114809523Y-95440476D01*
X114714285Y-95488095D01*
X123988095Y-81952380D02*
X123988095Y-82761904D01*
X124035714Y-82857142D01*
X124083333Y-82904761D01*
X124178571Y-82952380D01*
X124369047Y-82952380D01*
X124464285Y-82904761D01*
X124511904Y-82857142D01*
X124559523Y-82761904D01*
X124559523Y-81952380D01*
X125559523Y-82952380D02*
X124988095Y-82952380D01*
X125273809Y-82952380D02*
X125273809Y-81952380D01*
X125178571Y-82095238D01*
X125083333Y-82190476D01*
X124988095Y-82238095D01*
X170083333Y-119352380D02*
X169607142Y-119352380D01*
X169607142Y-118352380D01*
X170321428Y-118352380D02*
X170940476Y-118352380D01*
X170607142Y-118733333D01*
X170750000Y-118733333D01*
X170845238Y-118780952D01*
X170892857Y-118828571D01*
X170940476Y-118923809D01*
X170940476Y-119161904D01*
X170892857Y-119257142D01*
X170845238Y-119304761D01*
X170750000Y-119352380D01*
X170464285Y-119352380D01*
X170369047Y-119304761D01*
X170321428Y-119257142D01*
X163833333Y-130107142D02*
X163785714Y-130154761D01*
X163642857Y-130202380D01*
X163547619Y-130202380D01*
X163404761Y-130154761D01*
X163309523Y-130059523D01*
X163261904Y-129964285D01*
X163214285Y-129773809D01*
X163214285Y-129630952D01*
X163261904Y-129440476D01*
X163309523Y-129345238D01*
X163404761Y-129250000D01*
X163547619Y-129202380D01*
X163642857Y-129202380D01*
X163785714Y-129250000D01*
X163833333Y-129297619D01*
X164404761Y-129630952D02*
X164309523Y-129583333D01*
X164261904Y-129535714D01*
X164214285Y-129440476D01*
X164214285Y-129392857D01*
X164261904Y-129297619D01*
X164309523Y-129250000D01*
X164404761Y-129202380D01*
X164595238Y-129202380D01*
X164690476Y-129250000D01*
X164738095Y-129297619D01*
X164785714Y-129392857D01*
X164785714Y-129440476D01*
X164738095Y-129535714D01*
X164690476Y-129583333D01*
X164595238Y-129630952D01*
X164404761Y-129630952D01*
X164309523Y-129678571D01*
X164261904Y-129726190D01*
X164214285Y-129821428D01*
X164214285Y-130011904D01*
X164261904Y-130107142D01*
X164309523Y-130154761D01*
X164404761Y-130202380D01*
X164595238Y-130202380D01*
X164690476Y-130154761D01*
X164738095Y-130107142D01*
X164785714Y-130011904D01*
X164785714Y-129821428D01*
X164738095Y-129726190D01*
X164690476Y-129678571D01*
X164595238Y-129630952D01*
X170083333Y-58989880D02*
X169750000Y-58513690D01*
X169511904Y-58989880D02*
X169511904Y-57989880D01*
X169892857Y-57989880D01*
X169988095Y-58037500D01*
X170035714Y-58085119D01*
X170083333Y-58180357D01*
X170083333Y-58323214D01*
X170035714Y-58418452D01*
X169988095Y-58466071D01*
X169892857Y-58513690D01*
X169511904Y-58513690D01*
X170940476Y-58323214D02*
X170940476Y-58989880D01*
X170702380Y-57942261D02*
X170464285Y-58656547D01*
X171083333Y-58656547D01*
X129408333Y-132702380D02*
X128932142Y-132702380D01*
X128932142Y-131702380D01*
X130170238Y-131702380D02*
X129979761Y-131702380D01*
X129884523Y-131750000D01*
X129836904Y-131797619D01*
X129741666Y-131940476D01*
X129694047Y-132130952D01*
X129694047Y-132511904D01*
X129741666Y-132607142D01*
X129789285Y-132654761D01*
X129884523Y-132702380D01*
X130075000Y-132702380D01*
X130170238Y-132654761D01*
X130217857Y-132607142D01*
X130265476Y-132511904D01*
X130265476Y-132273809D01*
X130217857Y-132178571D01*
X130170238Y-132130952D01*
X130075000Y-132083333D01*
X129884523Y-132083333D01*
X129789285Y-132130952D01*
X129741666Y-132178571D01*
X129694047Y-132273809D01*
X148583333Y-119357142D02*
X148535714Y-119404761D01*
X148392857Y-119452380D01*
X148297619Y-119452380D01*
X148154761Y-119404761D01*
X148059523Y-119309523D01*
X148011904Y-119214285D01*
X147964285Y-119023809D01*
X147964285Y-118880952D01*
X148011904Y-118690476D01*
X148059523Y-118595238D01*
X148154761Y-118500000D01*
X148297619Y-118452380D01*
X148392857Y-118452380D01*
X148535714Y-118500000D01*
X148583333Y-118547619D01*
X149059523Y-119452380D02*
X149250000Y-119452380D01*
X149345238Y-119404761D01*
X149392857Y-119357142D01*
X149488095Y-119214285D01*
X149535714Y-119023809D01*
X149535714Y-118642857D01*
X149488095Y-118547619D01*
X149440476Y-118500000D01*
X149345238Y-118452380D01*
X149154761Y-118452380D01*
X149059523Y-118500000D01*
X149011904Y-118547619D01*
X148964285Y-118642857D01*
X148964285Y-118880952D01*
X149011904Y-118976190D01*
X149059523Y-119023809D01*
X149154761Y-119071428D01*
X149345238Y-119071428D01*
X149440476Y-119023809D01*
X149488095Y-118976190D01*
X149535714Y-118880952D01*
X110632142Y-131857142D02*
X110584523Y-131904761D01*
X110441666Y-131952380D01*
X110346428Y-131952380D01*
X110203571Y-131904761D01*
X110108333Y-131809523D01*
X110060714Y-131714285D01*
X110013095Y-131523809D01*
X110013095Y-131380952D01*
X110060714Y-131190476D01*
X110108333Y-131095238D01*
X110203571Y-131000000D01*
X110346428Y-130952380D01*
X110441666Y-130952380D01*
X110584523Y-131000000D01*
X110632142Y-131047619D01*
X111584523Y-131952380D02*
X111013095Y-131952380D01*
X111298809Y-131952380D02*
X111298809Y-130952380D01*
X111203571Y-131095238D01*
X111108333Y-131190476D01*
X111013095Y-131238095D01*
X112489285Y-130952380D02*
X112013095Y-130952380D01*
X111965476Y-131428571D01*
X112013095Y-131380952D01*
X112108333Y-131333333D01*
X112346428Y-131333333D01*
X112441666Y-131380952D01*
X112489285Y-131428571D01*
X112536904Y-131523809D01*
X112536904Y-131761904D01*
X112489285Y-131857142D01*
X112441666Y-131904761D01*
X112346428Y-131952380D01*
X112108333Y-131952380D01*
X112013095Y-131904761D01*
X111965476Y-131857142D01*
X169358333Y-104857142D02*
X169310714Y-104904761D01*
X169167857Y-104952380D01*
X169072619Y-104952380D01*
X168929761Y-104904761D01*
X168834523Y-104809523D01*
X168786904Y-104714285D01*
X168739285Y-104523809D01*
X168739285Y-104380952D01*
X168786904Y-104190476D01*
X168834523Y-104095238D01*
X168929761Y-104000000D01*
X169072619Y-103952380D01*
X169167857Y-103952380D01*
X169310714Y-104000000D01*
X169358333Y-104047619D01*
X170215476Y-103952380D02*
X170025000Y-103952380D01*
X169929761Y-104000000D01*
X169882142Y-104047619D01*
X169786904Y-104190476D01*
X169739285Y-104380952D01*
X169739285Y-104761904D01*
X169786904Y-104857142D01*
X169834523Y-104904761D01*
X169929761Y-104952380D01*
X170120238Y-104952380D01*
X170215476Y-104904761D01*
X170263095Y-104857142D01*
X170310714Y-104761904D01*
X170310714Y-104523809D01*
X170263095Y-104428571D01*
X170215476Y-104380952D01*
X170120238Y-104333333D01*
X169929761Y-104333333D01*
X169834523Y-104380952D01*
X169786904Y-104428571D01*
X169739285Y-104523809D01*
X119988095Y-109702380D02*
X119988095Y-110511904D01*
X120035714Y-110607142D01*
X120083333Y-110654761D01*
X120178571Y-110702380D01*
X120369047Y-110702380D01*
X120464285Y-110654761D01*
X120511904Y-110607142D01*
X120559523Y-110511904D01*
X120559523Y-109702380D01*
X120940476Y-109702380D02*
X121559523Y-109702380D01*
X121226190Y-110083333D01*
X121369047Y-110083333D01*
X121464285Y-110130952D01*
X121511904Y-110178571D01*
X121559523Y-110273809D01*
X121559523Y-110511904D01*
X121511904Y-110607142D01*
X121464285Y-110654761D01*
X121369047Y-110702380D01*
X121083333Y-110702380D01*
X120988095Y-110654761D01*
X120940476Y-110607142D01*
X172332142Y-129357142D02*
X172284523Y-129404761D01*
X172141666Y-129452380D01*
X172046428Y-129452380D01*
X171903571Y-129404761D01*
X171808333Y-129309523D01*
X171760714Y-129214285D01*
X171713095Y-129023809D01*
X171713095Y-128880952D01*
X171760714Y-128690476D01*
X171808333Y-128595238D01*
X171903571Y-128500000D01*
X172046428Y-128452380D01*
X172141666Y-128452380D01*
X172284523Y-128500000D01*
X172332142Y-128547619D01*
X173284523Y-129452380D02*
X172713095Y-129452380D01*
X172998809Y-129452380D02*
X172998809Y-128452380D01*
X172903571Y-128595238D01*
X172808333Y-128690476D01*
X172713095Y-128738095D01*
X174236904Y-129452380D02*
X173665476Y-129452380D01*
X173951190Y-129452380D02*
X173951190Y-128452380D01*
X173855952Y-128595238D01*
X173760714Y-128690476D01*
X173665476Y-128738095D01*
X127988095Y-138952380D02*
X127988095Y-139761904D01*
X128035714Y-139857142D01*
X128083333Y-139904761D01*
X128178571Y-139952380D01*
X128369047Y-139952380D01*
X128464285Y-139904761D01*
X128511904Y-139857142D01*
X128559523Y-139761904D01*
X128559523Y-138952380D01*
X129464285Y-138952380D02*
X129273809Y-138952380D01*
X129178571Y-139000000D01*
X129130952Y-139047619D01*
X129035714Y-139190476D01*
X128988095Y-139380952D01*
X128988095Y-139761904D01*
X129035714Y-139857142D01*
X129083333Y-139904761D01*
X129178571Y-139952380D01*
X129369047Y-139952380D01*
X129464285Y-139904761D01*
X129511904Y-139857142D01*
X129559523Y-139761904D01*
X129559523Y-139523809D01*
X129511904Y-139428571D01*
X129464285Y-139380952D01*
X129369047Y-139333333D01*
X129178571Y-139333333D01*
X129083333Y-139380952D01*
X129035714Y-139428571D01*
X128988095Y-139523809D01*
X147166666Y-53452380D02*
X147166666Y-54166666D01*
X147119047Y-54309523D01*
X147023809Y-54404761D01*
X146880952Y-54452380D01*
X146785714Y-54452380D01*
X148166666Y-54452380D02*
X147595238Y-54452380D01*
X147880952Y-54452380D02*
X147880952Y-53452380D01*
X147785714Y-53595238D01*
X147690476Y-53690476D01*
X147595238Y-53738095D01*
D13*
X119600000Y-138000000D02*
X116400000Y-138000000D01*
X116400000Y-135000000D02*
X119600000Y-135000000D01*
D14*
X171420000Y-62729039D02*
G75*
G03*
X171420163Y-64811130I1080000J-1040961D01*
G01*
X173578608Y-65442335D02*
G75*
G03*
X173735516Y-62210000I-1078608J1672335D01*
G01*
X171264484Y-62210000D02*
G75*
G03*
X171421392Y-65442335I1235516J-1560000D01*
G01*
X173579837Y-64811130D02*
G75*
G03*
X173580000Y-62729039I-1079837J1041130D01*
G01*
D13*
X162925000Y-96300000D02*
X150075000Y-96300000D01*
X150075000Y-89700000D02*
X162925000Y-89700000D01*
X162925000Y-89700000D02*
X162925000Y-91250000D01*
X162925000Y-94750000D02*
X162925000Y-96300000D01*
X150075000Y-96300000D02*
X150075000Y-94750000D01*
X150075000Y-91250000D02*
X150075000Y-89700000D01*
D10*
X163900000Y-93100000D02*
G75*
G03*
X163900000Y-93100000I-100000J0D01*
G01*
D14*
X173410000Y-84772936D02*
X173410000Y-86227064D01*
X171590000Y-84772936D02*
X171590000Y-86227064D01*
X153977064Y-84590000D02*
X152522936Y-84590000D01*
X153977064Y-86410000D02*
X152522936Y-86410000D01*
X145860000Y-118488748D02*
X145860000Y-119011252D01*
X143640000Y-118488748D02*
X143640000Y-119011252D01*
X124160000Y-131711252D02*
X124160000Y-130288748D01*
X122340000Y-131711252D02*
X122340000Y-130288748D01*
X160727064Y-103590000D02*
X159272936Y-103590000D01*
X160727064Y-105410000D02*
X159272936Y-105410000D01*
X152147936Y-115610000D02*
X153352064Y-115610000D01*
X152147936Y-112890000D02*
X153352064Y-112890000D01*
D15*
X162284000Y-140139000D02*
G75*
G03*
X162284000Y-140139000I-125000J0D01*
G01*
D14*
X168263748Y-125410000D02*
X169686252Y-125410000D01*
X168263748Y-123590000D02*
X169686252Y-123590000D01*
X164560000Y-55785000D02*
X164560000Y-56775000D01*
X165610000Y-55785000D02*
X164560000Y-55785000D01*
X165610000Y-53285000D02*
X165610000Y-55785000D01*
X164440000Y-51315000D02*
X160560000Y-51315000D01*
X159390000Y-55785000D02*
X160440000Y-55785000D01*
X159390000Y-53285000D02*
X159390000Y-55785000D01*
X168610000Y-109738748D02*
X168610000Y-110261252D01*
X166390000Y-109738748D02*
X166390000Y-110261252D01*
X154910000Y-139763748D02*
X154910000Y-141186252D01*
X153090000Y-139763748D02*
X153090000Y-141186252D01*
D13*
X157755000Y-111154000D02*
X157755000Y-113594000D01*
X157755000Y-111154000D02*
X158402500Y-111154000D01*
X157755000Y-113594000D02*
X157882500Y-113594000D01*
X162250000Y-113594000D02*
X162250000Y-111154000D01*
X162250000Y-111154000D02*
X161602500Y-111154000D01*
X162122500Y-113594000D02*
X162250000Y-113594000D01*
D14*
X150910000Y-139763748D02*
X150910000Y-141186252D01*
X149090000Y-139763748D02*
X149090000Y-141186252D01*
X130788748Y-106590000D02*
X132211252Y-106590000D01*
X130788748Y-108410000D02*
X132211252Y-108410000D01*
X118090000Y-99711252D02*
X118090000Y-98288748D01*
X119910000Y-99711252D02*
X119910000Y-98288748D01*
X130788748Y-111910000D02*
X132211252Y-111910000D01*
X130788748Y-110090000D02*
X132211252Y-110090000D01*
X117038748Y-57590000D02*
X118461252Y-57590000D01*
X117038748Y-59410000D02*
X118461252Y-59410000D01*
D10*
X121395000Y-56465000D02*
G75*
G03*
X121395000Y-56465000I-100000J0D01*
G01*
D13*
X124200000Y-56250000D02*
X131800000Y-56250000D01*
X124200000Y-66750000D02*
X131800000Y-66750000D01*
D14*
X144038748Y-133160000D02*
X145461252Y-133160000D01*
X144038748Y-131340000D02*
X145461252Y-131340000D01*
X145538748Y-115160000D02*
X146961252Y-115160000D01*
X145538748Y-113340000D02*
X146961252Y-113340000D01*
X135865000Y-62288748D02*
X135865000Y-63711252D01*
X137685000Y-62288748D02*
X137685000Y-63711252D01*
X133686252Y-135590000D02*
X132263748Y-135590000D01*
X133686252Y-137410000D02*
X132263748Y-137410000D01*
X115736252Y-126590000D02*
X114313748Y-126590000D01*
X115736252Y-128410000D02*
X114313748Y-128410000D01*
X166736252Y-99090000D02*
X165313748Y-99090000D01*
X166736252Y-100910000D02*
X165313748Y-100910000D01*
D13*
X173200000Y-144000000D02*
X173200000Y-146000000D01*
X169000000Y-141800000D02*
X171000000Y-141800000D01*
X166800000Y-146000000D02*
X166800000Y-144000000D01*
X171000000Y-148200000D02*
X169000000Y-148200000D01*
D14*
X137772936Y-133160000D02*
X139227064Y-133160000D01*
X137772936Y-131340000D02*
X139227064Y-131340000D01*
X113590000Y-99711252D02*
X113590000Y-98288748D01*
X115410000Y-99711252D02*
X115410000Y-98288748D01*
D10*
X139165000Y-82865000D02*
G75*
G03*
X139165000Y-82865000I-100000J0D01*
G01*
D13*
X140000000Y-85000000D02*
X140000000Y-101000000D01*
X124000000Y-101000000D02*
X124000000Y-85000000D01*
D14*
X166140000Y-118297936D02*
X166140000Y-119502064D01*
X168860000Y-118297936D02*
X168860000Y-119502064D01*
X164711252Y-132660000D02*
X163288748Y-132660000D01*
X164711252Y-130840000D02*
X163288748Y-130840000D01*
X173410000Y-59264564D02*
X173410000Y-57810436D01*
X171590000Y-59264564D02*
X171590000Y-57810436D01*
X132313748Y-131140000D02*
X132836252Y-131140000D01*
X132313748Y-133360000D02*
X132836252Y-133360000D01*
X150340000Y-118288748D02*
X150340000Y-119711252D01*
X152160000Y-118288748D02*
X152160000Y-119711252D01*
X115736252Y-130590000D02*
X114313748Y-130590000D01*
X115736252Y-132410000D02*
X114313748Y-132410000D01*
X166736252Y-105410000D02*
X165313748Y-105410000D01*
X166736252Y-103590000D02*
X165313748Y-103590000D01*
D15*
X122585000Y-109865000D02*
G75*
G03*
X122585000Y-109865000I-125000J0D01*
G01*
D14*
X168263748Y-128090000D02*
X169686252Y-128090000D01*
X168263748Y-129910000D02*
X169686252Y-129910000D01*
D16*
X123603000Y-140659000D02*
X122714000Y-140659000D01*
X127311400Y-140684400D02*
X126397000Y-140684400D01*
X127311400Y-138246000D02*
X126397000Y-138246000D01*
X122714000Y-138220600D02*
X123628400Y-138220600D01*
X122714000Y-140659000D02*
X122714000Y-138220600D01*
X127311400Y-140684400D02*
X127311400Y-138246000D01*
D14*
X155610000Y-55785000D02*
X154560000Y-55785000D01*
X154440000Y-51315000D02*
X150560000Y-51315000D01*
X155610000Y-53285000D02*
X155610000Y-55785000D01*
X149390000Y-53285000D02*
X149390000Y-55785000D01*
X154560000Y-55785000D02*
X154560000Y-56775000D01*
X149390000Y-55785000D02*
X150440000Y-55785000D01*
%LPC*%
G36*
X119750000Y-135900000D02*
G01*
X120850000Y-135900000D01*
X120850000Y-137100000D01*
X119750000Y-137100000D01*
X119750000Y-137600000D01*
X118550000Y-137600000D01*
X118550000Y-135400000D01*
X119750000Y-135400000D01*
X119750000Y-135900000D01*
G37*
D17*
X119750000Y-135900000D02*
X120850000Y-135900000D01*
X120850000Y-137100000D01*
X119750000Y-137100000D01*
X119750000Y-137600000D01*
X118550000Y-137600000D01*
X118550000Y-135400000D01*
X119750000Y-135400000D01*
X119750000Y-135900000D01*
G36*
X117450000Y-137600000D02*
G01*
X116250000Y-137600000D01*
X116250000Y-137100000D01*
X115150000Y-137100000D01*
X115150000Y-135900000D01*
X116250000Y-135900000D01*
X116250000Y-135400000D01*
X117450000Y-135400000D01*
X117450000Y-137600000D01*
G37*
X117450000Y-137600000D02*
X116250000Y-137600000D01*
X116250000Y-137100000D01*
X115150000Y-137100000D01*
X115150000Y-135900000D01*
X116250000Y-135900000D01*
X116250000Y-135400000D01*
X117450000Y-135400000D01*
X117450000Y-137600000D01*
G36*
X161292500Y-110633830D02*
G01*
X161292500Y-113294000D01*
X160824269Y-113294000D01*
X160492500Y-113627330D01*
X160492500Y-115169000D01*
X159512500Y-115169000D01*
X159512500Y-113627330D01*
X159180731Y-113294000D01*
X158712500Y-113294000D01*
X158712500Y-110633830D01*
X159075131Y-110274000D01*
X160929869Y-110274000D01*
X161292500Y-110633830D01*
G37*
X161292500Y-110633830D02*
X161292500Y-113294000D01*
X160824269Y-113294000D01*
X160492500Y-113627330D01*
X160492500Y-115169000D01*
X159512500Y-115169000D01*
X159512500Y-113627330D01*
X159180731Y-113294000D01*
X158712500Y-113294000D01*
X158712500Y-110633830D01*
X159075131Y-110274000D01*
X160929869Y-110274000D01*
X161292500Y-110633830D01*
G36*
X126092200Y-138195200D02*
G01*
X126092200Y-140735200D01*
X125584200Y-141243200D01*
X124441200Y-141243200D01*
X123933200Y-140735200D01*
X123933200Y-138195200D01*
X124441200Y-137687200D01*
X125584200Y-137687200D01*
X126092200Y-138195200D01*
G37*
D18*
X172500000Y-65040000D03*
D19*
X172500000Y-62500000D03*
D20*
X156500000Y-93000000D03*
D21*
X161200000Y-93000000D03*
D20*
X151800000Y-93000000D03*
D22*
X172500000Y-86962500D03*
X172500000Y-84037500D03*
D23*
X154712500Y-85500000D03*
X151787500Y-85500000D03*
D24*
X103500000Y-146500000D03*
X181500000Y-146500000D03*
X181500000Y-53500000D03*
X103500000Y-53500000D03*
D25*
X144750000Y-119825000D03*
X144750000Y-117675000D03*
D26*
X123250000Y-129525000D03*
X123250000Y-132475000D03*
D23*
X158537500Y-104500000D03*
X161462500Y-104500000D03*
D27*
X154150000Y-114250000D03*
X151350000Y-114250000D03*
D28*
X160000000Y-137250000D03*
D29*
X161250000Y-139200000D03*
X160750000Y-139200000D03*
X160250000Y-139200000D03*
X159750000Y-139200000D03*
X159250000Y-139200000D03*
X158750000Y-139200000D03*
D30*
X158050000Y-138500000D03*
X158050000Y-138000000D03*
X158050000Y-137500000D03*
X158050000Y-137000000D03*
X158050000Y-136500000D03*
X158050000Y-136000000D03*
D29*
X158750000Y-135300000D03*
X159250000Y-135300000D03*
X159750000Y-135300000D03*
X160250000Y-135300000D03*
X160750000Y-135300000D03*
X161250000Y-135300000D03*
D30*
X161950000Y-136000000D03*
X161950000Y-136500000D03*
X161950000Y-137000000D03*
X161950000Y-137500000D03*
X161950000Y-138000000D03*
X161950000Y-138500000D03*
D31*
X170450000Y-124500000D03*
X167500000Y-124500000D03*
D32*
X165300000Y-52125000D03*
X159700000Y-52125000D03*
D33*
X161000000Y-56000000D03*
X162000000Y-56000000D03*
X163000000Y-56000000D03*
X164000000Y-56000000D03*
D25*
X167500000Y-111075000D03*
X167500000Y-108925000D03*
D34*
X156630000Y-73730000D03*
X156630000Y-76270000D03*
X154090000Y-73730000D03*
X154090000Y-76270000D03*
X151550000Y-73730000D03*
X151550000Y-76270000D03*
X149010000Y-73730000D03*
X149010000Y-76270000D03*
X146470000Y-73730000D03*
X146470000Y-76270000D03*
X143930000Y-73730000D03*
X143930000Y-76270000D03*
X141390000Y-73730000D03*
X141390000Y-76270000D03*
X138850000Y-73730000D03*
X138850000Y-76270000D03*
X136310000Y-73730000D03*
X136310000Y-76270000D03*
X133770000Y-73730000D03*
X133770000Y-76270000D03*
X131230000Y-73730000D03*
X131230000Y-76270000D03*
X128690000Y-73730000D03*
X128690000Y-76270000D03*
X126150000Y-73730000D03*
X126150000Y-76270000D03*
X123610000Y-73730000D03*
X123610000Y-76270000D03*
X121070000Y-73730000D03*
X121070000Y-76270000D03*
X118530000Y-73730000D03*
X118530000Y-76270000D03*
X115990000Y-73730000D03*
X115990000Y-76270000D03*
X113450000Y-73730000D03*
X113450000Y-76270000D03*
X110910000Y-73730000D03*
X110910000Y-76270000D03*
X108370000Y-73730000D03*
D35*
X108370000Y-76270000D03*
D36*
X154000000Y-141950000D03*
X154000000Y-139000000D03*
D37*
X161497500Y-114394000D03*
X158507500Y-114394000D03*
D36*
X150000000Y-141950000D03*
X150000000Y-139000000D03*
D31*
X132975000Y-107500000D03*
X130025000Y-107500000D03*
D26*
X119000000Y-97525000D03*
X119000000Y-100475000D03*
D31*
X132975000Y-111000000D03*
X130025000Y-111000000D03*
X119225000Y-58500000D03*
X116275000Y-58500000D03*
D38*
X132655000Y-57055000D03*
X132655000Y-58325000D03*
X132655000Y-59595000D03*
X132655000Y-60865000D03*
X132655000Y-62135000D03*
X132655000Y-63405000D03*
X132655000Y-64675000D03*
X132655000Y-65945000D03*
X123345000Y-65945000D03*
X123345000Y-64675000D03*
X123345000Y-63405000D03*
X123345000Y-62135000D03*
X123345000Y-60865000D03*
X123345000Y-59595000D03*
X123345000Y-58325000D03*
X123345000Y-57055000D03*
D31*
X146225000Y-132250000D03*
X143275000Y-132250000D03*
X147725000Y-114250000D03*
X144775000Y-114250000D03*
D36*
X136775000Y-64475000D03*
X136775000Y-61525000D03*
D39*
X131500000Y-136500000D03*
X134450000Y-136500000D03*
X113550000Y-127500000D03*
X116500000Y-127500000D03*
X164550000Y-100000000D03*
X167500000Y-100000000D03*
D40*
X172400000Y-142600000D03*
X172400000Y-147400000D03*
X167600000Y-147400000D03*
X167600000Y-142600000D03*
D41*
X170000000Y-145000000D03*
D42*
X139962500Y-132250000D03*
X137037500Y-132250000D03*
D26*
X114500000Y-97525000D03*
X114500000Y-100475000D03*
D43*
X139000000Y-101000000D03*
X137000000Y-101000000D03*
X135000000Y-101000000D03*
X133000000Y-101000000D03*
X131000000Y-101000000D03*
X129000000Y-101000000D03*
X127000000Y-101000000D03*
X125000000Y-101000000D03*
X125000000Y-85000000D03*
X127000000Y-85000000D03*
X129000000Y-85000000D03*
X131000000Y-85000000D03*
X133000000Y-85000000D03*
X135000000Y-85000000D03*
X137000000Y-85000000D03*
X139000000Y-85000000D03*
D44*
X167500000Y-120300000D03*
X167500000Y-117500000D03*
D39*
X162525000Y-131750000D03*
X165475000Y-131750000D03*
D45*
X172500000Y-57075000D03*
X172500000Y-60000000D03*
D46*
X133650000Y-132250000D03*
X131500000Y-132250000D03*
D36*
X151250000Y-120475000D03*
X151250000Y-117525000D03*
D39*
X113550000Y-131500000D03*
X116500000Y-131500000D03*
X164550000Y-104500000D03*
X167500000Y-104500000D03*
D28*
X125000000Y-112500000D03*
D29*
X123750000Y-110550000D03*
X124250000Y-110550000D03*
X124750000Y-110550000D03*
X125250000Y-110550000D03*
X125750000Y-110550000D03*
X126250000Y-110550000D03*
D30*
X126950000Y-111250000D03*
X126950000Y-111750000D03*
X126950000Y-112250000D03*
X126950000Y-112750000D03*
X126950000Y-113250000D03*
X126950000Y-113750000D03*
D29*
X126250000Y-114450000D03*
X125750000Y-114450000D03*
X125250000Y-114450000D03*
X124750000Y-114450000D03*
X124250000Y-114450000D03*
X123750000Y-114450000D03*
D30*
X123050000Y-113750000D03*
X123050000Y-113250000D03*
X123050000Y-112750000D03*
X123050000Y-112250000D03*
X123050000Y-111750000D03*
X123050000Y-111250000D03*
D31*
X170450000Y-129000000D03*
X167500000Y-129000000D03*
D47*
X123501400Y-136595000D03*
D48*
X125000000Y-138500000D03*
D47*
X126498600Y-136595000D03*
D32*
X149700000Y-52125000D03*
X155300000Y-52125000D03*
D33*
X151000000Y-56000000D03*
X152000000Y-56000000D03*
X153000000Y-56000000D03*
X154000000Y-56000000D03*
D49*
X172500000Y-79500000D03*
X172500000Y-80750000D03*
X172500000Y-82000000D03*
X146500000Y-100000000D03*
X146500000Y-103000000D03*
X128250000Y-111000000D03*
X158250000Y-79250000D03*
X157000000Y-141000000D03*
X141250000Y-135750000D03*
X128000000Y-121000000D03*
X125500000Y-104500000D03*
X124000000Y-106500000D03*
X158500000Y-131500000D03*
X160000000Y-137250000D03*
X163500000Y-137250000D03*
X126500000Y-117500000D03*
X159500000Y-127250000D03*
X134250000Y-113000000D03*
X164250000Y-145750000D03*
X140250000Y-137250000D03*
X166250000Y-144250000D03*
X168500000Y-113000000D03*
X130250000Y-125750000D03*
X131250000Y-114500000D03*
X168250000Y-130750000D03*
X122000000Y-113000000D03*
X148000000Y-132250000D03*
X159500000Y-112000000D03*
X148750000Y-127000000D03*
X167000000Y-132500000D03*
X159250000Y-141000000D03*
X124000000Y-109500000D03*
X139250000Y-113000000D03*
X124000000Y-108500000D03*
X154250000Y-137250000D03*
X136750000Y-125500000D03*
X152750000Y-125500000D03*
X137250000Y-113000000D03*
X123000000Y-99750000D03*
X154750000Y-125500000D03*
X155750000Y-115000000D03*
X149500000Y-115000000D03*
X134750000Y-127000000D03*
X165250000Y-145750000D03*
X147750000Y-127000000D03*
X160000000Y-129500000D03*
X166750000Y-126250000D03*
X159500000Y-111000000D03*
X155750000Y-127000000D03*
X122500000Y-119500000D03*
X161250000Y-141250000D03*
X156750000Y-115000000D03*
X124000000Y-125500000D03*
X125000000Y-112500000D03*
X123000000Y-100750000D03*
X150250000Y-135750000D03*
X146250000Y-135750000D03*
X126500000Y-116500000D03*
X147750000Y-125500000D03*
X123000000Y-101750000D03*
X129250000Y-114500000D03*
X168500000Y-116000000D03*
X125000000Y-115500000D03*
X147250000Y-137250000D03*
X138750000Y-127000000D03*
X153750000Y-127000000D03*
X125500000Y-109500000D03*
X142250000Y-135750000D03*
X129250000Y-113000000D03*
X145250000Y-135750000D03*
X127750000Y-135750000D03*
X149500000Y-113500000D03*
X163000000Y-134250000D03*
X128750000Y-137500000D03*
X125500000Y-139250000D03*
X130250000Y-113000000D03*
X141250000Y-113000000D03*
X148750000Y-125500000D03*
X165250000Y-144250000D03*
X127250000Y-120250000D03*
X125750000Y-111750000D03*
X122500000Y-124500000D03*
X121750000Y-128250000D03*
X148250000Y-137250000D03*
X124500000Y-140250000D03*
X144750000Y-127000000D03*
X151750000Y-125500000D03*
X125000000Y-116500000D03*
X124000000Y-116500000D03*
X150750000Y-127000000D03*
X124000000Y-121500000D03*
X128750000Y-135750000D03*
X153750000Y-125500000D03*
X124000000Y-123500000D03*
X161000000Y-131000000D03*
X124000000Y-105500000D03*
X154250000Y-135750000D03*
X153250000Y-135750000D03*
X136250000Y-113000000D03*
X164250000Y-115500000D03*
X148250000Y-135750000D03*
X158750000Y-126500000D03*
X141750000Y-125500000D03*
X166250000Y-116000000D03*
X142250000Y-113000000D03*
X166750000Y-127250000D03*
X122500000Y-126500000D03*
X124000000Y-126500000D03*
X124250000Y-134000000D03*
X149250000Y-137250000D03*
X160250000Y-142750000D03*
X137750000Y-127000000D03*
X128000000Y-123500000D03*
X168000000Y-114000000D03*
X140250000Y-135750000D03*
X142750000Y-125500000D03*
X156750000Y-125500000D03*
X163500000Y-143500000D03*
X136750000Y-127000000D03*
X127250000Y-122750000D03*
X156250000Y-137250000D03*
X163250000Y-145750000D03*
X135250000Y-113000000D03*
X122750000Y-134000000D03*
X168250000Y-122750000D03*
X132250000Y-114500000D03*
X153250000Y-137250000D03*
X156750000Y-113500000D03*
X156250000Y-135750000D03*
X124000000Y-120500000D03*
X163000000Y-140250000D03*
X122500000Y-115000000D03*
X147250000Y-135750000D03*
X151250000Y-137250000D03*
X146250000Y-137250000D03*
X168250000Y-126250000D03*
X122750000Y-135000000D03*
X158000000Y-125750000D03*
X136250000Y-137250000D03*
X141250000Y-137250000D03*
X122500000Y-125500000D03*
X125000000Y-120500000D03*
X140750000Y-125500000D03*
X139250000Y-114500000D03*
X127500000Y-115000000D03*
X143250000Y-114500000D03*
X143250000Y-135750000D03*
X135250000Y-114500000D03*
X145750000Y-125500000D03*
X125000000Y-138250000D03*
X144250000Y-137250000D03*
X137250000Y-114500000D03*
X162500000Y-145000000D03*
X152250000Y-135750000D03*
X158500000Y-129500000D03*
X158250000Y-128500000D03*
X125500000Y-105500000D03*
X163250000Y-115500000D03*
X123000000Y-102750000D03*
X138250000Y-114500000D03*
X160000000Y-128250000D03*
X161500000Y-144750000D03*
X125000000Y-119500000D03*
X125750000Y-113250000D03*
X159250000Y-136500000D03*
X166750000Y-121750000D03*
X140250000Y-114500000D03*
X126500000Y-119500000D03*
X135750000Y-125500000D03*
X125500000Y-108500000D03*
X165250000Y-113500000D03*
X145250000Y-137250000D03*
X132500000Y-125500000D03*
X124000000Y-104500000D03*
X134750000Y-125500000D03*
X125750000Y-121250000D03*
X157500000Y-127750000D03*
X125500000Y-140250000D03*
X131750000Y-124750000D03*
X160000000Y-131500000D03*
X145750000Y-127000000D03*
X142250000Y-114500000D03*
X160500000Y-111000000D03*
X166250000Y-113000000D03*
X168250000Y-121750000D03*
X155750000Y-113500000D03*
X143250000Y-137250000D03*
X126500000Y-118500000D03*
X132825000Y-127000000D03*
X138250000Y-137250000D03*
X155250000Y-137250000D03*
X125500000Y-107500000D03*
X164250000Y-144250000D03*
X124000000Y-124500000D03*
X128250000Y-114500000D03*
X122500000Y-120500000D03*
X151250000Y-135750000D03*
X122500000Y-122500000D03*
X158500000Y-130500000D03*
X124000000Y-107500000D03*
X155750000Y-125500000D03*
X140750000Y-127000000D03*
X124750000Y-128250000D03*
X157000000Y-134250000D03*
X146750000Y-127000000D03*
X134250000Y-114500000D03*
X122500000Y-127500000D03*
X124000000Y-127500000D03*
X137250000Y-135750000D03*
X160000000Y-113000000D03*
X131900000Y-127000000D03*
X130250000Y-114500000D03*
X168000000Y-115000000D03*
X128750000Y-121750000D03*
X131250000Y-113000000D03*
X133750000Y-125500000D03*
X133250000Y-113000000D03*
X142750000Y-127000000D03*
X122500000Y-116500000D03*
X146750000Y-125500000D03*
X122000000Y-112000000D03*
X144250000Y-135750000D03*
X126500000Y-122000000D03*
X137750000Y-125500000D03*
X122500000Y-118500000D03*
X159500000Y-142000000D03*
X136250000Y-114500000D03*
X152250000Y-137250000D03*
X126500000Y-103500000D03*
X126500000Y-115500000D03*
X129750000Y-135750000D03*
X124000000Y-117500000D03*
X129750000Y-137500000D03*
X122500000Y-121500000D03*
X124000000Y-118500000D03*
X165250000Y-115500000D03*
X141750000Y-127000000D03*
X130250000Y-123250000D03*
X149750000Y-127000000D03*
X125500000Y-106500000D03*
X129500000Y-125000000D03*
X158500000Y-132500000D03*
X159250000Y-138000000D03*
X133750000Y-127000000D03*
X122500000Y-123500000D03*
X127750000Y-137500000D03*
X161500000Y-133500000D03*
X151750000Y-127000000D03*
X168000000Y-131750000D03*
X124000000Y-122500000D03*
X139250000Y-135750000D03*
X160750000Y-138000000D03*
X140250000Y-113000000D03*
X160750000Y-136500000D03*
X131000000Y-124000000D03*
X162000000Y-142000000D03*
X164250000Y-113500000D03*
X135750000Y-127000000D03*
X139750000Y-127000000D03*
X163250000Y-113500000D03*
X128750000Y-124250000D03*
X138750000Y-125500000D03*
X143250000Y-113000000D03*
X155250000Y-135750000D03*
X158500000Y-133500000D03*
X139250000Y-137250000D03*
X149250000Y-135750000D03*
X143750000Y-127000000D03*
X124250000Y-113250000D03*
X125000000Y-117500000D03*
X152750000Y-127000000D03*
X166750000Y-122750000D03*
X166500000Y-130500000D03*
X160500000Y-112000000D03*
X166250000Y-145750000D03*
X133250000Y-114500000D03*
X132250000Y-113000000D03*
X124250000Y-111750000D03*
X124000000Y-119500000D03*
X168250000Y-127250000D03*
X149750000Y-125500000D03*
X143750000Y-125500000D03*
X156750000Y-127000000D03*
X124000000Y-103500000D03*
X150750000Y-125500000D03*
X125500000Y-103500000D03*
X154750000Y-127000000D03*
X142250000Y-137250000D03*
X141250000Y-114500000D03*
X136250000Y-135750000D03*
X139750000Y-125500000D03*
X160000000Y-132500000D03*
X125000000Y-118500000D03*
X160000000Y-133500000D03*
X137250000Y-137250000D03*
X144750000Y-125500000D03*
X129500000Y-122500000D03*
X150250000Y-137250000D03*
X138250000Y-113000000D03*
X160000000Y-130500000D03*
X131000000Y-126500000D03*
X124250000Y-135000000D03*
X138250000Y-135750000D03*
X124500000Y-139250000D03*
X122500000Y-117500000D03*
X127000000Y-108500000D03*
X158000000Y-141000000D03*
X133000000Y-97500000D03*
X121500000Y-97500000D03*
X119250000Y-56500000D03*
X116500000Y-125500000D03*
X130000000Y-105500000D03*
X118000000Y-127500000D03*
X172500000Y-67500000D03*
X147500000Y-139000000D03*
X142500000Y-57500000D03*
X138500000Y-57000000D03*
X114750000Y-68250000D03*
X133000000Y-79500000D03*
X132000000Y-81500000D03*
X136775000Y-59500000D03*
X130000000Y-87500000D03*
M02*
