G04 #@! TF.GenerationSoftware,KiCad,Pcbnew,(6.0.7)*
G04 #@! TF.CreationDate,2022-12-13T13:41:41-06:00*
G04 #@! TF.ProjectId,Narwal_v1,4e617277-616c-45f7-9631-2e6b69636164,1*
G04 #@! TF.SameCoordinates,Original*
G04 #@! TF.FileFunction,Legend,Bot*
G04 #@! TF.FilePolarity,Positive*
%FSLAX46Y46*%
G04 Gerber Fmt 4.6, Leading zero omitted, Abs format (unit mm)*
G04 Created by KiCad (PCBNEW (6.0.7)) date 2022-12-13 13:41:41*
%MOMM*%
%LPD*%
G01*
G04 APERTURE LIST*
%ADD10C,0.180000*%
%ADD11C,0.200000*%
%ADD12R,1.800000X1.800000*%
%ADD13C,1.800000*%
%ADD14C,5.000000*%
%ADD15R,2.775000X2.775000*%
%ADD16C,2.775000*%
%ADD17R,1.524000X1.524000*%
%ADD18C,1.524000*%
%ADD19C,1.508000*%
%ADD20C,1.920000*%
%ADD21R,4.500000X2.300000*%
G04 APERTURE END LIST*
D10*
X117500000Y-82500000D02*
X107500000Y-82500000D01*
X107500000Y-82500000D02*
X107500000Y-92500000D01*
X107500000Y-92500000D02*
X117500000Y-92500000D01*
X117500000Y-92500000D02*
X117500000Y-82500000D01*
G36*
X117500000Y-82500000D02*
G01*
X107500000Y-82500000D01*
X107500000Y-92500000D01*
X117500000Y-92500000D01*
X117500000Y-82500000D01*
G37*
D11*
X149915714Y-145734000D02*
X149344285Y-145734000D01*
X150030000Y-146076857D02*
X149630000Y-144876857D01*
X149230000Y-146076857D01*
X148315714Y-146076857D02*
X148315714Y-144876857D01*
X148315714Y-146019714D02*
X148430000Y-146076857D01*
X148658571Y-146076857D01*
X148772857Y-146019714D01*
X148830000Y-145962571D01*
X148887142Y-145848285D01*
X148887142Y-145505428D01*
X148830000Y-145391142D01*
X148772857Y-145334000D01*
X148658571Y-145276857D01*
X148430000Y-145276857D01*
X148315714Y-145334000D01*
X147230000Y-146076857D02*
X147230000Y-145448285D01*
X147287142Y-145334000D01*
X147401428Y-145276857D01*
X147630000Y-145276857D01*
X147744285Y-145334000D01*
X147230000Y-146019714D02*
X147344285Y-146076857D01*
X147630000Y-146076857D01*
X147744285Y-146019714D01*
X147801428Y-145905428D01*
X147801428Y-145791142D01*
X147744285Y-145676857D01*
X147630000Y-145619714D01*
X147344285Y-145619714D01*
X147230000Y-145562571D01*
X146658571Y-146076857D02*
X146658571Y-145276857D01*
X146658571Y-145391142D02*
X146601428Y-145334000D01*
X146487142Y-145276857D01*
X146315714Y-145276857D01*
X146201428Y-145334000D01*
X146144285Y-145448285D01*
X146144285Y-146076857D01*
X146144285Y-145448285D02*
X146087142Y-145334000D01*
X145972857Y-145276857D01*
X145801428Y-145276857D01*
X145687142Y-145334000D01*
X145630000Y-145448285D01*
X145630000Y-146076857D01*
X144201428Y-146019714D02*
X144030000Y-146076857D01*
X143744285Y-146076857D01*
X143630000Y-146019714D01*
X143572857Y-145962571D01*
X143515714Y-145848285D01*
X143515714Y-145734000D01*
X143572857Y-145619714D01*
X143630000Y-145562571D01*
X143744285Y-145505428D01*
X143972857Y-145448285D01*
X144087142Y-145391142D01*
X144144285Y-145334000D01*
X144201428Y-145219714D01*
X144201428Y-145105428D01*
X144144285Y-144991142D01*
X144087142Y-144934000D01*
X143972857Y-144876857D01*
X143687142Y-144876857D01*
X143515714Y-144934000D01*
X142944285Y-146019714D02*
X142944285Y-146076857D01*
X143001428Y-146191142D01*
X143058571Y-146248285D01*
X140830000Y-145962571D02*
X140887142Y-146019714D01*
X141058571Y-146076857D01*
X141172857Y-146076857D01*
X141344285Y-146019714D01*
X141458571Y-145905428D01*
X141515714Y-145791142D01*
X141572857Y-145562571D01*
X141572857Y-145391142D01*
X141515714Y-145162571D01*
X141458571Y-145048285D01*
X141344285Y-144934000D01*
X141172857Y-144876857D01*
X141058571Y-144876857D01*
X140887142Y-144934000D01*
X140830000Y-144991142D01*
X139801428Y-146076857D02*
X139801428Y-145448285D01*
X139858571Y-145334000D01*
X139972857Y-145276857D01*
X140201428Y-145276857D01*
X140315714Y-145334000D01*
X139801428Y-146019714D02*
X139915714Y-146076857D01*
X140201428Y-146076857D01*
X140315714Y-146019714D01*
X140372857Y-145905428D01*
X140372857Y-145791142D01*
X140315714Y-145676857D01*
X140201428Y-145619714D01*
X139915714Y-145619714D01*
X139801428Y-145562571D01*
X139230000Y-146076857D02*
X139230000Y-145276857D01*
X139230000Y-145505428D02*
X139172857Y-145391142D01*
X139115714Y-145334000D01*
X139001428Y-145276857D01*
X138887142Y-145276857D01*
X138658571Y-145276857D02*
X138201428Y-145276857D01*
X138487142Y-144876857D02*
X138487142Y-145905428D01*
X138430000Y-146019714D01*
X138315714Y-146076857D01*
X138201428Y-146076857D01*
X137344285Y-146019714D02*
X137458571Y-146076857D01*
X137687142Y-146076857D01*
X137801428Y-146019714D01*
X137858571Y-145905428D01*
X137858571Y-145448285D01*
X137801428Y-145334000D01*
X137687142Y-145276857D01*
X137458571Y-145276857D01*
X137344285Y-145334000D01*
X137287142Y-145448285D01*
X137287142Y-145562571D01*
X137858571Y-145676857D01*
X136772857Y-146076857D02*
X136772857Y-145276857D01*
X136772857Y-145505428D02*
X136715714Y-145391142D01*
X136658571Y-145334000D01*
X136544285Y-145276857D01*
X136430000Y-145276857D01*
X134772857Y-144876857D02*
X134772857Y-145734000D01*
X134830000Y-145905428D01*
X134944285Y-146019714D01*
X135115714Y-146076857D01*
X135230000Y-146076857D01*
X134144285Y-146019714D02*
X134144285Y-146076857D01*
X134201428Y-146191142D01*
X134258571Y-146248285D01*
X132715714Y-145448285D02*
X132315714Y-145448285D01*
X132144285Y-146076857D02*
X132715714Y-146076857D01*
X132715714Y-144876857D01*
X132144285Y-144876857D01*
X131458571Y-146076857D02*
X131572857Y-146019714D01*
X131629999Y-145905428D01*
X131629999Y-144876857D01*
X130487142Y-146076857D02*
X130487142Y-145448285D01*
X130544285Y-145334000D01*
X130658571Y-145276857D01*
X130887142Y-145276857D01*
X131001428Y-145334000D01*
X130487142Y-146019714D02*
X130601428Y-146076857D01*
X130887142Y-146076857D01*
X131001428Y-146019714D01*
X131058571Y-145905428D01*
X131058571Y-145791142D01*
X131001428Y-145676857D01*
X130887142Y-145619714D01*
X130601428Y-145619714D01*
X130487142Y-145562571D01*
X129915714Y-146076857D02*
X129915714Y-145276857D01*
X129915714Y-144876857D02*
X129972857Y-144934000D01*
X129915714Y-144991142D01*
X129858571Y-144934000D01*
X129915714Y-144876857D01*
X129915714Y-144991142D01*
X129344285Y-145276857D02*
X129344285Y-146076857D01*
X129344285Y-145391142D02*
X129287142Y-145334000D01*
X129172857Y-145276857D01*
X129001428Y-145276857D01*
X128887142Y-145334000D01*
X128829999Y-145448285D01*
X128829999Y-146076857D01*
X127801428Y-146019714D02*
X127915714Y-146076857D01*
X128144285Y-146076857D01*
X128258571Y-146019714D01*
X128315714Y-145905428D01*
X128315714Y-145448285D01*
X128258571Y-145334000D01*
X128144285Y-145276857D01*
X127915714Y-145276857D01*
X127801428Y-145334000D01*
X127744285Y-145448285D01*
X127744285Y-145562571D01*
X128315714Y-145676857D01*
X125629999Y-146076857D02*
X126029999Y-145505428D01*
X126315714Y-146076857D02*
X126315714Y-144876857D01*
X125858571Y-144876857D01*
X125744285Y-144934000D01*
X125687142Y-144991142D01*
X125629999Y-145105428D01*
X125629999Y-145276857D01*
X125687142Y-145391142D01*
X125744285Y-145448285D01*
X125858571Y-145505428D01*
X126315714Y-145505428D01*
X125058571Y-146019714D02*
X125058571Y-146076857D01*
X125115714Y-146191142D01*
X125172857Y-146248285D01*
X123629999Y-145448285D02*
X123229999Y-145448285D01*
X123058571Y-146076857D02*
X123629999Y-146076857D01*
X123629999Y-144876857D01*
X123058571Y-144876857D01*
X122544285Y-146076857D02*
X122544285Y-145276857D01*
X122544285Y-145391142D02*
X122487142Y-145334000D01*
X122372857Y-145276857D01*
X122201428Y-145276857D01*
X122087142Y-145334000D01*
X122029999Y-145448285D01*
X122029999Y-146076857D01*
X122029999Y-145448285D02*
X121972857Y-145334000D01*
X121858571Y-145276857D01*
X121687142Y-145276857D01*
X121572857Y-145334000D01*
X121515714Y-145448285D01*
X121515714Y-146076857D01*
X120944285Y-146076857D02*
X120944285Y-145276857D01*
X120944285Y-144876857D02*
X121001428Y-144934000D01*
X120944285Y-144991142D01*
X120887142Y-144934000D01*
X120944285Y-144876857D01*
X120944285Y-144991142D01*
X120201428Y-146076857D02*
X120315714Y-146019714D01*
X120372857Y-145905428D01*
X120372857Y-144876857D01*
X119858571Y-145276857D02*
X119572857Y-146076857D01*
X119287142Y-145276857D02*
X119572857Y-146076857D01*
X119687142Y-146362571D01*
X119744285Y-146419714D01*
X119858571Y-146476857D01*
X117915714Y-146076857D02*
X117915714Y-144876857D01*
X117515714Y-145734000D01*
X117115714Y-144876857D01*
X117115714Y-146076857D01*
X116487142Y-146019714D02*
X116487142Y-146076857D01*
X116544285Y-146191142D01*
X116601428Y-146248285D01*
X115058571Y-146076857D02*
X115058571Y-144876857D01*
X115058571Y-145448285D02*
X114372857Y-145448285D01*
X114372857Y-146076857D02*
X114372857Y-144876857D01*
X113344285Y-146019714D02*
X113458571Y-146076857D01*
X113687142Y-146076857D01*
X113801428Y-146019714D01*
X113858571Y-145905428D01*
X113858571Y-145448285D01*
X113801428Y-145334000D01*
X113687142Y-145276857D01*
X113458571Y-145276857D01*
X113344285Y-145334000D01*
X113287142Y-145448285D01*
X113287142Y-145562571D01*
X113858571Y-145676857D01*
X112772857Y-145276857D02*
X112772857Y-146076857D01*
X112772857Y-145391142D02*
X112715714Y-145334000D01*
X112601428Y-145276857D01*
X112429999Y-145276857D01*
X112315714Y-145334000D01*
X112258571Y-145448285D01*
X112258571Y-146076857D01*
X111687142Y-146076857D02*
X111687142Y-145276857D01*
X111687142Y-145505428D02*
X111629999Y-145391142D01*
X111572857Y-145334000D01*
X111458571Y-145276857D01*
X111344285Y-145276857D01*
X111058571Y-145276857D02*
X110772857Y-146076857D01*
X110487142Y-145276857D02*
X110772857Y-146076857D01*
X110887142Y-146362571D01*
X110944285Y-146419714D01*
X111058571Y-146476857D01*
X109115714Y-146076857D02*
X109115714Y-144876857D01*
X108658571Y-144876857D01*
X108544285Y-144934000D01*
X108487142Y-144991142D01*
X108429999Y-145105428D01*
X108429999Y-145276857D01*
X108487142Y-145391142D01*
X108544285Y-145448285D01*
X108658571Y-145505428D01*
X109115714Y-145505428D01*
X107858571Y-146019714D02*
X107858571Y-146076857D01*
X107915714Y-146191142D01*
X107972857Y-146248285D01*
X147801428Y-146808857D02*
X147801428Y-147666000D01*
X147858571Y-147837428D01*
X147972857Y-147951714D01*
X148144285Y-148008857D01*
X148258571Y-148008857D01*
X147058571Y-148008857D02*
X147172857Y-147951714D01*
X147230000Y-147894571D01*
X147287142Y-147780285D01*
X147287142Y-147437428D01*
X147230000Y-147323142D01*
X147172857Y-147266000D01*
X147058571Y-147208857D01*
X146887142Y-147208857D01*
X146772857Y-147266000D01*
X146715714Y-147323142D01*
X146658571Y-147437428D01*
X146658571Y-147780285D01*
X146715714Y-147894571D01*
X146772857Y-147951714D01*
X146887142Y-148008857D01*
X147058571Y-148008857D01*
X146144285Y-147208857D02*
X146144285Y-148008857D01*
X146144285Y-147323142D02*
X146087142Y-147266000D01*
X145972857Y-147208857D01*
X145801428Y-147208857D01*
X145687142Y-147266000D01*
X145630000Y-147380285D01*
X145630000Y-148008857D01*
X144544285Y-148008857D02*
X144544285Y-147380285D01*
X144601428Y-147266000D01*
X144715714Y-147208857D01*
X144944285Y-147208857D01*
X145058571Y-147266000D01*
X144544285Y-147951714D02*
X144658571Y-148008857D01*
X144944285Y-148008857D01*
X145058571Y-147951714D01*
X145115714Y-147837428D01*
X145115714Y-147723142D01*
X145058571Y-147608857D01*
X144944285Y-147551714D01*
X144658571Y-147551714D01*
X144544285Y-147494571D01*
X144144285Y-147208857D02*
X143687142Y-147208857D01*
X143972857Y-146808857D02*
X143972857Y-147837428D01*
X143915714Y-147951714D01*
X143801428Y-148008857D01*
X143687142Y-148008857D01*
X143287142Y-148008857D02*
X143287142Y-146808857D01*
X142772857Y-148008857D02*
X142772857Y-147380285D01*
X142830000Y-147266000D01*
X142944285Y-147208857D01*
X143115714Y-147208857D01*
X143230000Y-147266000D01*
X143287142Y-147323142D01*
X141687142Y-148008857D02*
X141687142Y-147380285D01*
X141744285Y-147266000D01*
X141858571Y-147208857D01*
X142087142Y-147208857D01*
X142201428Y-147266000D01*
X141687142Y-147951714D02*
X141801428Y-148008857D01*
X142087142Y-148008857D01*
X142201428Y-147951714D01*
X142258571Y-147837428D01*
X142258571Y-147723142D01*
X142201428Y-147608857D01*
X142087142Y-147551714D01*
X141801428Y-147551714D01*
X141687142Y-147494571D01*
X141115714Y-147208857D02*
X141115714Y-148008857D01*
X141115714Y-147323142D02*
X141058571Y-147266000D01*
X140944285Y-147208857D01*
X140772857Y-147208857D01*
X140658571Y-147266000D01*
X140601428Y-147380285D01*
X140601428Y-148008857D01*
X139172857Y-147666000D02*
X138601428Y-147666000D01*
X139287142Y-148008857D02*
X138887142Y-146808857D01*
X138487142Y-148008857D01*
X138030000Y-147951714D02*
X138030000Y-148008857D01*
X138087142Y-148123142D01*
X138144285Y-148180285D01*
X136601428Y-148008857D02*
X136601428Y-146808857D01*
X136201428Y-147666000D01*
X135801428Y-146808857D01*
X135801428Y-148008857D01*
X134715714Y-148008857D02*
X134715714Y-147380285D01*
X134772857Y-147266000D01*
X134887142Y-147208857D01*
X135115714Y-147208857D01*
X135230000Y-147266000D01*
X134715714Y-147951714D02*
X134830000Y-148008857D01*
X135115714Y-148008857D01*
X135230000Y-147951714D01*
X135287142Y-147837428D01*
X135287142Y-147723142D01*
X135230000Y-147608857D01*
X135115714Y-147551714D01*
X134830000Y-147551714D01*
X134715714Y-147494571D01*
X134258571Y-147208857D02*
X133972857Y-148008857D01*
X133687142Y-147208857D02*
X133972857Y-148008857D01*
X134087142Y-148294571D01*
X134144285Y-148351714D01*
X134258571Y-148408857D01*
X132715714Y-148008857D02*
X132715714Y-147380285D01*
X132772857Y-147266000D01*
X132887142Y-147208857D01*
X133115714Y-147208857D01*
X133230000Y-147266000D01*
X132715714Y-147951714D02*
X132830000Y-148008857D01*
X133115714Y-148008857D01*
X133230000Y-147951714D01*
X133287142Y-147837428D01*
X133287142Y-147723142D01*
X133230000Y-147608857D01*
X133115714Y-147551714D01*
X132830000Y-147551714D01*
X132715714Y-147494571D01*
X130830000Y-147380285D02*
X130658571Y-147437428D01*
X130601428Y-147494571D01*
X130544285Y-147608857D01*
X130544285Y-147780285D01*
X130601428Y-147894571D01*
X130658571Y-147951714D01*
X130772857Y-148008857D01*
X131230000Y-148008857D01*
X131230000Y-146808857D01*
X130830000Y-146808857D01*
X130715714Y-146866000D01*
X130658571Y-146923142D01*
X130601428Y-147037428D01*
X130601428Y-147151714D01*
X130658571Y-147266000D01*
X130715714Y-147323142D01*
X130830000Y-147380285D01*
X131230000Y-147380285D01*
X129972857Y-147951714D02*
X129972857Y-148008857D01*
X130030000Y-148123142D01*
X130087142Y-148180285D01*
X128544285Y-148008857D02*
X128544285Y-146808857D01*
X128144285Y-147666000D01*
X127744285Y-146808857D01*
X127744285Y-148008857D01*
X127172857Y-148008857D02*
X127172857Y-147208857D01*
X127172857Y-146808857D02*
X127230000Y-146866000D01*
X127172857Y-146923142D01*
X127115714Y-146866000D01*
X127172857Y-146808857D01*
X127172857Y-146923142D01*
X126772857Y-147208857D02*
X126315714Y-147208857D01*
X126601428Y-146808857D02*
X126601428Y-147837428D01*
X126544285Y-147951714D01*
X126430000Y-148008857D01*
X126315714Y-148008857D01*
X125401428Y-147951714D02*
X125515714Y-148008857D01*
X125744285Y-148008857D01*
X125858571Y-147951714D01*
X125915714Y-147894571D01*
X125972857Y-147780285D01*
X125972857Y-147437428D01*
X125915714Y-147323142D01*
X125858571Y-147266000D01*
X125744285Y-147208857D01*
X125515714Y-147208857D01*
X125401428Y-147266000D01*
X124887142Y-148008857D02*
X124887142Y-146808857D01*
X124372857Y-148008857D02*
X124372857Y-147380285D01*
X124430000Y-147266000D01*
X124544285Y-147208857D01*
X124715714Y-147208857D01*
X124830000Y-147266000D01*
X124887142Y-147323142D01*
X123344285Y-147951714D02*
X123458571Y-148008857D01*
X123687142Y-148008857D01*
X123801428Y-147951714D01*
X123858571Y-147837428D01*
X123858571Y-147380285D01*
X123801428Y-147266000D01*
X123687142Y-147208857D01*
X123458571Y-147208857D01*
X123344285Y-147266000D01*
X123287142Y-147380285D01*
X123287142Y-147494571D01*
X123858571Y-147608857D01*
X122601428Y-148008857D02*
X122715714Y-147951714D01*
X122772857Y-147837428D01*
X122772857Y-146808857D01*
X121972857Y-148008857D02*
X122087142Y-147951714D01*
X122144285Y-147837428D01*
X122144285Y-146808857D01*
X120601428Y-148008857D02*
X120601428Y-146808857D01*
X120601428Y-147380285D02*
X119915714Y-147380285D01*
X119915714Y-148008857D02*
X119915714Y-146808857D01*
X119287142Y-147951714D02*
X119287142Y-148008857D01*
X119344285Y-148123142D01*
X119401428Y-148180285D01*
X117172857Y-148008857D02*
X117572857Y-147437428D01*
X117858571Y-148008857D02*
X117858571Y-146808857D01*
X117401428Y-146808857D01*
X117287142Y-146866000D01*
X117230000Y-146923142D01*
X117172857Y-147037428D01*
X117172857Y-147208857D01*
X117230000Y-147323142D01*
X117287142Y-147380285D01*
X117401428Y-147437428D01*
X117858571Y-147437428D01*
X116487142Y-148008857D02*
X116601428Y-147951714D01*
X116658571Y-147894571D01*
X116715714Y-147780285D01*
X116715714Y-147437428D01*
X116658571Y-147323142D01*
X116601428Y-147266000D01*
X116487142Y-147208857D01*
X116315714Y-147208857D01*
X116201428Y-147266000D01*
X116144285Y-147323142D01*
X116087142Y-147437428D01*
X116087142Y-147780285D01*
X116144285Y-147894571D01*
X116201428Y-147951714D01*
X116315714Y-148008857D01*
X116487142Y-148008857D01*
X115630000Y-147951714D02*
X115515714Y-148008857D01*
X115287142Y-148008857D01*
X115172857Y-147951714D01*
X115115714Y-147837428D01*
X115115714Y-147780285D01*
X115172857Y-147666000D01*
X115287142Y-147608857D01*
X115458571Y-147608857D01*
X115572857Y-147551714D01*
X115630000Y-147437428D01*
X115630000Y-147380285D01*
X115572857Y-147266000D01*
X115458571Y-147208857D01*
X115287142Y-147208857D01*
X115172857Y-147266000D01*
X114144285Y-147951714D02*
X114258571Y-148008857D01*
X114487142Y-148008857D01*
X114601428Y-147951714D01*
X114658571Y-147837428D01*
X114658571Y-147380285D01*
X114601428Y-147266000D01*
X114487142Y-147208857D01*
X114258571Y-147208857D01*
X114144285Y-147266000D01*
X114087142Y-147380285D01*
X114087142Y-147494571D01*
X114658571Y-147608857D01*
X113572857Y-148008857D02*
X113572857Y-147208857D01*
X113572857Y-147323142D02*
X113515714Y-147266000D01*
X113401428Y-147208857D01*
X113230000Y-147208857D01*
X113115714Y-147266000D01*
X113058571Y-147380285D01*
X113058571Y-148008857D01*
X113058571Y-147380285D02*
X113001428Y-147266000D01*
X112887142Y-147208857D01*
X112715714Y-147208857D01*
X112601428Y-147266000D01*
X112544285Y-147380285D01*
X112544285Y-148008857D01*
X111458571Y-148008857D02*
X111458571Y-147380285D01*
X111515714Y-147266000D01*
X111630000Y-147208857D01*
X111858571Y-147208857D01*
X111972857Y-147266000D01*
X111458571Y-147951714D02*
X111572857Y-148008857D01*
X111858571Y-148008857D01*
X111972857Y-147951714D01*
X112030000Y-147837428D01*
X112030000Y-147723142D01*
X111972857Y-147608857D01*
X111858571Y-147551714D01*
X111572857Y-147551714D01*
X111458571Y-147494571D01*
X110887142Y-148008857D02*
X110887142Y-147208857D01*
X110887142Y-147437428D02*
X110830000Y-147323142D01*
X110772857Y-147266000D01*
X110658571Y-147208857D01*
X110544285Y-147208857D01*
X110258571Y-147208857D02*
X109972857Y-148008857D01*
X109687142Y-147208857D02*
X109972857Y-148008857D01*
X110087142Y-148294571D01*
X110144285Y-148351714D01*
X110258571Y-148408857D01*
X107744285Y-148008857D02*
X108315714Y-148008857D01*
X108315714Y-146808857D01*
X136942857Y-52414285D02*
X136771428Y-52471428D01*
X136714285Y-52528571D01*
X136657142Y-52642857D01*
X136657142Y-52814285D01*
X136714285Y-52928571D01*
X136771428Y-52985714D01*
X136885714Y-53042857D01*
X137342857Y-53042857D01*
X137342857Y-51842857D01*
X136942857Y-51842857D01*
X136828571Y-51900000D01*
X136771428Y-51957142D01*
X136714285Y-52071428D01*
X136714285Y-52185714D01*
X136771428Y-52300000D01*
X136828571Y-52357142D01*
X136942857Y-52414285D01*
X137342857Y-52414285D01*
X136314285Y-51842857D02*
X135628571Y-51842857D01*
X135971428Y-53042857D02*
X135971428Y-51842857D01*
X134600000Y-53042857D02*
X135285714Y-53042857D01*
X134942857Y-53042857D02*
X134942857Y-51842857D01*
X135057142Y-52014285D01*
X135171428Y-52128571D01*
X135285714Y-52185714D01*
D10*
X137375000Y-54100000D02*
X133525000Y-54100000D01*
X137375000Y-68900000D02*
X137375000Y-63050000D01*
X133525000Y-66425000D02*
X133525000Y-68900000D01*
X133525000Y-68900000D02*
X137375000Y-68900000D01*
X137375000Y-54100000D02*
X137375000Y-59950000D01*
X133525000Y-54100000D02*
X133525000Y-56525000D01*
X133525000Y-56525000D02*
G75*
G03*
X120799999Y-59975001I-5488304J-4949391D01*
G01*
X120799999Y-63024999D02*
G75*
G03*
X133525000Y-66475000I7236697J1499390D01*
G01*
%LPC*%
D12*
X172500000Y-63225000D03*
D13*
X172500000Y-65765000D03*
D14*
X103500000Y-53500000D03*
X181500000Y-53500000D03*
X181500000Y-146500000D03*
D15*
X161200000Y-93000000D03*
D16*
X156500000Y-93000000D03*
X151800000Y-93000000D03*
D17*
X108370000Y-76270000D03*
D18*
X108370000Y-73730000D03*
X110910000Y-76270000D03*
X110910000Y-73730000D03*
X113450000Y-76270000D03*
X113450000Y-73730000D03*
X115990000Y-76270000D03*
X115990000Y-73730000D03*
X118530000Y-76270000D03*
X118530000Y-73730000D03*
X121070000Y-76270000D03*
X121070000Y-73730000D03*
X123610000Y-76270000D03*
X123610000Y-73730000D03*
X126150000Y-76270000D03*
X126150000Y-73730000D03*
X128690000Y-76270000D03*
X128690000Y-73730000D03*
X131230000Y-76270000D03*
X131230000Y-73730000D03*
X133770000Y-76270000D03*
X133770000Y-73730000D03*
X136310000Y-76270000D03*
X136310000Y-73730000D03*
X138850000Y-76270000D03*
X138850000Y-73730000D03*
X141390000Y-76270000D03*
X141390000Y-73730000D03*
X143930000Y-76270000D03*
X143930000Y-73730000D03*
X146470000Y-76270000D03*
X146470000Y-73730000D03*
X149010000Y-76270000D03*
X149010000Y-73730000D03*
X151550000Y-76270000D03*
X151550000Y-73730000D03*
X154090000Y-76270000D03*
X154090000Y-73730000D03*
X156630000Y-76270000D03*
X156630000Y-73730000D03*
D14*
X103500000Y-146500000D03*
D19*
X170000000Y-145000000D03*
D20*
X167600000Y-142600000D03*
X167600000Y-147400000D03*
X172400000Y-147400000D03*
X172400000Y-142600000D03*
D21*
X119575000Y-61500000D03*
X135975000Y-61500000D03*
M02*
