G04 #@! TF.GenerationSoftware,KiCad,Pcbnew,(6.0.7)*
G04 #@! TF.CreationDate,2022-12-13T13:41:41-06:00*
G04 #@! TF.ProjectId,Narwal_v1,4e617277-616c-45f7-9631-2e6b69636164,1*
G04 #@! TF.SameCoordinates,Original*
G04 #@! TF.FileFunction,Soldermask,Bot*
G04 #@! TF.FilePolarity,Negative*
%FSLAX46Y46*%
G04 Gerber Fmt 4.6, Leading zero omitted, Abs format (unit mm)*
G04 Created by KiCad (PCBNEW (6.0.7)) date 2022-12-13 13:41:41*
%MOMM*%
%LPD*%
G01*
G04 APERTURE LIST*
%ADD10R,1.800000X1.800000*%
%ADD11C,1.800000*%
%ADD12C,5.000000*%
%ADD13R,2.775000X2.775000*%
%ADD14C,2.775000*%
%ADD15R,1.524000X1.524000*%
%ADD16C,1.524000*%
%ADD17C,1.508000*%
%ADD18C,1.920000*%
%ADD19R,4.500000X2.300000*%
G04 APERTURE END LIST*
D10*
X172500000Y-63225000D03*
D11*
X172500000Y-65765000D03*
D12*
X103500000Y-53500000D03*
X181500000Y-53500000D03*
X181500000Y-146500000D03*
D13*
X161200000Y-93000000D03*
D14*
X156500000Y-93000000D03*
X151800000Y-93000000D03*
D15*
X108370000Y-76270000D03*
D16*
X108370000Y-73730000D03*
X110910000Y-76270000D03*
X110910000Y-73730000D03*
X113450000Y-76270000D03*
X113450000Y-73730000D03*
X115990000Y-76270000D03*
X115990000Y-73730000D03*
X118530000Y-76270000D03*
X118530000Y-73730000D03*
X121070000Y-76270000D03*
X121070000Y-73730000D03*
X123610000Y-76270000D03*
X123610000Y-73730000D03*
X126150000Y-76270000D03*
X126150000Y-73730000D03*
X128690000Y-76270000D03*
X128690000Y-73730000D03*
X131230000Y-76270000D03*
X131230000Y-73730000D03*
X133770000Y-76270000D03*
X133770000Y-73730000D03*
X136310000Y-76270000D03*
X136310000Y-73730000D03*
X138850000Y-76270000D03*
X138850000Y-73730000D03*
X141390000Y-76270000D03*
X141390000Y-73730000D03*
X143930000Y-76270000D03*
X143930000Y-73730000D03*
X146470000Y-76270000D03*
X146470000Y-73730000D03*
X149010000Y-76270000D03*
X149010000Y-73730000D03*
X151550000Y-76270000D03*
X151550000Y-73730000D03*
X154090000Y-76270000D03*
X154090000Y-73730000D03*
X156630000Y-76270000D03*
X156630000Y-73730000D03*
D12*
X103500000Y-146500000D03*
D17*
X170000000Y-145000000D03*
D18*
X167600000Y-142600000D03*
X167600000Y-147400000D03*
X172400000Y-147400000D03*
X172400000Y-142600000D03*
D19*
X119575000Y-61500000D03*
X135975000Y-61500000D03*
M02*
