%TF.GenerationSoftware,KiCad,Pcbnew,(6.0.7)*%
%TF.CreationDate,2022-11-16T16:27:29-06:00*%
%TF.ProjectId,GroundPCB,47726f75-6e64-4504-9342-2e6b69636164,1*%
%TF.SameCoordinates,Original*%
%TF.FileFunction,Copper,L4,Bot*%
%TF.FilePolarity,Positive*%
%FSLAX46Y46*%
G04 Gerber Fmt 4.6, Leading zero omitted, Abs format (unit mm)*
G04 Created by KiCad (PCBNEW (6.0.7)) date 2022-11-16 16:27:29*
%MOMM*%
%LPD*%
G01*
G04 APERTURE LIST*
%TA.AperFunction,Profile*%
%ADD10C,0.100000*%
%TD*%
%TA.AperFunction,Profile*%
%ADD11C,0.120000*%
%TD*%
%TA.AperFunction,ComponentPad*%
%ADD12R,1.800000X1.800000*%
%TD*%
%TA.AperFunction,ComponentPad*%
%ADD13C,1.800000*%
%TD*%
%TA.AperFunction,ComponentPad*%
%ADD14R,1.524000X1.524000*%
%TD*%
%TA.AperFunction,ComponentPad*%
%ADD15C,1.524000*%
%TD*%
%TA.AperFunction,ComponentPad*%
%ADD16C,1.508000*%
%TD*%
%TA.AperFunction,ComponentPad*%
%ADD17C,1.920000*%
%TD*%
%TA.AperFunction,SMDPad,CuDef*%
%ADD18R,4.500000X2.300000*%
%TD*%
%TA.AperFunction,ViaPad*%
%ADD19C,0.800000*%
%TD*%
%TA.AperFunction,Conductor*%
%ADD20C,0.250000*%
%TD*%
%TA.AperFunction,Conductor*%
%ADD21C,0.300000*%
%TD*%
G04 APERTURE END LIST*
D10*
X100000000Y-50000000D02*
X185000000Y-50000000D01*
X185000000Y-50000000D02*
X185000000Y-150000000D01*
X185000000Y-150000000D02*
X100000000Y-150000000D01*
X100000000Y-150000000D02*
X100000000Y-50000000D01*
D11*
%TO.C,A1*%
X162875000Y-75000000D02*
G75*
G03*
X162875000Y-75000000I-1375000J0D01*
G01*
X162875000Y-124000000D02*
G75*
G03*
X162875000Y-124000000I-1375000J0D01*
G01*
X104875000Y-124000000D02*
G75*
G03*
X104875000Y-124000000I-1375000J0D01*
G01*
X104875000Y-75000000D02*
G75*
G03*
X104875000Y-75000000I-1375000J0D01*
G01*
%TD*%
D12*
%TO.P,SW1,1,A*%
%TO.N,+5V*%
X152577500Y-90077500D03*
D13*
%TO.P,SW1,2,B*%
%TO.N,Net-(C8-Pad1)*%
X157577500Y-90077500D03*
%TO.P,SW1,3,A*%
%TO.N,+5V*%
X152577500Y-96077500D03*
%TO.P,SW1,4,B*%
%TO.N,Net-(C8-Pad1)*%
X157577500Y-96077500D03*
%TD*%
D14*
%TO.P,A1,1,3V3[1]*%
%TO.N,unconnected-(A1-Pad1)*%
X108370000Y-76270000D03*
D15*
%TO.P,A1,2,5V[1]*%
%TO.N,+5V*%
X108370000Y-73730000D03*
%TO.P,A1,3,GPIO2/SDA*%
%TO.N,SDA*%
X110910000Y-76270000D03*
%TO.P,A1,4,5V[2]*%
%TO.N,+5V*%
X110910000Y-73730000D03*
%TO.P,A1,5,GPIO3/SCL*%
%TO.N,SCL*%
X113450000Y-76270000D03*
%TO.P,A1,6,GND[8]*%
%TO.N,GND*%
X113450000Y-73730000D03*
%TO.P,A1,7,GPIO4/GPCKL0*%
%TO.N,unconnected-(A1-Pad7)*%
X115990000Y-76270000D03*
%TO.P,A1,8,TXD0/GPIO14*%
%TO.N,unconnected-(A1-Pad8)*%
X115990000Y-73730000D03*
%TO.P,A1,9,GND[1]*%
%TO.N,GND*%
X118530000Y-76270000D03*
%TO.P,A1,10,RXD0/GPIO15*%
%TO.N,unconnected-(A1-Pad10)*%
X118530000Y-73730000D03*
%TO.P,A1,11,GPIO17/GEN0*%
%TO.N,RST-RTC*%
X121070000Y-76270000D03*
%TO.P,A1,12,GPIO18*%
%TO.N,unconnected-(A1-Pad12)*%
X121070000Y-73730000D03*
%TO.P,A1,13,GPIO27/GEN2*%
%TO.N,unconnected-(A1-Pad13)*%
X123610000Y-76270000D03*
%TO.P,A1,14,GND[4]*%
%TO.N,GND*%
X123610000Y-73730000D03*
%TO.P,A1,15,GPIO22/GEN3*%
%TO.N,unconnected-(A1-Pad15)*%
X126150000Y-76270000D03*
%TO.P,A1,16,GEN4/GPIO23*%
%TO.N,RST-TRX*%
X126150000Y-73730000D03*
%TO.P,A1,17,3V3[2]*%
%TO.N,+3.3V*%
X128690000Y-76270000D03*
%TO.P,A1,18,GEN5/GPIO24*%
%TO.N,DIO0*%
X128690000Y-73730000D03*
%TO.P,A1,19,GPIO10/MOSI*%
%TO.N,MOSI*%
X131230000Y-76270000D03*
%TO.P,A1,20,GND[5]*%
%TO.N,GND*%
X131230000Y-73730000D03*
%TO.P,A1,21,GPIO9/MISO*%
%TO.N,MISO*%
X133770000Y-76270000D03*
%TO.P,A1,22,GEN/6GPIO25*%
%TO.N,unconnected-(A1-Pad22)*%
X133770000Y-73730000D03*
%TO.P,A1,23,GPIO11/SCLK*%
%TO.N,SCLK*%
X136310000Y-76270000D03*
%TO.P,A1,24,~{CE0}/GPIO8*%
%TO.N,unconnected-(A1-Pad24)*%
X136310000Y-73730000D03*
%TO.P,A1,25,GND[2]*%
%TO.N,GND*%
X138850000Y-76270000D03*
%TO.P,A1,26,~{CE1/}GPIO7*%
%TO.N,CS*%
X138850000Y-73730000D03*
%TO.P,A1,27,ID_SD*%
%TO.N,unconnected-(A1-Pad27)*%
X141390000Y-76270000D03*
%TO.P,A1,28,ID_SC*%
%TO.N,unconnected-(A1-Pad28)*%
X141390000Y-73730000D03*
%TO.P,A1,29,GPIO5*%
%TO.N,unconnected-(A1-Pad29)*%
X143930000Y-76270000D03*
%TO.P,A1,30,GND[6]*%
%TO.N,GND*%
X143930000Y-73730000D03*
%TO.P,A1,31,GPIO6*%
%TO.N,CTRL1A*%
X146470000Y-76270000D03*
%TO.P,A1,32,GPIO12*%
%TO.N,unconnected-(A1-Pad32)*%
X146470000Y-73730000D03*
%TO.P,A1,33,GPIO13*%
%TO.N,CTRL1B*%
X149010000Y-76270000D03*
%TO.P,A1,34,GND[7]*%
%TO.N,GND*%
X149010000Y-73730000D03*
%TO.P,A1,35,GPIO19*%
%TO.N,CTRL2A*%
X151550000Y-76270000D03*
%TO.P,A1,36,GPIO16*%
%TO.N,BUT1*%
X151550000Y-73730000D03*
%TO.P,A1,37,GPIO26*%
%TO.N,CTRL2B*%
X154090000Y-76270000D03*
%TO.P,A1,38,GPIO20*%
%TO.N,BUT2*%
X154090000Y-73730000D03*
%TO.P,A1,39,GND[3]*%
%TO.N,GND*%
X156630000Y-76270000D03*
%TO.P,A1,40,GPIO21*%
%TO.N,BUT3*%
X156630000Y-73730000D03*
%TD*%
D16*
%TO.P,J1,1*%
%TO.N,Net-(IC2-Pad22)*%
X170000000Y-145000000D03*
D17*
%TO.P,J1,G1*%
%TO.N,GND*%
X167600000Y-142600000D03*
%TO.P,J1,G2*%
X167600000Y-147400000D03*
%TO.P,J1,G3*%
X172400000Y-147400000D03*
%TO.P,J1,G4*%
X172400000Y-142600000D03*
%TD*%
D12*
%TO.P,D1,1,K*%
%TO.N,Net-(D1-Pad1)*%
X175000000Y-62881250D03*
D13*
%TO.P,D1,2,A*%
%TO.N,+5V*%
X175000000Y-65421250D03*
%TD*%
D18*
%TO.P,BT1,N*%
%TO.N,GND*%
X119575000Y-61500000D03*
%TO.P,BT1,P*%
%TO.N,Net-(BT1-PadP)*%
X135975000Y-61500000D03*
%TD*%
D19*
%TO.N,CTRL1A*%
X128250000Y-115000000D03*
%TO.N,CTRL1B*%
X157000000Y-143750000D03*
X158250000Y-79250000D03*
%TO.N,GND*%
X124000000Y-105500000D03*
X128000000Y-125000000D03*
X125500000Y-108500000D03*
X122750000Y-135000000D03*
X124000000Y-110500000D03*
X126500000Y-121500000D03*
X166000000Y-133250000D03*
X147000000Y-135750000D03*
X159500000Y-131250000D03*
X134250000Y-117000000D03*
X130250000Y-129750000D03*
X131250000Y-118500000D03*
X122000000Y-117000000D03*
X159250000Y-116000000D03*
X148750000Y-131000000D03*
X124000000Y-113500000D03*
X139250000Y-117000000D03*
X124000000Y-112500000D03*
X136750000Y-129500000D03*
X152750000Y-129500000D03*
X137250000Y-117000000D03*
X154750000Y-129500000D03*
X155750000Y-119000000D03*
X149900000Y-119000000D03*
X134750000Y-131000000D03*
X147750000Y-131000000D03*
X147000000Y-137500000D03*
X145000000Y-137500000D03*
X136000000Y-137500000D03*
X136000000Y-135750000D03*
X159250000Y-115000000D03*
X155750000Y-131000000D03*
X122500000Y-123500000D03*
X165000000Y-133250000D03*
X163750000Y-117500000D03*
X149000000Y-137500000D03*
X156750000Y-119000000D03*
X145000000Y-135750000D03*
X125000000Y-116500000D03*
X126500000Y-120500000D03*
X147750000Y-129500000D03*
X139000000Y-137500000D03*
X129250000Y-118500000D03*
X125000000Y-119500000D03*
X138750000Y-131000000D03*
X163000000Y-144000000D03*
X153750000Y-131000000D03*
X125500000Y-113500000D03*
X165750000Y-145750000D03*
X168750000Y-126250000D03*
X129250000Y-117000000D03*
X149900000Y-117500000D03*
X129750000Y-137500000D03*
X125500000Y-139250000D03*
X166750000Y-145750000D03*
X162750000Y-117500000D03*
X130250000Y-117000000D03*
X141250000Y-117000000D03*
X148750000Y-129500000D03*
X128750000Y-137500000D03*
X127250000Y-124250000D03*
X125750000Y-115750000D03*
X122000000Y-128250000D03*
X167750000Y-145750000D03*
X124500000Y-140250000D03*
X144750000Y-131000000D03*
X151750000Y-129500000D03*
X125000000Y-120500000D03*
X152250000Y-120250000D03*
X124000000Y-120500000D03*
X150750000Y-131000000D03*
X124000000Y-125500000D03*
X153750000Y-129500000D03*
X124000000Y-127500000D03*
X149100000Y-117500000D03*
X124000000Y-109500000D03*
X161000000Y-142000000D03*
X153000000Y-137500000D03*
X136250000Y-117000000D03*
X150000000Y-135750000D03*
X158750000Y-130500000D03*
X162500000Y-135000000D03*
X141750000Y-129500000D03*
X125500000Y-105500000D03*
X142250000Y-117000000D03*
X146000000Y-137500000D03*
X156000000Y-135750000D03*
X142000000Y-137500000D03*
X137750000Y-131000000D03*
X128000000Y-127500000D03*
X163000000Y-133250000D03*
X142750000Y-129500000D03*
X156750000Y-129500000D03*
X145500000Y-120000000D03*
X124000000Y-106500000D03*
X136750000Y-131000000D03*
X127250000Y-126750000D03*
X141000000Y-135750000D03*
X135250000Y-117000000D03*
X156000000Y-137500000D03*
X148000000Y-135750000D03*
X148000000Y-137500000D03*
X132250000Y-118500000D03*
X156750000Y-117500000D03*
X124250000Y-135000000D03*
X161000000Y-133250000D03*
X143000000Y-135750000D03*
X155000000Y-135750000D03*
X144000000Y-137500000D03*
X124000000Y-124500000D03*
X138000000Y-135750000D03*
X137000000Y-135750000D03*
X123000000Y-118500000D03*
X167000000Y-129750000D03*
X158000000Y-129750000D03*
X168750000Y-144250000D03*
X124250000Y-134000000D03*
X125000000Y-124500000D03*
X140750000Y-129500000D03*
X139250000Y-118500000D03*
X127000000Y-118500000D03*
X157000000Y-135750000D03*
X144000000Y-120000000D03*
X143250000Y-118500000D03*
X128750000Y-135750000D03*
X135250000Y-118500000D03*
X145750000Y-129500000D03*
X125000000Y-138250000D03*
X137000000Y-137500000D03*
X137250000Y-118500000D03*
X164250000Y-142750000D03*
X154000000Y-135750000D03*
X159250000Y-138250000D03*
X161750000Y-140250000D03*
X158500000Y-133500000D03*
X158250000Y-132500000D03*
X125500000Y-104500000D03*
X125500000Y-109500000D03*
X138250000Y-118500000D03*
X160000000Y-132250000D03*
X152000000Y-137500000D03*
X125000000Y-123500000D03*
X125750000Y-117250000D03*
X168750000Y-122500000D03*
X154000000Y-137500000D03*
X142000000Y-135750000D03*
X162500000Y-139750000D03*
X140250000Y-118500000D03*
X126500000Y-123500000D03*
X135750000Y-129500000D03*
X125500000Y-112500000D03*
X140000000Y-135750000D03*
X129750000Y-135750000D03*
X132500000Y-129500000D03*
X160750000Y-138250000D03*
X124000000Y-108500000D03*
X134750000Y-129500000D03*
X125750000Y-125250000D03*
X157500000Y-131750000D03*
X159250000Y-136750000D03*
X125500000Y-140250000D03*
X131750000Y-128750000D03*
X145750000Y-131000000D03*
X142250000Y-118500000D03*
X168750000Y-129750000D03*
X122750000Y-134000000D03*
X160250000Y-115000000D03*
X163500000Y-137000000D03*
X151000000Y-137500000D03*
X153000000Y-135750000D03*
X155750000Y-117500000D03*
X157500000Y-135000000D03*
X164000000Y-134750000D03*
X140000000Y-137500000D03*
X126500000Y-122500000D03*
X132825000Y-131000000D03*
X162500000Y-141000000D03*
X125500000Y-111500000D03*
X155000000Y-137500000D03*
X124500000Y-128250000D03*
X128250000Y-118500000D03*
X122500000Y-124500000D03*
X165000000Y-143500000D03*
X122500000Y-126500000D03*
X124000000Y-111500000D03*
X155750000Y-129500000D03*
X140750000Y-131000000D03*
X146750000Y-131000000D03*
X134250000Y-118500000D03*
X122250000Y-135750000D03*
X159500000Y-140500000D03*
X164500000Y-145500000D03*
X159750000Y-117000000D03*
X131900000Y-131000000D03*
X130250000Y-118500000D03*
X128750000Y-125750000D03*
X131250000Y-117000000D03*
X133750000Y-129500000D03*
X133250000Y-117000000D03*
X142750000Y-131000000D03*
X122500000Y-120500000D03*
X146750000Y-129500000D03*
X122000000Y-116000000D03*
X126500000Y-126000000D03*
X137750000Y-129500000D03*
X122500000Y-122500000D03*
X136250000Y-118500000D03*
X138000000Y-137500000D03*
X126500000Y-119500000D03*
X150000000Y-137500000D03*
X124000000Y-121500000D03*
X160000000Y-133500000D03*
X122500000Y-125500000D03*
X124000000Y-122500000D03*
X141750000Y-131000000D03*
X130250000Y-127250000D03*
X149750000Y-131000000D03*
X125500000Y-110500000D03*
X129500000Y-129000000D03*
X127750000Y-135750000D03*
X167750000Y-144250000D03*
X166000000Y-134750000D03*
X144000000Y-135750000D03*
X149000000Y-135750000D03*
X133750000Y-131000000D03*
X122500000Y-127500000D03*
X143000000Y-137500000D03*
X165000000Y-134750000D03*
X167000000Y-126250000D03*
X151750000Y-131000000D03*
X146000000Y-135750000D03*
X124000000Y-103500000D03*
X124000000Y-126500000D03*
X140250000Y-117000000D03*
X131000000Y-128000000D03*
X135750000Y-131000000D03*
X139750000Y-131000000D03*
X122500000Y-119500000D03*
X128750000Y-128250000D03*
X163750000Y-119100000D03*
X138750000Y-129500000D03*
X143250000Y-117000000D03*
X139000000Y-135750000D03*
X125500000Y-106500000D03*
X151000000Y-135750000D03*
X143750000Y-131000000D03*
X152000000Y-135750000D03*
X141000000Y-137500000D03*
X124250000Y-117250000D03*
X125000000Y-121500000D03*
X150500000Y-120250000D03*
X125000000Y-137000000D03*
X152750000Y-131000000D03*
X160250000Y-141250000D03*
X163750000Y-144750000D03*
X160250000Y-116000000D03*
X164000000Y-133250000D03*
X133250000Y-118500000D03*
X132250000Y-117000000D03*
X160000000Y-137500000D03*
X124250000Y-115750000D03*
X124000000Y-123500000D03*
X163500000Y-138000000D03*
X149750000Y-129500000D03*
X143750000Y-129500000D03*
X165750000Y-144250000D03*
X125500000Y-103500000D03*
X156750000Y-131000000D03*
X166750000Y-144250000D03*
X124000000Y-107500000D03*
X150750000Y-129500000D03*
X127750000Y-137500000D03*
X162000000Y-133250000D03*
X125500000Y-107500000D03*
X154750000Y-131000000D03*
X141250000Y-118500000D03*
X139750000Y-129500000D03*
X125000000Y-122500000D03*
X159750000Y-118250000D03*
X167000000Y-122500000D03*
X144750000Y-129500000D03*
X129500000Y-126500000D03*
X162750000Y-119100000D03*
X138250000Y-117000000D03*
X149100000Y-119000000D03*
X168750000Y-145750000D03*
X131000000Y-130500000D03*
X124000000Y-104500000D03*
X124500000Y-139250000D03*
X122500000Y-121500000D03*
X160750000Y-136750000D03*
%TO.N,CTRL2A*%
X130250000Y-106250000D03*
X132750000Y-106250000D03*
X127000000Y-112500000D03*
%TO.N,CTRL2B*%
X158250000Y-143750000D03*
%TO.N,+3.3V*%
X141500000Y-103000000D03*
%TO.N,+5V*%
X142525000Y-54500000D03*
X119250000Y-56500000D03*
X130000000Y-109500000D03*
X118000000Y-128250000D03*
X175000000Y-67500000D03*
X148000000Y-142025000D03*
%TO.N,SDA*%
X142500000Y-57500000D03*
%TO.N,SCL*%
X138500000Y-57500000D03*
X114750000Y-68250000D03*
%TO.N,SCLK*%
X133000000Y-79500000D03*
%TO.N,CS*%
X132000000Y-81500000D03*
%TO.N,Net-(BT1-PadP)*%
X136775000Y-61525000D03*
%TO.N,DIO0*%
X130000000Y-87500000D03*
%TD*%
D20*
%TO.N,CTRL1A*%
X143000000Y-105500000D02*
X132250000Y-105500000D01*
X146470000Y-102030000D02*
X143000000Y-105500000D01*
X128250000Y-109500000D02*
X128250000Y-115000000D01*
X146470000Y-76270000D02*
X146470000Y-102030000D01*
X132250000Y-105500000D02*
X128250000Y-109500000D01*
%TO.N,CTRL1B*%
X160500000Y-145250000D02*
X166500000Y-139250000D01*
X177750000Y-98750000D02*
X177750000Y-136250000D01*
X174750000Y-139250000D02*
X177750000Y-136250000D01*
X158500000Y-145250000D02*
X160500000Y-145250000D01*
X158250000Y-79250000D02*
X177750000Y-98750000D01*
X166500000Y-139250000D02*
X174750000Y-139250000D01*
X158500000Y-145250000D02*
X157000000Y-143750000D01*
%TO.N,CTRL2A*%
X151550000Y-76270000D02*
X151550000Y-77950000D01*
X151550000Y-77950000D02*
X147500000Y-82000000D01*
X127000000Y-112500000D02*
X127000000Y-109500000D01*
X147500000Y-102500000D02*
X143750000Y-106250000D01*
X147500000Y-82000000D02*
X147500000Y-102500000D01*
X127000000Y-109500000D02*
X130250000Y-106250000D01*
X132750000Y-106250000D02*
X143750000Y-106250000D01*
%TO.N,CTRL2B*%
X159000000Y-144500000D02*
X158250000Y-143750000D01*
X174500000Y-138500000D02*
X166250000Y-138500000D01*
X177000000Y-99180000D02*
X177000000Y-136000000D01*
X177000000Y-136000000D02*
X174500000Y-138500000D01*
X154090000Y-76270000D02*
X177000000Y-99180000D01*
X166250000Y-138500000D02*
X160250000Y-144500000D01*
X160250000Y-144500000D02*
X159000000Y-144500000D01*
D21*
%TO.N,+3.3V*%
X128750000Y-87500000D02*
X141500000Y-100250000D01*
X141500000Y-100250000D02*
X141500000Y-103000000D01*
X128750000Y-87500000D02*
X128750000Y-76330000D01*
D20*
%TO.N,SDA*%
X115250000Y-69000000D02*
X135500000Y-69000000D01*
X112172964Y-75007036D02*
X112172964Y-72077036D01*
X142500000Y-62000000D02*
X142500000Y-57500000D01*
X112172964Y-72077036D02*
X115250000Y-69000000D01*
X135500000Y-69000000D02*
X142500000Y-62000000D01*
X110910000Y-76270000D02*
X112172964Y-75007036D01*
%TO.N,SCL*%
X139000000Y-58000000D02*
X138500000Y-57500000D01*
X114750000Y-68250000D02*
X135250000Y-68250000D01*
X135250000Y-68250000D02*
X139000000Y-64500000D01*
X139000000Y-64500000D02*
X139000000Y-58000000D01*
D21*
%TO.N,SCLK*%
X133080000Y-79500000D02*
X133000000Y-79500000D01*
X136310000Y-76270000D02*
X133080000Y-79500000D01*
%TO.N,CS*%
X132000000Y-81500000D02*
X134000000Y-81500000D01*
X134000000Y-81500000D02*
X137500000Y-78000000D01*
X138770000Y-73730000D02*
X138850000Y-73730000D01*
X137500000Y-78000000D02*
X137500000Y-75000000D01*
X137500000Y-75000000D02*
X138770000Y-73730000D01*
D20*
%TO.N,DIO0*%
X128690000Y-73730000D02*
X130000000Y-75040000D01*
X130000000Y-75040000D02*
X130000000Y-87500000D01*
%TD*%
%TA.AperFunction,Conductor*%
%TO.N,GND*%
G36*
X184441621Y-50520502D02*
G01*
X184488114Y-50574158D01*
X184499500Y-50626500D01*
X184499500Y-149373500D01*
X184479498Y-149441621D01*
X184425842Y-149488114D01*
X184373500Y-149499500D01*
X100626500Y-149499500D01*
X100558379Y-149479498D01*
X100511886Y-149425842D01*
X100500500Y-149373500D01*
X100500500Y-148605973D01*
X166759273Y-148605973D01*
X166763032Y-148611269D01*
X166959066Y-148725822D01*
X166968349Y-148730269D01*
X167184206Y-148812697D01*
X167194108Y-148815574D01*
X167420511Y-148861636D01*
X167430764Y-148862859D01*
X167661657Y-148871326D01*
X167671943Y-148870859D01*
X167901132Y-148841499D01*
X167911210Y-148839357D01*
X168132522Y-148772960D01*
X168142120Y-148769199D01*
X168349617Y-148667547D01*
X168358462Y-148662274D01*
X168428115Y-148612591D01*
X168433311Y-148605973D01*
X171559273Y-148605973D01*
X171563032Y-148611269D01*
X171759066Y-148725822D01*
X171768349Y-148730269D01*
X171984206Y-148812697D01*
X171994108Y-148815574D01*
X172220511Y-148861636D01*
X172230764Y-148862859D01*
X172461657Y-148871326D01*
X172471943Y-148870859D01*
X172701132Y-148841499D01*
X172711210Y-148839357D01*
X172932522Y-148772960D01*
X172942120Y-148769199D01*
X173149617Y-148667547D01*
X173158462Y-148662274D01*
X173228115Y-148612591D01*
X173236516Y-148601891D01*
X173229528Y-148588738D01*
X172412812Y-147772022D01*
X172398868Y-147764408D01*
X172397035Y-147764539D01*
X172390420Y-147768790D01*
X171566534Y-148592676D01*
X171559273Y-148605973D01*
X168433311Y-148605973D01*
X168436516Y-148601891D01*
X168429528Y-148588738D01*
X167612812Y-147772022D01*
X167598868Y-147764408D01*
X167597035Y-147764539D01*
X167590420Y-147768790D01*
X166766534Y-148592676D01*
X166759273Y-148605973D01*
X100500500Y-148605973D01*
X100500500Y-146607165D01*
X101747866Y-146607165D01*
X101782952Y-146864970D01*
X101855758Y-147114757D01*
X101857718Y-147119010D01*
X101857719Y-147119011D01*
X101873454Y-147153142D01*
X101964686Y-147351039D01*
X101967246Y-147354944D01*
X101967249Y-147354949D01*
X102104775Y-147564712D01*
X102104779Y-147564717D01*
X102107341Y-147568625D01*
X102193966Y-147665680D01*
X102230098Y-147706162D01*
X102280591Y-147762735D01*
X102480629Y-147929105D01*
X102703061Y-148064080D01*
X102707375Y-148065889D01*
X102707377Y-148065890D01*
X102938686Y-148162886D01*
X102938691Y-148162888D01*
X102943001Y-148164695D01*
X102947533Y-148165846D01*
X102947536Y-148165847D01*
X103072815Y-148197663D01*
X103195177Y-148228739D01*
X103411286Y-148250500D01*
X103566044Y-148250500D01*
X103568369Y-148250327D01*
X103568375Y-148250327D01*
X103754814Y-148236472D01*
X103754818Y-148236471D01*
X103759466Y-148236126D01*
X104013232Y-148178705D01*
X104017586Y-148177012D01*
X104251370Y-148086098D01*
X104251372Y-148086097D01*
X104255723Y-148084405D01*
X104283445Y-148068561D01*
X104339038Y-148036786D01*
X104481612Y-147955299D01*
X104685936Y-147794223D01*
X104864208Y-147604714D01*
X105004167Y-147402965D01*
X105009846Y-147394779D01*
X105009848Y-147394776D01*
X105012511Y-147390937D01*
X105023247Y-147369167D01*
X166127706Y-147369167D01*
X166141006Y-147599838D01*
X166142442Y-147610058D01*
X166193238Y-147835454D01*
X166196317Y-147845282D01*
X166283249Y-148059370D01*
X166287892Y-148068561D01*
X166386464Y-148229416D01*
X166396921Y-148238876D01*
X166405697Y-148235093D01*
X167227978Y-147412812D01*
X167234356Y-147401132D01*
X167964408Y-147401132D01*
X167964539Y-147402965D01*
X167968790Y-147409580D01*
X168789296Y-148230086D01*
X168801306Y-148236645D01*
X168813046Y-148227677D01*
X168859616Y-148162867D01*
X168864927Y-148154028D01*
X168967296Y-147946901D01*
X168971094Y-147937308D01*
X169038262Y-147716232D01*
X169040439Y-147706162D01*
X169070835Y-147475279D01*
X169071354Y-147468604D01*
X169072949Y-147403364D01*
X169072755Y-147396647D01*
X169070496Y-147369167D01*
X170927706Y-147369167D01*
X170941006Y-147599838D01*
X170942442Y-147610058D01*
X170993238Y-147835454D01*
X170996317Y-147845282D01*
X171083249Y-148059370D01*
X171087892Y-148068561D01*
X171186464Y-148229416D01*
X171196921Y-148238876D01*
X171205697Y-148235093D01*
X172027978Y-147412812D01*
X172034356Y-147401132D01*
X172764408Y-147401132D01*
X172764539Y-147402965D01*
X172768790Y-147409580D01*
X173589296Y-148230086D01*
X173601306Y-148236645D01*
X173613046Y-148227677D01*
X173659616Y-148162867D01*
X173664927Y-148154028D01*
X173767296Y-147946901D01*
X173771094Y-147937308D01*
X173838262Y-147716232D01*
X173840439Y-147706162D01*
X173870835Y-147475279D01*
X173871354Y-147468604D01*
X173872949Y-147403364D01*
X173872755Y-147396647D01*
X173853675Y-147164567D01*
X173851992Y-147154405D01*
X173795703Y-146930306D01*
X173792382Y-146920551D01*
X173700252Y-146708667D01*
X173695374Y-146699570D01*
X173635595Y-146607165D01*
X179747866Y-146607165D01*
X179782952Y-146864970D01*
X179855758Y-147114757D01*
X179857718Y-147119010D01*
X179857719Y-147119011D01*
X179873454Y-147153142D01*
X179964686Y-147351039D01*
X179967246Y-147354944D01*
X179967249Y-147354949D01*
X180104775Y-147564712D01*
X180104779Y-147564717D01*
X180107341Y-147568625D01*
X180193966Y-147665680D01*
X180230098Y-147706162D01*
X180280591Y-147762735D01*
X180480629Y-147929105D01*
X180703061Y-148064080D01*
X180707375Y-148065889D01*
X180707377Y-148065890D01*
X180938686Y-148162886D01*
X180938691Y-148162888D01*
X180943001Y-148164695D01*
X180947533Y-148165846D01*
X180947536Y-148165847D01*
X181072815Y-148197663D01*
X181195177Y-148228739D01*
X181411286Y-148250500D01*
X181566044Y-148250500D01*
X181568369Y-148250327D01*
X181568375Y-148250327D01*
X181754814Y-148236472D01*
X181754818Y-148236471D01*
X181759466Y-148236126D01*
X182013232Y-148178705D01*
X182017586Y-148177012D01*
X182251370Y-148086098D01*
X182251372Y-148086097D01*
X182255723Y-148084405D01*
X182283445Y-148068561D01*
X182339038Y-148036786D01*
X182481612Y-147955299D01*
X182685936Y-147794223D01*
X182864208Y-147604714D01*
X183004167Y-147402965D01*
X183009846Y-147394779D01*
X183009848Y-147394776D01*
X183012511Y-147390937D01*
X183030258Y-147354949D01*
X183125521Y-147161775D01*
X183125522Y-147161772D01*
X183127586Y-147157587D01*
X183206906Y-146909792D01*
X183248728Y-146652994D01*
X183252134Y-146392835D01*
X183217048Y-146135030D01*
X183144242Y-145885243D01*
X183140466Y-145877051D01*
X183095951Y-145780493D01*
X183035314Y-145648961D01*
X183032751Y-145645051D01*
X182895225Y-145435288D01*
X182895221Y-145435283D01*
X182892659Y-145431375D01*
X182719409Y-145237265D01*
X182519371Y-145070895D01*
X182296939Y-144935920D01*
X182292623Y-144934110D01*
X182061314Y-144837114D01*
X182061309Y-144837112D01*
X182056999Y-144835305D01*
X182052467Y-144834154D01*
X182052464Y-144834153D01*
X181844454Y-144781326D01*
X181804823Y-144771261D01*
X181588714Y-144749500D01*
X181433956Y-144749500D01*
X181431631Y-144749673D01*
X181431625Y-144749673D01*
X181245186Y-144763528D01*
X181245182Y-144763529D01*
X181240534Y-144763874D01*
X180986768Y-144821295D01*
X180982416Y-144822987D01*
X180982414Y-144822988D01*
X180748630Y-144913902D01*
X180748628Y-144913903D01*
X180744277Y-144915595D01*
X180740223Y-144917912D01*
X180740221Y-144917913D01*
X180704467Y-144938348D01*
X180518388Y-145044701D01*
X180314064Y-145205777D01*
X180135792Y-145395286D01*
X179987489Y-145609063D01*
X179985423Y-145613253D01*
X179985421Y-145613256D01*
X179877364Y-145832376D01*
X179872414Y-145842413D01*
X179870992Y-145846856D01*
X179870991Y-145846858D01*
X179862716Y-145872709D01*
X179793094Y-146090208D01*
X179751272Y-146347006D01*
X179751211Y-146351683D01*
X179748452Y-146562442D01*
X179747866Y-146607165D01*
X173635595Y-146607165D01*
X173612616Y-146571645D01*
X173601930Y-146562442D01*
X173592365Y-146566845D01*
X172772022Y-147387188D01*
X172764408Y-147401132D01*
X172034356Y-147401132D01*
X172035592Y-147398868D01*
X172035461Y-147397035D01*
X172031210Y-147390420D01*
X171210687Y-146569897D01*
X171199151Y-146563597D01*
X171186868Y-146573221D01*
X171122126Y-146668129D01*
X171117028Y-146677103D01*
X171019750Y-146886670D01*
X171016187Y-146896357D01*
X170954442Y-147118999D01*
X170952511Y-147129118D01*
X170927958Y-147358878D01*
X170927706Y-147369167D01*
X169070496Y-147369167D01*
X169053675Y-147164567D01*
X169051992Y-147154405D01*
X168995703Y-146930306D01*
X168992382Y-146920551D01*
X168900252Y-146708667D01*
X168895374Y-146699570D01*
X168812616Y-146571645D01*
X168801930Y-146562442D01*
X168792365Y-146566845D01*
X167972022Y-147387188D01*
X167964408Y-147401132D01*
X167234356Y-147401132D01*
X167235592Y-147398868D01*
X167235461Y-147397035D01*
X167231210Y-147390420D01*
X166410687Y-146569897D01*
X166399151Y-146563597D01*
X166386868Y-146573221D01*
X166322126Y-146668129D01*
X166317028Y-146677103D01*
X166219750Y-146886670D01*
X166216187Y-146896357D01*
X166154442Y-147118999D01*
X166152511Y-147129118D01*
X166127958Y-147358878D01*
X166127706Y-147369167D01*
X105023247Y-147369167D01*
X105030258Y-147354949D01*
X105125521Y-147161775D01*
X105125522Y-147161772D01*
X105127586Y-147157587D01*
X105206906Y-146909792D01*
X105248728Y-146652994D01*
X105252134Y-146392835D01*
X105225598Y-146197857D01*
X166762652Y-146197857D01*
X166769397Y-146210187D01*
X167587188Y-147027978D01*
X167601132Y-147035592D01*
X167602965Y-147035461D01*
X167609580Y-147031210D01*
X168431710Y-146209080D01*
X168438731Y-146196223D01*
X168430959Y-146185556D01*
X168419218Y-146176283D01*
X168410637Y-146170583D01*
X168208355Y-146058918D01*
X168198956Y-146054693D01*
X167981155Y-145977565D01*
X167971184Y-145974931D01*
X167743713Y-145934412D01*
X167733461Y-145933443D01*
X167502417Y-145930620D01*
X167492133Y-145931340D01*
X167263741Y-145966289D01*
X167253713Y-145968678D01*
X167034096Y-146040460D01*
X167024586Y-146044457D01*
X166819646Y-146151142D01*
X166810921Y-146156636D01*
X166771106Y-146186530D01*
X166762652Y-146197857D01*
X105225598Y-146197857D01*
X105217048Y-146135030D01*
X105144242Y-145885243D01*
X105140466Y-145877051D01*
X105095951Y-145780493D01*
X105035314Y-145648961D01*
X105032751Y-145645051D01*
X104895225Y-145435288D01*
X104895221Y-145435283D01*
X104892659Y-145431375D01*
X104719409Y-145237265D01*
X104519371Y-145070895D01*
X104296939Y-144935920D01*
X104292623Y-144934110D01*
X104061314Y-144837114D01*
X104061309Y-144837112D01*
X104056999Y-144835305D01*
X104052467Y-144834154D01*
X104052464Y-144834153D01*
X103844454Y-144781326D01*
X103804823Y-144771261D01*
X103588714Y-144749500D01*
X103433956Y-144749500D01*
X103431631Y-144749673D01*
X103431625Y-144749673D01*
X103245186Y-144763528D01*
X103245182Y-144763529D01*
X103240534Y-144763874D01*
X102986768Y-144821295D01*
X102982416Y-144822987D01*
X102982414Y-144822988D01*
X102748630Y-144913902D01*
X102748628Y-144913903D01*
X102744277Y-144915595D01*
X102740223Y-144917912D01*
X102740221Y-144917913D01*
X102704467Y-144938348D01*
X102518388Y-145044701D01*
X102314064Y-145205777D01*
X102135792Y-145395286D01*
X101987489Y-145609063D01*
X101985423Y-145613253D01*
X101985421Y-145613256D01*
X101877364Y-145832376D01*
X101872414Y-145842413D01*
X101870992Y-145846856D01*
X101870991Y-145846858D01*
X101862716Y-145872709D01*
X101793094Y-146090208D01*
X101751272Y-146347006D01*
X101751211Y-146351683D01*
X101748452Y-146562442D01*
X101747866Y-146607165D01*
X100500500Y-146607165D01*
X100500500Y-142025000D01*
X147094540Y-142025000D01*
X147095230Y-142031565D01*
X147104583Y-142120551D01*
X147114326Y-142213256D01*
X147172821Y-142393284D01*
X147267467Y-142557216D01*
X147271885Y-142562123D01*
X147271886Y-142562124D01*
X147373772Y-142675279D01*
X147394129Y-142697888D01*
X147399468Y-142701767D01*
X147534452Y-142799838D01*
X147547270Y-142809151D01*
X147720197Y-142886144D01*
X147814375Y-142906162D01*
X147898897Y-142924128D01*
X147898901Y-142924128D01*
X147905354Y-142925500D01*
X148094646Y-142925500D01*
X148101099Y-142924128D01*
X148101103Y-142924128D01*
X148185625Y-142906162D01*
X148279803Y-142886144D01*
X148452730Y-142809151D01*
X148465549Y-142799838D01*
X148600532Y-142701767D01*
X148605871Y-142697888D01*
X148626229Y-142675279D01*
X148728114Y-142562124D01*
X148728115Y-142562123D01*
X148732533Y-142557216D01*
X148827179Y-142393284D01*
X148885674Y-142213256D01*
X148895418Y-142120551D01*
X148904770Y-142031565D01*
X148905460Y-142025000D01*
X148885674Y-141836744D01*
X148827179Y-141656716D01*
X148732533Y-141492784D01*
X148658162Y-141410187D01*
X148610286Y-141357015D01*
X148610284Y-141357014D01*
X148605871Y-141352112D01*
X148452730Y-141240849D01*
X148279803Y-141163856D01*
X148181788Y-141143022D01*
X148101103Y-141125872D01*
X148101099Y-141125872D01*
X148094646Y-141124500D01*
X147905354Y-141124500D01*
X147898901Y-141125872D01*
X147898897Y-141125872D01*
X147818212Y-141143022D01*
X147720197Y-141163856D01*
X147547270Y-141240849D01*
X147394129Y-141352112D01*
X147389716Y-141357014D01*
X147389714Y-141357015D01*
X147341838Y-141410187D01*
X147267467Y-141492784D01*
X147172821Y-141656716D01*
X147114326Y-141836744D01*
X147094540Y-142025000D01*
X100500500Y-142025000D01*
X100500500Y-128250000D01*
X117094540Y-128250000D01*
X117114326Y-128438256D01*
X117172821Y-128618284D01*
X117267467Y-128782216D01*
X117394129Y-128922888D01*
X117547270Y-129034151D01*
X117720197Y-129111144D01*
X117818212Y-129131978D01*
X117898897Y-129149128D01*
X117898901Y-129149128D01*
X117905354Y-129150500D01*
X118094646Y-129150500D01*
X118101099Y-129149128D01*
X118101103Y-129149128D01*
X118181788Y-129131978D01*
X118279803Y-129111144D01*
X118452730Y-129034151D01*
X118605871Y-128922888D01*
X118732533Y-128782216D01*
X118827179Y-128618284D01*
X118885674Y-128438256D01*
X118905460Y-128250000D01*
X118885674Y-128061744D01*
X118827179Y-127881716D01*
X118732533Y-127717784D01*
X118605871Y-127577112D01*
X118452730Y-127465849D01*
X118279803Y-127388856D01*
X118181788Y-127368022D01*
X118101103Y-127350872D01*
X118101099Y-127350872D01*
X118094646Y-127349500D01*
X117905354Y-127349500D01*
X117898901Y-127350872D01*
X117898897Y-127350872D01*
X117818212Y-127368022D01*
X117720197Y-127388856D01*
X117547270Y-127465849D01*
X117394129Y-127577112D01*
X117267467Y-127717784D01*
X117172821Y-127881716D01*
X117114326Y-128061744D01*
X117094540Y-128250000D01*
X100500500Y-128250000D01*
X100500500Y-123940939D01*
X101620637Y-123940939D01*
X101622957Y-124000000D01*
X101631064Y-124206332D01*
X101678782Y-124467609D01*
X101680191Y-124471832D01*
X101735271Y-124636926D01*
X101762838Y-124719556D01*
X101881555Y-124957146D01*
X102032564Y-125175638D01*
X102035586Y-125178907D01*
X102209836Y-125367411D01*
X102209841Y-125367416D01*
X102212852Y-125370673D01*
X102418823Y-125538360D01*
X102646366Y-125675352D01*
X102650461Y-125677086D01*
X102650463Y-125677087D01*
X102818521Y-125748250D01*
X102890941Y-125778916D01*
X102895234Y-125780054D01*
X102895239Y-125780056D01*
X103029220Y-125815580D01*
X103147669Y-125846986D01*
X103411426Y-125878204D01*
X103676951Y-125871946D01*
X103681349Y-125871214D01*
X103934555Y-125829069D01*
X103934559Y-125829068D01*
X103938945Y-125828338D01*
X103943186Y-125826997D01*
X103943189Y-125826996D01*
X104187935Y-125749593D01*
X104187937Y-125749592D01*
X104192181Y-125748250D01*
X104196192Y-125746324D01*
X104196197Y-125746322D01*
X104427587Y-125635210D01*
X104427588Y-125635209D01*
X104431606Y-125633280D01*
X104570222Y-125540660D01*
X104648736Y-125488199D01*
X104648740Y-125488196D01*
X104652444Y-125485721D01*
X104655761Y-125482750D01*
X104655765Y-125482747D01*
X104846968Y-125311491D01*
X104846969Y-125311490D01*
X104850286Y-125308519D01*
X105021187Y-125105207D01*
X105161737Y-124879844D01*
X105269130Y-124636926D01*
X105341224Y-124381299D01*
X105376581Y-124118064D01*
X105380291Y-124000000D01*
X105376109Y-123940939D01*
X159620637Y-123940939D01*
X159622957Y-124000000D01*
X159631064Y-124206332D01*
X159678782Y-124467609D01*
X159680191Y-124471832D01*
X159735271Y-124636926D01*
X159762838Y-124719556D01*
X159881555Y-124957146D01*
X160032564Y-125175638D01*
X160035586Y-125178907D01*
X160209836Y-125367411D01*
X160209841Y-125367416D01*
X160212852Y-125370673D01*
X160418823Y-125538360D01*
X160646366Y-125675352D01*
X160650461Y-125677086D01*
X160650463Y-125677087D01*
X160818521Y-125748250D01*
X160890941Y-125778916D01*
X160895234Y-125780054D01*
X160895239Y-125780056D01*
X161029220Y-125815580D01*
X161147669Y-125846986D01*
X161411426Y-125878204D01*
X161676951Y-125871946D01*
X161681349Y-125871214D01*
X161934555Y-125829069D01*
X161934559Y-125829068D01*
X161938945Y-125828338D01*
X161943186Y-125826997D01*
X161943189Y-125826996D01*
X162187935Y-125749593D01*
X162187937Y-125749592D01*
X162192181Y-125748250D01*
X162196192Y-125746324D01*
X162196197Y-125746322D01*
X162427587Y-125635210D01*
X162427588Y-125635209D01*
X162431606Y-125633280D01*
X162570222Y-125540660D01*
X162648736Y-125488199D01*
X162648740Y-125488196D01*
X162652444Y-125485721D01*
X162655761Y-125482750D01*
X162655765Y-125482747D01*
X162846968Y-125311491D01*
X162846969Y-125311490D01*
X162850286Y-125308519D01*
X163021187Y-125105207D01*
X163161737Y-124879844D01*
X163269130Y-124636926D01*
X163341224Y-124381299D01*
X163376581Y-124118064D01*
X163380291Y-124000000D01*
X163361533Y-123735065D01*
X163348973Y-123676723D01*
X163306568Y-123479763D01*
X163306568Y-123479761D01*
X163305632Y-123475416D01*
X163213703Y-123226233D01*
X163087582Y-122992490D01*
X162929784Y-122778849D01*
X162743459Y-122589573D01*
X162739919Y-122586871D01*
X162535864Y-122431141D01*
X162535860Y-122431138D01*
X162532323Y-122428439D01*
X162300589Y-122298662D01*
X162052881Y-122202831D01*
X162048560Y-122201829D01*
X162048552Y-122201827D01*
X161878433Y-122162397D01*
X161794142Y-122142859D01*
X161529534Y-122119941D01*
X161525099Y-122120185D01*
X161525095Y-122120185D01*
X161268780Y-122134291D01*
X161268773Y-122134292D01*
X161264337Y-122134536D01*
X161084398Y-122170328D01*
X161008205Y-122185483D01*
X161008203Y-122185484D01*
X161003842Y-122186351D01*
X160753246Y-122274354D01*
X160517551Y-122396788D01*
X160513936Y-122399371D01*
X160513930Y-122399375D01*
X160377198Y-122497086D01*
X160301457Y-122551211D01*
X160109278Y-122734541D01*
X159944848Y-122943120D01*
X159942616Y-122946962D01*
X159942613Y-122946967D01*
X159813685Y-123168932D01*
X159813682Y-123168938D01*
X159811447Y-123172786D01*
X159809773Y-123176920D01*
X159713410Y-123414826D01*
X159713407Y-123414834D01*
X159711737Y-123418958D01*
X159671316Y-123581683D01*
X159655760Y-123644309D01*
X159647708Y-123676723D01*
X159620637Y-123940939D01*
X105376109Y-123940939D01*
X105361533Y-123735065D01*
X105348973Y-123676723D01*
X105306568Y-123479763D01*
X105306568Y-123479761D01*
X105305632Y-123475416D01*
X105213703Y-123226233D01*
X105087582Y-122992490D01*
X104929784Y-122778849D01*
X104743459Y-122589573D01*
X104739919Y-122586871D01*
X104535864Y-122431141D01*
X104535860Y-122431138D01*
X104532323Y-122428439D01*
X104300589Y-122298662D01*
X104052881Y-122202831D01*
X104048560Y-122201829D01*
X104048552Y-122201827D01*
X103878433Y-122162397D01*
X103794142Y-122142859D01*
X103529534Y-122119941D01*
X103525099Y-122120185D01*
X103525095Y-122120185D01*
X103268780Y-122134291D01*
X103268773Y-122134292D01*
X103264337Y-122134536D01*
X103084398Y-122170328D01*
X103008205Y-122185483D01*
X103008203Y-122185484D01*
X103003842Y-122186351D01*
X102753246Y-122274354D01*
X102517551Y-122396788D01*
X102513936Y-122399371D01*
X102513930Y-122399375D01*
X102377198Y-122497086D01*
X102301457Y-122551211D01*
X102109278Y-122734541D01*
X101944848Y-122943120D01*
X101942616Y-122946962D01*
X101942613Y-122946967D01*
X101813685Y-123168932D01*
X101813682Y-123168938D01*
X101811447Y-123172786D01*
X101809773Y-123176920D01*
X101713410Y-123414826D01*
X101713407Y-123414834D01*
X101711737Y-123418958D01*
X101671316Y-123581683D01*
X101655760Y-123644309D01*
X101647708Y-123676723D01*
X101620637Y-123940939D01*
X100500500Y-123940939D01*
X100500500Y-74940939D01*
X101620637Y-74940939D01*
X101620812Y-74945391D01*
X101622957Y-75000000D01*
X101630145Y-75182932D01*
X101631064Y-75206332D01*
X101678782Y-75467609D01*
X101680191Y-75471832D01*
X101735271Y-75636926D01*
X101762838Y-75719556D01*
X101881555Y-75957146D01*
X102032564Y-76175638D01*
X102035586Y-76178907D01*
X102209836Y-76367411D01*
X102209841Y-76367416D01*
X102212852Y-76370673D01*
X102418823Y-76538360D01*
X102646366Y-76675352D01*
X102650461Y-76677086D01*
X102650463Y-76677087D01*
X102818521Y-76748250D01*
X102890941Y-76778916D01*
X102895234Y-76780054D01*
X102895239Y-76780056D01*
X103029220Y-76815580D01*
X103147669Y-76846986D01*
X103411426Y-76878204D01*
X103676951Y-76871946D01*
X103681349Y-76871214D01*
X103934555Y-76829069D01*
X103934559Y-76829068D01*
X103938945Y-76828338D01*
X103943186Y-76826997D01*
X103943189Y-76826996D01*
X104187935Y-76749593D01*
X104187937Y-76749592D01*
X104192181Y-76748250D01*
X104196192Y-76746324D01*
X104196197Y-76746322D01*
X104427587Y-76635210D01*
X104427588Y-76635209D01*
X104431606Y-76633280D01*
X104435312Y-76630804D01*
X104648736Y-76488199D01*
X104648740Y-76488196D01*
X104652444Y-76485721D01*
X104655761Y-76482750D01*
X104655765Y-76482747D01*
X104846968Y-76311491D01*
X104846969Y-76311490D01*
X104850286Y-76308519D01*
X105021187Y-76105207D01*
X105059791Y-76043309D01*
X105159379Y-75883625D01*
X105159379Y-75883624D01*
X105161737Y-75879844D01*
X105269130Y-75636926D01*
X105341224Y-75381299D01*
X105369586Y-75170143D01*
X105376154Y-75121245D01*
X105376154Y-75121240D01*
X105376581Y-75118064D01*
X105379759Y-75016924D01*
X105380190Y-75003222D01*
X105380190Y-75003217D01*
X105380291Y-75000000D01*
X105361533Y-74735065D01*
X105353167Y-74696204D01*
X105306568Y-74479763D01*
X105306568Y-74479761D01*
X105305632Y-74475416D01*
X105213703Y-74226233D01*
X105087582Y-73992490D01*
X104929784Y-73778849D01*
X104881697Y-73730000D01*
X107102677Y-73730000D01*
X107121930Y-73950068D01*
X107179106Y-74163450D01*
X107181428Y-74168431D01*
X107181429Y-74168432D01*
X107266152Y-74350120D01*
X107272466Y-74363661D01*
X107399174Y-74544620D01*
X107555380Y-74700826D01*
X107559888Y-74703983D01*
X107559891Y-74703985D01*
X107666007Y-74778288D01*
X107710335Y-74833745D01*
X107717644Y-74904364D01*
X107685613Y-74967725D01*
X107624412Y-75003710D01*
X107593736Y-75007501D01*
X107560624Y-75007501D01*
X107557230Y-75007870D01*
X107557224Y-75007870D01*
X107507278Y-75013295D01*
X107507274Y-75013296D01*
X107499420Y-75014149D01*
X107365176Y-75064474D01*
X107357997Y-75069854D01*
X107357994Y-75069856D01*
X107272384Y-75134018D01*
X107250454Y-75150454D01*
X107245072Y-75157635D01*
X107169856Y-75257994D01*
X107169854Y-75257997D01*
X107164474Y-75265176D01*
X107114149Y-75399420D01*
X107107500Y-75460623D01*
X107107501Y-77079376D01*
X107107870Y-77082770D01*
X107107870Y-77082776D01*
X107108494Y-77088515D01*
X107114149Y-77140580D01*
X107164474Y-77274824D01*
X107169854Y-77282003D01*
X107169856Y-77282006D01*
X107244148Y-77381132D01*
X107250454Y-77389546D01*
X107257635Y-77394928D01*
X107357994Y-77470144D01*
X107357997Y-77470146D01*
X107365176Y-77475526D01*
X107417751Y-77495235D01*
X107492025Y-77523079D01*
X107492027Y-77523079D01*
X107499420Y-77525851D01*
X107507270Y-77526704D01*
X107507271Y-77526704D01*
X107557217Y-77532130D01*
X107560623Y-77532500D01*
X108369881Y-77532500D01*
X109179376Y-77532499D01*
X109182770Y-77532130D01*
X109182776Y-77532130D01*
X109232722Y-77526705D01*
X109232726Y-77526704D01*
X109240580Y-77525851D01*
X109374824Y-77475526D01*
X109382003Y-77470146D01*
X109382006Y-77470144D01*
X109482365Y-77394928D01*
X109489546Y-77389546D01*
X109495852Y-77381132D01*
X109570144Y-77282006D01*
X109570146Y-77282003D01*
X109575526Y-77274824D01*
X109625851Y-77140580D01*
X109632500Y-77079377D01*
X109632500Y-77046263D01*
X109652502Y-76978142D01*
X109706158Y-76931649D01*
X109776432Y-76921545D01*
X109841012Y-76951039D01*
X109861708Y-76973986D01*
X109939174Y-77084620D01*
X110095380Y-77240826D01*
X110099888Y-77243983D01*
X110099891Y-77243985D01*
X110265771Y-77360135D01*
X110276338Y-77367534D01*
X110281320Y-77369857D01*
X110281325Y-77369860D01*
X110471568Y-77458571D01*
X110476550Y-77460894D01*
X110481858Y-77462316D01*
X110481860Y-77462317D01*
X110508261Y-77469391D01*
X110689932Y-77518070D01*
X110910000Y-77537323D01*
X111130068Y-77518070D01*
X111311739Y-77469391D01*
X111338140Y-77462317D01*
X111338142Y-77462316D01*
X111343450Y-77460894D01*
X111348432Y-77458571D01*
X111538675Y-77369860D01*
X111538680Y-77369857D01*
X111543662Y-77367534D01*
X111554229Y-77360135D01*
X111720109Y-77243985D01*
X111720112Y-77243983D01*
X111724620Y-77240826D01*
X111880826Y-77084620D01*
X112007534Y-76903661D01*
X112022665Y-76871214D01*
X112065805Y-76778699D01*
X112112722Y-76725414D01*
X112181000Y-76705953D01*
X112248960Y-76726495D01*
X112294195Y-76778699D01*
X112337336Y-76871214D01*
X112352466Y-76903661D01*
X112479174Y-77084620D01*
X112635380Y-77240826D01*
X112639888Y-77243983D01*
X112639891Y-77243985D01*
X112805771Y-77360135D01*
X112816338Y-77367534D01*
X112821320Y-77369857D01*
X112821325Y-77369860D01*
X113011568Y-77458571D01*
X113016550Y-77460894D01*
X113021858Y-77462316D01*
X113021860Y-77462317D01*
X113048261Y-77469391D01*
X113229932Y-77518070D01*
X113450000Y-77537323D01*
X113670068Y-77518070D01*
X113851739Y-77469391D01*
X113878140Y-77462317D01*
X113878142Y-77462316D01*
X113883450Y-77460894D01*
X113888432Y-77458571D01*
X114078675Y-77369860D01*
X114078680Y-77369857D01*
X114083662Y-77367534D01*
X114094229Y-77360135D01*
X114260109Y-77243985D01*
X114260112Y-77243983D01*
X114264620Y-77240826D01*
X114420826Y-77084620D01*
X114547534Y-76903661D01*
X114562665Y-76871214D01*
X114605805Y-76778699D01*
X114652722Y-76725414D01*
X114721000Y-76705953D01*
X114788960Y-76726495D01*
X114834195Y-76778699D01*
X114877336Y-76871214D01*
X114892466Y-76903661D01*
X115019174Y-77084620D01*
X115175380Y-77240826D01*
X115179888Y-77243983D01*
X115179891Y-77243985D01*
X115345771Y-77360135D01*
X115356338Y-77367534D01*
X115361320Y-77369857D01*
X115361325Y-77369860D01*
X115551568Y-77458571D01*
X115556550Y-77460894D01*
X115561858Y-77462316D01*
X115561860Y-77462317D01*
X115588261Y-77469391D01*
X115769932Y-77518070D01*
X115990000Y-77537323D01*
X116210068Y-77518070D01*
X116391739Y-77469391D01*
X116418140Y-77462317D01*
X116418142Y-77462316D01*
X116423450Y-77460894D01*
X116428432Y-77458571D01*
X116618675Y-77369860D01*
X116618680Y-77369857D01*
X116623662Y-77367534D01*
X116634229Y-77360135D01*
X116679013Y-77328777D01*
X117835777Y-77328777D01*
X117845074Y-77340793D01*
X117888069Y-77370898D01*
X117897555Y-77376376D01*
X118088993Y-77465645D01*
X118099285Y-77469391D01*
X118303309Y-77524059D01*
X118314104Y-77525962D01*
X118524525Y-77544372D01*
X118535475Y-77544372D01*
X118745896Y-77525962D01*
X118756691Y-77524059D01*
X118960715Y-77469391D01*
X118971007Y-77465645D01*
X119162445Y-77376376D01*
X119171931Y-77370898D01*
X119215764Y-77340207D01*
X119224139Y-77329729D01*
X119217071Y-77316281D01*
X118542812Y-76642022D01*
X118528868Y-76634408D01*
X118527035Y-76634539D01*
X118520420Y-76638790D01*
X117842207Y-77317003D01*
X117835777Y-77328777D01*
X116679013Y-77328777D01*
X116800109Y-77243985D01*
X116800112Y-77243983D01*
X116804620Y-77240826D01*
X116960826Y-77084620D01*
X117087534Y-76903661D01*
X117102665Y-76871214D01*
X117141668Y-76787571D01*
X117188586Y-76734286D01*
X117256863Y-76714825D01*
X117324823Y-76735367D01*
X117370058Y-76787571D01*
X117423623Y-76902441D01*
X117429103Y-76911932D01*
X117459794Y-76955765D01*
X117470271Y-76964140D01*
X117483718Y-76957072D01*
X118157978Y-76282812D01*
X118165592Y-76268868D01*
X118165461Y-76267035D01*
X118161210Y-76260420D01*
X117482997Y-75582207D01*
X117471223Y-75575777D01*
X117459207Y-75585074D01*
X117429103Y-75628068D01*
X117423623Y-75637559D01*
X117370058Y-75752429D01*
X117323141Y-75805714D01*
X117254863Y-75825175D01*
X117186903Y-75804633D01*
X117141668Y-75752429D01*
X117089857Y-75641320D01*
X117089855Y-75641317D01*
X117087534Y-75636339D01*
X116960826Y-75455380D01*
X116804620Y-75299174D01*
X116800112Y-75296017D01*
X116800109Y-75296015D01*
X116628171Y-75175623D01*
X116628168Y-75175621D01*
X116623662Y-75172466D01*
X116618680Y-75170143D01*
X116618675Y-75170140D01*
X116498699Y-75114195D01*
X116445414Y-75067278D01*
X116425953Y-74999001D01*
X116446495Y-74931041D01*
X116498699Y-74885805D01*
X116618675Y-74829860D01*
X116618680Y-74829857D01*
X116623662Y-74827534D01*
X116628171Y-74824377D01*
X116800109Y-74703985D01*
X116800112Y-74703983D01*
X116804620Y-74700826D01*
X116960826Y-74544620D01*
X117087534Y-74363661D01*
X117093849Y-74350120D01*
X117145805Y-74238699D01*
X117192722Y-74185414D01*
X117261000Y-74165953D01*
X117328960Y-74186495D01*
X117374195Y-74238699D01*
X117426152Y-74350120D01*
X117432466Y-74363661D01*
X117559174Y-74544620D01*
X117715380Y-74700826D01*
X117719888Y-74703983D01*
X117719891Y-74703985D01*
X117891829Y-74824377D01*
X117896338Y-74827534D01*
X117901320Y-74829857D01*
X117901325Y-74829860D01*
X118012429Y-74881668D01*
X118065714Y-74928585D01*
X118085175Y-74996862D01*
X118064633Y-75064822D01*
X118012429Y-75110058D01*
X117897559Y-75163623D01*
X117888068Y-75169103D01*
X117844235Y-75199794D01*
X117835860Y-75210271D01*
X117842928Y-75223718D01*
X118517188Y-75897978D01*
X118531132Y-75905592D01*
X118532965Y-75905461D01*
X118539580Y-75901210D01*
X119217793Y-75222997D01*
X119224223Y-75211223D01*
X119214926Y-75199207D01*
X119171931Y-75169102D01*
X119162445Y-75163624D01*
X119047571Y-75110058D01*
X118994286Y-75063141D01*
X118974825Y-74994864D01*
X118995367Y-74926904D01*
X119047571Y-74881668D01*
X119158675Y-74829860D01*
X119158680Y-74829857D01*
X119163662Y-74827534D01*
X119168171Y-74824377D01*
X119340109Y-74703985D01*
X119340112Y-74703983D01*
X119344620Y-74700826D01*
X119500826Y-74544620D01*
X119627534Y-74363661D01*
X119633849Y-74350120D01*
X119685805Y-74238699D01*
X119732722Y-74185414D01*
X119801000Y-74165953D01*
X119868960Y-74186495D01*
X119914195Y-74238699D01*
X119966152Y-74350120D01*
X119972466Y-74363661D01*
X120099174Y-74544620D01*
X120255380Y-74700826D01*
X120259888Y-74703983D01*
X120259891Y-74703985D01*
X120431829Y-74824377D01*
X120436338Y-74827534D01*
X120441320Y-74829857D01*
X120441325Y-74829860D01*
X120561301Y-74885805D01*
X120614586Y-74932722D01*
X120634047Y-75000999D01*
X120613505Y-75068959D01*
X120561301Y-75114195D01*
X120441320Y-75170143D01*
X120441317Y-75170145D01*
X120436339Y-75172466D01*
X120255380Y-75299174D01*
X120099174Y-75455380D01*
X119972466Y-75636339D01*
X119970145Y-75641317D01*
X119970143Y-75641320D01*
X119918332Y-75752429D01*
X119871414Y-75805714D01*
X119803137Y-75825175D01*
X119735177Y-75804633D01*
X119689942Y-75752429D01*
X119636377Y-75637559D01*
X119630897Y-75628068D01*
X119600206Y-75584235D01*
X119589729Y-75575860D01*
X119576282Y-75582928D01*
X118902022Y-76257188D01*
X118894408Y-76271132D01*
X118894539Y-76272965D01*
X118898790Y-76279580D01*
X119577003Y-76957793D01*
X119588777Y-76964223D01*
X119600793Y-76954926D01*
X119630897Y-76911932D01*
X119636377Y-76902441D01*
X119689942Y-76787571D01*
X119736859Y-76734286D01*
X119805137Y-76714825D01*
X119873097Y-76735367D01*
X119918332Y-76787571D01*
X119957336Y-76871214D01*
X119972466Y-76903661D01*
X120099174Y-77084620D01*
X120255380Y-77240826D01*
X120259888Y-77243983D01*
X120259891Y-77243985D01*
X120425771Y-77360135D01*
X120436338Y-77367534D01*
X120441320Y-77369857D01*
X120441325Y-77369860D01*
X120631568Y-77458571D01*
X120636550Y-77460894D01*
X120641858Y-77462316D01*
X120641860Y-77462317D01*
X120668261Y-77469391D01*
X120849932Y-77518070D01*
X121070000Y-77537323D01*
X121290068Y-77518070D01*
X121471739Y-77469391D01*
X121498140Y-77462317D01*
X121498142Y-77462316D01*
X121503450Y-77460894D01*
X121508432Y-77458571D01*
X121698675Y-77369860D01*
X121698680Y-77369857D01*
X121703662Y-77367534D01*
X121714229Y-77360135D01*
X121880109Y-77243985D01*
X121880112Y-77243983D01*
X121884620Y-77240826D01*
X122040826Y-77084620D01*
X122167534Y-76903661D01*
X122182665Y-76871214D01*
X122225805Y-76778699D01*
X122272722Y-76725414D01*
X122341000Y-76705953D01*
X122408960Y-76726495D01*
X122454195Y-76778699D01*
X122497336Y-76871214D01*
X122512466Y-76903661D01*
X122639174Y-77084620D01*
X122795380Y-77240826D01*
X122799888Y-77243983D01*
X122799891Y-77243985D01*
X122965771Y-77360135D01*
X122976338Y-77367534D01*
X122981320Y-77369857D01*
X122981325Y-77369860D01*
X123171568Y-77458571D01*
X123176550Y-77460894D01*
X123181858Y-77462316D01*
X123181860Y-77462317D01*
X123208261Y-77469391D01*
X123389932Y-77518070D01*
X123610000Y-77537323D01*
X123830068Y-77518070D01*
X124011739Y-77469391D01*
X124038140Y-77462317D01*
X124038142Y-77462316D01*
X124043450Y-77460894D01*
X124048432Y-77458571D01*
X124238675Y-77369860D01*
X124238680Y-77369857D01*
X124243662Y-77367534D01*
X124254229Y-77360135D01*
X124420109Y-77243985D01*
X124420112Y-77243983D01*
X124424620Y-77240826D01*
X124580826Y-77084620D01*
X124707534Y-76903661D01*
X124722665Y-76871214D01*
X124765805Y-76778699D01*
X124812722Y-76725414D01*
X124881000Y-76705953D01*
X124948960Y-76726495D01*
X124994195Y-76778699D01*
X125037336Y-76871214D01*
X125052466Y-76903661D01*
X125179174Y-77084620D01*
X125335380Y-77240826D01*
X125339888Y-77243983D01*
X125339891Y-77243985D01*
X125505771Y-77360135D01*
X125516338Y-77367534D01*
X125521320Y-77369857D01*
X125521325Y-77369860D01*
X125711568Y-77458571D01*
X125716550Y-77460894D01*
X125721858Y-77462316D01*
X125721860Y-77462317D01*
X125748261Y-77469391D01*
X125929932Y-77518070D01*
X126150000Y-77537323D01*
X126370068Y-77518070D01*
X126551739Y-77469391D01*
X126578140Y-77462317D01*
X126578142Y-77462316D01*
X126583450Y-77460894D01*
X126588432Y-77458571D01*
X126778675Y-77369860D01*
X126778680Y-77369857D01*
X126783662Y-77367534D01*
X126794229Y-77360135D01*
X126960109Y-77243985D01*
X126960112Y-77243983D01*
X126964620Y-77240826D01*
X127120826Y-77084620D01*
X127247534Y-76903661D01*
X127262665Y-76871214D01*
X127305805Y-76778699D01*
X127352722Y-76725414D01*
X127421000Y-76705953D01*
X127488960Y-76726495D01*
X127534195Y-76778699D01*
X127577336Y-76871214D01*
X127592466Y-76903661D01*
X127719174Y-77084620D01*
X127875380Y-77240826D01*
X127879888Y-77243983D01*
X127879891Y-77243985D01*
X128045771Y-77360135D01*
X128090099Y-77415592D01*
X128099500Y-77463348D01*
X128099500Y-87419000D01*
X128098951Y-87430640D01*
X128097240Y-87438296D01*
X128097489Y-87446219D01*
X128099438Y-87508230D01*
X128099500Y-87512188D01*
X128099500Y-87540925D01*
X128099995Y-87544842D01*
X128100039Y-87545191D01*
X128100971Y-87557024D01*
X128102403Y-87602569D01*
X128104615Y-87610183D01*
X128104616Y-87610188D01*
X128108278Y-87622792D01*
X128112289Y-87642156D01*
X128114929Y-87663058D01*
X128117848Y-87670429D01*
X128117848Y-87670431D01*
X128131702Y-87705420D01*
X128135541Y-87716631D01*
X128148256Y-87760398D01*
X128158981Y-87778533D01*
X128167676Y-87796281D01*
X128175432Y-87815871D01*
X128202218Y-87852738D01*
X128208725Y-87862646D01*
X128227883Y-87895042D01*
X128227887Y-87895047D01*
X128231919Y-87901865D01*
X128246812Y-87916758D01*
X128259653Y-87931792D01*
X128272037Y-87948837D01*
X128278145Y-87953890D01*
X128307143Y-87977879D01*
X128315923Y-87985869D01*
X140812595Y-100482541D01*
X140846621Y-100544853D01*
X140849500Y-100571636D01*
X140849500Y-102328311D01*
X140829498Y-102396432D01*
X140817136Y-102412620D01*
X140767467Y-102467784D01*
X140672821Y-102631716D01*
X140614326Y-102811744D01*
X140613636Y-102818305D01*
X140613636Y-102818307D01*
X140610886Y-102844475D01*
X140594540Y-103000000D01*
X140614326Y-103188256D01*
X140672821Y-103368284D01*
X140767467Y-103532216D01*
X140894129Y-103672888D01*
X141047270Y-103784151D01*
X141220197Y-103861144D01*
X141318212Y-103881978D01*
X141398897Y-103899128D01*
X141398901Y-103899128D01*
X141405354Y-103900500D01*
X141594646Y-103900500D01*
X141601099Y-103899128D01*
X141601103Y-103899128D01*
X141681788Y-103881978D01*
X141779803Y-103861144D01*
X141952730Y-103784151D01*
X142105871Y-103672888D01*
X142232533Y-103532216D01*
X142327179Y-103368284D01*
X142385674Y-103188256D01*
X142405460Y-103000000D01*
X142389114Y-102844475D01*
X142386364Y-102818307D01*
X142386364Y-102818305D01*
X142385674Y-102811744D01*
X142327179Y-102631716D01*
X142232533Y-102467784D01*
X142182864Y-102412621D01*
X142152147Y-102348614D01*
X142150500Y-102328311D01*
X142150500Y-100331000D01*
X142151049Y-100319360D01*
X142152760Y-100311704D01*
X142150562Y-100241769D01*
X142150500Y-100237812D01*
X142150500Y-100209075D01*
X142149961Y-100204804D01*
X142149028Y-100192966D01*
X142147846Y-100155356D01*
X142147597Y-100147431D01*
X142145385Y-100139817D01*
X142145384Y-100139812D01*
X142141722Y-100127208D01*
X142137711Y-100107843D01*
X142136064Y-100094807D01*
X142135071Y-100086942D01*
X142118297Y-100044577D01*
X142114459Y-100033369D01*
X142101744Y-99989602D01*
X142091018Y-99971464D01*
X142082323Y-99953716D01*
X142077487Y-99941501D01*
X142077486Y-99941500D01*
X142074568Y-99934129D01*
X142047782Y-99897262D01*
X142041275Y-99887354D01*
X142022117Y-99854958D01*
X142022113Y-99854953D01*
X142018081Y-99848135D01*
X142003188Y-99833242D01*
X141990347Y-99818208D01*
X141982623Y-99807577D01*
X141977963Y-99801163D01*
X141942856Y-99772120D01*
X141934077Y-99764131D01*
X130557839Y-88387893D01*
X130523813Y-88325581D01*
X130528878Y-88254766D01*
X130572873Y-88196863D01*
X130605871Y-88172888D01*
X130732533Y-88032216D01*
X130763904Y-87977879D01*
X130823875Y-87874007D01*
X130823876Y-87874006D01*
X130827179Y-87868284D01*
X130885674Y-87688256D01*
X130887548Y-87670431D01*
X130904770Y-87506565D01*
X130905460Y-87500000D01*
X130885674Y-87311744D01*
X130827179Y-87131716D01*
X130732533Y-86967784D01*
X130657864Y-86884856D01*
X130627147Y-86820848D01*
X130625500Y-86800545D01*
X130625500Y-77578074D01*
X130645502Y-77509953D01*
X130699158Y-77463460D01*
X130769432Y-77453356D01*
X130793153Y-77459310D01*
X130796550Y-77460894D01*
X131009932Y-77518070D01*
X131230000Y-77537323D01*
X131450068Y-77518070D01*
X131631739Y-77469391D01*
X131658140Y-77462317D01*
X131658142Y-77462316D01*
X131663450Y-77460894D01*
X131668432Y-77458571D01*
X131858675Y-77369860D01*
X131858680Y-77369857D01*
X131863662Y-77367534D01*
X131874229Y-77360135D01*
X132040109Y-77243985D01*
X132040112Y-77243983D01*
X132044620Y-77240826D01*
X132200826Y-77084620D01*
X132327534Y-76903661D01*
X132342665Y-76871214D01*
X132385805Y-76778699D01*
X132432722Y-76725414D01*
X132501000Y-76705953D01*
X132568960Y-76726495D01*
X132614195Y-76778699D01*
X132657336Y-76871214D01*
X132672466Y-76903661D01*
X132799174Y-77084620D01*
X132955380Y-77240826D01*
X132959888Y-77243983D01*
X132959891Y-77243985D01*
X133125771Y-77360135D01*
X133136338Y-77367534D01*
X133141320Y-77369857D01*
X133141325Y-77369860D01*
X133331568Y-77458571D01*
X133336550Y-77460894D01*
X133341858Y-77462316D01*
X133341860Y-77462317D01*
X133368261Y-77469391D01*
X133549932Y-77518070D01*
X133770000Y-77537323D01*
X133811686Y-77533676D01*
X133881290Y-77547665D01*
X133932283Y-77597065D01*
X133948473Y-77666191D01*
X133924720Y-77733096D01*
X133911762Y-77748292D01*
X133097459Y-78562595D01*
X133035147Y-78596621D01*
X133008364Y-78599500D01*
X132905354Y-78599500D01*
X132898901Y-78600872D01*
X132898897Y-78600872D01*
X132818212Y-78618022D01*
X132720197Y-78638856D01*
X132547270Y-78715849D01*
X132394129Y-78827112D01*
X132267467Y-78967784D01*
X132172821Y-79131716D01*
X132114326Y-79311744D01*
X132094540Y-79500000D01*
X132114326Y-79688256D01*
X132172821Y-79868284D01*
X132267467Y-80032216D01*
X132394129Y-80172888D01*
X132547270Y-80284151D01*
X132720197Y-80361144D01*
X132818212Y-80381978D01*
X132898897Y-80399128D01*
X132898901Y-80399128D01*
X132905354Y-80400500D01*
X133094646Y-80400500D01*
X133101099Y-80399128D01*
X133101103Y-80399128D01*
X133181788Y-80381978D01*
X133279803Y-80361144D01*
X133452730Y-80284151D01*
X133605871Y-80172888D01*
X133732533Y-80032216D01*
X133827179Y-79868284D01*
X133885674Y-79688256D01*
X133889699Y-79649958D01*
X133916711Y-79584301D01*
X133925914Y-79574032D01*
X135953270Y-77546675D01*
X136015582Y-77512650D01*
X136074973Y-77514062D01*
X136078445Y-77514992D01*
X136089932Y-77518070D01*
X136310000Y-77537323D01*
X136530068Y-77518070D01*
X136643174Y-77487763D01*
X136690889Y-77474978D01*
X136761865Y-77476668D01*
X136820661Y-77516462D01*
X136848609Y-77581726D01*
X136849500Y-77596685D01*
X136849500Y-77678364D01*
X136829498Y-77746485D01*
X136812595Y-77767459D01*
X133767459Y-80812595D01*
X133705147Y-80846621D01*
X133678364Y-80849500D01*
X132677625Y-80849500D01*
X132603564Y-80825436D01*
X132458072Y-80719730D01*
X132458071Y-80719729D01*
X132452730Y-80715849D01*
X132279803Y-80638856D01*
X132181788Y-80618022D01*
X132101103Y-80600872D01*
X132101099Y-80600872D01*
X132094646Y-80599500D01*
X131905354Y-80599500D01*
X131898901Y-80600872D01*
X131898897Y-80600872D01*
X131818212Y-80618022D01*
X131720197Y-80638856D01*
X131547270Y-80715849D01*
X131394129Y-80827112D01*
X131389716Y-80832014D01*
X131389714Y-80832015D01*
X131271886Y-80962876D01*
X131267467Y-80967784D01*
X131172821Y-81131716D01*
X131114326Y-81311744D01*
X131113636Y-81318305D01*
X131113636Y-81318307D01*
X131111478Y-81338840D01*
X131094540Y-81500000D01*
X131114326Y-81688256D01*
X131172821Y-81868284D01*
X131176124Y-81874006D01*
X131176125Y-81874007D01*
X131243294Y-81990347D01*
X131267467Y-82032216D01*
X131271885Y-82037123D01*
X131271886Y-82037124D01*
X131376006Y-82152760D01*
X131394129Y-82172888D01*
X131547270Y-82284151D01*
X131720197Y-82361144D01*
X131818212Y-82381978D01*
X131898897Y-82399128D01*
X131898901Y-82399128D01*
X131905354Y-82400500D01*
X132094646Y-82400500D01*
X132101099Y-82399128D01*
X132101103Y-82399128D01*
X132181788Y-82381978D01*
X132279803Y-82361144D01*
X132452730Y-82284151D01*
X132603564Y-82174564D01*
X132677625Y-82150500D01*
X133919000Y-82150500D01*
X133930640Y-82151049D01*
X133938296Y-82152760D01*
X133946219Y-82152511D01*
X134008230Y-82150562D01*
X134012188Y-82150500D01*
X134040925Y-82150500D01*
X134045196Y-82149961D01*
X134057024Y-82149029D01*
X134102569Y-82147597D01*
X134110183Y-82145385D01*
X134110188Y-82145384D01*
X134122792Y-82141722D01*
X134142156Y-82137711D01*
X134163058Y-82135071D01*
X134170429Y-82132152D01*
X134170431Y-82132152D01*
X134205420Y-82118298D01*
X134216631Y-82114459D01*
X134260398Y-82101744D01*
X134278536Y-82091018D01*
X134296281Y-82082324D01*
X134315871Y-82074568D01*
X134352738Y-82047782D01*
X134362646Y-82041275D01*
X134395042Y-82022117D01*
X134395047Y-82022113D01*
X134401865Y-82018081D01*
X134416758Y-82003188D01*
X134431792Y-81990347D01*
X134442423Y-81982623D01*
X134448837Y-81977963D01*
X134477880Y-81942856D01*
X134485869Y-81934077D01*
X137902698Y-78517248D01*
X137911315Y-78509407D01*
X137917940Y-78505202D01*
X137965850Y-78454183D01*
X137968604Y-78451342D01*
X137988911Y-78431035D01*
X137991340Y-78427904D01*
X137991345Y-78427898D01*
X137991558Y-78427623D01*
X137999255Y-78418610D01*
X138030448Y-78385393D01*
X138040596Y-78366934D01*
X138051450Y-78350410D01*
X138059504Y-78340027D01*
X138059505Y-78340026D01*
X138064362Y-78333764D01*
X138082453Y-78291959D01*
X138087675Y-78281300D01*
X138105809Y-78248314D01*
X138105810Y-78248310D01*
X138109627Y-78241368D01*
X138114866Y-78220964D01*
X138121270Y-78202260D01*
X138126487Y-78190205D01*
X138126490Y-78190195D01*
X138129635Y-78182927D01*
X138130874Y-78175104D01*
X138130877Y-78175094D01*
X138136763Y-78137933D01*
X138139169Y-78126312D01*
X138148528Y-78089858D01*
X138150500Y-78082177D01*
X138150500Y-78061111D01*
X138152051Y-78041400D01*
X138154106Y-78028425D01*
X138155346Y-78020596D01*
X138151059Y-77975242D01*
X138150500Y-77963387D01*
X138150500Y-77542888D01*
X138170502Y-77474767D01*
X138224158Y-77428274D01*
X138294432Y-77418170D01*
X138329750Y-77428693D01*
X138408993Y-77465645D01*
X138419285Y-77469391D01*
X138623309Y-77524059D01*
X138634104Y-77525962D01*
X138844525Y-77544372D01*
X138855475Y-77544372D01*
X139065896Y-77525962D01*
X139076691Y-77524059D01*
X139280715Y-77469391D01*
X139291007Y-77465645D01*
X139482445Y-77376376D01*
X139491931Y-77370898D01*
X139535764Y-77340207D01*
X139544139Y-77329729D01*
X139537071Y-77316281D01*
X138579885Y-76359095D01*
X138545859Y-76296783D01*
X138550924Y-76225968D01*
X138579885Y-76180905D01*
X139537793Y-75222997D01*
X139544223Y-75211223D01*
X139534926Y-75199207D01*
X139491931Y-75169102D01*
X139482445Y-75163624D01*
X139367571Y-75110058D01*
X139314286Y-75063141D01*
X139294825Y-74994864D01*
X139315367Y-74926904D01*
X139367571Y-74881668D01*
X139478675Y-74829860D01*
X139478680Y-74829857D01*
X139483662Y-74827534D01*
X139488171Y-74824377D01*
X139660109Y-74703985D01*
X139660112Y-74703983D01*
X139664620Y-74700826D01*
X139820826Y-74544620D01*
X139947534Y-74363661D01*
X139953849Y-74350120D01*
X140005805Y-74238699D01*
X140052722Y-74185414D01*
X140121000Y-74165953D01*
X140188960Y-74186495D01*
X140234195Y-74238699D01*
X140286152Y-74350120D01*
X140292466Y-74363661D01*
X140419174Y-74544620D01*
X140575380Y-74700826D01*
X140579888Y-74703983D01*
X140579891Y-74703985D01*
X140751829Y-74824377D01*
X140756338Y-74827534D01*
X140761320Y-74829857D01*
X140761325Y-74829860D01*
X140881301Y-74885805D01*
X140934586Y-74932722D01*
X140954047Y-75000999D01*
X140933505Y-75068959D01*
X140881301Y-75114195D01*
X140761320Y-75170143D01*
X140761317Y-75170145D01*
X140756339Y-75172466D01*
X140575380Y-75299174D01*
X140419174Y-75455380D01*
X140292466Y-75636339D01*
X140290145Y-75641317D01*
X140290143Y-75641320D01*
X140238332Y-75752429D01*
X140191414Y-75805714D01*
X140123137Y-75825175D01*
X140055177Y-75804633D01*
X140009942Y-75752429D01*
X139956377Y-75637559D01*
X139950897Y-75628068D01*
X139920206Y-75584235D01*
X139909729Y-75575860D01*
X139896282Y-75582928D01*
X139222022Y-76257188D01*
X139214408Y-76271132D01*
X139214539Y-76272965D01*
X139218790Y-76279580D01*
X139897003Y-76957793D01*
X139908777Y-76964223D01*
X139920793Y-76954926D01*
X139950897Y-76911932D01*
X139956377Y-76902441D01*
X140009942Y-76787571D01*
X140056859Y-76734286D01*
X140125137Y-76714825D01*
X140193097Y-76735367D01*
X140238332Y-76787571D01*
X140277336Y-76871214D01*
X140292466Y-76903661D01*
X140419174Y-77084620D01*
X140575380Y-77240826D01*
X140579888Y-77243983D01*
X140579891Y-77243985D01*
X140745771Y-77360135D01*
X140756338Y-77367534D01*
X140761320Y-77369857D01*
X140761325Y-77369860D01*
X140951568Y-77458571D01*
X140956550Y-77460894D01*
X140961858Y-77462316D01*
X140961860Y-77462317D01*
X140988261Y-77469391D01*
X141169932Y-77518070D01*
X141390000Y-77537323D01*
X141610068Y-77518070D01*
X141791739Y-77469391D01*
X141818140Y-77462317D01*
X141818142Y-77462316D01*
X141823450Y-77460894D01*
X141828432Y-77458571D01*
X142018675Y-77369860D01*
X142018680Y-77369857D01*
X142023662Y-77367534D01*
X142034229Y-77360135D01*
X142200109Y-77243985D01*
X142200112Y-77243983D01*
X142204620Y-77240826D01*
X142360826Y-77084620D01*
X142487534Y-76903661D01*
X142502665Y-76871214D01*
X142545805Y-76778699D01*
X142592722Y-76725414D01*
X142661000Y-76705953D01*
X142728960Y-76726495D01*
X142774195Y-76778699D01*
X142817336Y-76871214D01*
X142832466Y-76903661D01*
X142959174Y-77084620D01*
X143115380Y-77240826D01*
X143119888Y-77243983D01*
X143119891Y-77243985D01*
X143285771Y-77360135D01*
X143296338Y-77367534D01*
X143301320Y-77369857D01*
X143301325Y-77369860D01*
X143491568Y-77458571D01*
X143496550Y-77460894D01*
X143501858Y-77462316D01*
X143501860Y-77462317D01*
X143528261Y-77469391D01*
X143709932Y-77518070D01*
X143930000Y-77537323D01*
X144150068Y-77518070D01*
X144331739Y-77469391D01*
X144358140Y-77462317D01*
X144358142Y-77462316D01*
X144363450Y-77460894D01*
X144368432Y-77458571D01*
X144558675Y-77369860D01*
X144558680Y-77369857D01*
X144563662Y-77367534D01*
X144574229Y-77360135D01*
X144740109Y-77243985D01*
X144740112Y-77243983D01*
X144744620Y-77240826D01*
X144900826Y-77084620D01*
X145027534Y-76903661D01*
X145042665Y-76871214D01*
X145085805Y-76778699D01*
X145132722Y-76725414D01*
X145201000Y-76705953D01*
X145268960Y-76726495D01*
X145314195Y-76778699D01*
X145357336Y-76871214D01*
X145372466Y-76903661D01*
X145499174Y-77084620D01*
X145655380Y-77240826D01*
X145659888Y-77243983D01*
X145659891Y-77243985D01*
X145790771Y-77335628D01*
X145835099Y-77391085D01*
X145844500Y-77438841D01*
X145844500Y-101718720D01*
X145824498Y-101786841D01*
X145807595Y-101807815D01*
X142777814Y-104837595D01*
X142715502Y-104871621D01*
X142688719Y-104874500D01*
X132327698Y-104874500D01*
X132316737Y-104873983D01*
X132309332Y-104872328D01*
X132247473Y-104874272D01*
X132242176Y-104874438D01*
X132238219Y-104874500D01*
X132210650Y-104874500D01*
X132206715Y-104874997D01*
X132206605Y-104875004D01*
X132194934Y-104875922D01*
X132163866Y-104876898D01*
X132151373Y-104877291D01*
X132132284Y-104882837D01*
X132112938Y-104886844D01*
X132093208Y-104889336D01*
X132052677Y-104905384D01*
X132041476Y-104909219D01*
X131999610Y-104921382D01*
X131982497Y-104931502D01*
X131964752Y-104940195D01*
X131946268Y-104947514D01*
X131911003Y-104973136D01*
X131901095Y-104979643D01*
X131870402Y-104997794D01*
X131870397Y-104997798D01*
X131863579Y-105001830D01*
X131849526Y-105015883D01*
X131834493Y-105028723D01*
X131818413Y-105040406D01*
X131813360Y-105046514D01*
X131790635Y-105073984D01*
X131782645Y-105082764D01*
X131154640Y-105710769D01*
X131092328Y-105744795D01*
X131021513Y-105739730D01*
X130971909Y-105705985D01*
X130860286Y-105582015D01*
X130860284Y-105582014D01*
X130855871Y-105577112D01*
X130702730Y-105465849D01*
X130529803Y-105388856D01*
X130431788Y-105368022D01*
X130351103Y-105350872D01*
X130351099Y-105350872D01*
X130344646Y-105349500D01*
X130155354Y-105349500D01*
X130148901Y-105350872D01*
X130148897Y-105350872D01*
X130068212Y-105368022D01*
X129970197Y-105388856D01*
X129797270Y-105465849D01*
X129644129Y-105577112D01*
X129517467Y-105717784D01*
X129422821Y-105881716D01*
X129364326Y-106061744D01*
X129363636Y-106068305D01*
X129363636Y-106068307D01*
X129346753Y-106228947D01*
X129319740Y-106294604D01*
X129310538Y-106304872D01*
X126612651Y-109002758D01*
X126604531Y-109010147D01*
X126598123Y-109014214D01*
X126592697Y-109019992D01*
X126552115Y-109063207D01*
X126549360Y-109066049D01*
X126529880Y-109085529D01*
X126527452Y-109088659D01*
X126527380Y-109088741D01*
X126519771Y-109097649D01*
X126489938Y-109129418D01*
X126486119Y-109136365D01*
X126480365Y-109146832D01*
X126469508Y-109163361D01*
X126457327Y-109179064D01*
X126454179Y-109186339D01*
X126440020Y-109219058D01*
X126434798Y-109229718D01*
X126413803Y-109267908D01*
X126408859Y-109287164D01*
X126402460Y-109305853D01*
X126394562Y-109324104D01*
X126393322Y-109331934D01*
X126387744Y-109367154D01*
X126385340Y-109378763D01*
X126374500Y-109420981D01*
X126374500Y-109440856D01*
X126372949Y-109460566D01*
X126369840Y-109480196D01*
X126370586Y-109488088D01*
X126373941Y-109523579D01*
X126374500Y-109535437D01*
X126374500Y-111800545D01*
X126354498Y-111868666D01*
X126342137Y-111884855D01*
X126267467Y-111967784D01*
X126172821Y-112131716D01*
X126114326Y-112311744D01*
X126094540Y-112500000D01*
X126114326Y-112688256D01*
X126172821Y-112868284D01*
X126267467Y-113032216D01*
X126271885Y-113037123D01*
X126271886Y-113037124D01*
X126375500Y-113152198D01*
X126394129Y-113172888D01*
X126547270Y-113284151D01*
X126720197Y-113361144D01*
X126818212Y-113381978D01*
X126898897Y-113399128D01*
X126898901Y-113399128D01*
X126905354Y-113400500D01*
X127094646Y-113400500D01*
X127101099Y-113399128D01*
X127101103Y-113399128D01*
X127181788Y-113381978D01*
X127279803Y-113361144D01*
X127447253Y-113286590D01*
X127517617Y-113277155D01*
X127581915Y-113307261D01*
X127619728Y-113367349D01*
X127624500Y-113401696D01*
X127624500Y-114300545D01*
X127604498Y-114368666D01*
X127592137Y-114384855D01*
X127517467Y-114467784D01*
X127422821Y-114631716D01*
X127364326Y-114811744D01*
X127344540Y-115000000D01*
X127364326Y-115188256D01*
X127422821Y-115368284D01*
X127517467Y-115532216D01*
X127644129Y-115672888D01*
X127797270Y-115784151D01*
X127970197Y-115861144D01*
X128068212Y-115881978D01*
X128148897Y-115899128D01*
X128148901Y-115899128D01*
X128155354Y-115900500D01*
X128344646Y-115900500D01*
X128351099Y-115899128D01*
X128351103Y-115899128D01*
X128431788Y-115881978D01*
X128529803Y-115861144D01*
X128702730Y-115784151D01*
X128855871Y-115672888D01*
X128982533Y-115532216D01*
X129077179Y-115368284D01*
X129135674Y-115188256D01*
X129155460Y-115000000D01*
X129135674Y-114811744D01*
X129077179Y-114631716D01*
X128982533Y-114467784D01*
X128907864Y-114384856D01*
X128877147Y-114320848D01*
X128875500Y-114300545D01*
X128875500Y-109811280D01*
X128895502Y-109743159D01*
X128912405Y-109722185D01*
X128927738Y-109706852D01*
X128990050Y-109672826D01*
X129060865Y-109677891D01*
X129117701Y-109720438D01*
X129136666Y-109757011D01*
X129172821Y-109868284D01*
X129267467Y-110032216D01*
X129394129Y-110172888D01*
X129547270Y-110284151D01*
X129720197Y-110361144D01*
X129818212Y-110381978D01*
X129898897Y-110399128D01*
X129898901Y-110399128D01*
X129905354Y-110400500D01*
X130094646Y-110400500D01*
X130101099Y-110399128D01*
X130101103Y-110399128D01*
X130181788Y-110381978D01*
X130279803Y-110361144D01*
X130452730Y-110284151D01*
X130605871Y-110172888D01*
X130732533Y-110032216D01*
X130827179Y-109868284D01*
X130885674Y-109688256D01*
X130886764Y-109677891D01*
X130904770Y-109506565D01*
X130905460Y-109500000D01*
X130885674Y-109311744D01*
X130827179Y-109131716D01*
X130802368Y-109088741D01*
X130735836Y-108973505D01*
X130732533Y-108967784D01*
X130605871Y-108827112D01*
X130452730Y-108715849D01*
X130279803Y-108638856D01*
X130273346Y-108637484D01*
X130273332Y-108637479D01*
X130272516Y-108637306D01*
X130272090Y-108637076D01*
X130267059Y-108635441D01*
X130267358Y-108634521D01*
X130210044Y-108603575D01*
X130175726Y-108541424D01*
X130180457Y-108470585D01*
X130209624Y-108424966D01*
X131845360Y-106789231D01*
X131907672Y-106755205D01*
X131978488Y-106760270D01*
X132028091Y-106794015D01*
X132101461Y-106875500D01*
X132144129Y-106922888D01*
X132297270Y-107034151D01*
X132470197Y-107111144D01*
X132568212Y-107131978D01*
X132648897Y-107149128D01*
X132648901Y-107149128D01*
X132655354Y-107150500D01*
X132844646Y-107150500D01*
X132851099Y-107149128D01*
X132851103Y-107149128D01*
X132931788Y-107131978D01*
X133029803Y-107111144D01*
X133202730Y-107034151D01*
X133208072Y-107030270D01*
X133350527Y-106926771D01*
X133350529Y-106926769D01*
X133355871Y-106922888D01*
X133360998Y-106917194D01*
X133361521Y-106916872D01*
X133365198Y-106913561D01*
X133365803Y-106914233D01*
X133421442Y-106879952D01*
X133454638Y-106875500D01*
X143672297Y-106875500D01*
X143683257Y-106876017D01*
X143690667Y-106877673D01*
X143698593Y-106877424D01*
X143698594Y-106877424D01*
X143757841Y-106875562D01*
X143761799Y-106875500D01*
X143789350Y-106875500D01*
X143793273Y-106875004D01*
X143793388Y-106874997D01*
X143805068Y-106874077D01*
X143848627Y-106872709D01*
X143867716Y-106867163D01*
X143887062Y-106863156D01*
X143906792Y-106860664D01*
X143947323Y-106844616D01*
X143958524Y-106840781D01*
X144000390Y-106828618D01*
X144017499Y-106818500D01*
X144035245Y-106809805D01*
X144053732Y-106802486D01*
X144088991Y-106776869D01*
X144098910Y-106770354D01*
X144129590Y-106752210D01*
X144129594Y-106752207D01*
X144136420Y-106748170D01*
X144150470Y-106734120D01*
X144165504Y-106721279D01*
X144175173Y-106714254D01*
X144181587Y-106709594D01*
X144209370Y-106676010D01*
X144217359Y-106667231D01*
X147887349Y-102997242D01*
X147895469Y-102989853D01*
X147901877Y-102985786D01*
X147947885Y-102936793D01*
X147950640Y-102933951D01*
X147970120Y-102914471D01*
X147972548Y-102911341D01*
X147972620Y-102911259D01*
X147980229Y-102902351D01*
X148010062Y-102870582D01*
X148019636Y-102853167D01*
X148030493Y-102836638D01*
X148037814Y-102827200D01*
X148042673Y-102820936D01*
X148059980Y-102780942D01*
X148065202Y-102770282D01*
X148082378Y-102739038D01*
X148086197Y-102732092D01*
X148091141Y-102712836D01*
X148097540Y-102694147D01*
X148105438Y-102675896D01*
X148112257Y-102632841D01*
X148114660Y-102621237D01*
X148125500Y-102579019D01*
X148125500Y-102559144D01*
X148127051Y-102539434D01*
X148128920Y-102527633D01*
X148130160Y-102519804D01*
X148126059Y-102476420D01*
X148125500Y-102464563D01*
X148125500Y-96043165D01*
X151172619Y-96043165D01*
X151172916Y-96048317D01*
X151172916Y-96048321D01*
X151178364Y-96142796D01*
X151185876Y-96273080D01*
X151187013Y-96278126D01*
X151187014Y-96278132D01*
X151208726Y-96374475D01*
X151236506Y-96497742D01*
X151238448Y-96502524D01*
X151238449Y-96502528D01*
X151275927Y-96594825D01*
X151323149Y-96711118D01*
X151443479Y-96907478D01*
X151594263Y-97081548D01*
X151771453Y-97228654D01*
X151970290Y-97344845D01*
X152185434Y-97427001D01*
X152190500Y-97428032D01*
X152190501Y-97428032D01*
X152291197Y-97448518D01*
X152411107Y-97472914D01*
X152540852Y-97477672D01*
X152636085Y-97481164D01*
X152636089Y-97481164D01*
X152641249Y-97481353D01*
X152646369Y-97480697D01*
X152646371Y-97480697D01*
X152715772Y-97471807D01*
X152869678Y-97452091D01*
X152874626Y-97450606D01*
X152874633Y-97450605D01*
X153085311Y-97387398D01*
X153085310Y-97387398D01*
X153090261Y-97385913D01*
X153297074Y-97284596D01*
X153484562Y-97150863D01*
X153647690Y-96988303D01*
X153705769Y-96907478D01*
X153779059Y-96805483D01*
X153782077Y-96801283D01*
X153884115Y-96594825D01*
X153915143Y-96492700D01*
X153949559Y-96379427D01*
X153949560Y-96379421D01*
X153951063Y-96374475D01*
X153981122Y-96146149D01*
X153982800Y-96077500D01*
X153979977Y-96043165D01*
X156172619Y-96043165D01*
X156172916Y-96048317D01*
X156172916Y-96048321D01*
X156178364Y-96142796D01*
X156185876Y-96273080D01*
X156187013Y-96278126D01*
X156187014Y-96278132D01*
X156208726Y-96374475D01*
X156236506Y-96497742D01*
X156238448Y-96502524D01*
X156238449Y-96502528D01*
X156275927Y-96594825D01*
X156323149Y-96711118D01*
X156443479Y-96907478D01*
X156594263Y-97081548D01*
X156771453Y-97228654D01*
X156970290Y-97344845D01*
X157185434Y-97427001D01*
X157190500Y-97428032D01*
X157190501Y-97428032D01*
X157291197Y-97448518D01*
X157411107Y-97472914D01*
X157540852Y-97477672D01*
X157636085Y-97481164D01*
X157636089Y-97481164D01*
X157641249Y-97481353D01*
X157646369Y-97480697D01*
X157646371Y-97480697D01*
X157715772Y-97471807D01*
X157869678Y-97452091D01*
X157874626Y-97450606D01*
X157874633Y-97450605D01*
X158085311Y-97387398D01*
X158085310Y-97387398D01*
X158090261Y-97385913D01*
X158297074Y-97284596D01*
X158484562Y-97150863D01*
X158647690Y-96988303D01*
X158705769Y-96907478D01*
X158779059Y-96805483D01*
X158782077Y-96801283D01*
X158884115Y-96594825D01*
X158915143Y-96492700D01*
X158949559Y-96379427D01*
X158949560Y-96379421D01*
X158951063Y-96374475D01*
X158981122Y-96146149D01*
X158982800Y-96077500D01*
X158963930Y-95847978D01*
X158907826Y-95624620D01*
X158815996Y-95413424D01*
X158690905Y-95220063D01*
X158670274Y-95197389D01*
X158539390Y-95053551D01*
X158539389Y-95053550D01*
X158535912Y-95049729D01*
X158531861Y-95046530D01*
X158531857Y-95046526D01*
X158359235Y-94910197D01*
X158359230Y-94910193D01*
X158355181Y-94906996D01*
X158350665Y-94904503D01*
X158350662Y-94904501D01*
X158158089Y-94798195D01*
X158158085Y-94798193D01*
X158153565Y-94795698D01*
X158148696Y-94793974D01*
X158148692Y-94793972D01*
X157941353Y-94720549D01*
X157941349Y-94720548D01*
X157936478Y-94718823D01*
X157931385Y-94717916D01*
X157931382Y-94717915D01*
X157835207Y-94700784D01*
X157709750Y-94678437D01*
X157623302Y-94677381D01*
X157484641Y-94675686D01*
X157484639Y-94675686D01*
X157479471Y-94675623D01*
X157251825Y-94710458D01*
X157032924Y-94782006D01*
X156828649Y-94888345D01*
X156644484Y-95026619D01*
X156485377Y-95193116D01*
X156355599Y-95383363D01*
X156353423Y-95388052D01*
X156353419Y-95388058D01*
X156341645Y-95413424D01*
X156258636Y-95592252D01*
X156197092Y-95814173D01*
X156172619Y-96043165D01*
X153979977Y-96043165D01*
X153963930Y-95847978D01*
X153907826Y-95624620D01*
X153815996Y-95413424D01*
X153690905Y-95220063D01*
X153670274Y-95197389D01*
X153539390Y-95053551D01*
X153539389Y-95053550D01*
X153535912Y-95049729D01*
X153531861Y-95046530D01*
X153531857Y-95046526D01*
X153359235Y-94910197D01*
X153359230Y-94910193D01*
X153355181Y-94906996D01*
X153350665Y-94904503D01*
X153350662Y-94904501D01*
X153158089Y-94798195D01*
X153158085Y-94798193D01*
X153153565Y-94795698D01*
X153148696Y-94793974D01*
X153148692Y-94793972D01*
X152941353Y-94720549D01*
X152941349Y-94720548D01*
X152936478Y-94718823D01*
X152931385Y-94717916D01*
X152931382Y-94717915D01*
X152835207Y-94700784D01*
X152709750Y-94678437D01*
X152623302Y-94677381D01*
X152484641Y-94675686D01*
X152484639Y-94675686D01*
X152479471Y-94675623D01*
X152251825Y-94710458D01*
X152032924Y-94782006D01*
X151828649Y-94888345D01*
X151644484Y-95026619D01*
X151485377Y-95193116D01*
X151355599Y-95383363D01*
X151353423Y-95388052D01*
X151353419Y-95388058D01*
X151341645Y-95413424D01*
X151258636Y-95592252D01*
X151197092Y-95814173D01*
X151172619Y-96043165D01*
X148125500Y-96043165D01*
X148125500Y-89130123D01*
X151177000Y-89130123D01*
X151177001Y-91024876D01*
X151183649Y-91086080D01*
X151233974Y-91220324D01*
X151239354Y-91227503D01*
X151239356Y-91227506D01*
X151283850Y-91286873D01*
X151319954Y-91335046D01*
X151327135Y-91340428D01*
X151427494Y-91415644D01*
X151427497Y-91415646D01*
X151434676Y-91421026D01*
X151513579Y-91450605D01*
X151561525Y-91468579D01*
X151561527Y-91468579D01*
X151568920Y-91471351D01*
X151576770Y-91472204D01*
X151576771Y-91472204D01*
X151626717Y-91477630D01*
X151630123Y-91478000D01*
X152577361Y-91478000D01*
X153524876Y-91477999D01*
X153528270Y-91477630D01*
X153528276Y-91477630D01*
X153578222Y-91472205D01*
X153578226Y-91472204D01*
X153586080Y-91471351D01*
X153720324Y-91421026D01*
X153727503Y-91415646D01*
X153727506Y-91415644D01*
X153827865Y-91340428D01*
X153835046Y-91335046D01*
X153871150Y-91286873D01*
X153915644Y-91227506D01*
X153915646Y-91227503D01*
X153921026Y-91220324D01*
X153971351Y-91086080D01*
X153978000Y-91024877D01*
X153977999Y-90043165D01*
X156172619Y-90043165D01*
X156172916Y-90048317D01*
X156172916Y-90048321D01*
X156178364Y-90142796D01*
X156185876Y-90273080D01*
X156187013Y-90278126D01*
X156187014Y-90278132D01*
X156208726Y-90374475D01*
X156236506Y-90497742D01*
X156238448Y-90502524D01*
X156238449Y-90502528D01*
X156275927Y-90594825D01*
X156323149Y-90711118D01*
X156443479Y-90907478D01*
X156594263Y-91081548D01*
X156771453Y-91228654D01*
X156970290Y-91344845D01*
X157185434Y-91427001D01*
X157190500Y-91428032D01*
X157190501Y-91428032D01*
X157291197Y-91448518D01*
X157411107Y-91472914D01*
X157540852Y-91477672D01*
X157636085Y-91481164D01*
X157636089Y-91481164D01*
X157641249Y-91481353D01*
X157646369Y-91480697D01*
X157646371Y-91480697D01*
X157740967Y-91468579D01*
X157869678Y-91452091D01*
X157874626Y-91450606D01*
X157874633Y-91450605D01*
X158085311Y-91387398D01*
X158085310Y-91387398D01*
X158090261Y-91385913D01*
X158297074Y-91284596D01*
X158484562Y-91150863D01*
X158647690Y-90988303D01*
X158705769Y-90907478D01*
X158779059Y-90805483D01*
X158782077Y-90801283D01*
X158884115Y-90594825D01*
X158915143Y-90492700D01*
X158949559Y-90379427D01*
X158949560Y-90379421D01*
X158951063Y-90374475D01*
X158981122Y-90146149D01*
X158982800Y-90077500D01*
X158963930Y-89847978D01*
X158907826Y-89624620D01*
X158815996Y-89413424D01*
X158690905Y-89220063D01*
X158670274Y-89197389D01*
X158539390Y-89053551D01*
X158539389Y-89053550D01*
X158535912Y-89049729D01*
X158531861Y-89046530D01*
X158531857Y-89046526D01*
X158359235Y-88910197D01*
X158359230Y-88910193D01*
X158355181Y-88906996D01*
X158350665Y-88904503D01*
X158350662Y-88904501D01*
X158158089Y-88798195D01*
X158158085Y-88798193D01*
X158153565Y-88795698D01*
X158148696Y-88793974D01*
X158148692Y-88793972D01*
X157941353Y-88720549D01*
X157941349Y-88720548D01*
X157936478Y-88718823D01*
X157931385Y-88717916D01*
X157931382Y-88717915D01*
X157835207Y-88700784D01*
X157709750Y-88678437D01*
X157622352Y-88677369D01*
X157484641Y-88675686D01*
X157484639Y-88675686D01*
X157479471Y-88675623D01*
X157251825Y-88710458D01*
X157032924Y-88782006D01*
X156828649Y-88888345D01*
X156644484Y-89026619D01*
X156485377Y-89193116D01*
X156355599Y-89383363D01*
X156353423Y-89388052D01*
X156353419Y-89388058D01*
X156341645Y-89413424D01*
X156258636Y-89592252D01*
X156197092Y-89814173D01*
X156172619Y-90043165D01*
X153977999Y-90043165D01*
X153977999Y-89130124D01*
X153971351Y-89068920D01*
X153921026Y-88934676D01*
X153915646Y-88927497D01*
X153915644Y-88927494D01*
X153840428Y-88827135D01*
X153835046Y-88819954D01*
X153827865Y-88814572D01*
X153727506Y-88739356D01*
X153727503Y-88739354D01*
X153720324Y-88733974D01*
X153630939Y-88700466D01*
X153593475Y-88686421D01*
X153593473Y-88686421D01*
X153586080Y-88683649D01*
X153578230Y-88682796D01*
X153578229Y-88682796D01*
X153528274Y-88677369D01*
X153528273Y-88677369D01*
X153524877Y-88677000D01*
X152577639Y-88677000D01*
X151630124Y-88677001D01*
X151626730Y-88677370D01*
X151626724Y-88677370D01*
X151576778Y-88682795D01*
X151576774Y-88682796D01*
X151568920Y-88683649D01*
X151434676Y-88733974D01*
X151427497Y-88739354D01*
X151427494Y-88739356D01*
X151327135Y-88814572D01*
X151319954Y-88819954D01*
X151314572Y-88827135D01*
X151239356Y-88927494D01*
X151239354Y-88927497D01*
X151233974Y-88934676D01*
X151183649Y-89068920D01*
X151177000Y-89130123D01*
X148125500Y-89130123D01*
X148125500Y-82311280D01*
X148145502Y-82243159D01*
X148162405Y-82222185D01*
X151937349Y-78447242D01*
X151945469Y-78439853D01*
X151951877Y-78435786D01*
X151997885Y-78386793D01*
X152000640Y-78383951D01*
X152020120Y-78364471D01*
X152022548Y-78361341D01*
X152022620Y-78361259D01*
X152030229Y-78352351D01*
X152060062Y-78320582D01*
X152069636Y-78303167D01*
X152080493Y-78286638D01*
X152087814Y-78277200D01*
X152092673Y-78270936D01*
X152109980Y-78230942D01*
X152115202Y-78220282D01*
X152120109Y-78211356D01*
X152136197Y-78182092D01*
X152141141Y-78162836D01*
X152147540Y-78144147D01*
X152155438Y-78125896D01*
X152162257Y-78082841D01*
X152164660Y-78071237D01*
X152175500Y-78029019D01*
X152175500Y-78009144D01*
X152177051Y-77989434D01*
X152178920Y-77977633D01*
X152180160Y-77969804D01*
X152176059Y-77926420D01*
X152175500Y-77914563D01*
X152175500Y-77438841D01*
X152195502Y-77370720D01*
X152229229Y-77335628D01*
X152360109Y-77243985D01*
X152360112Y-77243983D01*
X152364620Y-77240826D01*
X152520826Y-77084620D01*
X152647534Y-76903661D01*
X152662665Y-76871214D01*
X152705805Y-76778699D01*
X152752722Y-76725414D01*
X152821000Y-76705953D01*
X152888960Y-76726495D01*
X152934195Y-76778699D01*
X152977336Y-76871214D01*
X152992466Y-76903661D01*
X153119174Y-77084620D01*
X153275380Y-77240826D01*
X153279888Y-77243983D01*
X153279891Y-77243985D01*
X153445771Y-77360135D01*
X153456338Y-77367534D01*
X153461320Y-77369857D01*
X153461325Y-77369860D01*
X153651568Y-77458571D01*
X153656550Y-77460894D01*
X153661858Y-77462316D01*
X153661860Y-77462317D01*
X153688261Y-77469391D01*
X153869932Y-77518070D01*
X154090000Y-77537323D01*
X154310068Y-77518070D01*
X154315381Y-77516646D01*
X154315383Y-77516646D01*
X154321600Y-77514980D01*
X154352907Y-77506591D01*
X154423880Y-77508279D01*
X154474612Y-77539202D01*
X176337595Y-99402185D01*
X176371621Y-99464497D01*
X176374500Y-99491280D01*
X176374500Y-135688720D01*
X176354498Y-135756841D01*
X176337595Y-135777815D01*
X174277814Y-137837595D01*
X174215502Y-137871621D01*
X174188719Y-137874500D01*
X166327698Y-137874500D01*
X166316737Y-137873983D01*
X166309332Y-137872328D01*
X166247473Y-137874272D01*
X166242176Y-137874438D01*
X166238219Y-137874500D01*
X166210650Y-137874500D01*
X166206715Y-137874997D01*
X166206605Y-137875004D01*
X166194934Y-137875922D01*
X166159296Y-137877042D01*
X166151372Y-137877291D01*
X166143759Y-137879503D01*
X166143752Y-137879504D01*
X166132282Y-137882836D01*
X166112926Y-137886845D01*
X166110866Y-137887105D01*
X166093208Y-137889336D01*
X166085842Y-137892253D01*
X166085836Y-137892254D01*
X166052683Y-137905381D01*
X166041450Y-137909227D01*
X166007220Y-137919171D01*
X166007213Y-137919174D01*
X165999610Y-137921383D01*
X165992794Y-137925414D01*
X165992791Y-137925415D01*
X165982504Y-137931499D01*
X165964752Y-137940195D01*
X165957335Y-137943132D01*
X165946268Y-137947514D01*
X165939853Y-137952175D01*
X165939849Y-137952177D01*
X165911013Y-137973127D01*
X165901094Y-137979643D01*
X165870402Y-137997794D01*
X165870397Y-137997798D01*
X165863579Y-138001830D01*
X165849526Y-138015883D01*
X165834493Y-138028723D01*
X165818413Y-138040406D01*
X165813360Y-138046514D01*
X165790635Y-138073984D01*
X165782645Y-138082764D01*
X160027814Y-143837595D01*
X159965502Y-143871621D01*
X159938719Y-143874500D01*
X159311281Y-143874500D01*
X159243160Y-143854498D01*
X159222186Y-143837595D01*
X159189462Y-143804871D01*
X159155436Y-143742559D01*
X159153247Y-143728946D01*
X159136364Y-143568307D01*
X159136364Y-143568305D01*
X159135674Y-143561744D01*
X159077179Y-143381716D01*
X158982533Y-143217784D01*
X158978114Y-143212876D01*
X158860286Y-143082015D01*
X158860284Y-143082014D01*
X158855871Y-143077112D01*
X158800939Y-143037202D01*
X158708072Y-142969730D01*
X158708071Y-142969729D01*
X158702730Y-142965849D01*
X158529803Y-142888856D01*
X158431788Y-142868022D01*
X158351103Y-142850872D01*
X158351099Y-142850872D01*
X158344646Y-142849500D01*
X158155354Y-142849500D01*
X158148901Y-142850872D01*
X158148897Y-142850872D01*
X158068212Y-142868022D01*
X157970197Y-142888856D01*
X157797270Y-142965849D01*
X157788774Y-142972022D01*
X157699061Y-143037202D01*
X157632193Y-143061061D01*
X157563042Y-143044980D01*
X157550939Y-143037202D01*
X157461226Y-142972022D01*
X157452730Y-142965849D01*
X157279803Y-142888856D01*
X157181788Y-142868022D01*
X157101103Y-142850872D01*
X157101099Y-142850872D01*
X157094646Y-142849500D01*
X156905354Y-142849500D01*
X156898901Y-142850872D01*
X156898897Y-142850872D01*
X156818212Y-142868022D01*
X156720197Y-142888856D01*
X156547270Y-142965849D01*
X156541929Y-142969729D01*
X156541928Y-142969730D01*
X156449061Y-143037202D01*
X156394129Y-143077112D01*
X156389716Y-143082014D01*
X156389714Y-143082015D01*
X156271886Y-143212876D01*
X156267467Y-143217784D01*
X156172821Y-143381716D01*
X156114326Y-143561744D01*
X156094540Y-143750000D01*
X156095230Y-143756565D01*
X156113487Y-143930269D01*
X156114326Y-143938256D01*
X156172821Y-144118284D01*
X156267467Y-144282216D01*
X156394129Y-144422888D01*
X156547270Y-144534151D01*
X156720197Y-144611144D01*
X156818212Y-144631978D01*
X156898897Y-144649128D01*
X156898901Y-144649128D01*
X156905354Y-144650500D01*
X156963720Y-144650500D01*
X157031841Y-144670502D01*
X157052811Y-144687401D01*
X158002769Y-145637360D01*
X158010147Y-145645469D01*
X158014214Y-145651877D01*
X158019992Y-145657303D01*
X158063207Y-145697885D01*
X158066049Y-145700640D01*
X158085529Y-145720120D01*
X158088659Y-145722548D01*
X158088741Y-145722620D01*
X158097649Y-145730229D01*
X158129418Y-145760062D01*
X158136365Y-145763881D01*
X158146832Y-145769635D01*
X158163361Y-145780492D01*
X158179064Y-145792673D01*
X158219057Y-145809979D01*
X158229713Y-145815200D01*
X158260955Y-145832376D01*
X158260964Y-145832380D01*
X158267908Y-145836197D01*
X158275584Y-145838168D01*
X158275587Y-145838169D01*
X158287160Y-145841140D01*
X158305865Y-145847544D01*
X158324104Y-145855437D01*
X158367148Y-145862254D01*
X158378771Y-145864662D01*
X158413304Y-145873529D01*
X158413305Y-145873529D01*
X158420981Y-145875500D01*
X158440856Y-145875500D01*
X158460566Y-145877051D01*
X158480196Y-145880160D01*
X158523580Y-145876059D01*
X158535437Y-145875500D01*
X160422297Y-145875500D01*
X160433257Y-145876017D01*
X160440667Y-145877673D01*
X160448593Y-145877424D01*
X160448594Y-145877424D01*
X160507841Y-145875562D01*
X160511799Y-145875500D01*
X160539350Y-145875500D01*
X160543273Y-145875004D01*
X160543388Y-145874997D01*
X160555068Y-145874077D01*
X160598627Y-145872709D01*
X160617716Y-145867163D01*
X160637062Y-145863156D01*
X160656792Y-145860664D01*
X160697323Y-145844616D01*
X160708524Y-145840781D01*
X160750390Y-145828618D01*
X160767499Y-145818500D01*
X160785245Y-145809805D01*
X160803732Y-145802486D01*
X160838991Y-145776869D01*
X160848910Y-145770354D01*
X160879590Y-145752210D01*
X160879594Y-145752207D01*
X160886420Y-145748170D01*
X160900470Y-145734120D01*
X160915504Y-145721279D01*
X160925173Y-145714254D01*
X160931587Y-145709594D01*
X160959370Y-145676010D01*
X160967359Y-145667231D01*
X161634590Y-145000000D01*
X168740708Y-145000000D01*
X168759839Y-145218674D01*
X168816653Y-145430703D01*
X168818978Y-145435688D01*
X168907095Y-145624659D01*
X168907098Y-145624664D01*
X168909421Y-145629646D01*
X168912577Y-145634153D01*
X168912578Y-145634155D01*
X169030445Y-145802486D01*
X169035326Y-145809457D01*
X169190543Y-145964674D01*
X169195051Y-145967831D01*
X169195054Y-145967833D01*
X169304485Y-146044457D01*
X169370354Y-146090579D01*
X169375336Y-146092902D01*
X169375341Y-146092905D01*
X169465680Y-146135030D01*
X169569297Y-146183347D01*
X169781326Y-146240161D01*
X170000000Y-146259292D01*
X170218674Y-146240161D01*
X170376552Y-146197857D01*
X171562652Y-146197857D01*
X171569397Y-146210187D01*
X172387188Y-147027978D01*
X172401132Y-147035592D01*
X172402965Y-147035461D01*
X172409580Y-147031210D01*
X173231710Y-146209080D01*
X173238731Y-146196223D01*
X173230959Y-146185556D01*
X173219218Y-146176283D01*
X173210637Y-146170583D01*
X173008355Y-146058918D01*
X172998956Y-146054693D01*
X172781155Y-145977565D01*
X172771184Y-145974931D01*
X172543713Y-145934412D01*
X172533461Y-145933443D01*
X172302417Y-145930620D01*
X172292133Y-145931340D01*
X172063741Y-145966289D01*
X172053713Y-145968678D01*
X171834096Y-146040460D01*
X171824586Y-146044457D01*
X171619646Y-146151142D01*
X171610921Y-146156636D01*
X171571106Y-146186530D01*
X171562652Y-146197857D01*
X170376552Y-146197857D01*
X170430703Y-146183347D01*
X170534320Y-146135030D01*
X170624659Y-146092905D01*
X170624664Y-146092902D01*
X170629646Y-146090579D01*
X170695515Y-146044457D01*
X170804946Y-145967833D01*
X170804949Y-145967831D01*
X170809457Y-145964674D01*
X170964674Y-145809457D01*
X170969556Y-145802486D01*
X171087422Y-145634155D01*
X171087423Y-145634153D01*
X171090579Y-145629646D01*
X171092902Y-145624664D01*
X171092905Y-145624659D01*
X171181022Y-145435688D01*
X171183347Y-145430703D01*
X171240161Y-145218674D01*
X171259292Y-145000000D01*
X171240161Y-144781326D01*
X171183347Y-144569297D01*
X171112790Y-144417985D01*
X171092905Y-144375341D01*
X171092902Y-144375336D01*
X171090579Y-144370354D01*
X171028864Y-144282216D01*
X170967833Y-144195054D01*
X170967831Y-144195051D01*
X170964674Y-144190543D01*
X170809457Y-144035326D01*
X170804949Y-144032169D01*
X170804946Y-144032167D01*
X170634155Y-143912578D01*
X170634153Y-143912577D01*
X170629646Y-143909421D01*
X170624664Y-143907098D01*
X170624659Y-143907095D01*
X170511862Y-143854498D01*
X170430703Y-143816653D01*
X170390845Y-143805973D01*
X171559273Y-143805973D01*
X171563032Y-143811269D01*
X171759066Y-143925822D01*
X171768349Y-143930269D01*
X171984206Y-144012697D01*
X171994108Y-144015574D01*
X172220511Y-144061636D01*
X172230764Y-144062859D01*
X172461657Y-144071326D01*
X172471943Y-144070859D01*
X172701132Y-144041499D01*
X172711210Y-144039357D01*
X172932522Y-143972960D01*
X172942120Y-143969199D01*
X173149617Y-143867547D01*
X173158462Y-143862274D01*
X173228115Y-143812591D01*
X173236516Y-143801891D01*
X173229528Y-143788738D01*
X172412812Y-142972022D01*
X172398868Y-142964408D01*
X172397035Y-142964539D01*
X172390420Y-142968790D01*
X171566534Y-143792676D01*
X171559273Y-143805973D01*
X170390845Y-143805973D01*
X170218674Y-143759839D01*
X170000000Y-143740708D01*
X169781326Y-143759839D01*
X169569297Y-143816653D01*
X169488138Y-143854498D01*
X169375341Y-143907095D01*
X169375336Y-143907098D01*
X169370354Y-143909421D01*
X169365847Y-143912577D01*
X169365845Y-143912578D01*
X169195054Y-144032167D01*
X169195051Y-144032169D01*
X169190543Y-144035326D01*
X169035326Y-144190543D01*
X169032169Y-144195051D01*
X169032167Y-144195054D01*
X168971136Y-144282216D01*
X168909421Y-144370354D01*
X168907098Y-144375336D01*
X168907095Y-144375341D01*
X168887210Y-144417985D01*
X168816653Y-144569297D01*
X168759839Y-144781326D01*
X168740708Y-145000000D01*
X161634590Y-145000000D01*
X162828618Y-143805973D01*
X166759273Y-143805973D01*
X166763032Y-143811269D01*
X166959066Y-143925822D01*
X166968349Y-143930269D01*
X167184206Y-144012697D01*
X167194108Y-144015574D01*
X167420511Y-144061636D01*
X167430764Y-144062859D01*
X167661657Y-144071326D01*
X167671943Y-144070859D01*
X167901132Y-144041499D01*
X167911210Y-144039357D01*
X168132522Y-143972960D01*
X168142120Y-143969199D01*
X168349617Y-143867547D01*
X168358462Y-143862274D01*
X168428115Y-143812591D01*
X168436516Y-143801891D01*
X168429528Y-143788738D01*
X167612812Y-142972022D01*
X167598868Y-142964408D01*
X167597035Y-142964539D01*
X167590420Y-142968790D01*
X166766534Y-143792676D01*
X166759273Y-143805973D01*
X162828618Y-143805973D01*
X164065424Y-142569167D01*
X166127706Y-142569167D01*
X166141006Y-142799838D01*
X166142442Y-142810058D01*
X166193238Y-143035454D01*
X166196317Y-143045282D01*
X166283249Y-143259370D01*
X166287892Y-143268561D01*
X166386464Y-143429416D01*
X166396921Y-143438876D01*
X166405697Y-143435093D01*
X167227978Y-142612812D01*
X167234356Y-142601132D01*
X167964408Y-142601132D01*
X167964539Y-142602965D01*
X167968790Y-142609580D01*
X168789296Y-143430086D01*
X168801306Y-143436645D01*
X168813046Y-143427677D01*
X168859616Y-143362867D01*
X168864927Y-143354028D01*
X168967296Y-143146901D01*
X168971094Y-143137308D01*
X169038262Y-142916232D01*
X169040439Y-142906162D01*
X169070835Y-142675279D01*
X169071354Y-142668604D01*
X169072949Y-142603364D01*
X169072755Y-142596647D01*
X169070496Y-142569167D01*
X170927706Y-142569167D01*
X170941006Y-142799838D01*
X170942442Y-142810058D01*
X170993238Y-143035454D01*
X170996317Y-143045282D01*
X171083249Y-143259370D01*
X171087892Y-143268561D01*
X171186464Y-143429416D01*
X171196921Y-143438876D01*
X171205697Y-143435093D01*
X172027978Y-142612812D01*
X172034356Y-142601132D01*
X172764408Y-142601132D01*
X172764539Y-142602965D01*
X172768790Y-142609580D01*
X173589296Y-143430086D01*
X173601306Y-143436645D01*
X173613046Y-143427677D01*
X173659616Y-143362867D01*
X173664927Y-143354028D01*
X173767296Y-143146901D01*
X173771094Y-143137308D01*
X173838262Y-142916232D01*
X173840439Y-142906162D01*
X173870835Y-142675279D01*
X173871354Y-142668604D01*
X173872949Y-142603364D01*
X173872755Y-142596647D01*
X173853675Y-142364567D01*
X173851992Y-142354405D01*
X173795703Y-142130306D01*
X173792382Y-142120551D01*
X173700252Y-141908667D01*
X173695374Y-141899570D01*
X173612616Y-141771645D01*
X173601930Y-141762442D01*
X173592365Y-141766845D01*
X172772022Y-142587188D01*
X172764408Y-142601132D01*
X172034356Y-142601132D01*
X172035592Y-142598868D01*
X172035461Y-142597035D01*
X172031210Y-142590420D01*
X171210687Y-141769897D01*
X171199151Y-141763597D01*
X171186868Y-141773221D01*
X171122126Y-141868129D01*
X171117028Y-141877103D01*
X171019750Y-142086670D01*
X171016187Y-142096357D01*
X170954442Y-142318999D01*
X170952511Y-142329118D01*
X170927958Y-142558878D01*
X170927706Y-142569167D01*
X169070496Y-142569167D01*
X169053675Y-142364567D01*
X169051992Y-142354405D01*
X168995703Y-142130306D01*
X168992382Y-142120551D01*
X168900252Y-141908667D01*
X168895374Y-141899570D01*
X168812616Y-141771645D01*
X168801930Y-141762442D01*
X168792365Y-141766845D01*
X167972022Y-142587188D01*
X167964408Y-142601132D01*
X167234356Y-142601132D01*
X167235592Y-142598868D01*
X167235461Y-142597035D01*
X167231210Y-142590420D01*
X166410687Y-141769897D01*
X166399151Y-141763597D01*
X166386868Y-141773221D01*
X166322126Y-141868129D01*
X166317028Y-141877103D01*
X166219750Y-142086670D01*
X166216187Y-142096357D01*
X166154442Y-142318999D01*
X166152511Y-142329118D01*
X166127958Y-142558878D01*
X166127706Y-142569167D01*
X164065424Y-142569167D01*
X165236734Y-141397857D01*
X166762652Y-141397857D01*
X166769397Y-141410187D01*
X167587188Y-142227978D01*
X167601132Y-142235592D01*
X167602965Y-142235461D01*
X167609580Y-142231210D01*
X168431710Y-141409080D01*
X168437839Y-141397857D01*
X171562652Y-141397857D01*
X171569397Y-141410187D01*
X172387188Y-142227978D01*
X172401132Y-142235592D01*
X172402965Y-142235461D01*
X172409580Y-142231210D01*
X173231710Y-141409080D01*
X173238731Y-141396223D01*
X173230959Y-141385556D01*
X173219218Y-141376283D01*
X173210637Y-141370583D01*
X173008355Y-141258918D01*
X172998956Y-141254693D01*
X172781155Y-141177565D01*
X172771184Y-141174931D01*
X172543713Y-141134412D01*
X172533461Y-141133443D01*
X172302417Y-141130620D01*
X172292133Y-141131340D01*
X172063741Y-141166289D01*
X172053713Y-141168678D01*
X171834096Y-141240460D01*
X171824586Y-141244457D01*
X171619646Y-141351142D01*
X171610921Y-141356636D01*
X171571106Y-141386530D01*
X171562652Y-141397857D01*
X168437839Y-141397857D01*
X168438731Y-141396223D01*
X168430959Y-141385556D01*
X168419218Y-141376283D01*
X168410637Y-141370583D01*
X168208355Y-141258918D01*
X168198956Y-141254693D01*
X167981155Y-141177565D01*
X167971184Y-141174931D01*
X167743713Y-141134412D01*
X167733461Y-141133443D01*
X167502417Y-141130620D01*
X167492133Y-141131340D01*
X167263741Y-141166289D01*
X167253713Y-141168678D01*
X167034096Y-141240460D01*
X167024586Y-141244457D01*
X166819646Y-141351142D01*
X166810921Y-141356636D01*
X166771106Y-141386530D01*
X166762652Y-141397857D01*
X165236734Y-141397857D01*
X166722186Y-139912405D01*
X166784498Y-139878379D01*
X166811281Y-139875500D01*
X174672297Y-139875500D01*
X174683257Y-139876017D01*
X174690667Y-139877673D01*
X174698593Y-139877424D01*
X174698594Y-139877424D01*
X174757841Y-139875562D01*
X174761799Y-139875500D01*
X174789350Y-139875500D01*
X174793273Y-139875004D01*
X174793388Y-139874997D01*
X174805068Y-139874077D01*
X174848627Y-139872709D01*
X174867716Y-139867163D01*
X174887062Y-139863156D01*
X174906792Y-139860664D01*
X174947323Y-139844616D01*
X174958524Y-139840781D01*
X175000390Y-139828618D01*
X175017499Y-139818500D01*
X175035245Y-139809805D01*
X175053732Y-139802486D01*
X175088991Y-139776869D01*
X175098910Y-139770354D01*
X175129590Y-139752210D01*
X175129594Y-139752207D01*
X175136420Y-139748170D01*
X175150470Y-139734120D01*
X175165504Y-139721279D01*
X175175173Y-139714254D01*
X175181587Y-139709594D01*
X175209370Y-139676010D01*
X175217359Y-139667231D01*
X178137346Y-136747244D01*
X178145467Y-136739854D01*
X178151877Y-136735786D01*
X178197901Y-136686776D01*
X178200656Y-136683934D01*
X178220120Y-136664470D01*
X178222548Y-136661340D01*
X178222638Y-136661238D01*
X178230226Y-136652354D01*
X178254634Y-136626362D01*
X178260062Y-136620582D01*
X178269638Y-136603163D01*
X178280493Y-136586639D01*
X178287816Y-136577199D01*
X178287817Y-136577198D01*
X178292674Y-136570936D01*
X178309991Y-136530920D01*
X178315206Y-136520275D01*
X178332376Y-136489043D01*
X178332377Y-136489041D01*
X178336197Y-136482092D01*
X178341140Y-136462841D01*
X178347544Y-136444137D01*
X178352289Y-136433172D01*
X178352289Y-136433171D01*
X178355438Y-136425895D01*
X178362255Y-136382852D01*
X178364663Y-136371230D01*
X178373528Y-136336704D01*
X178373529Y-136336695D01*
X178375500Y-136329019D01*
X178375500Y-136309144D01*
X178377051Y-136289434D01*
X178378920Y-136277633D01*
X178380160Y-136269804D01*
X178376059Y-136226420D01*
X178375500Y-136214563D01*
X178375500Y-98827698D01*
X178376017Y-98816737D01*
X178377672Y-98809332D01*
X178375562Y-98742176D01*
X178375500Y-98738219D01*
X178375500Y-98710650D01*
X178375003Y-98706715D01*
X178374996Y-98706605D01*
X178374078Y-98694934D01*
X178372958Y-98659296D01*
X178372709Y-98651372D01*
X178370497Y-98643759D01*
X178370496Y-98643752D01*
X178367164Y-98632282D01*
X178363155Y-98612926D01*
X178361657Y-98601071D01*
X178360664Y-98593208D01*
X178357747Y-98585842D01*
X178357746Y-98585836D01*
X178344619Y-98552683D01*
X178340773Y-98541450D01*
X178330829Y-98507220D01*
X178330826Y-98507213D01*
X178328617Y-98499610D01*
X178324586Y-98492794D01*
X178324585Y-98492791D01*
X178318501Y-98482504D01*
X178309805Y-98464752D01*
X178305406Y-98453643D01*
X178302486Y-98446268D01*
X178297825Y-98439853D01*
X178297823Y-98439849D01*
X178276873Y-98411013D01*
X178270357Y-98401094D01*
X178252206Y-98370402D01*
X178252202Y-98370397D01*
X178248170Y-98363579D01*
X178234117Y-98349526D01*
X178221276Y-98334492D01*
X178214254Y-98324827D01*
X178209594Y-98318413D01*
X178176016Y-98290635D01*
X178167236Y-98282645D01*
X159189462Y-79304871D01*
X159155436Y-79242559D01*
X159153247Y-79228946D01*
X159136364Y-79068307D01*
X159136364Y-79068305D01*
X159135674Y-79061744D01*
X159077179Y-78881716D01*
X159045654Y-78827112D01*
X158985836Y-78723505D01*
X158982533Y-78717784D01*
X158972274Y-78706390D01*
X158860286Y-78582015D01*
X158860284Y-78582014D01*
X158855871Y-78577112D01*
X158756895Y-78505202D01*
X158708072Y-78469730D01*
X158708071Y-78469729D01*
X158702730Y-78465849D01*
X158529803Y-78388856D01*
X158415080Y-78364471D01*
X158351103Y-78350872D01*
X158351099Y-78350872D01*
X158344646Y-78349500D01*
X158155354Y-78349500D01*
X158148901Y-78350872D01*
X158148897Y-78350872D01*
X158084920Y-78364471D01*
X157970197Y-78388856D01*
X157797270Y-78465849D01*
X157791929Y-78469729D01*
X157791928Y-78469730D01*
X157743105Y-78505202D01*
X157644129Y-78577112D01*
X157639718Y-78582011D01*
X157639709Y-78582019D01*
X157561257Y-78669150D01*
X157500811Y-78706390D01*
X157429828Y-78705038D01*
X157378526Y-78673935D01*
X156457743Y-77753152D01*
X156423717Y-77690840D01*
X156428782Y-77620025D01*
X156471329Y-77563189D01*
X156537849Y-77538378D01*
X156557820Y-77538536D01*
X156624525Y-77544372D01*
X156635475Y-77544372D01*
X156845896Y-77525962D01*
X156856691Y-77524059D01*
X157060715Y-77469391D01*
X157071007Y-77465645D01*
X157262445Y-77376376D01*
X157271931Y-77370898D01*
X157315764Y-77340207D01*
X157324139Y-77329729D01*
X157317071Y-77316281D01*
X156271922Y-76271132D01*
X156994408Y-76271132D01*
X156994539Y-76272965D01*
X156998790Y-76279580D01*
X157677003Y-76957793D01*
X157688777Y-76964223D01*
X157700793Y-76954926D01*
X157730897Y-76911932D01*
X157736377Y-76902441D01*
X157825645Y-76711007D01*
X157829391Y-76700715D01*
X157884059Y-76496691D01*
X157885962Y-76485896D01*
X157904372Y-76275475D01*
X157904372Y-76264525D01*
X157885962Y-76054104D01*
X157884059Y-76043309D01*
X157829391Y-75839285D01*
X157825645Y-75828993D01*
X157736377Y-75637559D01*
X157730897Y-75628068D01*
X157700206Y-75584235D01*
X157689729Y-75575860D01*
X157676282Y-75582928D01*
X157002022Y-76257188D01*
X156994408Y-76271132D01*
X156271922Y-76271132D01*
X155582997Y-75582207D01*
X155571223Y-75575777D01*
X155559207Y-75585074D01*
X155529103Y-75628068D01*
X155523623Y-75637559D01*
X155470058Y-75752429D01*
X155423141Y-75805714D01*
X155354863Y-75825175D01*
X155286903Y-75804633D01*
X155241668Y-75752429D01*
X155189857Y-75641320D01*
X155189855Y-75641317D01*
X155187534Y-75636339D01*
X155060826Y-75455380D01*
X154904620Y-75299174D01*
X154900112Y-75296017D01*
X154900109Y-75296015D01*
X154728171Y-75175623D01*
X154728168Y-75175621D01*
X154723662Y-75172466D01*
X154718680Y-75170143D01*
X154718675Y-75170140D01*
X154598699Y-75114195D01*
X154545414Y-75067278D01*
X154525953Y-74999001D01*
X154546495Y-74931041D01*
X154598699Y-74885805D01*
X154718675Y-74829860D01*
X154718680Y-74829857D01*
X154723662Y-74827534D01*
X154728171Y-74824377D01*
X154900109Y-74703985D01*
X154900112Y-74703983D01*
X154904620Y-74700826D01*
X155060826Y-74544620D01*
X155187534Y-74363661D01*
X155193849Y-74350120D01*
X155245805Y-74238699D01*
X155292722Y-74185414D01*
X155361000Y-74165953D01*
X155428960Y-74186495D01*
X155474195Y-74238699D01*
X155526152Y-74350120D01*
X155532466Y-74363661D01*
X155659174Y-74544620D01*
X155815380Y-74700826D01*
X155819888Y-74703983D01*
X155819891Y-74703985D01*
X155991829Y-74824377D01*
X155996338Y-74827534D01*
X156001320Y-74829857D01*
X156001325Y-74829860D01*
X156112429Y-74881668D01*
X156165714Y-74928585D01*
X156185175Y-74996862D01*
X156164633Y-75064822D01*
X156112429Y-75110058D01*
X155997559Y-75163623D01*
X155988068Y-75169103D01*
X155944235Y-75199794D01*
X155935860Y-75210271D01*
X155942928Y-75223718D01*
X156617188Y-75897978D01*
X156631132Y-75905592D01*
X156632965Y-75905461D01*
X156639580Y-75901210D01*
X157317793Y-75222997D01*
X157324223Y-75211223D01*
X157314926Y-75199207D01*
X157271931Y-75169102D01*
X157262445Y-75163624D01*
X157147571Y-75110058D01*
X157094286Y-75063141D01*
X157074825Y-74994864D01*
X157091125Y-74940939D01*
X159620637Y-74940939D01*
X159620812Y-74945391D01*
X159622957Y-75000000D01*
X159630145Y-75182932D01*
X159631064Y-75206332D01*
X159678782Y-75467609D01*
X159680191Y-75471832D01*
X159735271Y-75636926D01*
X159762838Y-75719556D01*
X159881555Y-75957146D01*
X160032564Y-76175638D01*
X160035586Y-76178907D01*
X160209836Y-76367411D01*
X160209841Y-76367416D01*
X160212852Y-76370673D01*
X160418823Y-76538360D01*
X160646366Y-76675352D01*
X160650461Y-76677086D01*
X160650463Y-76677087D01*
X160818521Y-76748250D01*
X160890941Y-76778916D01*
X160895234Y-76780054D01*
X160895239Y-76780056D01*
X161029220Y-76815580D01*
X161147669Y-76846986D01*
X161411426Y-76878204D01*
X161676951Y-76871946D01*
X161681349Y-76871214D01*
X161934555Y-76829069D01*
X161934559Y-76829068D01*
X161938945Y-76828338D01*
X161943186Y-76826997D01*
X161943189Y-76826996D01*
X162187935Y-76749593D01*
X162187937Y-76749592D01*
X162192181Y-76748250D01*
X162196192Y-76746324D01*
X162196197Y-76746322D01*
X162427587Y-76635210D01*
X162427588Y-76635209D01*
X162431606Y-76633280D01*
X162435312Y-76630804D01*
X162648736Y-76488199D01*
X162648740Y-76488196D01*
X162652444Y-76485721D01*
X162655761Y-76482750D01*
X162655765Y-76482747D01*
X162846968Y-76311491D01*
X162846969Y-76311490D01*
X162850286Y-76308519D01*
X163021187Y-76105207D01*
X163059791Y-76043309D01*
X163159379Y-75883625D01*
X163159379Y-75883624D01*
X163161737Y-75879844D01*
X163269130Y-75636926D01*
X163341224Y-75381299D01*
X163369586Y-75170143D01*
X163376154Y-75121245D01*
X163376154Y-75121240D01*
X163376581Y-75118064D01*
X163379759Y-75016924D01*
X163380190Y-75003222D01*
X163380190Y-75003217D01*
X163380291Y-75000000D01*
X163361533Y-74735065D01*
X163353167Y-74696204D01*
X163306568Y-74479763D01*
X163306568Y-74479761D01*
X163305632Y-74475416D01*
X163213703Y-74226233D01*
X163087582Y-73992490D01*
X162929784Y-73778849D01*
X162743459Y-73589573D01*
X162739919Y-73586871D01*
X162535864Y-73431141D01*
X162535860Y-73431138D01*
X162532323Y-73428439D01*
X162300589Y-73298662D01*
X162052881Y-73202831D01*
X162048560Y-73201829D01*
X162048552Y-73201827D01*
X161878433Y-73162397D01*
X161794142Y-73142859D01*
X161529534Y-73119941D01*
X161525099Y-73120185D01*
X161525095Y-73120185D01*
X161268780Y-73134291D01*
X161268773Y-73134292D01*
X161264337Y-73134536D01*
X161084398Y-73170328D01*
X161008205Y-73185483D01*
X161008203Y-73185484D01*
X161003842Y-73186351D01*
X160753246Y-73274354D01*
X160517551Y-73396788D01*
X160513936Y-73399371D01*
X160513930Y-73399375D01*
X160377198Y-73497086D01*
X160301457Y-73551211D01*
X160109278Y-73734541D01*
X159944848Y-73943120D01*
X159942616Y-73946962D01*
X159942613Y-73946967D01*
X159813685Y-74168932D01*
X159813682Y-74168938D01*
X159811447Y-74172786D01*
X159783145Y-74242661D01*
X159713410Y-74414826D01*
X159713407Y-74414834D01*
X159711737Y-74418958D01*
X159679555Y-74548515D01*
X159653457Y-74653580D01*
X159647708Y-74676723D01*
X159620637Y-74940939D01*
X157091125Y-74940939D01*
X157095367Y-74926904D01*
X157147571Y-74881668D01*
X157258675Y-74829860D01*
X157258680Y-74829857D01*
X157263662Y-74827534D01*
X157268171Y-74824377D01*
X157440109Y-74703985D01*
X157440112Y-74703983D01*
X157444620Y-74700826D01*
X157600826Y-74544620D01*
X157727534Y-74363661D01*
X157733849Y-74350120D01*
X157818571Y-74168432D01*
X157818572Y-74168431D01*
X157820894Y-74163450D01*
X157878070Y-73950068D01*
X157897323Y-73730000D01*
X157878070Y-73509932D01*
X157820894Y-73296550D01*
X157770194Y-73187824D01*
X157729857Y-73101320D01*
X157729855Y-73101317D01*
X157727534Y-73096339D01*
X157600826Y-72915380D01*
X157444620Y-72759174D01*
X157440112Y-72756017D01*
X157440109Y-72756015D01*
X157268171Y-72635623D01*
X157268168Y-72635621D01*
X157263662Y-72632466D01*
X157258680Y-72630143D01*
X157258675Y-72630140D01*
X157068432Y-72541429D01*
X157068431Y-72541429D01*
X157063450Y-72539106D01*
X157058142Y-72537684D01*
X157058140Y-72537683D01*
X156934598Y-72504580D01*
X156850068Y-72481930D01*
X156630000Y-72462677D01*
X156409932Y-72481930D01*
X156325402Y-72504580D01*
X156201860Y-72537683D01*
X156201858Y-72537684D01*
X156196550Y-72539106D01*
X156191569Y-72541428D01*
X156191568Y-72541429D01*
X156001320Y-72630143D01*
X156001317Y-72630145D01*
X155996339Y-72632466D01*
X155815380Y-72759174D01*
X155659174Y-72915380D01*
X155532466Y-73096339D01*
X155530145Y-73101317D01*
X155530143Y-73101320D01*
X155474195Y-73221301D01*
X155427278Y-73274586D01*
X155359000Y-73294047D01*
X155291040Y-73273505D01*
X155245805Y-73221301D01*
X155189857Y-73101320D01*
X155189855Y-73101317D01*
X155187534Y-73096339D01*
X155060826Y-72915380D01*
X154904620Y-72759174D01*
X154900112Y-72756017D01*
X154900109Y-72756015D01*
X154728171Y-72635623D01*
X154728168Y-72635621D01*
X154723662Y-72632466D01*
X154718680Y-72630143D01*
X154718675Y-72630140D01*
X154528432Y-72541429D01*
X154528431Y-72541429D01*
X154523450Y-72539106D01*
X154518142Y-72537684D01*
X154518140Y-72537683D01*
X154394598Y-72504580D01*
X154310068Y-72481930D01*
X154090000Y-72462677D01*
X153869932Y-72481930D01*
X153785402Y-72504580D01*
X153661860Y-72537683D01*
X153661858Y-72537684D01*
X153656550Y-72539106D01*
X153651569Y-72541428D01*
X153651568Y-72541429D01*
X153461320Y-72630143D01*
X153461317Y-72630145D01*
X153456339Y-72632466D01*
X153275380Y-72759174D01*
X153119174Y-72915380D01*
X152992466Y-73096339D01*
X152990145Y-73101317D01*
X152990143Y-73101320D01*
X152934195Y-73221301D01*
X152887278Y-73274586D01*
X152819000Y-73294047D01*
X152751040Y-73273505D01*
X152705805Y-73221301D01*
X152649857Y-73101320D01*
X152649855Y-73101317D01*
X152647534Y-73096339D01*
X152520826Y-72915380D01*
X152364620Y-72759174D01*
X152360112Y-72756017D01*
X152360109Y-72756015D01*
X152188171Y-72635623D01*
X152188168Y-72635621D01*
X152183662Y-72632466D01*
X152178680Y-72630143D01*
X152178675Y-72630140D01*
X151988432Y-72541429D01*
X151988431Y-72541429D01*
X151983450Y-72539106D01*
X151978142Y-72537684D01*
X151978140Y-72537683D01*
X151854598Y-72504580D01*
X151770068Y-72481930D01*
X151550000Y-72462677D01*
X151329932Y-72481930D01*
X151245402Y-72504580D01*
X151121860Y-72537683D01*
X151121858Y-72537684D01*
X151116550Y-72539106D01*
X151111569Y-72541428D01*
X151111568Y-72541429D01*
X150921320Y-72630143D01*
X150921317Y-72630145D01*
X150916339Y-72632466D01*
X150735380Y-72759174D01*
X150579174Y-72915380D01*
X150452466Y-73096339D01*
X150450145Y-73101317D01*
X150450143Y-73101320D01*
X150398332Y-73212429D01*
X150351414Y-73265714D01*
X150283137Y-73285175D01*
X150215177Y-73264633D01*
X150169942Y-73212429D01*
X150116377Y-73097559D01*
X150110897Y-73088068D01*
X150080206Y-73044235D01*
X150069729Y-73035860D01*
X150056282Y-73042928D01*
X149382022Y-73717188D01*
X149374408Y-73731132D01*
X149374539Y-73732965D01*
X149378790Y-73739580D01*
X150057003Y-74417793D01*
X150068777Y-74424223D01*
X150080793Y-74414926D01*
X150110897Y-74371932D01*
X150116377Y-74362441D01*
X150169942Y-74247571D01*
X150216859Y-74194286D01*
X150285137Y-74174825D01*
X150353097Y-74195367D01*
X150398332Y-74247571D01*
X150446152Y-74350120D01*
X150452466Y-74363661D01*
X150579174Y-74544620D01*
X150735380Y-74700826D01*
X150739888Y-74703983D01*
X150739891Y-74703985D01*
X150911829Y-74824377D01*
X150916338Y-74827534D01*
X150921320Y-74829857D01*
X150921325Y-74829860D01*
X151041301Y-74885805D01*
X151094586Y-74932722D01*
X151114047Y-75000999D01*
X151093505Y-75068959D01*
X151041301Y-75114195D01*
X150921320Y-75170143D01*
X150921317Y-75170145D01*
X150916339Y-75172466D01*
X150735380Y-75299174D01*
X150579174Y-75455380D01*
X150452466Y-75636339D01*
X150450145Y-75641317D01*
X150450143Y-75641320D01*
X150394195Y-75761301D01*
X150347278Y-75814586D01*
X150279000Y-75834047D01*
X150211040Y-75813505D01*
X150165805Y-75761301D01*
X150109857Y-75641320D01*
X150109855Y-75641317D01*
X150107534Y-75636339D01*
X149980826Y-75455380D01*
X149824620Y-75299174D01*
X149820112Y-75296017D01*
X149820109Y-75296015D01*
X149648171Y-75175623D01*
X149648168Y-75175621D01*
X149643662Y-75172466D01*
X149638680Y-75170143D01*
X149638675Y-75170140D01*
X149527571Y-75118332D01*
X149474286Y-75071415D01*
X149454825Y-75003138D01*
X149475367Y-74935178D01*
X149527571Y-74889942D01*
X149642445Y-74836376D01*
X149651931Y-74830898D01*
X149695764Y-74800207D01*
X149704139Y-74789729D01*
X149697071Y-74776281D01*
X149022812Y-74102022D01*
X149008868Y-74094408D01*
X149007035Y-74094539D01*
X149000420Y-74098790D01*
X148322207Y-74777003D01*
X148315777Y-74788777D01*
X148325074Y-74800793D01*
X148368069Y-74830898D01*
X148377555Y-74836376D01*
X148492429Y-74889942D01*
X148545714Y-74936859D01*
X148565175Y-75005136D01*
X148544633Y-75073096D01*
X148492429Y-75118332D01*
X148381320Y-75170143D01*
X148381317Y-75170145D01*
X148376339Y-75172466D01*
X148195380Y-75299174D01*
X148039174Y-75455380D01*
X147912466Y-75636339D01*
X147910145Y-75641317D01*
X147910143Y-75641320D01*
X147854195Y-75761301D01*
X147807278Y-75814586D01*
X147739000Y-75834047D01*
X147671040Y-75813505D01*
X147625805Y-75761301D01*
X147569857Y-75641320D01*
X147569855Y-75641317D01*
X147567534Y-75636339D01*
X147440826Y-75455380D01*
X147284620Y-75299174D01*
X147280112Y-75296017D01*
X147280109Y-75296015D01*
X147108171Y-75175623D01*
X147108168Y-75175621D01*
X147103662Y-75172466D01*
X147098680Y-75170143D01*
X147098675Y-75170140D01*
X146978699Y-75114195D01*
X146925414Y-75067278D01*
X146905953Y-74999001D01*
X146926495Y-74931041D01*
X146978699Y-74885805D01*
X147098675Y-74829860D01*
X147098680Y-74829857D01*
X147103662Y-74827534D01*
X147108171Y-74824377D01*
X147280109Y-74703985D01*
X147280112Y-74703983D01*
X147284620Y-74700826D01*
X147440826Y-74544620D01*
X147567534Y-74363661D01*
X147573849Y-74350120D01*
X147621668Y-74247571D01*
X147668586Y-74194286D01*
X147736863Y-74174825D01*
X147804823Y-74195367D01*
X147850058Y-74247571D01*
X147903623Y-74362441D01*
X147909103Y-74371932D01*
X147939794Y-74415765D01*
X147950271Y-74424140D01*
X147963718Y-74417072D01*
X148637978Y-73742812D01*
X148645592Y-73728868D01*
X148645461Y-73727035D01*
X148641210Y-73720420D01*
X147962997Y-73042207D01*
X147951223Y-73035777D01*
X147939207Y-73045074D01*
X147909103Y-73088068D01*
X147903623Y-73097559D01*
X147850058Y-73212429D01*
X147803141Y-73265714D01*
X147734863Y-73285175D01*
X147666903Y-73264633D01*
X147621668Y-73212429D01*
X147569857Y-73101320D01*
X147569855Y-73101317D01*
X147567534Y-73096339D01*
X147440826Y-72915380D01*
X147284620Y-72759174D01*
X147280112Y-72756017D01*
X147280109Y-72756015D01*
X147157654Y-72670271D01*
X148315860Y-72670271D01*
X148322928Y-72683718D01*
X148997188Y-73357978D01*
X149011132Y-73365592D01*
X149012965Y-73365461D01*
X149019580Y-73361210D01*
X149697793Y-72682997D01*
X149704223Y-72671223D01*
X149694926Y-72659207D01*
X149651931Y-72629102D01*
X149642445Y-72623624D01*
X149451007Y-72534355D01*
X149440715Y-72530609D01*
X149236691Y-72475941D01*
X149225896Y-72474038D01*
X149015475Y-72455628D01*
X149004525Y-72455628D01*
X148794104Y-72474038D01*
X148783309Y-72475941D01*
X148579285Y-72530609D01*
X148568993Y-72534355D01*
X148377559Y-72623623D01*
X148368068Y-72629103D01*
X148324235Y-72659794D01*
X148315860Y-72670271D01*
X147157654Y-72670271D01*
X147108171Y-72635623D01*
X147108168Y-72635621D01*
X147103662Y-72632466D01*
X147098680Y-72630143D01*
X147098675Y-72630140D01*
X146908432Y-72541429D01*
X146908431Y-72541429D01*
X146903450Y-72539106D01*
X146898142Y-72537684D01*
X146898140Y-72537683D01*
X146774598Y-72504580D01*
X146690068Y-72481930D01*
X146470000Y-72462677D01*
X146249932Y-72481930D01*
X146165402Y-72504580D01*
X146041860Y-72537683D01*
X146041858Y-72537684D01*
X146036550Y-72539106D01*
X146031569Y-72541428D01*
X146031568Y-72541429D01*
X145841320Y-72630143D01*
X145841317Y-72630145D01*
X145836339Y-72632466D01*
X145655380Y-72759174D01*
X145499174Y-72915380D01*
X145372466Y-73096339D01*
X145370145Y-73101317D01*
X145370143Y-73101320D01*
X145318332Y-73212429D01*
X145271414Y-73265714D01*
X145203137Y-73285175D01*
X145135177Y-73264633D01*
X145089942Y-73212429D01*
X145036377Y-73097559D01*
X145030897Y-73088068D01*
X145000206Y-73044235D01*
X144989729Y-73035860D01*
X144976282Y-73042928D01*
X144302022Y-73717188D01*
X144294408Y-73731132D01*
X144294539Y-73732965D01*
X144298790Y-73739580D01*
X144977003Y-74417793D01*
X144988777Y-74424223D01*
X145000793Y-74414926D01*
X145030897Y-74371932D01*
X145036377Y-74362441D01*
X145089942Y-74247571D01*
X145136859Y-74194286D01*
X145205137Y-74174825D01*
X145273097Y-74195367D01*
X145318332Y-74247571D01*
X145366152Y-74350120D01*
X145372466Y-74363661D01*
X145499174Y-74544620D01*
X145655380Y-74700826D01*
X145659888Y-74703983D01*
X145659891Y-74703985D01*
X145831829Y-74824377D01*
X145836338Y-74827534D01*
X145841320Y-74829857D01*
X145841325Y-74829860D01*
X145961301Y-74885805D01*
X146014586Y-74932722D01*
X146034047Y-75000999D01*
X146013505Y-75068959D01*
X145961301Y-75114195D01*
X145841320Y-75170143D01*
X145841317Y-75170145D01*
X145836339Y-75172466D01*
X145655380Y-75299174D01*
X145499174Y-75455380D01*
X145372466Y-75636339D01*
X145370145Y-75641317D01*
X145370143Y-75641320D01*
X145314195Y-75761301D01*
X145267278Y-75814586D01*
X145199000Y-75834047D01*
X145131040Y-75813505D01*
X145085805Y-75761301D01*
X145029857Y-75641320D01*
X145029855Y-75641317D01*
X145027534Y-75636339D01*
X144900826Y-75455380D01*
X144744620Y-75299174D01*
X144740112Y-75296017D01*
X144740109Y-75296015D01*
X144568171Y-75175623D01*
X144568168Y-75175621D01*
X144563662Y-75172466D01*
X144558680Y-75170143D01*
X144558675Y-75170140D01*
X144447571Y-75118332D01*
X144394286Y-75071415D01*
X144374825Y-75003138D01*
X144395367Y-74935178D01*
X144447571Y-74889942D01*
X144562445Y-74836376D01*
X144571931Y-74830898D01*
X144615764Y-74800207D01*
X144624139Y-74789729D01*
X144617071Y-74776281D01*
X143942812Y-74102022D01*
X143928868Y-74094408D01*
X143927035Y-74094539D01*
X143920420Y-74098790D01*
X143242207Y-74777003D01*
X143235777Y-74788777D01*
X143245074Y-74800793D01*
X143288069Y-74830898D01*
X143297555Y-74836376D01*
X143412429Y-74889942D01*
X143465714Y-74936859D01*
X143485175Y-75005136D01*
X143464633Y-75073096D01*
X143412429Y-75118332D01*
X143301320Y-75170143D01*
X143301317Y-75170145D01*
X143296339Y-75172466D01*
X143115380Y-75299174D01*
X142959174Y-75455380D01*
X142832466Y-75636339D01*
X142830145Y-75641317D01*
X142830143Y-75641320D01*
X142774195Y-75761301D01*
X142727278Y-75814586D01*
X142659000Y-75834047D01*
X142591040Y-75813505D01*
X142545805Y-75761301D01*
X142489857Y-75641320D01*
X142489855Y-75641317D01*
X142487534Y-75636339D01*
X142360826Y-75455380D01*
X142204620Y-75299174D01*
X142200112Y-75296017D01*
X142200109Y-75296015D01*
X142028171Y-75175623D01*
X142028168Y-75175621D01*
X142023662Y-75172466D01*
X142018680Y-75170143D01*
X142018675Y-75170140D01*
X141898699Y-75114195D01*
X141845414Y-75067278D01*
X141825953Y-74999001D01*
X141846495Y-74931041D01*
X141898699Y-74885805D01*
X142018675Y-74829860D01*
X142018680Y-74829857D01*
X142023662Y-74827534D01*
X142028171Y-74824377D01*
X142200109Y-74703985D01*
X142200112Y-74703983D01*
X142204620Y-74700826D01*
X142360826Y-74544620D01*
X142487534Y-74363661D01*
X142493849Y-74350120D01*
X142541668Y-74247571D01*
X142588586Y-74194286D01*
X142656863Y-74174825D01*
X142724823Y-74195367D01*
X142770058Y-74247571D01*
X142823623Y-74362441D01*
X142829103Y-74371932D01*
X142859794Y-74415765D01*
X142870271Y-74424140D01*
X142883718Y-74417072D01*
X143557978Y-73742812D01*
X143565592Y-73728868D01*
X143565461Y-73727035D01*
X143561210Y-73720420D01*
X142882997Y-73042207D01*
X142871223Y-73035777D01*
X142859207Y-73045074D01*
X142829103Y-73088068D01*
X142823623Y-73097559D01*
X142770058Y-73212429D01*
X142723141Y-73265714D01*
X142654863Y-73285175D01*
X142586903Y-73264633D01*
X142541668Y-73212429D01*
X142489857Y-73101320D01*
X142489855Y-73101317D01*
X142487534Y-73096339D01*
X142360826Y-72915380D01*
X142204620Y-72759174D01*
X142200112Y-72756017D01*
X142200109Y-72756015D01*
X142077654Y-72670271D01*
X143235860Y-72670271D01*
X143242928Y-72683718D01*
X143917188Y-73357978D01*
X143931132Y-73365592D01*
X143932965Y-73365461D01*
X143939580Y-73361210D01*
X144617793Y-72682997D01*
X144624223Y-72671223D01*
X144614926Y-72659207D01*
X144571931Y-72629102D01*
X144562445Y-72623624D01*
X144371007Y-72534355D01*
X144360715Y-72530609D01*
X144156691Y-72475941D01*
X144145896Y-72474038D01*
X143935475Y-72455628D01*
X143924525Y-72455628D01*
X143714104Y-72474038D01*
X143703309Y-72475941D01*
X143499285Y-72530609D01*
X143488993Y-72534355D01*
X143297559Y-72623623D01*
X143288068Y-72629103D01*
X143244235Y-72659794D01*
X143235860Y-72670271D01*
X142077654Y-72670271D01*
X142028171Y-72635623D01*
X142028168Y-72635621D01*
X142023662Y-72632466D01*
X142018680Y-72630143D01*
X142018675Y-72630140D01*
X141828432Y-72541429D01*
X141828431Y-72541429D01*
X141823450Y-72539106D01*
X141818142Y-72537684D01*
X141818140Y-72537683D01*
X141694598Y-72504580D01*
X141610068Y-72481930D01*
X141390000Y-72462677D01*
X141169932Y-72481930D01*
X141085402Y-72504580D01*
X140961860Y-72537683D01*
X140961858Y-72537684D01*
X140956550Y-72539106D01*
X140951569Y-72541428D01*
X140951568Y-72541429D01*
X140761320Y-72630143D01*
X140761317Y-72630145D01*
X140756339Y-72632466D01*
X140575380Y-72759174D01*
X140419174Y-72915380D01*
X140292466Y-73096339D01*
X140290145Y-73101317D01*
X140290143Y-73101320D01*
X140234195Y-73221301D01*
X140187278Y-73274586D01*
X140119000Y-73294047D01*
X140051040Y-73273505D01*
X140005805Y-73221301D01*
X139949857Y-73101320D01*
X139949855Y-73101317D01*
X139947534Y-73096339D01*
X139820826Y-72915380D01*
X139664620Y-72759174D01*
X139660112Y-72756017D01*
X139660109Y-72756015D01*
X139488171Y-72635623D01*
X139488168Y-72635621D01*
X139483662Y-72632466D01*
X139478680Y-72630143D01*
X139478675Y-72630140D01*
X139288432Y-72541429D01*
X139288431Y-72541429D01*
X139283450Y-72539106D01*
X139278142Y-72537684D01*
X139278140Y-72537683D01*
X139154598Y-72504580D01*
X139070068Y-72481930D01*
X138850000Y-72462677D01*
X138629932Y-72481930D01*
X138545402Y-72504580D01*
X138421860Y-72537683D01*
X138421858Y-72537684D01*
X138416550Y-72539106D01*
X138411569Y-72541428D01*
X138411568Y-72541429D01*
X138221320Y-72630143D01*
X138221317Y-72630145D01*
X138216339Y-72632466D01*
X138035380Y-72759174D01*
X137879174Y-72915380D01*
X137752466Y-73096339D01*
X137750145Y-73101317D01*
X137750143Y-73101320D01*
X137694195Y-73221301D01*
X137647278Y-73274586D01*
X137579000Y-73294047D01*
X137511040Y-73273505D01*
X137465805Y-73221301D01*
X137409857Y-73101320D01*
X137409855Y-73101317D01*
X137407534Y-73096339D01*
X137280826Y-72915380D01*
X137124620Y-72759174D01*
X137120112Y-72756017D01*
X137120109Y-72756015D01*
X136948171Y-72635623D01*
X136948168Y-72635621D01*
X136943662Y-72632466D01*
X136938680Y-72630143D01*
X136938675Y-72630140D01*
X136748432Y-72541429D01*
X136748431Y-72541429D01*
X136743450Y-72539106D01*
X136738142Y-72537684D01*
X136738140Y-72537683D01*
X136614598Y-72504580D01*
X136530068Y-72481930D01*
X136310000Y-72462677D01*
X136089932Y-72481930D01*
X136005402Y-72504580D01*
X135881860Y-72537683D01*
X135881858Y-72537684D01*
X135876550Y-72539106D01*
X135871569Y-72541428D01*
X135871568Y-72541429D01*
X135681320Y-72630143D01*
X135681317Y-72630145D01*
X135676339Y-72632466D01*
X135495380Y-72759174D01*
X135339174Y-72915380D01*
X135212466Y-73096339D01*
X135210145Y-73101317D01*
X135210143Y-73101320D01*
X135154195Y-73221301D01*
X135107278Y-73274586D01*
X135039000Y-73294047D01*
X134971040Y-73273505D01*
X134925805Y-73221301D01*
X134869857Y-73101320D01*
X134869855Y-73101317D01*
X134867534Y-73096339D01*
X134740826Y-72915380D01*
X134584620Y-72759174D01*
X134580112Y-72756017D01*
X134580109Y-72756015D01*
X134408171Y-72635623D01*
X134408168Y-72635621D01*
X134403662Y-72632466D01*
X134398680Y-72630143D01*
X134398675Y-72630140D01*
X134208432Y-72541429D01*
X134208431Y-72541429D01*
X134203450Y-72539106D01*
X134198142Y-72537684D01*
X134198140Y-72537683D01*
X134074598Y-72504580D01*
X133990068Y-72481930D01*
X133770000Y-72462677D01*
X133549932Y-72481930D01*
X133465402Y-72504580D01*
X133341860Y-72537683D01*
X133341858Y-72537684D01*
X133336550Y-72539106D01*
X133331569Y-72541428D01*
X133331568Y-72541429D01*
X133141320Y-72630143D01*
X133141317Y-72630145D01*
X133136339Y-72632466D01*
X132955380Y-72759174D01*
X132799174Y-72915380D01*
X132672466Y-73096339D01*
X132670145Y-73101317D01*
X132670143Y-73101320D01*
X132618332Y-73212429D01*
X132571414Y-73265714D01*
X132503137Y-73285175D01*
X132435177Y-73264633D01*
X132389942Y-73212429D01*
X132336377Y-73097559D01*
X132330897Y-73088068D01*
X132300206Y-73044235D01*
X132289729Y-73035860D01*
X132276282Y-73042928D01*
X131602022Y-73717188D01*
X131594408Y-73731132D01*
X131594539Y-73732965D01*
X131598790Y-73739580D01*
X132277003Y-74417793D01*
X132288777Y-74424223D01*
X132300793Y-74414926D01*
X132330897Y-74371932D01*
X132336377Y-74362441D01*
X132389942Y-74247571D01*
X132436859Y-74194286D01*
X132505137Y-74174825D01*
X132573097Y-74195367D01*
X132618332Y-74247571D01*
X132666152Y-74350120D01*
X132672466Y-74363661D01*
X132799174Y-74544620D01*
X132955380Y-74700826D01*
X132959888Y-74703983D01*
X132959891Y-74703985D01*
X133131829Y-74824377D01*
X133136338Y-74827534D01*
X133141320Y-74829857D01*
X133141325Y-74829860D01*
X133261301Y-74885805D01*
X133314586Y-74932722D01*
X133334047Y-75000999D01*
X133313505Y-75068959D01*
X133261301Y-75114195D01*
X133141320Y-75170143D01*
X133141317Y-75170145D01*
X133136339Y-75172466D01*
X132955380Y-75299174D01*
X132799174Y-75455380D01*
X132672466Y-75636339D01*
X132670145Y-75641317D01*
X132670143Y-75641320D01*
X132614195Y-75761301D01*
X132567278Y-75814586D01*
X132499000Y-75834047D01*
X132431040Y-75813505D01*
X132385805Y-75761301D01*
X132329857Y-75641320D01*
X132329855Y-75641317D01*
X132327534Y-75636339D01*
X132200826Y-75455380D01*
X132044620Y-75299174D01*
X132040112Y-75296017D01*
X132040109Y-75296015D01*
X131868171Y-75175623D01*
X131868168Y-75175621D01*
X131863662Y-75172466D01*
X131858680Y-75170143D01*
X131858675Y-75170140D01*
X131747571Y-75118332D01*
X131694286Y-75071415D01*
X131674825Y-75003138D01*
X131695367Y-74935178D01*
X131747571Y-74889942D01*
X131862445Y-74836376D01*
X131871931Y-74830898D01*
X131915764Y-74800207D01*
X131924139Y-74789729D01*
X131917071Y-74776281D01*
X130182997Y-73042207D01*
X130171223Y-73035777D01*
X130159207Y-73045074D01*
X130129103Y-73088068D01*
X130123623Y-73097559D01*
X130070058Y-73212429D01*
X130023141Y-73265714D01*
X129954863Y-73285175D01*
X129886903Y-73264633D01*
X129841668Y-73212429D01*
X129789857Y-73101320D01*
X129789855Y-73101317D01*
X129787534Y-73096339D01*
X129660826Y-72915380D01*
X129504620Y-72759174D01*
X129500112Y-72756017D01*
X129500109Y-72756015D01*
X129377654Y-72670271D01*
X130535860Y-72670271D01*
X130542928Y-72683718D01*
X131217188Y-73357978D01*
X131231132Y-73365592D01*
X131232965Y-73365461D01*
X131239580Y-73361210D01*
X131917793Y-72682997D01*
X131924223Y-72671223D01*
X131914926Y-72659207D01*
X131871931Y-72629102D01*
X131862445Y-72623624D01*
X131671007Y-72534355D01*
X131660715Y-72530609D01*
X131456691Y-72475941D01*
X131445896Y-72474038D01*
X131235475Y-72455628D01*
X131224525Y-72455628D01*
X131014104Y-72474038D01*
X131003309Y-72475941D01*
X130799285Y-72530609D01*
X130788993Y-72534355D01*
X130597559Y-72623623D01*
X130588068Y-72629103D01*
X130544235Y-72659794D01*
X130535860Y-72670271D01*
X129377654Y-72670271D01*
X129328171Y-72635623D01*
X129328168Y-72635621D01*
X129323662Y-72632466D01*
X129318680Y-72630143D01*
X129318675Y-72630140D01*
X129128432Y-72541429D01*
X129128431Y-72541429D01*
X129123450Y-72539106D01*
X129118142Y-72537684D01*
X129118140Y-72537683D01*
X128994598Y-72504580D01*
X128910068Y-72481930D01*
X128690000Y-72462677D01*
X128469932Y-72481930D01*
X128385402Y-72504580D01*
X128261860Y-72537683D01*
X128261858Y-72537684D01*
X128256550Y-72539106D01*
X128251569Y-72541428D01*
X128251568Y-72541429D01*
X128061320Y-72630143D01*
X128061317Y-72630145D01*
X128056339Y-72632466D01*
X127875380Y-72759174D01*
X127719174Y-72915380D01*
X127592466Y-73096339D01*
X127590145Y-73101317D01*
X127590143Y-73101320D01*
X127534195Y-73221301D01*
X127487278Y-73274586D01*
X127419000Y-73294047D01*
X127351040Y-73273505D01*
X127305805Y-73221301D01*
X127249857Y-73101320D01*
X127249855Y-73101317D01*
X127247534Y-73096339D01*
X127120826Y-72915380D01*
X126964620Y-72759174D01*
X126960112Y-72756017D01*
X126960109Y-72756015D01*
X126788171Y-72635623D01*
X126788168Y-72635621D01*
X126783662Y-72632466D01*
X126778680Y-72630143D01*
X126778675Y-72630140D01*
X126588432Y-72541429D01*
X126588431Y-72541429D01*
X126583450Y-72539106D01*
X126578142Y-72537684D01*
X126578140Y-72537683D01*
X126454598Y-72504580D01*
X126370068Y-72481930D01*
X126150000Y-72462677D01*
X125929932Y-72481930D01*
X125845402Y-72504580D01*
X125721860Y-72537683D01*
X125721858Y-72537684D01*
X125716550Y-72539106D01*
X125711569Y-72541428D01*
X125711568Y-72541429D01*
X125521320Y-72630143D01*
X125521317Y-72630145D01*
X125516339Y-72632466D01*
X125335380Y-72759174D01*
X125179174Y-72915380D01*
X125052466Y-73096339D01*
X125050145Y-73101317D01*
X125050143Y-73101320D01*
X124998332Y-73212429D01*
X124951414Y-73265714D01*
X124883137Y-73285175D01*
X124815177Y-73264633D01*
X124769942Y-73212429D01*
X124716377Y-73097559D01*
X124710897Y-73088068D01*
X124680206Y-73044235D01*
X124669729Y-73035860D01*
X124656282Y-73042928D01*
X123982022Y-73717188D01*
X123974408Y-73731132D01*
X123974539Y-73732965D01*
X123978790Y-73739580D01*
X124657003Y-74417793D01*
X124668777Y-74424223D01*
X124680793Y-74414926D01*
X124710897Y-74371932D01*
X124716377Y-74362441D01*
X124769942Y-74247571D01*
X124816859Y-74194286D01*
X124885137Y-74174825D01*
X124953097Y-74195367D01*
X124998332Y-74247571D01*
X125046152Y-74350120D01*
X125052466Y-74363661D01*
X125179174Y-74544620D01*
X125335380Y-74700826D01*
X125339888Y-74703983D01*
X125339891Y-74703985D01*
X125511829Y-74824377D01*
X125516338Y-74827534D01*
X125521320Y-74829857D01*
X125521325Y-74829860D01*
X125641301Y-74885805D01*
X125694586Y-74932722D01*
X125714047Y-75000999D01*
X125693505Y-75068959D01*
X125641301Y-75114195D01*
X125521320Y-75170143D01*
X125521317Y-75170145D01*
X125516339Y-75172466D01*
X125335380Y-75299174D01*
X125179174Y-75455380D01*
X125052466Y-75636339D01*
X125050145Y-75641317D01*
X125050143Y-75641320D01*
X124994195Y-75761301D01*
X124947278Y-75814586D01*
X124879000Y-75834047D01*
X124811040Y-75813505D01*
X124765805Y-75761301D01*
X124709857Y-75641320D01*
X124709855Y-75641317D01*
X124707534Y-75636339D01*
X124580826Y-75455380D01*
X124424620Y-75299174D01*
X124420112Y-75296017D01*
X124420109Y-75296015D01*
X124248171Y-75175623D01*
X124248168Y-75175621D01*
X124243662Y-75172466D01*
X124238680Y-75170143D01*
X124238675Y-75170140D01*
X124127571Y-75118332D01*
X124074286Y-75071415D01*
X124054825Y-75003138D01*
X124075367Y-74935178D01*
X124127571Y-74889942D01*
X124242445Y-74836376D01*
X124251931Y-74830898D01*
X124295764Y-74800207D01*
X124304139Y-74789729D01*
X124297071Y-74776281D01*
X123622812Y-74102022D01*
X123608868Y-74094408D01*
X123607035Y-74094539D01*
X123600420Y-74098790D01*
X122922207Y-74777003D01*
X122915777Y-74788777D01*
X122925074Y-74800793D01*
X122968069Y-74830898D01*
X122977555Y-74836376D01*
X123092429Y-74889942D01*
X123145714Y-74936859D01*
X123165175Y-75005136D01*
X123144633Y-75073096D01*
X123092429Y-75118332D01*
X122981320Y-75170143D01*
X122981317Y-75170145D01*
X122976339Y-75172466D01*
X122795380Y-75299174D01*
X122639174Y-75455380D01*
X122512466Y-75636339D01*
X122510145Y-75641317D01*
X122510143Y-75641320D01*
X122454195Y-75761301D01*
X122407278Y-75814586D01*
X122339000Y-75834047D01*
X122271040Y-75813505D01*
X122225805Y-75761301D01*
X122169857Y-75641320D01*
X122169855Y-75641317D01*
X122167534Y-75636339D01*
X122040826Y-75455380D01*
X121884620Y-75299174D01*
X121880112Y-75296017D01*
X121880109Y-75296015D01*
X121708171Y-75175623D01*
X121708168Y-75175621D01*
X121703662Y-75172466D01*
X121698680Y-75170143D01*
X121698675Y-75170140D01*
X121578699Y-75114195D01*
X121525414Y-75067278D01*
X121505953Y-74999001D01*
X121526495Y-74931041D01*
X121578699Y-74885805D01*
X121698675Y-74829860D01*
X121698680Y-74829857D01*
X121703662Y-74827534D01*
X121708171Y-74824377D01*
X121880109Y-74703985D01*
X121880112Y-74703983D01*
X121884620Y-74700826D01*
X122040826Y-74544620D01*
X122167534Y-74363661D01*
X122173849Y-74350120D01*
X122221668Y-74247571D01*
X122268586Y-74194286D01*
X122336863Y-74174825D01*
X122404823Y-74195367D01*
X122450058Y-74247571D01*
X122503623Y-74362441D01*
X122509103Y-74371932D01*
X122539794Y-74415765D01*
X122550271Y-74424140D01*
X122563718Y-74417072D01*
X123237978Y-73742812D01*
X123245592Y-73728868D01*
X123245461Y-73727035D01*
X123241210Y-73720420D01*
X122562997Y-73042207D01*
X122551223Y-73035777D01*
X122539207Y-73045074D01*
X122509103Y-73088068D01*
X122503623Y-73097559D01*
X122450058Y-73212429D01*
X122403141Y-73265714D01*
X122334863Y-73285175D01*
X122266903Y-73264633D01*
X122221668Y-73212429D01*
X122169857Y-73101320D01*
X122169855Y-73101317D01*
X122167534Y-73096339D01*
X122040826Y-72915380D01*
X121884620Y-72759174D01*
X121880112Y-72756017D01*
X121880109Y-72756015D01*
X121757654Y-72670271D01*
X122915860Y-72670271D01*
X122922928Y-72683718D01*
X123597188Y-73357978D01*
X123611132Y-73365592D01*
X123612965Y-73365461D01*
X123619580Y-73361210D01*
X124297793Y-72682997D01*
X124304223Y-72671223D01*
X124294926Y-72659207D01*
X124251931Y-72629102D01*
X124242445Y-72623624D01*
X124051007Y-72534355D01*
X124040715Y-72530609D01*
X123836691Y-72475941D01*
X123825896Y-72474038D01*
X123615475Y-72455628D01*
X123604525Y-72455628D01*
X123394104Y-72474038D01*
X123383309Y-72475941D01*
X123179285Y-72530609D01*
X123168993Y-72534355D01*
X122977559Y-72623623D01*
X122968068Y-72629103D01*
X122924235Y-72659794D01*
X122915860Y-72670271D01*
X121757654Y-72670271D01*
X121708171Y-72635623D01*
X121708168Y-72635621D01*
X121703662Y-72632466D01*
X121698680Y-72630143D01*
X121698675Y-72630140D01*
X121508432Y-72541429D01*
X121508431Y-72541429D01*
X121503450Y-72539106D01*
X121498142Y-72537684D01*
X121498140Y-72537683D01*
X121374598Y-72504580D01*
X121290068Y-72481930D01*
X121070000Y-72462677D01*
X120849932Y-72481930D01*
X120765402Y-72504580D01*
X120641860Y-72537683D01*
X120641858Y-72537684D01*
X120636550Y-72539106D01*
X120631569Y-72541428D01*
X120631568Y-72541429D01*
X120441320Y-72630143D01*
X120441317Y-72630145D01*
X120436339Y-72632466D01*
X120255380Y-72759174D01*
X120099174Y-72915380D01*
X119972466Y-73096339D01*
X119970145Y-73101317D01*
X119970143Y-73101320D01*
X119914195Y-73221301D01*
X119867278Y-73274586D01*
X119799000Y-73294047D01*
X119731040Y-73273505D01*
X119685805Y-73221301D01*
X119629857Y-73101320D01*
X119629855Y-73101317D01*
X119627534Y-73096339D01*
X119500826Y-72915380D01*
X119344620Y-72759174D01*
X119340112Y-72756017D01*
X119340109Y-72756015D01*
X119168171Y-72635623D01*
X119168168Y-72635621D01*
X119163662Y-72632466D01*
X119158680Y-72630143D01*
X119158675Y-72630140D01*
X118968432Y-72541429D01*
X118968431Y-72541429D01*
X118963450Y-72539106D01*
X118958142Y-72537684D01*
X118958140Y-72537683D01*
X118834598Y-72504580D01*
X118750068Y-72481930D01*
X118530000Y-72462677D01*
X118309932Y-72481930D01*
X118225402Y-72504580D01*
X118101860Y-72537683D01*
X118101858Y-72537684D01*
X118096550Y-72539106D01*
X118091569Y-72541428D01*
X118091568Y-72541429D01*
X117901320Y-72630143D01*
X117901317Y-72630145D01*
X117896339Y-72632466D01*
X117715380Y-72759174D01*
X117559174Y-72915380D01*
X117432466Y-73096339D01*
X117430145Y-73101317D01*
X117430143Y-73101320D01*
X117374195Y-73221301D01*
X117327278Y-73274586D01*
X117259000Y-73294047D01*
X117191040Y-73273505D01*
X117145805Y-73221301D01*
X117089857Y-73101320D01*
X117089855Y-73101317D01*
X117087534Y-73096339D01*
X116960826Y-72915380D01*
X116804620Y-72759174D01*
X116800112Y-72756017D01*
X116800109Y-72756015D01*
X116628171Y-72635623D01*
X116628168Y-72635621D01*
X116623662Y-72632466D01*
X116618680Y-72630143D01*
X116618675Y-72630140D01*
X116428432Y-72541429D01*
X116428431Y-72541429D01*
X116423450Y-72539106D01*
X116418142Y-72537684D01*
X116418140Y-72537683D01*
X116294598Y-72504580D01*
X116210068Y-72481930D01*
X115990000Y-72462677D01*
X115769932Y-72481930D01*
X115685402Y-72504580D01*
X115561860Y-72537683D01*
X115561858Y-72537684D01*
X115556550Y-72539106D01*
X115551569Y-72541428D01*
X115551568Y-72541429D01*
X115361320Y-72630143D01*
X115361317Y-72630145D01*
X115356339Y-72632466D01*
X115175380Y-72759174D01*
X115019174Y-72915380D01*
X114892466Y-73096339D01*
X114890145Y-73101317D01*
X114890143Y-73101320D01*
X114838332Y-73212429D01*
X114791414Y-73265714D01*
X114723137Y-73285175D01*
X114655177Y-73264633D01*
X114609942Y-73212429D01*
X114556377Y-73097559D01*
X114550897Y-73088068D01*
X114520206Y-73044235D01*
X114509729Y-73035860D01*
X114496282Y-73042928D01*
X113822022Y-73717188D01*
X113814408Y-73731132D01*
X113814539Y-73732965D01*
X113818790Y-73739580D01*
X114497003Y-74417793D01*
X114508777Y-74424223D01*
X114520793Y-74414926D01*
X114550897Y-74371932D01*
X114556377Y-74362441D01*
X114609942Y-74247571D01*
X114656859Y-74194286D01*
X114725137Y-74174825D01*
X114793097Y-74195367D01*
X114838332Y-74247571D01*
X114886152Y-74350120D01*
X114892466Y-74363661D01*
X115019174Y-74544620D01*
X115175380Y-74700826D01*
X115179888Y-74703983D01*
X115179891Y-74703985D01*
X115351829Y-74824377D01*
X115356338Y-74827534D01*
X115361320Y-74829857D01*
X115361325Y-74829860D01*
X115481301Y-74885805D01*
X115534586Y-74932722D01*
X115554047Y-75000999D01*
X115533505Y-75068959D01*
X115481301Y-75114195D01*
X115361320Y-75170143D01*
X115361317Y-75170145D01*
X115356339Y-75172466D01*
X115175380Y-75299174D01*
X115019174Y-75455380D01*
X114892466Y-75636339D01*
X114890145Y-75641317D01*
X114890143Y-75641320D01*
X114834195Y-75761301D01*
X114787278Y-75814586D01*
X114719000Y-75834047D01*
X114651040Y-75813505D01*
X114605805Y-75761301D01*
X114549857Y-75641320D01*
X114549855Y-75641317D01*
X114547534Y-75636339D01*
X114420826Y-75455380D01*
X114264620Y-75299174D01*
X114260112Y-75296017D01*
X114260109Y-75296015D01*
X114088171Y-75175623D01*
X114088168Y-75175621D01*
X114083662Y-75172466D01*
X114078680Y-75170143D01*
X114078675Y-75170140D01*
X113967571Y-75118332D01*
X113914286Y-75071415D01*
X113894825Y-75003138D01*
X113915367Y-74935178D01*
X113967571Y-74889942D01*
X114082445Y-74836376D01*
X114091931Y-74830898D01*
X114135764Y-74800207D01*
X114144139Y-74789729D01*
X114137071Y-74776281D01*
X113179885Y-73819095D01*
X113145859Y-73756783D01*
X113150924Y-73685968D01*
X113179885Y-73640905D01*
X114137793Y-72682997D01*
X114144223Y-72671223D01*
X114134926Y-72659207D01*
X114091931Y-72629102D01*
X114082445Y-72623624D01*
X113891007Y-72534355D01*
X113880715Y-72530609D01*
X113676691Y-72475941D01*
X113665896Y-72474038D01*
X113455475Y-72455628D01*
X113444525Y-72455628D01*
X113234104Y-72474038D01*
X113223309Y-72475941D01*
X113019285Y-72530609D01*
X113008993Y-72534355D01*
X112977714Y-72548941D01*
X112907523Y-72559602D01*
X112842710Y-72530622D01*
X112803853Y-72471203D01*
X112798464Y-72434746D01*
X112798464Y-72388316D01*
X112818466Y-72320195D01*
X112835369Y-72299221D01*
X115472186Y-69662405D01*
X115534498Y-69628379D01*
X115561281Y-69625500D01*
X135422297Y-69625500D01*
X135433257Y-69626017D01*
X135440667Y-69627673D01*
X135448593Y-69627424D01*
X135448594Y-69627424D01*
X135507841Y-69625562D01*
X135511799Y-69625500D01*
X135539350Y-69625500D01*
X135543273Y-69625004D01*
X135543388Y-69624997D01*
X135555068Y-69624077D01*
X135598627Y-69622709D01*
X135617716Y-69617163D01*
X135637062Y-69613156D01*
X135656792Y-69610664D01*
X135697323Y-69594616D01*
X135708524Y-69590781D01*
X135750390Y-69578618D01*
X135767499Y-69568500D01*
X135785245Y-69559805D01*
X135803732Y-69552486D01*
X135838991Y-69526869D01*
X135848910Y-69520354D01*
X135879590Y-69502210D01*
X135879594Y-69502207D01*
X135886420Y-69498170D01*
X135900470Y-69484120D01*
X135915504Y-69471279D01*
X135925173Y-69464254D01*
X135931587Y-69459594D01*
X135959370Y-69426010D01*
X135967359Y-69417231D01*
X139997676Y-65386915D01*
X173595119Y-65386915D01*
X173595416Y-65392067D01*
X173595416Y-65392071D01*
X173600864Y-65486546D01*
X173608376Y-65616830D01*
X173609513Y-65621876D01*
X173609514Y-65621882D01*
X173631226Y-65718225D01*
X173659006Y-65841492D01*
X173660948Y-65846274D01*
X173660949Y-65846278D01*
X173698427Y-65938575D01*
X173745649Y-66054868D01*
X173865979Y-66251228D01*
X174016763Y-66425298D01*
X174193953Y-66572404D01*
X174341766Y-66658779D01*
X174390488Y-66710417D01*
X174403559Y-66780200D01*
X174376827Y-66845972D01*
X174371830Y-66851876D01*
X174271890Y-66962871D01*
X174271887Y-66962875D01*
X174267467Y-66967784D01*
X174172821Y-67131716D01*
X174114326Y-67311744D01*
X174113636Y-67318305D01*
X174113636Y-67318307D01*
X174106366Y-67387483D01*
X174094540Y-67500000D01*
X174095230Y-67506565D01*
X174107323Y-67621621D01*
X174114326Y-67688256D01*
X174172821Y-67868284D01*
X174176124Y-67874006D01*
X174176125Y-67874007D01*
X174257232Y-68014488D01*
X174267467Y-68032216D01*
X174271885Y-68037123D01*
X174271886Y-68037124D01*
X174299964Y-68068307D01*
X174394129Y-68172888D01*
X174547270Y-68284151D01*
X174720197Y-68361144D01*
X174818212Y-68381978D01*
X174898897Y-68399128D01*
X174898901Y-68399128D01*
X174905354Y-68400500D01*
X175094646Y-68400500D01*
X175101099Y-68399128D01*
X175101103Y-68399128D01*
X175181788Y-68381978D01*
X175279803Y-68361144D01*
X175452730Y-68284151D01*
X175605871Y-68172888D01*
X175700037Y-68068307D01*
X175728114Y-68037124D01*
X175728115Y-68037123D01*
X175732533Y-68032216D01*
X175742768Y-68014488D01*
X175823875Y-67874007D01*
X175823876Y-67874006D01*
X175827179Y-67868284D01*
X175885674Y-67688256D01*
X175892678Y-67621621D01*
X175904770Y-67506565D01*
X175905460Y-67500000D01*
X175893634Y-67387483D01*
X175886364Y-67318307D01*
X175886364Y-67318305D01*
X175885674Y-67311744D01*
X175827179Y-67131716D01*
X175732533Y-66967784D01*
X175628166Y-66851873D01*
X175597449Y-66787865D01*
X175606213Y-66717411D01*
X175651675Y-66662880D01*
X175666369Y-66654411D01*
X175714930Y-66630621D01*
X175714929Y-66630621D01*
X175719574Y-66628346D01*
X175907062Y-66494613D01*
X176070190Y-66332053D01*
X176128269Y-66251228D01*
X176201559Y-66149233D01*
X176204577Y-66145033D01*
X176306615Y-65938575D01*
X176337643Y-65836450D01*
X176372059Y-65723177D01*
X176372060Y-65723171D01*
X176373563Y-65718225D01*
X176403622Y-65489899D01*
X176405300Y-65421250D01*
X176386430Y-65191728D01*
X176330326Y-64968370D01*
X176238496Y-64757174D01*
X176113405Y-64563813D01*
X176109924Y-64559987D01*
X176015986Y-64456751D01*
X175984934Y-64392905D01*
X175993329Y-64322406D01*
X176038505Y-64267638D01*
X176064950Y-64253969D01*
X176134421Y-64227926D01*
X176134420Y-64227926D01*
X176142824Y-64224776D01*
X176150003Y-64219396D01*
X176150006Y-64219394D01*
X176250365Y-64144178D01*
X176257546Y-64138796D01*
X176262928Y-64131615D01*
X176338144Y-64031256D01*
X176338146Y-64031253D01*
X176343526Y-64024074D01*
X176393851Y-63889830D01*
X176400500Y-63828627D01*
X176400499Y-61933874D01*
X176393851Y-61872670D01*
X176343526Y-61738426D01*
X176338146Y-61731247D01*
X176338144Y-61731244D01*
X176262928Y-61630885D01*
X176257546Y-61623704D01*
X176250365Y-61618322D01*
X176150006Y-61543106D01*
X176150003Y-61543104D01*
X176142824Y-61537724D01*
X176053439Y-61504216D01*
X176015975Y-61490171D01*
X176015973Y-61490171D01*
X176008580Y-61487399D01*
X176000730Y-61486546D01*
X176000729Y-61486546D01*
X175950774Y-61481119D01*
X175950773Y-61481119D01*
X175947377Y-61480750D01*
X175000139Y-61480750D01*
X174052624Y-61480751D01*
X174049230Y-61481120D01*
X174049224Y-61481120D01*
X173999278Y-61486545D01*
X173999274Y-61486546D01*
X173991420Y-61487399D01*
X173857176Y-61537724D01*
X173849997Y-61543104D01*
X173849994Y-61543106D01*
X173749635Y-61618322D01*
X173742454Y-61623704D01*
X173737072Y-61630885D01*
X173661856Y-61731244D01*
X173661854Y-61731247D01*
X173656474Y-61738426D01*
X173606149Y-61872670D01*
X173599500Y-61933873D01*
X173599501Y-63828626D01*
X173606149Y-63889830D01*
X173656474Y-64024074D01*
X173661854Y-64031253D01*
X173661856Y-64031256D01*
X173737072Y-64131615D01*
X173742454Y-64138796D01*
X173749635Y-64144178D01*
X173849994Y-64219394D01*
X173849997Y-64219396D01*
X173857176Y-64224776D01*
X173865580Y-64227926D01*
X173865579Y-64227926D01*
X173935322Y-64254071D01*
X173992087Y-64296712D01*
X174016787Y-64363273D01*
X174001580Y-64432622D01*
X173982187Y-64459104D01*
X173911449Y-64533128D01*
X173907877Y-64536866D01*
X173778099Y-64727113D01*
X173775923Y-64731802D01*
X173775919Y-64731808D01*
X173764145Y-64757174D01*
X173681136Y-64936002D01*
X173619592Y-65157923D01*
X173595119Y-65386915D01*
X139997676Y-65386915D01*
X142887349Y-62497242D01*
X142895469Y-62489853D01*
X142901877Y-62485786D01*
X142947885Y-62436793D01*
X142950640Y-62433951D01*
X142970120Y-62414471D01*
X142972548Y-62411341D01*
X142972620Y-62411259D01*
X142980229Y-62402351D01*
X143010062Y-62370582D01*
X143019636Y-62353167D01*
X143030493Y-62336638D01*
X143037814Y-62327200D01*
X143042673Y-62320936D01*
X143059980Y-62280942D01*
X143065202Y-62270282D01*
X143082378Y-62239038D01*
X143086197Y-62232092D01*
X143091141Y-62212836D01*
X143097540Y-62194147D01*
X143105438Y-62175896D01*
X143112257Y-62132841D01*
X143114660Y-62121237D01*
X143125500Y-62079019D01*
X143125500Y-62059144D01*
X143127051Y-62039434D01*
X143128920Y-62027633D01*
X143130160Y-62019804D01*
X143126059Y-61976420D01*
X143125500Y-61964563D01*
X143125500Y-58199455D01*
X143145502Y-58131334D01*
X143157864Y-58115144D01*
X143228114Y-58037124D01*
X143228115Y-58037123D01*
X143232533Y-58032216D01*
X143327179Y-57868284D01*
X143385674Y-57688256D01*
X143388538Y-57661012D01*
X143404770Y-57506565D01*
X143405460Y-57500000D01*
X143402805Y-57474742D01*
X143386364Y-57318307D01*
X143386364Y-57318305D01*
X143385674Y-57311744D01*
X143327179Y-57131716D01*
X143232533Y-56967784D01*
X143142943Y-56868284D01*
X143110286Y-56832015D01*
X143110284Y-56832014D01*
X143105871Y-56827112D01*
X142952730Y-56715849D01*
X142779803Y-56638856D01*
X142681788Y-56618022D01*
X142601103Y-56600872D01*
X142601099Y-56600872D01*
X142594646Y-56599500D01*
X142405354Y-56599500D01*
X142398901Y-56600872D01*
X142398897Y-56600872D01*
X142318212Y-56618022D01*
X142220197Y-56638856D01*
X142047270Y-56715849D01*
X141894129Y-56827112D01*
X141889716Y-56832014D01*
X141889714Y-56832015D01*
X141857057Y-56868284D01*
X141767467Y-56967784D01*
X141672821Y-57131716D01*
X141614326Y-57311744D01*
X141613636Y-57318305D01*
X141613636Y-57318307D01*
X141597195Y-57474742D01*
X141594540Y-57500000D01*
X141595230Y-57506565D01*
X141611463Y-57661012D01*
X141614326Y-57688256D01*
X141672821Y-57868284D01*
X141767467Y-58032216D01*
X141771885Y-58037123D01*
X141771886Y-58037124D01*
X141842136Y-58115144D01*
X141872853Y-58179152D01*
X141874500Y-58199455D01*
X141874500Y-61688720D01*
X141854498Y-61756841D01*
X141837595Y-61777815D01*
X139840595Y-63774815D01*
X139778283Y-63808841D01*
X139707468Y-63803776D01*
X139650632Y-63761229D01*
X139625821Y-63694709D01*
X139625500Y-63685720D01*
X139625500Y-58077703D01*
X139626017Y-58066743D01*
X139627673Y-58059333D01*
X139625562Y-57992159D01*
X139625500Y-57988201D01*
X139625500Y-57960650D01*
X139625004Y-57956727D01*
X139624997Y-57956612D01*
X139624077Y-57944926D01*
X139622958Y-57909299D01*
X139622709Y-57901373D01*
X139617163Y-57882284D01*
X139613156Y-57862938D01*
X139610664Y-57843208D01*
X139594616Y-57802677D01*
X139590781Y-57791476D01*
X139578618Y-57749610D01*
X139568500Y-57732501D01*
X139559805Y-57714755D01*
X139552486Y-57696268D01*
X139526869Y-57661009D01*
X139520354Y-57651090D01*
X139502210Y-57620410D01*
X139502207Y-57620406D01*
X139498170Y-57613580D01*
X139484120Y-57599530D01*
X139471279Y-57584496D01*
X139464254Y-57574827D01*
X139459594Y-57568413D01*
X139447803Y-57558659D01*
X139408063Y-57499828D01*
X139402805Y-57474742D01*
X139386364Y-57318307D01*
X139386364Y-57318305D01*
X139385674Y-57311744D01*
X139327179Y-57131716D01*
X139232533Y-56967784D01*
X139142943Y-56868284D01*
X139110286Y-56832015D01*
X139110284Y-56832014D01*
X139105871Y-56827112D01*
X138952730Y-56715849D01*
X138779803Y-56638856D01*
X138681788Y-56618022D01*
X138601103Y-56600872D01*
X138601099Y-56600872D01*
X138594646Y-56599500D01*
X138405354Y-56599500D01*
X138398901Y-56600872D01*
X138398897Y-56600872D01*
X138318212Y-56618022D01*
X138220197Y-56638856D01*
X138047270Y-56715849D01*
X137894129Y-56827112D01*
X137889716Y-56832014D01*
X137889714Y-56832015D01*
X137857057Y-56868284D01*
X137767467Y-56967784D01*
X137672821Y-57131716D01*
X137614326Y-57311744D01*
X137613636Y-57318305D01*
X137613636Y-57318307D01*
X137597195Y-57474742D01*
X137594540Y-57500000D01*
X137595230Y-57506565D01*
X137611463Y-57661012D01*
X137614326Y-57688256D01*
X137672821Y-57868284D01*
X137767467Y-58032216D01*
X137771885Y-58037123D01*
X137771886Y-58037124D01*
X137856714Y-58131334D01*
X137894129Y-58172888D01*
X138047270Y-58284151D01*
X138220197Y-58361144D01*
X138226658Y-58362517D01*
X138226660Y-58362518D01*
X138274696Y-58372728D01*
X138337170Y-58406456D01*
X138371491Y-58468605D01*
X138374500Y-58495975D01*
X138374500Y-59723500D01*
X138354498Y-59791621D01*
X138300842Y-59838114D01*
X138248500Y-59849500D01*
X134252999Y-59849501D01*
X133677624Y-59849501D01*
X133674230Y-59849870D01*
X133674224Y-59849870D01*
X133624278Y-59855295D01*
X133624274Y-59855296D01*
X133616420Y-59856149D01*
X133482176Y-59906474D01*
X133474997Y-59911854D01*
X133474994Y-59911856D01*
X133381783Y-59981715D01*
X133367454Y-59992454D01*
X133362072Y-59999635D01*
X133286856Y-60099994D01*
X133286854Y-60099997D01*
X133281474Y-60107176D01*
X133278324Y-60115580D01*
X133234533Y-60232394D01*
X133231149Y-60241420D01*
X133224500Y-60302623D01*
X133224501Y-62697376D01*
X133231149Y-62758580D01*
X133281474Y-62892824D01*
X133286854Y-62900003D01*
X133286856Y-62900006D01*
X133362072Y-63000365D01*
X133367454Y-63007546D01*
X133374635Y-63012928D01*
X133474994Y-63088144D01*
X133474997Y-63088146D01*
X133482176Y-63093526D01*
X133571561Y-63127034D01*
X133609025Y-63141079D01*
X133609027Y-63141079D01*
X133616420Y-63143851D01*
X133624270Y-63144704D01*
X133624271Y-63144704D01*
X133659020Y-63148479D01*
X133677623Y-63150500D01*
X134252872Y-63150500D01*
X138248500Y-63150499D01*
X138316621Y-63170501D01*
X138363114Y-63224157D01*
X138374500Y-63276499D01*
X138374500Y-64188720D01*
X138354498Y-64256841D01*
X138337595Y-64277815D01*
X135027814Y-67587595D01*
X134965502Y-67621621D01*
X134938719Y-67624500D01*
X115454638Y-67624500D01*
X115386517Y-67604498D01*
X115365230Y-67586403D01*
X115365198Y-67586439D01*
X115363950Y-67585315D01*
X115360998Y-67582806D01*
X115360291Y-67582021D01*
X115355871Y-67577112D01*
X115350529Y-67573231D01*
X115350527Y-67573229D01*
X115208072Y-67469730D01*
X115208071Y-67469729D01*
X115202730Y-67465849D01*
X115029803Y-67388856D01*
X114931788Y-67368022D01*
X114851103Y-67350872D01*
X114851099Y-67350872D01*
X114844646Y-67349500D01*
X114655354Y-67349500D01*
X114648901Y-67350872D01*
X114648897Y-67350872D01*
X114568212Y-67368022D01*
X114470197Y-67388856D01*
X114297270Y-67465849D01*
X114144129Y-67577112D01*
X114139716Y-67582014D01*
X114139714Y-67582015D01*
X114044054Y-67688256D01*
X114017467Y-67717784D01*
X114014164Y-67723505D01*
X113934205Y-67861999D01*
X113922821Y-67881716D01*
X113864326Y-68061744D01*
X113844540Y-68250000D01*
X113845230Y-68256565D01*
X113860214Y-68399128D01*
X113864326Y-68438256D01*
X113922821Y-68618284D01*
X114017467Y-68782216D01*
X114144129Y-68922888D01*
X114197605Y-68961741D01*
X114240959Y-69017961D01*
X114247035Y-69088698D01*
X114212639Y-69152771D01*
X111785615Y-71579794D01*
X111777495Y-71587183D01*
X111771087Y-71591250D01*
X111765661Y-71597028D01*
X111725079Y-71640243D01*
X111722324Y-71643085D01*
X111702844Y-71662565D01*
X111700416Y-71665695D01*
X111700344Y-71665777D01*
X111692735Y-71674685D01*
X111662902Y-71706454D01*
X111659083Y-71713401D01*
X111653329Y-71723868D01*
X111642472Y-71740397D01*
X111630291Y-71756100D01*
X111627143Y-71763375D01*
X111612984Y-71796094D01*
X111607762Y-71806754D01*
X111586767Y-71844944D01*
X111581823Y-71864200D01*
X111575424Y-71882889D01*
X111567526Y-71901140D01*
X111566286Y-71908970D01*
X111560708Y-71944190D01*
X111558304Y-71955799D01*
X111547464Y-71998017D01*
X111547464Y-72017892D01*
X111545913Y-72037602D01*
X111542804Y-72057232D01*
X111543550Y-72065124D01*
X111546905Y-72100615D01*
X111547464Y-72112473D01*
X111547464Y-72436459D01*
X111527462Y-72504580D01*
X111473806Y-72551073D01*
X111403532Y-72561177D01*
X111368213Y-72550653D01*
X111348437Y-72541431D01*
X111348432Y-72541429D01*
X111343450Y-72539106D01*
X111338142Y-72537684D01*
X111338140Y-72537683D01*
X111214598Y-72504580D01*
X111130068Y-72481930D01*
X110910000Y-72462677D01*
X110689932Y-72481930D01*
X110605402Y-72504580D01*
X110481860Y-72537683D01*
X110481858Y-72537684D01*
X110476550Y-72539106D01*
X110471569Y-72541428D01*
X110471568Y-72541429D01*
X110281320Y-72630143D01*
X110281317Y-72630145D01*
X110276339Y-72632466D01*
X110095380Y-72759174D01*
X109939174Y-72915380D01*
X109812466Y-73096339D01*
X109810145Y-73101317D01*
X109810143Y-73101320D01*
X109754195Y-73221301D01*
X109707278Y-73274586D01*
X109639000Y-73294047D01*
X109571040Y-73273505D01*
X109525805Y-73221301D01*
X109469857Y-73101320D01*
X109469855Y-73101317D01*
X109467534Y-73096339D01*
X109340826Y-72915380D01*
X109184620Y-72759174D01*
X109180112Y-72756017D01*
X109180109Y-72756015D01*
X109008171Y-72635623D01*
X109008168Y-72635621D01*
X109003662Y-72632466D01*
X108998680Y-72630143D01*
X108998675Y-72630140D01*
X108808432Y-72541429D01*
X108808431Y-72541429D01*
X108803450Y-72539106D01*
X108798142Y-72537684D01*
X108798140Y-72537683D01*
X108674598Y-72504580D01*
X108590068Y-72481930D01*
X108370000Y-72462677D01*
X108149932Y-72481930D01*
X108065402Y-72504580D01*
X107941860Y-72537683D01*
X107941858Y-72537684D01*
X107936550Y-72539106D01*
X107931569Y-72541428D01*
X107931568Y-72541429D01*
X107741320Y-72630143D01*
X107741317Y-72630145D01*
X107736339Y-72632466D01*
X107555380Y-72759174D01*
X107399174Y-72915380D01*
X107272466Y-73096339D01*
X107270145Y-73101317D01*
X107270143Y-73101320D01*
X107229806Y-73187824D01*
X107179106Y-73296550D01*
X107121930Y-73509932D01*
X107102677Y-73730000D01*
X104881697Y-73730000D01*
X104743459Y-73589573D01*
X104739919Y-73586871D01*
X104535864Y-73431141D01*
X104535860Y-73431138D01*
X104532323Y-73428439D01*
X104300589Y-73298662D01*
X104052881Y-73202831D01*
X104048560Y-73201829D01*
X104048552Y-73201827D01*
X103878433Y-73162397D01*
X103794142Y-73142859D01*
X103529534Y-73119941D01*
X103525099Y-73120185D01*
X103525095Y-73120185D01*
X103268780Y-73134291D01*
X103268773Y-73134292D01*
X103264337Y-73134536D01*
X103084398Y-73170328D01*
X103008205Y-73185483D01*
X103008203Y-73185484D01*
X103003842Y-73186351D01*
X102753246Y-73274354D01*
X102517551Y-73396788D01*
X102513936Y-73399371D01*
X102513930Y-73399375D01*
X102377198Y-73497086D01*
X102301457Y-73551211D01*
X102109278Y-73734541D01*
X101944848Y-73943120D01*
X101942616Y-73946962D01*
X101942613Y-73946967D01*
X101813685Y-74168932D01*
X101813682Y-74168938D01*
X101811447Y-74172786D01*
X101783145Y-74242661D01*
X101713410Y-74414826D01*
X101713407Y-74414834D01*
X101711737Y-74418958D01*
X101679555Y-74548515D01*
X101653457Y-74653580D01*
X101647708Y-74676723D01*
X101620637Y-74940939D01*
X100500500Y-74940939D01*
X100500500Y-62694669D01*
X116817001Y-62694669D01*
X116817371Y-62701490D01*
X116822895Y-62752352D01*
X116826521Y-62767604D01*
X116871676Y-62888054D01*
X116880214Y-62903649D01*
X116956715Y-63005724D01*
X116969276Y-63018285D01*
X117071351Y-63094786D01*
X117086946Y-63103324D01*
X117207394Y-63148478D01*
X117222649Y-63152105D01*
X117273514Y-63157631D01*
X117280328Y-63158000D01*
X119302885Y-63158000D01*
X119318124Y-63153525D01*
X119319329Y-63152135D01*
X119321000Y-63144452D01*
X119321000Y-63139884D01*
X119829000Y-63139884D01*
X119833475Y-63155123D01*
X119834865Y-63156328D01*
X119842548Y-63157999D01*
X121869669Y-63157999D01*
X121876490Y-63157629D01*
X121927352Y-63152105D01*
X121942604Y-63148479D01*
X122063054Y-63103324D01*
X122078649Y-63094786D01*
X122180724Y-63018285D01*
X122193285Y-63005724D01*
X122269786Y-62903649D01*
X122278324Y-62888054D01*
X122323478Y-62767606D01*
X122327105Y-62752351D01*
X122332631Y-62701486D01*
X122333000Y-62694672D01*
X122333000Y-61772115D01*
X122328525Y-61756876D01*
X122327135Y-61755671D01*
X122319452Y-61754000D01*
X119847115Y-61754000D01*
X119831876Y-61758475D01*
X119830671Y-61759865D01*
X119829000Y-61767548D01*
X119829000Y-63139884D01*
X119321000Y-63139884D01*
X119321000Y-61772115D01*
X119316525Y-61756876D01*
X119315135Y-61755671D01*
X119307452Y-61754000D01*
X116835116Y-61754000D01*
X116819877Y-61758475D01*
X116818672Y-61759865D01*
X116817001Y-61767548D01*
X116817001Y-62694669D01*
X100500500Y-62694669D01*
X100500500Y-61227885D01*
X116817000Y-61227885D01*
X116821475Y-61243124D01*
X116822865Y-61244329D01*
X116830548Y-61246000D01*
X119302885Y-61246000D01*
X119318124Y-61241525D01*
X119319329Y-61240135D01*
X119321000Y-61232452D01*
X119321000Y-61227885D01*
X119829000Y-61227885D01*
X119833475Y-61243124D01*
X119834865Y-61244329D01*
X119842548Y-61246000D01*
X122314884Y-61246000D01*
X122330123Y-61241525D01*
X122331328Y-61240135D01*
X122332999Y-61232452D01*
X122332999Y-60305331D01*
X122332629Y-60298510D01*
X122327105Y-60247648D01*
X122323479Y-60232396D01*
X122278324Y-60111946D01*
X122269786Y-60096351D01*
X122193285Y-59994276D01*
X122180724Y-59981715D01*
X122078649Y-59905214D01*
X122063054Y-59896676D01*
X121942606Y-59851522D01*
X121927351Y-59847895D01*
X121876486Y-59842369D01*
X121869672Y-59842000D01*
X119847115Y-59842000D01*
X119831876Y-59846475D01*
X119830671Y-59847865D01*
X119829000Y-59855548D01*
X119829000Y-61227885D01*
X119321000Y-61227885D01*
X119321000Y-59860116D01*
X119316525Y-59844877D01*
X119315135Y-59843672D01*
X119307452Y-59842001D01*
X117280331Y-59842001D01*
X117273510Y-59842371D01*
X117222648Y-59847895D01*
X117207396Y-59851521D01*
X117086946Y-59896676D01*
X117071351Y-59905214D01*
X116969276Y-59981715D01*
X116956715Y-59994276D01*
X116880214Y-60096351D01*
X116871676Y-60111946D01*
X116826522Y-60232394D01*
X116822895Y-60247649D01*
X116817369Y-60298514D01*
X116817000Y-60305328D01*
X116817000Y-61227885D01*
X100500500Y-61227885D01*
X100500500Y-56500000D01*
X118344540Y-56500000D01*
X118345230Y-56506565D01*
X118359417Y-56641545D01*
X118364326Y-56688256D01*
X118422821Y-56868284D01*
X118517467Y-57032216D01*
X118521885Y-57037123D01*
X118521886Y-57037124D01*
X118612717Y-57138001D01*
X118644129Y-57172888D01*
X118797270Y-57284151D01*
X118970197Y-57361144D01*
X119068212Y-57381978D01*
X119148897Y-57399128D01*
X119148901Y-57399128D01*
X119155354Y-57400500D01*
X119344646Y-57400500D01*
X119351099Y-57399128D01*
X119351103Y-57399128D01*
X119431788Y-57381978D01*
X119529803Y-57361144D01*
X119702730Y-57284151D01*
X119855871Y-57172888D01*
X119887284Y-57138001D01*
X119978114Y-57037124D01*
X119978115Y-57037123D01*
X119982533Y-57032216D01*
X120077179Y-56868284D01*
X120135674Y-56688256D01*
X120140584Y-56641545D01*
X120154770Y-56506565D01*
X120155460Y-56500000D01*
X120135674Y-56311744D01*
X120077179Y-56131716D01*
X119982533Y-55967784D01*
X119855871Y-55827112D01*
X119702730Y-55715849D01*
X119529803Y-55638856D01*
X119431788Y-55618022D01*
X119351103Y-55600872D01*
X119351099Y-55600872D01*
X119344646Y-55599500D01*
X119155354Y-55599500D01*
X119148901Y-55600872D01*
X119148897Y-55600872D01*
X119068212Y-55618022D01*
X118970197Y-55638856D01*
X118797270Y-55715849D01*
X118644129Y-55827112D01*
X118517467Y-55967784D01*
X118422821Y-56131716D01*
X118364326Y-56311744D01*
X118344540Y-56500000D01*
X100500500Y-56500000D01*
X100500500Y-53607165D01*
X101747866Y-53607165D01*
X101782952Y-53864970D01*
X101855758Y-54114757D01*
X101964686Y-54351039D01*
X101967246Y-54354944D01*
X101967249Y-54354949D01*
X102104775Y-54564712D01*
X102104779Y-54564717D01*
X102107341Y-54568625D01*
X102280591Y-54762735D01*
X102480629Y-54929105D01*
X102703061Y-55064080D01*
X102707375Y-55065889D01*
X102707377Y-55065890D01*
X102938686Y-55162886D01*
X102938691Y-55162888D01*
X102943001Y-55164695D01*
X102947533Y-55165846D01*
X102947536Y-55165847D01*
X103072815Y-55197663D01*
X103195177Y-55228739D01*
X103411286Y-55250500D01*
X103566044Y-55250500D01*
X103568369Y-55250327D01*
X103568375Y-55250327D01*
X103754814Y-55236472D01*
X103754818Y-55236471D01*
X103759466Y-55236126D01*
X104013232Y-55178705D01*
X104018216Y-55176767D01*
X104251370Y-55086098D01*
X104251372Y-55086097D01*
X104255723Y-55084405D01*
X104291285Y-55064080D01*
X104357045Y-55026495D01*
X104481612Y-54955299D01*
X104685936Y-54794223D01*
X104864208Y-54604714D01*
X104936851Y-54500000D01*
X141619540Y-54500000D01*
X141620230Y-54506565D01*
X141630546Y-54604714D01*
X141639326Y-54688256D01*
X141697821Y-54868284D01*
X141792467Y-55032216D01*
X141796885Y-55037123D01*
X141796886Y-55037124D01*
X141840983Y-55086098D01*
X141919129Y-55172888D01*
X141924468Y-55176767D01*
X141996002Y-55228739D01*
X142072270Y-55284151D01*
X142245197Y-55361144D01*
X142343212Y-55381978D01*
X142423897Y-55399128D01*
X142423901Y-55399128D01*
X142430354Y-55400500D01*
X142619646Y-55400500D01*
X142626099Y-55399128D01*
X142626103Y-55399128D01*
X142706788Y-55381978D01*
X142804803Y-55361144D01*
X142977730Y-55284151D01*
X143053999Y-55228739D01*
X143125532Y-55176767D01*
X143130871Y-55172888D01*
X143209018Y-55086098D01*
X143253114Y-55037124D01*
X143253115Y-55037123D01*
X143257533Y-55032216D01*
X143352179Y-54868284D01*
X143410674Y-54688256D01*
X143419455Y-54604714D01*
X143429770Y-54506565D01*
X143430460Y-54500000D01*
X143410674Y-54311744D01*
X143352179Y-54131716D01*
X143257533Y-53967784D01*
X143205317Y-53909792D01*
X143135286Y-53832015D01*
X143135284Y-53832014D01*
X143130871Y-53827112D01*
X142977730Y-53715849D01*
X142804803Y-53638856D01*
X142706788Y-53618022D01*
X142655709Y-53607165D01*
X179747866Y-53607165D01*
X179782952Y-53864970D01*
X179855758Y-54114757D01*
X179964686Y-54351039D01*
X179967246Y-54354944D01*
X179967249Y-54354949D01*
X180104775Y-54564712D01*
X180104779Y-54564717D01*
X180107341Y-54568625D01*
X180280591Y-54762735D01*
X180480629Y-54929105D01*
X180703061Y-55064080D01*
X180707375Y-55065889D01*
X180707377Y-55065890D01*
X180938686Y-55162886D01*
X180938691Y-55162888D01*
X180943001Y-55164695D01*
X180947533Y-55165846D01*
X180947536Y-55165847D01*
X181072815Y-55197663D01*
X181195177Y-55228739D01*
X181411286Y-55250500D01*
X181566044Y-55250500D01*
X181568369Y-55250327D01*
X181568375Y-55250327D01*
X181754814Y-55236472D01*
X181754818Y-55236471D01*
X181759466Y-55236126D01*
X182013232Y-55178705D01*
X182018216Y-55176767D01*
X182251370Y-55086098D01*
X182251372Y-55086097D01*
X182255723Y-55084405D01*
X182291285Y-55064080D01*
X182357045Y-55026495D01*
X182481612Y-54955299D01*
X182685936Y-54794223D01*
X182864208Y-54604714D01*
X183012511Y-54390937D01*
X183030258Y-54354949D01*
X183125521Y-54161775D01*
X183125522Y-54161772D01*
X183127586Y-54157587D01*
X183135868Y-54131716D01*
X183186511Y-53973505D01*
X183206906Y-53909792D01*
X183237859Y-53719730D01*
X183247977Y-53657606D01*
X183247977Y-53657605D01*
X183248728Y-53652994D01*
X183252134Y-53392835D01*
X183217048Y-53135030D01*
X183144242Y-52885243D01*
X183035314Y-52648961D01*
X183006637Y-52605221D01*
X182895225Y-52435288D01*
X182895221Y-52435283D01*
X182892659Y-52431375D01*
X182719409Y-52237265D01*
X182519371Y-52070895D01*
X182296939Y-51935920D01*
X182292623Y-51934110D01*
X182061314Y-51837114D01*
X182061309Y-51837112D01*
X182056999Y-51835305D01*
X182052467Y-51834154D01*
X182052464Y-51834153D01*
X181927185Y-51802337D01*
X181804823Y-51771261D01*
X181588714Y-51749500D01*
X181433956Y-51749500D01*
X181431631Y-51749673D01*
X181431625Y-51749673D01*
X181245186Y-51763528D01*
X181245182Y-51763529D01*
X181240534Y-51763874D01*
X180986768Y-51821295D01*
X180982416Y-51822987D01*
X180982414Y-51822988D01*
X180748630Y-51913902D01*
X180748628Y-51913903D01*
X180744277Y-51915595D01*
X180740223Y-51917912D01*
X180740221Y-51917913D01*
X180704467Y-51938348D01*
X180518388Y-52044701D01*
X180314064Y-52205777D01*
X180135792Y-52395286D01*
X179987489Y-52609063D01*
X179985423Y-52613253D01*
X179985421Y-52613256D01*
X179965720Y-52653207D01*
X179872414Y-52842413D01*
X179793094Y-53090208D01*
X179751272Y-53347006D01*
X179747866Y-53607165D01*
X142655709Y-53607165D01*
X142626103Y-53600872D01*
X142626099Y-53600872D01*
X142619646Y-53599500D01*
X142430354Y-53599500D01*
X142423901Y-53600872D01*
X142423897Y-53600872D01*
X142343212Y-53618022D01*
X142245197Y-53638856D01*
X142072270Y-53715849D01*
X141919129Y-53827112D01*
X141914716Y-53832014D01*
X141914714Y-53832015D01*
X141844683Y-53909792D01*
X141792467Y-53967784D01*
X141697821Y-54131716D01*
X141639326Y-54311744D01*
X141619540Y-54500000D01*
X104936851Y-54500000D01*
X105012511Y-54390937D01*
X105030258Y-54354949D01*
X105125521Y-54161775D01*
X105125522Y-54161772D01*
X105127586Y-54157587D01*
X105135868Y-54131716D01*
X105186511Y-53973505D01*
X105206906Y-53909792D01*
X105237859Y-53719730D01*
X105247977Y-53657606D01*
X105247977Y-53657605D01*
X105248728Y-53652994D01*
X105252134Y-53392835D01*
X105217048Y-53135030D01*
X105144242Y-52885243D01*
X105035314Y-52648961D01*
X105006637Y-52605221D01*
X104895225Y-52435288D01*
X104895221Y-52435283D01*
X104892659Y-52431375D01*
X104719409Y-52237265D01*
X104519371Y-52070895D01*
X104296939Y-51935920D01*
X104292623Y-51934110D01*
X104061314Y-51837114D01*
X104061309Y-51837112D01*
X104056999Y-51835305D01*
X104052467Y-51834154D01*
X104052464Y-51834153D01*
X103927185Y-51802337D01*
X103804823Y-51771261D01*
X103588714Y-51749500D01*
X103433956Y-51749500D01*
X103431631Y-51749673D01*
X103431625Y-51749673D01*
X103245186Y-51763528D01*
X103245182Y-51763529D01*
X103240534Y-51763874D01*
X102986768Y-51821295D01*
X102982416Y-51822987D01*
X102982414Y-51822988D01*
X102748630Y-51913902D01*
X102748628Y-51913903D01*
X102744277Y-51915595D01*
X102740223Y-51917912D01*
X102740221Y-51917913D01*
X102704467Y-51938348D01*
X102518388Y-52044701D01*
X102314064Y-52205777D01*
X102135792Y-52395286D01*
X101987489Y-52609063D01*
X101985423Y-52613253D01*
X101985421Y-52613256D01*
X101965720Y-52653207D01*
X101872414Y-52842413D01*
X101793094Y-53090208D01*
X101751272Y-53347006D01*
X101747866Y-53607165D01*
X100500500Y-53607165D01*
X100500500Y-50626500D01*
X100520502Y-50558379D01*
X100574158Y-50511886D01*
X100626500Y-50500500D01*
X184373500Y-50500500D01*
X184441621Y-50520502D01*
G37*
%TD.AperFunction*%
%TD*%
M02*
