%TF.GenerationSoftware,KiCad,Pcbnew,(6.0.7)*%
%TF.CreationDate,2022-10-30T05:00:52-05:00*%
%TF.ProjectId,GroundPCB,47726f75-6e64-4504-9342-2e6b69636164,1*%
%TF.SameCoordinates,Original*%
%TF.FileFunction,Soldermask,Top*%
%TF.FilePolarity,Negative*%
%FSLAX46Y46*%
G04 Gerber Fmt 4.6, Leading zero omitted, Abs format (unit mm)*
G04 Created by KiCad (PCBNEW (6.0.7)) date 2022-10-30 05:00:52*
%MOMM*%
%LPD*%
G01*
G04 APERTURE LIST*
G04 Aperture macros list*
%AMRoundRect*
0 Rectangle with rounded corners*
0 $1 Rounding radius*
0 $2 $3 $4 $5 $6 $7 $8 $9 X,Y pos of 4 corners*
0 Add a 4 corners polygon primitive as box body*
4,1,4,$2,$3,$4,$5,$6,$7,$8,$9,$2,$3,0*
0 Add four circle primitives for the rounded corners*
1,1,$1+$1,$2,$3*
1,1,$1+$1,$4,$5*
1,1,$1+$1,$6,$7*
1,1,$1+$1,$8,$9*
0 Add four rect primitives between the rounded corners*
20,1,$1+$1,$2,$3,$4,$5,0*
20,1,$1+$1,$4,$5,$6,$7,0*
20,1,$1+$1,$6,$7,$8,$9,0*
20,1,$1+$1,$8,$9,$2,$3,0*%
%AMFreePoly0*
4,1,11,0.965200,2.159000,0.965200,-0.254000,0.457200,-0.762000,0.457200,-2.667000,-0.457200,-2.667000,-0.457200,-0.762000,-0.965200,-0.254000,-0.965200,2.159000,-0.457200,2.667000,0.457200,2.667000,0.965200,2.159000,0.965200,2.159000,$1*%
G04 Aperture macros list end*
%TA.AperFunction,Profile*%
%ADD10C,0.100000*%
%TD*%
%ADD11C,0.010000*%
%ADD12C,6.200000*%
%ADD13C,1.524000*%
%ADD14R,1.524000X1.524000*%
%ADD15RoundRect,0.250000X-0.375000X-1.075000X0.375000X-1.075000X0.375000X1.075000X-0.375000X1.075000X0*%
%ADD16RoundRect,0.250000X-0.850000X0.375000X-0.850000X-0.375000X0.850000X-0.375000X0.850000X0.375000X0*%
%ADD17RoundRect,0.250000X0.650000X-0.325000X0.650000X0.325000X-0.650000X0.325000X-0.650000X-0.325000X0*%
%ADD18RoundRect,0.250000X-0.312500X-0.625000X0.312500X-0.625000X0.312500X0.625000X-0.312500X0.625000X0*%
%ADD19RoundRect,0.250000X-0.625000X0.312500X-0.625000X-0.312500X0.625000X-0.312500X0.625000X0.312500X0*%
%ADD20R,2.700000X2.700000*%
%ADD21R,0.250000X0.850000*%
%ADD22R,0.850000X0.250000*%
%ADD23RoundRect,0.250000X-0.325000X-0.650000X0.325000X-0.650000X0.325000X0.650000X-0.325000X0.650000X0*%
%ADD24R,1.550000X3.000000*%
%ADD25R,0.610000X1.350000*%
%ADD26RoundRect,0.041300X-0.983700X-0.253700X0.983700X-0.253700X0.983700X0.253700X-0.983700X0.253700X0*%
%ADD27RoundRect,0.250000X-0.650000X0.325000X-0.650000X-0.325000X0.650000X-0.325000X0.650000X0.325000X0*%
%ADD28RoundRect,0.250000X0.325000X0.650000X-0.325000X0.650000X-0.325000X-0.650000X0.325000X-0.650000X0*%
%ADD29C,1.920000*%
%ADD30C,1.508000*%
%ADD31R,1.800000X1.800000*%
%ADD32C,1.800000*%
%ADD33R,1.200000X2.800000*%
%ADD34RoundRect,0.250000X-1.075000X0.375000X-1.075000X-0.375000X1.075000X-0.375000X1.075000X0.375000X0*%
%ADD35RoundRect,0.250000X0.625000X-0.312500X0.625000X0.312500X-0.625000X0.312500X-0.625000X-0.312500X0*%
%ADD36C,1.300000*%
%ADD37C,1.050000*%
%ADD38R,4.500000X2.300000*%
%ADD39R,0.711200X1.498600*%
%ADD40FreePoly0,180.000000*%
G04 APERTURE END LIST*
D10*
X100000000Y-53500000D02*
X185000000Y-53500000D01*
X185000000Y-53500000D02*
X185000000Y-153500000D01*
X185000000Y-153500000D02*
X100000000Y-153500000D01*
X100000000Y-153500000D02*
X100000000Y-53500000D01*
%TO.C,U1*%
G36*
X161042500Y-118133830D02*
G01*
X161042500Y-120794000D01*
X160574269Y-120794000D01*
X160242500Y-121127330D01*
X160242500Y-122669000D01*
X159262500Y-122669000D01*
X159262500Y-121127330D01*
X158930731Y-120794000D01*
X158462500Y-120794000D01*
X158462500Y-118133830D01*
X158825131Y-117774000D01*
X160679869Y-117774000D01*
X161042500Y-118133830D01*
G37*
D11*
X161042500Y-118133830D02*
X161042500Y-120794000D01*
X160574269Y-120794000D01*
X160242500Y-121127330D01*
X160242500Y-122669000D01*
X159262500Y-122669000D01*
X159262500Y-121127330D01*
X158930731Y-120794000D01*
X158462500Y-120794000D01*
X158462500Y-118133830D01*
X158825131Y-117774000D01*
X160679869Y-117774000D01*
X161042500Y-118133830D01*
%TO.C,U2*%
G36*
X126092200Y-145695200D02*
G01*
X126092200Y-148235200D01*
X125584200Y-148743200D01*
X124441200Y-148743200D01*
X123933200Y-148235200D01*
X123933200Y-145695200D01*
X124441200Y-145187200D01*
X125584200Y-145187200D01*
X126092200Y-145695200D01*
G37*
%TD*%
D12*
%TO.C,A1*%
X103500000Y-127500000D03*
X161500000Y-127500000D03*
X161500000Y-78500000D03*
X103500000Y-78500000D03*
D13*
X156630000Y-77230000D03*
X156630000Y-79770000D03*
X154090000Y-77230000D03*
X154090000Y-79770000D03*
X151550000Y-77230000D03*
X151550000Y-79770000D03*
X149010000Y-77230000D03*
X149010000Y-79770000D03*
X146470000Y-77230000D03*
X146470000Y-79770000D03*
X143930000Y-77230000D03*
X143930000Y-79770000D03*
X141390000Y-77230000D03*
X141390000Y-79770000D03*
X138850000Y-77230000D03*
X138850000Y-79770000D03*
X136310000Y-77230000D03*
X136310000Y-79770000D03*
X133770000Y-77230000D03*
X133770000Y-79770000D03*
X131230000Y-77230000D03*
X131230000Y-79770000D03*
X128690000Y-77230000D03*
X128690000Y-79770000D03*
X126150000Y-77230000D03*
X126150000Y-79770000D03*
X123610000Y-77230000D03*
X123610000Y-79770000D03*
X121070000Y-77230000D03*
X121070000Y-79770000D03*
X118530000Y-77230000D03*
X118530000Y-79770000D03*
X115990000Y-77230000D03*
X115990000Y-79770000D03*
X113450000Y-77230000D03*
X113450000Y-79770000D03*
X110910000Y-77230000D03*
X110910000Y-79770000D03*
X108370000Y-77230000D03*
D14*
X108370000Y-79770000D03*
%TD*%
D15*
%TO.C,L3*%
X154150000Y-121750000D03*
X151350000Y-121750000D03*
%TD*%
D16*
%TO.C,L1*%
X144750000Y-127325000D03*
X144750000Y-125175000D03*
%TD*%
D17*
%TO.C,C5*%
X123250000Y-137775000D03*
X123250000Y-140725000D03*
%TD*%
D18*
%TO.C,R2*%
X174712500Y-114500000D03*
X171787500Y-114500000D03*
%TD*%
D19*
%TO.C,R3*%
X140525000Y-60962500D03*
X140525000Y-58037500D03*
%TD*%
D20*
%TO.C,IC2*%
X160000000Y-147505000D03*
D21*
X161250000Y-149455000D03*
X160750000Y-149455000D03*
X160250000Y-149455000D03*
X159750000Y-149455000D03*
X159250000Y-149455000D03*
X158750000Y-149455000D03*
D22*
X158050000Y-148755000D03*
X158050000Y-148255000D03*
X158050000Y-147755000D03*
X158050000Y-147255000D03*
X158050000Y-146755000D03*
X158050000Y-146255000D03*
D21*
X158750000Y-145555000D03*
X159250000Y-145555000D03*
X159750000Y-145555000D03*
X160250000Y-145555000D03*
X160750000Y-145555000D03*
X161250000Y-145555000D03*
D22*
X161950000Y-146255000D03*
X161950000Y-146755000D03*
X161950000Y-147255000D03*
X161950000Y-147755000D03*
X161950000Y-148255000D03*
X161950000Y-148755000D03*
%TD*%
D23*
%TO.C,C10*%
X170725000Y-129500000D03*
X167775000Y-129500000D03*
%TD*%
D24*
%TO.C,L4*%
X116575000Y-140750000D03*
X119425000Y-140750000D03*
%TD*%
D16*
%TO.C,L5*%
X165750000Y-120075000D03*
X165750000Y-117925000D03*
%TD*%
D17*
%TO.C,C16*%
X154000000Y-147525000D03*
X154000000Y-150475000D03*
%TD*%
D25*
%TO.C,U1*%
X161247500Y-121894000D03*
X158257500Y-121894000D03*
%TD*%
D17*
%TO.C,C18*%
X150000000Y-147525000D03*
X150000000Y-150475000D03*
%TD*%
D23*
%TO.C,C17*%
X132975000Y-115000000D03*
X130025000Y-115000000D03*
%TD*%
D17*
%TO.C,C14*%
X144000000Y-108525000D03*
X144000000Y-111475000D03*
%TD*%
D23*
%TO.C,C15*%
X132975000Y-118500000D03*
X130025000Y-118500000D03*
%TD*%
%TO.C,C19*%
X119225000Y-62000000D03*
X116275000Y-62000000D03*
%TD*%
D26*
%TO.C,U4*%
X132655000Y-60555000D03*
X132655000Y-61825000D03*
X132655000Y-63095000D03*
X132655000Y-64365000D03*
X132655000Y-65635000D03*
X132655000Y-66905000D03*
X132655000Y-68175000D03*
X132655000Y-69445000D03*
X123345000Y-69445000D03*
X123345000Y-68175000D03*
X123345000Y-66905000D03*
X123345000Y-65635000D03*
X123345000Y-64365000D03*
X123345000Y-63095000D03*
X123345000Y-61825000D03*
X123345000Y-60555000D03*
%TD*%
D23*
%TO.C,C4*%
X144225000Y-146500000D03*
X141275000Y-146500000D03*
%TD*%
%TO.C,C1*%
X147725000Y-121750000D03*
X144775000Y-121750000D03*
%TD*%
D27*
%TO.C,C20*%
X136775000Y-67975000D03*
X136775000Y-65025000D03*
%TD*%
D28*
%TO.C,C2*%
X131525000Y-140250000D03*
X134475000Y-140250000D03*
%TD*%
%TO.C,C6*%
X113525000Y-131750000D03*
X116475000Y-131750000D03*
%TD*%
D23*
%TO.C,C8*%
X168725000Y-110500000D03*
X165775000Y-110500000D03*
%TD*%
D29*
%TO.C,J1*%
X174900000Y-145100000D03*
X174900000Y-149900000D03*
X170100000Y-149900000D03*
X170100000Y-145100000D03*
D30*
X172500000Y-147500000D03*
%TD*%
D18*
%TO.C,R1*%
X138212500Y-146500000D03*
X135287500Y-146500000D03*
%TD*%
D31*
%TO.C,D1*%
X175000000Y-66381250D03*
D32*
X175000000Y-68921250D03*
%TD*%
D17*
%TO.C,C13*%
X148000000Y-108525000D03*
X148000000Y-111475000D03*
%TD*%
D33*
%TO.C,U3*%
X149500000Y-105500000D03*
X147500000Y-105500000D03*
X145500000Y-105500000D03*
X143500000Y-105500000D03*
X141500000Y-105500000D03*
X139500000Y-105500000D03*
X137500000Y-105500000D03*
X135500000Y-105500000D03*
X135500000Y-89500000D03*
X137500000Y-89500000D03*
X139500000Y-89500000D03*
X141500000Y-89500000D03*
X143500000Y-89500000D03*
X145500000Y-89500000D03*
X147500000Y-89500000D03*
X149500000Y-89500000D03*
%TD*%
D34*
%TO.C,L6*%
X167750000Y-126150000D03*
X167750000Y-123350000D03*
%TD*%
D27*
%TO.C,C12*%
X167750000Y-139225000D03*
X167750000Y-136275000D03*
%TD*%
D35*
%TO.C,R5*%
X175000000Y-60693750D03*
X175000000Y-63618750D03*
%TD*%
D19*
%TO.C,R4*%
X136775000Y-60962500D03*
X136775000Y-58037500D03*
%TD*%
D36*
%TO.C,BT1*%
X153275000Y-65000000D03*
D37*
X160725000Y-65000000D03*
D38*
X165425000Y-65000000D03*
X149025000Y-65000000D03*
%TD*%
D16*
%TO.C,L2*%
X131425000Y-146575000D03*
X131425000Y-144425000D03*
%TD*%
D27*
%TO.C,C3*%
X151250000Y-127975000D03*
X151250000Y-125025000D03*
%TD*%
D28*
%TO.C,C7*%
X113525000Y-135750000D03*
X116475000Y-135750000D03*
%TD*%
D23*
%TO.C,C9*%
X168725000Y-114500000D03*
X165775000Y-114500000D03*
%TD*%
D20*
%TO.C,IC1*%
X125000000Y-120000000D03*
D21*
X123750000Y-118050000D03*
X124250000Y-118050000D03*
X124750000Y-118050000D03*
X125250000Y-118050000D03*
X125750000Y-118050000D03*
X126250000Y-118050000D03*
D22*
X126950000Y-118750000D03*
X126950000Y-119250000D03*
X126950000Y-119750000D03*
X126950000Y-120250000D03*
X126950000Y-120750000D03*
X126950000Y-121250000D03*
D21*
X126250000Y-121950000D03*
X125750000Y-121950000D03*
X125250000Y-121950000D03*
X124750000Y-121950000D03*
X124250000Y-121950000D03*
X123750000Y-121950000D03*
D22*
X123050000Y-121250000D03*
X123050000Y-120750000D03*
X123050000Y-120250000D03*
X123050000Y-119750000D03*
X123050000Y-119250000D03*
X123050000Y-118750000D03*
%TD*%
D23*
%TO.C,C11*%
X170725000Y-133250000D03*
X167775000Y-133250000D03*
%TD*%
D39*
%TO.C,U2*%
X123501400Y-144095000D03*
D40*
X125000000Y-146000000D03*
D39*
X126498600Y-144095000D03*
%TD*%
M02*
