%TF.GenerationSoftware,KiCad,Pcbnew,(6.0.7)*%
%TF.CreationDate,2022-10-30T05:00:52-05:00*%
%TF.ProjectId,GroundPCB,47726f75-6e64-4504-9342-2e6b69636164,1*%
%TF.SameCoordinates,Original*%
%TF.FileFunction,Copper,L2,Inr*%
%TF.FilePolarity,Positive*%
%FSLAX46Y46*%
G04 Gerber Fmt 4.6, Leading zero omitted, Abs format (unit mm)*
G04 Created by KiCad (PCBNEW (6.0.7)) date 2022-10-30 05:00:52*
%MOMM*%
%LPD*%
G01*
G04 APERTURE LIST*
%TA.AperFunction,Profile*%
%ADD10C,0.100000*%
%TD*%
%TA.AperFunction,ComponentPad*%
%ADD11C,6.200000*%
%TD*%
%TA.AperFunction,ComponentPad*%
%ADD12C,1.524000*%
%TD*%
%TA.AperFunction,ComponentPad*%
%ADD13R,1.524000X1.524000*%
%TD*%
%TA.AperFunction,ComponentPad*%
%ADD14C,1.920000*%
%TD*%
%TA.AperFunction,ComponentPad*%
%ADD15C,1.508000*%
%TD*%
%TA.AperFunction,ComponentPad*%
%ADD16R,1.800000X1.800000*%
%TD*%
%TA.AperFunction,ComponentPad*%
%ADD17C,1.800000*%
%TD*%
%TA.AperFunction,ViaPad*%
%ADD18C,0.800000*%
%TD*%
G04 APERTURE END LIST*
D10*
X100000000Y-53500000D02*
X185000000Y-53500000D01*
X185000000Y-53500000D02*
X185000000Y-153500000D01*
X185000000Y-153500000D02*
X100000000Y-153500000D01*
X100000000Y-153500000D02*
X100000000Y-53500000D01*
D11*
%TO.N,N/C*%
%TO.C,A1*%
X103500000Y-127500000D03*
X161500000Y-127500000D03*
X161500000Y-78500000D03*
X103500000Y-78500000D03*
D12*
%TO.N,unconnected-(A1-Pad40)*%
X156630000Y-77230000D03*
%TO.N,GND*%
X156630000Y-79770000D03*
%TO.N,unconnected-(A1-Pad38)*%
X154090000Y-77230000D03*
%TO.N,CTRL2B*%
X154090000Y-79770000D03*
%TO.N,unconnected-(A1-Pad36)*%
X151550000Y-77230000D03*
%TO.N,CTRL2A*%
X151550000Y-79770000D03*
%TO.N,GND*%
X149010000Y-77230000D03*
%TO.N,CTRL1B*%
X149010000Y-79770000D03*
%TO.N,unconnected-(A1-Pad32)*%
X146470000Y-77230000D03*
%TO.N,CTRL1A*%
X146470000Y-79770000D03*
%TO.N,GND*%
X143930000Y-77230000D03*
%TO.N,unconnected-(A1-Pad29)*%
X143930000Y-79770000D03*
%TO.N,unconnected-(A1-Pad28)*%
X141390000Y-77230000D03*
%TO.N,unconnected-(A1-Pad27)*%
X141390000Y-79770000D03*
%TO.N,unconnected-(A1-Pad26)*%
X138850000Y-77230000D03*
%TO.N,GND*%
X138850000Y-79770000D03*
%TO.N,CS*%
X136310000Y-77230000D03*
%TO.N,SCLK*%
X136310000Y-79770000D03*
%TO.N,unconnected-(A1-Pad22)*%
X133770000Y-77230000D03*
%TO.N,MISO*%
X133770000Y-79770000D03*
%TO.N,GND*%
X131230000Y-77230000D03*
%TO.N,MOSI*%
X131230000Y-79770000D03*
%TO.N,DIO0*%
X128690000Y-77230000D03*
%TO.N,+3.3V*%
X128690000Y-79770000D03*
%TO.N,RST-TRX*%
X126150000Y-77230000D03*
%TO.N,unconnected-(A1-Pad15)*%
X126150000Y-79770000D03*
%TO.N,GND*%
X123610000Y-77230000D03*
%TO.N,unconnected-(A1-Pad13)*%
X123610000Y-79770000D03*
%TO.N,unconnected-(A1-Pad12)*%
X121070000Y-77230000D03*
%TO.N,RST-RTC*%
X121070000Y-79770000D03*
%TO.N,unconnected-(A1-Pad10)*%
X118530000Y-77230000D03*
%TO.N,GND*%
X118530000Y-79770000D03*
%TO.N,unconnected-(A1-Pad8)*%
X115990000Y-77230000D03*
%TO.N,unconnected-(A1-Pad7)*%
X115990000Y-79770000D03*
%TO.N,GND*%
X113450000Y-77230000D03*
%TO.N,SCL*%
X113450000Y-79770000D03*
%TO.N,+5V*%
X110910000Y-77230000D03*
%TO.N,SDA*%
X110910000Y-79770000D03*
%TO.N,+5V*%
X108370000Y-77230000D03*
D13*
%TO.N,unconnected-(A1-Pad1)*%
X108370000Y-79770000D03*
%TD*%
D14*
%TO.N,GND*%
%TO.C,J1*%
X174900000Y-145100000D03*
X174900000Y-149900000D03*
X170100000Y-149900000D03*
X170100000Y-145100000D03*
D15*
%TO.N,Net-(IC2-Pad22)*%
X172500000Y-147500000D03*
%TD*%
D16*
%TO.N,Net-(D1-Pad1)*%
%TO.C,D1*%
X175000000Y-66381250D03*
D17*
%TO.N,+5V*%
X175000000Y-68921250D03*
%TD*%
D18*
%TO.N,+5V*%
X118000000Y-131750000D03*
%TO.N,CTRL1A*%
X128250000Y-118500000D03*
%TO.N,CTRL1B*%
X158250000Y-82750000D03*
X156750000Y-148750000D03*
%TO.N,GND*%
X128000000Y-128500000D03*
X161750000Y-150250000D03*
X144750000Y-141000000D03*
X125500000Y-112000000D03*
X124000000Y-114000000D03*
X170250000Y-115250000D03*
X155000000Y-146250000D03*
X158500000Y-142000000D03*
X126500000Y-125000000D03*
X155250000Y-134750000D03*
X124000000Y-136000000D03*
X134250000Y-120500000D03*
X161750000Y-151750000D03*
X130250000Y-133250000D03*
X131250000Y-122000000D03*
X143750000Y-139500000D03*
X122500000Y-135000000D03*
X122000000Y-120500000D03*
X159250000Y-119500000D03*
X148750000Y-134500000D03*
X124000000Y-117000000D03*
X139250000Y-120500000D03*
X124000000Y-116000000D03*
X136750000Y-133000000D03*
X152750000Y-133000000D03*
X137250000Y-120500000D03*
X158500000Y-141000000D03*
X155750000Y-122500000D03*
X149900000Y-122500000D03*
X134750000Y-134500000D03*
X166750000Y-116500000D03*
X147750000Y-134500000D03*
X124000000Y-133000000D03*
X140750000Y-139500000D03*
X159250000Y-118500000D03*
X122500000Y-127000000D03*
X133250000Y-106250000D03*
X154250000Y-145500000D03*
X124250000Y-108000000D03*
X163750000Y-121000000D03*
X148750000Y-141000000D03*
X156750000Y-122500000D03*
X159500000Y-150500000D03*
X132250000Y-106250000D03*
X125000000Y-120000000D03*
X126500000Y-124000000D03*
X147750000Y-133000000D03*
X129250000Y-122000000D03*
X160000000Y-143000000D03*
X139750000Y-139500000D03*
X156750000Y-145500000D03*
X129250000Y-106250000D03*
X126500000Y-105750000D03*
X125000000Y-123000000D03*
X141750000Y-141000000D03*
X138750000Y-134500000D03*
X125500000Y-117000000D03*
X130250000Y-106250000D03*
X125750000Y-109000000D03*
X168750000Y-131500000D03*
X160750000Y-148250000D03*
X163750000Y-150000000D03*
X154250000Y-136250000D03*
X129250000Y-120500000D03*
X149900000Y-121000000D03*
X156000000Y-144750000D03*
X125000000Y-107250000D03*
X125500000Y-147000000D03*
X152000000Y-143250000D03*
X162750000Y-121000000D03*
X130250000Y-120500000D03*
X141250000Y-120500000D03*
X148750000Y-133000000D03*
X127250000Y-127750000D03*
X125750000Y-119250000D03*
X164750000Y-141500000D03*
X162000000Y-145500000D03*
X127250000Y-105000000D03*
X122500000Y-133000000D03*
X149750000Y-141000000D03*
X124500000Y-148000000D03*
X144750000Y-134500000D03*
X151750000Y-133000000D03*
X125000000Y-124000000D03*
X152250000Y-123750000D03*
X124000000Y-124000000D03*
X150750000Y-134500000D03*
X124000000Y-129000000D03*
X124000000Y-131000000D03*
X149100000Y-121000000D03*
X155000000Y-137000000D03*
X124000000Y-113000000D03*
X142750000Y-141000000D03*
X136250000Y-120500000D03*
X141750000Y-133000000D03*
X162500000Y-141250000D03*
X142250000Y-120500000D03*
X122500000Y-136000000D03*
X136750000Y-139500000D03*
X158500000Y-144000000D03*
X137750000Y-134500000D03*
X125750000Y-106500000D03*
X128000000Y-131000000D03*
X162750000Y-151750000D03*
X142750000Y-133000000D03*
X145500000Y-123500000D03*
X146750000Y-139500000D03*
X124000000Y-110000000D03*
X157250000Y-139250000D03*
X136750000Y-134500000D03*
X131250000Y-104750000D03*
X131250000Y-106250000D03*
X127250000Y-130250000D03*
X165500000Y-150750000D03*
X137750000Y-141000000D03*
X135250000Y-120500000D03*
X154500000Y-143250000D03*
X166000000Y-147750000D03*
X132250000Y-122000000D03*
X133250000Y-104750000D03*
X156750000Y-121000000D03*
X165500000Y-140750000D03*
X165000000Y-112750000D03*
X160000000Y-142000000D03*
X124000000Y-128000000D03*
X126500000Y-108250000D03*
X142750000Y-139500000D03*
X147750000Y-139500000D03*
X160000000Y-140100000D03*
X123000000Y-122000000D03*
X152750000Y-144000000D03*
X166250000Y-150000000D03*
X167000000Y-135000000D03*
X161750000Y-144500000D03*
X158000000Y-140000000D03*
X125000000Y-128000000D03*
X161000000Y-142750000D03*
X153750000Y-133250000D03*
X153500000Y-135500000D03*
X140750000Y-133000000D03*
X141750000Y-139500000D03*
X165250000Y-121750000D03*
X139250000Y-122000000D03*
X164000000Y-139750000D03*
X127000000Y-122000000D03*
X138750000Y-139500000D03*
X144000000Y-123500000D03*
X143250000Y-122000000D03*
X135250000Y-122000000D03*
X122500000Y-134000000D03*
X145750000Y-133000000D03*
X125000000Y-146000000D03*
X137250000Y-122000000D03*
X130250000Y-104750000D03*
X150750000Y-139500000D03*
X166750000Y-112750000D03*
X125500000Y-113000000D03*
X160000000Y-147500000D03*
X138250000Y-122000000D03*
X147750000Y-141000000D03*
X134250000Y-104750000D03*
X125000000Y-127000000D03*
X125750000Y-120750000D03*
X156750000Y-136250000D03*
X127250000Y-107500000D03*
X161750000Y-142000000D03*
X168750000Y-127750000D03*
X149750000Y-139500000D03*
X153000000Y-141750000D03*
X140250000Y-122000000D03*
X126500000Y-127000000D03*
X135750000Y-133000000D03*
X125500000Y-116000000D03*
X151500000Y-140250000D03*
X132500000Y-133000000D03*
X124000000Y-112000000D03*
X134750000Y-133000000D03*
X125750000Y-128750000D03*
X164750000Y-151500000D03*
X124000000Y-109000000D03*
X125500000Y-148000000D03*
X131750000Y-132250000D03*
X134250000Y-106250000D03*
X145750000Y-134500000D03*
X142250000Y-122000000D03*
X168750000Y-135000000D03*
X160250000Y-118500000D03*
X163000000Y-147000000D03*
X155750000Y-121000000D03*
X167750000Y-148500000D03*
X126500000Y-126000000D03*
X159750000Y-139250000D03*
X163250000Y-140500000D03*
X163750000Y-151750000D03*
X132825000Y-134500000D03*
X125500000Y-115000000D03*
X143750000Y-141000000D03*
X128250000Y-122000000D03*
X168750000Y-146750000D03*
X167000000Y-149250000D03*
X122500000Y-128000000D03*
X170250000Y-113750000D03*
X159250000Y-148250000D03*
X162750000Y-150250000D03*
X122500000Y-130000000D03*
X128100000Y-106600000D03*
X153500000Y-144750000D03*
X158000000Y-145500000D03*
X124000000Y-115000000D03*
X140750000Y-134500000D03*
X146750000Y-134500000D03*
X134250000Y-122000000D03*
X129250000Y-104750000D03*
X159750000Y-120500000D03*
X156500000Y-138500000D03*
X131900000Y-134500000D03*
X130250000Y-122000000D03*
X128750000Y-129250000D03*
X131250000Y-120500000D03*
X133750000Y-133000000D03*
X165250000Y-148500000D03*
X133250000Y-120500000D03*
X151250000Y-142500000D03*
X142750000Y-134500000D03*
X160000000Y-151250000D03*
X122500000Y-124000000D03*
X124000000Y-135000000D03*
X146750000Y-133000000D03*
X122000000Y-119500000D03*
X126500000Y-129500000D03*
X137750000Y-133000000D03*
X163000000Y-148000000D03*
X122500000Y-126000000D03*
X164000000Y-142250000D03*
X136250000Y-122000000D03*
X158500000Y-143000000D03*
X167750000Y-146750000D03*
X148750000Y-139500000D03*
X126500000Y-123000000D03*
X156000000Y-135500000D03*
X124000000Y-125000000D03*
X160000000Y-144000000D03*
X122500000Y-129000000D03*
X124000000Y-126000000D03*
X141750000Y-134500000D03*
X130250000Y-130750000D03*
X149750000Y-134500000D03*
X125500000Y-114000000D03*
X160750000Y-151750000D03*
X129500000Y-132500000D03*
X159000000Y-138500000D03*
X166750000Y-147000000D03*
X133750000Y-134500000D03*
X122500000Y-131000000D03*
X167000000Y-131500000D03*
X151750000Y-134500000D03*
X138750000Y-141000000D03*
X124000000Y-130000000D03*
X140250000Y-120500000D03*
X152750000Y-134750000D03*
X165000000Y-116500000D03*
X131000000Y-131500000D03*
X145750000Y-141000000D03*
X135750000Y-134500000D03*
X139750000Y-134500000D03*
X122500000Y-123000000D03*
X158250000Y-137750000D03*
X128750000Y-131750000D03*
X163750000Y-122500000D03*
X138750000Y-133000000D03*
X137750000Y-139500000D03*
X143250000Y-120500000D03*
X125500000Y-110000000D03*
X143750000Y-134500000D03*
X124250000Y-120750000D03*
X125000000Y-125000000D03*
X150500000Y-123750000D03*
X125000000Y-144750000D03*
X128250000Y-104750000D03*
X139750000Y-141000000D03*
X157500000Y-137000000D03*
X135750000Y-141000000D03*
X160250000Y-119500000D03*
X160000000Y-141000000D03*
X154500000Y-134000000D03*
X133250000Y-122000000D03*
X168750000Y-148250000D03*
X153750000Y-142500000D03*
X132250000Y-120500000D03*
X160750000Y-146750000D03*
X124250000Y-119250000D03*
X124000000Y-127000000D03*
X149750000Y-133000000D03*
X143750000Y-133000000D03*
X155250000Y-144000000D03*
X136750000Y-141000000D03*
X124000000Y-111000000D03*
X150750000Y-133000000D03*
X164500000Y-149250000D03*
X155750000Y-147000000D03*
X125500000Y-111000000D03*
X140750000Y-141000000D03*
X162500000Y-143750000D03*
X124000000Y-134000000D03*
X141250000Y-122000000D03*
X139750000Y-133000000D03*
X125000000Y-126000000D03*
X144750000Y-139500000D03*
X152250000Y-141000000D03*
X150500000Y-141750000D03*
X159750000Y-121750000D03*
X146750000Y-141000000D03*
X167000000Y-127750000D03*
X155750000Y-137750000D03*
X144750000Y-133000000D03*
X132250000Y-104750000D03*
X129500000Y-130000000D03*
X162750000Y-122500000D03*
X138250000Y-120500000D03*
X145750000Y-139500000D03*
X135750000Y-139500000D03*
X149100000Y-122500000D03*
X163250000Y-143000000D03*
X122500000Y-132000000D03*
X131000000Y-134000000D03*
X124500000Y-147000000D03*
X124000000Y-132000000D03*
X122500000Y-125000000D03*
X159250000Y-146750000D03*
%TO.N,CTRL2A*%
X130250000Y-109750000D03*
X132750000Y-109750000D03*
X127000000Y-116000000D03*
%TO.N,CTRL2B*%
X157500000Y-150500000D03*
%TO.N,+3.3V*%
X152250000Y-102750000D03*
%TO.N,+5V*%
X142525000Y-58000000D03*
X130000000Y-113000000D03*
X119250000Y-64000000D03*
X175000000Y-71000000D03*
X164000000Y-110500000D03*
X148000000Y-150500000D03*
%TO.N,SDA*%
X142500000Y-61000000D03*
%TO.N,SCL*%
X138500000Y-61000000D03*
X114750000Y-71750000D03*
%TO.N,SCLK*%
X136500000Y-83500000D03*
%TO.N,CS*%
X137500000Y-84500000D03*
%TO.N,DIO0*%
X130000000Y-87500000D03*
%TD*%
%TA.AperFunction,Conductor*%
%TO.N,GND*%
G36*
X184441621Y-54020502D02*
G01*
X184488114Y-54074158D01*
X184499500Y-54126500D01*
X184499500Y-152873500D01*
X184479498Y-152941621D01*
X184425842Y-152988114D01*
X184373500Y-152999500D01*
X100626500Y-152999500D01*
X100558379Y-152979498D01*
X100511886Y-152925842D01*
X100500500Y-152873500D01*
X100500500Y-150500000D01*
X147094540Y-150500000D01*
X147095230Y-150506565D01*
X147111658Y-150662867D01*
X147114326Y-150688256D01*
X147172821Y-150868284D01*
X147267467Y-151032216D01*
X147271885Y-151037123D01*
X147271886Y-151037124D01*
X147321906Y-151092676D01*
X147394129Y-151172888D01*
X147547270Y-151284151D01*
X147720197Y-151361144D01*
X147818212Y-151381978D01*
X147898897Y-151399128D01*
X147898901Y-151399128D01*
X147905354Y-151400500D01*
X148094646Y-151400500D01*
X148101099Y-151399128D01*
X148101103Y-151399128D01*
X148181788Y-151381978D01*
X148279803Y-151361144D01*
X148452730Y-151284151D01*
X148605871Y-151172888D01*
X148678095Y-151092676D01*
X148728114Y-151037124D01*
X148728115Y-151037123D01*
X148732533Y-151032216D01*
X148827179Y-150868284D01*
X148885674Y-150688256D01*
X148888343Y-150662867D01*
X148904770Y-150506565D01*
X148905460Y-150500000D01*
X148885674Y-150311744D01*
X148827179Y-150131716D01*
X148732533Y-149967784D01*
X148636213Y-149860810D01*
X148610286Y-149832015D01*
X148610284Y-149832014D01*
X148605871Y-149827112D01*
X148560891Y-149794432D01*
X148458072Y-149719730D01*
X148458071Y-149719729D01*
X148452730Y-149715849D01*
X148279803Y-149638856D01*
X148155887Y-149612517D01*
X148101103Y-149600872D01*
X148101099Y-149600872D01*
X148094646Y-149599500D01*
X147905354Y-149599500D01*
X147898901Y-149600872D01*
X147898897Y-149600872D01*
X147844113Y-149612517D01*
X147720197Y-149638856D01*
X147547270Y-149715849D01*
X147541929Y-149719729D01*
X147541928Y-149719730D01*
X147439109Y-149794432D01*
X147394129Y-149827112D01*
X147389716Y-149832014D01*
X147389714Y-149832015D01*
X147363787Y-149860810D01*
X147267467Y-149967784D01*
X147172821Y-150131716D01*
X147114326Y-150311744D01*
X147094540Y-150500000D01*
X100500500Y-150500000D01*
X100500500Y-148750000D01*
X155844540Y-148750000D01*
X155864326Y-148938256D01*
X155922821Y-149118284D01*
X155926124Y-149124006D01*
X155926125Y-149124007D01*
X156007232Y-149264488D01*
X156017467Y-149282216D01*
X156144129Y-149422888D01*
X156149468Y-149426767D01*
X156288774Y-149527978D01*
X156297270Y-149534151D01*
X156470197Y-149611144D01*
X156554759Y-149629118D01*
X156648897Y-149649128D01*
X156648901Y-149649128D01*
X156655354Y-149650500D01*
X156770150Y-149650500D01*
X156838271Y-149670502D01*
X156884764Y-149724158D01*
X156894868Y-149794432D01*
X156863786Y-149860810D01*
X156771890Y-149962871D01*
X156771887Y-149962875D01*
X156767467Y-149967784D01*
X156672821Y-150131716D01*
X156614326Y-150311744D01*
X156594540Y-150500000D01*
X156595230Y-150506565D01*
X156611658Y-150662867D01*
X156614326Y-150688256D01*
X156672821Y-150868284D01*
X156767467Y-151032216D01*
X156771885Y-151037123D01*
X156771886Y-151037124D01*
X156821906Y-151092676D01*
X156894129Y-151172888D01*
X157047270Y-151284151D01*
X157220197Y-151361144D01*
X157318212Y-151381978D01*
X157398897Y-151399128D01*
X157398901Y-151399128D01*
X157405354Y-151400500D01*
X157594646Y-151400500D01*
X157601099Y-151399128D01*
X157601103Y-151399128D01*
X157681788Y-151381978D01*
X157779803Y-151361144D01*
X157952730Y-151284151D01*
X158105871Y-151172888D01*
X158166122Y-151105973D01*
X169259273Y-151105973D01*
X169263032Y-151111269D01*
X169459066Y-151225822D01*
X169468349Y-151230269D01*
X169684206Y-151312697D01*
X169694108Y-151315574D01*
X169920511Y-151361636D01*
X169930764Y-151362859D01*
X170161657Y-151371326D01*
X170171943Y-151370859D01*
X170401132Y-151341499D01*
X170411210Y-151339357D01*
X170632522Y-151272960D01*
X170642120Y-151269199D01*
X170849617Y-151167547D01*
X170858462Y-151162274D01*
X170928115Y-151112591D01*
X170933311Y-151105973D01*
X174059273Y-151105973D01*
X174063032Y-151111269D01*
X174259066Y-151225822D01*
X174268349Y-151230269D01*
X174484206Y-151312697D01*
X174494108Y-151315574D01*
X174720511Y-151361636D01*
X174730764Y-151362859D01*
X174961657Y-151371326D01*
X174971943Y-151370859D01*
X175201132Y-151341499D01*
X175211210Y-151339357D01*
X175432522Y-151272960D01*
X175442120Y-151269199D01*
X175649617Y-151167547D01*
X175658462Y-151162274D01*
X175728115Y-151112591D01*
X175736516Y-151101891D01*
X175729528Y-151088738D01*
X174912812Y-150272022D01*
X174898868Y-150264408D01*
X174897035Y-150264539D01*
X174890420Y-150268790D01*
X174066534Y-151092676D01*
X174059273Y-151105973D01*
X170933311Y-151105973D01*
X170936516Y-151101891D01*
X170929528Y-151088738D01*
X170112812Y-150272022D01*
X170098868Y-150264408D01*
X170097035Y-150264539D01*
X170090420Y-150268790D01*
X169266534Y-151092676D01*
X169259273Y-151105973D01*
X158166122Y-151105973D01*
X158178095Y-151092676D01*
X158228114Y-151037124D01*
X158228115Y-151037123D01*
X158232533Y-151032216D01*
X158327179Y-150868284D01*
X158385674Y-150688256D01*
X158388343Y-150662867D01*
X158404770Y-150506565D01*
X158405460Y-150500000D01*
X158385674Y-150311744D01*
X158327179Y-150131716D01*
X158232533Y-149967784D01*
X158143738Y-149869167D01*
X168627706Y-149869167D01*
X168641006Y-150099838D01*
X168642442Y-150110058D01*
X168693238Y-150335454D01*
X168696317Y-150345282D01*
X168783249Y-150559370D01*
X168787892Y-150568561D01*
X168886464Y-150729416D01*
X168896921Y-150738876D01*
X168905697Y-150735093D01*
X169727978Y-149912812D01*
X169734356Y-149901132D01*
X170464408Y-149901132D01*
X170464539Y-149902965D01*
X170468790Y-149909580D01*
X171289296Y-150730086D01*
X171301306Y-150736645D01*
X171313046Y-150727677D01*
X171359616Y-150662867D01*
X171364927Y-150654028D01*
X171467296Y-150446901D01*
X171471094Y-150437308D01*
X171538262Y-150216232D01*
X171540439Y-150206162D01*
X171570835Y-149975279D01*
X171571354Y-149968604D01*
X171572949Y-149903364D01*
X171572755Y-149896647D01*
X171570496Y-149869167D01*
X173427706Y-149869167D01*
X173441006Y-150099838D01*
X173442442Y-150110058D01*
X173493238Y-150335454D01*
X173496317Y-150345282D01*
X173583249Y-150559370D01*
X173587892Y-150568561D01*
X173686464Y-150729416D01*
X173696921Y-150738876D01*
X173705697Y-150735093D01*
X174527978Y-149912812D01*
X174534356Y-149901132D01*
X175264408Y-149901132D01*
X175264539Y-149902965D01*
X175268790Y-149909580D01*
X176089296Y-150730086D01*
X176101306Y-150736645D01*
X176113046Y-150727677D01*
X176159616Y-150662867D01*
X176164927Y-150654028D01*
X176267296Y-150446901D01*
X176271094Y-150437308D01*
X176338262Y-150216232D01*
X176340439Y-150206162D01*
X176370835Y-149975279D01*
X176371354Y-149968604D01*
X176372949Y-149903364D01*
X176372755Y-149896647D01*
X176353675Y-149664567D01*
X176351992Y-149654405D01*
X176295703Y-149430306D01*
X176292382Y-149420551D01*
X176200252Y-149208667D01*
X176195374Y-149199570D01*
X176112616Y-149071645D01*
X176101930Y-149062442D01*
X176092365Y-149066845D01*
X175272022Y-149887188D01*
X175264408Y-149901132D01*
X174534356Y-149901132D01*
X174535592Y-149898868D01*
X174535461Y-149897035D01*
X174531210Y-149890420D01*
X173710687Y-149069897D01*
X173699151Y-149063597D01*
X173686868Y-149073221D01*
X173622126Y-149168129D01*
X173617028Y-149177103D01*
X173519750Y-149386670D01*
X173516187Y-149396357D01*
X173454442Y-149618999D01*
X173452511Y-149629118D01*
X173427958Y-149858878D01*
X173427706Y-149869167D01*
X171570496Y-149869167D01*
X171553675Y-149664567D01*
X171551992Y-149654405D01*
X171495703Y-149430306D01*
X171492382Y-149420551D01*
X171400252Y-149208667D01*
X171395374Y-149199570D01*
X171312616Y-149071645D01*
X171301930Y-149062442D01*
X171292365Y-149066845D01*
X170472022Y-149887188D01*
X170464408Y-149901132D01*
X169734356Y-149901132D01*
X169735592Y-149898868D01*
X169735461Y-149897035D01*
X169731210Y-149890420D01*
X168910687Y-149069897D01*
X168899151Y-149063597D01*
X168886868Y-149073221D01*
X168822126Y-149168129D01*
X168817028Y-149177103D01*
X168719750Y-149386670D01*
X168716187Y-149396357D01*
X168654442Y-149618999D01*
X168652511Y-149629118D01*
X168627958Y-149858878D01*
X168627706Y-149869167D01*
X158143738Y-149869167D01*
X158136213Y-149860810D01*
X158110286Y-149832015D01*
X158110284Y-149832014D01*
X158105871Y-149827112D01*
X158060891Y-149794432D01*
X157958072Y-149719730D01*
X157958071Y-149719729D01*
X157952730Y-149715849D01*
X157779803Y-149638856D01*
X157655887Y-149612517D01*
X157601103Y-149600872D01*
X157601099Y-149600872D01*
X157594646Y-149599500D01*
X157479850Y-149599500D01*
X157411729Y-149579498D01*
X157365236Y-149525842D01*
X157355132Y-149455568D01*
X157386214Y-149389190D01*
X157478110Y-149287129D01*
X157478114Y-149287124D01*
X157482533Y-149282216D01*
X157492768Y-149264488D01*
X157573875Y-149124007D01*
X157573876Y-149124006D01*
X157577179Y-149118284D01*
X157635674Y-148938256D01*
X157655460Y-148750000D01*
X157649980Y-148697857D01*
X169262652Y-148697857D01*
X169269397Y-148710187D01*
X170087188Y-149527978D01*
X170101132Y-149535592D01*
X170102965Y-149535461D01*
X170109580Y-149531210D01*
X170931710Y-148709080D01*
X170938731Y-148696223D01*
X170930959Y-148685556D01*
X170919218Y-148676283D01*
X170910637Y-148670583D01*
X170708355Y-148558918D01*
X170698956Y-148554693D01*
X170481155Y-148477565D01*
X170471184Y-148474931D01*
X170243713Y-148434412D01*
X170233461Y-148433443D01*
X170002417Y-148430620D01*
X169992133Y-148431340D01*
X169763741Y-148466289D01*
X169753713Y-148468678D01*
X169534096Y-148540460D01*
X169524586Y-148544457D01*
X169319646Y-148651142D01*
X169310921Y-148656636D01*
X169271106Y-148686530D01*
X169262652Y-148697857D01*
X157649980Y-148697857D01*
X157635674Y-148561744D01*
X157577179Y-148381716D01*
X157482533Y-148217784D01*
X157355871Y-148077112D01*
X157202730Y-147965849D01*
X157029803Y-147888856D01*
X156931788Y-147868022D01*
X156851103Y-147850872D01*
X156851099Y-147850872D01*
X156844646Y-147849500D01*
X156655354Y-147849500D01*
X156648901Y-147850872D01*
X156648897Y-147850872D01*
X156568212Y-147868022D01*
X156470197Y-147888856D01*
X156297270Y-147965849D01*
X156144129Y-148077112D01*
X156017467Y-148217784D01*
X155922821Y-148381716D01*
X155864326Y-148561744D01*
X155844540Y-148750000D01*
X100500500Y-148750000D01*
X100500500Y-147500000D01*
X171240708Y-147500000D01*
X171259839Y-147718674D01*
X171316653Y-147930703D01*
X171360104Y-148023884D01*
X171407095Y-148124659D01*
X171407098Y-148124664D01*
X171409421Y-148129646D01*
X171412577Y-148134153D01*
X171412578Y-148134155D01*
X171475142Y-148223505D01*
X171535326Y-148309457D01*
X171690543Y-148464674D01*
X171695051Y-148467831D01*
X171695054Y-148467833D01*
X171804485Y-148544457D01*
X171870354Y-148590579D01*
X171875336Y-148592902D01*
X171875341Y-148592905D01*
X171976116Y-148639896D01*
X172069297Y-148683347D01*
X172281326Y-148740161D01*
X172500000Y-148759292D01*
X172718674Y-148740161D01*
X172876552Y-148697857D01*
X174062652Y-148697857D01*
X174069397Y-148710187D01*
X174887188Y-149527978D01*
X174901132Y-149535592D01*
X174902965Y-149535461D01*
X174909580Y-149531210D01*
X175731710Y-148709080D01*
X175738731Y-148696223D01*
X175730959Y-148685556D01*
X175719218Y-148676283D01*
X175710637Y-148670583D01*
X175508355Y-148558918D01*
X175498956Y-148554693D01*
X175281155Y-148477565D01*
X175271184Y-148474931D01*
X175043713Y-148434412D01*
X175033461Y-148433443D01*
X174802417Y-148430620D01*
X174792133Y-148431340D01*
X174563741Y-148466289D01*
X174553713Y-148468678D01*
X174334096Y-148540460D01*
X174324586Y-148544457D01*
X174119646Y-148651142D01*
X174110921Y-148656636D01*
X174071106Y-148686530D01*
X174062652Y-148697857D01*
X172876552Y-148697857D01*
X172930703Y-148683347D01*
X173023884Y-148639896D01*
X173124659Y-148592905D01*
X173124664Y-148592902D01*
X173129646Y-148590579D01*
X173195515Y-148544457D01*
X173304946Y-148467833D01*
X173304949Y-148467831D01*
X173309457Y-148464674D01*
X173464674Y-148309457D01*
X173524859Y-148223505D01*
X173587422Y-148134155D01*
X173587423Y-148134153D01*
X173590579Y-148129646D01*
X173592902Y-148124664D01*
X173592905Y-148124659D01*
X173639896Y-148023884D01*
X173683347Y-147930703D01*
X173740161Y-147718674D01*
X173759292Y-147500000D01*
X173740161Y-147281326D01*
X173683347Y-147069297D01*
X173639896Y-146976116D01*
X173592905Y-146875341D01*
X173592902Y-146875336D01*
X173590579Y-146870354D01*
X173464674Y-146690543D01*
X173309457Y-146535326D01*
X173304949Y-146532169D01*
X173304946Y-146532167D01*
X173134155Y-146412578D01*
X173134153Y-146412577D01*
X173129646Y-146409421D01*
X173124664Y-146407098D01*
X173124659Y-146407095D01*
X173023884Y-146360104D01*
X172930703Y-146316653D01*
X172890845Y-146305973D01*
X174059273Y-146305973D01*
X174063032Y-146311269D01*
X174259066Y-146425822D01*
X174268349Y-146430269D01*
X174484206Y-146512697D01*
X174494108Y-146515574D01*
X174720511Y-146561636D01*
X174730764Y-146562859D01*
X174961657Y-146571326D01*
X174971943Y-146570859D01*
X175201132Y-146541499D01*
X175211210Y-146539357D01*
X175432522Y-146472960D01*
X175442120Y-146469199D01*
X175649617Y-146367547D01*
X175658462Y-146362274D01*
X175728115Y-146312591D01*
X175736516Y-146301891D01*
X175729528Y-146288738D01*
X174912812Y-145472022D01*
X174898868Y-145464408D01*
X174897035Y-145464539D01*
X174890420Y-145468790D01*
X174066534Y-146292676D01*
X174059273Y-146305973D01*
X172890845Y-146305973D01*
X172718674Y-146259839D01*
X172500000Y-146240708D01*
X172281326Y-146259839D01*
X172069297Y-146316653D01*
X171976116Y-146360104D01*
X171875341Y-146407095D01*
X171875336Y-146407098D01*
X171870354Y-146409421D01*
X171865847Y-146412577D01*
X171865845Y-146412578D01*
X171695054Y-146532167D01*
X171695051Y-146532169D01*
X171690543Y-146535326D01*
X171535326Y-146690543D01*
X171409421Y-146870354D01*
X171407098Y-146875336D01*
X171407095Y-146875341D01*
X171360104Y-146976116D01*
X171316653Y-147069297D01*
X171259839Y-147281326D01*
X171240708Y-147500000D01*
X100500500Y-147500000D01*
X100500500Y-146305973D01*
X169259273Y-146305973D01*
X169263032Y-146311269D01*
X169459066Y-146425822D01*
X169468349Y-146430269D01*
X169684206Y-146512697D01*
X169694108Y-146515574D01*
X169920511Y-146561636D01*
X169930764Y-146562859D01*
X170161657Y-146571326D01*
X170171943Y-146570859D01*
X170401132Y-146541499D01*
X170411210Y-146539357D01*
X170632522Y-146472960D01*
X170642120Y-146469199D01*
X170849617Y-146367547D01*
X170858462Y-146362274D01*
X170928115Y-146312591D01*
X170936516Y-146301891D01*
X170929528Y-146288738D01*
X170112812Y-145472022D01*
X170098868Y-145464408D01*
X170097035Y-145464539D01*
X170090420Y-145468790D01*
X169266534Y-146292676D01*
X169259273Y-146305973D01*
X100500500Y-146305973D01*
X100500500Y-145069167D01*
X168627706Y-145069167D01*
X168641006Y-145299838D01*
X168642442Y-145310058D01*
X168693238Y-145535454D01*
X168696317Y-145545282D01*
X168783249Y-145759370D01*
X168787892Y-145768561D01*
X168886464Y-145929416D01*
X168896921Y-145938876D01*
X168905697Y-145935093D01*
X169727978Y-145112812D01*
X169734356Y-145101132D01*
X170464408Y-145101132D01*
X170464539Y-145102965D01*
X170468790Y-145109580D01*
X171289296Y-145930086D01*
X171301306Y-145936645D01*
X171313046Y-145927677D01*
X171359616Y-145862867D01*
X171364927Y-145854028D01*
X171467296Y-145646901D01*
X171471094Y-145637308D01*
X171538262Y-145416232D01*
X171540439Y-145406162D01*
X171570835Y-145175279D01*
X171571354Y-145168604D01*
X171572949Y-145103364D01*
X171572755Y-145096647D01*
X171570496Y-145069167D01*
X173427706Y-145069167D01*
X173441006Y-145299838D01*
X173442442Y-145310058D01*
X173493238Y-145535454D01*
X173496317Y-145545282D01*
X173583249Y-145759370D01*
X173587892Y-145768561D01*
X173686464Y-145929416D01*
X173696921Y-145938876D01*
X173705697Y-145935093D01*
X174527978Y-145112812D01*
X174534356Y-145101132D01*
X175264408Y-145101132D01*
X175264539Y-145102965D01*
X175268790Y-145109580D01*
X176089296Y-145930086D01*
X176101306Y-145936645D01*
X176113046Y-145927677D01*
X176159616Y-145862867D01*
X176164927Y-145854028D01*
X176267296Y-145646901D01*
X176271094Y-145637308D01*
X176338262Y-145416232D01*
X176340439Y-145406162D01*
X176370835Y-145175279D01*
X176371354Y-145168604D01*
X176372949Y-145103364D01*
X176372755Y-145096647D01*
X176353675Y-144864567D01*
X176351992Y-144854405D01*
X176295703Y-144630306D01*
X176292382Y-144620551D01*
X176200252Y-144408667D01*
X176195374Y-144399570D01*
X176112616Y-144271645D01*
X176101930Y-144262442D01*
X176092365Y-144266845D01*
X175272022Y-145087188D01*
X175264408Y-145101132D01*
X174534356Y-145101132D01*
X174535592Y-145098868D01*
X174535461Y-145097035D01*
X174531210Y-145090420D01*
X173710687Y-144269897D01*
X173699151Y-144263597D01*
X173686868Y-144273221D01*
X173622126Y-144368129D01*
X173617028Y-144377103D01*
X173519750Y-144586670D01*
X173516187Y-144596357D01*
X173454442Y-144818999D01*
X173452511Y-144829118D01*
X173427958Y-145058878D01*
X173427706Y-145069167D01*
X171570496Y-145069167D01*
X171553675Y-144864567D01*
X171551992Y-144854405D01*
X171495703Y-144630306D01*
X171492382Y-144620551D01*
X171400252Y-144408667D01*
X171395374Y-144399570D01*
X171312616Y-144271645D01*
X171301930Y-144262442D01*
X171292365Y-144266845D01*
X170472022Y-145087188D01*
X170464408Y-145101132D01*
X169734356Y-145101132D01*
X169735592Y-145098868D01*
X169735461Y-145097035D01*
X169731210Y-145090420D01*
X168910687Y-144269897D01*
X168899151Y-144263597D01*
X168886868Y-144273221D01*
X168822126Y-144368129D01*
X168817028Y-144377103D01*
X168719750Y-144586670D01*
X168716187Y-144596357D01*
X168654442Y-144818999D01*
X168652511Y-144829118D01*
X168627958Y-145058878D01*
X168627706Y-145069167D01*
X100500500Y-145069167D01*
X100500500Y-143897857D01*
X169262652Y-143897857D01*
X169269397Y-143910187D01*
X170087188Y-144727978D01*
X170101132Y-144735592D01*
X170102965Y-144735461D01*
X170109580Y-144731210D01*
X170931710Y-143909080D01*
X170937839Y-143897857D01*
X174062652Y-143897857D01*
X174069397Y-143910187D01*
X174887188Y-144727978D01*
X174901132Y-144735592D01*
X174902965Y-144735461D01*
X174909580Y-144731210D01*
X175731710Y-143909080D01*
X175738731Y-143896223D01*
X175730959Y-143885556D01*
X175719218Y-143876283D01*
X175710637Y-143870583D01*
X175508355Y-143758918D01*
X175498956Y-143754693D01*
X175281155Y-143677565D01*
X175271184Y-143674931D01*
X175043713Y-143634412D01*
X175033461Y-143633443D01*
X174802417Y-143630620D01*
X174792133Y-143631340D01*
X174563741Y-143666289D01*
X174553713Y-143668678D01*
X174334096Y-143740460D01*
X174324586Y-143744457D01*
X174119646Y-143851142D01*
X174110921Y-143856636D01*
X174071106Y-143886530D01*
X174062652Y-143897857D01*
X170937839Y-143897857D01*
X170938731Y-143896223D01*
X170930959Y-143885556D01*
X170919218Y-143876283D01*
X170910637Y-143870583D01*
X170708355Y-143758918D01*
X170698956Y-143754693D01*
X170481155Y-143677565D01*
X170471184Y-143674931D01*
X170243713Y-143634412D01*
X170233461Y-143633443D01*
X170002417Y-143630620D01*
X169992133Y-143631340D01*
X169763741Y-143666289D01*
X169753713Y-143668678D01*
X169534096Y-143740460D01*
X169524586Y-143744457D01*
X169319646Y-143851142D01*
X169310921Y-143856636D01*
X169271106Y-143886530D01*
X169262652Y-143897857D01*
X100500500Y-143897857D01*
X100500500Y-131750000D01*
X117094540Y-131750000D01*
X117114326Y-131938256D01*
X117172821Y-132118284D01*
X117267467Y-132282216D01*
X117394129Y-132422888D01*
X117547270Y-132534151D01*
X117720197Y-132611144D01*
X117818212Y-132631978D01*
X117898897Y-132649128D01*
X117898901Y-132649128D01*
X117905354Y-132650500D01*
X118094646Y-132650500D01*
X118101099Y-132649128D01*
X118101103Y-132649128D01*
X118181788Y-132631978D01*
X118279803Y-132611144D01*
X118452730Y-132534151D01*
X118605871Y-132422888D01*
X118732533Y-132282216D01*
X118827179Y-132118284D01*
X118885674Y-131938256D01*
X118905460Y-131750000D01*
X118885674Y-131561744D01*
X118827179Y-131381716D01*
X118732533Y-131217784D01*
X118605871Y-131077112D01*
X118452730Y-130965849D01*
X118279803Y-130888856D01*
X118181788Y-130868022D01*
X118101103Y-130850872D01*
X118101099Y-130850872D01*
X118094646Y-130849500D01*
X117905354Y-130849500D01*
X117898901Y-130850872D01*
X117898897Y-130850872D01*
X117818212Y-130868022D01*
X117720197Y-130888856D01*
X117547270Y-130965849D01*
X117394129Y-131077112D01*
X117267467Y-131217784D01*
X117172821Y-131381716D01*
X117114326Y-131561744D01*
X117094540Y-131750000D01*
X100500500Y-131750000D01*
X100500500Y-129872989D01*
X100520502Y-129804868D01*
X100574158Y-129758375D01*
X100644432Y-129748271D01*
X100709012Y-129777765D01*
X100724414Y-129793688D01*
X100820635Y-129912511D01*
X101087489Y-130179365D01*
X101380775Y-130416863D01*
X101697279Y-130622403D01*
X101700213Y-130623898D01*
X101700220Y-130623902D01*
X102030595Y-130792236D01*
X102033535Y-130793734D01*
X102385857Y-130928978D01*
X102750387Y-131026653D01*
X102948353Y-131058008D01*
X103119881Y-131085176D01*
X103119889Y-131085177D01*
X103123129Y-131085690D01*
X103500000Y-131105441D01*
X103876871Y-131085690D01*
X103880111Y-131085177D01*
X103880119Y-131085176D01*
X104051647Y-131058008D01*
X104249613Y-131026653D01*
X104614143Y-130928978D01*
X104966465Y-130793734D01*
X104969405Y-130792236D01*
X105299780Y-130623902D01*
X105299787Y-130623898D01*
X105302721Y-130622403D01*
X105619225Y-130416863D01*
X105912511Y-130179365D01*
X106179365Y-129912511D01*
X106416863Y-129619225D01*
X106622403Y-129302720D01*
X106793734Y-128966465D01*
X106928978Y-128614143D01*
X107026653Y-128249613D01*
X107085690Y-127876871D01*
X107105441Y-127500000D01*
X157894559Y-127500000D01*
X157914310Y-127876871D01*
X157973347Y-128249613D01*
X158071022Y-128614143D01*
X158206266Y-128966465D01*
X158377597Y-129302720D01*
X158583137Y-129619225D01*
X158820635Y-129912511D01*
X159087489Y-130179365D01*
X159380775Y-130416863D01*
X159697279Y-130622403D01*
X159700213Y-130623898D01*
X159700220Y-130623902D01*
X160030595Y-130792236D01*
X160033535Y-130793734D01*
X160385857Y-130928978D01*
X160750387Y-131026653D01*
X160948353Y-131058008D01*
X161119881Y-131085176D01*
X161119889Y-131085177D01*
X161123129Y-131085690D01*
X161500000Y-131105441D01*
X161876871Y-131085690D01*
X161880111Y-131085177D01*
X161880119Y-131085176D01*
X162051647Y-131058008D01*
X162249613Y-131026653D01*
X162614143Y-130928978D01*
X162966465Y-130793734D01*
X162969405Y-130792236D01*
X163299780Y-130623902D01*
X163299787Y-130623898D01*
X163302721Y-130622403D01*
X163619225Y-130416863D01*
X163912511Y-130179365D01*
X164179365Y-129912511D01*
X164416863Y-129619225D01*
X164622403Y-129302720D01*
X164793734Y-128966465D01*
X164928978Y-128614143D01*
X165026653Y-128249613D01*
X165085690Y-127876871D01*
X165105441Y-127500000D01*
X165085690Y-127123129D01*
X165026653Y-126750387D01*
X164928978Y-126385857D01*
X164793734Y-126033535D01*
X164622403Y-125697280D01*
X164416863Y-125380775D01*
X164179365Y-125087489D01*
X163912511Y-124820635D01*
X163619225Y-124583137D01*
X163302721Y-124377597D01*
X163299787Y-124376102D01*
X163299780Y-124376098D01*
X162969405Y-124207764D01*
X162966465Y-124206266D01*
X162614143Y-124071022D01*
X162249613Y-123973347D01*
X162051647Y-123941992D01*
X161880119Y-123914824D01*
X161880111Y-123914823D01*
X161876871Y-123914310D01*
X161500000Y-123894559D01*
X161123129Y-123914310D01*
X161119889Y-123914823D01*
X161119881Y-123914824D01*
X160948353Y-123941992D01*
X160750387Y-123973347D01*
X160385857Y-124071022D01*
X160033535Y-124206266D01*
X160030595Y-124207764D01*
X159700221Y-124376098D01*
X159700214Y-124376102D01*
X159697280Y-124377597D01*
X159380775Y-124583137D01*
X159087489Y-124820635D01*
X158820635Y-125087489D01*
X158583137Y-125380775D01*
X158377597Y-125697280D01*
X158206266Y-126033535D01*
X158071022Y-126385857D01*
X157973347Y-126750387D01*
X157914310Y-127123129D01*
X157894559Y-127500000D01*
X107105441Y-127500000D01*
X107085690Y-127123129D01*
X107026653Y-126750387D01*
X106928978Y-126385857D01*
X106793734Y-126033535D01*
X106622403Y-125697280D01*
X106416863Y-125380775D01*
X106179365Y-125087489D01*
X105912511Y-124820635D01*
X105619225Y-124583137D01*
X105302721Y-124377597D01*
X105299787Y-124376102D01*
X105299780Y-124376098D01*
X104969405Y-124207764D01*
X104966465Y-124206266D01*
X104614143Y-124071022D01*
X104249613Y-123973347D01*
X104051647Y-123941992D01*
X103880119Y-123914824D01*
X103880111Y-123914823D01*
X103876871Y-123914310D01*
X103500000Y-123894559D01*
X103123129Y-123914310D01*
X103119889Y-123914823D01*
X103119881Y-123914824D01*
X102948353Y-123941992D01*
X102750387Y-123973347D01*
X102385857Y-124071022D01*
X102033535Y-124206266D01*
X102030595Y-124207764D01*
X101700221Y-124376098D01*
X101700214Y-124376102D01*
X101697280Y-124377597D01*
X101380775Y-124583137D01*
X101087489Y-124820635D01*
X100820635Y-125087489D01*
X100724418Y-125206307D01*
X100666006Y-125246657D01*
X100595049Y-125249023D01*
X100534077Y-125212650D01*
X100502449Y-125149088D01*
X100500500Y-125127011D01*
X100500500Y-118500000D01*
X127344540Y-118500000D01*
X127364326Y-118688256D01*
X127422821Y-118868284D01*
X127517467Y-119032216D01*
X127644129Y-119172888D01*
X127797270Y-119284151D01*
X127970197Y-119361144D01*
X128068212Y-119381978D01*
X128148897Y-119399128D01*
X128148901Y-119399128D01*
X128155354Y-119400500D01*
X128344646Y-119400500D01*
X128351099Y-119399128D01*
X128351103Y-119399128D01*
X128431788Y-119381978D01*
X128529803Y-119361144D01*
X128702730Y-119284151D01*
X128855871Y-119172888D01*
X128982533Y-119032216D01*
X129077179Y-118868284D01*
X129135674Y-118688256D01*
X129155460Y-118500000D01*
X129135674Y-118311744D01*
X129077179Y-118131716D01*
X128982533Y-117967784D01*
X128855871Y-117827112D01*
X128702730Y-117715849D01*
X128529803Y-117638856D01*
X128431788Y-117618022D01*
X128351103Y-117600872D01*
X128351099Y-117600872D01*
X128344646Y-117599500D01*
X128155354Y-117599500D01*
X128148901Y-117600872D01*
X128148897Y-117600872D01*
X128068212Y-117618022D01*
X127970197Y-117638856D01*
X127797270Y-117715849D01*
X127644129Y-117827112D01*
X127517467Y-117967784D01*
X127422821Y-118131716D01*
X127364326Y-118311744D01*
X127344540Y-118500000D01*
X100500500Y-118500000D01*
X100500500Y-116000000D01*
X126094540Y-116000000D01*
X126114326Y-116188256D01*
X126172821Y-116368284D01*
X126267467Y-116532216D01*
X126394129Y-116672888D01*
X126547270Y-116784151D01*
X126720197Y-116861144D01*
X126818212Y-116881978D01*
X126898897Y-116899128D01*
X126898901Y-116899128D01*
X126905354Y-116900500D01*
X127094646Y-116900500D01*
X127101099Y-116899128D01*
X127101103Y-116899128D01*
X127181788Y-116881978D01*
X127279803Y-116861144D01*
X127452730Y-116784151D01*
X127605871Y-116672888D01*
X127732533Y-116532216D01*
X127827179Y-116368284D01*
X127885674Y-116188256D01*
X127905460Y-116000000D01*
X127885674Y-115811744D01*
X127827179Y-115631716D01*
X127732533Y-115467784D01*
X127605871Y-115327112D01*
X127452730Y-115215849D01*
X127279803Y-115138856D01*
X127181788Y-115118022D01*
X127101103Y-115100872D01*
X127101099Y-115100872D01*
X127094646Y-115099500D01*
X126905354Y-115099500D01*
X126898901Y-115100872D01*
X126898897Y-115100872D01*
X126818212Y-115118022D01*
X126720197Y-115138856D01*
X126547270Y-115215849D01*
X126394129Y-115327112D01*
X126267467Y-115467784D01*
X126172821Y-115631716D01*
X126114326Y-115811744D01*
X126094540Y-116000000D01*
X100500500Y-116000000D01*
X100500500Y-113000000D01*
X129094540Y-113000000D01*
X129114326Y-113188256D01*
X129172821Y-113368284D01*
X129267467Y-113532216D01*
X129394129Y-113672888D01*
X129547270Y-113784151D01*
X129720197Y-113861144D01*
X129818212Y-113881978D01*
X129898897Y-113899128D01*
X129898901Y-113899128D01*
X129905354Y-113900500D01*
X130094646Y-113900500D01*
X130101099Y-113899128D01*
X130101103Y-113899128D01*
X130181788Y-113881978D01*
X130279803Y-113861144D01*
X130452730Y-113784151D01*
X130605871Y-113672888D01*
X130732533Y-113532216D01*
X130827179Y-113368284D01*
X130885674Y-113188256D01*
X130905460Y-113000000D01*
X130885674Y-112811744D01*
X130827179Y-112631716D01*
X130732533Y-112467784D01*
X130605871Y-112327112D01*
X130452730Y-112215849D01*
X130279803Y-112138856D01*
X130181788Y-112118022D01*
X130101103Y-112100872D01*
X130101099Y-112100872D01*
X130094646Y-112099500D01*
X129905354Y-112099500D01*
X129898901Y-112100872D01*
X129898897Y-112100872D01*
X129818212Y-112118022D01*
X129720197Y-112138856D01*
X129547270Y-112215849D01*
X129394129Y-112327112D01*
X129267467Y-112467784D01*
X129172821Y-112631716D01*
X129114326Y-112811744D01*
X129094540Y-113000000D01*
X100500500Y-113000000D01*
X100500500Y-109750000D01*
X129344540Y-109750000D01*
X129364326Y-109938256D01*
X129422821Y-110118284D01*
X129426124Y-110124006D01*
X129426125Y-110124007D01*
X129507232Y-110264488D01*
X129517467Y-110282216D01*
X129521885Y-110287123D01*
X129521886Y-110287124D01*
X129549964Y-110318307D01*
X129644129Y-110422888D01*
X129797270Y-110534151D01*
X129970197Y-110611144D01*
X130068212Y-110631978D01*
X130148897Y-110649128D01*
X130148901Y-110649128D01*
X130155354Y-110650500D01*
X130344646Y-110650500D01*
X130351099Y-110649128D01*
X130351103Y-110649128D01*
X130431788Y-110631978D01*
X130529803Y-110611144D01*
X130702730Y-110534151D01*
X130855871Y-110422888D01*
X130950037Y-110318307D01*
X130978114Y-110287124D01*
X130978115Y-110287123D01*
X130982533Y-110282216D01*
X130992768Y-110264488D01*
X131073875Y-110124007D01*
X131073876Y-110124006D01*
X131077179Y-110118284D01*
X131135674Y-109938256D01*
X131155460Y-109750000D01*
X131844540Y-109750000D01*
X131864326Y-109938256D01*
X131922821Y-110118284D01*
X131926124Y-110124006D01*
X131926125Y-110124007D01*
X132007232Y-110264488D01*
X132017467Y-110282216D01*
X132021885Y-110287123D01*
X132021886Y-110287124D01*
X132049964Y-110318307D01*
X132144129Y-110422888D01*
X132297270Y-110534151D01*
X132470197Y-110611144D01*
X132568212Y-110631978D01*
X132648897Y-110649128D01*
X132648901Y-110649128D01*
X132655354Y-110650500D01*
X132844646Y-110650500D01*
X132851099Y-110649128D01*
X132851103Y-110649128D01*
X132931788Y-110631978D01*
X133029803Y-110611144D01*
X133202730Y-110534151D01*
X133249735Y-110500000D01*
X163094540Y-110500000D01*
X163095230Y-110506565D01*
X163110214Y-110649128D01*
X163114326Y-110688256D01*
X163172821Y-110868284D01*
X163267467Y-111032216D01*
X163394129Y-111172888D01*
X163547270Y-111284151D01*
X163720197Y-111361144D01*
X163818212Y-111381978D01*
X163898897Y-111399128D01*
X163898901Y-111399128D01*
X163905354Y-111400500D01*
X164094646Y-111400500D01*
X164101099Y-111399128D01*
X164101103Y-111399128D01*
X164181788Y-111381978D01*
X164279803Y-111361144D01*
X164452730Y-111284151D01*
X164605871Y-111172888D01*
X164732533Y-111032216D01*
X164827179Y-110868284D01*
X164885674Y-110688256D01*
X164889787Y-110649128D01*
X164904770Y-110506565D01*
X164905460Y-110500000D01*
X164885674Y-110311744D01*
X164827179Y-110131716D01*
X164815796Y-110111999D01*
X164735836Y-109973505D01*
X164732533Y-109967784D01*
X164705946Y-109938256D01*
X164610286Y-109832015D01*
X164610284Y-109832014D01*
X164605871Y-109827112D01*
X164452730Y-109715849D01*
X164279803Y-109638856D01*
X164181788Y-109618022D01*
X164101103Y-109600872D01*
X164101099Y-109600872D01*
X164094646Y-109599500D01*
X163905354Y-109599500D01*
X163898901Y-109600872D01*
X163898897Y-109600872D01*
X163818212Y-109618022D01*
X163720197Y-109638856D01*
X163547270Y-109715849D01*
X163394129Y-109827112D01*
X163389716Y-109832014D01*
X163389714Y-109832015D01*
X163294054Y-109938256D01*
X163267467Y-109967784D01*
X163264164Y-109973505D01*
X163184205Y-110111999D01*
X163172821Y-110131716D01*
X163114326Y-110311744D01*
X163094540Y-110500000D01*
X133249735Y-110500000D01*
X133355871Y-110422888D01*
X133450037Y-110318307D01*
X133478114Y-110287124D01*
X133478115Y-110287123D01*
X133482533Y-110282216D01*
X133492768Y-110264488D01*
X133573875Y-110124007D01*
X133573876Y-110124006D01*
X133577179Y-110118284D01*
X133635674Y-109938256D01*
X133655460Y-109750000D01*
X133643634Y-109637483D01*
X133636364Y-109568307D01*
X133636364Y-109568305D01*
X133635674Y-109561744D01*
X133577179Y-109381716D01*
X133482533Y-109217784D01*
X133355871Y-109077112D01*
X133202730Y-108965849D01*
X133029803Y-108888856D01*
X132931788Y-108868022D01*
X132851103Y-108850872D01*
X132851099Y-108850872D01*
X132844646Y-108849500D01*
X132655354Y-108849500D01*
X132648901Y-108850872D01*
X132648897Y-108850872D01*
X132568212Y-108868022D01*
X132470197Y-108888856D01*
X132297270Y-108965849D01*
X132144129Y-109077112D01*
X132017467Y-109217784D01*
X131922821Y-109381716D01*
X131864326Y-109561744D01*
X131863636Y-109568305D01*
X131863636Y-109568307D01*
X131856366Y-109637483D01*
X131844540Y-109750000D01*
X131155460Y-109750000D01*
X131143634Y-109637483D01*
X131136364Y-109568307D01*
X131136364Y-109568305D01*
X131135674Y-109561744D01*
X131077179Y-109381716D01*
X130982533Y-109217784D01*
X130855871Y-109077112D01*
X130702730Y-108965849D01*
X130529803Y-108888856D01*
X130431788Y-108868022D01*
X130351103Y-108850872D01*
X130351099Y-108850872D01*
X130344646Y-108849500D01*
X130155354Y-108849500D01*
X130148901Y-108850872D01*
X130148897Y-108850872D01*
X130068212Y-108868022D01*
X129970197Y-108888856D01*
X129797270Y-108965849D01*
X129644129Y-109077112D01*
X129517467Y-109217784D01*
X129422821Y-109381716D01*
X129364326Y-109561744D01*
X129363636Y-109568305D01*
X129363636Y-109568307D01*
X129356366Y-109637483D01*
X129344540Y-109750000D01*
X100500500Y-109750000D01*
X100500500Y-102750000D01*
X151344540Y-102750000D01*
X151364326Y-102938256D01*
X151422821Y-103118284D01*
X151517467Y-103282216D01*
X151644129Y-103422888D01*
X151797270Y-103534151D01*
X151970197Y-103611144D01*
X152068212Y-103631978D01*
X152148897Y-103649128D01*
X152148901Y-103649128D01*
X152155354Y-103650500D01*
X152344646Y-103650500D01*
X152351099Y-103649128D01*
X152351103Y-103649128D01*
X152431788Y-103631978D01*
X152529803Y-103611144D01*
X152702730Y-103534151D01*
X152855871Y-103422888D01*
X152982533Y-103282216D01*
X153077179Y-103118284D01*
X153135674Y-102938256D01*
X153155460Y-102750000D01*
X153135674Y-102561744D01*
X153077179Y-102381716D01*
X152982533Y-102217784D01*
X152855871Y-102077112D01*
X152702730Y-101965849D01*
X152529803Y-101888856D01*
X152431788Y-101868022D01*
X152351103Y-101850872D01*
X152351099Y-101850872D01*
X152344646Y-101849500D01*
X152155354Y-101849500D01*
X152148901Y-101850872D01*
X152148897Y-101850872D01*
X152068212Y-101868022D01*
X151970197Y-101888856D01*
X151797270Y-101965849D01*
X151644129Y-102077112D01*
X151517467Y-102217784D01*
X151422821Y-102381716D01*
X151364326Y-102561744D01*
X151344540Y-102750000D01*
X100500500Y-102750000D01*
X100500500Y-87500000D01*
X129094540Y-87500000D01*
X129114326Y-87688256D01*
X129172821Y-87868284D01*
X129267467Y-88032216D01*
X129394129Y-88172888D01*
X129547270Y-88284151D01*
X129720197Y-88361144D01*
X129818212Y-88381978D01*
X129898897Y-88399128D01*
X129898901Y-88399128D01*
X129905354Y-88400500D01*
X130094646Y-88400500D01*
X130101099Y-88399128D01*
X130101103Y-88399128D01*
X130181788Y-88381978D01*
X130279803Y-88361144D01*
X130452730Y-88284151D01*
X130605871Y-88172888D01*
X130732533Y-88032216D01*
X130827179Y-87868284D01*
X130885674Y-87688256D01*
X130905460Y-87500000D01*
X130885674Y-87311744D01*
X130827179Y-87131716D01*
X130732533Y-86967784D01*
X130605871Y-86827112D01*
X130452730Y-86715849D01*
X130279803Y-86638856D01*
X130181788Y-86618022D01*
X130101103Y-86600872D01*
X130101099Y-86600872D01*
X130094646Y-86599500D01*
X129905354Y-86599500D01*
X129898901Y-86600872D01*
X129898897Y-86600872D01*
X129818212Y-86618022D01*
X129720197Y-86638856D01*
X129547270Y-86715849D01*
X129394129Y-86827112D01*
X129267467Y-86967784D01*
X129172821Y-87131716D01*
X129114326Y-87311744D01*
X129094540Y-87500000D01*
X100500500Y-87500000D01*
X100500500Y-83500000D01*
X135594540Y-83500000D01*
X135595230Y-83506565D01*
X135610214Y-83649128D01*
X135614326Y-83688256D01*
X135672821Y-83868284D01*
X135767467Y-84032216D01*
X135771885Y-84037123D01*
X135771886Y-84037124D01*
X135862717Y-84138001D01*
X135894129Y-84172888D01*
X136047270Y-84284151D01*
X136220197Y-84361144D01*
X136318212Y-84381978D01*
X136398897Y-84399128D01*
X136398901Y-84399128D01*
X136405354Y-84400500D01*
X136470631Y-84400500D01*
X136538752Y-84420502D01*
X136585245Y-84474158D01*
X136595941Y-84513330D01*
X136614326Y-84688256D01*
X136672821Y-84868284D01*
X136767467Y-85032216D01*
X136894129Y-85172888D01*
X137047270Y-85284151D01*
X137220197Y-85361144D01*
X137318212Y-85381978D01*
X137398897Y-85399128D01*
X137398901Y-85399128D01*
X137405354Y-85400500D01*
X137594646Y-85400500D01*
X137601099Y-85399128D01*
X137601103Y-85399128D01*
X137681788Y-85381978D01*
X137779803Y-85361144D01*
X137952730Y-85284151D01*
X138105871Y-85172888D01*
X138232533Y-85032216D01*
X138327179Y-84868284D01*
X138385674Y-84688256D01*
X138405460Y-84500000D01*
X138397105Y-84420502D01*
X138386364Y-84318307D01*
X138386364Y-84318305D01*
X138385674Y-84311744D01*
X138327179Y-84131716D01*
X138232533Y-83967784D01*
X138142943Y-83868284D01*
X138110286Y-83832015D01*
X138110284Y-83832014D01*
X138105871Y-83827112D01*
X137952730Y-83715849D01*
X137779803Y-83638856D01*
X137655887Y-83612517D01*
X137601103Y-83600872D01*
X137601099Y-83600872D01*
X137594646Y-83599500D01*
X137529369Y-83599500D01*
X137461248Y-83579498D01*
X137414755Y-83525842D01*
X137404059Y-83486670D01*
X137386364Y-83318307D01*
X137386364Y-83318305D01*
X137385674Y-83311744D01*
X137327179Y-83131716D01*
X137315796Y-83111999D01*
X137235836Y-82973505D01*
X137232533Y-82967784D01*
X137205946Y-82938256D01*
X137110286Y-82832015D01*
X137110284Y-82832014D01*
X137105871Y-82827112D01*
X136999735Y-82750000D01*
X157344540Y-82750000D01*
X157364326Y-82938256D01*
X157422821Y-83118284D01*
X157426124Y-83124006D01*
X157426125Y-83124007D01*
X157507232Y-83264488D01*
X157517467Y-83282216D01*
X157521885Y-83287123D01*
X157521886Y-83287124D01*
X157549964Y-83318307D01*
X157644129Y-83422888D01*
X157649468Y-83426767D01*
X157785834Y-83525842D01*
X157797270Y-83534151D01*
X157970197Y-83611144D01*
X158068212Y-83631978D01*
X158148897Y-83649128D01*
X158148901Y-83649128D01*
X158155354Y-83650500D01*
X158344646Y-83650500D01*
X158351099Y-83649128D01*
X158351103Y-83649128D01*
X158431788Y-83631978D01*
X158529803Y-83611144D01*
X158702730Y-83534151D01*
X158714167Y-83525842D01*
X158850532Y-83426767D01*
X158855871Y-83422888D01*
X158950037Y-83318307D01*
X158978114Y-83287124D01*
X158978115Y-83287123D01*
X158982533Y-83282216D01*
X158992768Y-83264488D01*
X159073875Y-83124007D01*
X159073876Y-83124006D01*
X159077179Y-83118284D01*
X159135674Y-82938256D01*
X159155460Y-82750000D01*
X159143634Y-82637483D01*
X159136364Y-82568307D01*
X159136364Y-82568305D01*
X159135674Y-82561744D01*
X159077179Y-82381716D01*
X158982533Y-82217784D01*
X158855871Y-82077112D01*
X158702730Y-81965849D01*
X158529803Y-81888856D01*
X158431788Y-81868022D01*
X158351103Y-81850872D01*
X158351099Y-81850872D01*
X158344646Y-81849500D01*
X158155354Y-81849500D01*
X158148901Y-81850872D01*
X158148897Y-81850872D01*
X158068212Y-81868022D01*
X157970197Y-81888856D01*
X157797270Y-81965849D01*
X157644129Y-82077112D01*
X157517467Y-82217784D01*
X157422821Y-82381716D01*
X157364326Y-82561744D01*
X157363636Y-82568305D01*
X157363636Y-82568307D01*
X157356366Y-82637483D01*
X157344540Y-82750000D01*
X136999735Y-82750000D01*
X136952730Y-82715849D01*
X136779803Y-82638856D01*
X136681788Y-82618022D01*
X136601103Y-82600872D01*
X136601099Y-82600872D01*
X136594646Y-82599500D01*
X136405354Y-82599500D01*
X136398901Y-82600872D01*
X136398897Y-82600872D01*
X136318212Y-82618022D01*
X136220197Y-82638856D01*
X136047270Y-82715849D01*
X135894129Y-82827112D01*
X135889716Y-82832014D01*
X135889714Y-82832015D01*
X135794054Y-82938256D01*
X135767467Y-82967784D01*
X135764164Y-82973505D01*
X135684205Y-83111999D01*
X135672821Y-83131716D01*
X135614326Y-83311744D01*
X135594540Y-83500000D01*
X100500500Y-83500000D01*
X100500500Y-80872989D01*
X100520502Y-80804868D01*
X100574158Y-80758375D01*
X100644432Y-80748271D01*
X100709012Y-80777765D01*
X100724414Y-80793688D01*
X100820635Y-80912511D01*
X101087489Y-81179365D01*
X101380775Y-81416863D01*
X101697279Y-81622403D01*
X101700213Y-81623898D01*
X101700220Y-81623902D01*
X102030595Y-81792236D01*
X102033535Y-81793734D01*
X102385857Y-81928978D01*
X102750387Y-82026653D01*
X102948353Y-82058008D01*
X103119881Y-82085176D01*
X103119889Y-82085177D01*
X103123129Y-82085690D01*
X103500000Y-82105441D01*
X103876871Y-82085690D01*
X103880111Y-82085177D01*
X103880119Y-82085176D01*
X104051647Y-82058008D01*
X104249613Y-82026653D01*
X104614143Y-81928978D01*
X104966465Y-81793734D01*
X104969405Y-81792236D01*
X105299780Y-81623902D01*
X105299787Y-81623898D01*
X105302721Y-81622403D01*
X105619225Y-81416863D01*
X105912511Y-81179365D01*
X106179365Y-80912511D01*
X106416863Y-80619225D01*
X106538676Y-80431649D01*
X106620605Y-80305489D01*
X106620607Y-80305486D01*
X106622403Y-80302720D01*
X106634643Y-80278699D01*
X106792236Y-79969405D01*
X106793734Y-79966465D01*
X106863870Y-79783755D01*
X106906956Y-79727327D01*
X106973709Y-79703151D01*
X107042937Y-79718902D01*
X107092659Y-79769580D01*
X107107501Y-79828908D01*
X107107501Y-80579376D01*
X107107870Y-80582770D01*
X107107870Y-80582776D01*
X107108494Y-80588515D01*
X107114149Y-80640580D01*
X107164474Y-80774824D01*
X107169854Y-80782003D01*
X107169856Y-80782006D01*
X107245072Y-80882365D01*
X107250454Y-80889546D01*
X107257635Y-80894928D01*
X107357994Y-80970144D01*
X107357997Y-80970146D01*
X107365176Y-80975526D01*
X107454561Y-81009034D01*
X107492025Y-81023079D01*
X107492027Y-81023079D01*
X107499420Y-81025851D01*
X107507270Y-81026704D01*
X107507271Y-81026704D01*
X107557217Y-81032130D01*
X107560623Y-81032500D01*
X108369881Y-81032500D01*
X109179376Y-81032499D01*
X109182770Y-81032130D01*
X109182776Y-81032130D01*
X109232722Y-81026705D01*
X109232726Y-81026704D01*
X109240580Y-81025851D01*
X109374824Y-80975526D01*
X109382003Y-80970146D01*
X109382006Y-80970144D01*
X109482365Y-80894928D01*
X109489546Y-80889546D01*
X109494928Y-80882365D01*
X109570144Y-80782006D01*
X109570146Y-80782003D01*
X109575526Y-80774824D01*
X109625851Y-80640580D01*
X109628473Y-80616450D01*
X109632131Y-80582774D01*
X109632131Y-80582773D01*
X109632500Y-80579377D01*
X109632500Y-80546263D01*
X109652502Y-80478142D01*
X109706158Y-80431649D01*
X109776432Y-80421545D01*
X109841012Y-80451039D01*
X109861708Y-80473986D01*
X109939174Y-80584620D01*
X110095380Y-80740826D01*
X110099888Y-80743983D01*
X110099891Y-80743985D01*
X110271829Y-80864377D01*
X110276338Y-80867534D01*
X110281320Y-80869857D01*
X110281325Y-80869860D01*
X110471568Y-80958571D01*
X110476550Y-80960894D01*
X110481858Y-80962316D01*
X110481860Y-80962317D01*
X110508261Y-80969391D01*
X110689932Y-81018070D01*
X110910000Y-81037323D01*
X111130068Y-81018070D01*
X111311739Y-80969391D01*
X111338140Y-80962317D01*
X111338142Y-80962316D01*
X111343450Y-80960894D01*
X111348432Y-80958571D01*
X111538675Y-80869860D01*
X111538680Y-80869857D01*
X111543662Y-80867534D01*
X111548171Y-80864377D01*
X111720109Y-80743985D01*
X111720112Y-80743983D01*
X111724620Y-80740826D01*
X111880826Y-80584620D01*
X112007534Y-80403661D01*
X112053313Y-80305489D01*
X112065805Y-80278699D01*
X112112722Y-80225414D01*
X112181000Y-80205953D01*
X112248960Y-80226495D01*
X112294195Y-80278699D01*
X112306688Y-80305489D01*
X112352466Y-80403661D01*
X112479174Y-80584620D01*
X112635380Y-80740826D01*
X112639888Y-80743983D01*
X112639891Y-80743985D01*
X112811829Y-80864377D01*
X112816338Y-80867534D01*
X112821320Y-80869857D01*
X112821325Y-80869860D01*
X113011568Y-80958571D01*
X113016550Y-80960894D01*
X113021858Y-80962316D01*
X113021860Y-80962317D01*
X113048261Y-80969391D01*
X113229932Y-81018070D01*
X113450000Y-81037323D01*
X113670068Y-81018070D01*
X113851739Y-80969391D01*
X113878140Y-80962317D01*
X113878142Y-80962316D01*
X113883450Y-80960894D01*
X113888432Y-80958571D01*
X114078675Y-80869860D01*
X114078680Y-80869857D01*
X114083662Y-80867534D01*
X114088171Y-80864377D01*
X114260109Y-80743985D01*
X114260112Y-80743983D01*
X114264620Y-80740826D01*
X114420826Y-80584620D01*
X114547534Y-80403661D01*
X114593313Y-80305489D01*
X114605805Y-80278699D01*
X114652722Y-80225414D01*
X114721000Y-80205953D01*
X114788960Y-80226495D01*
X114834195Y-80278699D01*
X114846688Y-80305489D01*
X114892466Y-80403661D01*
X115019174Y-80584620D01*
X115175380Y-80740826D01*
X115179888Y-80743983D01*
X115179891Y-80743985D01*
X115351829Y-80864377D01*
X115356338Y-80867534D01*
X115361320Y-80869857D01*
X115361325Y-80869860D01*
X115551568Y-80958571D01*
X115556550Y-80960894D01*
X115561858Y-80962316D01*
X115561860Y-80962317D01*
X115588261Y-80969391D01*
X115769932Y-81018070D01*
X115990000Y-81037323D01*
X116210068Y-81018070D01*
X116391739Y-80969391D01*
X116418140Y-80962317D01*
X116418142Y-80962316D01*
X116423450Y-80960894D01*
X116428432Y-80958571D01*
X116618675Y-80869860D01*
X116618680Y-80869857D01*
X116623662Y-80867534D01*
X116628171Y-80864377D01*
X116679013Y-80828777D01*
X117835777Y-80828777D01*
X117845074Y-80840793D01*
X117888069Y-80870898D01*
X117897555Y-80876376D01*
X118088993Y-80965645D01*
X118099285Y-80969391D01*
X118303309Y-81024059D01*
X118314104Y-81025962D01*
X118524525Y-81044372D01*
X118535475Y-81044372D01*
X118745896Y-81025962D01*
X118756691Y-81024059D01*
X118960715Y-80969391D01*
X118971007Y-80965645D01*
X119162445Y-80876376D01*
X119171931Y-80870898D01*
X119215764Y-80840207D01*
X119224139Y-80829729D01*
X119217071Y-80816281D01*
X118542812Y-80142022D01*
X118528868Y-80134408D01*
X118527035Y-80134539D01*
X118520420Y-80138790D01*
X117842207Y-80817003D01*
X117835777Y-80828777D01*
X116679013Y-80828777D01*
X116800109Y-80743985D01*
X116800112Y-80743983D01*
X116804620Y-80740826D01*
X116960826Y-80584620D01*
X117087534Y-80403661D01*
X117133313Y-80305489D01*
X117141668Y-80287571D01*
X117188586Y-80234286D01*
X117256863Y-80214825D01*
X117324823Y-80235367D01*
X117370058Y-80287571D01*
X117423623Y-80402441D01*
X117429103Y-80411932D01*
X117459794Y-80455765D01*
X117470271Y-80464140D01*
X117483718Y-80457072D01*
X118157978Y-79782812D01*
X118165592Y-79768868D01*
X118165461Y-79767035D01*
X118161210Y-79760420D01*
X117482997Y-79082207D01*
X117471223Y-79075777D01*
X117459207Y-79085074D01*
X117429103Y-79128068D01*
X117423623Y-79137559D01*
X117370058Y-79252429D01*
X117323141Y-79305714D01*
X117254863Y-79325175D01*
X117186903Y-79304633D01*
X117141668Y-79252429D01*
X117089857Y-79141320D01*
X117089855Y-79141317D01*
X117087534Y-79136339D01*
X116960826Y-78955380D01*
X116804620Y-78799174D01*
X116800112Y-78796017D01*
X116800109Y-78796015D01*
X116628171Y-78675623D01*
X116628168Y-78675621D01*
X116623662Y-78672466D01*
X116618680Y-78670143D01*
X116618675Y-78670140D01*
X116498699Y-78614195D01*
X116445414Y-78567278D01*
X116425953Y-78499001D01*
X116446495Y-78431041D01*
X116498699Y-78385805D01*
X116618675Y-78329860D01*
X116618680Y-78329857D01*
X116623662Y-78327534D01*
X116628171Y-78324377D01*
X116800109Y-78203985D01*
X116800112Y-78203983D01*
X116804620Y-78200826D01*
X116960826Y-78044620D01*
X117087534Y-77863661D01*
X117095848Y-77845833D01*
X117145805Y-77738699D01*
X117192722Y-77685414D01*
X117261000Y-77665953D01*
X117328960Y-77686495D01*
X117374195Y-77738699D01*
X117424153Y-77845833D01*
X117432466Y-77863661D01*
X117559174Y-78044620D01*
X117715380Y-78200826D01*
X117719888Y-78203983D01*
X117719891Y-78203985D01*
X117891829Y-78324377D01*
X117896338Y-78327534D01*
X117901320Y-78329857D01*
X117901325Y-78329860D01*
X118012429Y-78381668D01*
X118065714Y-78428585D01*
X118085175Y-78496862D01*
X118064633Y-78564822D01*
X118012429Y-78610058D01*
X117897559Y-78663623D01*
X117888068Y-78669103D01*
X117844235Y-78699794D01*
X117835860Y-78710271D01*
X117842928Y-78723718D01*
X118517188Y-79397978D01*
X118531132Y-79405592D01*
X118532965Y-79405461D01*
X118539580Y-79401210D01*
X119217793Y-78722997D01*
X119224223Y-78711223D01*
X119214926Y-78699207D01*
X119171931Y-78669102D01*
X119162445Y-78663624D01*
X119047571Y-78610058D01*
X118994286Y-78563141D01*
X118974825Y-78494864D01*
X118995367Y-78426904D01*
X119047571Y-78381668D01*
X119158675Y-78329860D01*
X119158680Y-78329857D01*
X119163662Y-78327534D01*
X119168171Y-78324377D01*
X119340109Y-78203985D01*
X119340112Y-78203983D01*
X119344620Y-78200826D01*
X119500826Y-78044620D01*
X119627534Y-77863661D01*
X119635848Y-77845833D01*
X119685805Y-77738699D01*
X119732722Y-77685414D01*
X119801000Y-77665953D01*
X119868960Y-77686495D01*
X119914195Y-77738699D01*
X119964153Y-77845833D01*
X119972466Y-77863661D01*
X120099174Y-78044620D01*
X120255380Y-78200826D01*
X120259888Y-78203983D01*
X120259891Y-78203985D01*
X120431829Y-78324377D01*
X120436338Y-78327534D01*
X120441320Y-78329857D01*
X120441325Y-78329860D01*
X120561301Y-78385805D01*
X120614586Y-78432722D01*
X120634047Y-78500999D01*
X120613505Y-78568959D01*
X120561301Y-78614195D01*
X120441320Y-78670143D01*
X120441317Y-78670145D01*
X120436339Y-78672466D01*
X120255380Y-78799174D01*
X120099174Y-78955380D01*
X119972466Y-79136339D01*
X119970145Y-79141317D01*
X119970143Y-79141320D01*
X119918332Y-79252429D01*
X119871414Y-79305714D01*
X119803137Y-79325175D01*
X119735177Y-79304633D01*
X119689942Y-79252429D01*
X119636377Y-79137559D01*
X119630897Y-79128068D01*
X119600206Y-79084235D01*
X119589729Y-79075860D01*
X119576282Y-79082928D01*
X118902022Y-79757188D01*
X118894408Y-79771132D01*
X118894539Y-79772965D01*
X118898790Y-79779580D01*
X119577003Y-80457793D01*
X119588777Y-80464223D01*
X119600793Y-80454926D01*
X119630897Y-80411932D01*
X119636377Y-80402441D01*
X119689942Y-80287571D01*
X119736859Y-80234286D01*
X119805137Y-80214825D01*
X119873097Y-80235367D01*
X119918332Y-80287571D01*
X119926688Y-80305489D01*
X119972466Y-80403661D01*
X120099174Y-80584620D01*
X120255380Y-80740826D01*
X120259888Y-80743983D01*
X120259891Y-80743985D01*
X120431829Y-80864377D01*
X120436338Y-80867534D01*
X120441320Y-80869857D01*
X120441325Y-80869860D01*
X120631568Y-80958571D01*
X120636550Y-80960894D01*
X120641858Y-80962316D01*
X120641860Y-80962317D01*
X120668261Y-80969391D01*
X120849932Y-81018070D01*
X121070000Y-81037323D01*
X121290068Y-81018070D01*
X121471739Y-80969391D01*
X121498140Y-80962317D01*
X121498142Y-80962316D01*
X121503450Y-80960894D01*
X121508432Y-80958571D01*
X121698675Y-80869860D01*
X121698680Y-80869857D01*
X121703662Y-80867534D01*
X121708171Y-80864377D01*
X121880109Y-80743985D01*
X121880112Y-80743983D01*
X121884620Y-80740826D01*
X122040826Y-80584620D01*
X122167534Y-80403661D01*
X122213313Y-80305489D01*
X122225805Y-80278699D01*
X122272722Y-80225414D01*
X122341000Y-80205953D01*
X122408960Y-80226495D01*
X122454195Y-80278699D01*
X122466688Y-80305489D01*
X122512466Y-80403661D01*
X122639174Y-80584620D01*
X122795380Y-80740826D01*
X122799888Y-80743983D01*
X122799891Y-80743985D01*
X122971829Y-80864377D01*
X122976338Y-80867534D01*
X122981320Y-80869857D01*
X122981325Y-80869860D01*
X123171568Y-80958571D01*
X123176550Y-80960894D01*
X123181858Y-80962316D01*
X123181860Y-80962317D01*
X123208261Y-80969391D01*
X123389932Y-81018070D01*
X123610000Y-81037323D01*
X123830068Y-81018070D01*
X124011739Y-80969391D01*
X124038140Y-80962317D01*
X124038142Y-80962316D01*
X124043450Y-80960894D01*
X124048432Y-80958571D01*
X124238675Y-80869860D01*
X124238680Y-80869857D01*
X124243662Y-80867534D01*
X124248171Y-80864377D01*
X124420109Y-80743985D01*
X124420112Y-80743983D01*
X124424620Y-80740826D01*
X124580826Y-80584620D01*
X124707534Y-80403661D01*
X124753313Y-80305489D01*
X124765805Y-80278699D01*
X124812722Y-80225414D01*
X124881000Y-80205953D01*
X124948960Y-80226495D01*
X124994195Y-80278699D01*
X125006688Y-80305489D01*
X125052466Y-80403661D01*
X125179174Y-80584620D01*
X125335380Y-80740826D01*
X125339888Y-80743983D01*
X125339891Y-80743985D01*
X125511829Y-80864377D01*
X125516338Y-80867534D01*
X125521320Y-80869857D01*
X125521325Y-80869860D01*
X125711568Y-80958571D01*
X125716550Y-80960894D01*
X125721858Y-80962316D01*
X125721860Y-80962317D01*
X125748261Y-80969391D01*
X125929932Y-81018070D01*
X126150000Y-81037323D01*
X126370068Y-81018070D01*
X126551739Y-80969391D01*
X126578140Y-80962317D01*
X126578142Y-80962316D01*
X126583450Y-80960894D01*
X126588432Y-80958571D01*
X126778675Y-80869860D01*
X126778680Y-80869857D01*
X126783662Y-80867534D01*
X126788171Y-80864377D01*
X126960109Y-80743985D01*
X126960112Y-80743983D01*
X126964620Y-80740826D01*
X127120826Y-80584620D01*
X127247534Y-80403661D01*
X127293313Y-80305489D01*
X127305805Y-80278699D01*
X127352722Y-80225414D01*
X127421000Y-80205953D01*
X127488960Y-80226495D01*
X127534195Y-80278699D01*
X127546688Y-80305489D01*
X127592466Y-80403661D01*
X127719174Y-80584620D01*
X127875380Y-80740826D01*
X127879888Y-80743983D01*
X127879891Y-80743985D01*
X128051829Y-80864377D01*
X128056338Y-80867534D01*
X128061320Y-80869857D01*
X128061325Y-80869860D01*
X128251568Y-80958571D01*
X128256550Y-80960894D01*
X128261858Y-80962316D01*
X128261860Y-80962317D01*
X128288261Y-80969391D01*
X128469932Y-81018070D01*
X128690000Y-81037323D01*
X128910068Y-81018070D01*
X129091739Y-80969391D01*
X129118140Y-80962317D01*
X129118142Y-80962316D01*
X129123450Y-80960894D01*
X129128432Y-80958571D01*
X129318675Y-80869860D01*
X129318680Y-80869857D01*
X129323662Y-80867534D01*
X129328171Y-80864377D01*
X129500109Y-80743985D01*
X129500112Y-80743983D01*
X129504620Y-80740826D01*
X129660826Y-80584620D01*
X129787534Y-80403661D01*
X129833313Y-80305489D01*
X129845805Y-80278699D01*
X129892722Y-80225414D01*
X129961000Y-80205953D01*
X130028960Y-80226495D01*
X130074195Y-80278699D01*
X130086688Y-80305489D01*
X130132466Y-80403661D01*
X130259174Y-80584620D01*
X130415380Y-80740826D01*
X130419888Y-80743983D01*
X130419891Y-80743985D01*
X130591829Y-80864377D01*
X130596338Y-80867534D01*
X130601320Y-80869857D01*
X130601325Y-80869860D01*
X130791568Y-80958571D01*
X130796550Y-80960894D01*
X130801858Y-80962316D01*
X130801860Y-80962317D01*
X130828261Y-80969391D01*
X131009932Y-81018070D01*
X131230000Y-81037323D01*
X131450068Y-81018070D01*
X131631739Y-80969391D01*
X131658140Y-80962317D01*
X131658142Y-80962316D01*
X131663450Y-80960894D01*
X131668432Y-80958571D01*
X131858675Y-80869860D01*
X131858680Y-80869857D01*
X131863662Y-80867534D01*
X131868171Y-80864377D01*
X132040109Y-80743985D01*
X132040112Y-80743983D01*
X132044620Y-80740826D01*
X132200826Y-80584620D01*
X132327534Y-80403661D01*
X132373313Y-80305489D01*
X132385805Y-80278699D01*
X132432722Y-80225414D01*
X132501000Y-80205953D01*
X132568960Y-80226495D01*
X132614195Y-80278699D01*
X132626688Y-80305489D01*
X132672466Y-80403661D01*
X132799174Y-80584620D01*
X132955380Y-80740826D01*
X132959888Y-80743983D01*
X132959891Y-80743985D01*
X133131829Y-80864377D01*
X133136338Y-80867534D01*
X133141320Y-80869857D01*
X133141325Y-80869860D01*
X133331568Y-80958571D01*
X133336550Y-80960894D01*
X133341858Y-80962316D01*
X133341860Y-80962317D01*
X133368261Y-80969391D01*
X133549932Y-81018070D01*
X133770000Y-81037323D01*
X133990068Y-81018070D01*
X134171739Y-80969391D01*
X134198140Y-80962317D01*
X134198142Y-80962316D01*
X134203450Y-80960894D01*
X134208432Y-80958571D01*
X134398675Y-80869860D01*
X134398680Y-80869857D01*
X134403662Y-80867534D01*
X134408171Y-80864377D01*
X134580109Y-80743985D01*
X134580112Y-80743983D01*
X134584620Y-80740826D01*
X134740826Y-80584620D01*
X134867534Y-80403661D01*
X134913313Y-80305489D01*
X134925805Y-80278699D01*
X134972722Y-80225414D01*
X135041000Y-80205953D01*
X135108960Y-80226495D01*
X135154195Y-80278699D01*
X135166688Y-80305489D01*
X135212466Y-80403661D01*
X135339174Y-80584620D01*
X135495380Y-80740826D01*
X135499888Y-80743983D01*
X135499891Y-80743985D01*
X135671829Y-80864377D01*
X135676338Y-80867534D01*
X135681320Y-80869857D01*
X135681325Y-80869860D01*
X135871568Y-80958571D01*
X135876550Y-80960894D01*
X135881858Y-80962316D01*
X135881860Y-80962317D01*
X135908261Y-80969391D01*
X136089932Y-81018070D01*
X136310000Y-81037323D01*
X136530068Y-81018070D01*
X136711739Y-80969391D01*
X136738140Y-80962317D01*
X136738142Y-80962316D01*
X136743450Y-80960894D01*
X136748432Y-80958571D01*
X136938675Y-80869860D01*
X136938680Y-80869857D01*
X136943662Y-80867534D01*
X136948171Y-80864377D01*
X136999013Y-80828777D01*
X138155777Y-80828777D01*
X138165074Y-80840793D01*
X138208069Y-80870898D01*
X138217555Y-80876376D01*
X138408993Y-80965645D01*
X138419285Y-80969391D01*
X138623309Y-81024059D01*
X138634104Y-81025962D01*
X138844525Y-81044372D01*
X138855475Y-81044372D01*
X139065896Y-81025962D01*
X139076691Y-81024059D01*
X139280715Y-80969391D01*
X139291007Y-80965645D01*
X139482445Y-80876376D01*
X139491931Y-80870898D01*
X139535764Y-80840207D01*
X139544139Y-80829729D01*
X139537071Y-80816281D01*
X138862812Y-80142022D01*
X138848868Y-80134408D01*
X138847035Y-80134539D01*
X138840420Y-80138790D01*
X138162207Y-80817003D01*
X138155777Y-80828777D01*
X136999013Y-80828777D01*
X137120109Y-80743985D01*
X137120112Y-80743983D01*
X137124620Y-80740826D01*
X137280826Y-80584620D01*
X137407534Y-80403661D01*
X137453313Y-80305489D01*
X137461668Y-80287571D01*
X137508586Y-80234286D01*
X137576863Y-80214825D01*
X137644823Y-80235367D01*
X137690058Y-80287571D01*
X137743623Y-80402441D01*
X137749103Y-80411932D01*
X137779794Y-80455765D01*
X137790271Y-80464140D01*
X137803718Y-80457072D01*
X138477978Y-79782812D01*
X138485592Y-79768868D01*
X138485461Y-79767035D01*
X138481210Y-79760420D01*
X137802997Y-79082207D01*
X137791223Y-79075777D01*
X137779207Y-79085074D01*
X137749103Y-79128068D01*
X137743623Y-79137559D01*
X137690058Y-79252429D01*
X137643141Y-79305714D01*
X137574863Y-79325175D01*
X137506903Y-79304633D01*
X137461668Y-79252429D01*
X137409857Y-79141320D01*
X137409855Y-79141317D01*
X137407534Y-79136339D01*
X137280826Y-78955380D01*
X137124620Y-78799174D01*
X137120112Y-78796017D01*
X137120109Y-78796015D01*
X136948171Y-78675623D01*
X136948168Y-78675621D01*
X136943662Y-78672466D01*
X136938680Y-78670143D01*
X136938675Y-78670140D01*
X136818699Y-78614195D01*
X136765414Y-78567278D01*
X136745953Y-78499001D01*
X136766495Y-78431041D01*
X136818699Y-78385805D01*
X136938675Y-78329860D01*
X136938680Y-78329857D01*
X136943662Y-78327534D01*
X136948171Y-78324377D01*
X137120109Y-78203985D01*
X137120112Y-78203983D01*
X137124620Y-78200826D01*
X137280826Y-78044620D01*
X137407534Y-77863661D01*
X137415848Y-77845833D01*
X137465805Y-77738699D01*
X137512722Y-77685414D01*
X137581000Y-77665953D01*
X137648960Y-77686495D01*
X137694195Y-77738699D01*
X137744153Y-77845833D01*
X137752466Y-77863661D01*
X137879174Y-78044620D01*
X138035380Y-78200826D01*
X138039888Y-78203983D01*
X138039891Y-78203985D01*
X138211829Y-78324377D01*
X138216338Y-78327534D01*
X138221320Y-78329857D01*
X138221325Y-78329860D01*
X138332429Y-78381668D01*
X138385714Y-78428585D01*
X138405175Y-78496862D01*
X138384633Y-78564822D01*
X138332429Y-78610058D01*
X138217559Y-78663623D01*
X138208068Y-78669103D01*
X138164235Y-78699794D01*
X138155860Y-78710271D01*
X138162928Y-78723718D01*
X138837188Y-79397978D01*
X138851132Y-79405592D01*
X138852965Y-79405461D01*
X138859580Y-79401210D01*
X139537793Y-78722997D01*
X139544223Y-78711223D01*
X139534926Y-78699207D01*
X139491931Y-78669102D01*
X139482445Y-78663624D01*
X139367571Y-78610058D01*
X139314286Y-78563141D01*
X139294825Y-78494864D01*
X139315367Y-78426904D01*
X139367571Y-78381668D01*
X139478675Y-78329860D01*
X139478680Y-78329857D01*
X139483662Y-78327534D01*
X139488171Y-78324377D01*
X139660109Y-78203985D01*
X139660112Y-78203983D01*
X139664620Y-78200826D01*
X139820826Y-78044620D01*
X139947534Y-77863661D01*
X139955848Y-77845833D01*
X140005805Y-77738699D01*
X140052722Y-77685414D01*
X140121000Y-77665953D01*
X140188960Y-77686495D01*
X140234195Y-77738699D01*
X140284153Y-77845833D01*
X140292466Y-77863661D01*
X140419174Y-78044620D01*
X140575380Y-78200826D01*
X140579888Y-78203983D01*
X140579891Y-78203985D01*
X140751829Y-78324377D01*
X140756338Y-78327534D01*
X140761320Y-78329857D01*
X140761325Y-78329860D01*
X140881301Y-78385805D01*
X140934586Y-78432722D01*
X140954047Y-78500999D01*
X140933505Y-78568959D01*
X140881301Y-78614195D01*
X140761320Y-78670143D01*
X140761317Y-78670145D01*
X140756339Y-78672466D01*
X140575380Y-78799174D01*
X140419174Y-78955380D01*
X140292466Y-79136339D01*
X140290145Y-79141317D01*
X140290143Y-79141320D01*
X140238332Y-79252429D01*
X140191414Y-79305714D01*
X140123137Y-79325175D01*
X140055177Y-79304633D01*
X140009942Y-79252429D01*
X139956377Y-79137559D01*
X139950897Y-79128068D01*
X139920206Y-79084235D01*
X139909729Y-79075860D01*
X139896282Y-79082928D01*
X139222022Y-79757188D01*
X139214408Y-79771132D01*
X139214539Y-79772965D01*
X139218790Y-79779580D01*
X139897003Y-80457793D01*
X139908777Y-80464223D01*
X139920793Y-80454926D01*
X139950897Y-80411932D01*
X139956377Y-80402441D01*
X140009942Y-80287571D01*
X140056859Y-80234286D01*
X140125137Y-80214825D01*
X140193097Y-80235367D01*
X140238332Y-80287571D01*
X140246688Y-80305489D01*
X140292466Y-80403661D01*
X140419174Y-80584620D01*
X140575380Y-80740826D01*
X140579888Y-80743983D01*
X140579891Y-80743985D01*
X140751829Y-80864377D01*
X140756338Y-80867534D01*
X140761320Y-80869857D01*
X140761325Y-80869860D01*
X140951568Y-80958571D01*
X140956550Y-80960894D01*
X140961858Y-80962316D01*
X140961860Y-80962317D01*
X140988261Y-80969391D01*
X141169932Y-81018070D01*
X141390000Y-81037323D01*
X141610068Y-81018070D01*
X141791739Y-80969391D01*
X141818140Y-80962317D01*
X141818142Y-80962316D01*
X141823450Y-80960894D01*
X141828432Y-80958571D01*
X142018675Y-80869860D01*
X142018680Y-80869857D01*
X142023662Y-80867534D01*
X142028171Y-80864377D01*
X142200109Y-80743985D01*
X142200112Y-80743983D01*
X142204620Y-80740826D01*
X142360826Y-80584620D01*
X142487534Y-80403661D01*
X142533313Y-80305489D01*
X142545805Y-80278699D01*
X142592722Y-80225414D01*
X142661000Y-80205953D01*
X142728960Y-80226495D01*
X142774195Y-80278699D01*
X142786688Y-80305489D01*
X142832466Y-80403661D01*
X142959174Y-80584620D01*
X143115380Y-80740826D01*
X143119888Y-80743983D01*
X143119891Y-80743985D01*
X143291829Y-80864377D01*
X143296338Y-80867534D01*
X143301320Y-80869857D01*
X143301325Y-80869860D01*
X143491568Y-80958571D01*
X143496550Y-80960894D01*
X143501858Y-80962316D01*
X143501860Y-80962317D01*
X143528261Y-80969391D01*
X143709932Y-81018070D01*
X143930000Y-81037323D01*
X144150068Y-81018070D01*
X144331739Y-80969391D01*
X144358140Y-80962317D01*
X144358142Y-80962316D01*
X144363450Y-80960894D01*
X144368432Y-80958571D01*
X144558675Y-80869860D01*
X144558680Y-80869857D01*
X144563662Y-80867534D01*
X144568171Y-80864377D01*
X144740109Y-80743985D01*
X144740112Y-80743983D01*
X144744620Y-80740826D01*
X144900826Y-80584620D01*
X145027534Y-80403661D01*
X145073313Y-80305489D01*
X145085805Y-80278699D01*
X145132722Y-80225414D01*
X145201000Y-80205953D01*
X145268960Y-80226495D01*
X145314195Y-80278699D01*
X145326688Y-80305489D01*
X145372466Y-80403661D01*
X145499174Y-80584620D01*
X145655380Y-80740826D01*
X145659888Y-80743983D01*
X145659891Y-80743985D01*
X145831829Y-80864377D01*
X145836338Y-80867534D01*
X145841320Y-80869857D01*
X145841325Y-80869860D01*
X146031568Y-80958571D01*
X146036550Y-80960894D01*
X146041858Y-80962316D01*
X146041860Y-80962317D01*
X146068261Y-80969391D01*
X146249932Y-81018070D01*
X146470000Y-81037323D01*
X146690068Y-81018070D01*
X146871739Y-80969391D01*
X146898140Y-80962317D01*
X146898142Y-80962316D01*
X146903450Y-80960894D01*
X146908432Y-80958571D01*
X147098675Y-80869860D01*
X147098680Y-80869857D01*
X147103662Y-80867534D01*
X147108171Y-80864377D01*
X147280109Y-80743985D01*
X147280112Y-80743983D01*
X147284620Y-80740826D01*
X147440826Y-80584620D01*
X147567534Y-80403661D01*
X147613313Y-80305489D01*
X147625805Y-80278699D01*
X147672722Y-80225414D01*
X147741000Y-80205953D01*
X147808960Y-80226495D01*
X147854195Y-80278699D01*
X147866688Y-80305489D01*
X147912466Y-80403661D01*
X148039174Y-80584620D01*
X148195380Y-80740826D01*
X148199888Y-80743983D01*
X148199891Y-80743985D01*
X148371829Y-80864377D01*
X148376338Y-80867534D01*
X148381320Y-80869857D01*
X148381325Y-80869860D01*
X148571568Y-80958571D01*
X148576550Y-80960894D01*
X148581858Y-80962316D01*
X148581860Y-80962317D01*
X148608261Y-80969391D01*
X148789932Y-81018070D01*
X149010000Y-81037323D01*
X149230068Y-81018070D01*
X149411739Y-80969391D01*
X149438140Y-80962317D01*
X149438142Y-80962316D01*
X149443450Y-80960894D01*
X149448432Y-80958571D01*
X149638675Y-80869860D01*
X149638680Y-80869857D01*
X149643662Y-80867534D01*
X149648171Y-80864377D01*
X149820109Y-80743985D01*
X149820112Y-80743983D01*
X149824620Y-80740826D01*
X149980826Y-80584620D01*
X150107534Y-80403661D01*
X150153313Y-80305489D01*
X150165805Y-80278699D01*
X150212722Y-80225414D01*
X150281000Y-80205953D01*
X150348960Y-80226495D01*
X150394195Y-80278699D01*
X150406688Y-80305489D01*
X150452466Y-80403661D01*
X150579174Y-80584620D01*
X150735380Y-80740826D01*
X150739888Y-80743983D01*
X150739891Y-80743985D01*
X150911829Y-80864377D01*
X150916338Y-80867534D01*
X150921320Y-80869857D01*
X150921325Y-80869860D01*
X151111568Y-80958571D01*
X151116550Y-80960894D01*
X151121858Y-80962316D01*
X151121860Y-80962317D01*
X151148261Y-80969391D01*
X151329932Y-81018070D01*
X151550000Y-81037323D01*
X151770068Y-81018070D01*
X151951739Y-80969391D01*
X151978140Y-80962317D01*
X151978142Y-80962316D01*
X151983450Y-80960894D01*
X151988432Y-80958571D01*
X152178675Y-80869860D01*
X152178680Y-80869857D01*
X152183662Y-80867534D01*
X152188171Y-80864377D01*
X152360109Y-80743985D01*
X152360112Y-80743983D01*
X152364620Y-80740826D01*
X152520826Y-80584620D01*
X152647534Y-80403661D01*
X152693313Y-80305489D01*
X152705805Y-80278699D01*
X152752722Y-80225414D01*
X152821000Y-80205953D01*
X152888960Y-80226495D01*
X152934195Y-80278699D01*
X152946688Y-80305489D01*
X152992466Y-80403661D01*
X153119174Y-80584620D01*
X153275380Y-80740826D01*
X153279888Y-80743983D01*
X153279891Y-80743985D01*
X153451829Y-80864377D01*
X153456338Y-80867534D01*
X153461320Y-80869857D01*
X153461325Y-80869860D01*
X153651568Y-80958571D01*
X153656550Y-80960894D01*
X153661858Y-80962316D01*
X153661860Y-80962317D01*
X153688261Y-80969391D01*
X153869932Y-81018070D01*
X154090000Y-81037323D01*
X154310068Y-81018070D01*
X154491739Y-80969391D01*
X154518140Y-80962317D01*
X154518142Y-80962316D01*
X154523450Y-80960894D01*
X154528432Y-80958571D01*
X154718675Y-80869860D01*
X154718680Y-80869857D01*
X154723662Y-80867534D01*
X154728171Y-80864377D01*
X154779013Y-80828777D01*
X155935777Y-80828777D01*
X155945074Y-80840793D01*
X155988069Y-80870898D01*
X155997555Y-80876376D01*
X156188993Y-80965645D01*
X156199285Y-80969391D01*
X156403309Y-81024059D01*
X156414104Y-81025962D01*
X156624525Y-81044372D01*
X156635475Y-81044372D01*
X156845896Y-81025962D01*
X156856691Y-81024059D01*
X157060715Y-80969391D01*
X157071007Y-80965645D01*
X157262445Y-80876376D01*
X157271931Y-80870898D01*
X157315764Y-80840207D01*
X157324139Y-80829729D01*
X157317071Y-80816281D01*
X156642812Y-80142022D01*
X156628868Y-80134408D01*
X156627035Y-80134539D01*
X156620420Y-80138790D01*
X155942207Y-80817003D01*
X155935777Y-80828777D01*
X154779013Y-80828777D01*
X154900109Y-80743985D01*
X154900112Y-80743983D01*
X154904620Y-80740826D01*
X155060826Y-80584620D01*
X155187534Y-80403661D01*
X155233313Y-80305489D01*
X155241668Y-80287571D01*
X155288586Y-80234286D01*
X155356863Y-80214825D01*
X155424823Y-80235367D01*
X155470058Y-80287571D01*
X155523623Y-80402441D01*
X155529103Y-80411932D01*
X155559794Y-80455765D01*
X155570271Y-80464140D01*
X155583718Y-80457072D01*
X156257978Y-79782812D01*
X156265592Y-79768868D01*
X156265461Y-79767035D01*
X156261210Y-79760420D01*
X155582997Y-79082207D01*
X155571223Y-79075777D01*
X155559207Y-79085074D01*
X155529103Y-79128068D01*
X155523623Y-79137559D01*
X155470058Y-79252429D01*
X155423141Y-79305714D01*
X155354863Y-79325175D01*
X155286903Y-79304633D01*
X155241668Y-79252429D01*
X155189857Y-79141320D01*
X155189855Y-79141317D01*
X155187534Y-79136339D01*
X155060826Y-78955380D01*
X154904620Y-78799174D01*
X154900112Y-78796017D01*
X154900109Y-78796015D01*
X154728171Y-78675623D01*
X154728168Y-78675621D01*
X154723662Y-78672466D01*
X154718680Y-78670143D01*
X154718675Y-78670140D01*
X154598699Y-78614195D01*
X154545414Y-78567278D01*
X154525953Y-78499001D01*
X154546495Y-78431041D01*
X154598699Y-78385805D01*
X154718675Y-78329860D01*
X154718680Y-78329857D01*
X154723662Y-78327534D01*
X154728171Y-78324377D01*
X154900109Y-78203985D01*
X154900112Y-78203983D01*
X154904620Y-78200826D01*
X155060826Y-78044620D01*
X155187534Y-77863661D01*
X155195848Y-77845833D01*
X155245805Y-77738699D01*
X155292722Y-77685414D01*
X155361000Y-77665953D01*
X155428960Y-77686495D01*
X155474195Y-77738699D01*
X155524153Y-77845833D01*
X155532466Y-77863661D01*
X155659174Y-78044620D01*
X155815380Y-78200826D01*
X155819888Y-78203983D01*
X155819891Y-78203985D01*
X155991829Y-78324377D01*
X155996338Y-78327534D01*
X156001320Y-78329857D01*
X156001325Y-78329860D01*
X156112429Y-78381668D01*
X156165714Y-78428585D01*
X156185175Y-78496862D01*
X156164633Y-78564822D01*
X156112429Y-78610058D01*
X155997559Y-78663623D01*
X155988068Y-78669103D01*
X155944235Y-78699794D01*
X155935860Y-78710271D01*
X155942928Y-78723718D01*
X156617188Y-79397978D01*
X156631132Y-79405592D01*
X156632965Y-79405461D01*
X156639580Y-79401210D01*
X157317793Y-78722997D01*
X157324223Y-78711223D01*
X157314926Y-78699207D01*
X157271931Y-78669102D01*
X157262445Y-78663624D01*
X157147571Y-78610058D01*
X157094286Y-78563141D01*
X157074825Y-78494864D01*
X157095367Y-78426904D01*
X157147571Y-78381668D01*
X157258675Y-78329860D01*
X157258680Y-78329857D01*
X157263662Y-78327534D01*
X157268171Y-78324377D01*
X157440109Y-78203985D01*
X157440112Y-78203983D01*
X157444620Y-78200826D01*
X157600826Y-78044620D01*
X157708978Y-77890162D01*
X157764435Y-77845833D01*
X157835054Y-77838524D01*
X157898415Y-77870554D01*
X157934400Y-77931756D01*
X157936640Y-77982143D01*
X157926128Y-78048515D01*
X157914310Y-78123129D01*
X157894559Y-78500000D01*
X157914310Y-78876871D01*
X157914823Y-78880111D01*
X157914824Y-78880119D01*
X157933964Y-79000960D01*
X157924864Y-79071371D01*
X157879143Y-79125685D01*
X157811314Y-79146658D01*
X157742915Y-79127631D01*
X157706301Y-79092940D01*
X157700206Y-79084235D01*
X157689729Y-79075860D01*
X157676282Y-79082928D01*
X157002022Y-79757188D01*
X156994408Y-79771132D01*
X156994539Y-79772965D01*
X156998790Y-79779580D01*
X157677003Y-80457793D01*
X157688777Y-80464223D01*
X157700793Y-80454926D01*
X157730897Y-80411932D01*
X157736377Y-80402441D01*
X157825645Y-80211007D01*
X157829391Y-80200715D01*
X157884059Y-79996691D01*
X157885963Y-79985895D01*
X157899232Y-79834221D01*
X157925095Y-79768102D01*
X157982599Y-79726463D01*
X158053486Y-79722522D01*
X158115251Y-79757531D01*
X158142384Y-79800047D01*
X158206266Y-79966465D01*
X158207764Y-79969405D01*
X158365358Y-80278699D01*
X158377597Y-80302720D01*
X158379393Y-80305486D01*
X158379395Y-80305489D01*
X158461324Y-80431649D01*
X158583137Y-80619225D01*
X158820635Y-80912511D01*
X159087489Y-81179365D01*
X159380775Y-81416863D01*
X159697279Y-81622403D01*
X159700213Y-81623898D01*
X159700220Y-81623902D01*
X160030595Y-81792236D01*
X160033535Y-81793734D01*
X160385857Y-81928978D01*
X160750387Y-82026653D01*
X160948353Y-82058008D01*
X161119881Y-82085176D01*
X161119889Y-82085177D01*
X161123129Y-82085690D01*
X161500000Y-82105441D01*
X161876871Y-82085690D01*
X161880111Y-82085177D01*
X161880119Y-82085176D01*
X162051647Y-82058008D01*
X162249613Y-82026653D01*
X162614143Y-81928978D01*
X162966465Y-81793734D01*
X162969405Y-81792236D01*
X163299780Y-81623902D01*
X163299787Y-81623898D01*
X163302721Y-81622403D01*
X163619225Y-81416863D01*
X163912511Y-81179365D01*
X164179365Y-80912511D01*
X164416863Y-80619225D01*
X164538676Y-80431649D01*
X164620605Y-80305489D01*
X164620607Y-80305486D01*
X164622403Y-80302720D01*
X164634643Y-80278699D01*
X164792236Y-79969405D01*
X164793734Y-79966465D01*
X164928978Y-79614143D01*
X165026653Y-79249613D01*
X165067180Y-78993738D01*
X165085176Y-78880119D01*
X165085177Y-78880111D01*
X165085690Y-78876871D01*
X165105441Y-78500000D01*
X165085690Y-78123129D01*
X165073256Y-78044620D01*
X165053168Y-77917793D01*
X165026653Y-77750387D01*
X164928978Y-77385857D01*
X164888642Y-77280777D01*
X164794918Y-77036620D01*
X164793734Y-77033535D01*
X164704283Y-76857978D01*
X164623902Y-76700221D01*
X164623898Y-76700214D01*
X164622403Y-76697280D01*
X164416863Y-76380775D01*
X164179365Y-76087489D01*
X163912511Y-75820635D01*
X163619225Y-75583137D01*
X163302721Y-75377597D01*
X163299787Y-75376102D01*
X163299780Y-75376098D01*
X162969405Y-75207764D01*
X162966465Y-75206266D01*
X162614143Y-75071022D01*
X162249613Y-74973347D01*
X162051647Y-74941992D01*
X161880119Y-74914824D01*
X161880111Y-74914823D01*
X161876871Y-74914310D01*
X161500000Y-74894559D01*
X161123129Y-74914310D01*
X161119889Y-74914823D01*
X161119881Y-74914824D01*
X160948353Y-74941992D01*
X160750387Y-74973347D01*
X160385857Y-75071022D01*
X160033535Y-75206266D01*
X160030595Y-75207764D01*
X159700221Y-75376098D01*
X159700214Y-75376102D01*
X159697280Y-75377597D01*
X159380775Y-75583137D01*
X159087489Y-75820635D01*
X158820635Y-76087489D01*
X158583137Y-76380775D01*
X158377597Y-76697280D01*
X158376102Y-76700214D01*
X158376098Y-76700221D01*
X158295717Y-76857978D01*
X158206266Y-77033535D01*
X158205082Y-77036620D01*
X158136254Y-77215923D01*
X158093168Y-77272351D01*
X158026415Y-77296528D01*
X157957188Y-77280777D01*
X157907466Y-77230099D01*
X157893102Y-77181751D01*
X157880135Y-77033535D01*
X157878070Y-77009932D01*
X157820894Y-76796550D01*
X157774604Y-76697280D01*
X157729857Y-76601320D01*
X157729855Y-76601317D01*
X157727534Y-76596339D01*
X157600826Y-76415380D01*
X157444620Y-76259174D01*
X157440112Y-76256017D01*
X157440109Y-76256015D01*
X157268171Y-76135623D01*
X157268168Y-76135621D01*
X157263662Y-76132466D01*
X157258680Y-76130143D01*
X157258675Y-76130140D01*
X157068432Y-76041429D01*
X157068431Y-76041429D01*
X157063450Y-76039106D01*
X157058142Y-76037684D01*
X157058140Y-76037683D01*
X156992748Y-76020161D01*
X156850068Y-75981930D01*
X156630000Y-75962677D01*
X156409932Y-75981930D01*
X156267252Y-76020161D01*
X156201860Y-76037683D01*
X156201858Y-76037684D01*
X156196550Y-76039106D01*
X156191569Y-76041428D01*
X156191568Y-76041429D01*
X156001320Y-76130143D01*
X156001317Y-76130145D01*
X155996339Y-76132466D01*
X155815380Y-76259174D01*
X155659174Y-76415380D01*
X155532466Y-76596339D01*
X155530145Y-76601317D01*
X155530143Y-76601320D01*
X155474195Y-76721301D01*
X155427278Y-76774586D01*
X155359000Y-76794047D01*
X155291040Y-76773505D01*
X155245805Y-76721301D01*
X155189857Y-76601320D01*
X155189855Y-76601317D01*
X155187534Y-76596339D01*
X155060826Y-76415380D01*
X154904620Y-76259174D01*
X154900112Y-76256017D01*
X154900109Y-76256015D01*
X154728171Y-76135623D01*
X154728168Y-76135621D01*
X154723662Y-76132466D01*
X154718680Y-76130143D01*
X154718675Y-76130140D01*
X154528432Y-76041429D01*
X154528431Y-76041429D01*
X154523450Y-76039106D01*
X154518142Y-76037684D01*
X154518140Y-76037683D01*
X154452748Y-76020161D01*
X154310068Y-75981930D01*
X154090000Y-75962677D01*
X153869932Y-75981930D01*
X153727252Y-76020161D01*
X153661860Y-76037683D01*
X153661858Y-76037684D01*
X153656550Y-76039106D01*
X153651569Y-76041428D01*
X153651568Y-76041429D01*
X153461320Y-76130143D01*
X153461317Y-76130145D01*
X153456339Y-76132466D01*
X153275380Y-76259174D01*
X153119174Y-76415380D01*
X152992466Y-76596339D01*
X152990145Y-76601317D01*
X152990143Y-76601320D01*
X152934195Y-76721301D01*
X152887278Y-76774586D01*
X152819000Y-76794047D01*
X152751040Y-76773505D01*
X152705805Y-76721301D01*
X152649857Y-76601320D01*
X152649855Y-76601317D01*
X152647534Y-76596339D01*
X152520826Y-76415380D01*
X152364620Y-76259174D01*
X152360112Y-76256017D01*
X152360109Y-76256015D01*
X152188171Y-76135623D01*
X152188168Y-76135621D01*
X152183662Y-76132466D01*
X152178680Y-76130143D01*
X152178675Y-76130140D01*
X151988432Y-76041429D01*
X151988431Y-76041429D01*
X151983450Y-76039106D01*
X151978142Y-76037684D01*
X151978140Y-76037683D01*
X151912748Y-76020161D01*
X151770068Y-75981930D01*
X151550000Y-75962677D01*
X151329932Y-75981930D01*
X151187252Y-76020161D01*
X151121860Y-76037683D01*
X151121858Y-76037684D01*
X151116550Y-76039106D01*
X151111569Y-76041428D01*
X151111568Y-76041429D01*
X150921320Y-76130143D01*
X150921317Y-76130145D01*
X150916339Y-76132466D01*
X150735380Y-76259174D01*
X150579174Y-76415380D01*
X150452466Y-76596339D01*
X150450145Y-76601317D01*
X150450143Y-76601320D01*
X150398332Y-76712429D01*
X150351414Y-76765714D01*
X150283137Y-76785175D01*
X150215177Y-76764633D01*
X150169942Y-76712429D01*
X150116377Y-76597559D01*
X150110897Y-76588068D01*
X150080206Y-76544235D01*
X150069729Y-76535860D01*
X150056282Y-76542928D01*
X149382022Y-77217188D01*
X149374408Y-77231132D01*
X149374539Y-77232965D01*
X149378790Y-77239580D01*
X150057003Y-77917793D01*
X150068777Y-77924223D01*
X150080793Y-77914926D01*
X150110897Y-77871932D01*
X150116377Y-77862441D01*
X150169942Y-77747571D01*
X150216859Y-77694286D01*
X150285137Y-77674825D01*
X150353097Y-77695367D01*
X150398332Y-77747571D01*
X150444153Y-77845833D01*
X150452466Y-77863661D01*
X150579174Y-78044620D01*
X150735380Y-78200826D01*
X150739888Y-78203983D01*
X150739891Y-78203985D01*
X150911829Y-78324377D01*
X150916338Y-78327534D01*
X150921320Y-78329857D01*
X150921325Y-78329860D01*
X151041301Y-78385805D01*
X151094586Y-78432722D01*
X151114047Y-78500999D01*
X151093505Y-78568959D01*
X151041301Y-78614195D01*
X150921320Y-78670143D01*
X150921317Y-78670145D01*
X150916339Y-78672466D01*
X150735380Y-78799174D01*
X150579174Y-78955380D01*
X150452466Y-79136339D01*
X150450145Y-79141317D01*
X150450143Y-79141320D01*
X150394195Y-79261301D01*
X150347278Y-79314586D01*
X150279000Y-79334047D01*
X150211040Y-79313505D01*
X150165805Y-79261301D01*
X150109857Y-79141320D01*
X150109855Y-79141317D01*
X150107534Y-79136339D01*
X149980826Y-78955380D01*
X149824620Y-78799174D01*
X149820112Y-78796017D01*
X149820109Y-78796015D01*
X149648171Y-78675623D01*
X149648168Y-78675621D01*
X149643662Y-78672466D01*
X149638680Y-78670143D01*
X149638675Y-78670140D01*
X149527571Y-78618332D01*
X149474286Y-78571415D01*
X149454825Y-78503138D01*
X149475367Y-78435178D01*
X149527571Y-78389942D01*
X149642445Y-78336376D01*
X149651931Y-78330898D01*
X149695764Y-78300207D01*
X149704139Y-78289729D01*
X149697071Y-78276281D01*
X149022812Y-77602022D01*
X149008868Y-77594408D01*
X149007035Y-77594539D01*
X149000420Y-77598790D01*
X148322207Y-78277003D01*
X148315777Y-78288777D01*
X148325074Y-78300793D01*
X148368069Y-78330898D01*
X148377555Y-78336376D01*
X148492429Y-78389942D01*
X148545714Y-78436859D01*
X148565175Y-78505136D01*
X148544633Y-78573096D01*
X148492429Y-78618332D01*
X148381320Y-78670143D01*
X148381317Y-78670145D01*
X148376339Y-78672466D01*
X148195380Y-78799174D01*
X148039174Y-78955380D01*
X147912466Y-79136339D01*
X147910145Y-79141317D01*
X147910143Y-79141320D01*
X147854195Y-79261301D01*
X147807278Y-79314586D01*
X147739000Y-79334047D01*
X147671040Y-79313505D01*
X147625805Y-79261301D01*
X147569857Y-79141320D01*
X147569855Y-79141317D01*
X147567534Y-79136339D01*
X147440826Y-78955380D01*
X147284620Y-78799174D01*
X147280112Y-78796017D01*
X147280109Y-78796015D01*
X147108171Y-78675623D01*
X147108168Y-78675621D01*
X147103662Y-78672466D01*
X147098680Y-78670143D01*
X147098675Y-78670140D01*
X146978699Y-78614195D01*
X146925414Y-78567278D01*
X146905953Y-78499001D01*
X146926495Y-78431041D01*
X146978699Y-78385805D01*
X147098675Y-78329860D01*
X147098680Y-78329857D01*
X147103662Y-78327534D01*
X147108171Y-78324377D01*
X147280109Y-78203985D01*
X147280112Y-78203983D01*
X147284620Y-78200826D01*
X147440826Y-78044620D01*
X147567534Y-77863661D01*
X147575848Y-77845833D01*
X147621668Y-77747571D01*
X147668586Y-77694286D01*
X147736863Y-77674825D01*
X147804823Y-77695367D01*
X147850058Y-77747571D01*
X147903623Y-77862441D01*
X147909103Y-77871932D01*
X147939794Y-77915765D01*
X147950271Y-77924140D01*
X147963718Y-77917072D01*
X148637978Y-77242812D01*
X148645592Y-77228868D01*
X148645461Y-77227035D01*
X148641210Y-77220420D01*
X147962997Y-76542207D01*
X147951223Y-76535777D01*
X147939207Y-76545074D01*
X147909103Y-76588068D01*
X147903623Y-76597559D01*
X147850058Y-76712429D01*
X147803141Y-76765714D01*
X147734863Y-76785175D01*
X147666903Y-76764633D01*
X147621668Y-76712429D01*
X147569857Y-76601320D01*
X147569855Y-76601317D01*
X147567534Y-76596339D01*
X147440826Y-76415380D01*
X147284620Y-76259174D01*
X147280112Y-76256017D01*
X147280109Y-76256015D01*
X147157654Y-76170271D01*
X148315860Y-76170271D01*
X148322928Y-76183718D01*
X148997188Y-76857978D01*
X149011132Y-76865592D01*
X149012965Y-76865461D01*
X149019580Y-76861210D01*
X149697793Y-76182997D01*
X149704223Y-76171223D01*
X149694926Y-76159207D01*
X149651931Y-76129102D01*
X149642445Y-76123624D01*
X149451007Y-76034355D01*
X149440715Y-76030609D01*
X149236691Y-75975941D01*
X149225896Y-75974038D01*
X149015475Y-75955628D01*
X149004525Y-75955628D01*
X148794104Y-75974038D01*
X148783309Y-75975941D01*
X148579285Y-76030609D01*
X148568993Y-76034355D01*
X148377559Y-76123623D01*
X148368068Y-76129103D01*
X148324235Y-76159794D01*
X148315860Y-76170271D01*
X147157654Y-76170271D01*
X147108171Y-76135623D01*
X147108168Y-76135621D01*
X147103662Y-76132466D01*
X147098680Y-76130143D01*
X147098675Y-76130140D01*
X146908432Y-76041429D01*
X146908431Y-76041429D01*
X146903450Y-76039106D01*
X146898142Y-76037684D01*
X146898140Y-76037683D01*
X146832748Y-76020161D01*
X146690068Y-75981930D01*
X146470000Y-75962677D01*
X146249932Y-75981930D01*
X146107252Y-76020161D01*
X146041860Y-76037683D01*
X146041858Y-76037684D01*
X146036550Y-76039106D01*
X146031569Y-76041428D01*
X146031568Y-76041429D01*
X145841320Y-76130143D01*
X145841317Y-76130145D01*
X145836339Y-76132466D01*
X145655380Y-76259174D01*
X145499174Y-76415380D01*
X145372466Y-76596339D01*
X145370145Y-76601317D01*
X145370143Y-76601320D01*
X145318332Y-76712429D01*
X145271414Y-76765714D01*
X145203137Y-76785175D01*
X145135177Y-76764633D01*
X145089942Y-76712429D01*
X145036377Y-76597559D01*
X145030897Y-76588068D01*
X145000206Y-76544235D01*
X144989729Y-76535860D01*
X144976282Y-76542928D01*
X144302022Y-77217188D01*
X144294408Y-77231132D01*
X144294539Y-77232965D01*
X144298790Y-77239580D01*
X144977003Y-77917793D01*
X144988777Y-77924223D01*
X145000793Y-77914926D01*
X145030897Y-77871932D01*
X145036377Y-77862441D01*
X145089942Y-77747571D01*
X145136859Y-77694286D01*
X145205137Y-77674825D01*
X145273097Y-77695367D01*
X145318332Y-77747571D01*
X145364153Y-77845833D01*
X145372466Y-77863661D01*
X145499174Y-78044620D01*
X145655380Y-78200826D01*
X145659888Y-78203983D01*
X145659891Y-78203985D01*
X145831829Y-78324377D01*
X145836338Y-78327534D01*
X145841320Y-78329857D01*
X145841325Y-78329860D01*
X145961301Y-78385805D01*
X146014586Y-78432722D01*
X146034047Y-78500999D01*
X146013505Y-78568959D01*
X145961301Y-78614195D01*
X145841320Y-78670143D01*
X145841317Y-78670145D01*
X145836339Y-78672466D01*
X145655380Y-78799174D01*
X145499174Y-78955380D01*
X145372466Y-79136339D01*
X145370145Y-79141317D01*
X145370143Y-79141320D01*
X145314195Y-79261301D01*
X145267278Y-79314586D01*
X145199000Y-79334047D01*
X145131040Y-79313505D01*
X145085805Y-79261301D01*
X145029857Y-79141320D01*
X145029855Y-79141317D01*
X145027534Y-79136339D01*
X144900826Y-78955380D01*
X144744620Y-78799174D01*
X144740112Y-78796017D01*
X144740109Y-78796015D01*
X144568171Y-78675623D01*
X144568168Y-78675621D01*
X144563662Y-78672466D01*
X144558680Y-78670143D01*
X144558675Y-78670140D01*
X144447571Y-78618332D01*
X144394286Y-78571415D01*
X144374825Y-78503138D01*
X144395367Y-78435178D01*
X144447571Y-78389942D01*
X144562445Y-78336376D01*
X144571931Y-78330898D01*
X144615764Y-78300207D01*
X144624139Y-78289729D01*
X144617071Y-78276281D01*
X143942812Y-77602022D01*
X143928868Y-77594408D01*
X143927035Y-77594539D01*
X143920420Y-77598790D01*
X143242207Y-78277003D01*
X143235777Y-78288777D01*
X143245074Y-78300793D01*
X143288069Y-78330898D01*
X143297555Y-78336376D01*
X143412429Y-78389942D01*
X143465714Y-78436859D01*
X143485175Y-78505136D01*
X143464633Y-78573096D01*
X143412429Y-78618332D01*
X143301320Y-78670143D01*
X143301317Y-78670145D01*
X143296339Y-78672466D01*
X143115380Y-78799174D01*
X142959174Y-78955380D01*
X142832466Y-79136339D01*
X142830145Y-79141317D01*
X142830143Y-79141320D01*
X142774195Y-79261301D01*
X142727278Y-79314586D01*
X142659000Y-79334047D01*
X142591040Y-79313505D01*
X142545805Y-79261301D01*
X142489857Y-79141320D01*
X142489855Y-79141317D01*
X142487534Y-79136339D01*
X142360826Y-78955380D01*
X142204620Y-78799174D01*
X142200112Y-78796017D01*
X142200109Y-78796015D01*
X142028171Y-78675623D01*
X142028168Y-78675621D01*
X142023662Y-78672466D01*
X142018680Y-78670143D01*
X142018675Y-78670140D01*
X141898699Y-78614195D01*
X141845414Y-78567278D01*
X141825953Y-78499001D01*
X141846495Y-78431041D01*
X141898699Y-78385805D01*
X142018675Y-78329860D01*
X142018680Y-78329857D01*
X142023662Y-78327534D01*
X142028171Y-78324377D01*
X142200109Y-78203985D01*
X142200112Y-78203983D01*
X142204620Y-78200826D01*
X142360826Y-78044620D01*
X142487534Y-77863661D01*
X142495848Y-77845833D01*
X142541668Y-77747571D01*
X142588586Y-77694286D01*
X142656863Y-77674825D01*
X142724823Y-77695367D01*
X142770058Y-77747571D01*
X142823623Y-77862441D01*
X142829103Y-77871932D01*
X142859794Y-77915765D01*
X142870271Y-77924140D01*
X142883718Y-77917072D01*
X143557978Y-77242812D01*
X143565592Y-77228868D01*
X143565461Y-77227035D01*
X143561210Y-77220420D01*
X142882997Y-76542207D01*
X142871223Y-76535777D01*
X142859207Y-76545074D01*
X142829103Y-76588068D01*
X142823623Y-76597559D01*
X142770058Y-76712429D01*
X142723141Y-76765714D01*
X142654863Y-76785175D01*
X142586903Y-76764633D01*
X142541668Y-76712429D01*
X142489857Y-76601320D01*
X142489855Y-76601317D01*
X142487534Y-76596339D01*
X142360826Y-76415380D01*
X142204620Y-76259174D01*
X142200112Y-76256017D01*
X142200109Y-76256015D01*
X142077654Y-76170271D01*
X143235860Y-76170271D01*
X143242928Y-76183718D01*
X143917188Y-76857978D01*
X143931132Y-76865592D01*
X143932965Y-76865461D01*
X143939580Y-76861210D01*
X144617793Y-76182997D01*
X144624223Y-76171223D01*
X144614926Y-76159207D01*
X144571931Y-76129102D01*
X144562445Y-76123624D01*
X144371007Y-76034355D01*
X144360715Y-76030609D01*
X144156691Y-75975941D01*
X144145896Y-75974038D01*
X143935475Y-75955628D01*
X143924525Y-75955628D01*
X143714104Y-75974038D01*
X143703309Y-75975941D01*
X143499285Y-76030609D01*
X143488993Y-76034355D01*
X143297559Y-76123623D01*
X143288068Y-76129103D01*
X143244235Y-76159794D01*
X143235860Y-76170271D01*
X142077654Y-76170271D01*
X142028171Y-76135623D01*
X142028168Y-76135621D01*
X142023662Y-76132466D01*
X142018680Y-76130143D01*
X142018675Y-76130140D01*
X141828432Y-76041429D01*
X141828431Y-76041429D01*
X141823450Y-76039106D01*
X141818142Y-76037684D01*
X141818140Y-76037683D01*
X141752748Y-76020161D01*
X141610068Y-75981930D01*
X141390000Y-75962677D01*
X141169932Y-75981930D01*
X141027252Y-76020161D01*
X140961860Y-76037683D01*
X140961858Y-76037684D01*
X140956550Y-76039106D01*
X140951569Y-76041428D01*
X140951568Y-76041429D01*
X140761320Y-76130143D01*
X140761317Y-76130145D01*
X140756339Y-76132466D01*
X140575380Y-76259174D01*
X140419174Y-76415380D01*
X140292466Y-76596339D01*
X140290145Y-76601317D01*
X140290143Y-76601320D01*
X140234195Y-76721301D01*
X140187278Y-76774586D01*
X140119000Y-76794047D01*
X140051040Y-76773505D01*
X140005805Y-76721301D01*
X139949857Y-76601320D01*
X139949855Y-76601317D01*
X139947534Y-76596339D01*
X139820826Y-76415380D01*
X139664620Y-76259174D01*
X139660112Y-76256017D01*
X139660109Y-76256015D01*
X139488171Y-76135623D01*
X139488168Y-76135621D01*
X139483662Y-76132466D01*
X139478680Y-76130143D01*
X139478675Y-76130140D01*
X139288432Y-76041429D01*
X139288431Y-76041429D01*
X139283450Y-76039106D01*
X139278142Y-76037684D01*
X139278140Y-76037683D01*
X139212748Y-76020161D01*
X139070068Y-75981930D01*
X138850000Y-75962677D01*
X138629932Y-75981930D01*
X138487252Y-76020161D01*
X138421860Y-76037683D01*
X138421858Y-76037684D01*
X138416550Y-76039106D01*
X138411569Y-76041428D01*
X138411568Y-76041429D01*
X138221320Y-76130143D01*
X138221317Y-76130145D01*
X138216339Y-76132466D01*
X138035380Y-76259174D01*
X137879174Y-76415380D01*
X137752466Y-76596339D01*
X137750145Y-76601317D01*
X137750143Y-76601320D01*
X137694195Y-76721301D01*
X137647278Y-76774586D01*
X137579000Y-76794047D01*
X137511040Y-76773505D01*
X137465805Y-76721301D01*
X137409857Y-76601320D01*
X137409855Y-76601317D01*
X137407534Y-76596339D01*
X137280826Y-76415380D01*
X137124620Y-76259174D01*
X137120112Y-76256017D01*
X137120109Y-76256015D01*
X136948171Y-76135623D01*
X136948168Y-76135621D01*
X136943662Y-76132466D01*
X136938680Y-76130143D01*
X136938675Y-76130140D01*
X136748432Y-76041429D01*
X136748431Y-76041429D01*
X136743450Y-76039106D01*
X136738142Y-76037684D01*
X136738140Y-76037683D01*
X136672748Y-76020161D01*
X136530068Y-75981930D01*
X136310000Y-75962677D01*
X136089932Y-75981930D01*
X135947252Y-76020161D01*
X135881860Y-76037683D01*
X135881858Y-76037684D01*
X135876550Y-76039106D01*
X135871569Y-76041428D01*
X135871568Y-76041429D01*
X135681320Y-76130143D01*
X135681317Y-76130145D01*
X135676339Y-76132466D01*
X135495380Y-76259174D01*
X135339174Y-76415380D01*
X135212466Y-76596339D01*
X135210145Y-76601317D01*
X135210143Y-76601320D01*
X135154195Y-76721301D01*
X135107278Y-76774586D01*
X135039000Y-76794047D01*
X134971040Y-76773505D01*
X134925805Y-76721301D01*
X134869857Y-76601320D01*
X134869855Y-76601317D01*
X134867534Y-76596339D01*
X134740826Y-76415380D01*
X134584620Y-76259174D01*
X134580112Y-76256017D01*
X134580109Y-76256015D01*
X134408171Y-76135623D01*
X134408168Y-76135621D01*
X134403662Y-76132466D01*
X134398680Y-76130143D01*
X134398675Y-76130140D01*
X134208432Y-76041429D01*
X134208431Y-76041429D01*
X134203450Y-76039106D01*
X134198142Y-76037684D01*
X134198140Y-76037683D01*
X134132748Y-76020161D01*
X133990068Y-75981930D01*
X133770000Y-75962677D01*
X133549932Y-75981930D01*
X133407252Y-76020161D01*
X133341860Y-76037683D01*
X133341858Y-76037684D01*
X133336550Y-76039106D01*
X133331569Y-76041428D01*
X133331568Y-76041429D01*
X133141320Y-76130143D01*
X133141317Y-76130145D01*
X133136339Y-76132466D01*
X132955380Y-76259174D01*
X132799174Y-76415380D01*
X132672466Y-76596339D01*
X132670145Y-76601317D01*
X132670143Y-76601320D01*
X132618332Y-76712429D01*
X132571414Y-76765714D01*
X132503137Y-76785175D01*
X132435177Y-76764633D01*
X132389942Y-76712429D01*
X132336377Y-76597559D01*
X132330897Y-76588068D01*
X132300206Y-76544235D01*
X132289729Y-76535860D01*
X132276282Y-76542928D01*
X131602022Y-77217188D01*
X131594408Y-77231132D01*
X131594539Y-77232965D01*
X131598790Y-77239580D01*
X132277003Y-77917793D01*
X132288777Y-77924223D01*
X132300793Y-77914926D01*
X132330897Y-77871932D01*
X132336377Y-77862441D01*
X132389942Y-77747571D01*
X132436859Y-77694286D01*
X132505137Y-77674825D01*
X132573097Y-77695367D01*
X132618332Y-77747571D01*
X132664153Y-77845833D01*
X132672466Y-77863661D01*
X132799174Y-78044620D01*
X132955380Y-78200826D01*
X132959888Y-78203983D01*
X132959891Y-78203985D01*
X133131829Y-78324377D01*
X133136338Y-78327534D01*
X133141320Y-78329857D01*
X133141325Y-78329860D01*
X133261301Y-78385805D01*
X133314586Y-78432722D01*
X133334047Y-78500999D01*
X133313505Y-78568959D01*
X133261301Y-78614195D01*
X133141320Y-78670143D01*
X133141317Y-78670145D01*
X133136339Y-78672466D01*
X132955380Y-78799174D01*
X132799174Y-78955380D01*
X132672466Y-79136339D01*
X132670145Y-79141317D01*
X132670143Y-79141320D01*
X132614195Y-79261301D01*
X132567278Y-79314586D01*
X132499000Y-79334047D01*
X132431040Y-79313505D01*
X132385805Y-79261301D01*
X132329857Y-79141320D01*
X132329855Y-79141317D01*
X132327534Y-79136339D01*
X132200826Y-78955380D01*
X132044620Y-78799174D01*
X132040112Y-78796017D01*
X132040109Y-78796015D01*
X131868171Y-78675623D01*
X131868168Y-78675621D01*
X131863662Y-78672466D01*
X131858680Y-78670143D01*
X131858675Y-78670140D01*
X131747571Y-78618332D01*
X131694286Y-78571415D01*
X131674825Y-78503138D01*
X131695367Y-78435178D01*
X131747571Y-78389942D01*
X131862445Y-78336376D01*
X131871931Y-78330898D01*
X131915764Y-78300207D01*
X131924139Y-78289729D01*
X131917071Y-78276281D01*
X131242812Y-77602022D01*
X131228868Y-77594408D01*
X131227035Y-77594539D01*
X131220420Y-77598790D01*
X130542207Y-78277003D01*
X130535777Y-78288777D01*
X130545074Y-78300793D01*
X130588069Y-78330898D01*
X130597555Y-78336376D01*
X130712429Y-78389942D01*
X130765714Y-78436859D01*
X130785175Y-78505136D01*
X130764633Y-78573096D01*
X130712429Y-78618332D01*
X130601320Y-78670143D01*
X130601317Y-78670145D01*
X130596339Y-78672466D01*
X130415380Y-78799174D01*
X130259174Y-78955380D01*
X130132466Y-79136339D01*
X130130145Y-79141317D01*
X130130143Y-79141320D01*
X130074195Y-79261301D01*
X130027278Y-79314586D01*
X129959000Y-79334047D01*
X129891040Y-79313505D01*
X129845805Y-79261301D01*
X129789857Y-79141320D01*
X129789855Y-79141317D01*
X129787534Y-79136339D01*
X129660826Y-78955380D01*
X129504620Y-78799174D01*
X129500112Y-78796017D01*
X129500109Y-78796015D01*
X129328171Y-78675623D01*
X129328168Y-78675621D01*
X129323662Y-78672466D01*
X129318680Y-78670143D01*
X129318675Y-78670140D01*
X129198699Y-78614195D01*
X129145414Y-78567278D01*
X129125953Y-78499001D01*
X129146495Y-78431041D01*
X129198699Y-78385805D01*
X129318675Y-78329860D01*
X129318680Y-78329857D01*
X129323662Y-78327534D01*
X129328171Y-78324377D01*
X129500109Y-78203985D01*
X129500112Y-78203983D01*
X129504620Y-78200826D01*
X129660826Y-78044620D01*
X129787534Y-77863661D01*
X129795848Y-77845833D01*
X129841668Y-77747571D01*
X129888586Y-77694286D01*
X129956863Y-77674825D01*
X130024823Y-77695367D01*
X130070058Y-77747571D01*
X130123623Y-77862441D01*
X130129103Y-77871932D01*
X130159794Y-77915765D01*
X130170271Y-77924140D01*
X130183718Y-77917072D01*
X130857978Y-77242812D01*
X130865592Y-77228868D01*
X130865461Y-77227035D01*
X130861210Y-77220420D01*
X130182997Y-76542207D01*
X130171223Y-76535777D01*
X130159207Y-76545074D01*
X130129103Y-76588068D01*
X130123623Y-76597559D01*
X130070058Y-76712429D01*
X130023141Y-76765714D01*
X129954863Y-76785175D01*
X129886903Y-76764633D01*
X129841668Y-76712429D01*
X129789857Y-76601320D01*
X129789855Y-76601317D01*
X129787534Y-76596339D01*
X129660826Y-76415380D01*
X129504620Y-76259174D01*
X129500112Y-76256017D01*
X129500109Y-76256015D01*
X129377654Y-76170271D01*
X130535860Y-76170271D01*
X130542928Y-76183718D01*
X131217188Y-76857978D01*
X131231132Y-76865592D01*
X131232965Y-76865461D01*
X131239580Y-76861210D01*
X131917793Y-76182997D01*
X131924223Y-76171223D01*
X131914926Y-76159207D01*
X131871931Y-76129102D01*
X131862445Y-76123624D01*
X131671007Y-76034355D01*
X131660715Y-76030609D01*
X131456691Y-75975941D01*
X131445896Y-75974038D01*
X131235475Y-75955628D01*
X131224525Y-75955628D01*
X131014104Y-75974038D01*
X131003309Y-75975941D01*
X130799285Y-76030609D01*
X130788993Y-76034355D01*
X130597559Y-76123623D01*
X130588068Y-76129103D01*
X130544235Y-76159794D01*
X130535860Y-76170271D01*
X129377654Y-76170271D01*
X129328171Y-76135623D01*
X129328168Y-76135621D01*
X129323662Y-76132466D01*
X129318680Y-76130143D01*
X129318675Y-76130140D01*
X129128432Y-76041429D01*
X129128431Y-76041429D01*
X129123450Y-76039106D01*
X129118142Y-76037684D01*
X129118140Y-76037683D01*
X129052748Y-76020161D01*
X128910068Y-75981930D01*
X128690000Y-75962677D01*
X128469932Y-75981930D01*
X128327252Y-76020161D01*
X128261860Y-76037683D01*
X128261858Y-76037684D01*
X128256550Y-76039106D01*
X128251569Y-76041428D01*
X128251568Y-76041429D01*
X128061320Y-76130143D01*
X128061317Y-76130145D01*
X128056339Y-76132466D01*
X127875380Y-76259174D01*
X127719174Y-76415380D01*
X127592466Y-76596339D01*
X127590145Y-76601317D01*
X127590143Y-76601320D01*
X127534195Y-76721301D01*
X127487278Y-76774586D01*
X127419000Y-76794047D01*
X127351040Y-76773505D01*
X127305805Y-76721301D01*
X127249857Y-76601320D01*
X127249855Y-76601317D01*
X127247534Y-76596339D01*
X127120826Y-76415380D01*
X126964620Y-76259174D01*
X126960112Y-76256017D01*
X126960109Y-76256015D01*
X126788171Y-76135623D01*
X126788168Y-76135621D01*
X126783662Y-76132466D01*
X126778680Y-76130143D01*
X126778675Y-76130140D01*
X126588432Y-76041429D01*
X126588431Y-76041429D01*
X126583450Y-76039106D01*
X126578142Y-76037684D01*
X126578140Y-76037683D01*
X126512748Y-76020161D01*
X126370068Y-75981930D01*
X126150000Y-75962677D01*
X125929932Y-75981930D01*
X125787252Y-76020161D01*
X125721860Y-76037683D01*
X125721858Y-76037684D01*
X125716550Y-76039106D01*
X125711569Y-76041428D01*
X125711568Y-76041429D01*
X125521320Y-76130143D01*
X125521317Y-76130145D01*
X125516339Y-76132466D01*
X125335380Y-76259174D01*
X125179174Y-76415380D01*
X125052466Y-76596339D01*
X125050145Y-76601317D01*
X125050143Y-76601320D01*
X124998332Y-76712429D01*
X124951414Y-76765714D01*
X124883137Y-76785175D01*
X124815177Y-76764633D01*
X124769942Y-76712429D01*
X124716377Y-76597559D01*
X124710897Y-76588068D01*
X124680206Y-76544235D01*
X124669729Y-76535860D01*
X124656282Y-76542928D01*
X123982022Y-77217188D01*
X123974408Y-77231132D01*
X123974539Y-77232965D01*
X123978790Y-77239580D01*
X124657003Y-77917793D01*
X124668777Y-77924223D01*
X124680793Y-77914926D01*
X124710897Y-77871932D01*
X124716377Y-77862441D01*
X124769942Y-77747571D01*
X124816859Y-77694286D01*
X124885137Y-77674825D01*
X124953097Y-77695367D01*
X124998332Y-77747571D01*
X125044153Y-77845833D01*
X125052466Y-77863661D01*
X125179174Y-78044620D01*
X125335380Y-78200826D01*
X125339888Y-78203983D01*
X125339891Y-78203985D01*
X125511829Y-78324377D01*
X125516338Y-78327534D01*
X125521320Y-78329857D01*
X125521325Y-78329860D01*
X125641301Y-78385805D01*
X125694586Y-78432722D01*
X125714047Y-78500999D01*
X125693505Y-78568959D01*
X125641301Y-78614195D01*
X125521320Y-78670143D01*
X125521317Y-78670145D01*
X125516339Y-78672466D01*
X125335380Y-78799174D01*
X125179174Y-78955380D01*
X125052466Y-79136339D01*
X125050145Y-79141317D01*
X125050143Y-79141320D01*
X124994195Y-79261301D01*
X124947278Y-79314586D01*
X124879000Y-79334047D01*
X124811040Y-79313505D01*
X124765805Y-79261301D01*
X124709857Y-79141320D01*
X124709855Y-79141317D01*
X124707534Y-79136339D01*
X124580826Y-78955380D01*
X124424620Y-78799174D01*
X124420112Y-78796017D01*
X124420109Y-78796015D01*
X124248171Y-78675623D01*
X124248168Y-78675621D01*
X124243662Y-78672466D01*
X124238680Y-78670143D01*
X124238675Y-78670140D01*
X124127571Y-78618332D01*
X124074286Y-78571415D01*
X124054825Y-78503138D01*
X124075367Y-78435178D01*
X124127571Y-78389942D01*
X124242445Y-78336376D01*
X124251931Y-78330898D01*
X124295764Y-78300207D01*
X124304139Y-78289729D01*
X124297071Y-78276281D01*
X123622812Y-77602022D01*
X123608868Y-77594408D01*
X123607035Y-77594539D01*
X123600420Y-77598790D01*
X122922207Y-78277003D01*
X122915777Y-78288777D01*
X122925074Y-78300793D01*
X122968069Y-78330898D01*
X122977555Y-78336376D01*
X123092429Y-78389942D01*
X123145714Y-78436859D01*
X123165175Y-78505136D01*
X123144633Y-78573096D01*
X123092429Y-78618332D01*
X122981320Y-78670143D01*
X122981317Y-78670145D01*
X122976339Y-78672466D01*
X122795380Y-78799174D01*
X122639174Y-78955380D01*
X122512466Y-79136339D01*
X122510145Y-79141317D01*
X122510143Y-79141320D01*
X122454195Y-79261301D01*
X122407278Y-79314586D01*
X122339000Y-79334047D01*
X122271040Y-79313505D01*
X122225805Y-79261301D01*
X122169857Y-79141320D01*
X122169855Y-79141317D01*
X122167534Y-79136339D01*
X122040826Y-78955380D01*
X121884620Y-78799174D01*
X121880112Y-78796017D01*
X121880109Y-78796015D01*
X121708171Y-78675623D01*
X121708168Y-78675621D01*
X121703662Y-78672466D01*
X121698680Y-78670143D01*
X121698675Y-78670140D01*
X121578699Y-78614195D01*
X121525414Y-78567278D01*
X121505953Y-78499001D01*
X121526495Y-78431041D01*
X121578699Y-78385805D01*
X121698675Y-78329860D01*
X121698680Y-78329857D01*
X121703662Y-78327534D01*
X121708171Y-78324377D01*
X121880109Y-78203985D01*
X121880112Y-78203983D01*
X121884620Y-78200826D01*
X122040826Y-78044620D01*
X122167534Y-77863661D01*
X122175848Y-77845833D01*
X122221668Y-77747571D01*
X122268586Y-77694286D01*
X122336863Y-77674825D01*
X122404823Y-77695367D01*
X122450058Y-77747571D01*
X122503623Y-77862441D01*
X122509103Y-77871932D01*
X122539794Y-77915765D01*
X122550271Y-77924140D01*
X122563718Y-77917072D01*
X123237978Y-77242812D01*
X123245592Y-77228868D01*
X123245461Y-77227035D01*
X123241210Y-77220420D01*
X122562997Y-76542207D01*
X122551223Y-76535777D01*
X122539207Y-76545074D01*
X122509103Y-76588068D01*
X122503623Y-76597559D01*
X122450058Y-76712429D01*
X122403141Y-76765714D01*
X122334863Y-76785175D01*
X122266903Y-76764633D01*
X122221668Y-76712429D01*
X122169857Y-76601320D01*
X122169855Y-76601317D01*
X122167534Y-76596339D01*
X122040826Y-76415380D01*
X121884620Y-76259174D01*
X121880112Y-76256017D01*
X121880109Y-76256015D01*
X121757654Y-76170271D01*
X122915860Y-76170271D01*
X122922928Y-76183718D01*
X123597188Y-76857978D01*
X123611132Y-76865592D01*
X123612965Y-76865461D01*
X123619580Y-76861210D01*
X124297793Y-76182997D01*
X124304223Y-76171223D01*
X124294926Y-76159207D01*
X124251931Y-76129102D01*
X124242445Y-76123624D01*
X124051007Y-76034355D01*
X124040715Y-76030609D01*
X123836691Y-75975941D01*
X123825896Y-75974038D01*
X123615475Y-75955628D01*
X123604525Y-75955628D01*
X123394104Y-75974038D01*
X123383309Y-75975941D01*
X123179285Y-76030609D01*
X123168993Y-76034355D01*
X122977559Y-76123623D01*
X122968068Y-76129103D01*
X122924235Y-76159794D01*
X122915860Y-76170271D01*
X121757654Y-76170271D01*
X121708171Y-76135623D01*
X121708168Y-76135621D01*
X121703662Y-76132466D01*
X121698680Y-76130143D01*
X121698675Y-76130140D01*
X121508432Y-76041429D01*
X121508431Y-76041429D01*
X121503450Y-76039106D01*
X121498142Y-76037684D01*
X121498140Y-76037683D01*
X121432748Y-76020161D01*
X121290068Y-75981930D01*
X121070000Y-75962677D01*
X120849932Y-75981930D01*
X120707252Y-76020161D01*
X120641860Y-76037683D01*
X120641858Y-76037684D01*
X120636550Y-76039106D01*
X120631569Y-76041428D01*
X120631568Y-76041429D01*
X120441320Y-76130143D01*
X120441317Y-76130145D01*
X120436339Y-76132466D01*
X120255380Y-76259174D01*
X120099174Y-76415380D01*
X119972466Y-76596339D01*
X119970145Y-76601317D01*
X119970143Y-76601320D01*
X119914195Y-76721301D01*
X119867278Y-76774586D01*
X119799000Y-76794047D01*
X119731040Y-76773505D01*
X119685805Y-76721301D01*
X119629857Y-76601320D01*
X119629855Y-76601317D01*
X119627534Y-76596339D01*
X119500826Y-76415380D01*
X119344620Y-76259174D01*
X119340112Y-76256017D01*
X119340109Y-76256015D01*
X119168171Y-76135623D01*
X119168168Y-76135621D01*
X119163662Y-76132466D01*
X119158680Y-76130143D01*
X119158675Y-76130140D01*
X118968432Y-76041429D01*
X118968431Y-76041429D01*
X118963450Y-76039106D01*
X118958142Y-76037684D01*
X118958140Y-76037683D01*
X118892748Y-76020161D01*
X118750068Y-75981930D01*
X118530000Y-75962677D01*
X118309932Y-75981930D01*
X118167252Y-76020161D01*
X118101860Y-76037683D01*
X118101858Y-76037684D01*
X118096550Y-76039106D01*
X118091569Y-76041428D01*
X118091568Y-76041429D01*
X117901320Y-76130143D01*
X117901317Y-76130145D01*
X117896339Y-76132466D01*
X117715380Y-76259174D01*
X117559174Y-76415380D01*
X117432466Y-76596339D01*
X117430145Y-76601317D01*
X117430143Y-76601320D01*
X117374195Y-76721301D01*
X117327278Y-76774586D01*
X117259000Y-76794047D01*
X117191040Y-76773505D01*
X117145805Y-76721301D01*
X117089857Y-76601320D01*
X117089855Y-76601317D01*
X117087534Y-76596339D01*
X116960826Y-76415380D01*
X116804620Y-76259174D01*
X116800112Y-76256017D01*
X116800109Y-76256015D01*
X116628171Y-76135623D01*
X116628168Y-76135621D01*
X116623662Y-76132466D01*
X116618680Y-76130143D01*
X116618675Y-76130140D01*
X116428432Y-76041429D01*
X116428431Y-76041429D01*
X116423450Y-76039106D01*
X116418142Y-76037684D01*
X116418140Y-76037683D01*
X116352748Y-76020161D01*
X116210068Y-75981930D01*
X115990000Y-75962677D01*
X115769932Y-75981930D01*
X115627252Y-76020161D01*
X115561860Y-76037683D01*
X115561858Y-76037684D01*
X115556550Y-76039106D01*
X115551569Y-76041428D01*
X115551568Y-76041429D01*
X115361320Y-76130143D01*
X115361317Y-76130145D01*
X115356339Y-76132466D01*
X115175380Y-76259174D01*
X115019174Y-76415380D01*
X114892466Y-76596339D01*
X114890145Y-76601317D01*
X114890143Y-76601320D01*
X114838332Y-76712429D01*
X114791414Y-76765714D01*
X114723137Y-76785175D01*
X114655177Y-76764633D01*
X114609942Y-76712429D01*
X114556377Y-76597559D01*
X114550897Y-76588068D01*
X114520206Y-76544235D01*
X114509729Y-76535860D01*
X114496282Y-76542928D01*
X113822022Y-77217188D01*
X113814408Y-77231132D01*
X113814539Y-77232965D01*
X113818790Y-77239580D01*
X114497003Y-77917793D01*
X114508777Y-77924223D01*
X114520793Y-77914926D01*
X114550897Y-77871932D01*
X114556377Y-77862441D01*
X114609942Y-77747571D01*
X114656859Y-77694286D01*
X114725137Y-77674825D01*
X114793097Y-77695367D01*
X114838332Y-77747571D01*
X114884153Y-77845833D01*
X114892466Y-77863661D01*
X115019174Y-78044620D01*
X115175380Y-78200826D01*
X115179888Y-78203983D01*
X115179891Y-78203985D01*
X115351829Y-78324377D01*
X115356338Y-78327534D01*
X115361320Y-78329857D01*
X115361325Y-78329860D01*
X115481301Y-78385805D01*
X115534586Y-78432722D01*
X115554047Y-78500999D01*
X115533505Y-78568959D01*
X115481301Y-78614195D01*
X115361320Y-78670143D01*
X115361317Y-78670145D01*
X115356339Y-78672466D01*
X115175380Y-78799174D01*
X115019174Y-78955380D01*
X114892466Y-79136339D01*
X114890145Y-79141317D01*
X114890143Y-79141320D01*
X114834195Y-79261301D01*
X114787278Y-79314586D01*
X114719000Y-79334047D01*
X114651040Y-79313505D01*
X114605805Y-79261301D01*
X114549857Y-79141320D01*
X114549855Y-79141317D01*
X114547534Y-79136339D01*
X114420826Y-78955380D01*
X114264620Y-78799174D01*
X114260112Y-78796017D01*
X114260109Y-78796015D01*
X114088171Y-78675623D01*
X114088168Y-78675621D01*
X114083662Y-78672466D01*
X114078680Y-78670143D01*
X114078675Y-78670140D01*
X113967571Y-78618332D01*
X113914286Y-78571415D01*
X113894825Y-78503138D01*
X113915367Y-78435178D01*
X113967571Y-78389942D01*
X114082445Y-78336376D01*
X114091931Y-78330898D01*
X114135764Y-78300207D01*
X114144139Y-78289729D01*
X114137071Y-78276281D01*
X113462812Y-77602022D01*
X113448868Y-77594408D01*
X113447035Y-77594539D01*
X113440420Y-77598790D01*
X112762207Y-78277003D01*
X112755777Y-78288777D01*
X112765074Y-78300793D01*
X112808069Y-78330898D01*
X112817555Y-78336376D01*
X112932429Y-78389942D01*
X112985714Y-78436859D01*
X113005175Y-78505136D01*
X112984633Y-78573096D01*
X112932429Y-78618332D01*
X112821320Y-78670143D01*
X112821317Y-78670145D01*
X112816339Y-78672466D01*
X112635380Y-78799174D01*
X112479174Y-78955380D01*
X112352466Y-79136339D01*
X112350145Y-79141317D01*
X112350143Y-79141320D01*
X112294195Y-79261301D01*
X112247278Y-79314586D01*
X112179000Y-79334047D01*
X112111040Y-79313505D01*
X112065805Y-79261301D01*
X112009857Y-79141320D01*
X112009855Y-79141317D01*
X112007534Y-79136339D01*
X111880826Y-78955380D01*
X111724620Y-78799174D01*
X111720112Y-78796017D01*
X111720109Y-78796015D01*
X111548171Y-78675623D01*
X111548168Y-78675621D01*
X111543662Y-78672466D01*
X111538680Y-78670143D01*
X111538675Y-78670140D01*
X111418699Y-78614195D01*
X111365414Y-78567278D01*
X111345953Y-78499001D01*
X111366495Y-78431041D01*
X111418699Y-78385805D01*
X111538675Y-78329860D01*
X111538680Y-78329857D01*
X111543662Y-78327534D01*
X111548171Y-78324377D01*
X111720109Y-78203985D01*
X111720112Y-78203983D01*
X111724620Y-78200826D01*
X111880826Y-78044620D01*
X112007534Y-77863661D01*
X112015848Y-77845833D01*
X112061668Y-77747571D01*
X112108586Y-77694286D01*
X112176863Y-77674825D01*
X112244823Y-77695367D01*
X112290058Y-77747571D01*
X112343623Y-77862441D01*
X112349103Y-77871932D01*
X112379794Y-77915765D01*
X112390271Y-77924140D01*
X112403718Y-77917072D01*
X113077978Y-77242812D01*
X113085592Y-77228868D01*
X113085461Y-77227035D01*
X113081210Y-77220420D01*
X112402997Y-76542207D01*
X112391223Y-76535777D01*
X112379207Y-76545074D01*
X112349103Y-76588068D01*
X112343623Y-76597559D01*
X112290058Y-76712429D01*
X112243141Y-76765714D01*
X112174863Y-76785175D01*
X112106903Y-76764633D01*
X112061668Y-76712429D01*
X112009857Y-76601320D01*
X112009855Y-76601317D01*
X112007534Y-76596339D01*
X111880826Y-76415380D01*
X111724620Y-76259174D01*
X111720112Y-76256017D01*
X111720109Y-76256015D01*
X111597654Y-76170271D01*
X112755860Y-76170271D01*
X112762928Y-76183718D01*
X113437188Y-76857978D01*
X113451132Y-76865592D01*
X113452965Y-76865461D01*
X113459580Y-76861210D01*
X114137793Y-76182997D01*
X114144223Y-76171223D01*
X114134926Y-76159207D01*
X114091931Y-76129102D01*
X114082445Y-76123624D01*
X113891007Y-76034355D01*
X113880715Y-76030609D01*
X113676691Y-75975941D01*
X113665896Y-75974038D01*
X113455475Y-75955628D01*
X113444525Y-75955628D01*
X113234104Y-75974038D01*
X113223309Y-75975941D01*
X113019285Y-76030609D01*
X113008993Y-76034355D01*
X112817559Y-76123623D01*
X112808068Y-76129103D01*
X112764235Y-76159794D01*
X112755860Y-76170271D01*
X111597654Y-76170271D01*
X111548171Y-76135623D01*
X111548168Y-76135621D01*
X111543662Y-76132466D01*
X111538680Y-76130143D01*
X111538675Y-76130140D01*
X111348432Y-76041429D01*
X111348431Y-76041429D01*
X111343450Y-76039106D01*
X111338142Y-76037684D01*
X111338140Y-76037683D01*
X111272748Y-76020161D01*
X111130068Y-75981930D01*
X110910000Y-75962677D01*
X110689932Y-75981930D01*
X110547252Y-76020161D01*
X110481860Y-76037683D01*
X110481858Y-76037684D01*
X110476550Y-76039106D01*
X110471569Y-76041428D01*
X110471568Y-76041429D01*
X110281320Y-76130143D01*
X110281317Y-76130145D01*
X110276339Y-76132466D01*
X110095380Y-76259174D01*
X109939174Y-76415380D01*
X109812466Y-76596339D01*
X109810145Y-76601317D01*
X109810143Y-76601320D01*
X109754195Y-76721301D01*
X109707278Y-76774586D01*
X109639000Y-76794047D01*
X109571040Y-76773505D01*
X109525805Y-76721301D01*
X109469857Y-76601320D01*
X109469855Y-76601317D01*
X109467534Y-76596339D01*
X109340826Y-76415380D01*
X109184620Y-76259174D01*
X109180112Y-76256017D01*
X109180109Y-76256015D01*
X109008171Y-76135623D01*
X109008168Y-76135621D01*
X109003662Y-76132466D01*
X108998680Y-76130143D01*
X108998675Y-76130140D01*
X108808432Y-76041429D01*
X108808431Y-76041429D01*
X108803450Y-76039106D01*
X108798142Y-76037684D01*
X108798140Y-76037683D01*
X108732748Y-76020161D01*
X108590068Y-75981930D01*
X108370000Y-75962677D01*
X108149932Y-75981930D01*
X108007252Y-76020161D01*
X107941860Y-76037683D01*
X107941858Y-76037684D01*
X107936550Y-76039106D01*
X107931569Y-76041428D01*
X107931568Y-76041429D01*
X107741320Y-76130143D01*
X107741317Y-76130145D01*
X107736339Y-76132466D01*
X107555380Y-76259174D01*
X107399174Y-76415380D01*
X107272466Y-76596339D01*
X107270145Y-76601317D01*
X107270143Y-76601320D01*
X107225396Y-76697280D01*
X107179106Y-76796550D01*
X107121930Y-77009932D01*
X107119865Y-77033535D01*
X107106898Y-77181751D01*
X107081035Y-77247869D01*
X107023531Y-77289508D01*
X106952644Y-77293449D01*
X106890879Y-77258440D01*
X106863746Y-77215923D01*
X106794918Y-77036620D01*
X106793734Y-77033535D01*
X106704283Y-76857978D01*
X106623902Y-76700221D01*
X106623898Y-76700214D01*
X106622403Y-76697280D01*
X106416863Y-76380775D01*
X106179365Y-76087489D01*
X105912511Y-75820635D01*
X105619225Y-75583137D01*
X105302721Y-75377597D01*
X105299787Y-75376102D01*
X105299780Y-75376098D01*
X104969405Y-75207764D01*
X104966465Y-75206266D01*
X104614143Y-75071022D01*
X104249613Y-74973347D01*
X104051647Y-74941992D01*
X103880119Y-74914824D01*
X103880111Y-74914823D01*
X103876871Y-74914310D01*
X103500000Y-74894559D01*
X103123129Y-74914310D01*
X103119889Y-74914823D01*
X103119881Y-74914824D01*
X102948353Y-74941992D01*
X102750387Y-74973347D01*
X102385857Y-75071022D01*
X102033535Y-75206266D01*
X102030595Y-75207764D01*
X101700221Y-75376098D01*
X101700214Y-75376102D01*
X101697280Y-75377597D01*
X101380775Y-75583137D01*
X101087489Y-75820635D01*
X100820635Y-76087489D01*
X100724418Y-76206307D01*
X100666006Y-76246657D01*
X100595049Y-76249023D01*
X100534077Y-76212650D01*
X100502449Y-76149088D01*
X100500500Y-76127011D01*
X100500500Y-71750000D01*
X113844540Y-71750000D01*
X113845230Y-71756565D01*
X113860214Y-71899128D01*
X113864326Y-71938256D01*
X113922821Y-72118284D01*
X114017467Y-72282216D01*
X114144129Y-72422888D01*
X114297270Y-72534151D01*
X114470197Y-72611144D01*
X114568212Y-72631978D01*
X114648897Y-72649128D01*
X114648901Y-72649128D01*
X114655354Y-72650500D01*
X114844646Y-72650500D01*
X114851099Y-72649128D01*
X114851103Y-72649128D01*
X114931788Y-72631978D01*
X115029803Y-72611144D01*
X115202730Y-72534151D01*
X115355871Y-72422888D01*
X115482533Y-72282216D01*
X115577179Y-72118284D01*
X115635674Y-71938256D01*
X115639787Y-71899128D01*
X115654770Y-71756565D01*
X115655460Y-71750000D01*
X115635674Y-71561744D01*
X115577179Y-71381716D01*
X115565796Y-71361999D01*
X115485836Y-71223505D01*
X115482533Y-71217784D01*
X115455946Y-71188256D01*
X115360286Y-71082015D01*
X115360284Y-71082014D01*
X115355871Y-71077112D01*
X115202730Y-70965849D01*
X115029803Y-70888856D01*
X114931788Y-70868022D01*
X114851103Y-70850872D01*
X114851099Y-70850872D01*
X114844646Y-70849500D01*
X114655354Y-70849500D01*
X114648901Y-70850872D01*
X114648897Y-70850872D01*
X114568212Y-70868022D01*
X114470197Y-70888856D01*
X114297270Y-70965849D01*
X114144129Y-71077112D01*
X114139716Y-71082014D01*
X114139714Y-71082015D01*
X114044054Y-71188256D01*
X114017467Y-71217784D01*
X114014164Y-71223505D01*
X113934205Y-71361999D01*
X113922821Y-71381716D01*
X113864326Y-71561744D01*
X113844540Y-71750000D01*
X100500500Y-71750000D01*
X100500500Y-68886915D01*
X173595119Y-68886915D01*
X173595416Y-68892067D01*
X173595416Y-68892071D01*
X173600864Y-68986546D01*
X173608376Y-69116830D01*
X173609513Y-69121876D01*
X173609514Y-69121882D01*
X173631226Y-69218225D01*
X173659006Y-69341492D01*
X173660948Y-69346274D01*
X173660949Y-69346278D01*
X173698427Y-69438575D01*
X173745649Y-69554868D01*
X173865979Y-69751228D01*
X174016763Y-69925298D01*
X174193953Y-70072404D01*
X174341766Y-70158779D01*
X174390488Y-70210417D01*
X174403559Y-70280200D01*
X174376827Y-70345972D01*
X174371830Y-70351876D01*
X174271890Y-70462871D01*
X174271887Y-70462875D01*
X174267467Y-70467784D01*
X174172821Y-70631716D01*
X174114326Y-70811744D01*
X174113636Y-70818305D01*
X174113636Y-70818307D01*
X174106366Y-70887483D01*
X174094540Y-71000000D01*
X174114326Y-71188256D01*
X174172821Y-71368284D01*
X174176124Y-71374006D01*
X174176125Y-71374007D01*
X174257232Y-71514488D01*
X174267467Y-71532216D01*
X174271885Y-71537123D01*
X174271886Y-71537124D01*
X174299964Y-71568307D01*
X174394129Y-71672888D01*
X174547270Y-71784151D01*
X174720197Y-71861144D01*
X174818212Y-71881978D01*
X174898897Y-71899128D01*
X174898901Y-71899128D01*
X174905354Y-71900500D01*
X175094646Y-71900500D01*
X175101099Y-71899128D01*
X175101103Y-71899128D01*
X175181788Y-71881978D01*
X175279803Y-71861144D01*
X175452730Y-71784151D01*
X175605871Y-71672888D01*
X175700037Y-71568307D01*
X175728114Y-71537124D01*
X175728115Y-71537123D01*
X175732533Y-71532216D01*
X175742768Y-71514488D01*
X175823875Y-71374007D01*
X175823876Y-71374006D01*
X175827179Y-71368284D01*
X175885674Y-71188256D01*
X175905460Y-71000000D01*
X175893634Y-70887483D01*
X175886364Y-70818307D01*
X175886364Y-70818305D01*
X175885674Y-70811744D01*
X175827179Y-70631716D01*
X175732533Y-70467784D01*
X175628166Y-70351873D01*
X175597449Y-70287865D01*
X175606213Y-70217411D01*
X175651675Y-70162880D01*
X175666369Y-70154411D01*
X175714930Y-70130621D01*
X175714929Y-70130621D01*
X175719574Y-70128346D01*
X175907062Y-69994613D01*
X176070190Y-69832053D01*
X176128269Y-69751228D01*
X176201559Y-69649233D01*
X176204577Y-69645033D01*
X176306615Y-69438575D01*
X176337643Y-69336450D01*
X176372059Y-69223177D01*
X176372060Y-69223171D01*
X176373563Y-69218225D01*
X176403622Y-68989899D01*
X176405300Y-68921250D01*
X176386430Y-68691728D01*
X176330326Y-68468370D01*
X176238496Y-68257174D01*
X176113405Y-68063813D01*
X176109924Y-68059987D01*
X176015986Y-67956751D01*
X175984934Y-67892905D01*
X175993329Y-67822406D01*
X176038505Y-67767638D01*
X176064950Y-67753969D01*
X176134421Y-67727926D01*
X176134420Y-67727926D01*
X176142824Y-67724776D01*
X176150003Y-67719396D01*
X176150006Y-67719394D01*
X176250365Y-67644178D01*
X176257546Y-67638796D01*
X176262928Y-67631615D01*
X176338144Y-67531256D01*
X176338146Y-67531253D01*
X176343526Y-67524074D01*
X176393851Y-67389830D01*
X176400500Y-67328627D01*
X176400499Y-65433874D01*
X176400130Y-65430474D01*
X176394705Y-65380528D01*
X176394704Y-65380524D01*
X176393851Y-65372670D01*
X176343526Y-65238426D01*
X176338146Y-65231247D01*
X176338144Y-65231244D01*
X176262928Y-65130885D01*
X176257546Y-65123704D01*
X176205733Y-65084872D01*
X176150006Y-65043106D01*
X176150003Y-65043104D01*
X176142824Y-65037724D01*
X176039382Y-64998946D01*
X176015975Y-64990171D01*
X176015973Y-64990171D01*
X176008580Y-64987399D01*
X176000730Y-64986546D01*
X176000729Y-64986546D01*
X175950774Y-64981119D01*
X175950773Y-64981119D01*
X175947377Y-64980750D01*
X175000139Y-64980750D01*
X174052624Y-64980751D01*
X174049230Y-64981120D01*
X174049224Y-64981120D01*
X173999278Y-64986545D01*
X173999274Y-64986546D01*
X173991420Y-64987399D01*
X173857176Y-65037724D01*
X173849997Y-65043104D01*
X173849994Y-65043106D01*
X173794267Y-65084872D01*
X173742454Y-65123704D01*
X173737072Y-65130885D01*
X173661856Y-65231244D01*
X173661854Y-65231247D01*
X173656474Y-65238426D01*
X173606149Y-65372670D01*
X173599500Y-65433873D01*
X173599501Y-67328626D01*
X173606149Y-67389830D01*
X173656474Y-67524074D01*
X173661854Y-67531253D01*
X173661856Y-67531256D01*
X173737072Y-67631615D01*
X173742454Y-67638796D01*
X173749635Y-67644178D01*
X173849994Y-67719394D01*
X173849997Y-67719396D01*
X173857176Y-67724776D01*
X173865580Y-67727926D01*
X173865579Y-67727926D01*
X173935322Y-67754071D01*
X173992087Y-67796712D01*
X174016787Y-67863273D01*
X174001580Y-67932622D01*
X173982187Y-67959104D01*
X173911449Y-68033128D01*
X173907877Y-68036866D01*
X173778099Y-68227113D01*
X173775923Y-68231802D01*
X173775919Y-68231808D01*
X173764145Y-68257174D01*
X173681136Y-68436002D01*
X173619592Y-68657923D01*
X173595119Y-68886915D01*
X100500500Y-68886915D01*
X100500500Y-65090654D01*
X152123133Y-65090654D01*
X152124112Y-65096351D01*
X152124112Y-65096352D01*
X152148525Y-65238426D01*
X152158941Y-65299047D01*
X152232127Y-65497425D01*
X152340238Y-65679144D01*
X152479655Y-65838119D01*
X152645708Y-65969024D01*
X152650819Y-65971713D01*
X152650822Y-65971715D01*
X152745638Y-66021600D01*
X152832836Y-66067477D01*
X153034773Y-66130180D01*
X153040510Y-66130859D01*
X153202768Y-66150064D01*
X153202775Y-66150064D01*
X153206455Y-66150500D01*
X153328641Y-66150500D01*
X153485560Y-66136081D01*
X153491122Y-66134512D01*
X153491124Y-66134512D01*
X153547225Y-66118690D01*
X153689069Y-66078686D01*
X153694247Y-66076133D01*
X153694251Y-66076131D01*
X153873531Y-65987719D01*
X153878710Y-65985165D01*
X154048133Y-65858651D01*
X154162360Y-65735081D01*
X154187743Y-65707622D01*
X154187745Y-65707620D01*
X154191663Y-65703381D01*
X154204215Y-65683488D01*
X154301416Y-65529434D01*
X154301416Y-65529433D01*
X154304495Y-65524554D01*
X154382848Y-65328160D01*
X154383973Y-65322503D01*
X154383975Y-65322497D01*
X154422972Y-65126442D01*
X154422972Y-65126440D01*
X154424099Y-65120775D01*
X154424494Y-65090654D01*
X154425774Y-64992806D01*
X159694563Y-64992806D01*
X159696430Y-65013322D01*
X159706476Y-65123704D01*
X159712790Y-65193089D01*
X159714528Y-65198995D01*
X159714529Y-65198999D01*
X159726133Y-65238426D01*
X159769572Y-65386018D01*
X159862746Y-65564243D01*
X159988763Y-65720976D01*
X160142823Y-65850248D01*
X160148215Y-65853212D01*
X160148219Y-65853215D01*
X160293200Y-65932918D01*
X160319058Y-65947134D01*
X160324925Y-65948995D01*
X160324927Y-65948996D01*
X160504885Y-66006082D01*
X160510755Y-66007944D01*
X160667268Y-66025500D01*
X160775606Y-66025500D01*
X160925151Y-66010837D01*
X161117679Y-65952710D01*
X161133744Y-65944168D01*
X161289803Y-65861190D01*
X161289805Y-65861189D01*
X161295249Y-65858294D01*
X161353135Y-65811083D01*
X161446324Y-65735081D01*
X161446327Y-65735078D01*
X161451099Y-65731186D01*
X161456269Y-65724937D01*
X161575363Y-65580977D01*
X161575365Y-65580974D01*
X161579292Y-65576227D01*
X161674945Y-65399320D01*
X161707748Y-65293350D01*
X161732593Y-65213090D01*
X161732594Y-65213087D01*
X161734415Y-65207203D01*
X161735899Y-65193089D01*
X161754793Y-65013322D01*
X161754793Y-65013321D01*
X161755437Y-65007194D01*
X161743275Y-64873558D01*
X161737769Y-64813050D01*
X161737768Y-64813047D01*
X161737210Y-64806911D01*
X161731324Y-64786910D01*
X161682167Y-64619891D01*
X161680428Y-64613982D01*
X161587254Y-64435757D01*
X161461237Y-64279024D01*
X161307177Y-64149752D01*
X161301785Y-64146788D01*
X161301781Y-64146785D01*
X161136337Y-64055832D01*
X161136338Y-64055832D01*
X161130942Y-64052866D01*
X161125075Y-64051005D01*
X161125073Y-64051004D01*
X160945115Y-63993918D01*
X160945114Y-63993918D01*
X160939245Y-63992056D01*
X160782732Y-63974500D01*
X160674394Y-63974500D01*
X160524849Y-63989163D01*
X160332321Y-64047290D01*
X160326880Y-64050183D01*
X160160197Y-64138810D01*
X160160195Y-64138811D01*
X160154751Y-64141706D01*
X160130014Y-64161881D01*
X160003676Y-64264919D01*
X160003673Y-64264922D01*
X159998901Y-64268814D01*
X159994974Y-64273561D01*
X159994972Y-64273563D01*
X159874637Y-64419023D01*
X159874635Y-64419026D01*
X159870708Y-64423773D01*
X159775055Y-64600680D01*
X159769108Y-64619891D01*
X159719463Y-64780270D01*
X159715585Y-64792797D01*
X159714941Y-64798922D01*
X159714941Y-64798923D01*
X159704409Y-64899128D01*
X159694563Y-64992806D01*
X154425774Y-64992806D01*
X154426791Y-64915128D01*
X154426867Y-64909346D01*
X154418820Y-64862517D01*
X154392038Y-64706650D01*
X154392038Y-64706649D01*
X154391059Y-64700953D01*
X154317873Y-64502575D01*
X154268165Y-64419023D01*
X154212716Y-64325821D01*
X154212715Y-64325820D01*
X154209762Y-64320856D01*
X154070345Y-64161881D01*
X153904292Y-64030976D01*
X153899181Y-64028287D01*
X153899178Y-64028285D01*
X153796949Y-63974500D01*
X153717164Y-63932523D01*
X153515227Y-63869820D01*
X153500801Y-63868113D01*
X153347232Y-63849936D01*
X153347225Y-63849936D01*
X153343545Y-63849500D01*
X153221359Y-63849500D01*
X153064440Y-63863919D01*
X153058878Y-63865488D01*
X153058876Y-63865488D01*
X153002775Y-63881310D01*
X152860931Y-63921314D01*
X152855753Y-63923867D01*
X152855749Y-63923869D01*
X152752284Y-63974893D01*
X152671290Y-64014835D01*
X152501867Y-64141349D01*
X152409090Y-64241714D01*
X152374602Y-64279024D01*
X152358337Y-64296619D01*
X152355256Y-64301502D01*
X152273578Y-64430954D01*
X152245505Y-64475446D01*
X152167152Y-64671840D01*
X152166027Y-64677497D01*
X152166025Y-64677503D01*
X152140285Y-64806911D01*
X152125901Y-64879225D01*
X152125825Y-64885000D01*
X152125825Y-64885004D01*
X152125431Y-64915128D01*
X152123133Y-65090654D01*
X100500500Y-65090654D01*
X100500500Y-64000000D01*
X118344540Y-64000000D01*
X118345230Y-64006565D01*
X118361179Y-64158310D01*
X118364326Y-64188256D01*
X118422821Y-64368284D01*
X118426124Y-64374006D01*
X118426125Y-64374007D01*
X118457987Y-64429194D01*
X118517467Y-64532216D01*
X118521885Y-64537123D01*
X118521886Y-64537124D01*
X118638356Y-64666476D01*
X118644129Y-64672888D01*
X118797270Y-64784151D01*
X118970197Y-64861144D01*
X119055262Y-64879225D01*
X119148897Y-64899128D01*
X119148901Y-64899128D01*
X119155354Y-64900500D01*
X119344646Y-64900500D01*
X119351099Y-64899128D01*
X119351103Y-64899128D01*
X119444738Y-64879225D01*
X119529803Y-64861144D01*
X119702730Y-64784151D01*
X119855871Y-64672888D01*
X119861645Y-64666476D01*
X119978114Y-64537124D01*
X119978115Y-64537123D01*
X119982533Y-64532216D01*
X120042013Y-64429194D01*
X120073875Y-64374007D01*
X120073876Y-64374006D01*
X120077179Y-64368284D01*
X120135674Y-64188256D01*
X120138822Y-64158310D01*
X120154770Y-64006565D01*
X120155460Y-64000000D01*
X120135674Y-63811744D01*
X120077179Y-63631716D01*
X119982533Y-63467784D01*
X119855871Y-63327112D01*
X119702730Y-63215849D01*
X119529803Y-63138856D01*
X119431788Y-63118022D01*
X119351103Y-63100872D01*
X119351099Y-63100872D01*
X119344646Y-63099500D01*
X119155354Y-63099500D01*
X119148901Y-63100872D01*
X119148897Y-63100872D01*
X119068212Y-63118022D01*
X118970197Y-63138856D01*
X118797270Y-63215849D01*
X118644129Y-63327112D01*
X118517467Y-63467784D01*
X118422821Y-63631716D01*
X118364326Y-63811744D01*
X118344540Y-64000000D01*
X100500500Y-64000000D01*
X100500500Y-61000000D01*
X137594540Y-61000000D01*
X137614326Y-61188256D01*
X137672821Y-61368284D01*
X137767467Y-61532216D01*
X137894129Y-61672888D01*
X138047270Y-61784151D01*
X138220197Y-61861144D01*
X138318212Y-61881978D01*
X138398897Y-61899128D01*
X138398901Y-61899128D01*
X138405354Y-61900500D01*
X138594646Y-61900500D01*
X138601099Y-61899128D01*
X138601103Y-61899128D01*
X138681788Y-61881978D01*
X138779803Y-61861144D01*
X138952730Y-61784151D01*
X139105871Y-61672888D01*
X139232533Y-61532216D01*
X139327179Y-61368284D01*
X139385674Y-61188256D01*
X139405460Y-61000000D01*
X141594540Y-61000000D01*
X141614326Y-61188256D01*
X141672821Y-61368284D01*
X141767467Y-61532216D01*
X141894129Y-61672888D01*
X142047270Y-61784151D01*
X142220197Y-61861144D01*
X142318212Y-61881978D01*
X142398897Y-61899128D01*
X142398901Y-61899128D01*
X142405354Y-61900500D01*
X142594646Y-61900500D01*
X142601099Y-61899128D01*
X142601103Y-61899128D01*
X142681788Y-61881978D01*
X142779803Y-61861144D01*
X142952730Y-61784151D01*
X143105871Y-61672888D01*
X143232533Y-61532216D01*
X143327179Y-61368284D01*
X143385674Y-61188256D01*
X143405460Y-61000000D01*
X143385674Y-60811744D01*
X143327179Y-60631716D01*
X143232533Y-60467784D01*
X143105871Y-60327112D01*
X142952730Y-60215849D01*
X142779803Y-60138856D01*
X142681788Y-60118022D01*
X142601103Y-60100872D01*
X142601099Y-60100872D01*
X142594646Y-60099500D01*
X142405354Y-60099500D01*
X142398901Y-60100872D01*
X142398897Y-60100872D01*
X142318212Y-60118022D01*
X142220197Y-60138856D01*
X142047270Y-60215849D01*
X141894129Y-60327112D01*
X141767467Y-60467784D01*
X141672821Y-60631716D01*
X141614326Y-60811744D01*
X141594540Y-61000000D01*
X139405460Y-61000000D01*
X139385674Y-60811744D01*
X139327179Y-60631716D01*
X139232533Y-60467784D01*
X139105871Y-60327112D01*
X138952730Y-60215849D01*
X138779803Y-60138856D01*
X138681788Y-60118022D01*
X138601103Y-60100872D01*
X138601099Y-60100872D01*
X138594646Y-60099500D01*
X138405354Y-60099500D01*
X138398901Y-60100872D01*
X138398897Y-60100872D01*
X138318212Y-60118022D01*
X138220197Y-60138856D01*
X138047270Y-60215849D01*
X137894129Y-60327112D01*
X137767467Y-60467784D01*
X137672821Y-60631716D01*
X137614326Y-60811744D01*
X137594540Y-61000000D01*
X100500500Y-61000000D01*
X100500500Y-58000000D01*
X141619540Y-58000000D01*
X141639326Y-58188256D01*
X141697821Y-58368284D01*
X141792467Y-58532216D01*
X141919129Y-58672888D01*
X142072270Y-58784151D01*
X142245197Y-58861144D01*
X142343212Y-58881978D01*
X142423897Y-58899128D01*
X142423901Y-58899128D01*
X142430354Y-58900500D01*
X142619646Y-58900500D01*
X142626099Y-58899128D01*
X142626103Y-58899128D01*
X142706788Y-58881978D01*
X142804803Y-58861144D01*
X142977730Y-58784151D01*
X143130871Y-58672888D01*
X143257533Y-58532216D01*
X143352179Y-58368284D01*
X143410674Y-58188256D01*
X143430460Y-58000000D01*
X143410674Y-57811744D01*
X143352179Y-57631716D01*
X143257533Y-57467784D01*
X143130871Y-57327112D01*
X142977730Y-57215849D01*
X142804803Y-57138856D01*
X142706788Y-57118022D01*
X142626103Y-57100872D01*
X142626099Y-57100872D01*
X142619646Y-57099500D01*
X142430354Y-57099500D01*
X142423901Y-57100872D01*
X142423897Y-57100872D01*
X142343212Y-57118022D01*
X142245197Y-57138856D01*
X142072270Y-57215849D01*
X141919129Y-57327112D01*
X141792467Y-57467784D01*
X141697821Y-57631716D01*
X141639326Y-57811744D01*
X141619540Y-58000000D01*
X100500500Y-58000000D01*
X100500500Y-54126500D01*
X100520502Y-54058379D01*
X100574158Y-54011886D01*
X100626500Y-54000500D01*
X184373500Y-54000500D01*
X184441621Y-54020502D01*
G37*
%TD.AperFunction*%
%TD*%
M02*
