%TF.GenerationSoftware,KiCad,Pcbnew,(6.0.7)*%
%TF.CreationDate,2022-12-06T03:37:50-06:00*%
%TF.ProjectId,Narwal_v1,4e617277-616c-45f7-9631-2e6b69636164,1*%
%TF.SameCoordinates,Original*%
%TF.FileFunction,Copper,L4,Bot*%
%TF.FilePolarity,Positive*%
%FSLAX46Y46*%
G04 Gerber Fmt 4.6, Leading zero omitted, Abs format (unit mm)*
G04 Created by KiCad (PCBNEW (6.0.7)) date 2022-12-06 03:37:50*
%MOMM*%
%LPD*%
G01*
G04 APERTURE LIST*
%TA.AperFunction,Profile*%
%ADD10C,0.100000*%
%TD*%
%TA.AperFunction,Profile*%
%ADD11C,0.120000*%
%TD*%
%TA.AperFunction,ComponentPad*%
%ADD12R,2.480000X2.480000*%
%TD*%
%TA.AperFunction,ComponentPad*%
%ADD13C,2.480000*%
%TD*%
%TA.AperFunction,ComponentPad*%
%ADD14R,1.524000X1.524000*%
%TD*%
%TA.AperFunction,ComponentPad*%
%ADD15C,1.524000*%
%TD*%
%TA.AperFunction,ComponentPad*%
%ADD16C,1.508000*%
%TD*%
%TA.AperFunction,ComponentPad*%
%ADD17C,1.920000*%
%TD*%
%TA.AperFunction,ComponentPad*%
%ADD18R,1.800000X1.800000*%
%TD*%
%TA.AperFunction,ComponentPad*%
%ADD19C,1.800000*%
%TD*%
%TA.AperFunction,SMDPad,CuDef*%
%ADD20R,4.500000X2.300000*%
%TD*%
%TA.AperFunction,ViaPad*%
%ADD21C,0.800000*%
%TD*%
%TA.AperFunction,Conductor*%
%ADD22C,0.250000*%
%TD*%
%TA.AperFunction,Conductor*%
%ADD23C,0.500000*%
%TD*%
%TA.AperFunction,Conductor*%
%ADD24C,0.300000*%
%TD*%
G04 APERTURE END LIST*
D10*
X100000000Y-50000000D02*
X185000000Y-50000000D01*
X185000000Y-50000000D02*
X185000000Y-150000000D01*
X185000000Y-150000000D02*
X100000000Y-150000000D01*
X100000000Y-150000000D02*
X100000000Y-50000000D01*
D11*
%TO.C,A1*%
X162875000Y-75000000D02*
G75*
G03*
X162875000Y-75000000I-1375000J0D01*
G01*
X162875000Y-124000000D02*
G75*
G03*
X162875000Y-124000000I-1375000J0D01*
G01*
X104875000Y-124000000D02*
G75*
G03*
X104875000Y-124000000I-1375000J0D01*
G01*
X104875000Y-75000000D02*
G75*
G03*
X104875000Y-75000000I-1375000J0D01*
G01*
%TD*%
D12*
%TO.P,SW1,1,A*%
%TO.N,+5V*%
X147977500Y-87227500D03*
D13*
%TO.P,SW1,2,B*%
%TO.N,Net-(C8-Pad1)*%
X152577500Y-87227500D03*
%TD*%
D14*
%TO.P,A1,1,3V3[1]*%
%TO.N,unconnected-(A1-Pad1)*%
X108370000Y-76270000D03*
D15*
%TO.P,A1,2,5V[1]*%
%TO.N,+5V*%
X108370000Y-73730000D03*
%TO.P,A1,3,GPIO2/SDA*%
%TO.N,SDA*%
X110910000Y-76270000D03*
%TO.P,A1,4,5V[2]*%
%TO.N,+5V*%
X110910000Y-73730000D03*
%TO.P,A1,5,GPIO3/SCL*%
%TO.N,SCL*%
X113450000Y-76270000D03*
%TO.P,A1,6,GND[8]*%
%TO.N,GND*%
X113450000Y-73730000D03*
%TO.P,A1,7,GPIO4/GPCKL0*%
%TO.N,unconnected-(A1-Pad7)*%
X115990000Y-76270000D03*
%TO.P,A1,8,TXD0/GPIO14*%
%TO.N,unconnected-(A1-Pad8)*%
X115990000Y-73730000D03*
%TO.P,A1,9,GND[1]*%
%TO.N,GND*%
X118530000Y-76270000D03*
%TO.P,A1,10,RXD0/GPIO15*%
%TO.N,unconnected-(A1-Pad10)*%
X118530000Y-73730000D03*
%TO.P,A1,11,GPIO17/GEN0*%
%TO.N,RST-RTC*%
X121070000Y-76270000D03*
%TO.P,A1,12,GPIO18*%
%TO.N,unconnected-(A1-Pad12)*%
X121070000Y-73730000D03*
%TO.P,A1,13,GPIO27/GEN2*%
%TO.N,unconnected-(A1-Pad13)*%
X123610000Y-76270000D03*
%TO.P,A1,14,GND[4]*%
%TO.N,GND*%
X123610000Y-73730000D03*
%TO.P,A1,15,GPIO22/GEN3*%
%TO.N,unconnected-(A1-Pad15)*%
X126150000Y-76270000D03*
%TO.P,A1,16,GEN4/GPIO23*%
%TO.N,RST-TRX*%
X126150000Y-73730000D03*
%TO.P,A1,17,3V3[2]*%
%TO.N,+3.3V*%
X128690000Y-76270000D03*
%TO.P,A1,18,GEN5/GPIO24*%
%TO.N,DIO0*%
X128690000Y-73730000D03*
%TO.P,A1,19,GPIO10/MOSI*%
%TO.N,MOSI*%
X131230000Y-76270000D03*
%TO.P,A1,20,GND[5]*%
%TO.N,GND*%
X131230000Y-73730000D03*
%TO.P,A1,21,GPIO9/MISO*%
%TO.N,MISO*%
X133770000Y-76270000D03*
%TO.P,A1,22,GEN/6GPIO25*%
%TO.N,unconnected-(A1-Pad22)*%
X133770000Y-73730000D03*
%TO.P,A1,23,GPIO11/SCLK*%
%TO.N,SCLK*%
X136310000Y-76270000D03*
%TO.P,A1,24,~{CE0}/GPIO8*%
%TO.N,unconnected-(A1-Pad24)*%
X136310000Y-73730000D03*
%TO.P,A1,25,GND[2]*%
%TO.N,GND*%
X138850000Y-76270000D03*
%TO.P,A1,26,~{CE1/}GPIO7*%
%TO.N,CS*%
X138850000Y-73730000D03*
%TO.P,A1,27,ID_SD*%
%TO.N,unconnected-(A1-Pad27)*%
X141390000Y-76270000D03*
%TO.P,A1,28,ID_SC*%
%TO.N,unconnected-(A1-Pad28)*%
X141390000Y-73730000D03*
%TO.P,A1,29,GPIO5*%
%TO.N,unconnected-(A1-Pad29)*%
X143930000Y-76270000D03*
%TO.P,A1,30,GND[6]*%
%TO.N,GND*%
X143930000Y-73730000D03*
%TO.P,A1,31,GPIO6*%
%TO.N,CTRL1A*%
X146470000Y-76270000D03*
%TO.P,A1,32,GPIO12*%
%TO.N,unconnected-(A1-Pad32)*%
X146470000Y-73730000D03*
%TO.P,A1,33,GPIO13*%
%TO.N,CTRL1B*%
X149010000Y-76270000D03*
%TO.P,A1,34,GND[7]*%
%TO.N,GND*%
X149010000Y-73730000D03*
%TO.P,A1,35,GPIO19*%
%TO.N,CTRL2A*%
X151550000Y-76270000D03*
%TO.P,A1,36,GPIO16*%
%TO.N,BUT1*%
X151550000Y-73730000D03*
%TO.P,A1,37,GPIO26*%
%TO.N,CTRL2B*%
X154090000Y-76270000D03*
%TO.P,A1,38,GPIO20*%
%TO.N,BUT2*%
X154090000Y-73730000D03*
%TO.P,A1,39,GND[3]*%
%TO.N,GND*%
X156630000Y-76270000D03*
%TO.P,A1,40,GPIO21*%
%TO.N,BUT3*%
X156630000Y-73730000D03*
%TD*%
D16*
%TO.P,J1,1*%
%TO.N,Net-(IC2-Pad22)*%
X170000000Y-145000000D03*
D17*
%TO.P,J1,G1*%
%TO.N,GND*%
X167600000Y-142600000D03*
%TO.P,J1,G2*%
X167600000Y-147400000D03*
%TO.P,J1,G3*%
X172400000Y-147400000D03*
%TO.P,J1,G4*%
X172400000Y-142600000D03*
%TD*%
D18*
%TO.P,D1,1,K*%
%TO.N,Net-(D1-Pad1)*%
X172500000Y-62500000D03*
D19*
%TO.P,D1,2,A*%
%TO.N,+5V*%
X172500000Y-65040000D03*
%TD*%
D20*
%TO.P,BT1,N*%
%TO.N,GND*%
X119575000Y-61500000D03*
%TO.P,BT1,P*%
%TO.N,Net-(BT1-PadP)*%
X135975000Y-61500000D03*
%TD*%
D21*
%TO.N,CTRL1A*%
X146500000Y-100000000D03*
X146500000Y-103000000D03*
X128250000Y-111000000D03*
%TO.N,CTRL1B*%
X158250000Y-79250000D03*
X157000000Y-141000000D03*
%TO.N,GND*%
X141250000Y-135750000D03*
X128000000Y-121000000D03*
X125500000Y-104500000D03*
X124000000Y-106500000D03*
X158500000Y-131500000D03*
X160000000Y-137250000D03*
X163500000Y-137250000D03*
X126500000Y-117500000D03*
X159500000Y-127250000D03*
X134250000Y-113000000D03*
X164250000Y-145750000D03*
X140250000Y-137250000D03*
X166250000Y-144250000D03*
X168500000Y-113000000D03*
X130250000Y-125750000D03*
X131250000Y-114500000D03*
X168250000Y-130750000D03*
X122000000Y-113000000D03*
X148000000Y-132250000D03*
X159500000Y-112000000D03*
X148750000Y-127000000D03*
X167000000Y-132500000D03*
X159250000Y-141000000D03*
X124000000Y-109500000D03*
X139250000Y-113000000D03*
X124000000Y-108500000D03*
X154250000Y-137250000D03*
X136750000Y-125500000D03*
X152750000Y-125500000D03*
X137250000Y-113000000D03*
X123000000Y-99750000D03*
X154750000Y-125500000D03*
X155750000Y-115000000D03*
X149500000Y-115000000D03*
X134750000Y-127000000D03*
X165250000Y-145750000D03*
X147750000Y-127000000D03*
X160000000Y-129500000D03*
X166750000Y-126250000D03*
X159500000Y-111000000D03*
X155750000Y-127000000D03*
X122500000Y-119500000D03*
X161250000Y-141250000D03*
X156750000Y-115000000D03*
X124000000Y-125500000D03*
X125000000Y-112500000D03*
X123000000Y-100750000D03*
X150250000Y-135750000D03*
X146250000Y-135750000D03*
X126500000Y-116500000D03*
X147750000Y-125500000D03*
X123000000Y-101750000D03*
X129250000Y-114500000D03*
X168500000Y-116000000D03*
X125000000Y-115500000D03*
X147250000Y-137250000D03*
X138750000Y-127000000D03*
X153750000Y-127000000D03*
X125500000Y-109500000D03*
X142250000Y-135750000D03*
X129250000Y-113000000D03*
X145250000Y-135750000D03*
X127750000Y-135750000D03*
X149500000Y-113500000D03*
X163000000Y-134250000D03*
X128750000Y-137500000D03*
X125500000Y-139250000D03*
X130250000Y-113000000D03*
X141250000Y-113000000D03*
X148750000Y-125500000D03*
X165250000Y-144250000D03*
X127250000Y-120250000D03*
X125750000Y-111750000D03*
X122500000Y-124500000D03*
X121750000Y-128250000D03*
X148250000Y-137250000D03*
X124500000Y-140250000D03*
X144750000Y-127000000D03*
X151750000Y-125500000D03*
X125000000Y-116500000D03*
X124000000Y-116500000D03*
X150750000Y-127000000D03*
X124000000Y-121500000D03*
X128750000Y-135750000D03*
X153750000Y-125500000D03*
X124000000Y-123500000D03*
X161000000Y-131000000D03*
X124000000Y-105500000D03*
X154250000Y-135750000D03*
X153250000Y-135750000D03*
X136250000Y-113000000D03*
X164250000Y-115500000D03*
X148250000Y-135750000D03*
X158750000Y-126500000D03*
X141750000Y-125500000D03*
X166250000Y-116000000D03*
X142250000Y-113000000D03*
X166750000Y-127250000D03*
X122500000Y-126500000D03*
X124000000Y-126500000D03*
X124250000Y-134000000D03*
X149250000Y-137250000D03*
X160250000Y-142750000D03*
X137750000Y-127000000D03*
X128000000Y-123500000D03*
X168000000Y-114000000D03*
X140250000Y-135750000D03*
X142750000Y-125500000D03*
X156750000Y-125500000D03*
X163500000Y-143500000D03*
X136750000Y-127000000D03*
X127250000Y-122750000D03*
X156250000Y-137250000D03*
X163250000Y-145750000D03*
X135250000Y-113000000D03*
X122750000Y-134000000D03*
X168250000Y-122750000D03*
X132250000Y-114500000D03*
X153250000Y-137250000D03*
X156750000Y-113500000D03*
X156250000Y-135750000D03*
X124000000Y-120500000D03*
X163000000Y-140250000D03*
X122500000Y-115000000D03*
X147250000Y-135750000D03*
X151250000Y-137250000D03*
X146250000Y-137250000D03*
X168250000Y-126250000D03*
X122750000Y-135000000D03*
X158000000Y-125750000D03*
X136250000Y-137250000D03*
X141250000Y-137250000D03*
X122500000Y-125500000D03*
X125000000Y-120500000D03*
X140750000Y-125500000D03*
X139250000Y-114500000D03*
X127500000Y-115000000D03*
X143250000Y-114500000D03*
X143250000Y-135750000D03*
X135250000Y-114500000D03*
X145750000Y-125500000D03*
X125000000Y-138250000D03*
X144250000Y-137250000D03*
X137250000Y-114500000D03*
X162500000Y-145000000D03*
X152250000Y-135750000D03*
X158500000Y-129500000D03*
X158250000Y-128500000D03*
X125500000Y-105500000D03*
X163250000Y-115500000D03*
X123000000Y-102750000D03*
X138250000Y-114500000D03*
X160000000Y-128250000D03*
X161500000Y-144750000D03*
X125000000Y-119500000D03*
X125750000Y-113250000D03*
X159250000Y-136500000D03*
X166750000Y-121750000D03*
X140250000Y-114500000D03*
X126500000Y-119500000D03*
X135750000Y-125500000D03*
X125500000Y-108500000D03*
X165250000Y-113500000D03*
X145250000Y-137250000D03*
X132500000Y-125500000D03*
X124000000Y-104500000D03*
X134750000Y-125500000D03*
X125750000Y-121250000D03*
X157500000Y-127750000D03*
X125500000Y-140250000D03*
X131750000Y-124750000D03*
X160000000Y-131500000D03*
X145750000Y-127000000D03*
X142250000Y-114500000D03*
X160500000Y-111000000D03*
X166250000Y-113000000D03*
X168250000Y-121750000D03*
X155750000Y-113500000D03*
X143250000Y-137250000D03*
X126500000Y-118500000D03*
X132825000Y-127000000D03*
X138250000Y-137250000D03*
X155250000Y-137250000D03*
X125500000Y-107500000D03*
X164250000Y-144250000D03*
X124000000Y-124500000D03*
X128250000Y-114500000D03*
X122500000Y-120500000D03*
X151250000Y-135750000D03*
X122500000Y-122500000D03*
X158500000Y-130500000D03*
X124000000Y-107500000D03*
X155750000Y-125500000D03*
X140750000Y-127000000D03*
X124750000Y-128250000D03*
X157000000Y-134250000D03*
X146750000Y-127000000D03*
X134250000Y-114500000D03*
X122500000Y-127500000D03*
X124000000Y-127500000D03*
X137250000Y-135750000D03*
X160000000Y-113000000D03*
X131900000Y-127000000D03*
X130250000Y-114500000D03*
X168000000Y-115000000D03*
X128750000Y-121750000D03*
X131250000Y-113000000D03*
X133750000Y-125500000D03*
X133250000Y-113000000D03*
X142750000Y-127000000D03*
X122500000Y-116500000D03*
X146750000Y-125500000D03*
X122000000Y-112000000D03*
X144250000Y-135750000D03*
X126500000Y-122000000D03*
X137750000Y-125500000D03*
X122500000Y-118500000D03*
X159500000Y-142000000D03*
X136250000Y-114500000D03*
X152250000Y-137250000D03*
X126500000Y-103500000D03*
X126500000Y-115500000D03*
X129750000Y-135750000D03*
X124000000Y-117500000D03*
X129750000Y-137500000D03*
X122500000Y-121500000D03*
X124000000Y-118500000D03*
X165250000Y-115500000D03*
X141750000Y-127000000D03*
X130250000Y-123250000D03*
X149750000Y-127000000D03*
X125500000Y-106500000D03*
X129500000Y-125000000D03*
X158500000Y-132500000D03*
X159250000Y-138000000D03*
X133750000Y-127000000D03*
X122500000Y-123500000D03*
X127750000Y-137500000D03*
X161500000Y-133500000D03*
X151750000Y-127000000D03*
X168000000Y-131750000D03*
X124000000Y-122500000D03*
X139250000Y-135750000D03*
X160750000Y-138000000D03*
X140250000Y-113000000D03*
X160750000Y-136500000D03*
X131000000Y-124000000D03*
X162000000Y-142000000D03*
X164250000Y-113500000D03*
X135750000Y-127000000D03*
X139750000Y-127000000D03*
X163250000Y-113500000D03*
X128750000Y-124250000D03*
X138750000Y-125500000D03*
X143250000Y-113000000D03*
X155250000Y-135750000D03*
X158500000Y-133500000D03*
X139250000Y-137250000D03*
X149250000Y-135750000D03*
X143750000Y-127000000D03*
X124250000Y-113250000D03*
X125000000Y-117500000D03*
X152750000Y-127000000D03*
X166750000Y-122750000D03*
X166500000Y-130500000D03*
X160500000Y-112000000D03*
X166250000Y-145750000D03*
X133250000Y-114500000D03*
X132250000Y-113000000D03*
X124250000Y-111750000D03*
X124000000Y-119500000D03*
X168250000Y-127250000D03*
X149750000Y-125500000D03*
X143750000Y-125500000D03*
X156750000Y-127000000D03*
X124000000Y-103500000D03*
X150750000Y-125500000D03*
X125500000Y-103500000D03*
X154750000Y-127000000D03*
X142250000Y-137250000D03*
X141250000Y-114500000D03*
X136250000Y-135750000D03*
X139750000Y-125500000D03*
X160000000Y-132500000D03*
X125000000Y-118500000D03*
X160000000Y-133500000D03*
X137250000Y-137250000D03*
X144750000Y-125500000D03*
X129500000Y-122500000D03*
X150250000Y-137250000D03*
X138250000Y-113000000D03*
X160000000Y-130500000D03*
X131000000Y-126500000D03*
X124250000Y-135000000D03*
X138250000Y-135750000D03*
X124500000Y-139250000D03*
X122500000Y-117500000D03*
%TO.N,CTRL2A*%
X127000000Y-108500000D03*
%TO.N,CTRL2B*%
X158000000Y-141000000D03*
%TO.N,+3.3V*%
X133000000Y-97500000D03*
X121500000Y-97500000D03*
%TO.N,+5V*%
X142525000Y-54500000D03*
X119250000Y-56500000D03*
X116500000Y-125500000D03*
X130000000Y-105500000D03*
X118000000Y-127500000D03*
X172500000Y-67500000D03*
X147500000Y-139000000D03*
%TO.N,SDA*%
X142500000Y-57500000D03*
%TO.N,SCL*%
X138500000Y-57500000D03*
X114750000Y-68250000D03*
%TO.N,SCLK*%
X133000000Y-79500000D03*
%TO.N,CS*%
X132000000Y-81500000D03*
%TO.N,Net-(BT1-PadP)*%
X136775000Y-59500000D03*
%TO.N,DIO0*%
X130000000Y-87500000D03*
%TD*%
D22*
%TO.N,CTRL1A*%
X129000000Y-104500000D02*
X128250000Y-105250000D01*
X145000000Y-104500000D02*
X129000000Y-104500000D01*
X146470000Y-99970000D02*
X146500000Y-100000000D01*
X146500000Y-103000000D02*
X145000000Y-104500000D01*
X128250000Y-105250000D02*
X128250000Y-111000000D01*
X146470000Y-76270000D02*
X146470000Y-99970000D01*
%TO.N,CTRL1B*%
X177500000Y-128500000D02*
X177474695Y-128500000D01*
X157000000Y-142500000D02*
X158500000Y-144000000D01*
X177750000Y-128250000D02*
X177500000Y-128500000D01*
X158250000Y-79250000D02*
X177750000Y-98750000D01*
X177750000Y-98750000D02*
X177750000Y-128250000D01*
X158500000Y-144000000D02*
X161974695Y-144000000D01*
X157000000Y-142500000D02*
X157000000Y-141000000D01*
X177474695Y-128500000D02*
X161974695Y-144000000D01*
%TO.N,CTRL2A*%
X144500000Y-103500000D02*
X128000000Y-103500000D01*
X147500000Y-82000000D02*
X147500000Y-100500000D01*
X147500000Y-100500000D02*
X144500000Y-103500000D01*
X151550000Y-76270000D02*
X151550000Y-77950000D01*
X127000000Y-104500000D02*
X127000000Y-108500000D01*
X128000000Y-103500000D02*
X127000000Y-104500000D01*
X151550000Y-77950000D02*
X147500000Y-82000000D01*
%TO.N,CTRL2B*%
X161575306Y-143500000D02*
X159250000Y-143500000D01*
X161575306Y-143500000D02*
X177000000Y-128075305D01*
X159250000Y-143500000D02*
X158000000Y-142250000D01*
X154090000Y-76270000D02*
X177000000Y-99180000D01*
X177000000Y-99180000D02*
X177000000Y-128075305D01*
X158000000Y-142250000D02*
X158000000Y-141000000D01*
D23*
%TO.N,+3.3V*%
X128690000Y-76270000D02*
X128690000Y-93190000D01*
X124380000Y-97500000D02*
X121500000Y-97500000D01*
X128690000Y-93190000D02*
X133000000Y-97500000D01*
X128690000Y-93190000D02*
X124380000Y-97500000D01*
D22*
%TO.N,SDA*%
X115250000Y-69000000D02*
X135500000Y-69000000D01*
X112172964Y-75007036D02*
X112172964Y-72077036D01*
X142500000Y-62000000D02*
X142500000Y-57500000D01*
X112172964Y-72077036D02*
X115250000Y-69000000D01*
X135500000Y-69000000D02*
X142500000Y-62000000D01*
X110910000Y-76270000D02*
X112172964Y-75007036D01*
%TO.N,SCL*%
X139000000Y-58000000D02*
X138500000Y-57500000D01*
X114750000Y-68250000D02*
X135250000Y-68250000D01*
X135250000Y-68250000D02*
X139000000Y-64500000D01*
X139000000Y-64500000D02*
X139000000Y-58000000D01*
D24*
%TO.N,SCLK*%
X133080000Y-79500000D02*
X133000000Y-79500000D01*
X136310000Y-76270000D02*
X133080000Y-79500000D01*
%TO.N,CS*%
X132000000Y-81500000D02*
X134000000Y-81500000D01*
X134000000Y-81500000D02*
X137500000Y-78000000D01*
X137500000Y-78000000D02*
X137500000Y-75000000D01*
X137500000Y-75000000D02*
X138770000Y-73730000D01*
D22*
%TO.N,Net-(BT1-PadP)*%
X135975000Y-61500000D02*
X135975000Y-60300000D01*
X135975000Y-60300000D02*
X136775000Y-59500000D01*
%TO.N,DIO0*%
X128690000Y-73730000D02*
X130000000Y-75040000D01*
X130000000Y-75040000D02*
X130000000Y-87500000D01*
%TD*%
%TA.AperFunction,Conductor*%
%TO.N,GND*%
G36*
X184441621Y-50520502D02*
G01*
X184488114Y-50574158D01*
X184499500Y-50626500D01*
X184499500Y-149373500D01*
X184479498Y-149441621D01*
X184425842Y-149488114D01*
X184373500Y-149499500D01*
X100626500Y-149499500D01*
X100558379Y-149479498D01*
X100511886Y-149425842D01*
X100500500Y-149373500D01*
X100500500Y-148605973D01*
X166759273Y-148605973D01*
X166763032Y-148611269D01*
X166959066Y-148725822D01*
X166968349Y-148730269D01*
X167184206Y-148812697D01*
X167194108Y-148815574D01*
X167420511Y-148861636D01*
X167430764Y-148862859D01*
X167661657Y-148871326D01*
X167671943Y-148870859D01*
X167901132Y-148841499D01*
X167911210Y-148839357D01*
X168132522Y-148772960D01*
X168142120Y-148769199D01*
X168349617Y-148667547D01*
X168358462Y-148662274D01*
X168428115Y-148612591D01*
X168433311Y-148605973D01*
X171559273Y-148605973D01*
X171563032Y-148611269D01*
X171759066Y-148725822D01*
X171768349Y-148730269D01*
X171984206Y-148812697D01*
X171994108Y-148815574D01*
X172220511Y-148861636D01*
X172230764Y-148862859D01*
X172461657Y-148871326D01*
X172471943Y-148870859D01*
X172701132Y-148841499D01*
X172711210Y-148839357D01*
X172932522Y-148772960D01*
X172942120Y-148769199D01*
X173149617Y-148667547D01*
X173158462Y-148662274D01*
X173228115Y-148612591D01*
X173236516Y-148601891D01*
X173229528Y-148588738D01*
X172412812Y-147772022D01*
X172398868Y-147764408D01*
X172397035Y-147764539D01*
X172390420Y-147768790D01*
X171566534Y-148592676D01*
X171559273Y-148605973D01*
X168433311Y-148605973D01*
X168436516Y-148601891D01*
X168429528Y-148588738D01*
X167612812Y-147772022D01*
X167598868Y-147764408D01*
X167597035Y-147764539D01*
X167590420Y-147768790D01*
X166766534Y-148592676D01*
X166759273Y-148605973D01*
X100500500Y-148605973D01*
X100500500Y-146607165D01*
X101747866Y-146607165D01*
X101782952Y-146864970D01*
X101855758Y-147114757D01*
X101857718Y-147119010D01*
X101857719Y-147119011D01*
X101873454Y-147153142D01*
X101964686Y-147351039D01*
X101967246Y-147354944D01*
X101967249Y-147354949D01*
X102104775Y-147564712D01*
X102104779Y-147564717D01*
X102107341Y-147568625D01*
X102193966Y-147665680D01*
X102230098Y-147706162D01*
X102280591Y-147762735D01*
X102480629Y-147929105D01*
X102703061Y-148064080D01*
X102707375Y-148065889D01*
X102707377Y-148065890D01*
X102938686Y-148162886D01*
X102938691Y-148162888D01*
X102943001Y-148164695D01*
X102947533Y-148165846D01*
X102947536Y-148165847D01*
X103072815Y-148197663D01*
X103195177Y-148228739D01*
X103411286Y-148250500D01*
X103566044Y-148250500D01*
X103568369Y-148250327D01*
X103568375Y-148250327D01*
X103754814Y-148236472D01*
X103754818Y-148236471D01*
X103759466Y-148236126D01*
X104013232Y-148178705D01*
X104017586Y-148177012D01*
X104251370Y-148086098D01*
X104251372Y-148086097D01*
X104255723Y-148084405D01*
X104283445Y-148068561D01*
X104339038Y-148036786D01*
X104481612Y-147955299D01*
X104685936Y-147794223D01*
X104864208Y-147604714D01*
X105004167Y-147402965D01*
X105009846Y-147394779D01*
X105009848Y-147394776D01*
X105012511Y-147390937D01*
X105023247Y-147369167D01*
X166127706Y-147369167D01*
X166141006Y-147599838D01*
X166142442Y-147610058D01*
X166193238Y-147835454D01*
X166196317Y-147845282D01*
X166283249Y-148059370D01*
X166287892Y-148068561D01*
X166386464Y-148229416D01*
X166396921Y-148238876D01*
X166405697Y-148235093D01*
X167227978Y-147412812D01*
X167234356Y-147401132D01*
X167964408Y-147401132D01*
X167964539Y-147402965D01*
X167968790Y-147409580D01*
X168789296Y-148230086D01*
X168801306Y-148236645D01*
X168813046Y-148227677D01*
X168859616Y-148162867D01*
X168864927Y-148154028D01*
X168967296Y-147946901D01*
X168971094Y-147937308D01*
X169038262Y-147716232D01*
X169040439Y-147706162D01*
X169070835Y-147475279D01*
X169071354Y-147468604D01*
X169072949Y-147403364D01*
X169072755Y-147396647D01*
X169070496Y-147369167D01*
X170927706Y-147369167D01*
X170941006Y-147599838D01*
X170942442Y-147610058D01*
X170993238Y-147835454D01*
X170996317Y-147845282D01*
X171083249Y-148059370D01*
X171087892Y-148068561D01*
X171186464Y-148229416D01*
X171196921Y-148238876D01*
X171205697Y-148235093D01*
X172027978Y-147412812D01*
X172034356Y-147401132D01*
X172764408Y-147401132D01*
X172764539Y-147402965D01*
X172768790Y-147409580D01*
X173589296Y-148230086D01*
X173601306Y-148236645D01*
X173613046Y-148227677D01*
X173659616Y-148162867D01*
X173664927Y-148154028D01*
X173767296Y-147946901D01*
X173771094Y-147937308D01*
X173838262Y-147716232D01*
X173840439Y-147706162D01*
X173870835Y-147475279D01*
X173871354Y-147468604D01*
X173872949Y-147403364D01*
X173872755Y-147396647D01*
X173853675Y-147164567D01*
X173851992Y-147154405D01*
X173795703Y-146930306D01*
X173792382Y-146920551D01*
X173700252Y-146708667D01*
X173695374Y-146699570D01*
X173635595Y-146607165D01*
X179747866Y-146607165D01*
X179782952Y-146864970D01*
X179855758Y-147114757D01*
X179857718Y-147119010D01*
X179857719Y-147119011D01*
X179873454Y-147153142D01*
X179964686Y-147351039D01*
X179967246Y-147354944D01*
X179967249Y-147354949D01*
X180104775Y-147564712D01*
X180104779Y-147564717D01*
X180107341Y-147568625D01*
X180193966Y-147665680D01*
X180230098Y-147706162D01*
X180280591Y-147762735D01*
X180480629Y-147929105D01*
X180703061Y-148064080D01*
X180707375Y-148065889D01*
X180707377Y-148065890D01*
X180938686Y-148162886D01*
X180938691Y-148162888D01*
X180943001Y-148164695D01*
X180947533Y-148165846D01*
X180947536Y-148165847D01*
X181072815Y-148197663D01*
X181195177Y-148228739D01*
X181411286Y-148250500D01*
X181566044Y-148250500D01*
X181568369Y-148250327D01*
X181568375Y-148250327D01*
X181754814Y-148236472D01*
X181754818Y-148236471D01*
X181759466Y-148236126D01*
X182013232Y-148178705D01*
X182017586Y-148177012D01*
X182251370Y-148086098D01*
X182251372Y-148086097D01*
X182255723Y-148084405D01*
X182283445Y-148068561D01*
X182339038Y-148036786D01*
X182481612Y-147955299D01*
X182685936Y-147794223D01*
X182864208Y-147604714D01*
X183004167Y-147402965D01*
X183009846Y-147394779D01*
X183009848Y-147394776D01*
X183012511Y-147390937D01*
X183030258Y-147354949D01*
X183125521Y-147161775D01*
X183125522Y-147161772D01*
X183127586Y-147157587D01*
X183206906Y-146909792D01*
X183248728Y-146652994D01*
X183252134Y-146392835D01*
X183217048Y-146135030D01*
X183144242Y-145885243D01*
X183035314Y-145648961D01*
X182895487Y-145435688D01*
X182895225Y-145435288D01*
X182895221Y-145435283D01*
X182892659Y-145431375D01*
X182719409Y-145237265D01*
X182519371Y-145070895D01*
X182296939Y-144935920D01*
X182292623Y-144934110D01*
X182061314Y-144837114D01*
X182061309Y-144837112D01*
X182056999Y-144835305D01*
X182052467Y-144834154D01*
X182052464Y-144834153D01*
X181844454Y-144781326D01*
X181804823Y-144771261D01*
X181588714Y-144749500D01*
X181433956Y-144749500D01*
X181431631Y-144749673D01*
X181431625Y-144749673D01*
X181245186Y-144763528D01*
X181245182Y-144763529D01*
X181240534Y-144763874D01*
X180986768Y-144821295D01*
X180982416Y-144822987D01*
X180982414Y-144822988D01*
X180748630Y-144913902D01*
X180748628Y-144913903D01*
X180744277Y-144915595D01*
X180740223Y-144917912D01*
X180740221Y-144917913D01*
X180704467Y-144938348D01*
X180518388Y-145044701D01*
X180314064Y-145205777D01*
X180135792Y-145395286D01*
X179987489Y-145609063D01*
X179985423Y-145613253D01*
X179985421Y-145613256D01*
X179890891Y-145804946D01*
X179872414Y-145842413D01*
X179793094Y-146090208D01*
X179751272Y-146347006D01*
X179751211Y-146351683D01*
X179748452Y-146562442D01*
X179747866Y-146607165D01*
X173635595Y-146607165D01*
X173612616Y-146571645D01*
X173601930Y-146562442D01*
X173592365Y-146566845D01*
X172772022Y-147387188D01*
X172764408Y-147401132D01*
X172034356Y-147401132D01*
X172035592Y-147398868D01*
X172035461Y-147397035D01*
X172031210Y-147390420D01*
X171210687Y-146569897D01*
X171199151Y-146563597D01*
X171186868Y-146573221D01*
X171122126Y-146668129D01*
X171117028Y-146677103D01*
X171019750Y-146886670D01*
X171016187Y-146896357D01*
X170954442Y-147118999D01*
X170952511Y-147129118D01*
X170927958Y-147358878D01*
X170927706Y-147369167D01*
X169070496Y-147369167D01*
X169053675Y-147164567D01*
X169051992Y-147154405D01*
X168995703Y-146930306D01*
X168992382Y-146920551D01*
X168900252Y-146708667D01*
X168895374Y-146699570D01*
X168812616Y-146571645D01*
X168801930Y-146562442D01*
X168792365Y-146566845D01*
X167972022Y-147387188D01*
X167964408Y-147401132D01*
X167234356Y-147401132D01*
X167235592Y-147398868D01*
X167235461Y-147397035D01*
X167231210Y-147390420D01*
X166410687Y-146569897D01*
X166399151Y-146563597D01*
X166386868Y-146573221D01*
X166322126Y-146668129D01*
X166317028Y-146677103D01*
X166219750Y-146886670D01*
X166216187Y-146896357D01*
X166154442Y-147118999D01*
X166152511Y-147129118D01*
X166127958Y-147358878D01*
X166127706Y-147369167D01*
X105023247Y-147369167D01*
X105030258Y-147354949D01*
X105125521Y-147161775D01*
X105125522Y-147161772D01*
X105127586Y-147157587D01*
X105206906Y-146909792D01*
X105248728Y-146652994D01*
X105252134Y-146392835D01*
X105225598Y-146197857D01*
X166762652Y-146197857D01*
X166769397Y-146210187D01*
X167587188Y-147027978D01*
X167601132Y-147035592D01*
X167602965Y-147035461D01*
X167609580Y-147031210D01*
X168431710Y-146209080D01*
X168438731Y-146196223D01*
X168430959Y-146185556D01*
X168419218Y-146176283D01*
X168410637Y-146170583D01*
X168208355Y-146058918D01*
X168198956Y-146054693D01*
X167981155Y-145977565D01*
X167971184Y-145974931D01*
X167743713Y-145934412D01*
X167733461Y-145933443D01*
X167502417Y-145930620D01*
X167492133Y-145931340D01*
X167263741Y-145966289D01*
X167253713Y-145968678D01*
X167034096Y-146040460D01*
X167024586Y-146044457D01*
X166819646Y-146151142D01*
X166810921Y-146156636D01*
X166771106Y-146186530D01*
X166762652Y-146197857D01*
X105225598Y-146197857D01*
X105217048Y-146135030D01*
X105144242Y-145885243D01*
X105035314Y-145648961D01*
X104895487Y-145435688D01*
X104895225Y-145435288D01*
X104895221Y-145435283D01*
X104892659Y-145431375D01*
X104719409Y-145237265D01*
X104519371Y-145070895D01*
X104402540Y-145000000D01*
X168740708Y-145000000D01*
X168759839Y-145218674D01*
X168816653Y-145430703D01*
X168818978Y-145435688D01*
X168907095Y-145624659D01*
X168907098Y-145624664D01*
X168909421Y-145629646D01*
X168912577Y-145634153D01*
X168912578Y-145634155D01*
X168925919Y-145653207D01*
X169035326Y-145809457D01*
X169190543Y-145964674D01*
X169195051Y-145967831D01*
X169195054Y-145967833D01*
X169304485Y-146044457D01*
X169370354Y-146090579D01*
X169375336Y-146092902D01*
X169375341Y-146092905D01*
X169465680Y-146135030D01*
X169569297Y-146183347D01*
X169781326Y-146240161D01*
X170000000Y-146259292D01*
X170218674Y-146240161D01*
X170376552Y-146197857D01*
X171562652Y-146197857D01*
X171569397Y-146210187D01*
X172387188Y-147027978D01*
X172401132Y-147035592D01*
X172402965Y-147035461D01*
X172409580Y-147031210D01*
X173231710Y-146209080D01*
X173238731Y-146196223D01*
X173230959Y-146185556D01*
X173219218Y-146176283D01*
X173210637Y-146170583D01*
X173008355Y-146058918D01*
X172998956Y-146054693D01*
X172781155Y-145977565D01*
X172771184Y-145974931D01*
X172543713Y-145934412D01*
X172533461Y-145933443D01*
X172302417Y-145930620D01*
X172292133Y-145931340D01*
X172063741Y-145966289D01*
X172053713Y-145968678D01*
X171834096Y-146040460D01*
X171824586Y-146044457D01*
X171619646Y-146151142D01*
X171610921Y-146156636D01*
X171571106Y-146186530D01*
X171562652Y-146197857D01*
X170376552Y-146197857D01*
X170430703Y-146183347D01*
X170534320Y-146135030D01*
X170624659Y-146092905D01*
X170624664Y-146092902D01*
X170629646Y-146090579D01*
X170695515Y-146044457D01*
X170804946Y-145967833D01*
X170804949Y-145967831D01*
X170809457Y-145964674D01*
X170964674Y-145809457D01*
X171074082Y-145653207D01*
X171087422Y-145634155D01*
X171087423Y-145634153D01*
X171090579Y-145629646D01*
X171092902Y-145624664D01*
X171092905Y-145624659D01*
X171181022Y-145435688D01*
X171183347Y-145430703D01*
X171240161Y-145218674D01*
X171259292Y-145000000D01*
X171240161Y-144781326D01*
X171183347Y-144569297D01*
X171128017Y-144450640D01*
X171092905Y-144375341D01*
X171092902Y-144375336D01*
X171090579Y-144370354D01*
X170964674Y-144190543D01*
X170809457Y-144035326D01*
X170804949Y-144032169D01*
X170804946Y-144032167D01*
X170634155Y-143912578D01*
X170634153Y-143912577D01*
X170629646Y-143909421D01*
X170624664Y-143907098D01*
X170624659Y-143907095D01*
X170523884Y-143860104D01*
X170430703Y-143816653D01*
X170390845Y-143805973D01*
X171559273Y-143805973D01*
X171563032Y-143811269D01*
X171759066Y-143925822D01*
X171768349Y-143930269D01*
X171984206Y-144012697D01*
X171994108Y-144015574D01*
X172220511Y-144061636D01*
X172230764Y-144062859D01*
X172461657Y-144071326D01*
X172471943Y-144070859D01*
X172701132Y-144041499D01*
X172711210Y-144039357D01*
X172932522Y-143972960D01*
X172942120Y-143969199D01*
X173149617Y-143867547D01*
X173158462Y-143862274D01*
X173228115Y-143812591D01*
X173236516Y-143801891D01*
X173229528Y-143788738D01*
X172412812Y-142972022D01*
X172398868Y-142964408D01*
X172397035Y-142964539D01*
X172390420Y-142968790D01*
X171566534Y-143792676D01*
X171559273Y-143805973D01*
X170390845Y-143805973D01*
X170218674Y-143759839D01*
X170000000Y-143740708D01*
X169781326Y-143759839D01*
X169569297Y-143816653D01*
X169476116Y-143860104D01*
X169375341Y-143907095D01*
X169375336Y-143907098D01*
X169370354Y-143909421D01*
X169365847Y-143912577D01*
X169365845Y-143912578D01*
X169195054Y-144032167D01*
X169195051Y-144032169D01*
X169190543Y-144035326D01*
X169035326Y-144190543D01*
X168909421Y-144370354D01*
X168907098Y-144375336D01*
X168907095Y-144375341D01*
X168871983Y-144450640D01*
X168816653Y-144569297D01*
X168759839Y-144781326D01*
X168740708Y-145000000D01*
X104402540Y-145000000D01*
X104296939Y-144935920D01*
X104292623Y-144934110D01*
X104061314Y-144837114D01*
X104061309Y-144837112D01*
X104056999Y-144835305D01*
X104052467Y-144834154D01*
X104052464Y-144834153D01*
X103844454Y-144781326D01*
X103804823Y-144771261D01*
X103588714Y-144749500D01*
X103433956Y-144749500D01*
X103431631Y-144749673D01*
X103431625Y-144749673D01*
X103245186Y-144763528D01*
X103245182Y-144763529D01*
X103240534Y-144763874D01*
X102986768Y-144821295D01*
X102982416Y-144822987D01*
X102982414Y-144822988D01*
X102748630Y-144913902D01*
X102748628Y-144913903D01*
X102744277Y-144915595D01*
X102740223Y-144917912D01*
X102740221Y-144917913D01*
X102704467Y-144938348D01*
X102518388Y-145044701D01*
X102314064Y-145205777D01*
X102135792Y-145395286D01*
X101987489Y-145609063D01*
X101985423Y-145613253D01*
X101985421Y-145613256D01*
X101890891Y-145804946D01*
X101872414Y-145842413D01*
X101793094Y-146090208D01*
X101751272Y-146347006D01*
X101751211Y-146351683D01*
X101748452Y-146562442D01*
X101747866Y-146607165D01*
X100500500Y-146607165D01*
X100500500Y-139000000D01*
X146594540Y-139000000D01*
X146614326Y-139188256D01*
X146672821Y-139368284D01*
X146767467Y-139532216D01*
X146894129Y-139672888D01*
X147047270Y-139784151D01*
X147220197Y-139861144D01*
X147318212Y-139881978D01*
X147398897Y-139899128D01*
X147398901Y-139899128D01*
X147405354Y-139900500D01*
X147594646Y-139900500D01*
X147601099Y-139899128D01*
X147601103Y-139899128D01*
X147681788Y-139881978D01*
X147779803Y-139861144D01*
X147952730Y-139784151D01*
X148105871Y-139672888D01*
X148232533Y-139532216D01*
X148327179Y-139368284D01*
X148385674Y-139188256D01*
X148405460Y-139000000D01*
X148385674Y-138811744D01*
X148327179Y-138631716D01*
X148232533Y-138467784D01*
X148105871Y-138327112D01*
X147952730Y-138215849D01*
X147779803Y-138138856D01*
X147681788Y-138118022D01*
X147601103Y-138100872D01*
X147601099Y-138100872D01*
X147594646Y-138099500D01*
X147405354Y-138099500D01*
X147398901Y-138100872D01*
X147398897Y-138100872D01*
X147318212Y-138118022D01*
X147220197Y-138138856D01*
X147047270Y-138215849D01*
X146894129Y-138327112D01*
X146767467Y-138467784D01*
X146672821Y-138631716D01*
X146614326Y-138811744D01*
X146594540Y-139000000D01*
X100500500Y-139000000D01*
X100500500Y-127500000D01*
X117094540Y-127500000D01*
X117114326Y-127688256D01*
X117172821Y-127868284D01*
X117267467Y-128032216D01*
X117394129Y-128172888D01*
X117399468Y-128176767D01*
X117538299Y-128277633D01*
X117547270Y-128284151D01*
X117720197Y-128361144D01*
X117818212Y-128381978D01*
X117898897Y-128399128D01*
X117898901Y-128399128D01*
X117905354Y-128400500D01*
X118094646Y-128400500D01*
X118101099Y-128399128D01*
X118101103Y-128399128D01*
X118181788Y-128381978D01*
X118279803Y-128361144D01*
X118452730Y-128284151D01*
X118461702Y-128277633D01*
X118600532Y-128176767D01*
X118605871Y-128172888D01*
X118732533Y-128032216D01*
X118827179Y-127868284D01*
X118885674Y-127688256D01*
X118905460Y-127500000D01*
X118885674Y-127311744D01*
X118827179Y-127131716D01*
X118732533Y-126967784D01*
X118605871Y-126827112D01*
X118452730Y-126715849D01*
X118279803Y-126638856D01*
X118181788Y-126618022D01*
X118101103Y-126600872D01*
X118101099Y-126600872D01*
X118094646Y-126599500D01*
X117905354Y-126599500D01*
X117898901Y-126600872D01*
X117898897Y-126600872D01*
X117818212Y-126618022D01*
X117720197Y-126638856D01*
X117547270Y-126715849D01*
X117394129Y-126827112D01*
X117267467Y-126967784D01*
X117172821Y-127131716D01*
X117114326Y-127311744D01*
X117094540Y-127500000D01*
X100500500Y-127500000D01*
X100500500Y-123940939D01*
X101620637Y-123940939D01*
X101622957Y-124000000D01*
X101631064Y-124206332D01*
X101678782Y-124467609D01*
X101680191Y-124471832D01*
X101736812Y-124641545D01*
X101762838Y-124719556D01*
X101881555Y-124957146D01*
X102032564Y-125175638D01*
X102035586Y-125178907D01*
X102209836Y-125367411D01*
X102209841Y-125367416D01*
X102212852Y-125370673D01*
X102418823Y-125538360D01*
X102646366Y-125675352D01*
X102650461Y-125677086D01*
X102650463Y-125677087D01*
X102818521Y-125748250D01*
X102890941Y-125778916D01*
X102895234Y-125780054D01*
X102895239Y-125780056D01*
X103029220Y-125815580D01*
X103147669Y-125846986D01*
X103411426Y-125878204D01*
X103676951Y-125871946D01*
X103736712Y-125861999D01*
X103934555Y-125829069D01*
X103934559Y-125829068D01*
X103938945Y-125828338D01*
X103943186Y-125826997D01*
X103943189Y-125826996D01*
X104187935Y-125749593D01*
X104187937Y-125749592D01*
X104192181Y-125748250D01*
X104196192Y-125746324D01*
X104196197Y-125746322D01*
X104427587Y-125635210D01*
X104427588Y-125635209D01*
X104431606Y-125633280D01*
X104570222Y-125540660D01*
X104631074Y-125500000D01*
X115594540Y-125500000D01*
X115614326Y-125688256D01*
X115672821Y-125868284D01*
X115767467Y-126032216D01*
X115894129Y-126172888D01*
X116047270Y-126284151D01*
X116220197Y-126361144D01*
X116318212Y-126381978D01*
X116398897Y-126399128D01*
X116398901Y-126399128D01*
X116405354Y-126400500D01*
X116594646Y-126400500D01*
X116601099Y-126399128D01*
X116601103Y-126399128D01*
X116681788Y-126381978D01*
X116779803Y-126361144D01*
X116952730Y-126284151D01*
X117105871Y-126172888D01*
X117232533Y-126032216D01*
X117327179Y-125868284D01*
X117385674Y-125688256D01*
X117405460Y-125500000D01*
X117403647Y-125482747D01*
X117386364Y-125318307D01*
X117386364Y-125318305D01*
X117385674Y-125311744D01*
X117327179Y-125131716D01*
X117309694Y-125101430D01*
X117235836Y-124973505D01*
X117232533Y-124967784D01*
X117226249Y-124960805D01*
X117110286Y-124832015D01*
X117110284Y-124832014D01*
X117105871Y-124827112D01*
X117009836Y-124757339D01*
X116958072Y-124719730D01*
X116958071Y-124719729D01*
X116952730Y-124715849D01*
X116779803Y-124638856D01*
X116681788Y-124618022D01*
X116601103Y-124600872D01*
X116601099Y-124600872D01*
X116594646Y-124599500D01*
X116405354Y-124599500D01*
X116398901Y-124600872D01*
X116398897Y-124600872D01*
X116318212Y-124618022D01*
X116220197Y-124638856D01*
X116047270Y-124715849D01*
X116041929Y-124719729D01*
X116041928Y-124719730D01*
X115990164Y-124757339D01*
X115894129Y-124827112D01*
X115889716Y-124832014D01*
X115889714Y-124832015D01*
X115773751Y-124960805D01*
X115767467Y-124967784D01*
X115764164Y-124973505D01*
X115690307Y-125101430D01*
X115672821Y-125131716D01*
X115614326Y-125311744D01*
X115613636Y-125318305D01*
X115613636Y-125318307D01*
X115596353Y-125482747D01*
X115594540Y-125500000D01*
X104631074Y-125500000D01*
X104648736Y-125488199D01*
X104648740Y-125488196D01*
X104652444Y-125485721D01*
X104655761Y-125482750D01*
X104655765Y-125482747D01*
X104846968Y-125311491D01*
X104846969Y-125311490D01*
X104850286Y-125308519D01*
X105021187Y-125105207D01*
X105103325Y-124973505D01*
X105159379Y-124883625D01*
X105159379Y-124883624D01*
X105161737Y-124879844D01*
X105269130Y-124636926D01*
X105341224Y-124381299D01*
X105376581Y-124118064D01*
X105380291Y-124000000D01*
X105376109Y-123940939D01*
X159620637Y-123940939D01*
X159622957Y-124000000D01*
X159631064Y-124206332D01*
X159678782Y-124467609D01*
X159680191Y-124471832D01*
X159736812Y-124641545D01*
X159762838Y-124719556D01*
X159881555Y-124957146D01*
X160032564Y-125175638D01*
X160035586Y-125178907D01*
X160209836Y-125367411D01*
X160209841Y-125367416D01*
X160212852Y-125370673D01*
X160418823Y-125538360D01*
X160646366Y-125675352D01*
X160650461Y-125677086D01*
X160650463Y-125677087D01*
X160818521Y-125748250D01*
X160890941Y-125778916D01*
X160895234Y-125780054D01*
X160895239Y-125780056D01*
X161029220Y-125815580D01*
X161147669Y-125846986D01*
X161411426Y-125878204D01*
X161676951Y-125871946D01*
X161736712Y-125861999D01*
X161934555Y-125829069D01*
X161934559Y-125829068D01*
X161938945Y-125828338D01*
X161943186Y-125826997D01*
X161943189Y-125826996D01*
X162187935Y-125749593D01*
X162187937Y-125749592D01*
X162192181Y-125748250D01*
X162196192Y-125746324D01*
X162196197Y-125746322D01*
X162427587Y-125635210D01*
X162427588Y-125635209D01*
X162431606Y-125633280D01*
X162570222Y-125540660D01*
X162648736Y-125488199D01*
X162648740Y-125488196D01*
X162652444Y-125485721D01*
X162655761Y-125482750D01*
X162655765Y-125482747D01*
X162846968Y-125311491D01*
X162846969Y-125311490D01*
X162850286Y-125308519D01*
X163021187Y-125105207D01*
X163103325Y-124973505D01*
X163159379Y-124883625D01*
X163159379Y-124883624D01*
X163161737Y-124879844D01*
X163269130Y-124636926D01*
X163341224Y-124381299D01*
X163376581Y-124118064D01*
X163380291Y-124000000D01*
X163361533Y-123735065D01*
X163348973Y-123676723D01*
X163306568Y-123479763D01*
X163306568Y-123479761D01*
X163305632Y-123475416D01*
X163213703Y-123226233D01*
X163087582Y-122992490D01*
X162929784Y-122778849D01*
X162743459Y-122589573D01*
X162739919Y-122586871D01*
X162535864Y-122431141D01*
X162535860Y-122431138D01*
X162532323Y-122428439D01*
X162300589Y-122298662D01*
X162052881Y-122202831D01*
X162048560Y-122201829D01*
X162048552Y-122201827D01*
X161878433Y-122162397D01*
X161794142Y-122142859D01*
X161529534Y-122119941D01*
X161525099Y-122120185D01*
X161525095Y-122120185D01*
X161268780Y-122134291D01*
X161268773Y-122134292D01*
X161264337Y-122134536D01*
X161084398Y-122170328D01*
X161008205Y-122185483D01*
X161008203Y-122185484D01*
X161003842Y-122186351D01*
X160753246Y-122274354D01*
X160517551Y-122396788D01*
X160513936Y-122399371D01*
X160513930Y-122399375D01*
X160377198Y-122497086D01*
X160301457Y-122551211D01*
X160109278Y-122734541D01*
X159944848Y-122943120D01*
X159942616Y-122946962D01*
X159942613Y-122946967D01*
X159813685Y-123168932D01*
X159813682Y-123168938D01*
X159811447Y-123172786D01*
X159809773Y-123176920D01*
X159713410Y-123414826D01*
X159713407Y-123414834D01*
X159711737Y-123418958D01*
X159671316Y-123581683D01*
X159655760Y-123644309D01*
X159647708Y-123676723D01*
X159620637Y-123940939D01*
X105376109Y-123940939D01*
X105361533Y-123735065D01*
X105348973Y-123676723D01*
X105306568Y-123479763D01*
X105306568Y-123479761D01*
X105305632Y-123475416D01*
X105213703Y-123226233D01*
X105087582Y-122992490D01*
X104929784Y-122778849D01*
X104743459Y-122589573D01*
X104739919Y-122586871D01*
X104535864Y-122431141D01*
X104535860Y-122431138D01*
X104532323Y-122428439D01*
X104300589Y-122298662D01*
X104052881Y-122202831D01*
X104048560Y-122201829D01*
X104048552Y-122201827D01*
X103878433Y-122162397D01*
X103794142Y-122142859D01*
X103529534Y-122119941D01*
X103525099Y-122120185D01*
X103525095Y-122120185D01*
X103268780Y-122134291D01*
X103268773Y-122134292D01*
X103264337Y-122134536D01*
X103084398Y-122170328D01*
X103008205Y-122185483D01*
X103008203Y-122185484D01*
X103003842Y-122186351D01*
X102753246Y-122274354D01*
X102517551Y-122396788D01*
X102513936Y-122399371D01*
X102513930Y-122399375D01*
X102377198Y-122497086D01*
X102301457Y-122551211D01*
X102109278Y-122734541D01*
X101944848Y-122943120D01*
X101942616Y-122946962D01*
X101942613Y-122946967D01*
X101813685Y-123168932D01*
X101813682Y-123168938D01*
X101811447Y-123172786D01*
X101809773Y-123176920D01*
X101713410Y-123414826D01*
X101713407Y-123414834D01*
X101711737Y-123418958D01*
X101671316Y-123581683D01*
X101655760Y-123644309D01*
X101647708Y-123676723D01*
X101620637Y-123940939D01*
X100500500Y-123940939D01*
X100500500Y-74940939D01*
X101620637Y-74940939D01*
X101620812Y-74945391D01*
X101622957Y-75000000D01*
X101630145Y-75182932D01*
X101631064Y-75206332D01*
X101678782Y-75467609D01*
X101680191Y-75471832D01*
X101735271Y-75636926D01*
X101762838Y-75719556D01*
X101881555Y-75957146D01*
X102032564Y-76175638D01*
X102035586Y-76178907D01*
X102209836Y-76367411D01*
X102209841Y-76367416D01*
X102212852Y-76370673D01*
X102418823Y-76538360D01*
X102646366Y-76675352D01*
X102650461Y-76677086D01*
X102650463Y-76677087D01*
X102818521Y-76748250D01*
X102890941Y-76778916D01*
X102895234Y-76780054D01*
X102895239Y-76780056D01*
X103029220Y-76815580D01*
X103147669Y-76846986D01*
X103411426Y-76878204D01*
X103676951Y-76871946D01*
X103681349Y-76871214D01*
X103934555Y-76829069D01*
X103934559Y-76829068D01*
X103938945Y-76828338D01*
X103943186Y-76826997D01*
X103943189Y-76826996D01*
X104187935Y-76749593D01*
X104187937Y-76749592D01*
X104192181Y-76748250D01*
X104196192Y-76746324D01*
X104196197Y-76746322D01*
X104427587Y-76635210D01*
X104427588Y-76635209D01*
X104431606Y-76633280D01*
X104435312Y-76630804D01*
X104648736Y-76488199D01*
X104648740Y-76488196D01*
X104652444Y-76485721D01*
X104655761Y-76482750D01*
X104655765Y-76482747D01*
X104846968Y-76311491D01*
X104846969Y-76311490D01*
X104850286Y-76308519D01*
X105021187Y-76105207D01*
X105059791Y-76043309D01*
X105159379Y-75883625D01*
X105159379Y-75883624D01*
X105161737Y-75879844D01*
X105269130Y-75636926D01*
X105341224Y-75381299D01*
X105369586Y-75170143D01*
X105376154Y-75121245D01*
X105376154Y-75121240D01*
X105376581Y-75118064D01*
X105379759Y-75016924D01*
X105380190Y-75003222D01*
X105380190Y-75003217D01*
X105380291Y-75000000D01*
X105361533Y-74735065D01*
X105353167Y-74696204D01*
X105306568Y-74479763D01*
X105306568Y-74479761D01*
X105305632Y-74475416D01*
X105213703Y-74226233D01*
X105087582Y-73992490D01*
X104929784Y-73778849D01*
X104881697Y-73730000D01*
X107102677Y-73730000D01*
X107121930Y-73950068D01*
X107179106Y-74163450D01*
X107181428Y-74168431D01*
X107181429Y-74168432D01*
X107266152Y-74350120D01*
X107272466Y-74363661D01*
X107399174Y-74544620D01*
X107555380Y-74700826D01*
X107559888Y-74703983D01*
X107559891Y-74703985D01*
X107666007Y-74778288D01*
X107710335Y-74833745D01*
X107717644Y-74904364D01*
X107685613Y-74967725D01*
X107624412Y-75003710D01*
X107593736Y-75007501D01*
X107560624Y-75007501D01*
X107557230Y-75007870D01*
X107557224Y-75007870D01*
X107507278Y-75013295D01*
X107507274Y-75013296D01*
X107499420Y-75014149D01*
X107365176Y-75064474D01*
X107357997Y-75069854D01*
X107357994Y-75069856D01*
X107272384Y-75134018D01*
X107250454Y-75150454D01*
X107245072Y-75157635D01*
X107169856Y-75257994D01*
X107169854Y-75257997D01*
X107164474Y-75265176D01*
X107114149Y-75399420D01*
X107107500Y-75460623D01*
X107107501Y-77079376D01*
X107107870Y-77082770D01*
X107107870Y-77082776D01*
X107108494Y-77088515D01*
X107114149Y-77140580D01*
X107164474Y-77274824D01*
X107169854Y-77282003D01*
X107169856Y-77282006D01*
X107244148Y-77381132D01*
X107250454Y-77389546D01*
X107257635Y-77394928D01*
X107357994Y-77470144D01*
X107357997Y-77470146D01*
X107365176Y-77475526D01*
X107417751Y-77495235D01*
X107492025Y-77523079D01*
X107492027Y-77523079D01*
X107499420Y-77525851D01*
X107507270Y-77526704D01*
X107507271Y-77526704D01*
X107557217Y-77532130D01*
X107560623Y-77532500D01*
X108369881Y-77532500D01*
X109179376Y-77532499D01*
X109182770Y-77532130D01*
X109182776Y-77532130D01*
X109232722Y-77526705D01*
X109232726Y-77526704D01*
X109240580Y-77525851D01*
X109374824Y-77475526D01*
X109382003Y-77470146D01*
X109382006Y-77470144D01*
X109482365Y-77394928D01*
X109489546Y-77389546D01*
X109495852Y-77381132D01*
X109570144Y-77282006D01*
X109570146Y-77282003D01*
X109575526Y-77274824D01*
X109625851Y-77140580D01*
X109632500Y-77079377D01*
X109632500Y-77046263D01*
X109652502Y-76978142D01*
X109706158Y-76931649D01*
X109776432Y-76921545D01*
X109841012Y-76951039D01*
X109861708Y-76973986D01*
X109939174Y-77084620D01*
X110095380Y-77240826D01*
X110099888Y-77243983D01*
X110099891Y-77243985D01*
X110253173Y-77351314D01*
X110276338Y-77367534D01*
X110281320Y-77369857D01*
X110281325Y-77369860D01*
X110471568Y-77458571D01*
X110476550Y-77460894D01*
X110481858Y-77462316D01*
X110481860Y-77462317D01*
X110508261Y-77469391D01*
X110689932Y-77518070D01*
X110910000Y-77537323D01*
X111130068Y-77518070D01*
X111311739Y-77469391D01*
X111338140Y-77462317D01*
X111338142Y-77462316D01*
X111343450Y-77460894D01*
X111348432Y-77458571D01*
X111538675Y-77369860D01*
X111538680Y-77369857D01*
X111543662Y-77367534D01*
X111566827Y-77351314D01*
X111720109Y-77243985D01*
X111720112Y-77243983D01*
X111724620Y-77240826D01*
X111880826Y-77084620D01*
X112007534Y-76903661D01*
X112022665Y-76871214D01*
X112065805Y-76778699D01*
X112112722Y-76725414D01*
X112181000Y-76705953D01*
X112248960Y-76726495D01*
X112294195Y-76778699D01*
X112337336Y-76871214D01*
X112352466Y-76903661D01*
X112479174Y-77084620D01*
X112635380Y-77240826D01*
X112639888Y-77243983D01*
X112639891Y-77243985D01*
X112793173Y-77351314D01*
X112816338Y-77367534D01*
X112821320Y-77369857D01*
X112821325Y-77369860D01*
X113011568Y-77458571D01*
X113016550Y-77460894D01*
X113021858Y-77462316D01*
X113021860Y-77462317D01*
X113048261Y-77469391D01*
X113229932Y-77518070D01*
X113450000Y-77537323D01*
X113670068Y-77518070D01*
X113851739Y-77469391D01*
X113878140Y-77462317D01*
X113878142Y-77462316D01*
X113883450Y-77460894D01*
X113888432Y-77458571D01*
X114078675Y-77369860D01*
X114078680Y-77369857D01*
X114083662Y-77367534D01*
X114106827Y-77351314D01*
X114260109Y-77243985D01*
X114260112Y-77243983D01*
X114264620Y-77240826D01*
X114420826Y-77084620D01*
X114547534Y-76903661D01*
X114562665Y-76871214D01*
X114605805Y-76778699D01*
X114652722Y-76725414D01*
X114721000Y-76705953D01*
X114788960Y-76726495D01*
X114834195Y-76778699D01*
X114877336Y-76871214D01*
X114892466Y-76903661D01*
X115019174Y-77084620D01*
X115175380Y-77240826D01*
X115179888Y-77243983D01*
X115179891Y-77243985D01*
X115333173Y-77351314D01*
X115356338Y-77367534D01*
X115361320Y-77369857D01*
X115361325Y-77369860D01*
X115551568Y-77458571D01*
X115556550Y-77460894D01*
X115561858Y-77462316D01*
X115561860Y-77462317D01*
X115588261Y-77469391D01*
X115769932Y-77518070D01*
X115990000Y-77537323D01*
X116210068Y-77518070D01*
X116391739Y-77469391D01*
X116418140Y-77462317D01*
X116418142Y-77462316D01*
X116423450Y-77460894D01*
X116428432Y-77458571D01*
X116618675Y-77369860D01*
X116618680Y-77369857D01*
X116623662Y-77367534D01*
X116646827Y-77351314D01*
X116679013Y-77328777D01*
X117835777Y-77328777D01*
X117845074Y-77340793D01*
X117888069Y-77370898D01*
X117897555Y-77376376D01*
X118088993Y-77465645D01*
X118099285Y-77469391D01*
X118303309Y-77524059D01*
X118314104Y-77525962D01*
X118524525Y-77544372D01*
X118535475Y-77544372D01*
X118745896Y-77525962D01*
X118756691Y-77524059D01*
X118960715Y-77469391D01*
X118971007Y-77465645D01*
X119162445Y-77376376D01*
X119171931Y-77370898D01*
X119215764Y-77340207D01*
X119224139Y-77329729D01*
X119217071Y-77316281D01*
X118542812Y-76642022D01*
X118528868Y-76634408D01*
X118527035Y-76634539D01*
X118520420Y-76638790D01*
X117842207Y-77317003D01*
X117835777Y-77328777D01*
X116679013Y-77328777D01*
X116800109Y-77243985D01*
X116800112Y-77243983D01*
X116804620Y-77240826D01*
X116960826Y-77084620D01*
X117087534Y-76903661D01*
X117102665Y-76871214D01*
X117141668Y-76787571D01*
X117188586Y-76734286D01*
X117256863Y-76714825D01*
X117324823Y-76735367D01*
X117370058Y-76787571D01*
X117423623Y-76902441D01*
X117429103Y-76911932D01*
X117459794Y-76955765D01*
X117470271Y-76964140D01*
X117483718Y-76957072D01*
X118157978Y-76282812D01*
X118165592Y-76268868D01*
X118165461Y-76267035D01*
X118161210Y-76260420D01*
X117482997Y-75582207D01*
X117471223Y-75575777D01*
X117459207Y-75585074D01*
X117429103Y-75628068D01*
X117423623Y-75637559D01*
X117370058Y-75752429D01*
X117323141Y-75805714D01*
X117254863Y-75825175D01*
X117186903Y-75804633D01*
X117141668Y-75752429D01*
X117089857Y-75641320D01*
X117089855Y-75641317D01*
X117087534Y-75636339D01*
X116960826Y-75455380D01*
X116804620Y-75299174D01*
X116800112Y-75296017D01*
X116800109Y-75296015D01*
X116628171Y-75175623D01*
X116628168Y-75175621D01*
X116623662Y-75172466D01*
X116618680Y-75170143D01*
X116618675Y-75170140D01*
X116498699Y-75114195D01*
X116445414Y-75067278D01*
X116425953Y-74999001D01*
X116446495Y-74931041D01*
X116498699Y-74885805D01*
X116618675Y-74829860D01*
X116618680Y-74829857D01*
X116623662Y-74827534D01*
X116628171Y-74824377D01*
X116800109Y-74703985D01*
X116800112Y-74703983D01*
X116804620Y-74700826D01*
X116960826Y-74544620D01*
X117087534Y-74363661D01*
X117093849Y-74350120D01*
X117145805Y-74238699D01*
X117192722Y-74185414D01*
X117261000Y-74165953D01*
X117328960Y-74186495D01*
X117374195Y-74238699D01*
X117426152Y-74350120D01*
X117432466Y-74363661D01*
X117559174Y-74544620D01*
X117715380Y-74700826D01*
X117719888Y-74703983D01*
X117719891Y-74703985D01*
X117891829Y-74824377D01*
X117896338Y-74827534D01*
X117901320Y-74829857D01*
X117901325Y-74829860D01*
X118012429Y-74881668D01*
X118065714Y-74928585D01*
X118085175Y-74996862D01*
X118064633Y-75064822D01*
X118012429Y-75110058D01*
X117897559Y-75163623D01*
X117888068Y-75169103D01*
X117844235Y-75199794D01*
X117835860Y-75210271D01*
X117842928Y-75223718D01*
X118517188Y-75897978D01*
X118531132Y-75905592D01*
X118532965Y-75905461D01*
X118539580Y-75901210D01*
X119217793Y-75222997D01*
X119224223Y-75211223D01*
X119214926Y-75199207D01*
X119171931Y-75169102D01*
X119162445Y-75163624D01*
X119047571Y-75110058D01*
X118994286Y-75063141D01*
X118974825Y-74994864D01*
X118995367Y-74926904D01*
X119047571Y-74881668D01*
X119158675Y-74829860D01*
X119158680Y-74829857D01*
X119163662Y-74827534D01*
X119168171Y-74824377D01*
X119340109Y-74703985D01*
X119340112Y-74703983D01*
X119344620Y-74700826D01*
X119500826Y-74544620D01*
X119627534Y-74363661D01*
X119633849Y-74350120D01*
X119685805Y-74238699D01*
X119732722Y-74185414D01*
X119801000Y-74165953D01*
X119868960Y-74186495D01*
X119914195Y-74238699D01*
X119966152Y-74350120D01*
X119972466Y-74363661D01*
X120099174Y-74544620D01*
X120255380Y-74700826D01*
X120259888Y-74703983D01*
X120259891Y-74703985D01*
X120431829Y-74824377D01*
X120436338Y-74827534D01*
X120441320Y-74829857D01*
X120441325Y-74829860D01*
X120561301Y-74885805D01*
X120614586Y-74932722D01*
X120634047Y-75000999D01*
X120613505Y-75068959D01*
X120561301Y-75114195D01*
X120441320Y-75170143D01*
X120441317Y-75170145D01*
X120436339Y-75172466D01*
X120255380Y-75299174D01*
X120099174Y-75455380D01*
X119972466Y-75636339D01*
X119970145Y-75641317D01*
X119970143Y-75641320D01*
X119918332Y-75752429D01*
X119871414Y-75805714D01*
X119803137Y-75825175D01*
X119735177Y-75804633D01*
X119689942Y-75752429D01*
X119636377Y-75637559D01*
X119630897Y-75628068D01*
X119600206Y-75584235D01*
X119589729Y-75575860D01*
X119576282Y-75582928D01*
X118902022Y-76257188D01*
X118894408Y-76271132D01*
X118894539Y-76272965D01*
X118898790Y-76279580D01*
X119577003Y-76957793D01*
X119588777Y-76964223D01*
X119600793Y-76954926D01*
X119630897Y-76911932D01*
X119636377Y-76902441D01*
X119689942Y-76787571D01*
X119736859Y-76734286D01*
X119805137Y-76714825D01*
X119873097Y-76735367D01*
X119918332Y-76787571D01*
X119957336Y-76871214D01*
X119972466Y-76903661D01*
X120099174Y-77084620D01*
X120255380Y-77240826D01*
X120259888Y-77243983D01*
X120259891Y-77243985D01*
X120413173Y-77351314D01*
X120436338Y-77367534D01*
X120441320Y-77369857D01*
X120441325Y-77369860D01*
X120631568Y-77458571D01*
X120636550Y-77460894D01*
X120641858Y-77462316D01*
X120641860Y-77462317D01*
X120668261Y-77469391D01*
X120849932Y-77518070D01*
X121070000Y-77537323D01*
X121290068Y-77518070D01*
X121471739Y-77469391D01*
X121498140Y-77462317D01*
X121498142Y-77462316D01*
X121503450Y-77460894D01*
X121508432Y-77458571D01*
X121698675Y-77369860D01*
X121698680Y-77369857D01*
X121703662Y-77367534D01*
X121726827Y-77351314D01*
X121880109Y-77243985D01*
X121880112Y-77243983D01*
X121884620Y-77240826D01*
X122040826Y-77084620D01*
X122167534Y-76903661D01*
X122182665Y-76871214D01*
X122225805Y-76778699D01*
X122272722Y-76725414D01*
X122341000Y-76705953D01*
X122408960Y-76726495D01*
X122454195Y-76778699D01*
X122497336Y-76871214D01*
X122512466Y-76903661D01*
X122639174Y-77084620D01*
X122795380Y-77240826D01*
X122799888Y-77243983D01*
X122799891Y-77243985D01*
X122953173Y-77351314D01*
X122976338Y-77367534D01*
X122981320Y-77369857D01*
X122981325Y-77369860D01*
X123171568Y-77458571D01*
X123176550Y-77460894D01*
X123181858Y-77462316D01*
X123181860Y-77462317D01*
X123208261Y-77469391D01*
X123389932Y-77518070D01*
X123610000Y-77537323D01*
X123830068Y-77518070D01*
X124011739Y-77469391D01*
X124038140Y-77462317D01*
X124038142Y-77462316D01*
X124043450Y-77460894D01*
X124048432Y-77458571D01*
X124238675Y-77369860D01*
X124238680Y-77369857D01*
X124243662Y-77367534D01*
X124266827Y-77351314D01*
X124420109Y-77243985D01*
X124420112Y-77243983D01*
X124424620Y-77240826D01*
X124580826Y-77084620D01*
X124707534Y-76903661D01*
X124722665Y-76871214D01*
X124765805Y-76778699D01*
X124812722Y-76725414D01*
X124881000Y-76705953D01*
X124948960Y-76726495D01*
X124994195Y-76778699D01*
X125037336Y-76871214D01*
X125052466Y-76903661D01*
X125179174Y-77084620D01*
X125335380Y-77240826D01*
X125339888Y-77243983D01*
X125339891Y-77243985D01*
X125493173Y-77351314D01*
X125516338Y-77367534D01*
X125521320Y-77369857D01*
X125521325Y-77369860D01*
X125711568Y-77458571D01*
X125716550Y-77460894D01*
X125721858Y-77462316D01*
X125721860Y-77462317D01*
X125748261Y-77469391D01*
X125929932Y-77518070D01*
X126150000Y-77537323D01*
X126370068Y-77518070D01*
X126551739Y-77469391D01*
X126578140Y-77462317D01*
X126578142Y-77462316D01*
X126583450Y-77460894D01*
X126588432Y-77458571D01*
X126778675Y-77369860D01*
X126778680Y-77369857D01*
X126783662Y-77367534D01*
X126806827Y-77351314D01*
X126960109Y-77243985D01*
X126960112Y-77243983D01*
X126964620Y-77240826D01*
X127120826Y-77084620D01*
X127247534Y-76903661D01*
X127262665Y-76871214D01*
X127305805Y-76778699D01*
X127352722Y-76725414D01*
X127421000Y-76705953D01*
X127488960Y-76726495D01*
X127534195Y-76778699D01*
X127577336Y-76871214D01*
X127592466Y-76903661D01*
X127719174Y-77084620D01*
X127875380Y-77240826D01*
X127885772Y-77248103D01*
X127930099Y-77303557D01*
X127939500Y-77351314D01*
X127939500Y-92826943D01*
X127919498Y-92895064D01*
X127902595Y-92916038D01*
X124106038Y-96712595D01*
X124043726Y-96746621D01*
X124016943Y-96749500D01*
X122039986Y-96749500D01*
X121971865Y-96729498D01*
X121965924Y-96725435D01*
X121958073Y-96719730D01*
X121958067Y-96719727D01*
X121952730Y-96715849D01*
X121779803Y-96638856D01*
X121678742Y-96617375D01*
X121601103Y-96600872D01*
X121601099Y-96600872D01*
X121594646Y-96599500D01*
X121405354Y-96599500D01*
X121398901Y-96600872D01*
X121398897Y-96600872D01*
X121321258Y-96617375D01*
X121220197Y-96638856D01*
X121047270Y-96715849D01*
X121041929Y-96719729D01*
X121041928Y-96719730D01*
X121004916Y-96746621D01*
X120894129Y-96827112D01*
X120767467Y-96967784D01*
X120672821Y-97131716D01*
X120614326Y-97311744D01*
X120594540Y-97500000D01*
X120595230Y-97506565D01*
X120612851Y-97674218D01*
X120614326Y-97688256D01*
X120672821Y-97868284D01*
X120767467Y-98032216D01*
X120771885Y-98037123D01*
X120771886Y-98037124D01*
X120860962Y-98136052D01*
X120894129Y-98172888D01*
X120899468Y-98176767D01*
X121007351Y-98255148D01*
X121047270Y-98284151D01*
X121220197Y-98361144D01*
X121318212Y-98381978D01*
X121398897Y-98399128D01*
X121398901Y-98399128D01*
X121405354Y-98400500D01*
X121594646Y-98400500D01*
X121601099Y-98399128D01*
X121601103Y-98399128D01*
X121681788Y-98381978D01*
X121779803Y-98361144D01*
X121952730Y-98284151D01*
X121958067Y-98280273D01*
X121958073Y-98280270D01*
X121965924Y-98274565D01*
X122032791Y-98250706D01*
X122039986Y-98250500D01*
X124313546Y-98250500D01*
X124332496Y-98251933D01*
X124346396Y-98254048D01*
X124346400Y-98254048D01*
X124353630Y-98255148D01*
X124360922Y-98254555D01*
X124360925Y-98254555D01*
X124405675Y-98250915D01*
X124415889Y-98250500D01*
X124423822Y-98250500D01*
X124433118Y-98249416D01*
X124451736Y-98247246D01*
X124456111Y-98246813D01*
X124486274Y-98244360D01*
X124528059Y-98240961D01*
X124535021Y-98238706D01*
X124540816Y-98237548D01*
X124546558Y-98236191D01*
X124553828Y-98235343D01*
X124621736Y-98210694D01*
X124625864Y-98209277D01*
X124687583Y-98189283D01*
X124687585Y-98189282D01*
X124694546Y-98187027D01*
X124700800Y-98183232D01*
X124706179Y-98180769D01*
X124711455Y-98178127D01*
X124718331Y-98175631D01*
X124778709Y-98136046D01*
X124782419Y-98133705D01*
X124839361Y-98099152D01*
X124839368Y-98099147D01*
X124844160Y-98096239D01*
X124852452Y-98088915D01*
X124852474Y-98088940D01*
X124855569Y-98086194D01*
X124858563Y-98083691D01*
X124864685Y-98079677D01*
X124917384Y-98024047D01*
X124919761Y-98021606D01*
X128600905Y-94340462D01*
X128663217Y-94306436D01*
X128734032Y-94311501D01*
X128779095Y-94340462D01*
X132086889Y-97648256D01*
X132117627Y-97698415D01*
X132172821Y-97868284D01*
X132267467Y-98032216D01*
X132271885Y-98037123D01*
X132271886Y-98037124D01*
X132360962Y-98136052D01*
X132394129Y-98172888D01*
X132399468Y-98176767D01*
X132507351Y-98255148D01*
X132547270Y-98284151D01*
X132720197Y-98361144D01*
X132818212Y-98381978D01*
X132898897Y-98399128D01*
X132898901Y-98399128D01*
X132905354Y-98400500D01*
X133094646Y-98400500D01*
X133101099Y-98399128D01*
X133101103Y-98399128D01*
X133181788Y-98381978D01*
X133279803Y-98361144D01*
X133452730Y-98284151D01*
X133492650Y-98255148D01*
X133600532Y-98176767D01*
X133605871Y-98172888D01*
X133639039Y-98136052D01*
X133728114Y-98037124D01*
X133728115Y-98037123D01*
X133732533Y-98032216D01*
X133827179Y-97868284D01*
X133885674Y-97688256D01*
X133887150Y-97674218D01*
X133904770Y-97506565D01*
X133905460Y-97500000D01*
X133885674Y-97311744D01*
X133827179Y-97131716D01*
X133732533Y-96967784D01*
X133605871Y-96827112D01*
X133495084Y-96746621D01*
X133458072Y-96719730D01*
X133458071Y-96719729D01*
X133452730Y-96715849D01*
X133279803Y-96638856D01*
X133273345Y-96637483D01*
X133273341Y-96637482D01*
X133215247Y-96625134D01*
X133152349Y-96590982D01*
X129477405Y-92916038D01*
X129443379Y-92853726D01*
X129440500Y-92826943D01*
X129440500Y-88430637D01*
X129460502Y-88362516D01*
X129514158Y-88316023D01*
X129584432Y-88305919D01*
X129617745Y-88315529D01*
X129720197Y-88361144D01*
X129789422Y-88375858D01*
X129898897Y-88399128D01*
X129898901Y-88399128D01*
X129905354Y-88400500D01*
X130094646Y-88400500D01*
X130101099Y-88399128D01*
X130101103Y-88399128D01*
X130210578Y-88375858D01*
X130279803Y-88361144D01*
X130452730Y-88284151D01*
X130461340Y-88277896D01*
X130600532Y-88176767D01*
X130605871Y-88172888D01*
X130612711Y-88165292D01*
X130728114Y-88037124D01*
X130728115Y-88037123D01*
X130732533Y-88032216D01*
X130827179Y-87868284D01*
X130885674Y-87688256D01*
X130905460Y-87500000D01*
X130886750Y-87321977D01*
X130886364Y-87318307D01*
X130886364Y-87318305D01*
X130885674Y-87311744D01*
X130827179Y-87131716D01*
X130732533Y-86967784D01*
X130657864Y-86884856D01*
X130627147Y-86820848D01*
X130625500Y-86800545D01*
X130625500Y-77578074D01*
X130645502Y-77509953D01*
X130699158Y-77463460D01*
X130769432Y-77453356D01*
X130793153Y-77459310D01*
X130796550Y-77460894D01*
X131009932Y-77518070D01*
X131230000Y-77537323D01*
X131450068Y-77518070D01*
X131631739Y-77469391D01*
X131658140Y-77462317D01*
X131658142Y-77462316D01*
X131663450Y-77460894D01*
X131668432Y-77458571D01*
X131858675Y-77369860D01*
X131858680Y-77369857D01*
X131863662Y-77367534D01*
X131886827Y-77351314D01*
X132040109Y-77243985D01*
X132040112Y-77243983D01*
X132044620Y-77240826D01*
X132200826Y-77084620D01*
X132327534Y-76903661D01*
X132342665Y-76871214D01*
X132385805Y-76778699D01*
X132432722Y-76725414D01*
X132501000Y-76705953D01*
X132568960Y-76726495D01*
X132614195Y-76778699D01*
X132657336Y-76871214D01*
X132672466Y-76903661D01*
X132799174Y-77084620D01*
X132955380Y-77240826D01*
X132959888Y-77243983D01*
X132959891Y-77243985D01*
X133113173Y-77351314D01*
X133136338Y-77367534D01*
X133141320Y-77369857D01*
X133141325Y-77369860D01*
X133331568Y-77458571D01*
X133336550Y-77460894D01*
X133341858Y-77462316D01*
X133341860Y-77462317D01*
X133368261Y-77469391D01*
X133549932Y-77518070D01*
X133770000Y-77537323D01*
X133811686Y-77533676D01*
X133881290Y-77547665D01*
X133932283Y-77597065D01*
X133948473Y-77666191D01*
X133924720Y-77733096D01*
X133911762Y-77748292D01*
X133097459Y-78562595D01*
X133035147Y-78596621D01*
X133008364Y-78599500D01*
X132905354Y-78599500D01*
X132898901Y-78600872D01*
X132898897Y-78600872D01*
X132818212Y-78618022D01*
X132720197Y-78638856D01*
X132547270Y-78715849D01*
X132394129Y-78827112D01*
X132267467Y-78967784D01*
X132172821Y-79131716D01*
X132114326Y-79311744D01*
X132094540Y-79500000D01*
X132114326Y-79688256D01*
X132172821Y-79868284D01*
X132267467Y-80032216D01*
X132394129Y-80172888D01*
X132547270Y-80284151D01*
X132720197Y-80361144D01*
X132818212Y-80381978D01*
X132898897Y-80399128D01*
X132898901Y-80399128D01*
X132905354Y-80400500D01*
X133094646Y-80400500D01*
X133101099Y-80399128D01*
X133101103Y-80399128D01*
X133181788Y-80381978D01*
X133279803Y-80361144D01*
X133452730Y-80284151D01*
X133605871Y-80172888D01*
X133732533Y-80032216D01*
X133827179Y-79868284D01*
X133885674Y-79688256D01*
X133889699Y-79649958D01*
X133916711Y-79584301D01*
X133925914Y-79574032D01*
X135953270Y-77546675D01*
X136015582Y-77512650D01*
X136074973Y-77514062D01*
X136078445Y-77514992D01*
X136089932Y-77518070D01*
X136310000Y-77537323D01*
X136530068Y-77518070D01*
X136643174Y-77487763D01*
X136690889Y-77474978D01*
X136761865Y-77476668D01*
X136820661Y-77516462D01*
X136848609Y-77581726D01*
X136849500Y-77596685D01*
X136849500Y-77678364D01*
X136829498Y-77746485D01*
X136812595Y-77767459D01*
X133767459Y-80812595D01*
X133705147Y-80846621D01*
X133678364Y-80849500D01*
X132677625Y-80849500D01*
X132603564Y-80825436D01*
X132458072Y-80719730D01*
X132458071Y-80719729D01*
X132452730Y-80715849D01*
X132279803Y-80638856D01*
X132181788Y-80618022D01*
X132101103Y-80600872D01*
X132101099Y-80600872D01*
X132094646Y-80599500D01*
X131905354Y-80599500D01*
X131898901Y-80600872D01*
X131898897Y-80600872D01*
X131818212Y-80618022D01*
X131720197Y-80638856D01*
X131547270Y-80715849D01*
X131394129Y-80827112D01*
X131389716Y-80832014D01*
X131389714Y-80832015D01*
X131271886Y-80962876D01*
X131267467Y-80967784D01*
X131172821Y-81131716D01*
X131114326Y-81311744D01*
X131113636Y-81318305D01*
X131113636Y-81318307D01*
X131111478Y-81338840D01*
X131094540Y-81500000D01*
X131114326Y-81688256D01*
X131172821Y-81868284D01*
X131176124Y-81874006D01*
X131176125Y-81874007D01*
X131243294Y-81990347D01*
X131267467Y-82032216D01*
X131271885Y-82037123D01*
X131271886Y-82037124D01*
X131376006Y-82152760D01*
X131394129Y-82172888D01*
X131547270Y-82284151D01*
X131720197Y-82361144D01*
X131818212Y-82381978D01*
X131898897Y-82399128D01*
X131898901Y-82399128D01*
X131905354Y-82400500D01*
X132094646Y-82400500D01*
X132101099Y-82399128D01*
X132101103Y-82399128D01*
X132181788Y-82381978D01*
X132279803Y-82361144D01*
X132452730Y-82284151D01*
X132603564Y-82174564D01*
X132677625Y-82150500D01*
X133919000Y-82150500D01*
X133930640Y-82151049D01*
X133938296Y-82152760D01*
X133946219Y-82152511D01*
X134008230Y-82150562D01*
X134012188Y-82150500D01*
X134040925Y-82150500D01*
X134045196Y-82149961D01*
X134057024Y-82149029D01*
X134102569Y-82147597D01*
X134110183Y-82145385D01*
X134110188Y-82145384D01*
X134122792Y-82141722D01*
X134142156Y-82137711D01*
X134163058Y-82135071D01*
X134170429Y-82132152D01*
X134170431Y-82132152D01*
X134205420Y-82118298D01*
X134216631Y-82114459D01*
X134260398Y-82101744D01*
X134278536Y-82091018D01*
X134296281Y-82082324D01*
X134315871Y-82074568D01*
X134352738Y-82047782D01*
X134362646Y-82041275D01*
X134395042Y-82022117D01*
X134395047Y-82022113D01*
X134401865Y-82018081D01*
X134416758Y-82003188D01*
X134431792Y-81990347D01*
X134442423Y-81982623D01*
X134448837Y-81977963D01*
X134477880Y-81942856D01*
X134485869Y-81934077D01*
X137902698Y-78517248D01*
X137911315Y-78509407D01*
X137917940Y-78505202D01*
X137965850Y-78454183D01*
X137968604Y-78451342D01*
X137988911Y-78431035D01*
X137991340Y-78427904D01*
X137991345Y-78427898D01*
X137991558Y-78427623D01*
X137999255Y-78418610D01*
X138030448Y-78385393D01*
X138040596Y-78366934D01*
X138051450Y-78350410D01*
X138059504Y-78340027D01*
X138059505Y-78340026D01*
X138064362Y-78333764D01*
X138082453Y-78291959D01*
X138087675Y-78281300D01*
X138105809Y-78248314D01*
X138105810Y-78248310D01*
X138109627Y-78241368D01*
X138114866Y-78220964D01*
X138121270Y-78202260D01*
X138126487Y-78190205D01*
X138126490Y-78190195D01*
X138129635Y-78182927D01*
X138130874Y-78175104D01*
X138130877Y-78175094D01*
X138136763Y-78137933D01*
X138139169Y-78126312D01*
X138148528Y-78089858D01*
X138150500Y-78082177D01*
X138150500Y-78061111D01*
X138152051Y-78041400D01*
X138154106Y-78028425D01*
X138155346Y-78020596D01*
X138151059Y-77975242D01*
X138150500Y-77963387D01*
X138150500Y-77542888D01*
X138170502Y-77474767D01*
X138224158Y-77428274D01*
X138294432Y-77418170D01*
X138329750Y-77428693D01*
X138408993Y-77465645D01*
X138419285Y-77469391D01*
X138623309Y-77524059D01*
X138634104Y-77525962D01*
X138844525Y-77544372D01*
X138855475Y-77544372D01*
X139065896Y-77525962D01*
X139076691Y-77524059D01*
X139280715Y-77469391D01*
X139291007Y-77465645D01*
X139482445Y-77376376D01*
X139491931Y-77370898D01*
X139535764Y-77340207D01*
X139544139Y-77329729D01*
X139537071Y-77316281D01*
X138579885Y-76359095D01*
X138545859Y-76296783D01*
X138550924Y-76225968D01*
X138579885Y-76180905D01*
X139537793Y-75222997D01*
X139544223Y-75211223D01*
X139534926Y-75199207D01*
X139491931Y-75169102D01*
X139482445Y-75163624D01*
X139367571Y-75110058D01*
X139314286Y-75063141D01*
X139294825Y-74994864D01*
X139315367Y-74926904D01*
X139367571Y-74881668D01*
X139478675Y-74829860D01*
X139478680Y-74829857D01*
X139483662Y-74827534D01*
X139488171Y-74824377D01*
X139660109Y-74703985D01*
X139660112Y-74703983D01*
X139664620Y-74700826D01*
X139820826Y-74544620D01*
X139947534Y-74363661D01*
X139953849Y-74350120D01*
X140005805Y-74238699D01*
X140052722Y-74185414D01*
X140121000Y-74165953D01*
X140188960Y-74186495D01*
X140234195Y-74238699D01*
X140286152Y-74350120D01*
X140292466Y-74363661D01*
X140419174Y-74544620D01*
X140575380Y-74700826D01*
X140579888Y-74703983D01*
X140579891Y-74703985D01*
X140751829Y-74824377D01*
X140756338Y-74827534D01*
X140761320Y-74829857D01*
X140761325Y-74829860D01*
X140881301Y-74885805D01*
X140934586Y-74932722D01*
X140954047Y-75000999D01*
X140933505Y-75068959D01*
X140881301Y-75114195D01*
X140761320Y-75170143D01*
X140761317Y-75170145D01*
X140756339Y-75172466D01*
X140575380Y-75299174D01*
X140419174Y-75455380D01*
X140292466Y-75636339D01*
X140290145Y-75641317D01*
X140290143Y-75641320D01*
X140238332Y-75752429D01*
X140191414Y-75805714D01*
X140123137Y-75825175D01*
X140055177Y-75804633D01*
X140009942Y-75752429D01*
X139956377Y-75637559D01*
X139950897Y-75628068D01*
X139920206Y-75584235D01*
X139909729Y-75575860D01*
X139896282Y-75582928D01*
X139222022Y-76257188D01*
X139214408Y-76271132D01*
X139214539Y-76272965D01*
X139218790Y-76279580D01*
X139897003Y-76957793D01*
X139908777Y-76964223D01*
X139920793Y-76954926D01*
X139950897Y-76911932D01*
X139956377Y-76902441D01*
X140009942Y-76787571D01*
X140056859Y-76734286D01*
X140125137Y-76714825D01*
X140193097Y-76735367D01*
X140238332Y-76787571D01*
X140277336Y-76871214D01*
X140292466Y-76903661D01*
X140419174Y-77084620D01*
X140575380Y-77240826D01*
X140579888Y-77243983D01*
X140579891Y-77243985D01*
X140733173Y-77351314D01*
X140756338Y-77367534D01*
X140761320Y-77369857D01*
X140761325Y-77369860D01*
X140951568Y-77458571D01*
X140956550Y-77460894D01*
X140961858Y-77462316D01*
X140961860Y-77462317D01*
X140988261Y-77469391D01*
X141169932Y-77518070D01*
X141390000Y-77537323D01*
X141610068Y-77518070D01*
X141791739Y-77469391D01*
X141818140Y-77462317D01*
X141818142Y-77462316D01*
X141823450Y-77460894D01*
X141828432Y-77458571D01*
X142018675Y-77369860D01*
X142018680Y-77369857D01*
X142023662Y-77367534D01*
X142046827Y-77351314D01*
X142200109Y-77243985D01*
X142200112Y-77243983D01*
X142204620Y-77240826D01*
X142360826Y-77084620D01*
X142487534Y-76903661D01*
X142502665Y-76871214D01*
X142545805Y-76778699D01*
X142592722Y-76725414D01*
X142661000Y-76705953D01*
X142728960Y-76726495D01*
X142774195Y-76778699D01*
X142817336Y-76871214D01*
X142832466Y-76903661D01*
X142959174Y-77084620D01*
X143115380Y-77240826D01*
X143119888Y-77243983D01*
X143119891Y-77243985D01*
X143273173Y-77351314D01*
X143296338Y-77367534D01*
X143301320Y-77369857D01*
X143301325Y-77369860D01*
X143491568Y-77458571D01*
X143496550Y-77460894D01*
X143501858Y-77462316D01*
X143501860Y-77462317D01*
X143528261Y-77469391D01*
X143709932Y-77518070D01*
X143930000Y-77537323D01*
X144150068Y-77518070D01*
X144331739Y-77469391D01*
X144358140Y-77462317D01*
X144358142Y-77462316D01*
X144363450Y-77460894D01*
X144368432Y-77458571D01*
X144558675Y-77369860D01*
X144558680Y-77369857D01*
X144563662Y-77367534D01*
X144586827Y-77351314D01*
X144740109Y-77243985D01*
X144740112Y-77243983D01*
X144744620Y-77240826D01*
X144900826Y-77084620D01*
X145027534Y-76903661D01*
X145042665Y-76871214D01*
X145085805Y-76778699D01*
X145132722Y-76725414D01*
X145201000Y-76705953D01*
X145268960Y-76726495D01*
X145314195Y-76778699D01*
X145357336Y-76871214D01*
X145372466Y-76903661D01*
X145499174Y-77084620D01*
X145655380Y-77240826D01*
X145659888Y-77243983D01*
X145659891Y-77243985D01*
X145790771Y-77335628D01*
X145835099Y-77391085D01*
X145844500Y-77438841D01*
X145844500Y-99333864D01*
X145824498Y-99401985D01*
X145812136Y-99418174D01*
X145767467Y-99467784D01*
X145672821Y-99631716D01*
X145614326Y-99811744D01*
X145594540Y-100000000D01*
X145614326Y-100188256D01*
X145672821Y-100368284D01*
X145676124Y-100374006D01*
X145676125Y-100374007D01*
X145757232Y-100514488D01*
X145767467Y-100532216D01*
X145771885Y-100537123D01*
X145771886Y-100537124D01*
X145809609Y-100579019D01*
X145894129Y-100672888D01*
X145899468Y-100676767D01*
X146035337Y-100775481D01*
X146047270Y-100784151D01*
X146076294Y-100797073D01*
X146130387Y-100843051D01*
X146151036Y-100910979D01*
X146131684Y-100979287D01*
X146114137Y-101001273D01*
X144277814Y-102837595D01*
X144215502Y-102871621D01*
X144188719Y-102874500D01*
X128077703Y-102874500D01*
X128066743Y-102873983D01*
X128059333Y-102872327D01*
X128051407Y-102872576D01*
X127992145Y-102874438D01*
X127988188Y-102874500D01*
X127960650Y-102874500D01*
X127956719Y-102874997D01*
X127956588Y-102875005D01*
X127944939Y-102875922D01*
X127923359Y-102876599D01*
X127909294Y-102877041D01*
X127909293Y-102877041D01*
X127901373Y-102877290D01*
X127893759Y-102879502D01*
X127893760Y-102879502D01*
X127882287Y-102882835D01*
X127862928Y-102886844D01*
X127851079Y-102888341D01*
X127851073Y-102888343D01*
X127843208Y-102889336D01*
X127835837Y-102892254D01*
X127835835Y-102892255D01*
X127802692Y-102905378D01*
X127791459Y-102909224D01*
X127749610Y-102921382D01*
X127732501Y-102931500D01*
X127714755Y-102940195D01*
X127696268Y-102947514D01*
X127661012Y-102973129D01*
X127651090Y-102979646D01*
X127620410Y-102997790D01*
X127620406Y-102997793D01*
X127613580Y-103001830D01*
X127599530Y-103015880D01*
X127584496Y-103028721D01*
X127568413Y-103040406D01*
X127563360Y-103046514D01*
X127540635Y-103073984D01*
X127532645Y-103082765D01*
X126612647Y-104002762D01*
X126604530Y-104010148D01*
X126598123Y-104014214D01*
X126592700Y-104019989D01*
X126592695Y-104019993D01*
X126552099Y-104063223D01*
X126549344Y-104066065D01*
X126529880Y-104085529D01*
X126527452Y-104088659D01*
X126527380Y-104088741D01*
X126519771Y-104097649D01*
X126489938Y-104129418D01*
X126486119Y-104136365D01*
X126480365Y-104146832D01*
X126469508Y-104163361D01*
X126457327Y-104179064D01*
X126454179Y-104186339D01*
X126440020Y-104219058D01*
X126434798Y-104229718D01*
X126413803Y-104267908D01*
X126408859Y-104287164D01*
X126402460Y-104305853D01*
X126394562Y-104324104D01*
X126393322Y-104331934D01*
X126387744Y-104367154D01*
X126385340Y-104378763D01*
X126374500Y-104420981D01*
X126374500Y-104440856D01*
X126372949Y-104460566D01*
X126369840Y-104480196D01*
X126370586Y-104488088D01*
X126373941Y-104523579D01*
X126374500Y-104535437D01*
X126374500Y-107800545D01*
X126354498Y-107868666D01*
X126342137Y-107884855D01*
X126267467Y-107967784D01*
X126172821Y-108131716D01*
X126114326Y-108311744D01*
X126094540Y-108500000D01*
X126114326Y-108688256D01*
X126172821Y-108868284D01*
X126267467Y-109032216D01*
X126271885Y-109037123D01*
X126271886Y-109037124D01*
X126375500Y-109152198D01*
X126394129Y-109172888D01*
X126547270Y-109284151D01*
X126720197Y-109361144D01*
X126818212Y-109381978D01*
X126898897Y-109399128D01*
X126898901Y-109399128D01*
X126905354Y-109400500D01*
X127094646Y-109400500D01*
X127101099Y-109399128D01*
X127101103Y-109399128D01*
X127181788Y-109381978D01*
X127279803Y-109361144D01*
X127447253Y-109286590D01*
X127517617Y-109277155D01*
X127581915Y-109307261D01*
X127619728Y-109367349D01*
X127624500Y-109401696D01*
X127624500Y-110300545D01*
X127604498Y-110368666D01*
X127592137Y-110384855D01*
X127517467Y-110467784D01*
X127422821Y-110631716D01*
X127364326Y-110811744D01*
X127344540Y-111000000D01*
X127364326Y-111188256D01*
X127422821Y-111368284D01*
X127517467Y-111532216D01*
X127644129Y-111672888D01*
X127797270Y-111784151D01*
X127970197Y-111861144D01*
X128068212Y-111881978D01*
X128148897Y-111899128D01*
X128148901Y-111899128D01*
X128155354Y-111900500D01*
X128344646Y-111900500D01*
X128351099Y-111899128D01*
X128351103Y-111899128D01*
X128431788Y-111881978D01*
X128529803Y-111861144D01*
X128702730Y-111784151D01*
X128855871Y-111672888D01*
X128982533Y-111532216D01*
X129077179Y-111368284D01*
X129135674Y-111188256D01*
X129155460Y-111000000D01*
X129135674Y-110811744D01*
X129077179Y-110631716D01*
X128982533Y-110467784D01*
X128907864Y-110384856D01*
X128877147Y-110320848D01*
X128875500Y-110300545D01*
X128875500Y-105748757D01*
X128895502Y-105680636D01*
X128949158Y-105634143D01*
X129019432Y-105624039D01*
X129084012Y-105653533D01*
X129121333Y-105709821D01*
X129172821Y-105868284D01*
X129267467Y-106032216D01*
X129394129Y-106172888D01*
X129547270Y-106284151D01*
X129720197Y-106361144D01*
X129818212Y-106381978D01*
X129898897Y-106399128D01*
X129898901Y-106399128D01*
X129905354Y-106400500D01*
X130094646Y-106400500D01*
X130101099Y-106399128D01*
X130101103Y-106399128D01*
X130181788Y-106381978D01*
X130279803Y-106361144D01*
X130452730Y-106284151D01*
X130605871Y-106172888D01*
X130732533Y-106032216D01*
X130827179Y-105868284D01*
X130885674Y-105688256D01*
X130889324Y-105653533D01*
X130904770Y-105506565D01*
X130905460Y-105500000D01*
X130885674Y-105311744D01*
X130878750Y-105290434D01*
X130876724Y-105219466D01*
X130913387Y-105158669D01*
X130977100Y-105127345D01*
X130998584Y-105125500D01*
X144922297Y-105125500D01*
X144933257Y-105126017D01*
X144940667Y-105127673D01*
X144948593Y-105127424D01*
X144948594Y-105127424D01*
X145007841Y-105125562D01*
X145011799Y-105125500D01*
X145039350Y-105125500D01*
X145043273Y-105125004D01*
X145043388Y-105124997D01*
X145055068Y-105124077D01*
X145098627Y-105122709D01*
X145117716Y-105117163D01*
X145137062Y-105113156D01*
X145156792Y-105110664D01*
X145197323Y-105094616D01*
X145208524Y-105090781D01*
X145250390Y-105078618D01*
X145267499Y-105068500D01*
X145285245Y-105059805D01*
X145303732Y-105052486D01*
X145338991Y-105026869D01*
X145348910Y-105020354D01*
X145379590Y-105002210D01*
X145379594Y-105002207D01*
X145386420Y-104998170D01*
X145400470Y-104984120D01*
X145415504Y-104971279D01*
X145425173Y-104964254D01*
X145431587Y-104959594D01*
X145459370Y-104926010D01*
X145467359Y-104917231D01*
X146447186Y-103937405D01*
X146509498Y-103903379D01*
X146536281Y-103900500D01*
X146594646Y-103900500D01*
X146601099Y-103899128D01*
X146601103Y-103899128D01*
X146681788Y-103881978D01*
X146779803Y-103861144D01*
X146952730Y-103784151D01*
X147105871Y-103672888D01*
X147232533Y-103532216D01*
X147327179Y-103368284D01*
X147385674Y-103188256D01*
X147405460Y-103000000D01*
X147393829Y-102889336D01*
X147386364Y-102818307D01*
X147386364Y-102818305D01*
X147385674Y-102811744D01*
X147327179Y-102631716D01*
X147232533Y-102467784D01*
X147105871Y-102327112D01*
X146952730Y-102215849D01*
X146923706Y-102202927D01*
X146869613Y-102156949D01*
X146848964Y-102089021D01*
X146868316Y-102020713D01*
X146885863Y-101998727D01*
X147887346Y-100997244D01*
X147895467Y-100989854D01*
X147901877Y-100985786D01*
X147947901Y-100936776D01*
X147950656Y-100933934D01*
X147970120Y-100914470D01*
X147972548Y-100911340D01*
X147972638Y-100911238D01*
X147980226Y-100902354D01*
X148004634Y-100876362D01*
X148010062Y-100870582D01*
X148019638Y-100853163D01*
X148030493Y-100836639D01*
X148037816Y-100827199D01*
X148037817Y-100827198D01*
X148042674Y-100820936D01*
X148059991Y-100780920D01*
X148065206Y-100770275D01*
X148082376Y-100739043D01*
X148082377Y-100739041D01*
X148086197Y-100732092D01*
X148091140Y-100712841D01*
X148097544Y-100694137D01*
X148102289Y-100683172D01*
X148102289Y-100683171D01*
X148105438Y-100675895D01*
X148112255Y-100632852D01*
X148114663Y-100621230D01*
X148123528Y-100586704D01*
X148123529Y-100586695D01*
X148125500Y-100579019D01*
X148125500Y-100559144D01*
X148127051Y-100539434D01*
X148128920Y-100527633D01*
X148130160Y-100519804D01*
X148126059Y-100476420D01*
X148125500Y-100464563D01*
X148125500Y-89093999D01*
X148145502Y-89025878D01*
X148199158Y-88979385D01*
X148251500Y-88967999D01*
X149264876Y-88967999D01*
X149268270Y-88967630D01*
X149268276Y-88967630D01*
X149318222Y-88962205D01*
X149318226Y-88962204D01*
X149326080Y-88961351D01*
X149460324Y-88911026D01*
X149467503Y-88905646D01*
X149467506Y-88905644D01*
X149567865Y-88830428D01*
X149575046Y-88825046D01*
X149613896Y-88773209D01*
X149655644Y-88717506D01*
X149655646Y-88717503D01*
X149661026Y-88710324D01*
X149711351Y-88576080D01*
X149718000Y-88514877D01*
X149717999Y-87181811D01*
X150832718Y-87181811D01*
X150832942Y-87186477D01*
X150832942Y-87186482D01*
X150835064Y-87230660D01*
X150845130Y-87440208D01*
X150858329Y-87506565D01*
X150894470Y-87688256D01*
X150895599Y-87693933D01*
X150897178Y-87698331D01*
X150897180Y-87698338D01*
X150940842Y-87819945D01*
X150983016Y-87937410D01*
X151105461Y-88165292D01*
X151108256Y-88169035D01*
X151108258Y-88169038D01*
X151257453Y-88368834D01*
X151257458Y-88368840D01*
X151260245Y-88372572D01*
X151263554Y-88375852D01*
X151263559Y-88375858D01*
X151363987Y-88475413D01*
X151443966Y-88554697D01*
X151447728Y-88557455D01*
X151447731Y-88557458D01*
X151483214Y-88583475D01*
X151652590Y-88707666D01*
X151656725Y-88709842D01*
X151656729Y-88709844D01*
X151777166Y-88773209D01*
X151881531Y-88828118D01*
X152070833Y-88894226D01*
X152103530Y-88905644D01*
X152125762Y-88913408D01*
X152130355Y-88914280D01*
X152375328Y-88960789D01*
X152375331Y-88960789D01*
X152379917Y-88961660D01*
X152509165Y-88966739D01*
X152633745Y-88971634D01*
X152633751Y-88971634D01*
X152638413Y-88971817D01*
X152895570Y-88943653D01*
X152900081Y-88942465D01*
X152900083Y-88942465D01*
X153141217Y-88878980D01*
X153141219Y-88878979D01*
X153145740Y-88877789D01*
X153255976Y-88830428D01*
X153379133Y-88777516D01*
X153379135Y-88777515D01*
X153383427Y-88775671D01*
X153502607Y-88701920D01*
X153599436Y-88642001D01*
X153599440Y-88641998D01*
X153603409Y-88639542D01*
X153800853Y-88472393D01*
X153971422Y-88277896D01*
X154017296Y-88206578D01*
X154108842Y-88064253D01*
X154111370Y-88060323D01*
X154217621Y-87824455D01*
X154287841Y-87575473D01*
X154320488Y-87318846D01*
X154320839Y-87305466D01*
X154322797Y-87230660D01*
X154322880Y-87227500D01*
X154303709Y-86969516D01*
X154246615Y-86717200D01*
X154229692Y-86673683D01*
X154154547Y-86480448D01*
X154154546Y-86480446D01*
X154152854Y-86476095D01*
X154024486Y-86251496D01*
X153864329Y-86048338D01*
X153675903Y-85871085D01*
X153463347Y-85723630D01*
X153287953Y-85637135D01*
X153235517Y-85611276D01*
X153235513Y-85611275D01*
X153231331Y-85609212D01*
X152984951Y-85530345D01*
X152900484Y-85516589D01*
X152734233Y-85489513D01*
X152734229Y-85489513D01*
X152729620Y-85488762D01*
X152600284Y-85487069D01*
X152475624Y-85485436D01*
X152475621Y-85485436D01*
X152470947Y-85485375D01*
X152321492Y-85505715D01*
X152219249Y-85519630D01*
X152219245Y-85519631D01*
X152214615Y-85520261D01*
X151966255Y-85592651D01*
X151731323Y-85700956D01*
X151692682Y-85726290D01*
X151518893Y-85840231D01*
X151518888Y-85840235D01*
X151514980Y-85842797D01*
X151321979Y-86015057D01*
X151156559Y-86213953D01*
X151022355Y-86435114D01*
X150922315Y-86673683D01*
X150858636Y-86924418D01*
X150858168Y-86929069D01*
X150858167Y-86929073D01*
X150854269Y-86967784D01*
X150832718Y-87181811D01*
X149717999Y-87181811D01*
X149717999Y-85940124D01*
X149711351Y-85878920D01*
X149661026Y-85744676D01*
X149655646Y-85737497D01*
X149655644Y-85737494D01*
X149580428Y-85637135D01*
X149575046Y-85629954D01*
X149550124Y-85611276D01*
X149467506Y-85549356D01*
X149467503Y-85549354D01*
X149460324Y-85543974D01*
X149370939Y-85510466D01*
X149333475Y-85496421D01*
X149333473Y-85496421D01*
X149326080Y-85493649D01*
X149318230Y-85492796D01*
X149318229Y-85492796D01*
X149268274Y-85487369D01*
X149268273Y-85487369D01*
X149264877Y-85487000D01*
X148251500Y-85487000D01*
X148183379Y-85466998D01*
X148136886Y-85413342D01*
X148125500Y-85361000D01*
X148125500Y-82311280D01*
X148145502Y-82243159D01*
X148162405Y-82222185D01*
X151937349Y-78447242D01*
X151945469Y-78439853D01*
X151951877Y-78435786D01*
X151997885Y-78386793D01*
X152000640Y-78383951D01*
X152020120Y-78364471D01*
X152022548Y-78361341D01*
X152022620Y-78361259D01*
X152030229Y-78352351D01*
X152060062Y-78320582D01*
X152069636Y-78303167D01*
X152080493Y-78286638D01*
X152087814Y-78277200D01*
X152092673Y-78270936D01*
X152109980Y-78230942D01*
X152115202Y-78220282D01*
X152120109Y-78211356D01*
X152136197Y-78182092D01*
X152141141Y-78162836D01*
X152147540Y-78144147D01*
X152155438Y-78125896D01*
X152162257Y-78082841D01*
X152164660Y-78071237D01*
X152175500Y-78029019D01*
X152175500Y-78009144D01*
X152177051Y-77989434D01*
X152178920Y-77977633D01*
X152180160Y-77969804D01*
X152176059Y-77926420D01*
X152175500Y-77914563D01*
X152175500Y-77438841D01*
X152195502Y-77370720D01*
X152229229Y-77335628D01*
X152360109Y-77243985D01*
X152360112Y-77243983D01*
X152364620Y-77240826D01*
X152520826Y-77084620D01*
X152647534Y-76903661D01*
X152662665Y-76871214D01*
X152705805Y-76778699D01*
X152752722Y-76725414D01*
X152821000Y-76705953D01*
X152888960Y-76726495D01*
X152934195Y-76778699D01*
X152977336Y-76871214D01*
X152992466Y-76903661D01*
X153119174Y-77084620D01*
X153275380Y-77240826D01*
X153279888Y-77243983D01*
X153279891Y-77243985D01*
X153433173Y-77351314D01*
X153456338Y-77367534D01*
X153461320Y-77369857D01*
X153461325Y-77369860D01*
X153651568Y-77458571D01*
X153656550Y-77460894D01*
X153661858Y-77462316D01*
X153661860Y-77462317D01*
X153688261Y-77469391D01*
X153869932Y-77518070D01*
X154090000Y-77537323D01*
X154310068Y-77518070D01*
X154315381Y-77516646D01*
X154315383Y-77516646D01*
X154321600Y-77514980D01*
X154352907Y-77506591D01*
X154423880Y-77508279D01*
X154474612Y-77539202D01*
X176337595Y-99402185D01*
X176371621Y-99464497D01*
X176374500Y-99491280D01*
X176374500Y-127764024D01*
X176354498Y-127832145D01*
X176337595Y-127853119D01*
X161353120Y-142837595D01*
X161290808Y-142871621D01*
X161264025Y-142874500D01*
X159561281Y-142874500D01*
X159493160Y-142854498D01*
X159472185Y-142837595D01*
X158662404Y-142027813D01*
X158628379Y-141965501D01*
X158625500Y-141938718D01*
X158625500Y-141699455D01*
X158645502Y-141631334D01*
X158657864Y-141615144D01*
X158728114Y-141537124D01*
X158728115Y-141537123D01*
X158732533Y-141532216D01*
X158802986Y-141410187D01*
X158823875Y-141374007D01*
X158823876Y-141374006D01*
X158827179Y-141368284D01*
X158885674Y-141188256D01*
X158887075Y-141174931D01*
X158904770Y-141006565D01*
X158905460Y-141000000D01*
X158885674Y-140811744D01*
X158827179Y-140631716D01*
X158732533Y-140467784D01*
X158605871Y-140327112D01*
X158452730Y-140215849D01*
X158279803Y-140138856D01*
X158181788Y-140118022D01*
X158101103Y-140100872D01*
X158101099Y-140100872D01*
X158094646Y-140099500D01*
X157905354Y-140099500D01*
X157898901Y-140100872D01*
X157898897Y-140100872D01*
X157818212Y-140118022D01*
X157720197Y-140138856D01*
X157551247Y-140214078D01*
X157480882Y-140223512D01*
X157448755Y-140214079D01*
X157279803Y-140138856D01*
X157181788Y-140118022D01*
X157101103Y-140100872D01*
X157101099Y-140100872D01*
X157094646Y-140099500D01*
X156905354Y-140099500D01*
X156898901Y-140100872D01*
X156898897Y-140100872D01*
X156818212Y-140118022D01*
X156720197Y-140138856D01*
X156547270Y-140215849D01*
X156394129Y-140327112D01*
X156267467Y-140467784D01*
X156172821Y-140631716D01*
X156114326Y-140811744D01*
X156094540Y-141000000D01*
X156095230Y-141006565D01*
X156112926Y-141174931D01*
X156114326Y-141188256D01*
X156172821Y-141368284D01*
X156176124Y-141374006D01*
X156176125Y-141374007D01*
X156197014Y-141410187D01*
X156267467Y-141532216D01*
X156271885Y-141537123D01*
X156271886Y-141537124D01*
X156342136Y-141615144D01*
X156372853Y-141679152D01*
X156374500Y-141699455D01*
X156374500Y-142422297D01*
X156373983Y-142433257D01*
X156372327Y-142440667D01*
X156372576Y-142448593D01*
X156372576Y-142448594D01*
X156374438Y-142507841D01*
X156374500Y-142511799D01*
X156374500Y-142539350D01*
X156374996Y-142543273D01*
X156375003Y-142543388D01*
X156375923Y-142555068D01*
X156377291Y-142598627D01*
X156382836Y-142617712D01*
X156386844Y-142637062D01*
X156389336Y-142656792D01*
X156405384Y-142697323D01*
X156409219Y-142708524D01*
X156421382Y-142750390D01*
X156431498Y-142767494D01*
X156440195Y-142785245D01*
X156447514Y-142803732D01*
X156472117Y-142837595D01*
X156473129Y-142838988D01*
X156479646Y-142848910D01*
X156497790Y-142879590D01*
X156497793Y-142879594D01*
X156501830Y-142886420D01*
X156515880Y-142900470D01*
X156528721Y-142915504D01*
X156540406Y-142931587D01*
X156546514Y-142936640D01*
X156573989Y-142959369D01*
X156582769Y-142967359D01*
X158002758Y-144387349D01*
X158010147Y-144395469D01*
X158014214Y-144401877D01*
X158019992Y-144407303D01*
X158063207Y-144447885D01*
X158066049Y-144450640D01*
X158085529Y-144470120D01*
X158088659Y-144472548D01*
X158088741Y-144472620D01*
X158097649Y-144480229D01*
X158129418Y-144510062D01*
X158136365Y-144513881D01*
X158146832Y-144519635D01*
X158163361Y-144530492D01*
X158179064Y-144542673D01*
X158219057Y-144559979D01*
X158229713Y-144565200D01*
X158260955Y-144582376D01*
X158260964Y-144582380D01*
X158267908Y-144586197D01*
X158275584Y-144588168D01*
X158275587Y-144588169D01*
X158287160Y-144591140D01*
X158305865Y-144597544D01*
X158324104Y-144605437D01*
X158367148Y-144612254D01*
X158378771Y-144614662D01*
X158413304Y-144623529D01*
X158413305Y-144623529D01*
X158420981Y-144625500D01*
X158440856Y-144625500D01*
X158460566Y-144627051D01*
X158480196Y-144630160D01*
X158523580Y-144626059D01*
X158535437Y-144625500D01*
X161896992Y-144625500D01*
X161907952Y-144626017D01*
X161915362Y-144627673D01*
X161923288Y-144627424D01*
X161923289Y-144627424D01*
X161982536Y-144625562D01*
X161986494Y-144625500D01*
X162014045Y-144625500D01*
X162017968Y-144625004D01*
X162018083Y-144624997D01*
X162029763Y-144624077D01*
X162073322Y-144622709D01*
X162092411Y-144617163D01*
X162111757Y-144613156D01*
X162131487Y-144610664D01*
X162172018Y-144594616D01*
X162183219Y-144590781D01*
X162225085Y-144578618D01*
X162242194Y-144568500D01*
X162259940Y-144559805D01*
X162278427Y-144552486D01*
X162313686Y-144526869D01*
X162323605Y-144520354D01*
X162354285Y-144502210D01*
X162354289Y-144502207D01*
X162361115Y-144498170D01*
X162375165Y-144484120D01*
X162390199Y-144471279D01*
X162399868Y-144464254D01*
X162406282Y-144459594D01*
X162434065Y-144426010D01*
X162442054Y-144417231D01*
X163053312Y-143805973D01*
X166759273Y-143805973D01*
X166763032Y-143811269D01*
X166959066Y-143925822D01*
X166968349Y-143930269D01*
X167184206Y-144012697D01*
X167194108Y-144015574D01*
X167420511Y-144061636D01*
X167430764Y-144062859D01*
X167661657Y-144071326D01*
X167671943Y-144070859D01*
X167901132Y-144041499D01*
X167911210Y-144039357D01*
X168132522Y-143972960D01*
X168142120Y-143969199D01*
X168349617Y-143867547D01*
X168358462Y-143862274D01*
X168428115Y-143812591D01*
X168436516Y-143801891D01*
X168429528Y-143788738D01*
X167612812Y-142972022D01*
X167598868Y-142964408D01*
X167597035Y-142964539D01*
X167590420Y-142968790D01*
X166766534Y-143792676D01*
X166759273Y-143805973D01*
X163053312Y-143805973D01*
X164290118Y-142569167D01*
X166127706Y-142569167D01*
X166141006Y-142799838D01*
X166142442Y-142810058D01*
X166193238Y-143035454D01*
X166196317Y-143045282D01*
X166283249Y-143259370D01*
X166287892Y-143268561D01*
X166386464Y-143429416D01*
X166396921Y-143438876D01*
X166405697Y-143435093D01*
X167227978Y-142612812D01*
X167234356Y-142601132D01*
X167964408Y-142601132D01*
X167964539Y-142602965D01*
X167968790Y-142609580D01*
X168789296Y-143430086D01*
X168801306Y-143436645D01*
X168813046Y-143427677D01*
X168859616Y-143362867D01*
X168864927Y-143354028D01*
X168967296Y-143146901D01*
X168971094Y-143137308D01*
X169038262Y-142916232D01*
X169040439Y-142906162D01*
X169070835Y-142675279D01*
X169071354Y-142668604D01*
X169072949Y-142603364D01*
X169072755Y-142596647D01*
X169070496Y-142569167D01*
X170927706Y-142569167D01*
X170941006Y-142799838D01*
X170942442Y-142810058D01*
X170993238Y-143035454D01*
X170996317Y-143045282D01*
X171083249Y-143259370D01*
X171087892Y-143268561D01*
X171186464Y-143429416D01*
X171196921Y-143438876D01*
X171205697Y-143435093D01*
X172027978Y-142612812D01*
X172034356Y-142601132D01*
X172764408Y-142601132D01*
X172764539Y-142602965D01*
X172768790Y-142609580D01*
X173589296Y-143430086D01*
X173601306Y-143436645D01*
X173613046Y-143427677D01*
X173659616Y-143362867D01*
X173664927Y-143354028D01*
X173767296Y-143146901D01*
X173771094Y-143137308D01*
X173838262Y-142916232D01*
X173840439Y-142906162D01*
X173870835Y-142675279D01*
X173871354Y-142668604D01*
X173872949Y-142603364D01*
X173872755Y-142596647D01*
X173853675Y-142364567D01*
X173851992Y-142354405D01*
X173795703Y-142130306D01*
X173792382Y-142120551D01*
X173700252Y-141908667D01*
X173695374Y-141899570D01*
X173612616Y-141771645D01*
X173601930Y-141762442D01*
X173592365Y-141766845D01*
X172772022Y-142587188D01*
X172764408Y-142601132D01*
X172034356Y-142601132D01*
X172035592Y-142598868D01*
X172035461Y-142597035D01*
X172031210Y-142590420D01*
X171210687Y-141769897D01*
X171199151Y-141763597D01*
X171186868Y-141773221D01*
X171122126Y-141868129D01*
X171117028Y-141877103D01*
X171019750Y-142086670D01*
X171016187Y-142096357D01*
X170954442Y-142318999D01*
X170952511Y-142329118D01*
X170927958Y-142558878D01*
X170927706Y-142569167D01*
X169070496Y-142569167D01*
X169053675Y-142364567D01*
X169051992Y-142354405D01*
X168995703Y-142130306D01*
X168992382Y-142120551D01*
X168900252Y-141908667D01*
X168895374Y-141899570D01*
X168812616Y-141771645D01*
X168801930Y-141762442D01*
X168792365Y-141766845D01*
X167972022Y-142587188D01*
X167964408Y-142601132D01*
X167234356Y-142601132D01*
X167235592Y-142598868D01*
X167235461Y-142597035D01*
X167231210Y-142590420D01*
X166410687Y-141769897D01*
X166399151Y-141763597D01*
X166386868Y-141773221D01*
X166322126Y-141868129D01*
X166317028Y-141877103D01*
X166219750Y-142086670D01*
X166216187Y-142096357D01*
X166154442Y-142318999D01*
X166152511Y-142329118D01*
X166127958Y-142558878D01*
X166127706Y-142569167D01*
X164290118Y-142569167D01*
X165461428Y-141397857D01*
X166762652Y-141397857D01*
X166769397Y-141410187D01*
X167587188Y-142227978D01*
X167601132Y-142235592D01*
X167602965Y-142235461D01*
X167609580Y-142231210D01*
X168431710Y-141409080D01*
X168437839Y-141397857D01*
X171562652Y-141397857D01*
X171569397Y-141410187D01*
X172387188Y-142227978D01*
X172401132Y-142235592D01*
X172402965Y-142235461D01*
X172409580Y-142231210D01*
X173231710Y-141409080D01*
X173238731Y-141396223D01*
X173230959Y-141385556D01*
X173219218Y-141376283D01*
X173210637Y-141370583D01*
X173008355Y-141258918D01*
X172998956Y-141254693D01*
X172781155Y-141177565D01*
X172771184Y-141174931D01*
X172543713Y-141134412D01*
X172533461Y-141133443D01*
X172302417Y-141130620D01*
X172292133Y-141131340D01*
X172063741Y-141166289D01*
X172053713Y-141168678D01*
X171834096Y-141240460D01*
X171824586Y-141244457D01*
X171619646Y-141351142D01*
X171610921Y-141356636D01*
X171571106Y-141386530D01*
X171562652Y-141397857D01*
X168437839Y-141397857D01*
X168438731Y-141396223D01*
X168430959Y-141385556D01*
X168419218Y-141376283D01*
X168410637Y-141370583D01*
X168208355Y-141258918D01*
X168198956Y-141254693D01*
X167981155Y-141177565D01*
X167971184Y-141174931D01*
X167743713Y-141134412D01*
X167733461Y-141133443D01*
X167502417Y-141130620D01*
X167492133Y-141131340D01*
X167263741Y-141166289D01*
X167253713Y-141168678D01*
X167034096Y-141240460D01*
X167024586Y-141244457D01*
X166819646Y-141351142D01*
X166810921Y-141356636D01*
X166771106Y-141386530D01*
X166762652Y-141397857D01*
X165461428Y-141397857D01*
X177807936Y-129051350D01*
X177822969Y-129038510D01*
X177838987Y-129026872D01*
X177848910Y-129020354D01*
X177879590Y-129002210D01*
X177879594Y-129002207D01*
X177886420Y-128998170D01*
X177900470Y-128984120D01*
X177915504Y-128971279D01*
X177925173Y-128964254D01*
X177931587Y-128959594D01*
X177959364Y-128926017D01*
X177967354Y-128917236D01*
X178137353Y-128747238D01*
X178145470Y-128739852D01*
X178151877Y-128735786D01*
X178157300Y-128730011D01*
X178157305Y-128730007D01*
X178197901Y-128686777D01*
X178200656Y-128683935D01*
X178220120Y-128664471D01*
X178222548Y-128661341D01*
X178222620Y-128661259D01*
X178230229Y-128652351D01*
X178260062Y-128620582D01*
X178269636Y-128603167D01*
X178280493Y-128586638D01*
X178287814Y-128577200D01*
X178292673Y-128570936D01*
X178309979Y-128530943D01*
X178315200Y-128520287D01*
X178332376Y-128489045D01*
X178332380Y-128489036D01*
X178336197Y-128482092D01*
X178341140Y-128462839D01*
X178347544Y-128444136D01*
X178352287Y-128433175D01*
X178355437Y-128425896D01*
X178362254Y-128382852D01*
X178364662Y-128371229D01*
X178373529Y-128336696D01*
X178373529Y-128336695D01*
X178375500Y-128329019D01*
X178375500Y-128309144D01*
X178377051Y-128289433D01*
X178378920Y-128277633D01*
X178380160Y-128269804D01*
X178376059Y-128226420D01*
X178375500Y-128214563D01*
X178375500Y-98827698D01*
X178376017Y-98816737D01*
X178377672Y-98809332D01*
X178375562Y-98742176D01*
X178375500Y-98738219D01*
X178375500Y-98710650D01*
X178375003Y-98706715D01*
X178374996Y-98706605D01*
X178374078Y-98694934D01*
X178372958Y-98659296D01*
X178372709Y-98651372D01*
X178370497Y-98643759D01*
X178370496Y-98643752D01*
X178367164Y-98632282D01*
X178363155Y-98612926D01*
X178361657Y-98601071D01*
X178360664Y-98593208D01*
X178357747Y-98585842D01*
X178357746Y-98585836D01*
X178344619Y-98552683D01*
X178340773Y-98541450D01*
X178330829Y-98507220D01*
X178330826Y-98507213D01*
X178328617Y-98499610D01*
X178324586Y-98492794D01*
X178324585Y-98492791D01*
X178318501Y-98482504D01*
X178309805Y-98464752D01*
X178305406Y-98453643D01*
X178302486Y-98446268D01*
X178297825Y-98439853D01*
X178297823Y-98439849D01*
X178276873Y-98411013D01*
X178270357Y-98401094D01*
X178252206Y-98370402D01*
X178252202Y-98370397D01*
X178248170Y-98363579D01*
X178234117Y-98349526D01*
X178221276Y-98334492D01*
X178214254Y-98324827D01*
X178209594Y-98318413D01*
X178176016Y-98290635D01*
X178167236Y-98282645D01*
X159189462Y-79304871D01*
X159155436Y-79242559D01*
X159153247Y-79228946D01*
X159136364Y-79068307D01*
X159136364Y-79068305D01*
X159135674Y-79061744D01*
X159077179Y-78881716D01*
X159045654Y-78827112D01*
X158985836Y-78723505D01*
X158982533Y-78717784D01*
X158972274Y-78706390D01*
X158860286Y-78582015D01*
X158860284Y-78582014D01*
X158855871Y-78577112D01*
X158756895Y-78505202D01*
X158708072Y-78469730D01*
X158708071Y-78469729D01*
X158702730Y-78465849D01*
X158529803Y-78388856D01*
X158415080Y-78364471D01*
X158351103Y-78350872D01*
X158351099Y-78350872D01*
X158344646Y-78349500D01*
X158155354Y-78349500D01*
X158148901Y-78350872D01*
X158148897Y-78350872D01*
X158084920Y-78364471D01*
X157970197Y-78388856D01*
X157797270Y-78465849D01*
X157791929Y-78469729D01*
X157791928Y-78469730D01*
X157743105Y-78505202D01*
X157644129Y-78577112D01*
X157639718Y-78582011D01*
X157639709Y-78582019D01*
X157561257Y-78669150D01*
X157500811Y-78706390D01*
X157429828Y-78705038D01*
X157378526Y-78673935D01*
X156457743Y-77753152D01*
X156423717Y-77690840D01*
X156428782Y-77620025D01*
X156471329Y-77563189D01*
X156537849Y-77538378D01*
X156557820Y-77538536D01*
X156624525Y-77544372D01*
X156635475Y-77544372D01*
X156845896Y-77525962D01*
X156856691Y-77524059D01*
X157060715Y-77469391D01*
X157071007Y-77465645D01*
X157262445Y-77376376D01*
X157271931Y-77370898D01*
X157315764Y-77340207D01*
X157324139Y-77329729D01*
X157317071Y-77316281D01*
X156271922Y-76271132D01*
X156994408Y-76271132D01*
X156994539Y-76272965D01*
X156998790Y-76279580D01*
X157677003Y-76957793D01*
X157688777Y-76964223D01*
X157700793Y-76954926D01*
X157730897Y-76911932D01*
X157736377Y-76902441D01*
X157825645Y-76711007D01*
X157829391Y-76700715D01*
X157884059Y-76496691D01*
X157885962Y-76485896D01*
X157904372Y-76275475D01*
X157904372Y-76264525D01*
X157885962Y-76054104D01*
X157884059Y-76043309D01*
X157829391Y-75839285D01*
X157825645Y-75828993D01*
X157736377Y-75637559D01*
X157730897Y-75628068D01*
X157700206Y-75584235D01*
X157689729Y-75575860D01*
X157676282Y-75582928D01*
X157002022Y-76257188D01*
X156994408Y-76271132D01*
X156271922Y-76271132D01*
X155582997Y-75582207D01*
X155571223Y-75575777D01*
X155559207Y-75585074D01*
X155529103Y-75628068D01*
X155523623Y-75637559D01*
X155470058Y-75752429D01*
X155423141Y-75805714D01*
X155354863Y-75825175D01*
X155286903Y-75804633D01*
X155241668Y-75752429D01*
X155189857Y-75641320D01*
X155189855Y-75641317D01*
X155187534Y-75636339D01*
X155060826Y-75455380D01*
X154904620Y-75299174D01*
X154900112Y-75296017D01*
X154900109Y-75296015D01*
X154728171Y-75175623D01*
X154728168Y-75175621D01*
X154723662Y-75172466D01*
X154718680Y-75170143D01*
X154718675Y-75170140D01*
X154598699Y-75114195D01*
X154545414Y-75067278D01*
X154525953Y-74999001D01*
X154546495Y-74931041D01*
X154598699Y-74885805D01*
X154718675Y-74829860D01*
X154718680Y-74829857D01*
X154723662Y-74827534D01*
X154728171Y-74824377D01*
X154900109Y-74703985D01*
X154900112Y-74703983D01*
X154904620Y-74700826D01*
X155060826Y-74544620D01*
X155187534Y-74363661D01*
X155193849Y-74350120D01*
X155245805Y-74238699D01*
X155292722Y-74185414D01*
X155361000Y-74165953D01*
X155428960Y-74186495D01*
X155474195Y-74238699D01*
X155526152Y-74350120D01*
X155532466Y-74363661D01*
X155659174Y-74544620D01*
X155815380Y-74700826D01*
X155819888Y-74703983D01*
X155819891Y-74703985D01*
X155991829Y-74824377D01*
X155996338Y-74827534D01*
X156001320Y-74829857D01*
X156001325Y-74829860D01*
X156112429Y-74881668D01*
X156165714Y-74928585D01*
X156185175Y-74996862D01*
X156164633Y-75064822D01*
X156112429Y-75110058D01*
X155997559Y-75163623D01*
X155988068Y-75169103D01*
X155944235Y-75199794D01*
X155935860Y-75210271D01*
X155942928Y-75223718D01*
X156617188Y-75897978D01*
X156631132Y-75905592D01*
X156632965Y-75905461D01*
X156639580Y-75901210D01*
X157317793Y-75222997D01*
X157324223Y-75211223D01*
X157314926Y-75199207D01*
X157271931Y-75169102D01*
X157262445Y-75163624D01*
X157147571Y-75110058D01*
X157094286Y-75063141D01*
X157074825Y-74994864D01*
X157091125Y-74940939D01*
X159620637Y-74940939D01*
X159620812Y-74945391D01*
X159622957Y-75000000D01*
X159630145Y-75182932D01*
X159631064Y-75206332D01*
X159678782Y-75467609D01*
X159680191Y-75471832D01*
X159735271Y-75636926D01*
X159762838Y-75719556D01*
X159881555Y-75957146D01*
X160032564Y-76175638D01*
X160035586Y-76178907D01*
X160209836Y-76367411D01*
X160209841Y-76367416D01*
X160212852Y-76370673D01*
X160418823Y-76538360D01*
X160646366Y-76675352D01*
X160650461Y-76677086D01*
X160650463Y-76677087D01*
X160818521Y-76748250D01*
X160890941Y-76778916D01*
X160895234Y-76780054D01*
X160895239Y-76780056D01*
X161029220Y-76815580D01*
X161147669Y-76846986D01*
X161411426Y-76878204D01*
X161676951Y-76871946D01*
X161681349Y-76871214D01*
X161934555Y-76829069D01*
X161934559Y-76829068D01*
X161938945Y-76828338D01*
X161943186Y-76826997D01*
X161943189Y-76826996D01*
X162187935Y-76749593D01*
X162187937Y-76749592D01*
X162192181Y-76748250D01*
X162196192Y-76746324D01*
X162196197Y-76746322D01*
X162427587Y-76635210D01*
X162427588Y-76635209D01*
X162431606Y-76633280D01*
X162435312Y-76630804D01*
X162648736Y-76488199D01*
X162648740Y-76488196D01*
X162652444Y-76485721D01*
X162655761Y-76482750D01*
X162655765Y-76482747D01*
X162846968Y-76311491D01*
X162846969Y-76311490D01*
X162850286Y-76308519D01*
X163021187Y-76105207D01*
X163059791Y-76043309D01*
X163159379Y-75883625D01*
X163159379Y-75883624D01*
X163161737Y-75879844D01*
X163269130Y-75636926D01*
X163341224Y-75381299D01*
X163369586Y-75170143D01*
X163376154Y-75121245D01*
X163376154Y-75121240D01*
X163376581Y-75118064D01*
X163379759Y-75016924D01*
X163380190Y-75003222D01*
X163380190Y-75003217D01*
X163380291Y-75000000D01*
X163361533Y-74735065D01*
X163353167Y-74696204D01*
X163306568Y-74479763D01*
X163306568Y-74479761D01*
X163305632Y-74475416D01*
X163213703Y-74226233D01*
X163087582Y-73992490D01*
X162929784Y-73778849D01*
X162743459Y-73589573D01*
X162739919Y-73586871D01*
X162535864Y-73431141D01*
X162535860Y-73431138D01*
X162532323Y-73428439D01*
X162300589Y-73298662D01*
X162052881Y-73202831D01*
X162048560Y-73201829D01*
X162048552Y-73201827D01*
X161878433Y-73162397D01*
X161794142Y-73142859D01*
X161529534Y-73119941D01*
X161525099Y-73120185D01*
X161525095Y-73120185D01*
X161268780Y-73134291D01*
X161268773Y-73134292D01*
X161264337Y-73134536D01*
X161084398Y-73170328D01*
X161008205Y-73185483D01*
X161008203Y-73185484D01*
X161003842Y-73186351D01*
X160753246Y-73274354D01*
X160517551Y-73396788D01*
X160513936Y-73399371D01*
X160513930Y-73399375D01*
X160377198Y-73497086D01*
X160301457Y-73551211D01*
X160109278Y-73734541D01*
X159944848Y-73943120D01*
X159942616Y-73946962D01*
X159942613Y-73946967D01*
X159813685Y-74168932D01*
X159813682Y-74168938D01*
X159811447Y-74172786D01*
X159783145Y-74242661D01*
X159713410Y-74414826D01*
X159713407Y-74414834D01*
X159711737Y-74418958D01*
X159679555Y-74548515D01*
X159653457Y-74653580D01*
X159647708Y-74676723D01*
X159620637Y-74940939D01*
X157091125Y-74940939D01*
X157095367Y-74926904D01*
X157147571Y-74881668D01*
X157258675Y-74829860D01*
X157258680Y-74829857D01*
X157263662Y-74827534D01*
X157268171Y-74824377D01*
X157440109Y-74703985D01*
X157440112Y-74703983D01*
X157444620Y-74700826D01*
X157600826Y-74544620D01*
X157727534Y-74363661D01*
X157733849Y-74350120D01*
X157818571Y-74168432D01*
X157818572Y-74168431D01*
X157820894Y-74163450D01*
X157878070Y-73950068D01*
X157897323Y-73730000D01*
X157878070Y-73509932D01*
X157820894Y-73296550D01*
X157770194Y-73187824D01*
X157729857Y-73101320D01*
X157729855Y-73101317D01*
X157727534Y-73096339D01*
X157600826Y-72915380D01*
X157444620Y-72759174D01*
X157440112Y-72756017D01*
X157440109Y-72756015D01*
X157268171Y-72635623D01*
X157268168Y-72635621D01*
X157263662Y-72632466D01*
X157258680Y-72630143D01*
X157258675Y-72630140D01*
X157068432Y-72541429D01*
X157068431Y-72541429D01*
X157063450Y-72539106D01*
X157058142Y-72537684D01*
X157058140Y-72537683D01*
X156934598Y-72504580D01*
X156850068Y-72481930D01*
X156630000Y-72462677D01*
X156409932Y-72481930D01*
X156325402Y-72504580D01*
X156201860Y-72537683D01*
X156201858Y-72537684D01*
X156196550Y-72539106D01*
X156191569Y-72541428D01*
X156191568Y-72541429D01*
X156001320Y-72630143D01*
X156001317Y-72630145D01*
X155996339Y-72632466D01*
X155815380Y-72759174D01*
X155659174Y-72915380D01*
X155532466Y-73096339D01*
X155530145Y-73101317D01*
X155530143Y-73101320D01*
X155474195Y-73221301D01*
X155427278Y-73274586D01*
X155359000Y-73294047D01*
X155291040Y-73273505D01*
X155245805Y-73221301D01*
X155189857Y-73101320D01*
X155189855Y-73101317D01*
X155187534Y-73096339D01*
X155060826Y-72915380D01*
X154904620Y-72759174D01*
X154900112Y-72756017D01*
X154900109Y-72756015D01*
X154728171Y-72635623D01*
X154728168Y-72635621D01*
X154723662Y-72632466D01*
X154718680Y-72630143D01*
X154718675Y-72630140D01*
X154528432Y-72541429D01*
X154528431Y-72541429D01*
X154523450Y-72539106D01*
X154518142Y-72537684D01*
X154518140Y-72537683D01*
X154394598Y-72504580D01*
X154310068Y-72481930D01*
X154090000Y-72462677D01*
X153869932Y-72481930D01*
X153785402Y-72504580D01*
X153661860Y-72537683D01*
X153661858Y-72537684D01*
X153656550Y-72539106D01*
X153651569Y-72541428D01*
X153651568Y-72541429D01*
X153461320Y-72630143D01*
X153461317Y-72630145D01*
X153456339Y-72632466D01*
X153275380Y-72759174D01*
X153119174Y-72915380D01*
X152992466Y-73096339D01*
X152990145Y-73101317D01*
X152990143Y-73101320D01*
X152934195Y-73221301D01*
X152887278Y-73274586D01*
X152819000Y-73294047D01*
X152751040Y-73273505D01*
X152705805Y-73221301D01*
X152649857Y-73101320D01*
X152649855Y-73101317D01*
X152647534Y-73096339D01*
X152520826Y-72915380D01*
X152364620Y-72759174D01*
X152360112Y-72756017D01*
X152360109Y-72756015D01*
X152188171Y-72635623D01*
X152188168Y-72635621D01*
X152183662Y-72632466D01*
X152178680Y-72630143D01*
X152178675Y-72630140D01*
X151988432Y-72541429D01*
X151988431Y-72541429D01*
X151983450Y-72539106D01*
X151978142Y-72537684D01*
X151978140Y-72537683D01*
X151854598Y-72504580D01*
X151770068Y-72481930D01*
X151550000Y-72462677D01*
X151329932Y-72481930D01*
X151245402Y-72504580D01*
X151121860Y-72537683D01*
X151121858Y-72537684D01*
X151116550Y-72539106D01*
X151111569Y-72541428D01*
X151111568Y-72541429D01*
X150921320Y-72630143D01*
X150921317Y-72630145D01*
X150916339Y-72632466D01*
X150735380Y-72759174D01*
X150579174Y-72915380D01*
X150452466Y-73096339D01*
X150450145Y-73101317D01*
X150450143Y-73101320D01*
X150398332Y-73212429D01*
X150351414Y-73265714D01*
X150283137Y-73285175D01*
X150215177Y-73264633D01*
X150169942Y-73212429D01*
X150116377Y-73097559D01*
X150110897Y-73088068D01*
X150080206Y-73044235D01*
X150069729Y-73035860D01*
X150056282Y-73042928D01*
X149382022Y-73717188D01*
X149374408Y-73731132D01*
X149374539Y-73732965D01*
X149378790Y-73739580D01*
X150057003Y-74417793D01*
X150068777Y-74424223D01*
X150080793Y-74414926D01*
X150110897Y-74371932D01*
X150116377Y-74362441D01*
X150169942Y-74247571D01*
X150216859Y-74194286D01*
X150285137Y-74174825D01*
X150353097Y-74195367D01*
X150398332Y-74247571D01*
X150446152Y-74350120D01*
X150452466Y-74363661D01*
X150579174Y-74544620D01*
X150735380Y-74700826D01*
X150739888Y-74703983D01*
X150739891Y-74703985D01*
X150911829Y-74824377D01*
X150916338Y-74827534D01*
X150921320Y-74829857D01*
X150921325Y-74829860D01*
X151041301Y-74885805D01*
X151094586Y-74932722D01*
X151114047Y-75000999D01*
X151093505Y-75068959D01*
X151041301Y-75114195D01*
X150921320Y-75170143D01*
X150921317Y-75170145D01*
X150916339Y-75172466D01*
X150735380Y-75299174D01*
X150579174Y-75455380D01*
X150452466Y-75636339D01*
X150450145Y-75641317D01*
X150450143Y-75641320D01*
X150394195Y-75761301D01*
X150347278Y-75814586D01*
X150279000Y-75834047D01*
X150211040Y-75813505D01*
X150165805Y-75761301D01*
X150109857Y-75641320D01*
X150109855Y-75641317D01*
X150107534Y-75636339D01*
X149980826Y-75455380D01*
X149824620Y-75299174D01*
X149820112Y-75296017D01*
X149820109Y-75296015D01*
X149648171Y-75175623D01*
X149648168Y-75175621D01*
X149643662Y-75172466D01*
X149638680Y-75170143D01*
X149638675Y-75170140D01*
X149527571Y-75118332D01*
X149474286Y-75071415D01*
X149454825Y-75003138D01*
X149475367Y-74935178D01*
X149527571Y-74889942D01*
X149642445Y-74836376D01*
X149651931Y-74830898D01*
X149695764Y-74800207D01*
X149704139Y-74789729D01*
X149697071Y-74776281D01*
X149022812Y-74102022D01*
X149008868Y-74094408D01*
X149007035Y-74094539D01*
X149000420Y-74098790D01*
X148322207Y-74777003D01*
X148315777Y-74788777D01*
X148325074Y-74800793D01*
X148368069Y-74830898D01*
X148377555Y-74836376D01*
X148492429Y-74889942D01*
X148545714Y-74936859D01*
X148565175Y-75005136D01*
X148544633Y-75073096D01*
X148492429Y-75118332D01*
X148381320Y-75170143D01*
X148381317Y-75170145D01*
X148376339Y-75172466D01*
X148195380Y-75299174D01*
X148039174Y-75455380D01*
X147912466Y-75636339D01*
X147910145Y-75641317D01*
X147910143Y-75641320D01*
X147854195Y-75761301D01*
X147807278Y-75814586D01*
X147739000Y-75834047D01*
X147671040Y-75813505D01*
X147625805Y-75761301D01*
X147569857Y-75641320D01*
X147569855Y-75641317D01*
X147567534Y-75636339D01*
X147440826Y-75455380D01*
X147284620Y-75299174D01*
X147280112Y-75296017D01*
X147280109Y-75296015D01*
X147108171Y-75175623D01*
X147108168Y-75175621D01*
X147103662Y-75172466D01*
X147098680Y-75170143D01*
X147098675Y-75170140D01*
X146978699Y-75114195D01*
X146925414Y-75067278D01*
X146905953Y-74999001D01*
X146926495Y-74931041D01*
X146978699Y-74885805D01*
X147098675Y-74829860D01*
X147098680Y-74829857D01*
X147103662Y-74827534D01*
X147108171Y-74824377D01*
X147280109Y-74703985D01*
X147280112Y-74703983D01*
X147284620Y-74700826D01*
X147440826Y-74544620D01*
X147567534Y-74363661D01*
X147573849Y-74350120D01*
X147621668Y-74247571D01*
X147668586Y-74194286D01*
X147736863Y-74174825D01*
X147804823Y-74195367D01*
X147850058Y-74247571D01*
X147903623Y-74362441D01*
X147909103Y-74371932D01*
X147939794Y-74415765D01*
X147950271Y-74424140D01*
X147963718Y-74417072D01*
X148637978Y-73742812D01*
X148645592Y-73728868D01*
X148645461Y-73727035D01*
X148641210Y-73720420D01*
X147962997Y-73042207D01*
X147951223Y-73035777D01*
X147939207Y-73045074D01*
X147909103Y-73088068D01*
X147903623Y-73097559D01*
X147850058Y-73212429D01*
X147803141Y-73265714D01*
X147734863Y-73285175D01*
X147666903Y-73264633D01*
X147621668Y-73212429D01*
X147569857Y-73101320D01*
X147569855Y-73101317D01*
X147567534Y-73096339D01*
X147440826Y-72915380D01*
X147284620Y-72759174D01*
X147280112Y-72756017D01*
X147280109Y-72756015D01*
X147157654Y-72670271D01*
X148315860Y-72670271D01*
X148322928Y-72683718D01*
X148997188Y-73357978D01*
X149011132Y-73365592D01*
X149012965Y-73365461D01*
X149019580Y-73361210D01*
X149697793Y-72682997D01*
X149704223Y-72671223D01*
X149694926Y-72659207D01*
X149651931Y-72629102D01*
X149642445Y-72623624D01*
X149451007Y-72534355D01*
X149440715Y-72530609D01*
X149236691Y-72475941D01*
X149225896Y-72474038D01*
X149015475Y-72455628D01*
X149004525Y-72455628D01*
X148794104Y-72474038D01*
X148783309Y-72475941D01*
X148579285Y-72530609D01*
X148568993Y-72534355D01*
X148377559Y-72623623D01*
X148368068Y-72629103D01*
X148324235Y-72659794D01*
X148315860Y-72670271D01*
X147157654Y-72670271D01*
X147108171Y-72635623D01*
X147108168Y-72635621D01*
X147103662Y-72632466D01*
X147098680Y-72630143D01*
X147098675Y-72630140D01*
X146908432Y-72541429D01*
X146908431Y-72541429D01*
X146903450Y-72539106D01*
X146898142Y-72537684D01*
X146898140Y-72537683D01*
X146774598Y-72504580D01*
X146690068Y-72481930D01*
X146470000Y-72462677D01*
X146249932Y-72481930D01*
X146165402Y-72504580D01*
X146041860Y-72537683D01*
X146041858Y-72537684D01*
X146036550Y-72539106D01*
X146031569Y-72541428D01*
X146031568Y-72541429D01*
X145841320Y-72630143D01*
X145841317Y-72630145D01*
X145836339Y-72632466D01*
X145655380Y-72759174D01*
X145499174Y-72915380D01*
X145372466Y-73096339D01*
X145370145Y-73101317D01*
X145370143Y-73101320D01*
X145318332Y-73212429D01*
X145271414Y-73265714D01*
X145203137Y-73285175D01*
X145135177Y-73264633D01*
X145089942Y-73212429D01*
X145036377Y-73097559D01*
X145030897Y-73088068D01*
X145000206Y-73044235D01*
X144989729Y-73035860D01*
X144976282Y-73042928D01*
X144302022Y-73717188D01*
X144294408Y-73731132D01*
X144294539Y-73732965D01*
X144298790Y-73739580D01*
X144977003Y-74417793D01*
X144988777Y-74424223D01*
X145000793Y-74414926D01*
X145030897Y-74371932D01*
X145036377Y-74362441D01*
X145089942Y-74247571D01*
X145136859Y-74194286D01*
X145205137Y-74174825D01*
X145273097Y-74195367D01*
X145318332Y-74247571D01*
X145366152Y-74350120D01*
X145372466Y-74363661D01*
X145499174Y-74544620D01*
X145655380Y-74700826D01*
X145659888Y-74703983D01*
X145659891Y-74703985D01*
X145831829Y-74824377D01*
X145836338Y-74827534D01*
X145841320Y-74829857D01*
X145841325Y-74829860D01*
X145961301Y-74885805D01*
X146014586Y-74932722D01*
X146034047Y-75000999D01*
X146013505Y-75068959D01*
X145961301Y-75114195D01*
X145841320Y-75170143D01*
X145841317Y-75170145D01*
X145836339Y-75172466D01*
X145655380Y-75299174D01*
X145499174Y-75455380D01*
X145372466Y-75636339D01*
X145370145Y-75641317D01*
X145370143Y-75641320D01*
X145314195Y-75761301D01*
X145267278Y-75814586D01*
X145199000Y-75834047D01*
X145131040Y-75813505D01*
X145085805Y-75761301D01*
X145029857Y-75641320D01*
X145029855Y-75641317D01*
X145027534Y-75636339D01*
X144900826Y-75455380D01*
X144744620Y-75299174D01*
X144740112Y-75296017D01*
X144740109Y-75296015D01*
X144568171Y-75175623D01*
X144568168Y-75175621D01*
X144563662Y-75172466D01*
X144558680Y-75170143D01*
X144558675Y-75170140D01*
X144447571Y-75118332D01*
X144394286Y-75071415D01*
X144374825Y-75003138D01*
X144395367Y-74935178D01*
X144447571Y-74889942D01*
X144562445Y-74836376D01*
X144571931Y-74830898D01*
X144615764Y-74800207D01*
X144624139Y-74789729D01*
X144617071Y-74776281D01*
X143942812Y-74102022D01*
X143928868Y-74094408D01*
X143927035Y-74094539D01*
X143920420Y-74098790D01*
X143242207Y-74777003D01*
X143235777Y-74788777D01*
X143245074Y-74800793D01*
X143288069Y-74830898D01*
X143297555Y-74836376D01*
X143412429Y-74889942D01*
X143465714Y-74936859D01*
X143485175Y-75005136D01*
X143464633Y-75073096D01*
X143412429Y-75118332D01*
X143301320Y-75170143D01*
X143301317Y-75170145D01*
X143296339Y-75172466D01*
X143115380Y-75299174D01*
X142959174Y-75455380D01*
X142832466Y-75636339D01*
X142830145Y-75641317D01*
X142830143Y-75641320D01*
X142774195Y-75761301D01*
X142727278Y-75814586D01*
X142659000Y-75834047D01*
X142591040Y-75813505D01*
X142545805Y-75761301D01*
X142489857Y-75641320D01*
X142489855Y-75641317D01*
X142487534Y-75636339D01*
X142360826Y-75455380D01*
X142204620Y-75299174D01*
X142200112Y-75296017D01*
X142200109Y-75296015D01*
X142028171Y-75175623D01*
X142028168Y-75175621D01*
X142023662Y-75172466D01*
X142018680Y-75170143D01*
X142018675Y-75170140D01*
X141898699Y-75114195D01*
X141845414Y-75067278D01*
X141825953Y-74999001D01*
X141846495Y-74931041D01*
X141898699Y-74885805D01*
X142018675Y-74829860D01*
X142018680Y-74829857D01*
X142023662Y-74827534D01*
X142028171Y-74824377D01*
X142200109Y-74703985D01*
X142200112Y-74703983D01*
X142204620Y-74700826D01*
X142360826Y-74544620D01*
X142487534Y-74363661D01*
X142493849Y-74350120D01*
X142541668Y-74247571D01*
X142588586Y-74194286D01*
X142656863Y-74174825D01*
X142724823Y-74195367D01*
X142770058Y-74247571D01*
X142823623Y-74362441D01*
X142829103Y-74371932D01*
X142859794Y-74415765D01*
X142870271Y-74424140D01*
X142883718Y-74417072D01*
X143557978Y-73742812D01*
X143565592Y-73728868D01*
X143565461Y-73727035D01*
X143561210Y-73720420D01*
X142882997Y-73042207D01*
X142871223Y-73035777D01*
X142859207Y-73045074D01*
X142829103Y-73088068D01*
X142823623Y-73097559D01*
X142770058Y-73212429D01*
X142723141Y-73265714D01*
X142654863Y-73285175D01*
X142586903Y-73264633D01*
X142541668Y-73212429D01*
X142489857Y-73101320D01*
X142489855Y-73101317D01*
X142487534Y-73096339D01*
X142360826Y-72915380D01*
X142204620Y-72759174D01*
X142200112Y-72756017D01*
X142200109Y-72756015D01*
X142077654Y-72670271D01*
X143235860Y-72670271D01*
X143242928Y-72683718D01*
X143917188Y-73357978D01*
X143931132Y-73365592D01*
X143932965Y-73365461D01*
X143939580Y-73361210D01*
X144617793Y-72682997D01*
X144624223Y-72671223D01*
X144614926Y-72659207D01*
X144571931Y-72629102D01*
X144562445Y-72623624D01*
X144371007Y-72534355D01*
X144360715Y-72530609D01*
X144156691Y-72475941D01*
X144145896Y-72474038D01*
X143935475Y-72455628D01*
X143924525Y-72455628D01*
X143714104Y-72474038D01*
X143703309Y-72475941D01*
X143499285Y-72530609D01*
X143488993Y-72534355D01*
X143297559Y-72623623D01*
X143288068Y-72629103D01*
X143244235Y-72659794D01*
X143235860Y-72670271D01*
X142077654Y-72670271D01*
X142028171Y-72635623D01*
X142028168Y-72635621D01*
X142023662Y-72632466D01*
X142018680Y-72630143D01*
X142018675Y-72630140D01*
X141828432Y-72541429D01*
X141828431Y-72541429D01*
X141823450Y-72539106D01*
X141818142Y-72537684D01*
X141818140Y-72537683D01*
X141694598Y-72504580D01*
X141610068Y-72481930D01*
X141390000Y-72462677D01*
X141169932Y-72481930D01*
X141085402Y-72504580D01*
X140961860Y-72537683D01*
X140961858Y-72537684D01*
X140956550Y-72539106D01*
X140951569Y-72541428D01*
X140951568Y-72541429D01*
X140761320Y-72630143D01*
X140761317Y-72630145D01*
X140756339Y-72632466D01*
X140575380Y-72759174D01*
X140419174Y-72915380D01*
X140292466Y-73096339D01*
X140290145Y-73101317D01*
X140290143Y-73101320D01*
X140234195Y-73221301D01*
X140187278Y-73274586D01*
X140119000Y-73294047D01*
X140051040Y-73273505D01*
X140005805Y-73221301D01*
X139949857Y-73101320D01*
X139949855Y-73101317D01*
X139947534Y-73096339D01*
X139820826Y-72915380D01*
X139664620Y-72759174D01*
X139660112Y-72756017D01*
X139660109Y-72756015D01*
X139488171Y-72635623D01*
X139488168Y-72635621D01*
X139483662Y-72632466D01*
X139478680Y-72630143D01*
X139478675Y-72630140D01*
X139288432Y-72541429D01*
X139288431Y-72541429D01*
X139283450Y-72539106D01*
X139278142Y-72537684D01*
X139278140Y-72537683D01*
X139154598Y-72504580D01*
X139070068Y-72481930D01*
X138850000Y-72462677D01*
X138629932Y-72481930D01*
X138545402Y-72504580D01*
X138421860Y-72537683D01*
X138421858Y-72537684D01*
X138416550Y-72539106D01*
X138411569Y-72541428D01*
X138411568Y-72541429D01*
X138221320Y-72630143D01*
X138221317Y-72630145D01*
X138216339Y-72632466D01*
X138035380Y-72759174D01*
X137879174Y-72915380D01*
X137752466Y-73096339D01*
X137750145Y-73101317D01*
X137750143Y-73101320D01*
X137694195Y-73221301D01*
X137647278Y-73274586D01*
X137579000Y-73294047D01*
X137511040Y-73273505D01*
X137465805Y-73221301D01*
X137409857Y-73101320D01*
X137409855Y-73101317D01*
X137407534Y-73096339D01*
X137280826Y-72915380D01*
X137124620Y-72759174D01*
X137120112Y-72756017D01*
X137120109Y-72756015D01*
X136948171Y-72635623D01*
X136948168Y-72635621D01*
X136943662Y-72632466D01*
X136938680Y-72630143D01*
X136938675Y-72630140D01*
X136748432Y-72541429D01*
X136748431Y-72541429D01*
X136743450Y-72539106D01*
X136738142Y-72537684D01*
X136738140Y-72537683D01*
X136614598Y-72504580D01*
X136530068Y-72481930D01*
X136310000Y-72462677D01*
X136089932Y-72481930D01*
X136005402Y-72504580D01*
X135881860Y-72537683D01*
X135881858Y-72537684D01*
X135876550Y-72539106D01*
X135871569Y-72541428D01*
X135871568Y-72541429D01*
X135681320Y-72630143D01*
X135681317Y-72630145D01*
X135676339Y-72632466D01*
X135495380Y-72759174D01*
X135339174Y-72915380D01*
X135212466Y-73096339D01*
X135210145Y-73101317D01*
X135210143Y-73101320D01*
X135154195Y-73221301D01*
X135107278Y-73274586D01*
X135039000Y-73294047D01*
X134971040Y-73273505D01*
X134925805Y-73221301D01*
X134869857Y-73101320D01*
X134869855Y-73101317D01*
X134867534Y-73096339D01*
X134740826Y-72915380D01*
X134584620Y-72759174D01*
X134580112Y-72756017D01*
X134580109Y-72756015D01*
X134408171Y-72635623D01*
X134408168Y-72635621D01*
X134403662Y-72632466D01*
X134398680Y-72630143D01*
X134398675Y-72630140D01*
X134208432Y-72541429D01*
X134208431Y-72541429D01*
X134203450Y-72539106D01*
X134198142Y-72537684D01*
X134198140Y-72537683D01*
X134074598Y-72504580D01*
X133990068Y-72481930D01*
X133770000Y-72462677D01*
X133549932Y-72481930D01*
X133465402Y-72504580D01*
X133341860Y-72537683D01*
X133341858Y-72537684D01*
X133336550Y-72539106D01*
X133331569Y-72541428D01*
X133331568Y-72541429D01*
X133141320Y-72630143D01*
X133141317Y-72630145D01*
X133136339Y-72632466D01*
X132955380Y-72759174D01*
X132799174Y-72915380D01*
X132672466Y-73096339D01*
X132670145Y-73101317D01*
X132670143Y-73101320D01*
X132618332Y-73212429D01*
X132571414Y-73265714D01*
X132503137Y-73285175D01*
X132435177Y-73264633D01*
X132389942Y-73212429D01*
X132336377Y-73097559D01*
X132330897Y-73088068D01*
X132300206Y-73044235D01*
X132289729Y-73035860D01*
X132276282Y-73042928D01*
X131602022Y-73717188D01*
X131594408Y-73731132D01*
X131594539Y-73732965D01*
X131598790Y-73739580D01*
X132277003Y-74417793D01*
X132288777Y-74424223D01*
X132300793Y-74414926D01*
X132330897Y-74371932D01*
X132336377Y-74362441D01*
X132389942Y-74247571D01*
X132436859Y-74194286D01*
X132505137Y-74174825D01*
X132573097Y-74195367D01*
X132618332Y-74247571D01*
X132666152Y-74350120D01*
X132672466Y-74363661D01*
X132799174Y-74544620D01*
X132955380Y-74700826D01*
X132959888Y-74703983D01*
X132959891Y-74703985D01*
X133131829Y-74824377D01*
X133136338Y-74827534D01*
X133141320Y-74829857D01*
X133141325Y-74829860D01*
X133261301Y-74885805D01*
X133314586Y-74932722D01*
X133334047Y-75000999D01*
X133313505Y-75068959D01*
X133261301Y-75114195D01*
X133141320Y-75170143D01*
X133141317Y-75170145D01*
X133136339Y-75172466D01*
X132955380Y-75299174D01*
X132799174Y-75455380D01*
X132672466Y-75636339D01*
X132670145Y-75641317D01*
X132670143Y-75641320D01*
X132614195Y-75761301D01*
X132567278Y-75814586D01*
X132499000Y-75834047D01*
X132431040Y-75813505D01*
X132385805Y-75761301D01*
X132329857Y-75641320D01*
X132329855Y-75641317D01*
X132327534Y-75636339D01*
X132200826Y-75455380D01*
X132044620Y-75299174D01*
X132040112Y-75296017D01*
X132040109Y-75296015D01*
X131868171Y-75175623D01*
X131868168Y-75175621D01*
X131863662Y-75172466D01*
X131858680Y-75170143D01*
X131858675Y-75170140D01*
X131747571Y-75118332D01*
X131694286Y-75071415D01*
X131674825Y-75003138D01*
X131695367Y-74935178D01*
X131747571Y-74889942D01*
X131862445Y-74836376D01*
X131871931Y-74830898D01*
X131915764Y-74800207D01*
X131924139Y-74789729D01*
X131917071Y-74776281D01*
X130182997Y-73042207D01*
X130171223Y-73035777D01*
X130159207Y-73045074D01*
X130129103Y-73088068D01*
X130123623Y-73097559D01*
X130070058Y-73212429D01*
X130023141Y-73265714D01*
X129954863Y-73285175D01*
X129886903Y-73264633D01*
X129841668Y-73212429D01*
X129789857Y-73101320D01*
X129789855Y-73101317D01*
X129787534Y-73096339D01*
X129660826Y-72915380D01*
X129504620Y-72759174D01*
X129500112Y-72756017D01*
X129500109Y-72756015D01*
X129377654Y-72670271D01*
X130535860Y-72670271D01*
X130542928Y-72683718D01*
X131217188Y-73357978D01*
X131231132Y-73365592D01*
X131232965Y-73365461D01*
X131239580Y-73361210D01*
X131917793Y-72682997D01*
X131924223Y-72671223D01*
X131914926Y-72659207D01*
X131871931Y-72629102D01*
X131862445Y-72623624D01*
X131671007Y-72534355D01*
X131660715Y-72530609D01*
X131456691Y-72475941D01*
X131445896Y-72474038D01*
X131235475Y-72455628D01*
X131224525Y-72455628D01*
X131014104Y-72474038D01*
X131003309Y-72475941D01*
X130799285Y-72530609D01*
X130788993Y-72534355D01*
X130597559Y-72623623D01*
X130588068Y-72629103D01*
X130544235Y-72659794D01*
X130535860Y-72670271D01*
X129377654Y-72670271D01*
X129328171Y-72635623D01*
X129328168Y-72635621D01*
X129323662Y-72632466D01*
X129318680Y-72630143D01*
X129318675Y-72630140D01*
X129128432Y-72541429D01*
X129128431Y-72541429D01*
X129123450Y-72539106D01*
X129118142Y-72537684D01*
X129118140Y-72537683D01*
X128994598Y-72504580D01*
X128910068Y-72481930D01*
X128690000Y-72462677D01*
X128469932Y-72481930D01*
X128385402Y-72504580D01*
X128261860Y-72537683D01*
X128261858Y-72537684D01*
X128256550Y-72539106D01*
X128251569Y-72541428D01*
X128251568Y-72541429D01*
X128061320Y-72630143D01*
X128061317Y-72630145D01*
X128056339Y-72632466D01*
X127875380Y-72759174D01*
X127719174Y-72915380D01*
X127592466Y-73096339D01*
X127590145Y-73101317D01*
X127590143Y-73101320D01*
X127534195Y-73221301D01*
X127487278Y-73274586D01*
X127419000Y-73294047D01*
X127351040Y-73273505D01*
X127305805Y-73221301D01*
X127249857Y-73101320D01*
X127249855Y-73101317D01*
X127247534Y-73096339D01*
X127120826Y-72915380D01*
X126964620Y-72759174D01*
X126960112Y-72756017D01*
X126960109Y-72756015D01*
X126788171Y-72635623D01*
X126788168Y-72635621D01*
X126783662Y-72632466D01*
X126778680Y-72630143D01*
X126778675Y-72630140D01*
X126588432Y-72541429D01*
X126588431Y-72541429D01*
X126583450Y-72539106D01*
X126578142Y-72537684D01*
X126578140Y-72537683D01*
X126454598Y-72504580D01*
X126370068Y-72481930D01*
X126150000Y-72462677D01*
X125929932Y-72481930D01*
X125845402Y-72504580D01*
X125721860Y-72537683D01*
X125721858Y-72537684D01*
X125716550Y-72539106D01*
X125711569Y-72541428D01*
X125711568Y-72541429D01*
X125521320Y-72630143D01*
X125521317Y-72630145D01*
X125516339Y-72632466D01*
X125335380Y-72759174D01*
X125179174Y-72915380D01*
X125052466Y-73096339D01*
X125050145Y-73101317D01*
X125050143Y-73101320D01*
X124998332Y-73212429D01*
X124951414Y-73265714D01*
X124883137Y-73285175D01*
X124815177Y-73264633D01*
X124769942Y-73212429D01*
X124716377Y-73097559D01*
X124710897Y-73088068D01*
X124680206Y-73044235D01*
X124669729Y-73035860D01*
X124656282Y-73042928D01*
X123982022Y-73717188D01*
X123974408Y-73731132D01*
X123974539Y-73732965D01*
X123978790Y-73739580D01*
X124657003Y-74417793D01*
X124668777Y-74424223D01*
X124680793Y-74414926D01*
X124710897Y-74371932D01*
X124716377Y-74362441D01*
X124769942Y-74247571D01*
X124816859Y-74194286D01*
X124885137Y-74174825D01*
X124953097Y-74195367D01*
X124998332Y-74247571D01*
X125046152Y-74350120D01*
X125052466Y-74363661D01*
X125179174Y-74544620D01*
X125335380Y-74700826D01*
X125339888Y-74703983D01*
X125339891Y-74703985D01*
X125511829Y-74824377D01*
X125516338Y-74827534D01*
X125521320Y-74829857D01*
X125521325Y-74829860D01*
X125641301Y-74885805D01*
X125694586Y-74932722D01*
X125714047Y-75000999D01*
X125693505Y-75068959D01*
X125641301Y-75114195D01*
X125521320Y-75170143D01*
X125521317Y-75170145D01*
X125516339Y-75172466D01*
X125335380Y-75299174D01*
X125179174Y-75455380D01*
X125052466Y-75636339D01*
X125050145Y-75641317D01*
X125050143Y-75641320D01*
X124994195Y-75761301D01*
X124947278Y-75814586D01*
X124879000Y-75834047D01*
X124811040Y-75813505D01*
X124765805Y-75761301D01*
X124709857Y-75641320D01*
X124709855Y-75641317D01*
X124707534Y-75636339D01*
X124580826Y-75455380D01*
X124424620Y-75299174D01*
X124420112Y-75296017D01*
X124420109Y-75296015D01*
X124248171Y-75175623D01*
X124248168Y-75175621D01*
X124243662Y-75172466D01*
X124238680Y-75170143D01*
X124238675Y-75170140D01*
X124127571Y-75118332D01*
X124074286Y-75071415D01*
X124054825Y-75003138D01*
X124075367Y-74935178D01*
X124127571Y-74889942D01*
X124242445Y-74836376D01*
X124251931Y-74830898D01*
X124295764Y-74800207D01*
X124304139Y-74789729D01*
X124297071Y-74776281D01*
X123622812Y-74102022D01*
X123608868Y-74094408D01*
X123607035Y-74094539D01*
X123600420Y-74098790D01*
X122922207Y-74777003D01*
X122915777Y-74788777D01*
X122925074Y-74800793D01*
X122968069Y-74830898D01*
X122977555Y-74836376D01*
X123092429Y-74889942D01*
X123145714Y-74936859D01*
X123165175Y-75005136D01*
X123144633Y-75073096D01*
X123092429Y-75118332D01*
X122981320Y-75170143D01*
X122981317Y-75170145D01*
X122976339Y-75172466D01*
X122795380Y-75299174D01*
X122639174Y-75455380D01*
X122512466Y-75636339D01*
X122510145Y-75641317D01*
X122510143Y-75641320D01*
X122454195Y-75761301D01*
X122407278Y-75814586D01*
X122339000Y-75834047D01*
X122271040Y-75813505D01*
X122225805Y-75761301D01*
X122169857Y-75641320D01*
X122169855Y-75641317D01*
X122167534Y-75636339D01*
X122040826Y-75455380D01*
X121884620Y-75299174D01*
X121880112Y-75296017D01*
X121880109Y-75296015D01*
X121708171Y-75175623D01*
X121708168Y-75175621D01*
X121703662Y-75172466D01*
X121698680Y-75170143D01*
X121698675Y-75170140D01*
X121578699Y-75114195D01*
X121525414Y-75067278D01*
X121505953Y-74999001D01*
X121526495Y-74931041D01*
X121578699Y-74885805D01*
X121698675Y-74829860D01*
X121698680Y-74829857D01*
X121703662Y-74827534D01*
X121708171Y-74824377D01*
X121880109Y-74703985D01*
X121880112Y-74703983D01*
X121884620Y-74700826D01*
X122040826Y-74544620D01*
X122167534Y-74363661D01*
X122173849Y-74350120D01*
X122221668Y-74247571D01*
X122268586Y-74194286D01*
X122336863Y-74174825D01*
X122404823Y-74195367D01*
X122450058Y-74247571D01*
X122503623Y-74362441D01*
X122509103Y-74371932D01*
X122539794Y-74415765D01*
X122550271Y-74424140D01*
X122563718Y-74417072D01*
X123237978Y-73742812D01*
X123245592Y-73728868D01*
X123245461Y-73727035D01*
X123241210Y-73720420D01*
X122562997Y-73042207D01*
X122551223Y-73035777D01*
X122539207Y-73045074D01*
X122509103Y-73088068D01*
X122503623Y-73097559D01*
X122450058Y-73212429D01*
X122403141Y-73265714D01*
X122334863Y-73285175D01*
X122266903Y-73264633D01*
X122221668Y-73212429D01*
X122169857Y-73101320D01*
X122169855Y-73101317D01*
X122167534Y-73096339D01*
X122040826Y-72915380D01*
X121884620Y-72759174D01*
X121880112Y-72756017D01*
X121880109Y-72756015D01*
X121757654Y-72670271D01*
X122915860Y-72670271D01*
X122922928Y-72683718D01*
X123597188Y-73357978D01*
X123611132Y-73365592D01*
X123612965Y-73365461D01*
X123619580Y-73361210D01*
X124297793Y-72682997D01*
X124304223Y-72671223D01*
X124294926Y-72659207D01*
X124251931Y-72629102D01*
X124242445Y-72623624D01*
X124051007Y-72534355D01*
X124040715Y-72530609D01*
X123836691Y-72475941D01*
X123825896Y-72474038D01*
X123615475Y-72455628D01*
X123604525Y-72455628D01*
X123394104Y-72474038D01*
X123383309Y-72475941D01*
X123179285Y-72530609D01*
X123168993Y-72534355D01*
X122977559Y-72623623D01*
X122968068Y-72629103D01*
X122924235Y-72659794D01*
X122915860Y-72670271D01*
X121757654Y-72670271D01*
X121708171Y-72635623D01*
X121708168Y-72635621D01*
X121703662Y-72632466D01*
X121698680Y-72630143D01*
X121698675Y-72630140D01*
X121508432Y-72541429D01*
X121508431Y-72541429D01*
X121503450Y-72539106D01*
X121498142Y-72537684D01*
X121498140Y-72537683D01*
X121374598Y-72504580D01*
X121290068Y-72481930D01*
X121070000Y-72462677D01*
X120849932Y-72481930D01*
X120765402Y-72504580D01*
X120641860Y-72537683D01*
X120641858Y-72537684D01*
X120636550Y-72539106D01*
X120631569Y-72541428D01*
X120631568Y-72541429D01*
X120441320Y-72630143D01*
X120441317Y-72630145D01*
X120436339Y-72632466D01*
X120255380Y-72759174D01*
X120099174Y-72915380D01*
X119972466Y-73096339D01*
X119970145Y-73101317D01*
X119970143Y-73101320D01*
X119914195Y-73221301D01*
X119867278Y-73274586D01*
X119799000Y-73294047D01*
X119731040Y-73273505D01*
X119685805Y-73221301D01*
X119629857Y-73101320D01*
X119629855Y-73101317D01*
X119627534Y-73096339D01*
X119500826Y-72915380D01*
X119344620Y-72759174D01*
X119340112Y-72756017D01*
X119340109Y-72756015D01*
X119168171Y-72635623D01*
X119168168Y-72635621D01*
X119163662Y-72632466D01*
X119158680Y-72630143D01*
X119158675Y-72630140D01*
X118968432Y-72541429D01*
X118968431Y-72541429D01*
X118963450Y-72539106D01*
X118958142Y-72537684D01*
X118958140Y-72537683D01*
X118834598Y-72504580D01*
X118750068Y-72481930D01*
X118530000Y-72462677D01*
X118309932Y-72481930D01*
X118225402Y-72504580D01*
X118101860Y-72537683D01*
X118101858Y-72537684D01*
X118096550Y-72539106D01*
X118091569Y-72541428D01*
X118091568Y-72541429D01*
X117901320Y-72630143D01*
X117901317Y-72630145D01*
X117896339Y-72632466D01*
X117715380Y-72759174D01*
X117559174Y-72915380D01*
X117432466Y-73096339D01*
X117430145Y-73101317D01*
X117430143Y-73101320D01*
X117374195Y-73221301D01*
X117327278Y-73274586D01*
X117259000Y-73294047D01*
X117191040Y-73273505D01*
X117145805Y-73221301D01*
X117089857Y-73101320D01*
X117089855Y-73101317D01*
X117087534Y-73096339D01*
X116960826Y-72915380D01*
X116804620Y-72759174D01*
X116800112Y-72756017D01*
X116800109Y-72756015D01*
X116628171Y-72635623D01*
X116628168Y-72635621D01*
X116623662Y-72632466D01*
X116618680Y-72630143D01*
X116618675Y-72630140D01*
X116428432Y-72541429D01*
X116428431Y-72541429D01*
X116423450Y-72539106D01*
X116418142Y-72537684D01*
X116418140Y-72537683D01*
X116294598Y-72504580D01*
X116210068Y-72481930D01*
X115990000Y-72462677D01*
X115769932Y-72481930D01*
X115685402Y-72504580D01*
X115561860Y-72537683D01*
X115561858Y-72537684D01*
X115556550Y-72539106D01*
X115551569Y-72541428D01*
X115551568Y-72541429D01*
X115361320Y-72630143D01*
X115361317Y-72630145D01*
X115356339Y-72632466D01*
X115175380Y-72759174D01*
X115019174Y-72915380D01*
X114892466Y-73096339D01*
X114890145Y-73101317D01*
X114890143Y-73101320D01*
X114838332Y-73212429D01*
X114791414Y-73265714D01*
X114723137Y-73285175D01*
X114655177Y-73264633D01*
X114609942Y-73212429D01*
X114556377Y-73097559D01*
X114550897Y-73088068D01*
X114520206Y-73044235D01*
X114509729Y-73035860D01*
X114496282Y-73042928D01*
X113822022Y-73717188D01*
X113814408Y-73731132D01*
X113814539Y-73732965D01*
X113818790Y-73739580D01*
X114497003Y-74417793D01*
X114508777Y-74424223D01*
X114520793Y-74414926D01*
X114550897Y-74371932D01*
X114556377Y-74362441D01*
X114609942Y-74247571D01*
X114656859Y-74194286D01*
X114725137Y-74174825D01*
X114793097Y-74195367D01*
X114838332Y-74247571D01*
X114886152Y-74350120D01*
X114892466Y-74363661D01*
X115019174Y-74544620D01*
X115175380Y-74700826D01*
X115179888Y-74703983D01*
X115179891Y-74703985D01*
X115351829Y-74824377D01*
X115356338Y-74827534D01*
X115361320Y-74829857D01*
X115361325Y-74829860D01*
X115481301Y-74885805D01*
X115534586Y-74932722D01*
X115554047Y-75000999D01*
X115533505Y-75068959D01*
X115481301Y-75114195D01*
X115361320Y-75170143D01*
X115361317Y-75170145D01*
X115356339Y-75172466D01*
X115175380Y-75299174D01*
X115019174Y-75455380D01*
X114892466Y-75636339D01*
X114890145Y-75641317D01*
X114890143Y-75641320D01*
X114834195Y-75761301D01*
X114787278Y-75814586D01*
X114719000Y-75834047D01*
X114651040Y-75813505D01*
X114605805Y-75761301D01*
X114549857Y-75641320D01*
X114549855Y-75641317D01*
X114547534Y-75636339D01*
X114420826Y-75455380D01*
X114264620Y-75299174D01*
X114260112Y-75296017D01*
X114260109Y-75296015D01*
X114088171Y-75175623D01*
X114088168Y-75175621D01*
X114083662Y-75172466D01*
X114078680Y-75170143D01*
X114078675Y-75170140D01*
X113967571Y-75118332D01*
X113914286Y-75071415D01*
X113894825Y-75003138D01*
X113915367Y-74935178D01*
X113967571Y-74889942D01*
X114082445Y-74836376D01*
X114091931Y-74830898D01*
X114135764Y-74800207D01*
X114144139Y-74789729D01*
X114137071Y-74776281D01*
X113179885Y-73819095D01*
X113145859Y-73756783D01*
X113150924Y-73685968D01*
X113179885Y-73640905D01*
X114137793Y-72682997D01*
X114144223Y-72671223D01*
X114134926Y-72659207D01*
X114091931Y-72629102D01*
X114082445Y-72623624D01*
X113891007Y-72534355D01*
X113880715Y-72530609D01*
X113676691Y-72475941D01*
X113665896Y-72474038D01*
X113455475Y-72455628D01*
X113444525Y-72455628D01*
X113234104Y-72474038D01*
X113223309Y-72475941D01*
X113019285Y-72530609D01*
X113008993Y-72534355D01*
X112977714Y-72548941D01*
X112907523Y-72559602D01*
X112842710Y-72530622D01*
X112803853Y-72471203D01*
X112798464Y-72434746D01*
X112798464Y-72388316D01*
X112818466Y-72320195D01*
X112835369Y-72299221D01*
X115472186Y-69662405D01*
X115534498Y-69628379D01*
X115561281Y-69625500D01*
X135422297Y-69625500D01*
X135433257Y-69626017D01*
X135440667Y-69627673D01*
X135448593Y-69627424D01*
X135448594Y-69627424D01*
X135507841Y-69625562D01*
X135511799Y-69625500D01*
X135539350Y-69625500D01*
X135543273Y-69625004D01*
X135543388Y-69624997D01*
X135555068Y-69624077D01*
X135598627Y-69622709D01*
X135617716Y-69617163D01*
X135637062Y-69613156D01*
X135656792Y-69610664D01*
X135697323Y-69594616D01*
X135708524Y-69590781D01*
X135750390Y-69578618D01*
X135767499Y-69568500D01*
X135785245Y-69559805D01*
X135803732Y-69552486D01*
X135838991Y-69526869D01*
X135848910Y-69520354D01*
X135879590Y-69502210D01*
X135879594Y-69502207D01*
X135886420Y-69498170D01*
X135900470Y-69484120D01*
X135915504Y-69471279D01*
X135925173Y-69464254D01*
X135931587Y-69459594D01*
X135959370Y-69426010D01*
X135967359Y-69417231D01*
X140378926Y-65005665D01*
X171095119Y-65005665D01*
X171095416Y-65010817D01*
X171095416Y-65010821D01*
X171100864Y-65105296D01*
X171108376Y-65235580D01*
X171109513Y-65240626D01*
X171109514Y-65240632D01*
X171131226Y-65336975D01*
X171159006Y-65460242D01*
X171160948Y-65465024D01*
X171160949Y-65465028D01*
X171198427Y-65557325D01*
X171245649Y-65673618D01*
X171365979Y-65869978D01*
X171516763Y-66044048D01*
X171693953Y-66191154D01*
X171892790Y-66307345D01*
X172107934Y-66389501D01*
X172112996Y-66390531D01*
X172113000Y-66390532D01*
X172154587Y-66398993D01*
X172183670Y-66404909D01*
X172246434Y-66438091D01*
X172281297Y-66499938D01*
X172277188Y-66570816D01*
X172235412Y-66628220D01*
X172209798Y-66643486D01*
X172047270Y-66715849D01*
X171894129Y-66827112D01*
X171767467Y-66967784D01*
X171672821Y-67131716D01*
X171614326Y-67311744D01*
X171613636Y-67318305D01*
X171613636Y-67318307D01*
X171606366Y-67387483D01*
X171594540Y-67500000D01*
X171595230Y-67506565D01*
X171607323Y-67621621D01*
X171614326Y-67688256D01*
X171672821Y-67868284D01*
X171676124Y-67874006D01*
X171676125Y-67874007D01*
X171757232Y-68014488D01*
X171767467Y-68032216D01*
X171771885Y-68037123D01*
X171771886Y-68037124D01*
X171799964Y-68068307D01*
X171894129Y-68172888D01*
X172047270Y-68284151D01*
X172220197Y-68361144D01*
X172318212Y-68381978D01*
X172398897Y-68399128D01*
X172398901Y-68399128D01*
X172405354Y-68400500D01*
X172594646Y-68400500D01*
X172601099Y-68399128D01*
X172601103Y-68399128D01*
X172681788Y-68381978D01*
X172779803Y-68361144D01*
X172952730Y-68284151D01*
X173105871Y-68172888D01*
X173200037Y-68068307D01*
X173228114Y-68037124D01*
X173228115Y-68037123D01*
X173232533Y-68032216D01*
X173242768Y-68014488D01*
X173323875Y-67874007D01*
X173323876Y-67874006D01*
X173327179Y-67868284D01*
X173385674Y-67688256D01*
X173392678Y-67621621D01*
X173404770Y-67506565D01*
X173405460Y-67500000D01*
X173393634Y-67387483D01*
X173386364Y-67318307D01*
X173386364Y-67318305D01*
X173385674Y-67311744D01*
X173327179Y-67131716D01*
X173232533Y-66967784D01*
X173105871Y-66827112D01*
X172952730Y-66715849D01*
X172794194Y-66645263D01*
X172740101Y-66599285D01*
X172719452Y-66531358D01*
X172738805Y-66463050D01*
X172792015Y-66416049D01*
X172809238Y-66409473D01*
X172925564Y-66374573D01*
X173012761Y-66348413D01*
X173219574Y-66247096D01*
X173407062Y-66113363D01*
X173570190Y-65950803D01*
X173628269Y-65869978D01*
X173701559Y-65767983D01*
X173704577Y-65763783D01*
X173806615Y-65557325D01*
X173837643Y-65455200D01*
X173872059Y-65341927D01*
X173872060Y-65341921D01*
X173873563Y-65336975D01*
X173903622Y-65108649D01*
X173905300Y-65040000D01*
X173886430Y-64810478D01*
X173830326Y-64587120D01*
X173738496Y-64375924D01*
X173661458Y-64256841D01*
X173616215Y-64186906D01*
X173616213Y-64186903D01*
X173613405Y-64182563D01*
X173609924Y-64178737D01*
X173515986Y-64075501D01*
X173484934Y-64011655D01*
X173493329Y-63941156D01*
X173538505Y-63886388D01*
X173564950Y-63872719D01*
X173634421Y-63846676D01*
X173634420Y-63846676D01*
X173642824Y-63843526D01*
X173650003Y-63838146D01*
X173650006Y-63838144D01*
X173750365Y-63762928D01*
X173757546Y-63757546D01*
X173811377Y-63685720D01*
X173838144Y-63650006D01*
X173838146Y-63650003D01*
X173843526Y-63642824D01*
X173893851Y-63508580D01*
X173900500Y-63447377D01*
X173900499Y-61552624D01*
X173893851Y-61491420D01*
X173843526Y-61357176D01*
X173838146Y-61349997D01*
X173838144Y-61349994D01*
X173762928Y-61249635D01*
X173757546Y-61242454D01*
X173750365Y-61237072D01*
X173650006Y-61161856D01*
X173650003Y-61161854D01*
X173642824Y-61156474D01*
X173553439Y-61122966D01*
X173515975Y-61108921D01*
X173515973Y-61108921D01*
X173508580Y-61106149D01*
X173500730Y-61105296D01*
X173500729Y-61105296D01*
X173450774Y-61099869D01*
X173450773Y-61099869D01*
X173447377Y-61099500D01*
X172500139Y-61099500D01*
X171552624Y-61099501D01*
X171549230Y-61099870D01*
X171549224Y-61099870D01*
X171499278Y-61105295D01*
X171499274Y-61105296D01*
X171491420Y-61106149D01*
X171357176Y-61156474D01*
X171349997Y-61161854D01*
X171349994Y-61161856D01*
X171249635Y-61237072D01*
X171242454Y-61242454D01*
X171237072Y-61249635D01*
X171161856Y-61349994D01*
X171161854Y-61349997D01*
X171156474Y-61357176D01*
X171106149Y-61491420D01*
X171099500Y-61552623D01*
X171099501Y-63447376D01*
X171106149Y-63508580D01*
X171156474Y-63642824D01*
X171161854Y-63650003D01*
X171161856Y-63650006D01*
X171188623Y-63685720D01*
X171242454Y-63757546D01*
X171249635Y-63762928D01*
X171349994Y-63838144D01*
X171349997Y-63838146D01*
X171357176Y-63843526D01*
X171365580Y-63846676D01*
X171365579Y-63846676D01*
X171435322Y-63872821D01*
X171492087Y-63915462D01*
X171516787Y-63982023D01*
X171501580Y-64051372D01*
X171482187Y-64077854D01*
X171411449Y-64151878D01*
X171407877Y-64155616D01*
X171278099Y-64345863D01*
X171275923Y-64350552D01*
X171275919Y-64350558D01*
X171264145Y-64375924D01*
X171181136Y-64554752D01*
X171119592Y-64776673D01*
X171095119Y-65005665D01*
X140378926Y-65005665D01*
X142887349Y-62497242D01*
X142895469Y-62489853D01*
X142901877Y-62485786D01*
X142947885Y-62436793D01*
X142950640Y-62433951D01*
X142970120Y-62414471D01*
X142972548Y-62411341D01*
X142972620Y-62411259D01*
X142980229Y-62402351D01*
X143010062Y-62370582D01*
X143019636Y-62353167D01*
X143030493Y-62336638D01*
X143037814Y-62327200D01*
X143042673Y-62320936D01*
X143059980Y-62280942D01*
X143065202Y-62270282D01*
X143082378Y-62239038D01*
X143086197Y-62232092D01*
X143091141Y-62212836D01*
X143097540Y-62194147D01*
X143105438Y-62175896D01*
X143112257Y-62132841D01*
X143114660Y-62121237D01*
X143125500Y-62079019D01*
X143125500Y-62059144D01*
X143127051Y-62039434D01*
X143128920Y-62027633D01*
X143130160Y-62019804D01*
X143126059Y-61976420D01*
X143125500Y-61964563D01*
X143125500Y-58199455D01*
X143145502Y-58131334D01*
X143157864Y-58115144D01*
X143228114Y-58037124D01*
X143228115Y-58037123D01*
X143232533Y-58032216D01*
X143327179Y-57868284D01*
X143385674Y-57688256D01*
X143388538Y-57661012D01*
X143404770Y-57506565D01*
X143405460Y-57500000D01*
X143402805Y-57474742D01*
X143386364Y-57318307D01*
X143386364Y-57318305D01*
X143385674Y-57311744D01*
X143327179Y-57131716D01*
X143232533Y-56967784D01*
X143142943Y-56868284D01*
X143110286Y-56832015D01*
X143110284Y-56832014D01*
X143105871Y-56827112D01*
X142952730Y-56715849D01*
X142779803Y-56638856D01*
X142681788Y-56618022D01*
X142601103Y-56600872D01*
X142601099Y-56600872D01*
X142594646Y-56599500D01*
X142405354Y-56599500D01*
X142398901Y-56600872D01*
X142398897Y-56600872D01*
X142318212Y-56618022D01*
X142220197Y-56638856D01*
X142047270Y-56715849D01*
X141894129Y-56827112D01*
X141889716Y-56832014D01*
X141889714Y-56832015D01*
X141857057Y-56868284D01*
X141767467Y-56967784D01*
X141672821Y-57131716D01*
X141614326Y-57311744D01*
X141613636Y-57318305D01*
X141613636Y-57318307D01*
X141597195Y-57474742D01*
X141594540Y-57500000D01*
X141595230Y-57506565D01*
X141611463Y-57661012D01*
X141614326Y-57688256D01*
X141672821Y-57868284D01*
X141767467Y-58032216D01*
X141771885Y-58037123D01*
X141771886Y-58037124D01*
X141842136Y-58115144D01*
X141872853Y-58179152D01*
X141874500Y-58199455D01*
X141874500Y-61688720D01*
X141854498Y-61756841D01*
X141837595Y-61777815D01*
X139840595Y-63774815D01*
X139778283Y-63808841D01*
X139707468Y-63803776D01*
X139650632Y-63761229D01*
X139625821Y-63694709D01*
X139625500Y-63685720D01*
X139625500Y-58077703D01*
X139626017Y-58066743D01*
X139627673Y-58059333D01*
X139625562Y-57992159D01*
X139625500Y-57988201D01*
X139625500Y-57960650D01*
X139625004Y-57956727D01*
X139624997Y-57956612D01*
X139624077Y-57944926D01*
X139622958Y-57909299D01*
X139622709Y-57901373D01*
X139617163Y-57882284D01*
X139613156Y-57862938D01*
X139610664Y-57843208D01*
X139594616Y-57802677D01*
X139590781Y-57791476D01*
X139578618Y-57749610D01*
X139568500Y-57732501D01*
X139559805Y-57714755D01*
X139552486Y-57696268D01*
X139526869Y-57661009D01*
X139520354Y-57651090D01*
X139502210Y-57620410D01*
X139502207Y-57620406D01*
X139498170Y-57613580D01*
X139484120Y-57599530D01*
X139471279Y-57584496D01*
X139464254Y-57574827D01*
X139459594Y-57568413D01*
X139447803Y-57558659D01*
X139408063Y-57499828D01*
X139402805Y-57474742D01*
X139386364Y-57318307D01*
X139386364Y-57318305D01*
X139385674Y-57311744D01*
X139327179Y-57131716D01*
X139232533Y-56967784D01*
X139142943Y-56868284D01*
X139110286Y-56832015D01*
X139110284Y-56832014D01*
X139105871Y-56827112D01*
X138952730Y-56715849D01*
X138779803Y-56638856D01*
X138681788Y-56618022D01*
X138601103Y-56600872D01*
X138601099Y-56600872D01*
X138594646Y-56599500D01*
X138405354Y-56599500D01*
X138398901Y-56600872D01*
X138398897Y-56600872D01*
X138318212Y-56618022D01*
X138220197Y-56638856D01*
X138047270Y-56715849D01*
X137894129Y-56827112D01*
X137889716Y-56832014D01*
X137889714Y-56832015D01*
X137857057Y-56868284D01*
X137767467Y-56967784D01*
X137672821Y-57131716D01*
X137614326Y-57311744D01*
X137613636Y-57318305D01*
X137613636Y-57318307D01*
X137597195Y-57474742D01*
X137594540Y-57500000D01*
X137595230Y-57506565D01*
X137611463Y-57661012D01*
X137614326Y-57688256D01*
X137672821Y-57868284D01*
X137767467Y-58032216D01*
X137771885Y-58037123D01*
X137771886Y-58037124D01*
X137856714Y-58131334D01*
X137894129Y-58172888D01*
X138047270Y-58284151D01*
X138220197Y-58361144D01*
X138226658Y-58362517D01*
X138226660Y-58362518D01*
X138274696Y-58372728D01*
X138337170Y-58406456D01*
X138371491Y-58468605D01*
X138374500Y-58495975D01*
X138374500Y-59723500D01*
X138354498Y-59791621D01*
X138300842Y-59838114D01*
X138248500Y-59849500D01*
X137781292Y-59849500D01*
X137713171Y-59829498D01*
X137666678Y-59775842D01*
X137656574Y-59705568D01*
X137658045Y-59697303D01*
X137658633Y-59694538D01*
X137660674Y-59688256D01*
X137680460Y-59500000D01*
X137660674Y-59311744D01*
X137602179Y-59131716D01*
X137507533Y-58967784D01*
X137380871Y-58827112D01*
X137227730Y-58715849D01*
X137054803Y-58638856D01*
X136956788Y-58618022D01*
X136876103Y-58600872D01*
X136876099Y-58600872D01*
X136869646Y-58599500D01*
X136680354Y-58599500D01*
X136673901Y-58600872D01*
X136673897Y-58600872D01*
X136593212Y-58618022D01*
X136495197Y-58638856D01*
X136322270Y-58715849D01*
X136169129Y-58827112D01*
X136042467Y-58967784D01*
X135947821Y-59131716D01*
X135889326Y-59311744D01*
X135888636Y-59318305D01*
X135888636Y-59318307D01*
X135871753Y-59478946D01*
X135844740Y-59544603D01*
X135835538Y-59554872D01*
X135587645Y-59802764D01*
X135579530Y-59810148D01*
X135573123Y-59814214D01*
X135567698Y-59819991D01*
X135566980Y-59820585D01*
X135501742Y-59848596D01*
X135486664Y-59849501D01*
X133677624Y-59849501D01*
X133674230Y-59849870D01*
X133674224Y-59849870D01*
X133624278Y-59855295D01*
X133624274Y-59855296D01*
X133616420Y-59856149D01*
X133482176Y-59906474D01*
X133474997Y-59911854D01*
X133474994Y-59911856D01*
X133381783Y-59981715D01*
X133367454Y-59992454D01*
X133362072Y-59999635D01*
X133286856Y-60099994D01*
X133286854Y-60099997D01*
X133281474Y-60107176D01*
X133278324Y-60115580D01*
X133234533Y-60232394D01*
X133231149Y-60241420D01*
X133224500Y-60302623D01*
X133224501Y-62697376D01*
X133231149Y-62758580D01*
X133281474Y-62892824D01*
X133286854Y-62900003D01*
X133286856Y-62900006D01*
X133362072Y-63000365D01*
X133367454Y-63007546D01*
X133374635Y-63012928D01*
X133474994Y-63088144D01*
X133474997Y-63088146D01*
X133482176Y-63093526D01*
X133571561Y-63127034D01*
X133609025Y-63141079D01*
X133609027Y-63141079D01*
X133616420Y-63143851D01*
X133624270Y-63144704D01*
X133624271Y-63144704D01*
X133659020Y-63148479D01*
X133677623Y-63150500D01*
X134252872Y-63150500D01*
X138248500Y-63150499D01*
X138316621Y-63170501D01*
X138363114Y-63224157D01*
X138374500Y-63276499D01*
X138374500Y-64188720D01*
X138354498Y-64256841D01*
X138337595Y-64277815D01*
X135027814Y-67587595D01*
X134965502Y-67621621D01*
X134938719Y-67624500D01*
X115454638Y-67624500D01*
X115386517Y-67604498D01*
X115365230Y-67586403D01*
X115365198Y-67586439D01*
X115363950Y-67585315D01*
X115360998Y-67582806D01*
X115360291Y-67582021D01*
X115355871Y-67577112D01*
X115350529Y-67573231D01*
X115350527Y-67573229D01*
X115208072Y-67469730D01*
X115208071Y-67469729D01*
X115202730Y-67465849D01*
X115029803Y-67388856D01*
X114931788Y-67368022D01*
X114851103Y-67350872D01*
X114851099Y-67350872D01*
X114844646Y-67349500D01*
X114655354Y-67349500D01*
X114648901Y-67350872D01*
X114648897Y-67350872D01*
X114568212Y-67368022D01*
X114470197Y-67388856D01*
X114297270Y-67465849D01*
X114144129Y-67577112D01*
X114139716Y-67582014D01*
X114139714Y-67582015D01*
X114044054Y-67688256D01*
X114017467Y-67717784D01*
X114014164Y-67723505D01*
X113934205Y-67861999D01*
X113922821Y-67881716D01*
X113864326Y-68061744D01*
X113844540Y-68250000D01*
X113845230Y-68256565D01*
X113860214Y-68399128D01*
X113864326Y-68438256D01*
X113922821Y-68618284D01*
X114017467Y-68782216D01*
X114144129Y-68922888D01*
X114197605Y-68961741D01*
X114240959Y-69017961D01*
X114247035Y-69088698D01*
X114212639Y-69152771D01*
X111785615Y-71579794D01*
X111777495Y-71587183D01*
X111771087Y-71591250D01*
X111765661Y-71597028D01*
X111725079Y-71640243D01*
X111722324Y-71643085D01*
X111702844Y-71662565D01*
X111700416Y-71665695D01*
X111700344Y-71665777D01*
X111692735Y-71674685D01*
X111662902Y-71706454D01*
X111659083Y-71713401D01*
X111653329Y-71723868D01*
X111642472Y-71740397D01*
X111630291Y-71756100D01*
X111627143Y-71763375D01*
X111612984Y-71796094D01*
X111607762Y-71806754D01*
X111586767Y-71844944D01*
X111581823Y-71864200D01*
X111575424Y-71882889D01*
X111567526Y-71901140D01*
X111566286Y-71908970D01*
X111560708Y-71944190D01*
X111558304Y-71955799D01*
X111547464Y-71998017D01*
X111547464Y-72017892D01*
X111545913Y-72037602D01*
X111542804Y-72057232D01*
X111543550Y-72065124D01*
X111546905Y-72100615D01*
X111547464Y-72112473D01*
X111547464Y-72436459D01*
X111527462Y-72504580D01*
X111473806Y-72551073D01*
X111403532Y-72561177D01*
X111368213Y-72550653D01*
X111348437Y-72541431D01*
X111348432Y-72541429D01*
X111343450Y-72539106D01*
X111338142Y-72537684D01*
X111338140Y-72537683D01*
X111214598Y-72504580D01*
X111130068Y-72481930D01*
X110910000Y-72462677D01*
X110689932Y-72481930D01*
X110605402Y-72504580D01*
X110481860Y-72537683D01*
X110481858Y-72537684D01*
X110476550Y-72539106D01*
X110471569Y-72541428D01*
X110471568Y-72541429D01*
X110281320Y-72630143D01*
X110281317Y-72630145D01*
X110276339Y-72632466D01*
X110095380Y-72759174D01*
X109939174Y-72915380D01*
X109812466Y-73096339D01*
X109810145Y-73101317D01*
X109810143Y-73101320D01*
X109754195Y-73221301D01*
X109707278Y-73274586D01*
X109639000Y-73294047D01*
X109571040Y-73273505D01*
X109525805Y-73221301D01*
X109469857Y-73101320D01*
X109469855Y-73101317D01*
X109467534Y-73096339D01*
X109340826Y-72915380D01*
X109184620Y-72759174D01*
X109180112Y-72756017D01*
X109180109Y-72756015D01*
X109008171Y-72635623D01*
X109008168Y-72635621D01*
X109003662Y-72632466D01*
X108998680Y-72630143D01*
X108998675Y-72630140D01*
X108808432Y-72541429D01*
X108808431Y-72541429D01*
X108803450Y-72539106D01*
X108798142Y-72537684D01*
X108798140Y-72537683D01*
X108674598Y-72504580D01*
X108590068Y-72481930D01*
X108370000Y-72462677D01*
X108149932Y-72481930D01*
X108065402Y-72504580D01*
X107941860Y-72537683D01*
X107941858Y-72537684D01*
X107936550Y-72539106D01*
X107931569Y-72541428D01*
X107931568Y-72541429D01*
X107741320Y-72630143D01*
X107741317Y-72630145D01*
X107736339Y-72632466D01*
X107555380Y-72759174D01*
X107399174Y-72915380D01*
X107272466Y-73096339D01*
X107270145Y-73101317D01*
X107270143Y-73101320D01*
X107229806Y-73187824D01*
X107179106Y-73296550D01*
X107121930Y-73509932D01*
X107102677Y-73730000D01*
X104881697Y-73730000D01*
X104743459Y-73589573D01*
X104739919Y-73586871D01*
X104535864Y-73431141D01*
X104535860Y-73431138D01*
X104532323Y-73428439D01*
X104300589Y-73298662D01*
X104052881Y-73202831D01*
X104048560Y-73201829D01*
X104048552Y-73201827D01*
X103878433Y-73162397D01*
X103794142Y-73142859D01*
X103529534Y-73119941D01*
X103525099Y-73120185D01*
X103525095Y-73120185D01*
X103268780Y-73134291D01*
X103268773Y-73134292D01*
X103264337Y-73134536D01*
X103084398Y-73170328D01*
X103008205Y-73185483D01*
X103008203Y-73185484D01*
X103003842Y-73186351D01*
X102753246Y-73274354D01*
X102517551Y-73396788D01*
X102513936Y-73399371D01*
X102513930Y-73399375D01*
X102377198Y-73497086D01*
X102301457Y-73551211D01*
X102109278Y-73734541D01*
X101944848Y-73943120D01*
X101942616Y-73946962D01*
X101942613Y-73946967D01*
X101813685Y-74168932D01*
X101813682Y-74168938D01*
X101811447Y-74172786D01*
X101783145Y-74242661D01*
X101713410Y-74414826D01*
X101713407Y-74414834D01*
X101711737Y-74418958D01*
X101679555Y-74548515D01*
X101653457Y-74653580D01*
X101647708Y-74676723D01*
X101620637Y-74940939D01*
X100500500Y-74940939D01*
X100500500Y-62694669D01*
X116817001Y-62694669D01*
X116817371Y-62701490D01*
X116822895Y-62752352D01*
X116826521Y-62767604D01*
X116871676Y-62888054D01*
X116880214Y-62903649D01*
X116956715Y-63005724D01*
X116969276Y-63018285D01*
X117071351Y-63094786D01*
X117086946Y-63103324D01*
X117207394Y-63148478D01*
X117222649Y-63152105D01*
X117273514Y-63157631D01*
X117280328Y-63158000D01*
X119302885Y-63158000D01*
X119318124Y-63153525D01*
X119319329Y-63152135D01*
X119321000Y-63144452D01*
X119321000Y-63139884D01*
X119829000Y-63139884D01*
X119833475Y-63155123D01*
X119834865Y-63156328D01*
X119842548Y-63157999D01*
X121869669Y-63157999D01*
X121876490Y-63157629D01*
X121927352Y-63152105D01*
X121942604Y-63148479D01*
X122063054Y-63103324D01*
X122078649Y-63094786D01*
X122180724Y-63018285D01*
X122193285Y-63005724D01*
X122269786Y-62903649D01*
X122278324Y-62888054D01*
X122323478Y-62767606D01*
X122327105Y-62752351D01*
X122332631Y-62701486D01*
X122333000Y-62694672D01*
X122333000Y-61772115D01*
X122328525Y-61756876D01*
X122327135Y-61755671D01*
X122319452Y-61754000D01*
X119847115Y-61754000D01*
X119831876Y-61758475D01*
X119830671Y-61759865D01*
X119829000Y-61767548D01*
X119829000Y-63139884D01*
X119321000Y-63139884D01*
X119321000Y-61772115D01*
X119316525Y-61756876D01*
X119315135Y-61755671D01*
X119307452Y-61754000D01*
X116835116Y-61754000D01*
X116819877Y-61758475D01*
X116818672Y-61759865D01*
X116817001Y-61767548D01*
X116817001Y-62694669D01*
X100500500Y-62694669D01*
X100500500Y-61227885D01*
X116817000Y-61227885D01*
X116821475Y-61243124D01*
X116822865Y-61244329D01*
X116830548Y-61246000D01*
X119302885Y-61246000D01*
X119318124Y-61241525D01*
X119319329Y-61240135D01*
X119321000Y-61232452D01*
X119321000Y-61227885D01*
X119829000Y-61227885D01*
X119833475Y-61243124D01*
X119834865Y-61244329D01*
X119842548Y-61246000D01*
X122314884Y-61246000D01*
X122330123Y-61241525D01*
X122331328Y-61240135D01*
X122332999Y-61232452D01*
X122332999Y-60305331D01*
X122332629Y-60298510D01*
X122327105Y-60247648D01*
X122323479Y-60232396D01*
X122278324Y-60111946D01*
X122269786Y-60096351D01*
X122193285Y-59994276D01*
X122180724Y-59981715D01*
X122078649Y-59905214D01*
X122063054Y-59896676D01*
X121942606Y-59851522D01*
X121927351Y-59847895D01*
X121876486Y-59842369D01*
X121869672Y-59842000D01*
X119847115Y-59842000D01*
X119831876Y-59846475D01*
X119830671Y-59847865D01*
X119829000Y-59855548D01*
X119829000Y-61227885D01*
X119321000Y-61227885D01*
X119321000Y-59860116D01*
X119316525Y-59844877D01*
X119315135Y-59843672D01*
X119307452Y-59842001D01*
X117280331Y-59842001D01*
X117273510Y-59842371D01*
X117222648Y-59847895D01*
X117207396Y-59851521D01*
X117086946Y-59896676D01*
X117071351Y-59905214D01*
X116969276Y-59981715D01*
X116956715Y-59994276D01*
X116880214Y-60096351D01*
X116871676Y-60111946D01*
X116826522Y-60232394D01*
X116822895Y-60247649D01*
X116817369Y-60298514D01*
X116817000Y-60305328D01*
X116817000Y-61227885D01*
X100500500Y-61227885D01*
X100500500Y-56500000D01*
X118344540Y-56500000D01*
X118345230Y-56506565D01*
X118359417Y-56641545D01*
X118364326Y-56688256D01*
X118422821Y-56868284D01*
X118517467Y-57032216D01*
X118521885Y-57037123D01*
X118521886Y-57037124D01*
X118612717Y-57138001D01*
X118644129Y-57172888D01*
X118797270Y-57284151D01*
X118970197Y-57361144D01*
X119068212Y-57381978D01*
X119148897Y-57399128D01*
X119148901Y-57399128D01*
X119155354Y-57400500D01*
X119344646Y-57400500D01*
X119351099Y-57399128D01*
X119351103Y-57399128D01*
X119431788Y-57381978D01*
X119529803Y-57361144D01*
X119702730Y-57284151D01*
X119855871Y-57172888D01*
X119887284Y-57138001D01*
X119978114Y-57037124D01*
X119978115Y-57037123D01*
X119982533Y-57032216D01*
X120077179Y-56868284D01*
X120135674Y-56688256D01*
X120140584Y-56641545D01*
X120154770Y-56506565D01*
X120155460Y-56500000D01*
X120135674Y-56311744D01*
X120077179Y-56131716D01*
X119982533Y-55967784D01*
X119855871Y-55827112D01*
X119702730Y-55715849D01*
X119529803Y-55638856D01*
X119431788Y-55618022D01*
X119351103Y-55600872D01*
X119351099Y-55600872D01*
X119344646Y-55599500D01*
X119155354Y-55599500D01*
X119148901Y-55600872D01*
X119148897Y-55600872D01*
X119068212Y-55618022D01*
X118970197Y-55638856D01*
X118797270Y-55715849D01*
X118644129Y-55827112D01*
X118517467Y-55967784D01*
X118422821Y-56131716D01*
X118364326Y-56311744D01*
X118344540Y-56500000D01*
X100500500Y-56500000D01*
X100500500Y-53607165D01*
X101747866Y-53607165D01*
X101782952Y-53864970D01*
X101855758Y-54114757D01*
X101964686Y-54351039D01*
X101967246Y-54354944D01*
X101967249Y-54354949D01*
X102104775Y-54564712D01*
X102104779Y-54564717D01*
X102107341Y-54568625D01*
X102280591Y-54762735D01*
X102480629Y-54929105D01*
X102703061Y-55064080D01*
X102707375Y-55065889D01*
X102707377Y-55065890D01*
X102938686Y-55162886D01*
X102938691Y-55162888D01*
X102943001Y-55164695D01*
X102947533Y-55165846D01*
X102947536Y-55165847D01*
X103072815Y-55197663D01*
X103195177Y-55228739D01*
X103411286Y-55250500D01*
X103566044Y-55250500D01*
X103568369Y-55250327D01*
X103568375Y-55250327D01*
X103754814Y-55236472D01*
X103754818Y-55236471D01*
X103759466Y-55236126D01*
X104013232Y-55178705D01*
X104018216Y-55176767D01*
X104251370Y-55086098D01*
X104251372Y-55086097D01*
X104255723Y-55084405D01*
X104291285Y-55064080D01*
X104357045Y-55026495D01*
X104481612Y-54955299D01*
X104685936Y-54794223D01*
X104864208Y-54604714D01*
X104936851Y-54500000D01*
X141619540Y-54500000D01*
X141620230Y-54506565D01*
X141630546Y-54604714D01*
X141639326Y-54688256D01*
X141697821Y-54868284D01*
X141792467Y-55032216D01*
X141796885Y-55037123D01*
X141796886Y-55037124D01*
X141840983Y-55086098D01*
X141919129Y-55172888D01*
X141924468Y-55176767D01*
X141996002Y-55228739D01*
X142072270Y-55284151D01*
X142245197Y-55361144D01*
X142343212Y-55381978D01*
X142423897Y-55399128D01*
X142423901Y-55399128D01*
X142430354Y-55400500D01*
X142619646Y-55400500D01*
X142626099Y-55399128D01*
X142626103Y-55399128D01*
X142706788Y-55381978D01*
X142804803Y-55361144D01*
X142977730Y-55284151D01*
X143053999Y-55228739D01*
X143125532Y-55176767D01*
X143130871Y-55172888D01*
X143209018Y-55086098D01*
X143253114Y-55037124D01*
X143253115Y-55037123D01*
X143257533Y-55032216D01*
X143352179Y-54868284D01*
X143410674Y-54688256D01*
X143419455Y-54604714D01*
X143429770Y-54506565D01*
X143430460Y-54500000D01*
X143410674Y-54311744D01*
X143352179Y-54131716D01*
X143257533Y-53967784D01*
X143205317Y-53909792D01*
X143135286Y-53832015D01*
X143135284Y-53832014D01*
X143130871Y-53827112D01*
X142977730Y-53715849D01*
X142804803Y-53638856D01*
X142706788Y-53618022D01*
X142655709Y-53607165D01*
X179747866Y-53607165D01*
X179782952Y-53864970D01*
X179855758Y-54114757D01*
X179964686Y-54351039D01*
X179967246Y-54354944D01*
X179967249Y-54354949D01*
X180104775Y-54564712D01*
X180104779Y-54564717D01*
X180107341Y-54568625D01*
X180280591Y-54762735D01*
X180480629Y-54929105D01*
X180703061Y-55064080D01*
X180707375Y-55065889D01*
X180707377Y-55065890D01*
X180938686Y-55162886D01*
X180938691Y-55162888D01*
X180943001Y-55164695D01*
X180947533Y-55165846D01*
X180947536Y-55165847D01*
X181072815Y-55197663D01*
X181195177Y-55228739D01*
X181411286Y-55250500D01*
X181566044Y-55250500D01*
X181568369Y-55250327D01*
X181568375Y-55250327D01*
X181754814Y-55236472D01*
X181754818Y-55236471D01*
X181759466Y-55236126D01*
X182013232Y-55178705D01*
X182018216Y-55176767D01*
X182251370Y-55086098D01*
X182251372Y-55086097D01*
X182255723Y-55084405D01*
X182291285Y-55064080D01*
X182357045Y-55026495D01*
X182481612Y-54955299D01*
X182685936Y-54794223D01*
X182864208Y-54604714D01*
X183012511Y-54390937D01*
X183030258Y-54354949D01*
X183125521Y-54161775D01*
X183125522Y-54161772D01*
X183127586Y-54157587D01*
X183135868Y-54131716D01*
X183186511Y-53973505D01*
X183206906Y-53909792D01*
X183237859Y-53719730D01*
X183247977Y-53657606D01*
X183247977Y-53657605D01*
X183248728Y-53652994D01*
X183252134Y-53392835D01*
X183217048Y-53135030D01*
X183144242Y-52885243D01*
X183035314Y-52648961D01*
X183006637Y-52605221D01*
X182895225Y-52435288D01*
X182895221Y-52435283D01*
X182892659Y-52431375D01*
X182719409Y-52237265D01*
X182519371Y-52070895D01*
X182296939Y-51935920D01*
X182292623Y-51934110D01*
X182061314Y-51837114D01*
X182061309Y-51837112D01*
X182056999Y-51835305D01*
X182052467Y-51834154D01*
X182052464Y-51834153D01*
X181927185Y-51802337D01*
X181804823Y-51771261D01*
X181588714Y-51749500D01*
X181433956Y-51749500D01*
X181431631Y-51749673D01*
X181431625Y-51749673D01*
X181245186Y-51763528D01*
X181245182Y-51763529D01*
X181240534Y-51763874D01*
X180986768Y-51821295D01*
X180982416Y-51822987D01*
X180982414Y-51822988D01*
X180748630Y-51913902D01*
X180748628Y-51913903D01*
X180744277Y-51915595D01*
X180740223Y-51917912D01*
X180740221Y-51917913D01*
X180704467Y-51938348D01*
X180518388Y-52044701D01*
X180314064Y-52205777D01*
X180135792Y-52395286D01*
X179987489Y-52609063D01*
X179985423Y-52613253D01*
X179985421Y-52613256D01*
X179965720Y-52653207D01*
X179872414Y-52842413D01*
X179793094Y-53090208D01*
X179751272Y-53347006D01*
X179747866Y-53607165D01*
X142655709Y-53607165D01*
X142626103Y-53600872D01*
X142626099Y-53600872D01*
X142619646Y-53599500D01*
X142430354Y-53599500D01*
X142423901Y-53600872D01*
X142423897Y-53600872D01*
X142343212Y-53618022D01*
X142245197Y-53638856D01*
X142072270Y-53715849D01*
X141919129Y-53827112D01*
X141914716Y-53832014D01*
X141914714Y-53832015D01*
X141844683Y-53909792D01*
X141792467Y-53967784D01*
X141697821Y-54131716D01*
X141639326Y-54311744D01*
X141619540Y-54500000D01*
X104936851Y-54500000D01*
X105012511Y-54390937D01*
X105030258Y-54354949D01*
X105125521Y-54161775D01*
X105125522Y-54161772D01*
X105127586Y-54157587D01*
X105135868Y-54131716D01*
X105186511Y-53973505D01*
X105206906Y-53909792D01*
X105237859Y-53719730D01*
X105247977Y-53657606D01*
X105247977Y-53657605D01*
X105248728Y-53652994D01*
X105252134Y-53392835D01*
X105217048Y-53135030D01*
X105144242Y-52885243D01*
X105035314Y-52648961D01*
X105006637Y-52605221D01*
X104895225Y-52435288D01*
X104895221Y-52435283D01*
X104892659Y-52431375D01*
X104719409Y-52237265D01*
X104519371Y-52070895D01*
X104296939Y-51935920D01*
X104292623Y-51934110D01*
X104061314Y-51837114D01*
X104061309Y-51837112D01*
X104056999Y-51835305D01*
X104052467Y-51834154D01*
X104052464Y-51834153D01*
X103927185Y-51802337D01*
X103804823Y-51771261D01*
X103588714Y-51749500D01*
X103433956Y-51749500D01*
X103431631Y-51749673D01*
X103431625Y-51749673D01*
X103245186Y-51763528D01*
X103245182Y-51763529D01*
X103240534Y-51763874D01*
X102986768Y-51821295D01*
X102982416Y-51822987D01*
X102982414Y-51822988D01*
X102748630Y-51913902D01*
X102748628Y-51913903D01*
X102744277Y-51915595D01*
X102740223Y-51917912D01*
X102740221Y-51917913D01*
X102704467Y-51938348D01*
X102518388Y-52044701D01*
X102314064Y-52205777D01*
X102135792Y-52395286D01*
X101987489Y-52609063D01*
X101985423Y-52613253D01*
X101985421Y-52613256D01*
X101965720Y-52653207D01*
X101872414Y-52842413D01*
X101793094Y-53090208D01*
X101751272Y-53347006D01*
X101747866Y-53607165D01*
X100500500Y-53607165D01*
X100500500Y-50626500D01*
X100520502Y-50558379D01*
X100574158Y-50511886D01*
X100626500Y-50500500D01*
X184373500Y-50500500D01*
X184441621Y-50520502D01*
G37*
%TD.AperFunction*%
%TD*%
M02*
