M48
INCH
T1C0.0157
T2C0.0354
T3C0.0394
T4C0.0400
T5C0.0504
T6C0.0728
T7C0.0984
%
G90
G05
T1
X4.5177Y-2.687
X4.5866Y-4.9409
X4.6457Y-5.0197
X4.6949Y-2.2244
X4.7835Y-3.8386
X4.7933Y-5.0492
X4.8031Y-4.4094
X4.8031Y-4.4488
X4.8228Y-4.5276
X4.8228Y-4.5866
X4.8228Y-4.626
X4.8228Y-4.6654
X4.8228Y-4.7047
X4.8228Y-4.7441
X4.8228Y-4.7835
X4.8228Y-4.8228
X4.8228Y-4.8622
X4.8228Y-4.9016
X4.8228Y-4.9409
X4.8228Y-4.9803
X4.8228Y-5.0197
X4.8327Y-5.2756
X4.8327Y-5.315
X4.8425Y-3.9272
X4.8425Y-3.9665
X4.8425Y-4.0059
X4.8425Y-4.0453
X4.8819Y-4.0748
X4.8819Y-4.1142
X4.8819Y-4.1535
X4.8819Y-4.1929
X4.8819Y-4.2323
X4.8819Y-4.2717
X4.8819Y-4.311
X4.8819Y-4.5866
X4.8819Y-4.626
X4.8819Y-4.6654
X4.8819Y-4.7047
X4.8819Y-4.7441
X4.8819Y-4.7835
X4.8819Y-4.8228
X4.8819Y-4.8622
X4.8819Y-4.9016
X4.8819Y-4.9409
X4.8819Y-4.9803
X4.8819Y-5.0197
X4.8917Y-4.3996
X4.8917Y-4.4587
X4.8917Y-5.2756
X4.8917Y-5.315
X4.9016Y-5.4823
X4.9016Y-5.5217
X4.9114Y-5.0492
X4.9213Y-4.4291
X4.9213Y-4.5472
X4.9213Y-4.5866
X4.9213Y-4.626
X4.9213Y-4.6654
X4.9213Y-4.7047
X4.9213Y-4.7441
X4.9213Y-5.4429
X4.9409Y-4.0748
X4.9409Y-4.1142
X4.9409Y-4.1535
X4.9409Y-4.1929
X4.9409Y-4.2323
X4.9409Y-4.2717
X4.9409Y-4.311
X4.9409Y-5.4823
X4.9409Y-5.5217
X4.9508Y-4.3996
X4.9508Y-4.4587
X4.9508Y-4.7736
X4.9803Y-4.0748
X4.9803Y-4.5472
X4.9803Y-4.5866
X4.9803Y-4.626
X4.9803Y-4.6654
X4.9803Y-4.7047
X4.9803Y-4.8031
X5.0Y-4.2717
X5.0098Y-4.7343
X5.0098Y-4.8327
X5.0197Y-4.5276
X5.0295Y-5.3445
X5.0295Y-5.4134
X5.0394Y-4.7638
X5.0394Y-4.8622
X5.0492Y-4.3701
X5.0492Y-4.5079
X5.0689Y-4.7933
X5.0689Y-4.8917
X5.0689Y-5.3445
X5.0689Y-5.4134
X5.0886Y-4.4488
X5.0886Y-4.5079
X5.0984Y-4.8228
X5.0984Y-4.9213
X5.1083Y-5.3445
X5.1083Y-5.4134
X5.1181Y-3.4449
X5.1181Y-4.1535
X5.128Y-4.4488
X5.128Y-4.5079
X5.128Y-4.8524
X5.128Y-4.9508
X5.1575Y-4.8819
X5.1575Y-4.9803
X5.1673Y-4.4488
X5.1673Y-4.5079
X5.187Y-4.9114
X5.1929Y-5.0
X5.1969Y-3.2087
X5.2067Y-4.4488
X5.2067Y-4.5079
X5.2165Y-4.9409
X5.2293Y-5.0
X5.2362Y-3.1299
X5.2362Y-3.8386
X5.2461Y-4.4488
X5.2461Y-4.5079
X5.2657Y-4.9409
X5.2657Y-5.0
X5.2854Y-4.4488
X5.2854Y-4.5079
X5.3051Y-4.9409
X5.3051Y-5.0
X5.3248Y-4.4488
X5.3248Y-4.5079
X5.3445Y-4.9409
X5.3445Y-5.0
X5.3642Y-4.4488
X5.3642Y-4.5079
X5.3642Y-5.3445
X5.3642Y-5.4035
X5.3839Y-4.9409
X5.3839Y-5.0
X5.3848Y-2.3425
X5.4035Y-4.4488
X5.4035Y-4.5079
X5.4035Y-5.3445
X5.4035Y-5.4035
X5.4232Y-4.9409
X5.4232Y-5.0
X5.4429Y-4.4488
X5.4429Y-4.5079
X5.4429Y-5.3445
X5.4429Y-5.4035
X5.4528Y-2.2441
X5.4626Y-4.9409
X5.4626Y-5.0
X5.4823Y-4.4488
X5.4823Y-4.5079
X5.4823Y-5.3445
X5.4823Y-5.4035
X5.502Y-4.9409
X5.502Y-5.0
X5.5217Y-4.4488
X5.5217Y-4.5079
X5.5217Y-5.3445
X5.5217Y-5.4035
X5.5413Y-4.9409
X5.5413Y-5.0
X5.561Y-4.4488
X5.561Y-4.5079
X5.561Y-5.3445
X5.561Y-5.4035
X5.5807Y-4.9409
X5.5807Y-5.0
X5.6004Y-4.4488
X5.6004Y-4.5079
X5.6004Y-5.3445
X5.6004Y-5.4035
X5.6102Y-2.2638
X5.6201Y-4.9409
X5.6201Y-5.0
X5.6398Y-4.4488
X5.6398Y-4.5079
X5.6398Y-5.3445
X5.6398Y-5.4035
X5.6594Y-4.9409
X5.6594Y-5.0
X5.6791Y-5.3445
X5.6791Y-5.4035
X5.6988Y-4.9409
X5.6988Y-5.0
X5.7185Y-5.3445
X5.7185Y-5.4035
X5.7382Y-4.9409
X5.7382Y-5.0
X5.7579Y-5.3445
X5.7579Y-5.4035
X5.7677Y-3.937
X5.7677Y-4.0551
X5.7776Y-4.9409
X5.7776Y-5.0
X5.7972Y-5.3445
X5.7972Y-5.4035
X5.8071Y-5.4724
X5.8169Y-4.9409
X5.8169Y-5.0
X5.8268Y-5.2067
X5.8366Y-5.3445
X5.8366Y-5.4035
X5.8563Y-4.9409
X5.8563Y-5.0
X5.876Y-5.3445
X5.876Y-5.4035
X5.8858Y-4.4685
X5.8858Y-4.5276
X5.8957Y-4.9409
X5.8957Y-5.0
X5.9154Y-5.3445
X5.9154Y-5.4035
X5.935Y-4.9409
X5.935Y-5.0
X5.9547Y-5.3445
X5.9547Y-5.4035
X5.9744Y-4.9409
X5.9744Y-5.0
X5.9941Y-5.3445
X5.9941Y-5.4035
X6.0138Y-4.9409
X6.0138Y-5.0
X6.0335Y-5.3445
X6.0335Y-5.4035
X6.0531Y-4.9409
X6.0531Y-5.0
X6.0728Y-5.3445
X6.0728Y-5.4035
X6.0925Y-4.9409
X6.0925Y-5.0
X6.1122Y-5.3445
X6.1122Y-5.4035
X6.1319Y-4.4685
X6.1319Y-4.5276
X6.1319Y-4.9409
X6.1319Y-5.0
X6.1516Y-5.3445
X6.1516Y-5.4035
X6.1713Y-4.4685
X6.1713Y-4.5276
X6.1713Y-4.9409
X6.1713Y-5.0
X6.1811Y-5.2854
X6.1811Y-5.5512
X6.2008Y-5.0295
X6.2205Y-4.9508
X6.2205Y-5.5512
X6.2303Y-3.1201
X6.2303Y-5.0591
X6.2402Y-5.0984
X6.2402Y-5.1378
X6.2402Y-5.1772
X6.2402Y-5.2165
X6.2402Y-5.2559
X6.25Y-4.9803
X6.2697Y-5.374
X6.2697Y-5.4331
X6.2697Y-5.5512
X6.2795Y-4.3701
X6.2795Y-4.4094
X6.2795Y-5.0098
X6.2795Y-5.5906
X6.2992Y-4.4488
X6.2992Y-5.0492
X6.2992Y-5.0984
X6.2992Y-5.1378
X6.2992Y-5.1772
X6.2992Y-5.2165
X6.2992Y-5.2559
X6.2992Y-5.4035
X6.3091Y-5.6201
X6.3189Y-4.3701
X6.3189Y-4.4094
X6.3287Y-5.374
X6.3287Y-5.4331
X6.3386Y-5.1575
X6.3484Y-5.561
X6.3583Y-5.2559
X6.3583Y-5.6988
X6.378Y-5.5906
X6.3976Y-5.7087
X6.4173Y-5.2854
X6.4173Y-5.5217
X6.4272Y-4.4685
X6.4272Y-4.5472
X6.4272Y-5.7382
X6.437Y-5.4035
X6.437Y-5.6496
X6.4665Y-4.4685
X6.4665Y-4.5472
X6.4665Y-5.6791
X6.4665Y-5.7382
X6.5059Y-4.4685
X6.5059Y-4.5472
X6.5059Y-5.6791
X6.5059Y-5.7382
X6.5453Y-4.4488
X6.5453Y-4.5669
X6.5453Y-5.6791
X6.5453Y-5.7382
X6.5551Y-5.1378
X6.565Y-4.7933
X6.565Y-4.8327
X6.565Y-4.9705
X6.565Y-5.0098
X6.5748Y-5.2165
X6.6142Y-4.4882
X6.6142Y-4.5276
X6.6142Y-5.187
X6.624Y-4.7933
X6.624Y-4.8327
X6.624Y-4.9705
X6.624Y-5.0098
X6.624Y-5.1476
X6.6339Y-4.4488
X6.6339Y-4.5669
X6.7913Y-2.6575
X6.7913Y-3.1299
X6.7913Y-3.1791
X6.7913Y-3.2283
T2
X6.7913Y-2.4606
X6.7913Y-2.5606
T3
X6.6929Y-5.7087
T4
X4.2665Y-2.9028
X4.2665Y-3.0028
X4.3665Y-2.9028
X4.3665Y-3.0028
X4.4665Y-2.9028
X4.4665Y-3.0028
X4.5665Y-2.9028
X4.5665Y-3.0028
X4.6665Y-2.9028
X4.6665Y-3.0028
X4.7665Y-2.9028
X4.7665Y-3.0028
X4.8665Y-2.9028
X4.8665Y-3.0028
X4.9665Y-2.9028
X4.9665Y-3.0028
X5.0665Y-2.9028
X5.0665Y-3.0028
X5.1665Y-2.9028
X5.1665Y-3.0028
X5.2665Y-2.9028
X5.2665Y-3.0028
X5.3665Y-2.9028
X5.3665Y-3.0028
X5.4665Y-2.9028
X5.4665Y-3.0028
X5.5665Y-2.9028
X5.5665Y-3.0028
X5.6665Y-2.9028
X5.6665Y-3.0028
X5.7665Y-2.9028
X5.7665Y-3.0028
X5.8665Y-2.9028
X5.8665Y-3.0028
X5.9665Y-2.9028
X5.9665Y-3.0028
X6.0665Y-2.9028
X6.0665Y-3.0028
X6.1665Y-2.9028
X6.1665Y-3.0028
T5
X6.5984Y-5.6142
X6.5984Y-5.8031
X6.7874Y-5.6142
X6.7874Y-5.8031
T6
X5.9764Y-3.6614
X6.1614Y-3.6614
X6.3465Y-3.6614
T7
X4.0748Y-2.1063
X4.0748Y-5.7677
X7.1457Y-2.1063
X7.1457Y-5.7677
T0
M30
