%TF.GenerationSoftware,KiCad,Pcbnew,(6.0.7)*%
%TF.CreationDate,2022-12-07T20:14:59-06:00*%
%TF.ProjectId,Narwal_v1,4e617277-616c-45f7-9631-2e6b69636164,1*%
%TF.SameCoordinates,Original*%
%TF.FileFunction,Paste,Top*%
%TF.FilePolarity,Positive*%
%FSLAX46Y46*%
G04 Gerber Fmt 4.6, Leading zero omitted, Abs format (unit mm)*
G04 Created by KiCad (PCBNEW (6.0.7)) date 2022-12-07 20:14:59*
%MOMM*%
%LPD*%
G01*
G04 APERTURE LIST*
G04 Aperture macros list*
%AMRoundRect*
0 Rectangle with rounded corners*
0 $1 Rounding radius*
0 $2 $3 $4 $5 $6 $7 $8 $9 X,Y pos of 4 corners*
0 Add a 4 corners polygon primitive as box body*
4,1,4,$2,$3,$4,$5,$6,$7,$8,$9,$2,$3,0*
0 Add four circle primitives for the rounded corners*
1,1,$1+$1,$2,$3*
1,1,$1+$1,$4,$5*
1,1,$1+$1,$6,$7*
1,1,$1+$1,$8,$9*
0 Add four rect primitives between the rounded corners*
20,1,$1+$1,$2,$3,$4,$5,0*
20,1,$1+$1,$4,$5,$6,$7,0*
20,1,$1+$1,$6,$7,$8,$9,0*
20,1,$1+$1,$8,$9,$2,$3,0*%
%AMFreePoly0*
4,1,37,3.720550,1.194255,3.722286,1.193536,3.722291,1.193524,3.722302,1.193519,4.023552,0.889469,4.024254,0.887752,4.025000,0.885950,4.025000,-0.885950,4.024254,-0.887752,4.023552,-0.889469,3.722302,-1.193519,3.722291,-1.193524,3.722286,-1.193536,3.720550,-1.194255,3.718773,-1.195001,3.718760,-1.194996,3.718750,-1.195000,1.200000,-1.195000,1.196464,-1.193536,1.195000,-1.190000,
1.195000,-0.782427,0.806025,-0.395000,-0.675000,-0.395000,-0.678536,-0.393536,-0.680000,-0.390000,-0.680000,0.390000,-0.678536,0.393536,-0.675000,0.395000,0.806025,0.395000,1.195000,0.782427,1.195000,1.190000,1.196464,1.193536,1.200000,1.195000,3.718750,1.195000,3.718760,1.194996,3.718773,1.195001,3.720550,1.194255,3.720550,1.194255,$1*%
%AMFreePoly1*
4,1,11,0.965200,2.159000,0.965200,-0.254000,0.457200,-0.762000,0.457200,-2.667000,-0.457200,-2.667000,-0.457200,-0.762000,-0.965200,-0.254000,-0.965200,2.159000,-0.457200,2.667000,0.457200,2.667000,0.965200,2.159000,0.965200,2.159000,$1*%
G04 Aperture macros list end*
%ADD10C,0.010000*%
%ADD11RoundRect,0.250000X-0.625000X0.312500X-0.625000X-0.312500X0.625000X-0.312500X0.625000X0.312500X0*%
%ADD12RoundRect,0.250000X0.312500X0.625000X-0.312500X0.625000X-0.312500X-0.625000X0.312500X-0.625000X0*%
%ADD13RoundRect,0.250000X-0.850000X0.375000X-0.850000X-0.375000X0.850000X-0.375000X0.850000X0.375000X0*%
%ADD14RoundRect,0.250000X0.650000X-0.325000X0.650000X0.325000X-0.650000X0.325000X-0.650000X-0.325000X0*%
%ADD15RoundRect,0.250000X-0.375000X-1.075000X0.375000X-1.075000X0.375000X1.075000X-0.375000X1.075000X0*%
%ADD16R,2.700000X2.700000*%
%ADD17R,0.250000X0.850000*%
%ADD18R,0.850000X0.250000*%
%ADD19RoundRect,0.250000X-0.325000X-0.650000X0.325000X-0.650000X0.325000X0.650000X-0.325000X0.650000X0*%
%ADD20RoundRect,0.250000X0.350000X0.650000X-0.350000X0.650000X-0.350000X-0.650000X0.350000X-0.650000X0*%
%ADD21RoundRect,0.150000X0.150000X0.625000X-0.150000X0.625000X-0.150000X-0.625000X0.150000X-0.625000X0*%
%ADD22RoundRect,0.250000X-0.650000X0.325000X-0.650000X-0.325000X0.650000X-0.325000X0.650000X0.325000X0*%
%ADD23R,0.610000X1.350000*%
%ADD24FreePoly0,90.000000*%
%ADD25RoundRect,0.041300X-0.983700X-0.253700X0.983700X-0.253700X0.983700X0.253700X-0.983700X0.253700X0*%
%ADD26RoundRect,0.250000X0.325000X0.650000X-0.325000X0.650000X-0.325000X-0.650000X0.325000X-0.650000X0*%
%ADD27RoundRect,0.250000X-0.312500X-0.625000X0.312500X-0.625000X0.312500X0.625000X-0.312500X0.625000X0*%
%ADD28R,1.200000X2.800000*%
%ADD29RoundRect,0.250000X-1.075000X0.375000X-1.075000X-0.375000X1.075000X-0.375000X1.075000X0.375000X0*%
%ADD30RoundRect,0.250000X0.625000X-0.312500X0.625000X0.312500X-0.625000X0.312500X-0.625000X-0.312500X0*%
%ADD31RoundRect,0.250000X-0.375000X-0.850000X0.375000X-0.850000X0.375000X0.850000X-0.375000X0.850000X0*%
%ADD32R,0.711200X1.498600*%
%ADD33FreePoly1,180.000000*%
G04 APERTURE END LIST*
%TO.C,L5*%
G36*
X117350000Y-137500000D02*
G01*
X116350000Y-137500000D01*
X116350000Y-137000000D01*
X115250000Y-137000000D01*
X115250000Y-136000000D01*
X116350000Y-136000000D01*
X116350000Y-135500000D01*
X117350000Y-135500000D01*
X117350000Y-137500000D01*
G37*
D10*
X117350000Y-137500000D02*
X116350000Y-137500000D01*
X116350000Y-137000000D01*
X115250000Y-137000000D01*
X115250000Y-136000000D01*
X116350000Y-136000000D01*
X116350000Y-135500000D01*
X117350000Y-135500000D01*
X117350000Y-137500000D01*
G36*
X119650000Y-136000000D02*
G01*
X120750000Y-136000000D01*
X120750000Y-137000000D01*
X119650000Y-137000000D01*
X119650000Y-137500000D01*
X118650000Y-137500000D01*
X118650000Y-135500000D01*
X119650000Y-135500000D01*
X119650000Y-136000000D01*
G37*
X119650000Y-136000000D02*
X120750000Y-136000000D01*
X120750000Y-137000000D01*
X119650000Y-137000000D01*
X119650000Y-137500000D01*
X118650000Y-137500000D01*
X118650000Y-135500000D01*
X119650000Y-135500000D01*
X119650000Y-136000000D01*
%TO.C,U4*%
G36*
X160938500Y-112500000D02*
G01*
X159066500Y-112500000D01*
X159066500Y-111068000D01*
X160938500Y-111068000D01*
X160938500Y-112500000D01*
G37*
X160938500Y-112500000D02*
X159066500Y-112500000D01*
X159066500Y-111068000D01*
X160938500Y-111068000D01*
X160938500Y-112500000D01*
%TD*%
D11*
%TO.C,R2*%
X172500000Y-86962500D03*
X172500000Y-84037500D03*
%TD*%
D12*
%TO.C,R1*%
X154712500Y-85500000D03*
X151787500Y-85500000D03*
%TD*%
D13*
%TO.C,L4*%
X144750000Y-119825000D03*
X144750000Y-117675000D03*
%TD*%
D14*
%TO.C,C17*%
X123250000Y-129525000D03*
X123250000Y-132475000D03*
%TD*%
D12*
%TO.C,R3*%
X158537500Y-104500000D03*
X161462500Y-104500000D03*
%TD*%
D15*
%TO.C,L2*%
X154150000Y-114250000D03*
X151350000Y-114250000D03*
%TD*%
D16*
%TO.C,U5*%
X160000000Y-137250000D03*
D17*
X161250000Y-139200000D03*
X160750000Y-139200000D03*
X160250000Y-139200000D03*
X159750000Y-139200000D03*
X159250000Y-139200000D03*
X158750000Y-139200000D03*
D18*
X158050000Y-138500000D03*
X158050000Y-138000000D03*
X158050000Y-137500000D03*
X158050000Y-137000000D03*
X158050000Y-136500000D03*
X158050000Y-136000000D03*
D17*
X158750000Y-135300000D03*
X159250000Y-135300000D03*
X159750000Y-135300000D03*
X160250000Y-135300000D03*
X160750000Y-135300000D03*
X161250000Y-135300000D03*
D18*
X161950000Y-136000000D03*
X161950000Y-136500000D03*
X161950000Y-137000000D03*
X161950000Y-137500000D03*
X161950000Y-138000000D03*
X161950000Y-138500000D03*
%TD*%
D19*
%TO.C,C10*%
X170450000Y-124500000D03*
X167500000Y-124500000D03*
%TD*%
D20*
%TO.C,J2*%
X165300000Y-52125000D03*
X159700000Y-52125000D03*
D21*
X161000000Y-56000000D03*
X162000000Y-56000000D03*
X163000000Y-56000000D03*
X164000000Y-56000000D03*
%TD*%
D13*
%TO.C,L1*%
X167500000Y-111075000D03*
X167500000Y-108925000D03*
%TD*%
D22*
%TO.C,C19*%
X154000000Y-141950000D03*
X154000000Y-139000000D03*
%TD*%
D23*
%TO.C,U4*%
X161497500Y-114394000D03*
D24*
X160002500Y-114394000D03*
D23*
X158507500Y-114394000D03*
%TD*%
D22*
%TO.C,C20*%
X150000000Y-141950000D03*
X150000000Y-139000000D03*
%TD*%
D19*
%TO.C,C13*%
X132975000Y-107500000D03*
X130025000Y-107500000D03*
%TD*%
D14*
%TO.C,C3*%
X119000000Y-97525000D03*
X119000000Y-100475000D03*
%TD*%
D19*
%TO.C,C12*%
X132975000Y-111000000D03*
X130025000Y-111000000D03*
%TD*%
%TO.C,C4*%
X119225000Y-58500000D03*
X116275000Y-58500000D03*
%TD*%
D25*
%TO.C,U2*%
X132655000Y-57055000D03*
X132655000Y-58325000D03*
X132655000Y-59595000D03*
X132655000Y-60865000D03*
X132655000Y-62135000D03*
X132655000Y-63405000D03*
X132655000Y-64675000D03*
X132655000Y-65945000D03*
X123345000Y-65945000D03*
X123345000Y-64675000D03*
X123345000Y-63405000D03*
X123345000Y-62135000D03*
X123345000Y-60865000D03*
X123345000Y-59595000D03*
X123345000Y-58325000D03*
X123345000Y-57055000D03*
%TD*%
D19*
%TO.C,C18*%
X146225000Y-132250000D03*
X143275000Y-132250000D03*
%TD*%
%TO.C,C7*%
X147725000Y-114250000D03*
X144775000Y-114250000D03*
%TD*%
D22*
%TO.C,C2*%
X136775000Y-64475000D03*
X136775000Y-61525000D03*
%TD*%
D26*
%TO.C,C16*%
X131500000Y-136500000D03*
X134450000Y-136500000D03*
%TD*%
%TO.C,C14*%
X113550000Y-127500000D03*
X116500000Y-127500000D03*
%TD*%
%TO.C,C5*%
X164550000Y-100000000D03*
X167500000Y-100000000D03*
%TD*%
D27*
%TO.C,R5*%
X139962500Y-132250000D03*
X137037500Y-132250000D03*
%TD*%
D14*
%TO.C,C1*%
X114500000Y-97525000D03*
X114500000Y-100475000D03*
%TD*%
D28*
%TO.C,U1*%
X139000000Y-101000000D03*
X137000000Y-101000000D03*
X135000000Y-101000000D03*
X133000000Y-101000000D03*
X131000000Y-101000000D03*
X129000000Y-101000000D03*
X127000000Y-101000000D03*
X125000000Y-101000000D03*
X125000000Y-85000000D03*
X127000000Y-85000000D03*
X129000000Y-85000000D03*
X131000000Y-85000000D03*
X133000000Y-85000000D03*
X135000000Y-85000000D03*
X137000000Y-85000000D03*
X139000000Y-85000000D03*
%TD*%
D29*
%TO.C,L3*%
X167500000Y-120300000D03*
X167500000Y-117500000D03*
%TD*%
D26*
%TO.C,C8*%
X162525000Y-131750000D03*
X165475000Y-131750000D03*
%TD*%
D30*
%TO.C,R4*%
X172500000Y-57075000D03*
X172500000Y-60000000D03*
%TD*%
D31*
%TO.C,L6*%
X133650000Y-132250000D03*
X131500000Y-132250000D03*
%TD*%
D22*
%TO.C,C9*%
X151250000Y-120475000D03*
X151250000Y-117525000D03*
%TD*%
D26*
%TO.C,C15*%
X113550000Y-131500000D03*
X116500000Y-131500000D03*
%TD*%
%TO.C,C6*%
X164550000Y-104500000D03*
X167500000Y-104500000D03*
%TD*%
D16*
%TO.C,U3*%
X125000000Y-112500000D03*
D17*
X123750000Y-110550000D03*
X124250000Y-110550000D03*
X124750000Y-110550000D03*
X125250000Y-110550000D03*
X125750000Y-110550000D03*
X126250000Y-110550000D03*
D18*
X126950000Y-111250000D03*
X126950000Y-111750000D03*
X126950000Y-112250000D03*
X126950000Y-112750000D03*
X126950000Y-113250000D03*
X126950000Y-113750000D03*
D17*
X126250000Y-114450000D03*
X125750000Y-114450000D03*
X125250000Y-114450000D03*
X124750000Y-114450000D03*
X124250000Y-114450000D03*
X123750000Y-114450000D03*
D18*
X123050000Y-113750000D03*
X123050000Y-113250000D03*
X123050000Y-112750000D03*
X123050000Y-112250000D03*
X123050000Y-111750000D03*
X123050000Y-111250000D03*
%TD*%
D19*
%TO.C,C11*%
X170450000Y-129000000D03*
X167500000Y-129000000D03*
%TD*%
D32*
%TO.C,U6*%
X123501400Y-136595000D03*
D33*
X125000000Y-138500000D03*
D32*
X126498600Y-136595000D03*
%TD*%
D20*
%TO.C,J1*%
X149700000Y-52125000D03*
X155300000Y-52125000D03*
D21*
X151000000Y-56000000D03*
X152000000Y-56000000D03*
X153000000Y-56000000D03*
X154000000Y-56000000D03*
%TD*%
M02*
