%TF.GenerationSoftware,KiCad,Pcbnew,(6.0.7)*%
%TF.CreationDate,2022-12-07T20:14:59-06:00*%
%TF.ProjectId,Narwal_v1,4e617277-616c-45f7-9631-2e6b69636164,1*%
%TF.SameCoordinates,Original*%
%TF.FileFunction,Soldermask,Bot*%
%TF.FilePolarity,Negative*%
%FSLAX46Y46*%
G04 Gerber Fmt 4.6, Leading zero omitted, Abs format (unit mm)*
G04 Created by KiCad (PCBNEW (6.0.7)) date 2022-12-07 20:14:59*
%MOMM*%
%LPD*%
G01*
G04 APERTURE LIST*
%ADD10C,1.800000*%
%ADD11R,1.800000X1.800000*%
%ADD12C,2.775000*%
%ADD13R,2.775000X2.775000*%
%ADD14C,5.000000*%
%ADD15C,1.524000*%
%ADD16R,1.524000X1.524000*%
%ADD17C,1.920000*%
%ADD18C,1.508000*%
%ADD19R,4.500000X2.300000*%
G04 APERTURE END LIST*
D10*
%TO.C,D1*%
X172500000Y-65040000D03*
D11*
X172500000Y-62500000D03*
%TD*%
D12*
%TO.C,S1*%
X156500000Y-93000000D03*
D13*
X161200000Y-93000000D03*
D12*
X151800000Y-93000000D03*
%TD*%
D14*
%TO.C,H4*%
X103500000Y-146500000D03*
%TD*%
%TO.C,H3*%
X181500000Y-146500000D03*
%TD*%
%TO.C,H2*%
X181500000Y-53500000D03*
%TD*%
%TO.C,H1*%
X103500000Y-53500000D03*
%TD*%
D15*
%TO.C,A1*%
X156630000Y-73730000D03*
X156630000Y-76270000D03*
X154090000Y-73730000D03*
X154090000Y-76270000D03*
X151550000Y-73730000D03*
X151550000Y-76270000D03*
X149010000Y-73730000D03*
X149010000Y-76270000D03*
X146470000Y-73730000D03*
X146470000Y-76270000D03*
X143930000Y-73730000D03*
X143930000Y-76270000D03*
X141390000Y-73730000D03*
X141390000Y-76270000D03*
X138850000Y-73730000D03*
X138850000Y-76270000D03*
X136310000Y-73730000D03*
X136310000Y-76270000D03*
X133770000Y-73730000D03*
X133770000Y-76270000D03*
X131230000Y-73730000D03*
X131230000Y-76270000D03*
X128690000Y-73730000D03*
X128690000Y-76270000D03*
X126150000Y-73730000D03*
X126150000Y-76270000D03*
X123610000Y-73730000D03*
X123610000Y-76270000D03*
X121070000Y-73730000D03*
X121070000Y-76270000D03*
X118530000Y-73730000D03*
X118530000Y-76270000D03*
X115990000Y-73730000D03*
X115990000Y-76270000D03*
X113450000Y-73730000D03*
X113450000Y-76270000D03*
X110910000Y-73730000D03*
X110910000Y-76270000D03*
X108370000Y-73730000D03*
D16*
X108370000Y-76270000D03*
%TD*%
D17*
%TO.C,J3*%
X172400000Y-142600000D03*
X172400000Y-147400000D03*
X167600000Y-147400000D03*
X167600000Y-142600000D03*
D18*
X170000000Y-145000000D03*
%TD*%
D19*
%TO.C,BT1*%
X135975000Y-61500000D03*
X119575000Y-61500000D03*
%TD*%
M02*
