%TF.GenerationSoftware,KiCad,Pcbnew,(6.0.7)*%
%TF.CreationDate,2022-10-30T05:00:52-05:00*%
%TF.ProjectId,GroundPCB,47726f75-6e64-4504-9342-2e6b69636164,1*%
%TF.SameCoordinates,Original*%
%TF.FileFunction,Legend,Top*%
%TF.FilePolarity,Positive*%
%FSLAX46Y46*%
G04 Gerber Fmt 4.6, Leading zero omitted, Abs format (unit mm)*
G04 Created by KiCad (PCBNEW (6.0.7)) date 2022-10-30 05:00:52*
%MOMM*%
%LPD*%
G01*
G04 APERTURE LIST*
%TA.AperFunction,Profile*%
%ADD10C,0.100000*%
%TD*%
%ADD11C,0.150000*%
%ADD12C,0.120000*%
%ADD13C,0.250000*%
%ADD14C,0.127000*%
%ADD15C,0.200000*%
%ADD16C,0.203200*%
G04 APERTURE END LIST*
D10*
X100000000Y-53500000D02*
X185000000Y-53500000D01*
X185000000Y-53500000D02*
X185000000Y-153500000D01*
X185000000Y-153500000D02*
X100000000Y-153500000D01*
X100000000Y-153500000D02*
X100000000Y-53500000D01*
D11*
%TO.C,L3*%
X152583333Y-119702380D02*
X152107142Y-119702380D01*
X152107142Y-118702380D01*
X152821428Y-118702380D02*
X153440476Y-118702380D01*
X153107142Y-119083333D01*
X153250000Y-119083333D01*
X153345238Y-119130952D01*
X153392857Y-119178571D01*
X153440476Y-119273809D01*
X153440476Y-119511904D01*
X153392857Y-119607142D01*
X153345238Y-119654761D01*
X153250000Y-119702380D01*
X152964285Y-119702380D01*
X152869047Y-119654761D01*
X152821428Y-119607142D01*
%TO.C,L1*%
X142083333Y-126702380D02*
X141607142Y-126702380D01*
X141607142Y-125702380D01*
X142940476Y-126702380D02*
X142369047Y-126702380D01*
X142654761Y-126702380D02*
X142654761Y-125702380D01*
X142559523Y-125845238D01*
X142464285Y-125940476D01*
X142369047Y-125988095D01*
%TO.C,C5*%
X125333333Y-139607142D02*
X125285714Y-139654761D01*
X125142857Y-139702380D01*
X125047619Y-139702380D01*
X124904761Y-139654761D01*
X124809523Y-139559523D01*
X124761904Y-139464285D01*
X124714285Y-139273809D01*
X124714285Y-139130952D01*
X124761904Y-138940476D01*
X124809523Y-138845238D01*
X124904761Y-138750000D01*
X125047619Y-138702380D01*
X125142857Y-138702380D01*
X125285714Y-138750000D01*
X125333333Y-138797619D01*
X126238095Y-138702380D02*
X125761904Y-138702380D01*
X125714285Y-139178571D01*
X125761904Y-139130952D01*
X125857142Y-139083333D01*
X126095238Y-139083333D01*
X126190476Y-139130952D01*
X126238095Y-139178571D01*
X126285714Y-139273809D01*
X126285714Y-139511904D01*
X126238095Y-139607142D01*
X126190476Y-139654761D01*
X126095238Y-139702380D01*
X125857142Y-139702380D01*
X125761904Y-139654761D01*
X125714285Y-139607142D01*
%TO.C,R2*%
X173083333Y-112952380D02*
X172750000Y-112476190D01*
X172511904Y-112952380D02*
X172511904Y-111952380D01*
X172892857Y-111952380D01*
X172988095Y-112000000D01*
X173035714Y-112047619D01*
X173083333Y-112142857D01*
X173083333Y-112285714D01*
X173035714Y-112380952D01*
X172988095Y-112428571D01*
X172892857Y-112476190D01*
X172511904Y-112476190D01*
X173464285Y-112047619D02*
X173511904Y-112000000D01*
X173607142Y-111952380D01*
X173845238Y-111952380D01*
X173940476Y-112000000D01*
X173988095Y-112047619D01*
X174035714Y-112142857D01*
X174035714Y-112238095D01*
X173988095Y-112380952D01*
X173416666Y-112952380D01*
X174035714Y-112952380D01*
%TO.C,R3*%
X140333333Y-56952380D02*
X140000000Y-56476190D01*
X139761904Y-56952380D02*
X139761904Y-55952380D01*
X140142857Y-55952380D01*
X140238095Y-56000000D01*
X140285714Y-56047619D01*
X140333333Y-56142857D01*
X140333333Y-56285714D01*
X140285714Y-56380952D01*
X140238095Y-56428571D01*
X140142857Y-56476190D01*
X139761904Y-56476190D01*
X140666666Y-55952380D02*
X141285714Y-55952380D01*
X140952380Y-56333333D01*
X141095238Y-56333333D01*
X141190476Y-56380952D01*
X141238095Y-56428571D01*
X141285714Y-56523809D01*
X141285714Y-56761904D01*
X141238095Y-56857142D01*
X141190476Y-56904761D01*
X141095238Y-56952380D01*
X140809523Y-56952380D01*
X140714285Y-56904761D01*
X140666666Y-56857142D01*
%TO.C,IC2*%
X163273809Y-145952380D02*
X163273809Y-144952380D01*
X164321428Y-145857142D02*
X164273809Y-145904761D01*
X164130952Y-145952380D01*
X164035714Y-145952380D01*
X163892857Y-145904761D01*
X163797619Y-145809523D01*
X163750000Y-145714285D01*
X163702380Y-145523809D01*
X163702380Y-145380952D01*
X163750000Y-145190476D01*
X163797619Y-145095238D01*
X163892857Y-145000000D01*
X164035714Y-144952380D01*
X164130952Y-144952380D01*
X164273809Y-145000000D01*
X164321428Y-145047619D01*
X164702380Y-145047619D02*
X164750000Y-145000000D01*
X164845238Y-144952380D01*
X165083333Y-144952380D01*
X165178571Y-145000000D01*
X165226190Y-145047619D01*
X165273809Y-145142857D01*
X165273809Y-145238095D01*
X165226190Y-145380952D01*
X164654761Y-145952380D01*
X165273809Y-145952380D01*
%TO.C,C10*%
X172607142Y-129857142D02*
X172559523Y-129904761D01*
X172416666Y-129952380D01*
X172321428Y-129952380D01*
X172178571Y-129904761D01*
X172083333Y-129809523D01*
X172035714Y-129714285D01*
X171988095Y-129523809D01*
X171988095Y-129380952D01*
X172035714Y-129190476D01*
X172083333Y-129095238D01*
X172178571Y-129000000D01*
X172321428Y-128952380D01*
X172416666Y-128952380D01*
X172559523Y-129000000D01*
X172607142Y-129047619D01*
X173559523Y-129952380D02*
X172988095Y-129952380D01*
X173273809Y-129952380D02*
X173273809Y-128952380D01*
X173178571Y-129095238D01*
X173083333Y-129190476D01*
X172988095Y-129238095D01*
X174178571Y-128952380D02*
X174273809Y-128952380D01*
X174369047Y-129000000D01*
X174416666Y-129047619D01*
X174464285Y-129142857D01*
X174511904Y-129333333D01*
X174511904Y-129571428D01*
X174464285Y-129761904D01*
X174416666Y-129857142D01*
X174369047Y-129904761D01*
X174273809Y-129952380D01*
X174178571Y-129952380D01*
X174083333Y-129904761D01*
X174035714Y-129857142D01*
X173988095Y-129761904D01*
X173940476Y-129571428D01*
X173940476Y-129333333D01*
X173988095Y-129142857D01*
X174035714Y-129047619D01*
X174083333Y-129000000D01*
X174178571Y-128952380D01*
%TO.C,L4*%
X117833333Y-144452380D02*
X117357142Y-144452380D01*
X117357142Y-143452380D01*
X118595238Y-143785714D02*
X118595238Y-144452380D01*
X118357142Y-143404761D02*
X118119047Y-144119047D01*
X118738095Y-144119047D01*
%TO.C,L5*%
X168083333Y-119452380D02*
X167607142Y-119452380D01*
X167607142Y-118452380D01*
X168892857Y-118452380D02*
X168416666Y-118452380D01*
X168369047Y-118928571D01*
X168416666Y-118880952D01*
X168511904Y-118833333D01*
X168750000Y-118833333D01*
X168845238Y-118880952D01*
X168892857Y-118928571D01*
X168940476Y-119023809D01*
X168940476Y-119261904D01*
X168892857Y-119357142D01*
X168845238Y-119404761D01*
X168750000Y-119452380D01*
X168511904Y-119452380D01*
X168416666Y-119404761D01*
X168369047Y-119357142D01*
%TO.C,C16*%
X151507142Y-146357142D02*
X151459523Y-146404761D01*
X151316666Y-146452380D01*
X151221428Y-146452380D01*
X151078571Y-146404761D01*
X150983333Y-146309523D01*
X150935714Y-146214285D01*
X150888095Y-146023809D01*
X150888095Y-145880952D01*
X150935714Y-145690476D01*
X150983333Y-145595238D01*
X151078571Y-145500000D01*
X151221428Y-145452380D01*
X151316666Y-145452380D01*
X151459523Y-145500000D01*
X151507142Y-145547619D01*
X152459523Y-146452380D02*
X151888095Y-146452380D01*
X152173809Y-146452380D02*
X152173809Y-145452380D01*
X152078571Y-145595238D01*
X151983333Y-145690476D01*
X151888095Y-145738095D01*
X153316666Y-145452380D02*
X153126190Y-145452380D01*
X153030952Y-145500000D01*
X152983333Y-145547619D01*
X152888095Y-145690476D01*
X152840476Y-145880952D01*
X152840476Y-146261904D01*
X152888095Y-146357142D01*
X152935714Y-146404761D01*
X153030952Y-146452380D01*
X153221428Y-146452380D01*
X153316666Y-146404761D01*
X153364285Y-146357142D01*
X153411904Y-146261904D01*
X153411904Y-146023809D01*
X153364285Y-145928571D01*
X153316666Y-145880952D01*
X153221428Y-145833333D01*
X153030952Y-145833333D01*
X152935714Y-145880952D01*
X152888095Y-145928571D01*
X152840476Y-146023809D01*
%TO.C,U1*%
X158988095Y-116202380D02*
X158988095Y-117011904D01*
X159035714Y-117107142D01*
X159083333Y-117154761D01*
X159178571Y-117202380D01*
X159369047Y-117202380D01*
X159464285Y-117154761D01*
X159511904Y-117107142D01*
X159559523Y-117011904D01*
X159559523Y-116202380D01*
X160559523Y-117202380D02*
X159988095Y-117202380D01*
X160273809Y-117202380D02*
X160273809Y-116202380D01*
X160178571Y-116345238D01*
X160083333Y-116440476D01*
X159988095Y-116488095D01*
%TO.C,C18*%
X146607142Y-149357142D02*
X146559523Y-149404761D01*
X146416666Y-149452380D01*
X146321428Y-149452380D01*
X146178571Y-149404761D01*
X146083333Y-149309523D01*
X146035714Y-149214285D01*
X145988095Y-149023809D01*
X145988095Y-148880952D01*
X146035714Y-148690476D01*
X146083333Y-148595238D01*
X146178571Y-148500000D01*
X146321428Y-148452380D01*
X146416666Y-148452380D01*
X146559523Y-148500000D01*
X146607142Y-148547619D01*
X147559523Y-149452380D02*
X146988095Y-149452380D01*
X147273809Y-149452380D02*
X147273809Y-148452380D01*
X147178571Y-148595238D01*
X147083333Y-148690476D01*
X146988095Y-148738095D01*
X148130952Y-148880952D02*
X148035714Y-148833333D01*
X147988095Y-148785714D01*
X147940476Y-148690476D01*
X147940476Y-148642857D01*
X147988095Y-148547619D01*
X148035714Y-148500000D01*
X148130952Y-148452380D01*
X148321428Y-148452380D01*
X148416666Y-148500000D01*
X148464285Y-148547619D01*
X148511904Y-148642857D01*
X148511904Y-148690476D01*
X148464285Y-148785714D01*
X148416666Y-148833333D01*
X148321428Y-148880952D01*
X148130952Y-148880952D01*
X148035714Y-148928571D01*
X147988095Y-148976190D01*
X147940476Y-149071428D01*
X147940476Y-149261904D01*
X147988095Y-149357142D01*
X148035714Y-149404761D01*
X148130952Y-149452380D01*
X148321428Y-149452380D01*
X148416666Y-149404761D01*
X148464285Y-149357142D01*
X148511904Y-149261904D01*
X148511904Y-149071428D01*
X148464285Y-148976190D01*
X148416666Y-148928571D01*
X148321428Y-148880952D01*
%TO.C,C17*%
X134857142Y-115357142D02*
X134809523Y-115404761D01*
X134666666Y-115452380D01*
X134571428Y-115452380D01*
X134428571Y-115404761D01*
X134333333Y-115309523D01*
X134285714Y-115214285D01*
X134238095Y-115023809D01*
X134238095Y-114880952D01*
X134285714Y-114690476D01*
X134333333Y-114595238D01*
X134428571Y-114500000D01*
X134571428Y-114452380D01*
X134666666Y-114452380D01*
X134809523Y-114500000D01*
X134857142Y-114547619D01*
X135809523Y-115452380D02*
X135238095Y-115452380D01*
X135523809Y-115452380D02*
X135523809Y-114452380D01*
X135428571Y-114595238D01*
X135333333Y-114690476D01*
X135238095Y-114738095D01*
X136142857Y-114452380D02*
X136809523Y-114452380D01*
X136380952Y-115452380D01*
%TO.C,C14*%
X143357142Y-113607142D02*
X143309523Y-113654761D01*
X143166666Y-113702380D01*
X143071428Y-113702380D01*
X142928571Y-113654761D01*
X142833333Y-113559523D01*
X142785714Y-113464285D01*
X142738095Y-113273809D01*
X142738095Y-113130952D01*
X142785714Y-112940476D01*
X142833333Y-112845238D01*
X142928571Y-112750000D01*
X143071428Y-112702380D01*
X143166666Y-112702380D01*
X143309523Y-112750000D01*
X143357142Y-112797619D01*
X144309523Y-113702380D02*
X143738095Y-113702380D01*
X144023809Y-113702380D02*
X144023809Y-112702380D01*
X143928571Y-112845238D01*
X143833333Y-112940476D01*
X143738095Y-112988095D01*
X145166666Y-113035714D02*
X145166666Y-113702380D01*
X144928571Y-112654761D02*
X144690476Y-113369047D01*
X145309523Y-113369047D01*
%TO.C,C15*%
X134857142Y-118857142D02*
X134809523Y-118904761D01*
X134666666Y-118952380D01*
X134571428Y-118952380D01*
X134428571Y-118904761D01*
X134333333Y-118809523D01*
X134285714Y-118714285D01*
X134238095Y-118523809D01*
X134238095Y-118380952D01*
X134285714Y-118190476D01*
X134333333Y-118095238D01*
X134428571Y-118000000D01*
X134571428Y-117952380D01*
X134666666Y-117952380D01*
X134809523Y-118000000D01*
X134857142Y-118047619D01*
X135809523Y-118952380D02*
X135238095Y-118952380D01*
X135523809Y-118952380D02*
X135523809Y-117952380D01*
X135428571Y-118095238D01*
X135333333Y-118190476D01*
X135238095Y-118238095D01*
X136714285Y-117952380D02*
X136238095Y-117952380D01*
X136190476Y-118428571D01*
X136238095Y-118380952D01*
X136333333Y-118333333D01*
X136571428Y-118333333D01*
X136666666Y-118380952D01*
X136714285Y-118428571D01*
X136761904Y-118523809D01*
X136761904Y-118761904D01*
X136714285Y-118857142D01*
X136666666Y-118904761D01*
X136571428Y-118952380D01*
X136333333Y-118952380D01*
X136238095Y-118904761D01*
X136190476Y-118857142D01*
%TO.C,C19*%
X117107142Y-60357142D02*
X117059523Y-60404761D01*
X116916666Y-60452380D01*
X116821428Y-60452380D01*
X116678571Y-60404761D01*
X116583333Y-60309523D01*
X116535714Y-60214285D01*
X116488095Y-60023809D01*
X116488095Y-59880952D01*
X116535714Y-59690476D01*
X116583333Y-59595238D01*
X116678571Y-59500000D01*
X116821428Y-59452380D01*
X116916666Y-59452380D01*
X117059523Y-59500000D01*
X117107142Y-59547619D01*
X118059523Y-60452380D02*
X117488095Y-60452380D01*
X117773809Y-60452380D02*
X117773809Y-59452380D01*
X117678571Y-59595238D01*
X117583333Y-59690476D01*
X117488095Y-59738095D01*
X118535714Y-60452380D02*
X118726190Y-60452380D01*
X118821428Y-60404761D01*
X118869047Y-60357142D01*
X118964285Y-60214285D01*
X119011904Y-60023809D01*
X119011904Y-59642857D01*
X118964285Y-59547619D01*
X118916666Y-59500000D01*
X118821428Y-59452380D01*
X118630952Y-59452380D01*
X118535714Y-59500000D01*
X118488095Y-59547619D01*
X118440476Y-59642857D01*
X118440476Y-59880952D01*
X118488095Y-59976190D01*
X118535714Y-60023809D01*
X118630952Y-60071428D01*
X118821428Y-60071428D01*
X118916666Y-60023809D01*
X118964285Y-59976190D01*
X119011904Y-59880952D01*
%TO.C,U4*%
X127238095Y-58202380D02*
X127238095Y-59011904D01*
X127285714Y-59107142D01*
X127333333Y-59154761D01*
X127428571Y-59202380D01*
X127619047Y-59202380D01*
X127714285Y-59154761D01*
X127761904Y-59107142D01*
X127809523Y-59011904D01*
X127809523Y-58202380D01*
X128714285Y-58535714D02*
X128714285Y-59202380D01*
X128476190Y-58154761D02*
X128238095Y-58869047D01*
X128857142Y-58869047D01*
%TO.C,C4*%
X142583333Y-144857142D02*
X142535714Y-144904761D01*
X142392857Y-144952380D01*
X142297619Y-144952380D01*
X142154761Y-144904761D01*
X142059523Y-144809523D01*
X142011904Y-144714285D01*
X141964285Y-144523809D01*
X141964285Y-144380952D01*
X142011904Y-144190476D01*
X142059523Y-144095238D01*
X142154761Y-144000000D01*
X142297619Y-143952380D01*
X142392857Y-143952380D01*
X142535714Y-144000000D01*
X142583333Y-144047619D01*
X143440476Y-144285714D02*
X143440476Y-144952380D01*
X143202380Y-143904761D02*
X142964285Y-144619047D01*
X143583333Y-144619047D01*
%TO.C,C1*%
X146083333Y-120107142D02*
X146035714Y-120154761D01*
X145892857Y-120202380D01*
X145797619Y-120202380D01*
X145654761Y-120154761D01*
X145559523Y-120059523D01*
X145511904Y-119964285D01*
X145464285Y-119773809D01*
X145464285Y-119630952D01*
X145511904Y-119440476D01*
X145559523Y-119345238D01*
X145654761Y-119250000D01*
X145797619Y-119202380D01*
X145892857Y-119202380D01*
X146035714Y-119250000D01*
X146083333Y-119297619D01*
X147035714Y-120202380D02*
X146464285Y-120202380D01*
X146750000Y-120202380D02*
X146750000Y-119202380D01*
X146654761Y-119345238D01*
X146559523Y-119440476D01*
X146464285Y-119488095D01*
%TO.C,C20*%
X136107142Y-70107142D02*
X136059523Y-70154761D01*
X135916666Y-70202380D01*
X135821428Y-70202380D01*
X135678571Y-70154761D01*
X135583333Y-70059523D01*
X135535714Y-69964285D01*
X135488095Y-69773809D01*
X135488095Y-69630952D01*
X135535714Y-69440476D01*
X135583333Y-69345238D01*
X135678571Y-69250000D01*
X135821428Y-69202380D01*
X135916666Y-69202380D01*
X136059523Y-69250000D01*
X136107142Y-69297619D01*
X136488095Y-69297619D02*
X136535714Y-69250000D01*
X136630952Y-69202380D01*
X136869047Y-69202380D01*
X136964285Y-69250000D01*
X137011904Y-69297619D01*
X137059523Y-69392857D01*
X137059523Y-69488095D01*
X137011904Y-69630952D01*
X136440476Y-70202380D01*
X137059523Y-70202380D01*
X137678571Y-69202380D02*
X137773809Y-69202380D01*
X137869047Y-69250000D01*
X137916666Y-69297619D01*
X137964285Y-69392857D01*
X138011904Y-69583333D01*
X138011904Y-69821428D01*
X137964285Y-70011904D01*
X137916666Y-70107142D01*
X137869047Y-70154761D01*
X137773809Y-70202380D01*
X137678571Y-70202380D01*
X137583333Y-70154761D01*
X137535714Y-70107142D01*
X137488095Y-70011904D01*
X137440476Y-69821428D01*
X137440476Y-69583333D01*
X137488095Y-69392857D01*
X137535714Y-69297619D01*
X137583333Y-69250000D01*
X137678571Y-69202380D01*
%TO.C,C2*%
X132833333Y-138607142D02*
X132785714Y-138654761D01*
X132642857Y-138702380D01*
X132547619Y-138702380D01*
X132404761Y-138654761D01*
X132309523Y-138559523D01*
X132261904Y-138464285D01*
X132214285Y-138273809D01*
X132214285Y-138130952D01*
X132261904Y-137940476D01*
X132309523Y-137845238D01*
X132404761Y-137750000D01*
X132547619Y-137702380D01*
X132642857Y-137702380D01*
X132785714Y-137750000D01*
X132833333Y-137797619D01*
X133214285Y-137797619D02*
X133261904Y-137750000D01*
X133357142Y-137702380D01*
X133595238Y-137702380D01*
X133690476Y-137750000D01*
X133738095Y-137797619D01*
X133785714Y-137892857D01*
X133785714Y-137988095D01*
X133738095Y-138130952D01*
X133166666Y-138702380D01*
X133785714Y-138702380D01*
%TO.C,C6*%
X111083333Y-132107142D02*
X111035714Y-132154761D01*
X110892857Y-132202380D01*
X110797619Y-132202380D01*
X110654761Y-132154761D01*
X110559523Y-132059523D01*
X110511904Y-131964285D01*
X110464285Y-131773809D01*
X110464285Y-131630952D01*
X110511904Y-131440476D01*
X110559523Y-131345238D01*
X110654761Y-131250000D01*
X110797619Y-131202380D01*
X110892857Y-131202380D01*
X111035714Y-131250000D01*
X111083333Y-131297619D01*
X111940476Y-131202380D02*
X111750000Y-131202380D01*
X111654761Y-131250000D01*
X111607142Y-131297619D01*
X111511904Y-131440476D01*
X111464285Y-131630952D01*
X111464285Y-132011904D01*
X111511904Y-132107142D01*
X111559523Y-132154761D01*
X111654761Y-132202380D01*
X111845238Y-132202380D01*
X111940476Y-132154761D01*
X111988095Y-132107142D01*
X112035714Y-132011904D01*
X112035714Y-131773809D01*
X111988095Y-131678571D01*
X111940476Y-131630952D01*
X111845238Y-131583333D01*
X111654761Y-131583333D01*
X111559523Y-131630952D01*
X111511904Y-131678571D01*
X111464285Y-131773809D01*
%TO.C,C8*%
X167083333Y-108857142D02*
X167035714Y-108904761D01*
X166892857Y-108952380D01*
X166797619Y-108952380D01*
X166654761Y-108904761D01*
X166559523Y-108809523D01*
X166511904Y-108714285D01*
X166464285Y-108523809D01*
X166464285Y-108380952D01*
X166511904Y-108190476D01*
X166559523Y-108095238D01*
X166654761Y-108000000D01*
X166797619Y-107952380D01*
X166892857Y-107952380D01*
X167035714Y-108000000D01*
X167083333Y-108047619D01*
X167654761Y-108380952D02*
X167559523Y-108333333D01*
X167511904Y-108285714D01*
X167464285Y-108190476D01*
X167464285Y-108142857D01*
X167511904Y-108047619D01*
X167559523Y-108000000D01*
X167654761Y-107952380D01*
X167845238Y-107952380D01*
X167940476Y-108000000D01*
X167988095Y-108047619D01*
X168035714Y-108142857D01*
X168035714Y-108190476D01*
X167988095Y-108285714D01*
X167940476Y-108333333D01*
X167845238Y-108380952D01*
X167654761Y-108380952D01*
X167559523Y-108428571D01*
X167511904Y-108476190D01*
X167464285Y-108571428D01*
X167464285Y-108761904D01*
X167511904Y-108857142D01*
X167559523Y-108904761D01*
X167654761Y-108952380D01*
X167845238Y-108952380D01*
X167940476Y-108904761D01*
X167988095Y-108857142D01*
X168035714Y-108761904D01*
X168035714Y-108571428D01*
X167988095Y-108476190D01*
X167940476Y-108428571D01*
X167845238Y-108380952D01*
%TO.C,J1*%
X172166666Y-142452380D02*
X172166666Y-143166666D01*
X172119047Y-143309523D01*
X172023809Y-143404761D01*
X171880952Y-143452380D01*
X171785714Y-143452380D01*
X173166666Y-143452380D02*
X172595238Y-143452380D01*
X172880952Y-143452380D02*
X172880952Y-142452380D01*
X172785714Y-142595238D01*
X172690476Y-142690476D01*
X172595238Y-142738095D01*
%TO.C,R1*%
X136583333Y-144952380D02*
X136250000Y-144476190D01*
X136011904Y-144952380D02*
X136011904Y-143952380D01*
X136392857Y-143952380D01*
X136488095Y-144000000D01*
X136535714Y-144047619D01*
X136583333Y-144142857D01*
X136583333Y-144285714D01*
X136535714Y-144380952D01*
X136488095Y-144428571D01*
X136392857Y-144476190D01*
X136011904Y-144476190D01*
X137535714Y-144952380D02*
X136964285Y-144952380D01*
X137250000Y-144952380D02*
X137250000Y-143952380D01*
X137154761Y-144095238D01*
X137059523Y-144190476D01*
X136964285Y-144238095D01*
%TO.C,D1*%
X171011904Y-68103630D02*
X171011904Y-67103630D01*
X171250000Y-67103630D01*
X171392857Y-67151250D01*
X171488095Y-67246488D01*
X171535714Y-67341726D01*
X171583333Y-67532202D01*
X171583333Y-67675059D01*
X171535714Y-67865535D01*
X171488095Y-67960773D01*
X171392857Y-68056011D01*
X171250000Y-68103630D01*
X171011904Y-68103630D01*
X172535714Y-68103630D02*
X171964285Y-68103630D01*
X172250000Y-68103630D02*
X172250000Y-67103630D01*
X172154761Y-67246488D01*
X172059523Y-67341726D01*
X171964285Y-67389345D01*
%TO.C,C13*%
X147357142Y-113607142D02*
X147309523Y-113654761D01*
X147166666Y-113702380D01*
X147071428Y-113702380D01*
X146928571Y-113654761D01*
X146833333Y-113559523D01*
X146785714Y-113464285D01*
X146738095Y-113273809D01*
X146738095Y-113130952D01*
X146785714Y-112940476D01*
X146833333Y-112845238D01*
X146928571Y-112750000D01*
X147071428Y-112702380D01*
X147166666Y-112702380D01*
X147309523Y-112750000D01*
X147357142Y-112797619D01*
X148309523Y-113702380D02*
X147738095Y-113702380D01*
X148023809Y-113702380D02*
X148023809Y-112702380D01*
X147928571Y-112845238D01*
X147833333Y-112940476D01*
X147738095Y-112988095D01*
X148642857Y-112702380D02*
X149261904Y-112702380D01*
X148928571Y-113083333D01*
X149071428Y-113083333D01*
X149166666Y-113130952D01*
X149214285Y-113178571D01*
X149261904Y-113273809D01*
X149261904Y-113511904D01*
X149214285Y-113607142D01*
X149166666Y-113654761D01*
X149071428Y-113702380D01*
X148785714Y-113702380D01*
X148690476Y-113654761D01*
X148642857Y-113607142D01*
%TO.C,U3*%
X134488095Y-86452380D02*
X134488095Y-87261904D01*
X134535714Y-87357142D01*
X134583333Y-87404761D01*
X134678571Y-87452380D01*
X134869047Y-87452380D01*
X134964285Y-87404761D01*
X135011904Y-87357142D01*
X135059523Y-87261904D01*
X135059523Y-86452380D01*
X135440476Y-86452380D02*
X136059523Y-86452380D01*
X135726190Y-86833333D01*
X135869047Y-86833333D01*
X135964285Y-86880952D01*
X136011904Y-86928571D01*
X136059523Y-87023809D01*
X136059523Y-87261904D01*
X136011904Y-87357142D01*
X135964285Y-87404761D01*
X135869047Y-87452380D01*
X135583333Y-87452380D01*
X135488095Y-87404761D01*
X135440476Y-87357142D01*
%TO.C,L6*%
X170333333Y-125202380D02*
X169857142Y-125202380D01*
X169857142Y-124202380D01*
X171095238Y-124202380D02*
X170904761Y-124202380D01*
X170809523Y-124250000D01*
X170761904Y-124297619D01*
X170666666Y-124440476D01*
X170619047Y-124630952D01*
X170619047Y-125011904D01*
X170666666Y-125107142D01*
X170714285Y-125154761D01*
X170809523Y-125202380D01*
X171000000Y-125202380D01*
X171095238Y-125154761D01*
X171142857Y-125107142D01*
X171190476Y-125011904D01*
X171190476Y-124773809D01*
X171142857Y-124678571D01*
X171095238Y-124630952D01*
X171000000Y-124583333D01*
X170809523Y-124583333D01*
X170714285Y-124630952D01*
X170666666Y-124678571D01*
X170619047Y-124773809D01*
%TO.C,C12*%
X169857142Y-138107142D02*
X169809523Y-138154761D01*
X169666666Y-138202380D01*
X169571428Y-138202380D01*
X169428571Y-138154761D01*
X169333333Y-138059523D01*
X169285714Y-137964285D01*
X169238095Y-137773809D01*
X169238095Y-137630952D01*
X169285714Y-137440476D01*
X169333333Y-137345238D01*
X169428571Y-137250000D01*
X169571428Y-137202380D01*
X169666666Y-137202380D01*
X169809523Y-137250000D01*
X169857142Y-137297619D01*
X170809523Y-138202380D02*
X170238095Y-138202380D01*
X170523809Y-138202380D02*
X170523809Y-137202380D01*
X170428571Y-137345238D01*
X170333333Y-137440476D01*
X170238095Y-137488095D01*
X171190476Y-137297619D02*
X171238095Y-137250000D01*
X171333333Y-137202380D01*
X171571428Y-137202380D01*
X171666666Y-137250000D01*
X171714285Y-137297619D01*
X171761904Y-137392857D01*
X171761904Y-137488095D01*
X171714285Y-137630952D01*
X171142857Y-138202380D01*
X171761904Y-138202380D01*
%TO.C,R5*%
X172583333Y-62608630D02*
X172250000Y-62132440D01*
X172011904Y-62608630D02*
X172011904Y-61608630D01*
X172392857Y-61608630D01*
X172488095Y-61656250D01*
X172535714Y-61703869D01*
X172583333Y-61799107D01*
X172583333Y-61941964D01*
X172535714Y-62037202D01*
X172488095Y-62084821D01*
X172392857Y-62132440D01*
X172011904Y-62132440D01*
X173488095Y-61608630D02*
X173011904Y-61608630D01*
X172964285Y-62084821D01*
X173011904Y-62037202D01*
X173107142Y-61989583D01*
X173345238Y-61989583D01*
X173440476Y-62037202D01*
X173488095Y-62084821D01*
X173535714Y-62180059D01*
X173535714Y-62418154D01*
X173488095Y-62513392D01*
X173440476Y-62561011D01*
X173345238Y-62608630D01*
X173107142Y-62608630D01*
X173011904Y-62561011D01*
X172964285Y-62513392D01*
%TO.C,R4*%
X136583333Y-56952380D02*
X136250000Y-56476190D01*
X136011904Y-56952380D02*
X136011904Y-55952380D01*
X136392857Y-55952380D01*
X136488095Y-56000000D01*
X136535714Y-56047619D01*
X136583333Y-56142857D01*
X136583333Y-56285714D01*
X136535714Y-56380952D01*
X136488095Y-56428571D01*
X136392857Y-56476190D01*
X136011904Y-56476190D01*
X137440476Y-56285714D02*
X137440476Y-56952380D01*
X137202380Y-55904761D02*
X136964285Y-56619047D01*
X137583333Y-56619047D01*
%TO.C,BT1*%
X147964285Y-56428571D02*
X148107142Y-56476190D01*
X148154761Y-56523809D01*
X148202380Y-56619047D01*
X148202380Y-56761904D01*
X148154761Y-56857142D01*
X148107142Y-56904761D01*
X148011904Y-56952380D01*
X147630952Y-56952380D01*
X147630952Y-55952380D01*
X147964285Y-55952380D01*
X148059523Y-56000000D01*
X148107142Y-56047619D01*
X148154761Y-56142857D01*
X148154761Y-56238095D01*
X148107142Y-56333333D01*
X148059523Y-56380952D01*
X147964285Y-56428571D01*
X147630952Y-56428571D01*
X148488095Y-55952380D02*
X149059523Y-55952380D01*
X148773809Y-56952380D02*
X148773809Y-55952380D01*
X149916666Y-56952380D02*
X149345238Y-56952380D01*
X149630952Y-56952380D02*
X149630952Y-55952380D01*
X149535714Y-56095238D01*
X149440476Y-56190476D01*
X149345238Y-56238095D01*
%TO.C,L2*%
X128833333Y-145952380D02*
X128357142Y-145952380D01*
X128357142Y-144952380D01*
X129119047Y-145047619D02*
X129166666Y-145000000D01*
X129261904Y-144952380D01*
X129500000Y-144952380D01*
X129595238Y-145000000D01*
X129642857Y-145047619D01*
X129690476Y-145142857D01*
X129690476Y-145238095D01*
X129642857Y-145380952D01*
X129071428Y-145952380D01*
X129690476Y-145952380D01*
%TO.C,C3*%
X148583333Y-126857142D02*
X148535714Y-126904761D01*
X148392857Y-126952380D01*
X148297619Y-126952380D01*
X148154761Y-126904761D01*
X148059523Y-126809523D01*
X148011904Y-126714285D01*
X147964285Y-126523809D01*
X147964285Y-126380952D01*
X148011904Y-126190476D01*
X148059523Y-126095238D01*
X148154761Y-126000000D01*
X148297619Y-125952380D01*
X148392857Y-125952380D01*
X148535714Y-126000000D01*
X148583333Y-126047619D01*
X148916666Y-125952380D02*
X149535714Y-125952380D01*
X149202380Y-126333333D01*
X149345238Y-126333333D01*
X149440476Y-126380952D01*
X149488095Y-126428571D01*
X149535714Y-126523809D01*
X149535714Y-126761904D01*
X149488095Y-126857142D01*
X149440476Y-126904761D01*
X149345238Y-126952380D01*
X149059523Y-126952380D01*
X148964285Y-126904761D01*
X148916666Y-126857142D01*
%TO.C,C7*%
X111083333Y-136107142D02*
X111035714Y-136154761D01*
X110892857Y-136202380D01*
X110797619Y-136202380D01*
X110654761Y-136154761D01*
X110559523Y-136059523D01*
X110511904Y-135964285D01*
X110464285Y-135773809D01*
X110464285Y-135630952D01*
X110511904Y-135440476D01*
X110559523Y-135345238D01*
X110654761Y-135250000D01*
X110797619Y-135202380D01*
X110892857Y-135202380D01*
X111035714Y-135250000D01*
X111083333Y-135297619D01*
X111416666Y-135202380D02*
X112083333Y-135202380D01*
X111654761Y-136202380D01*
%TO.C,C9*%
X163583333Y-114857142D02*
X163535714Y-114904761D01*
X163392857Y-114952380D01*
X163297619Y-114952380D01*
X163154761Y-114904761D01*
X163059523Y-114809523D01*
X163011904Y-114714285D01*
X162964285Y-114523809D01*
X162964285Y-114380952D01*
X163011904Y-114190476D01*
X163059523Y-114095238D01*
X163154761Y-114000000D01*
X163297619Y-113952380D01*
X163392857Y-113952380D01*
X163535714Y-114000000D01*
X163583333Y-114047619D01*
X164059523Y-114952380D02*
X164250000Y-114952380D01*
X164345238Y-114904761D01*
X164392857Y-114857142D01*
X164488095Y-114714285D01*
X164535714Y-114523809D01*
X164535714Y-114142857D01*
X164488095Y-114047619D01*
X164440476Y-114000000D01*
X164345238Y-113952380D01*
X164154761Y-113952380D01*
X164059523Y-114000000D01*
X164011904Y-114047619D01*
X163964285Y-114142857D01*
X163964285Y-114380952D01*
X164011904Y-114476190D01*
X164059523Y-114523809D01*
X164154761Y-114571428D01*
X164345238Y-114571428D01*
X164440476Y-114523809D01*
X164488095Y-114476190D01*
X164535714Y-114380952D01*
%TO.C,IC1*%
X120023809Y-118202380D02*
X120023809Y-117202380D01*
X121071428Y-118107142D02*
X121023809Y-118154761D01*
X120880952Y-118202380D01*
X120785714Y-118202380D01*
X120642857Y-118154761D01*
X120547619Y-118059523D01*
X120500000Y-117964285D01*
X120452380Y-117773809D01*
X120452380Y-117630952D01*
X120500000Y-117440476D01*
X120547619Y-117345238D01*
X120642857Y-117250000D01*
X120785714Y-117202380D01*
X120880952Y-117202380D01*
X121023809Y-117250000D01*
X121071428Y-117297619D01*
X122023809Y-118202380D02*
X121452380Y-118202380D01*
X121738095Y-118202380D02*
X121738095Y-117202380D01*
X121642857Y-117345238D01*
X121547619Y-117440476D01*
X121452380Y-117488095D01*
%TO.C,C11*%
X172607142Y-133607142D02*
X172559523Y-133654761D01*
X172416666Y-133702380D01*
X172321428Y-133702380D01*
X172178571Y-133654761D01*
X172083333Y-133559523D01*
X172035714Y-133464285D01*
X171988095Y-133273809D01*
X171988095Y-133130952D01*
X172035714Y-132940476D01*
X172083333Y-132845238D01*
X172178571Y-132750000D01*
X172321428Y-132702380D01*
X172416666Y-132702380D01*
X172559523Y-132750000D01*
X172607142Y-132797619D01*
X173559523Y-133702380D02*
X172988095Y-133702380D01*
X173273809Y-133702380D02*
X173273809Y-132702380D01*
X173178571Y-132845238D01*
X173083333Y-132940476D01*
X172988095Y-132988095D01*
X174511904Y-133702380D02*
X173940476Y-133702380D01*
X174226190Y-133702380D02*
X174226190Y-132702380D01*
X174130952Y-132845238D01*
X174035714Y-132940476D01*
X173940476Y-132988095D01*
%TO.C,U2*%
X124238095Y-149202380D02*
X124238095Y-150011904D01*
X124285714Y-150107142D01*
X124333333Y-150154761D01*
X124428571Y-150202380D01*
X124619047Y-150202380D01*
X124714285Y-150154761D01*
X124761904Y-150107142D01*
X124809523Y-150011904D01*
X124809523Y-149202380D01*
X125238095Y-149297619D02*
X125285714Y-149250000D01*
X125380952Y-149202380D01*
X125619047Y-149202380D01*
X125714285Y-149250000D01*
X125761904Y-149297619D01*
X125809523Y-149392857D01*
X125809523Y-149488095D01*
X125761904Y-149630952D01*
X125190476Y-150202380D01*
X125809523Y-150202380D01*
D12*
%TO.C,L3*%
X152147936Y-123110000D02*
X153352064Y-123110000D01*
X152147936Y-120390000D02*
X153352064Y-120390000D01*
%TO.C,L1*%
X145860000Y-125988748D02*
X145860000Y-126511252D01*
X143640000Y-125988748D02*
X143640000Y-126511252D01*
%TO.C,C5*%
X124160000Y-139961252D02*
X124160000Y-138538748D01*
X122340000Y-139961252D02*
X122340000Y-138538748D01*
%TO.C,R2*%
X172522936Y-115410000D02*
X173977064Y-115410000D01*
X172522936Y-113590000D02*
X173977064Y-113590000D01*
%TO.C,R3*%
X139615000Y-58772936D02*
X139615000Y-60227064D01*
X141435000Y-58772936D02*
X141435000Y-60227064D01*
D13*
%TO.C,IC2*%
X162665000Y-150140000D02*
G75*
G03*
X162665000Y-150140000I-125000J0D01*
G01*
D12*
%TO.C,C10*%
X168538748Y-130410000D02*
X169961252Y-130410000D01*
X168538748Y-128590000D02*
X169961252Y-128590000D01*
D14*
%TO.C,L4*%
X116000000Y-142750000D02*
X120000000Y-142750000D01*
X116000000Y-138750000D02*
X116000000Y-138930000D01*
X120000000Y-142750000D02*
X120000000Y-142570000D01*
X116000000Y-142750000D02*
X116000000Y-142570000D01*
X120000000Y-138750000D02*
X120000000Y-138930000D01*
X116000000Y-138750000D02*
X120000000Y-138750000D01*
D12*
%TO.C,L5*%
X166860000Y-118738748D02*
X166860000Y-119261252D01*
X164640000Y-118738748D02*
X164640000Y-119261252D01*
%TO.C,C16*%
X153090000Y-149711252D02*
X153090000Y-148288748D01*
X154910000Y-149711252D02*
X154910000Y-148288748D01*
D14*
%TO.C,U1*%
X157505000Y-118654000D02*
X157505000Y-121094000D01*
X157505000Y-118654000D02*
X158152500Y-118654000D01*
X157505000Y-121094000D02*
X157632500Y-121094000D01*
X162000000Y-121094000D02*
X162000000Y-118654000D01*
X162000000Y-118654000D02*
X161352500Y-118654000D01*
X161872500Y-121094000D02*
X162000000Y-121094000D01*
D12*
%TO.C,C18*%
X149090000Y-149711252D02*
X149090000Y-148288748D01*
X150910000Y-149711252D02*
X150910000Y-148288748D01*
%TO.C,C17*%
X130788748Y-114090000D02*
X132211252Y-114090000D01*
X130788748Y-115910000D02*
X132211252Y-115910000D01*
%TO.C,C14*%
X143090000Y-110711252D02*
X143090000Y-109288748D01*
X144910000Y-110711252D02*
X144910000Y-109288748D01*
%TO.C,C15*%
X130788748Y-119410000D02*
X132211252Y-119410000D01*
X130788748Y-117590000D02*
X132211252Y-117590000D01*
%TO.C,C19*%
X117038748Y-61090000D02*
X118461252Y-61090000D01*
X117038748Y-62910000D02*
X118461252Y-62910000D01*
D15*
%TO.C,U4*%
X121395000Y-59965000D02*
G75*
G03*
X121395000Y-59965000I-100000J0D01*
G01*
D14*
X124200000Y-59750000D02*
X131800000Y-59750000D01*
X124200000Y-70250000D02*
X131800000Y-70250000D01*
D12*
%TO.C,C4*%
X142038748Y-147410000D02*
X143461252Y-147410000D01*
X142038748Y-145590000D02*
X143461252Y-145590000D01*
%TO.C,C1*%
X145538748Y-122660000D02*
X146961252Y-122660000D01*
X145538748Y-120840000D02*
X146961252Y-120840000D01*
%TO.C,C20*%
X135865000Y-65788748D02*
X135865000Y-67211252D01*
X137685000Y-65788748D02*
X137685000Y-67211252D01*
%TO.C,C2*%
X133711252Y-139340000D02*
X132288748Y-139340000D01*
X133711252Y-141160000D02*
X132288748Y-141160000D01*
%TO.C,C6*%
X115711252Y-130840000D02*
X114288748Y-130840000D01*
X115711252Y-132660000D02*
X114288748Y-132660000D01*
%TO.C,C8*%
X166538748Y-111410000D02*
X167961252Y-111410000D01*
X166538748Y-109590000D02*
X167961252Y-109590000D01*
D14*
%TO.C,J1*%
X175700000Y-146500000D02*
X175700000Y-148500000D01*
X171500000Y-144300000D02*
X173500000Y-144300000D01*
X169300000Y-148500000D02*
X169300000Y-146500000D01*
X173500000Y-150700000D02*
X171500000Y-150700000D01*
D12*
%TO.C,R1*%
X136022936Y-147410000D02*
X137477064Y-147410000D01*
X136022936Y-145590000D02*
X137477064Y-145590000D01*
%TO.C,D1*%
X173920000Y-66091250D02*
X173764000Y-66091250D01*
X176236000Y-66091250D02*
X176080000Y-66091250D01*
X176079837Y-68692380D02*
G75*
G03*
X176080000Y-66610289I-1079837J1041130D01*
G01*
X173764484Y-66091250D02*
G75*
G03*
X173921392Y-69323585I1235516J-1560000D01*
G01*
X176078608Y-69323585D02*
G75*
G03*
X176235516Y-66091250I-1078608J1672335D01*
G01*
X173920000Y-66610289D02*
G75*
G03*
X173920163Y-68692380I1080000J-1040961D01*
G01*
%TO.C,C13*%
X147090000Y-110711252D02*
X147090000Y-109288748D01*
X148910000Y-110711252D02*
X148910000Y-109288748D01*
D15*
%TO.C,U3*%
X149665000Y-87365000D02*
G75*
G03*
X149665000Y-87365000I-100000J0D01*
G01*
D14*
X150500000Y-89500000D02*
X150500000Y-105500000D01*
X134500000Y-105500000D02*
X134500000Y-89500000D01*
D12*
%TO.C,L6*%
X166390000Y-124147936D02*
X166390000Y-125352064D01*
X169110000Y-124147936D02*
X169110000Y-125352064D01*
%TO.C,C12*%
X168660000Y-137038748D02*
X168660000Y-138461252D01*
X166840000Y-137038748D02*
X166840000Y-138461252D01*
%TO.C,R5*%
X175910000Y-62883314D02*
X175910000Y-61429186D01*
X174090000Y-62883314D02*
X174090000Y-61429186D01*
%TO.C,R4*%
X135865000Y-58772936D02*
X135865000Y-60227064D01*
X137685000Y-58772936D02*
X137685000Y-60227064D01*
D14*
%TO.C,BT1*%
X147625000Y-57600000D02*
X151475000Y-57600000D01*
X151475000Y-72400000D02*
X147625000Y-72400000D01*
X147625000Y-72400000D02*
X147625000Y-66550000D01*
X151475000Y-69925000D02*
X151475000Y-72400000D01*
X147625000Y-57600000D02*
X147625000Y-63450000D01*
X151475000Y-57600000D02*
X151475000Y-60025000D01*
X164200001Y-63475001D02*
G75*
G03*
X151475000Y-60025000I-7236697J-1499390D01*
G01*
X151475000Y-69975000D02*
G75*
G03*
X164200001Y-66524999I5488304J4949391D01*
G01*
D12*
%TO.C,L2*%
X132535000Y-145238748D02*
X132535000Y-145761252D01*
X130315000Y-145238748D02*
X130315000Y-145761252D01*
%TO.C,C3*%
X150340000Y-125788748D02*
X150340000Y-127211252D01*
X152160000Y-125788748D02*
X152160000Y-127211252D01*
%TO.C,C7*%
X115711252Y-134840000D02*
X114288748Y-134840000D01*
X115711252Y-136660000D02*
X114288748Y-136660000D01*
%TO.C,C9*%
X166538748Y-113590000D02*
X167961252Y-113590000D01*
X166538748Y-115410000D02*
X167961252Y-115410000D01*
D13*
%TO.C,IC1*%
X122585000Y-117365000D02*
G75*
G03*
X122585000Y-117365000I-125000J0D01*
G01*
D12*
%TO.C,C11*%
X168538748Y-132340000D02*
X169961252Y-132340000D01*
X168538748Y-134160000D02*
X169961252Y-134160000D01*
D16*
%TO.C,U2*%
X123603000Y-148159000D02*
X122714000Y-148159000D01*
X127311400Y-148184400D02*
X126397000Y-148184400D01*
X127311400Y-145746000D02*
X126397000Y-145746000D01*
X122714000Y-145720600D02*
X123628400Y-145720600D01*
X122714000Y-148159000D02*
X122714000Y-145720600D01*
X127311400Y-148184400D02*
X127311400Y-145746000D01*
%TD*%
M02*
