%TF.GenerationSoftware,KiCad,Pcbnew,(6.0.7)*%
%TF.CreationDate,2022-12-07T20:31:12-06:00*%
%TF.ProjectId,Narwal_v1,4e617277-616c-45f7-9631-2e6b69636164,1*%
%TF.SameCoordinates,Original*%
%TF.FileFunction,Soldermask,Bot*%
%TF.FilePolarity,Negative*%
%FSLAX46Y46*%
G04 Gerber Fmt 4.6, Leading zero omitted, Abs format (unit mm)*
G04 Created by KiCad (PCBNEW (6.0.7)) date 2022-12-07 20:31:12*
%MOMM*%
%LPD*%
G01*
G04 APERTURE LIST*
%ADD10C,1.800000*%
%ADD11R,1.800000X1.800000*%
%ADD12C,2.775000*%
%ADD13R,2.775000X2.775000*%
%ADD14C,5.000000*%
%ADD15C,1.524000*%
%ADD16R,1.524000X1.524000*%
%ADD17C,1.920000*%
%ADD18C,1.508000*%
%ADD19R,4.500000X2.300000*%
%ADD20C,0.800000*%
G04 APERTURE END LIST*
D10*
X172500000Y-65040000D03*
D11*
X172500000Y-62500000D03*
D12*
X156500000Y-93000000D03*
D13*
X161200000Y-93000000D03*
D12*
X151800000Y-93000000D03*
D14*
X103500000Y-146500000D03*
X181500000Y-146500000D03*
X181500000Y-53500000D03*
X103500000Y-53500000D03*
D15*
X156630000Y-73730000D03*
X156630000Y-76270000D03*
X154090000Y-73730000D03*
X154090000Y-76270000D03*
X151550000Y-73730000D03*
X151550000Y-76270000D03*
X149010000Y-73730000D03*
X149010000Y-76270000D03*
X146470000Y-73730000D03*
X146470000Y-76270000D03*
X143930000Y-73730000D03*
X143930000Y-76270000D03*
X141390000Y-73730000D03*
X141390000Y-76270000D03*
X138850000Y-73730000D03*
X138850000Y-76270000D03*
X136310000Y-73730000D03*
X136310000Y-76270000D03*
X133770000Y-73730000D03*
X133770000Y-76270000D03*
X131230000Y-73730000D03*
X131230000Y-76270000D03*
X128690000Y-73730000D03*
X128690000Y-76270000D03*
X126150000Y-73730000D03*
X126150000Y-76270000D03*
X123610000Y-73730000D03*
X123610000Y-76270000D03*
X121070000Y-73730000D03*
X121070000Y-76270000D03*
X118530000Y-73730000D03*
X118530000Y-76270000D03*
X115990000Y-73730000D03*
X115990000Y-76270000D03*
X113450000Y-73730000D03*
X113450000Y-76270000D03*
X110910000Y-73730000D03*
X110910000Y-76270000D03*
X108370000Y-73730000D03*
D16*
X108370000Y-76270000D03*
D17*
X172400000Y-142600000D03*
X172400000Y-147400000D03*
X167600000Y-147400000D03*
X167600000Y-142600000D03*
D18*
X170000000Y-145000000D03*
D19*
X135975000Y-61500000D03*
X119575000Y-61500000D03*
D20*
X172500000Y-79500000D03*
X172500000Y-80750000D03*
X172500000Y-82000000D03*
X146500000Y-100000000D03*
X146500000Y-103000000D03*
X128250000Y-111000000D03*
X158250000Y-79250000D03*
X157000000Y-141000000D03*
X141250000Y-135750000D03*
X128000000Y-121000000D03*
X125500000Y-104500000D03*
X124000000Y-106500000D03*
X158500000Y-131500000D03*
X160000000Y-137250000D03*
X163500000Y-137250000D03*
X126500000Y-117500000D03*
X159500000Y-127250000D03*
X134250000Y-113000000D03*
X164250000Y-145750000D03*
X140250000Y-137250000D03*
X166250000Y-144250000D03*
X168500000Y-113000000D03*
X130250000Y-125750000D03*
X131250000Y-114500000D03*
X168250000Y-130750000D03*
X122000000Y-113000000D03*
X148000000Y-132250000D03*
X159500000Y-112000000D03*
X148750000Y-127000000D03*
X167000000Y-132500000D03*
X159250000Y-141000000D03*
X124000000Y-109500000D03*
X139250000Y-113000000D03*
X124000000Y-108500000D03*
X154250000Y-137250000D03*
X136750000Y-125500000D03*
X152750000Y-125500000D03*
X137250000Y-113000000D03*
X123000000Y-99750000D03*
X154750000Y-125500000D03*
X155750000Y-115000000D03*
X149500000Y-115000000D03*
X134750000Y-127000000D03*
X165250000Y-145750000D03*
X147750000Y-127000000D03*
X160000000Y-129500000D03*
X166750000Y-126250000D03*
X159500000Y-111000000D03*
X155750000Y-127000000D03*
X122500000Y-119500000D03*
X161250000Y-141250000D03*
X156750000Y-115000000D03*
X124000000Y-125500000D03*
X125000000Y-112500000D03*
X123000000Y-100750000D03*
X150250000Y-135750000D03*
X146250000Y-135750000D03*
X126500000Y-116500000D03*
X147750000Y-125500000D03*
X123000000Y-101750000D03*
X129250000Y-114500000D03*
X168500000Y-116000000D03*
X125000000Y-115500000D03*
X147250000Y-137250000D03*
X138750000Y-127000000D03*
X153750000Y-127000000D03*
X125500000Y-109500000D03*
X142250000Y-135750000D03*
X129250000Y-113000000D03*
X145250000Y-135750000D03*
X127750000Y-135750000D03*
X149500000Y-113500000D03*
X163000000Y-134250000D03*
X128750000Y-137500000D03*
X125500000Y-139250000D03*
X130250000Y-113000000D03*
X141250000Y-113000000D03*
X148750000Y-125500000D03*
X165250000Y-144250000D03*
X127250000Y-120250000D03*
X125750000Y-111750000D03*
X122500000Y-124500000D03*
X121750000Y-128250000D03*
X148250000Y-137250000D03*
X124500000Y-140250000D03*
X144750000Y-127000000D03*
X151750000Y-125500000D03*
X125000000Y-116500000D03*
X124000000Y-116500000D03*
X150750000Y-127000000D03*
X124000000Y-121500000D03*
X128750000Y-135750000D03*
X153750000Y-125500000D03*
X124000000Y-123500000D03*
X161000000Y-131000000D03*
X124000000Y-105500000D03*
X154250000Y-135750000D03*
X153250000Y-135750000D03*
X136250000Y-113000000D03*
X164250000Y-115500000D03*
X148250000Y-135750000D03*
X158750000Y-126500000D03*
X141750000Y-125500000D03*
X166250000Y-116000000D03*
X142250000Y-113000000D03*
X166750000Y-127250000D03*
X122500000Y-126500000D03*
X124000000Y-126500000D03*
X124250000Y-134000000D03*
X149250000Y-137250000D03*
X160250000Y-142750000D03*
X137750000Y-127000000D03*
X128000000Y-123500000D03*
X168000000Y-114000000D03*
X140250000Y-135750000D03*
X142750000Y-125500000D03*
X156750000Y-125500000D03*
X163500000Y-143500000D03*
X136750000Y-127000000D03*
X127250000Y-122750000D03*
X156250000Y-137250000D03*
X163250000Y-145750000D03*
X135250000Y-113000000D03*
X122750000Y-134000000D03*
X168250000Y-122750000D03*
X132250000Y-114500000D03*
X153250000Y-137250000D03*
X156750000Y-113500000D03*
X156250000Y-135750000D03*
X124000000Y-120500000D03*
X163000000Y-140250000D03*
X122500000Y-115000000D03*
X147250000Y-135750000D03*
X151250000Y-137250000D03*
X146250000Y-137250000D03*
X168250000Y-126250000D03*
X122750000Y-135000000D03*
X158000000Y-125750000D03*
X136250000Y-137250000D03*
X141250000Y-137250000D03*
X122500000Y-125500000D03*
X125000000Y-120500000D03*
X140750000Y-125500000D03*
X139250000Y-114500000D03*
X127500000Y-115000000D03*
X143250000Y-114500000D03*
X143250000Y-135750000D03*
X135250000Y-114500000D03*
X145750000Y-125500000D03*
X125000000Y-138250000D03*
X144250000Y-137250000D03*
X137250000Y-114500000D03*
X162500000Y-145000000D03*
X152250000Y-135750000D03*
X158500000Y-129500000D03*
X158250000Y-128500000D03*
X125500000Y-105500000D03*
X163250000Y-115500000D03*
X123000000Y-102750000D03*
X138250000Y-114500000D03*
X160000000Y-128250000D03*
X161500000Y-144750000D03*
X125000000Y-119500000D03*
X125750000Y-113250000D03*
X159250000Y-136500000D03*
X166750000Y-121750000D03*
X140250000Y-114500000D03*
X126500000Y-119500000D03*
X135750000Y-125500000D03*
X125500000Y-108500000D03*
X165250000Y-113500000D03*
X145250000Y-137250000D03*
X132500000Y-125500000D03*
X124000000Y-104500000D03*
X134750000Y-125500000D03*
X125750000Y-121250000D03*
X157500000Y-127750000D03*
X125500000Y-140250000D03*
X131750000Y-124750000D03*
X160000000Y-131500000D03*
X145750000Y-127000000D03*
X142250000Y-114500000D03*
X160500000Y-111000000D03*
X166250000Y-113000000D03*
X168250000Y-121750000D03*
X155750000Y-113500000D03*
X143250000Y-137250000D03*
X126500000Y-118500000D03*
X132825000Y-127000000D03*
X138250000Y-137250000D03*
X155250000Y-137250000D03*
X125500000Y-107500000D03*
X164250000Y-144250000D03*
X124000000Y-124500000D03*
X128250000Y-114500000D03*
X122500000Y-120500000D03*
X151250000Y-135750000D03*
X122500000Y-122500000D03*
X158500000Y-130500000D03*
X124000000Y-107500000D03*
X155750000Y-125500000D03*
X140750000Y-127000000D03*
X124750000Y-128250000D03*
X157000000Y-134250000D03*
X146750000Y-127000000D03*
X134250000Y-114500000D03*
X122500000Y-127500000D03*
X124000000Y-127500000D03*
X137250000Y-135750000D03*
X160000000Y-113000000D03*
X131900000Y-127000000D03*
X130250000Y-114500000D03*
X168000000Y-115000000D03*
X128750000Y-121750000D03*
X131250000Y-113000000D03*
X133750000Y-125500000D03*
X133250000Y-113000000D03*
X142750000Y-127000000D03*
X122500000Y-116500000D03*
X146750000Y-125500000D03*
X122000000Y-112000000D03*
X144250000Y-135750000D03*
X126500000Y-122000000D03*
X137750000Y-125500000D03*
X122500000Y-118500000D03*
X159500000Y-142000000D03*
X136250000Y-114500000D03*
X152250000Y-137250000D03*
X126500000Y-103500000D03*
X126500000Y-115500000D03*
X129750000Y-135750000D03*
X124000000Y-117500000D03*
X129750000Y-137500000D03*
X122500000Y-121500000D03*
X124000000Y-118500000D03*
X165250000Y-115500000D03*
X141750000Y-127000000D03*
X130250000Y-123250000D03*
X149750000Y-127000000D03*
X125500000Y-106500000D03*
X129500000Y-125000000D03*
X158500000Y-132500000D03*
X159250000Y-138000000D03*
X133750000Y-127000000D03*
X122500000Y-123500000D03*
X127750000Y-137500000D03*
X161500000Y-133500000D03*
X151750000Y-127000000D03*
X168000000Y-131750000D03*
X124000000Y-122500000D03*
X139250000Y-135750000D03*
X160750000Y-138000000D03*
X140250000Y-113000000D03*
X160750000Y-136500000D03*
X131000000Y-124000000D03*
X162000000Y-142000000D03*
X164250000Y-113500000D03*
X135750000Y-127000000D03*
X139750000Y-127000000D03*
X163250000Y-113500000D03*
X128750000Y-124250000D03*
X138750000Y-125500000D03*
X143250000Y-113000000D03*
X155250000Y-135750000D03*
X158500000Y-133500000D03*
X139250000Y-137250000D03*
X149250000Y-135750000D03*
X143750000Y-127000000D03*
X124250000Y-113250000D03*
X125000000Y-117500000D03*
X152750000Y-127000000D03*
X166750000Y-122750000D03*
X166500000Y-130500000D03*
X160500000Y-112000000D03*
X166250000Y-145750000D03*
X133250000Y-114500000D03*
X132250000Y-113000000D03*
X124250000Y-111750000D03*
X124000000Y-119500000D03*
X168250000Y-127250000D03*
X149750000Y-125500000D03*
X143750000Y-125500000D03*
X156750000Y-127000000D03*
X124000000Y-103500000D03*
X150750000Y-125500000D03*
X125500000Y-103500000D03*
X154750000Y-127000000D03*
X142250000Y-137250000D03*
X141250000Y-114500000D03*
X136250000Y-135750000D03*
X139750000Y-125500000D03*
X160000000Y-132500000D03*
X125000000Y-118500000D03*
X160000000Y-133500000D03*
X137250000Y-137250000D03*
X144750000Y-125500000D03*
X129500000Y-122500000D03*
X150250000Y-137250000D03*
X138250000Y-113000000D03*
X160000000Y-130500000D03*
X131000000Y-126500000D03*
X124250000Y-135000000D03*
X138250000Y-135750000D03*
X124500000Y-139250000D03*
X122500000Y-117500000D03*
X127000000Y-108500000D03*
X158000000Y-141000000D03*
X133000000Y-97500000D03*
X121500000Y-97500000D03*
X119250000Y-56500000D03*
X116500000Y-125500000D03*
X130000000Y-105500000D03*
X118000000Y-127500000D03*
X172500000Y-67500000D03*
X147500000Y-139000000D03*
X142500000Y-57500000D03*
X138500000Y-57000000D03*
X114750000Y-68250000D03*
X133000000Y-79500000D03*
X132000000Y-81500000D03*
X136775000Y-59500000D03*
X130000000Y-87500000D03*
M02*
