%TF.GenerationSoftware,KiCad,Pcbnew,(6.0.7)*%
%TF.CreationDate,2022-12-06T03:31:19-06:00*%
%TF.ProjectId,Narwal_v1,4e617277-616c-45f7-9631-2e6b69636164,1*%
%TF.SameCoordinates,Original*%
%TF.FileFunction,Legend,Bot*%
%TF.FilePolarity,Positive*%
%FSLAX46Y46*%
G04 Gerber Fmt 4.6, Leading zero omitted, Abs format (unit mm)*
G04 Created by KiCad (PCBNEW (6.0.7)) date 2022-12-06 03:31:19*
%MOMM*%
%LPD*%
G01*
G04 APERTURE LIST*
%ADD10C,0.150000*%
%TA.AperFunction,Profile*%
%ADD11C,0.100000*%
%TD*%
%ADD12C,0.200000*%
%TA.AperFunction,Profile*%
%ADD13C,0.120000*%
%TD*%
%ADD14C,0.127000*%
G04 APERTURE END LIST*
D10*
X117500000Y-82500000D02*
X107500000Y-82500000D01*
X107500000Y-82500000D02*
X107500000Y-92500000D01*
X107500000Y-92500000D02*
X117500000Y-92500000D01*
X117500000Y-92500000D02*
X117500000Y-82500000D01*
G36*
X117500000Y-82500000D02*
G01*
X107500000Y-82500000D01*
X107500000Y-92500000D01*
X117500000Y-92500000D01*
X117500000Y-82500000D01*
G37*
D11*
X100000000Y-50000000D02*
X185000000Y-50000000D01*
X185000000Y-50000000D02*
X185000000Y-150000000D01*
X185000000Y-150000000D02*
X100000000Y-150000000D01*
X100000000Y-150000000D02*
X100000000Y-50000000D01*
D12*
X142368095Y-145925500D02*
X141891904Y-145925500D01*
X142463333Y-146182642D02*
X142130000Y-145282642D01*
X141796666Y-146182642D01*
X141034761Y-146182642D02*
X141034761Y-145282642D01*
X141034761Y-146139785D02*
X141130000Y-146182642D01*
X141320476Y-146182642D01*
X141415714Y-146139785D01*
X141463333Y-146096928D01*
X141510952Y-146011214D01*
X141510952Y-145754071D01*
X141463333Y-145668357D01*
X141415714Y-145625500D01*
X141320476Y-145582642D01*
X141130000Y-145582642D01*
X141034761Y-145625500D01*
X140130000Y-146182642D02*
X140130000Y-145711214D01*
X140177619Y-145625500D01*
X140272857Y-145582642D01*
X140463333Y-145582642D01*
X140558571Y-145625500D01*
X140130000Y-146139785D02*
X140225238Y-146182642D01*
X140463333Y-146182642D01*
X140558571Y-146139785D01*
X140606190Y-146054071D01*
X140606190Y-145968357D01*
X140558571Y-145882642D01*
X140463333Y-145839785D01*
X140225238Y-145839785D01*
X140130000Y-145796928D01*
X139653809Y-146182642D02*
X139653809Y-145582642D01*
X139653809Y-145668357D02*
X139606190Y-145625500D01*
X139510952Y-145582642D01*
X139368095Y-145582642D01*
X139272857Y-145625500D01*
X139225238Y-145711214D01*
X139225238Y-146182642D01*
X139225238Y-145711214D02*
X139177619Y-145625500D01*
X139082380Y-145582642D01*
X138939523Y-145582642D01*
X138844285Y-145625500D01*
X138796666Y-145711214D01*
X138796666Y-146182642D01*
X137606190Y-146139785D02*
X137463333Y-146182642D01*
X137225238Y-146182642D01*
X137130000Y-146139785D01*
X137082380Y-146096928D01*
X137034761Y-146011214D01*
X137034761Y-145925500D01*
X137082380Y-145839785D01*
X137130000Y-145796928D01*
X137225238Y-145754071D01*
X137415714Y-145711214D01*
X137510952Y-145668357D01*
X137558571Y-145625500D01*
X137606190Y-145539785D01*
X137606190Y-145454071D01*
X137558571Y-145368357D01*
X137510952Y-145325500D01*
X137415714Y-145282642D01*
X137177619Y-145282642D01*
X137034761Y-145325500D01*
X136558571Y-146139785D02*
X136558571Y-146182642D01*
X136606190Y-146268357D01*
X136653809Y-146311214D01*
X134796666Y-146096928D02*
X134844285Y-146139785D01*
X134987142Y-146182642D01*
X135082380Y-146182642D01*
X135225238Y-146139785D01*
X135320476Y-146054071D01*
X135368095Y-145968357D01*
X135415714Y-145796928D01*
X135415714Y-145668357D01*
X135368095Y-145496928D01*
X135320476Y-145411214D01*
X135225238Y-145325500D01*
X135082380Y-145282642D01*
X134987142Y-145282642D01*
X134844285Y-145325500D01*
X134796666Y-145368357D01*
X133939523Y-146182642D02*
X133939523Y-145711214D01*
X133987142Y-145625500D01*
X134082380Y-145582642D01*
X134272857Y-145582642D01*
X134368095Y-145625500D01*
X133939523Y-146139785D02*
X134034761Y-146182642D01*
X134272857Y-146182642D01*
X134368095Y-146139785D01*
X134415714Y-146054071D01*
X134415714Y-145968357D01*
X134368095Y-145882642D01*
X134272857Y-145839785D01*
X134034761Y-145839785D01*
X133939523Y-145796928D01*
X133463333Y-146182642D02*
X133463333Y-145582642D01*
X133463333Y-145754071D02*
X133415714Y-145668357D01*
X133368095Y-145625500D01*
X133272857Y-145582642D01*
X133177619Y-145582642D01*
X132987142Y-145582642D02*
X132606190Y-145582642D01*
X132844285Y-145282642D02*
X132844285Y-146054071D01*
X132796666Y-146139785D01*
X132701428Y-146182642D01*
X132606190Y-146182642D01*
X131891904Y-146139785D02*
X131987142Y-146182642D01*
X132177619Y-146182642D01*
X132272857Y-146139785D01*
X132320476Y-146054071D01*
X132320476Y-145711214D01*
X132272857Y-145625500D01*
X132177619Y-145582642D01*
X131987142Y-145582642D01*
X131891904Y-145625500D01*
X131844285Y-145711214D01*
X131844285Y-145796928D01*
X132320476Y-145882642D01*
X131415714Y-146182642D02*
X131415714Y-145582642D01*
X131415714Y-145754071D02*
X131368095Y-145668357D01*
X131320476Y-145625500D01*
X131225238Y-145582642D01*
X131130000Y-145582642D01*
X129749047Y-145282642D02*
X129749047Y-145925500D01*
X129796666Y-146054071D01*
X129891904Y-146139785D01*
X130034761Y-146182642D01*
X130130000Y-146182642D01*
X129225238Y-146139785D02*
X129225238Y-146182642D01*
X129272857Y-146268357D01*
X129320476Y-146311214D01*
X128034761Y-145711214D02*
X127701428Y-145711214D01*
X127558571Y-146182642D02*
X128034761Y-146182642D01*
X128034761Y-145282642D01*
X127558571Y-145282642D01*
X126987142Y-146182642D02*
X127082380Y-146139785D01*
X127130000Y-146054071D01*
X127130000Y-145282642D01*
X126177619Y-146182642D02*
X126177619Y-145711214D01*
X126225238Y-145625500D01*
X126320476Y-145582642D01*
X126510952Y-145582642D01*
X126606190Y-145625500D01*
X126177619Y-146139785D02*
X126272857Y-146182642D01*
X126510952Y-146182642D01*
X126606190Y-146139785D01*
X126653809Y-146054071D01*
X126653809Y-145968357D01*
X126606190Y-145882642D01*
X126510952Y-145839785D01*
X126272857Y-145839785D01*
X126177619Y-145796928D01*
X125701428Y-146182642D02*
X125701428Y-145582642D01*
X125701428Y-145282642D02*
X125749047Y-145325500D01*
X125701428Y-145368357D01*
X125653809Y-145325500D01*
X125701428Y-145282642D01*
X125701428Y-145368357D01*
X125225238Y-145582642D02*
X125225238Y-146182642D01*
X125225238Y-145668357D02*
X125177619Y-145625500D01*
X125082380Y-145582642D01*
X124939523Y-145582642D01*
X124844285Y-145625500D01*
X124796666Y-145711214D01*
X124796666Y-146182642D01*
X123939523Y-146139785D02*
X124034761Y-146182642D01*
X124225238Y-146182642D01*
X124320476Y-146139785D01*
X124368095Y-146054071D01*
X124368095Y-145711214D01*
X124320476Y-145625500D01*
X124225238Y-145582642D01*
X124034761Y-145582642D01*
X123939523Y-145625500D01*
X123891904Y-145711214D01*
X123891904Y-145796928D01*
X124368095Y-145882642D01*
X122130000Y-146182642D02*
X122463333Y-145754071D01*
X122701428Y-146182642D02*
X122701428Y-145282642D01*
X122320476Y-145282642D01*
X122225238Y-145325500D01*
X122177619Y-145368357D01*
X122130000Y-145454071D01*
X122130000Y-145582642D01*
X122177619Y-145668357D01*
X122225238Y-145711214D01*
X122320476Y-145754071D01*
X122701428Y-145754071D01*
X121653809Y-146139785D02*
X121653809Y-146182642D01*
X121701428Y-146268357D01*
X121749047Y-146311214D01*
X120463333Y-145711214D02*
X120130000Y-145711214D01*
X119987142Y-146182642D02*
X120463333Y-146182642D01*
X120463333Y-145282642D01*
X119987142Y-145282642D01*
X119558571Y-146182642D02*
X119558571Y-145582642D01*
X119558571Y-145668357D02*
X119510952Y-145625500D01*
X119415714Y-145582642D01*
X119272857Y-145582642D01*
X119177619Y-145625500D01*
X119130000Y-145711214D01*
X119130000Y-146182642D01*
X119130000Y-145711214D02*
X119082380Y-145625500D01*
X118987142Y-145582642D01*
X118844285Y-145582642D01*
X118749047Y-145625500D01*
X118701428Y-145711214D01*
X118701428Y-146182642D01*
X118225238Y-146182642D02*
X118225238Y-145582642D01*
X118225238Y-145282642D02*
X118272857Y-145325500D01*
X118225238Y-145368357D01*
X118177619Y-145325500D01*
X118225238Y-145282642D01*
X118225238Y-145368357D01*
X117606190Y-146182642D02*
X117701428Y-146139785D01*
X117749047Y-146054071D01*
X117749047Y-145282642D01*
X117320476Y-145582642D02*
X117082380Y-146182642D01*
X116844285Y-145582642D02*
X117082380Y-146182642D01*
X117177619Y-146396928D01*
X117225238Y-146439785D01*
X117320476Y-146482642D01*
X115701428Y-146182642D02*
X115701428Y-145282642D01*
X115368095Y-145925500D01*
X115034761Y-145282642D01*
X115034761Y-146182642D01*
X114510952Y-146139785D02*
X114510952Y-146182642D01*
X114558571Y-146268357D01*
X114606190Y-146311214D01*
X113320476Y-146182642D02*
X113320476Y-145282642D01*
X113320476Y-145711214D02*
X112749047Y-145711214D01*
X112749047Y-146182642D02*
X112749047Y-145282642D01*
X111891904Y-146139785D02*
X111987142Y-146182642D01*
X112177619Y-146182642D01*
X112272857Y-146139785D01*
X112320476Y-146054071D01*
X112320476Y-145711214D01*
X112272857Y-145625500D01*
X112177619Y-145582642D01*
X111987142Y-145582642D01*
X111891904Y-145625500D01*
X111844285Y-145711214D01*
X111844285Y-145796928D01*
X112320476Y-145882642D01*
X111415714Y-145582642D02*
X111415714Y-146182642D01*
X111415714Y-145668357D02*
X111368095Y-145625500D01*
X111272857Y-145582642D01*
X111130000Y-145582642D01*
X111034761Y-145625500D01*
X110987142Y-145711214D01*
X110987142Y-146182642D01*
X110510952Y-146182642D02*
X110510952Y-145582642D01*
X110510952Y-145754071D02*
X110463333Y-145668357D01*
X110415714Y-145625500D01*
X110320476Y-145582642D01*
X110225238Y-145582642D01*
X109987142Y-145582642D02*
X109749047Y-146182642D01*
X109510952Y-145582642D02*
X109749047Y-146182642D01*
X109844285Y-146396928D01*
X109891904Y-146439785D01*
X109987142Y-146482642D01*
X108368095Y-146182642D02*
X108368095Y-145282642D01*
X107987142Y-145282642D01*
X107891904Y-145325500D01*
X107844285Y-145368357D01*
X107796666Y-145454071D01*
X107796666Y-145582642D01*
X107844285Y-145668357D01*
X107891904Y-145711214D01*
X107987142Y-145754071D01*
X108368095Y-145754071D01*
X107320476Y-146139785D02*
X107320476Y-146182642D01*
X107368095Y-146268357D01*
X107415714Y-146311214D01*
X140606190Y-146731642D02*
X140606190Y-147374500D01*
X140653809Y-147503071D01*
X140749047Y-147588785D01*
X140891904Y-147631642D01*
X140987142Y-147631642D01*
X139987142Y-147631642D02*
X140082380Y-147588785D01*
X140130000Y-147545928D01*
X140177619Y-147460214D01*
X140177619Y-147203071D01*
X140130000Y-147117357D01*
X140082380Y-147074500D01*
X139987142Y-147031642D01*
X139844285Y-147031642D01*
X139749047Y-147074500D01*
X139701428Y-147117357D01*
X139653809Y-147203071D01*
X139653809Y-147460214D01*
X139701428Y-147545928D01*
X139749047Y-147588785D01*
X139844285Y-147631642D01*
X139987142Y-147631642D01*
X139225238Y-147031642D02*
X139225238Y-147631642D01*
X139225238Y-147117357D02*
X139177619Y-147074500D01*
X139082380Y-147031642D01*
X138939523Y-147031642D01*
X138844285Y-147074500D01*
X138796666Y-147160214D01*
X138796666Y-147631642D01*
X137891904Y-147631642D02*
X137891904Y-147160214D01*
X137939523Y-147074500D01*
X138034761Y-147031642D01*
X138225238Y-147031642D01*
X138320476Y-147074500D01*
X137891904Y-147588785D02*
X137987142Y-147631642D01*
X138225238Y-147631642D01*
X138320476Y-147588785D01*
X138368095Y-147503071D01*
X138368095Y-147417357D01*
X138320476Y-147331642D01*
X138225238Y-147288785D01*
X137987142Y-147288785D01*
X137891904Y-147245928D01*
X137558571Y-147031642D02*
X137177619Y-147031642D01*
X137415714Y-146731642D02*
X137415714Y-147503071D01*
X137368095Y-147588785D01*
X137272857Y-147631642D01*
X137177619Y-147631642D01*
X136844285Y-147631642D02*
X136844285Y-146731642D01*
X136415714Y-147631642D02*
X136415714Y-147160214D01*
X136463333Y-147074500D01*
X136558571Y-147031642D01*
X136701428Y-147031642D01*
X136796666Y-147074500D01*
X136844285Y-147117357D01*
X135510952Y-147631642D02*
X135510952Y-147160214D01*
X135558571Y-147074500D01*
X135653809Y-147031642D01*
X135844285Y-147031642D01*
X135939523Y-147074500D01*
X135510952Y-147588785D02*
X135606190Y-147631642D01*
X135844285Y-147631642D01*
X135939523Y-147588785D01*
X135987142Y-147503071D01*
X135987142Y-147417357D01*
X135939523Y-147331642D01*
X135844285Y-147288785D01*
X135606190Y-147288785D01*
X135510952Y-147245928D01*
X135034761Y-147031642D02*
X135034761Y-147631642D01*
X135034761Y-147117357D02*
X134987142Y-147074500D01*
X134891904Y-147031642D01*
X134749047Y-147031642D01*
X134653809Y-147074500D01*
X134606190Y-147160214D01*
X134606190Y-147631642D01*
X133415714Y-147374500D02*
X132939523Y-147374500D01*
X133510952Y-147631642D02*
X133177619Y-146731642D01*
X132844285Y-147631642D01*
X132463333Y-147588785D02*
X132463333Y-147631642D01*
X132510952Y-147717357D01*
X132558571Y-147760214D01*
X131272857Y-147631642D02*
X131272857Y-146731642D01*
X130939523Y-147374500D01*
X130606190Y-146731642D01*
X130606190Y-147631642D01*
X129701428Y-147631642D02*
X129701428Y-147160214D01*
X129749047Y-147074500D01*
X129844285Y-147031642D01*
X130034761Y-147031642D01*
X130130000Y-147074500D01*
X129701428Y-147588785D02*
X129796666Y-147631642D01*
X130034761Y-147631642D01*
X130130000Y-147588785D01*
X130177619Y-147503071D01*
X130177619Y-147417357D01*
X130130000Y-147331642D01*
X130034761Y-147288785D01*
X129796666Y-147288785D01*
X129701428Y-147245928D01*
X129320476Y-147031642D02*
X129082380Y-147631642D01*
X128844285Y-147031642D02*
X129082380Y-147631642D01*
X129177619Y-147845928D01*
X129225238Y-147888785D01*
X129320476Y-147931642D01*
X128034761Y-147631642D02*
X128034761Y-147160214D01*
X128082380Y-147074500D01*
X128177619Y-147031642D01*
X128368095Y-147031642D01*
X128463333Y-147074500D01*
X128034761Y-147588785D02*
X128130000Y-147631642D01*
X128368095Y-147631642D01*
X128463333Y-147588785D01*
X128510952Y-147503071D01*
X128510952Y-147417357D01*
X128463333Y-147331642D01*
X128368095Y-147288785D01*
X128130000Y-147288785D01*
X128034761Y-147245928D01*
X126463333Y-147160214D02*
X126320476Y-147203071D01*
X126272857Y-147245928D01*
X126225238Y-147331642D01*
X126225238Y-147460214D01*
X126272857Y-147545928D01*
X126320476Y-147588785D01*
X126415714Y-147631642D01*
X126796666Y-147631642D01*
X126796666Y-146731642D01*
X126463333Y-146731642D01*
X126368095Y-146774500D01*
X126320476Y-146817357D01*
X126272857Y-146903071D01*
X126272857Y-146988785D01*
X126320476Y-147074500D01*
X126368095Y-147117357D01*
X126463333Y-147160214D01*
X126796666Y-147160214D01*
X125749047Y-147588785D02*
X125749047Y-147631642D01*
X125796666Y-147717357D01*
X125844285Y-147760214D01*
X124558571Y-147631642D02*
X124558571Y-146731642D01*
X124225238Y-147374500D01*
X123891904Y-146731642D01*
X123891904Y-147631642D01*
X123415714Y-147631642D02*
X123415714Y-147031642D01*
X123415714Y-146731642D02*
X123463333Y-146774500D01*
X123415714Y-146817357D01*
X123368095Y-146774500D01*
X123415714Y-146731642D01*
X123415714Y-146817357D01*
X123082380Y-147031642D02*
X122701428Y-147031642D01*
X122939523Y-146731642D02*
X122939523Y-147503071D01*
X122891904Y-147588785D01*
X122796666Y-147631642D01*
X122701428Y-147631642D01*
X121939523Y-147588785D02*
X122034761Y-147631642D01*
X122225238Y-147631642D01*
X122320476Y-147588785D01*
X122368095Y-147545928D01*
X122415714Y-147460214D01*
X122415714Y-147203071D01*
X122368095Y-147117357D01*
X122320476Y-147074500D01*
X122225238Y-147031642D01*
X122034761Y-147031642D01*
X121939523Y-147074500D01*
X121510952Y-147631642D02*
X121510952Y-146731642D01*
X121082380Y-147631642D02*
X121082380Y-147160214D01*
X121130000Y-147074500D01*
X121225238Y-147031642D01*
X121368095Y-147031642D01*
X121463333Y-147074500D01*
X121510952Y-147117357D01*
X120225238Y-147588785D02*
X120320476Y-147631642D01*
X120510952Y-147631642D01*
X120606190Y-147588785D01*
X120653809Y-147503071D01*
X120653809Y-147160214D01*
X120606190Y-147074500D01*
X120510952Y-147031642D01*
X120320476Y-147031642D01*
X120225238Y-147074500D01*
X120177619Y-147160214D01*
X120177619Y-147245928D01*
X120653809Y-147331642D01*
X119606190Y-147631642D02*
X119701428Y-147588785D01*
X119749047Y-147503071D01*
X119749047Y-146731642D01*
X119082380Y-147631642D02*
X119177619Y-147588785D01*
X119225238Y-147503071D01*
X119225238Y-146731642D01*
X117939523Y-147631642D02*
X117939523Y-146731642D01*
X117939523Y-147160214D02*
X117368095Y-147160214D01*
X117368095Y-147631642D02*
X117368095Y-146731642D01*
X116844285Y-147588785D02*
X116844285Y-147631642D01*
X116891904Y-147717357D01*
X116939523Y-147760214D01*
X115082380Y-147631642D02*
X115415714Y-147203071D01*
X115653809Y-147631642D02*
X115653809Y-146731642D01*
X115272857Y-146731642D01*
X115177619Y-146774500D01*
X115130000Y-146817357D01*
X115082380Y-146903071D01*
X115082380Y-147031642D01*
X115130000Y-147117357D01*
X115177619Y-147160214D01*
X115272857Y-147203071D01*
X115653809Y-147203071D01*
X114510952Y-147631642D02*
X114606190Y-147588785D01*
X114653809Y-147545928D01*
X114701428Y-147460214D01*
X114701428Y-147203071D01*
X114653809Y-147117357D01*
X114606190Y-147074500D01*
X114510952Y-147031642D01*
X114368095Y-147031642D01*
X114272857Y-147074500D01*
X114225238Y-147117357D01*
X114177619Y-147203071D01*
X114177619Y-147460214D01*
X114225238Y-147545928D01*
X114272857Y-147588785D01*
X114368095Y-147631642D01*
X114510952Y-147631642D01*
X113796666Y-147588785D02*
X113701428Y-147631642D01*
X113510952Y-147631642D01*
X113415714Y-147588785D01*
X113368095Y-147503071D01*
X113368095Y-147460214D01*
X113415714Y-147374500D01*
X113510952Y-147331642D01*
X113653809Y-147331642D01*
X113749047Y-147288785D01*
X113796666Y-147203071D01*
X113796666Y-147160214D01*
X113749047Y-147074500D01*
X113653809Y-147031642D01*
X113510952Y-147031642D01*
X113415714Y-147074500D01*
X112558571Y-147588785D02*
X112653809Y-147631642D01*
X112844285Y-147631642D01*
X112939523Y-147588785D01*
X112987142Y-147503071D01*
X112987142Y-147160214D01*
X112939523Y-147074500D01*
X112844285Y-147031642D01*
X112653809Y-147031642D01*
X112558571Y-147074500D01*
X112510952Y-147160214D01*
X112510952Y-147245928D01*
X112987142Y-147331642D01*
X112082380Y-147631642D02*
X112082380Y-147031642D01*
X112082380Y-147117357D02*
X112034761Y-147074500D01*
X111939523Y-147031642D01*
X111796666Y-147031642D01*
X111701428Y-147074500D01*
X111653809Y-147160214D01*
X111653809Y-147631642D01*
X111653809Y-147160214D02*
X111606190Y-147074500D01*
X111510952Y-147031642D01*
X111368095Y-147031642D01*
X111272857Y-147074500D01*
X111225238Y-147160214D01*
X111225238Y-147631642D01*
X110320476Y-147631642D02*
X110320476Y-147160214D01*
X110368095Y-147074500D01*
X110463333Y-147031642D01*
X110653809Y-147031642D01*
X110749047Y-147074500D01*
X110320476Y-147588785D02*
X110415714Y-147631642D01*
X110653809Y-147631642D01*
X110749047Y-147588785D01*
X110796666Y-147503071D01*
X110796666Y-147417357D01*
X110749047Y-147331642D01*
X110653809Y-147288785D01*
X110415714Y-147288785D01*
X110320476Y-147245928D01*
X109844285Y-147631642D02*
X109844285Y-147031642D01*
X109844285Y-147203071D02*
X109796666Y-147117357D01*
X109749047Y-147074500D01*
X109653809Y-147031642D01*
X109558571Y-147031642D01*
X109320476Y-147031642D02*
X109082380Y-147631642D01*
X108844285Y-147031642D02*
X109082380Y-147631642D01*
X109177619Y-147845928D01*
X109225238Y-147888785D01*
X109320476Y-147931642D01*
X107225238Y-147631642D02*
X107701428Y-147631642D01*
X107701428Y-146731642D01*
X183047619Y-105542857D02*
X182333333Y-105542857D01*
X182190476Y-105600000D01*
X182095238Y-105714285D01*
X182047619Y-105885714D01*
X182047619Y-106000000D01*
X182047619Y-104400000D02*
X182047619Y-104971428D01*
X183047619Y-104971428D01*
X182142857Y-103314285D02*
X182095238Y-103371428D01*
X182047619Y-103542857D01*
X182047619Y-103657142D01*
X182095238Y-103828571D01*
X182190476Y-103942857D01*
X182285714Y-104000000D01*
X182476190Y-104057142D01*
X182619047Y-104057142D01*
X182809523Y-104000000D01*
X182904761Y-103942857D01*
X183000000Y-103828571D01*
X183047619Y-103657142D01*
X183047619Y-103542857D01*
X183000000Y-103371428D01*
X182952380Y-103314285D01*
X183047619Y-102457142D02*
X182333333Y-102457142D01*
X182190476Y-102514285D01*
X182095238Y-102628571D01*
X182047619Y-102800000D01*
X182047619Y-102914285D01*
X182047619Y-101314285D02*
X182047619Y-101885714D01*
X183047619Y-101885714D01*
X182142857Y-100228571D02*
X182095238Y-100285714D01*
X182047619Y-100457142D01*
X182047619Y-100571428D01*
X182095238Y-100742857D01*
X182190476Y-100857142D01*
X182285714Y-100914285D01*
X182476190Y-100971428D01*
X182619047Y-100971428D01*
X182809523Y-100914285D01*
X182904761Y-100857142D01*
X183000000Y-100742857D01*
X183047619Y-100571428D01*
X183047619Y-100457142D01*
X183000000Y-100285714D01*
X182952380Y-100228571D01*
X183047619Y-99371428D02*
X182333333Y-99371428D01*
X182190476Y-99428571D01*
X182095238Y-99542857D01*
X182047619Y-99714285D01*
X182047619Y-99828571D01*
X182047619Y-98228571D02*
X182047619Y-98800000D01*
X183047619Y-98800000D01*
X182142857Y-97142857D02*
X182095238Y-97200000D01*
X182047619Y-97371428D01*
X182047619Y-97485714D01*
X182095238Y-97657142D01*
X182190476Y-97771428D01*
X182285714Y-97828571D01*
X182476190Y-97885714D01*
X182619047Y-97885714D01*
X182809523Y-97828571D01*
X182904761Y-97771428D01*
X183000000Y-97657142D01*
X183047619Y-97485714D01*
X183047619Y-97371428D01*
X183000000Y-97200000D01*
X182952380Y-97142857D01*
X183047619Y-96285714D02*
X182333333Y-96285714D01*
X182190476Y-96342857D01*
X182095238Y-96457142D01*
X182047619Y-96628571D01*
X182047619Y-96742857D01*
X182047619Y-95142857D02*
X182047619Y-95714285D01*
X183047619Y-95714285D01*
X182142857Y-94057142D02*
X182095238Y-94114285D01*
X182047619Y-94285714D01*
X182047619Y-94400000D01*
X182095238Y-94571428D01*
X182190476Y-94685714D01*
X182285714Y-94742857D01*
X182476190Y-94800000D01*
X182619047Y-94800000D01*
X182809523Y-94742857D01*
X182904761Y-94685714D01*
X183000000Y-94571428D01*
X183047619Y-94400000D01*
X183047619Y-94285714D01*
X183000000Y-94114285D01*
X182952380Y-94057142D01*
D10*
%TO.C,BT1*%
X137035714Y-52928571D02*
X136892857Y-52976190D01*
X136845238Y-53023809D01*
X136797619Y-53119047D01*
X136797619Y-53261904D01*
X136845238Y-53357142D01*
X136892857Y-53404761D01*
X136988095Y-53452380D01*
X137369047Y-53452380D01*
X137369047Y-52452380D01*
X137035714Y-52452380D01*
X136940476Y-52500000D01*
X136892857Y-52547619D01*
X136845238Y-52642857D01*
X136845238Y-52738095D01*
X136892857Y-52833333D01*
X136940476Y-52880952D01*
X137035714Y-52928571D01*
X137369047Y-52928571D01*
X136511904Y-52452380D02*
X135940476Y-52452380D01*
X136226190Y-53452380D02*
X136226190Y-52452380D01*
X135083333Y-53452380D02*
X135654761Y-53452380D01*
X135369047Y-53452380D02*
X135369047Y-52452380D01*
X135464285Y-52595238D01*
X135559523Y-52690476D01*
X135654761Y-52738095D01*
D13*
%TO.C,A1*%
X162875000Y-75000000D02*
G75*
G03*
X162875000Y-75000000I-1375000J0D01*
G01*
X162875000Y-124000000D02*
G75*
G03*
X162875000Y-124000000I-1375000J0D01*
G01*
X104875000Y-124000000D02*
G75*
G03*
X104875000Y-124000000I-1375000J0D01*
G01*
X104875000Y-75000000D02*
G75*
G03*
X104875000Y-75000000I-1375000J0D01*
G01*
D14*
%TO.C,BT1*%
X137375000Y-54100000D02*
X133525000Y-54100000D01*
X133525000Y-68900000D02*
X137375000Y-68900000D01*
X137375000Y-68900000D02*
X137375000Y-63050000D01*
X133525000Y-66425000D02*
X133525000Y-68900000D01*
X137375000Y-54100000D02*
X137375000Y-59950000D01*
X133525000Y-54100000D02*
X133525000Y-56525000D01*
X133525000Y-56525000D02*
G75*
G03*
X120799999Y-59975001I-5488304J-4949391D01*
G01*
X120799999Y-63024999D02*
G75*
G03*
X133525000Y-66475000I7236697J1499390D01*
G01*
%TD*%
M02*
