%TF.GenerationSoftware,KiCad,Pcbnew,(6.0.7)*%
%TF.CreationDate,2022-12-06T03:31:19-06:00*%
%TF.ProjectId,Narwal_v1,4e617277-616c-45f7-9631-2e6b69636164,1*%
%TF.SameCoordinates,Original*%
%TF.FileFunction,Legend,Top*%
%TF.FilePolarity,Positive*%
%FSLAX46Y46*%
G04 Gerber Fmt 4.6, Leading zero omitted, Abs format (unit mm)*
G04 Created by KiCad (PCBNEW (6.0.7)) date 2022-12-06 03:31:19*
%MOMM*%
%LPD*%
G01*
G04 APERTURE LIST*
%TA.AperFunction,Profile*%
%ADD10C,0.100000*%
%TD*%
%ADD11C,0.200000*%
%ADD12C,0.300000*%
%ADD13C,0.150000*%
%ADD14C,0.127000*%
%ADD15C,0.120000*%
%ADD16C,0.250000*%
%TA.AperFunction,Profile*%
%ADD17C,0.120000*%
%TD*%
%ADD18C,0.203200*%
G04 APERTURE END LIST*
D10*
X100000000Y-50000000D02*
X185000000Y-50000000D01*
X185000000Y-50000000D02*
X185000000Y-150000000D01*
X185000000Y-150000000D02*
X100000000Y-150000000D01*
X100000000Y-150000000D02*
X100000000Y-50000000D01*
D11*
X120308571Y-144132142D02*
X120606190Y-144965476D01*
X120903809Y-144132142D01*
X122034761Y-144965476D02*
X121320476Y-144965476D01*
X121677619Y-144965476D02*
X121677619Y-143715476D01*
X121558571Y-143894047D01*
X121439523Y-144013095D01*
X121320476Y-144072619D01*
D12*
X108171190Y-144904761D02*
X108171190Y-142904761D01*
X109314047Y-144904761D01*
X109314047Y-142904761D01*
X110171190Y-144333333D02*
X111123571Y-144333333D01*
X109980714Y-144904761D02*
X110647380Y-142904761D01*
X111314047Y-144904761D01*
X113123571Y-144904761D02*
X112456904Y-143952380D01*
X111980714Y-144904761D02*
X111980714Y-142904761D01*
X112742619Y-142904761D01*
X112933095Y-143000000D01*
X113028333Y-143095238D01*
X113123571Y-143285714D01*
X113123571Y-143571428D01*
X113028333Y-143761904D01*
X112933095Y-143857142D01*
X112742619Y-143952380D01*
X111980714Y-143952380D01*
X113790238Y-142904761D02*
X114266428Y-144904761D01*
X114647380Y-143476190D01*
X115028333Y-144904761D01*
X115504523Y-142904761D01*
X116171190Y-144333333D02*
X117123571Y-144333333D01*
X115980714Y-144904761D02*
X116647380Y-142904761D01*
X117314047Y-144904761D01*
X118933095Y-144904761D02*
X117980714Y-144904761D01*
X117980714Y-142904761D01*
D11*
X108816904Y-147565476D02*
X108400238Y-146970238D01*
X108102619Y-147565476D02*
X108102619Y-146315476D01*
X108578809Y-146315476D01*
X108697857Y-146375000D01*
X108757380Y-146434523D01*
X108816904Y-146553571D01*
X108816904Y-146732142D01*
X108757380Y-146851190D01*
X108697857Y-146910714D01*
X108578809Y-146970238D01*
X108102619Y-146970238D01*
X109352619Y-147565476D02*
X109352619Y-146732142D01*
X109352619Y-146315476D02*
X109293095Y-146375000D01*
X109352619Y-146434523D01*
X109412142Y-146375000D01*
X109352619Y-146315476D01*
X109352619Y-146434523D01*
X110483571Y-147505952D02*
X110364523Y-147565476D01*
X110126428Y-147565476D01*
X110007380Y-147505952D01*
X109947857Y-147446428D01*
X109888333Y-147327380D01*
X109888333Y-146970238D01*
X109947857Y-146851190D01*
X110007380Y-146791666D01*
X110126428Y-146732142D01*
X110364523Y-146732142D01*
X110483571Y-146791666D01*
X111495476Y-147505952D02*
X111376428Y-147565476D01*
X111138333Y-147565476D01*
X111019285Y-147505952D01*
X110959761Y-147386904D01*
X110959761Y-146910714D01*
X111019285Y-146791666D01*
X111138333Y-146732142D01*
X111376428Y-146732142D01*
X111495476Y-146791666D01*
X111555000Y-146910714D01*
X111555000Y-147029761D01*
X110959761Y-147148809D01*
X113043095Y-146910714D02*
X113459761Y-146910714D01*
X113638333Y-147565476D02*
X113043095Y-147565476D01*
X113043095Y-146315476D01*
X113638333Y-146315476D01*
X114709761Y-147505952D02*
X114590714Y-147565476D01*
X114352619Y-147565476D01*
X114233571Y-147505952D01*
X114174047Y-147446428D01*
X114114523Y-147327380D01*
X114114523Y-146970238D01*
X114174047Y-146851190D01*
X114233571Y-146791666D01*
X114352619Y-146732142D01*
X114590714Y-146732142D01*
X114709761Y-146791666D01*
X115424047Y-147565476D02*
X115305000Y-147505952D01*
X115245476Y-147386904D01*
X115245476Y-146315476D01*
X115900238Y-147565476D02*
X115900238Y-146732142D01*
X115900238Y-146315476D02*
X115840714Y-146375000D01*
X115900238Y-146434523D01*
X115959761Y-146375000D01*
X115900238Y-146315476D01*
X115900238Y-146434523D01*
X116495476Y-146732142D02*
X116495476Y-147982142D01*
X116495476Y-146791666D02*
X116614523Y-146732142D01*
X116852619Y-146732142D01*
X116971666Y-146791666D01*
X117031190Y-146851190D01*
X117090714Y-146970238D01*
X117090714Y-147327380D01*
X117031190Y-147446428D01*
X116971666Y-147505952D01*
X116852619Y-147565476D01*
X116614523Y-147565476D01*
X116495476Y-147505952D01*
X117566904Y-147505952D02*
X117685952Y-147565476D01*
X117924047Y-147565476D01*
X118043095Y-147505952D01*
X118102619Y-147386904D01*
X118102619Y-147327380D01*
X118043095Y-147208333D01*
X117924047Y-147148809D01*
X117745476Y-147148809D01*
X117626428Y-147089285D01*
X117566904Y-146970238D01*
X117566904Y-146910714D01*
X117626428Y-146791666D01*
X117745476Y-146732142D01*
X117924047Y-146732142D01*
X118043095Y-146791666D01*
X119114523Y-147505952D02*
X118995476Y-147565476D01*
X118757380Y-147565476D01*
X118638333Y-147505952D01*
X118578809Y-147386904D01*
X118578809Y-146910714D01*
X118638333Y-146791666D01*
X118757380Y-146732142D01*
X118995476Y-146732142D01*
X119114523Y-146791666D01*
X119174047Y-146910714D01*
X119174047Y-147029761D01*
X118578809Y-147148809D01*
D13*
%TO.C,SW1*%
X144619166Y-83447261D02*
X144762023Y-83494880D01*
X145000119Y-83494880D01*
X145095357Y-83447261D01*
X145142976Y-83399642D01*
X145190595Y-83304404D01*
X145190595Y-83209166D01*
X145142976Y-83113928D01*
X145095357Y-83066309D01*
X145000119Y-83018690D01*
X144809642Y-82971071D01*
X144714404Y-82923452D01*
X144666785Y-82875833D01*
X144619166Y-82780595D01*
X144619166Y-82685357D01*
X144666785Y-82590119D01*
X144714404Y-82542500D01*
X144809642Y-82494880D01*
X145047738Y-82494880D01*
X145190595Y-82542500D01*
X145523928Y-82494880D02*
X145762023Y-83494880D01*
X145952500Y-82780595D01*
X146142976Y-83494880D01*
X146381071Y-82494880D01*
X147285833Y-83494880D02*
X146714404Y-83494880D01*
X147000119Y-83494880D02*
X147000119Y-82494880D01*
X146904880Y-82637738D01*
X146809642Y-82732976D01*
X146714404Y-82780595D01*
%TO.C,L4*%
X117968333Y-134547380D02*
X117492142Y-134547380D01*
X117492142Y-133547380D01*
X118730238Y-133880714D02*
X118730238Y-134547380D01*
X118492142Y-133499761D02*
X118254047Y-134214047D01*
X118873095Y-134214047D01*
%TO.C,L1*%
X142083333Y-119202380D02*
X141607142Y-119202380D01*
X141607142Y-118202380D01*
X142940476Y-119202380D02*
X142369047Y-119202380D01*
X142654761Y-119202380D02*
X142654761Y-118202380D01*
X142559523Y-118345238D01*
X142464285Y-118440476D01*
X142369047Y-118488095D01*
%TO.C,H1*%
X102738095Y-57452380D02*
X102738095Y-56452380D01*
X102738095Y-56928571D02*
X103309523Y-56928571D01*
X103309523Y-57452380D02*
X103309523Y-56452380D01*
X104309523Y-57452380D02*
X103738095Y-57452380D01*
X104023809Y-57452380D02*
X104023809Y-56452380D01*
X103928571Y-56595238D01*
X103833333Y-56690476D01*
X103738095Y-56738095D01*
%TO.C,C5*%
X125333333Y-131357142D02*
X125285714Y-131404761D01*
X125142857Y-131452380D01*
X125047619Y-131452380D01*
X124904761Y-131404761D01*
X124809523Y-131309523D01*
X124761904Y-131214285D01*
X124714285Y-131023809D01*
X124714285Y-130880952D01*
X124761904Y-130690476D01*
X124809523Y-130595238D01*
X124904761Y-130500000D01*
X125047619Y-130452380D01*
X125142857Y-130452380D01*
X125285714Y-130500000D01*
X125333333Y-130547619D01*
X126238095Y-130452380D02*
X125761904Y-130452380D01*
X125714285Y-130928571D01*
X125761904Y-130880952D01*
X125857142Y-130833333D01*
X126095238Y-130833333D01*
X126190476Y-130880952D01*
X126238095Y-130928571D01*
X126285714Y-131023809D01*
X126285714Y-131261904D01*
X126238095Y-131357142D01*
X126190476Y-131404761D01*
X126095238Y-131452380D01*
X125857142Y-131452380D01*
X125761904Y-131404761D01*
X125714285Y-131357142D01*
%TO.C,H2*%
X180738095Y-57452380D02*
X180738095Y-56452380D01*
X180738095Y-56928571D02*
X181309523Y-56928571D01*
X181309523Y-57452380D02*
X181309523Y-56452380D01*
X181738095Y-56547619D02*
X181785714Y-56500000D01*
X181880952Y-56452380D01*
X182119047Y-56452380D01*
X182214285Y-56500000D01*
X182261904Y-56547619D01*
X182309523Y-56642857D01*
X182309523Y-56738095D01*
X182261904Y-56880952D01*
X181690476Y-57452380D01*
X182309523Y-57452380D01*
%TO.C,R2*%
X159833333Y-102952380D02*
X159500000Y-102476190D01*
X159261904Y-102952380D02*
X159261904Y-101952380D01*
X159642857Y-101952380D01*
X159738095Y-102000000D01*
X159785714Y-102047619D01*
X159833333Y-102142857D01*
X159833333Y-102285714D01*
X159785714Y-102380952D01*
X159738095Y-102428571D01*
X159642857Y-102476190D01*
X159261904Y-102476190D01*
X160214285Y-102047619D02*
X160261904Y-102000000D01*
X160357142Y-101952380D01*
X160595238Y-101952380D01*
X160690476Y-102000000D01*
X160738095Y-102047619D01*
X160785714Y-102142857D01*
X160785714Y-102238095D01*
X160738095Y-102380952D01*
X160166666Y-102952380D01*
X160785714Y-102952380D01*
%TO.C,L3*%
X152583333Y-112202380D02*
X152107142Y-112202380D01*
X152107142Y-111202380D01*
X152821428Y-111202380D02*
X153440476Y-111202380D01*
X153107142Y-111583333D01*
X153250000Y-111583333D01*
X153345238Y-111630952D01*
X153392857Y-111678571D01*
X153440476Y-111773809D01*
X153440476Y-112011904D01*
X153392857Y-112107142D01*
X153345238Y-112154761D01*
X153250000Y-112202380D01*
X152964285Y-112202380D01*
X152869047Y-112154761D01*
X152821428Y-112107142D01*
%TO.C,R3*%
X140333333Y-53452380D02*
X140000000Y-52976190D01*
X139761904Y-53452380D02*
X139761904Y-52452380D01*
X140142857Y-52452380D01*
X140238095Y-52500000D01*
X140285714Y-52547619D01*
X140333333Y-52642857D01*
X140333333Y-52785714D01*
X140285714Y-52880952D01*
X140238095Y-52928571D01*
X140142857Y-52976190D01*
X139761904Y-52976190D01*
X140666666Y-52452380D02*
X141285714Y-52452380D01*
X140952380Y-52833333D01*
X141095238Y-52833333D01*
X141190476Y-52880952D01*
X141238095Y-52928571D01*
X141285714Y-53023809D01*
X141285714Y-53261904D01*
X141238095Y-53357142D01*
X141190476Y-53404761D01*
X141095238Y-53452380D01*
X140809523Y-53452380D01*
X140714285Y-53404761D01*
X140666666Y-53357142D01*
%TO.C,H3*%
X180738095Y-143452380D02*
X180738095Y-142452380D01*
X180738095Y-142928571D02*
X181309523Y-142928571D01*
X181309523Y-143452380D02*
X181309523Y-142452380D01*
X181690476Y-142452380D02*
X182309523Y-142452380D01*
X181976190Y-142833333D01*
X182119047Y-142833333D01*
X182214285Y-142880952D01*
X182261904Y-142928571D01*
X182309523Y-143023809D01*
X182309523Y-143261904D01*
X182261904Y-143357142D01*
X182214285Y-143404761D01*
X182119047Y-143452380D01*
X181833333Y-143452380D01*
X181738095Y-143404761D01*
X181690476Y-143357142D01*
%TO.C,IC2*%
X163273809Y-136202380D02*
X163273809Y-135202380D01*
X164321428Y-136107142D02*
X164273809Y-136154761D01*
X164130952Y-136202380D01*
X164035714Y-136202380D01*
X163892857Y-136154761D01*
X163797619Y-136059523D01*
X163750000Y-135964285D01*
X163702380Y-135773809D01*
X163702380Y-135630952D01*
X163750000Y-135440476D01*
X163797619Y-135345238D01*
X163892857Y-135250000D01*
X164035714Y-135202380D01*
X164130952Y-135202380D01*
X164273809Y-135250000D01*
X164321428Y-135297619D01*
X164702380Y-135297619D02*
X164750000Y-135250000D01*
X164845238Y-135202380D01*
X165083333Y-135202380D01*
X165178571Y-135250000D01*
X165226190Y-135297619D01*
X165273809Y-135392857D01*
X165273809Y-135488095D01*
X165226190Y-135630952D01*
X164654761Y-136202380D01*
X165273809Y-136202380D01*
%TO.C,C10*%
X172332142Y-124857142D02*
X172284523Y-124904761D01*
X172141666Y-124952380D01*
X172046428Y-124952380D01*
X171903571Y-124904761D01*
X171808333Y-124809523D01*
X171760714Y-124714285D01*
X171713095Y-124523809D01*
X171713095Y-124380952D01*
X171760714Y-124190476D01*
X171808333Y-124095238D01*
X171903571Y-124000000D01*
X172046428Y-123952380D01*
X172141666Y-123952380D01*
X172284523Y-124000000D01*
X172332142Y-124047619D01*
X173284523Y-124952380D02*
X172713095Y-124952380D01*
X172998809Y-124952380D02*
X172998809Y-123952380D01*
X172903571Y-124095238D01*
X172808333Y-124190476D01*
X172713095Y-124238095D01*
X173903571Y-123952380D02*
X173998809Y-123952380D01*
X174094047Y-124000000D01*
X174141666Y-124047619D01*
X174189285Y-124142857D01*
X174236904Y-124333333D01*
X174236904Y-124571428D01*
X174189285Y-124761904D01*
X174141666Y-124857142D01*
X174094047Y-124904761D01*
X173998809Y-124952380D01*
X173903571Y-124952380D01*
X173808333Y-124904761D01*
X173760714Y-124857142D01*
X173713095Y-124761904D01*
X173665476Y-124571428D01*
X173665476Y-124333333D01*
X173713095Y-124142857D01*
X173760714Y-124047619D01*
X173808333Y-124000000D01*
X173903571Y-123952380D01*
%TO.C,J3*%
X167166666Y-53452380D02*
X167166666Y-54166666D01*
X167119047Y-54309523D01*
X167023809Y-54404761D01*
X166880952Y-54452380D01*
X166785714Y-54452380D01*
X167547619Y-53452380D02*
X168166666Y-53452380D01*
X167833333Y-53833333D01*
X167976190Y-53833333D01*
X168071428Y-53880952D01*
X168119047Y-53928571D01*
X168166666Y-54023809D01*
X168166666Y-54261904D01*
X168119047Y-54357142D01*
X168071428Y-54404761D01*
X167976190Y-54452380D01*
X167690476Y-54452380D01*
X167595238Y-54404761D01*
X167547619Y-54357142D01*
%TO.C,L5*%
X169833333Y-110452380D02*
X169357142Y-110452380D01*
X169357142Y-109452380D01*
X170642857Y-109452380D02*
X170166666Y-109452380D01*
X170119047Y-109928571D01*
X170166666Y-109880952D01*
X170261904Y-109833333D01*
X170500000Y-109833333D01*
X170595238Y-109880952D01*
X170642857Y-109928571D01*
X170690476Y-110023809D01*
X170690476Y-110261904D01*
X170642857Y-110357142D01*
X170595238Y-110404761D01*
X170500000Y-110452380D01*
X170261904Y-110452380D01*
X170166666Y-110404761D01*
X170119047Y-110357142D01*
%TO.C,C16*%
X153357142Y-144107142D02*
X153309523Y-144154761D01*
X153166666Y-144202380D01*
X153071428Y-144202380D01*
X152928571Y-144154761D01*
X152833333Y-144059523D01*
X152785714Y-143964285D01*
X152738095Y-143773809D01*
X152738095Y-143630952D01*
X152785714Y-143440476D01*
X152833333Y-143345238D01*
X152928571Y-143250000D01*
X153071428Y-143202380D01*
X153166666Y-143202380D01*
X153309523Y-143250000D01*
X153357142Y-143297619D01*
X154309523Y-144202380D02*
X153738095Y-144202380D01*
X154023809Y-144202380D02*
X154023809Y-143202380D01*
X153928571Y-143345238D01*
X153833333Y-143440476D01*
X153738095Y-143488095D01*
X155166666Y-143202380D02*
X154976190Y-143202380D01*
X154880952Y-143250000D01*
X154833333Y-143297619D01*
X154738095Y-143440476D01*
X154690476Y-143630952D01*
X154690476Y-144011904D01*
X154738095Y-144107142D01*
X154785714Y-144154761D01*
X154880952Y-144202380D01*
X155071428Y-144202380D01*
X155166666Y-144154761D01*
X155214285Y-144107142D01*
X155261904Y-144011904D01*
X155261904Y-143773809D01*
X155214285Y-143678571D01*
X155166666Y-143630952D01*
X155071428Y-143583333D01*
X154880952Y-143583333D01*
X154785714Y-143630952D01*
X154738095Y-143678571D01*
X154690476Y-143773809D01*
%TO.C,U1*%
X159238095Y-108702380D02*
X159238095Y-109511904D01*
X159285714Y-109607142D01*
X159333333Y-109654761D01*
X159428571Y-109702380D01*
X159619047Y-109702380D01*
X159714285Y-109654761D01*
X159761904Y-109607142D01*
X159809523Y-109511904D01*
X159809523Y-108702380D01*
X160809523Y-109702380D02*
X160238095Y-109702380D01*
X160523809Y-109702380D02*
X160523809Y-108702380D01*
X160428571Y-108845238D01*
X160333333Y-108940476D01*
X160238095Y-108988095D01*
%TO.C,C18*%
X149357142Y-144107142D02*
X149309523Y-144154761D01*
X149166666Y-144202380D01*
X149071428Y-144202380D01*
X148928571Y-144154761D01*
X148833333Y-144059523D01*
X148785714Y-143964285D01*
X148738095Y-143773809D01*
X148738095Y-143630952D01*
X148785714Y-143440476D01*
X148833333Y-143345238D01*
X148928571Y-143250000D01*
X149071428Y-143202380D01*
X149166666Y-143202380D01*
X149309523Y-143250000D01*
X149357142Y-143297619D01*
X150309523Y-144202380D02*
X149738095Y-144202380D01*
X150023809Y-144202380D02*
X150023809Y-143202380D01*
X149928571Y-143345238D01*
X149833333Y-143440476D01*
X149738095Y-143488095D01*
X150880952Y-143630952D02*
X150785714Y-143583333D01*
X150738095Y-143535714D01*
X150690476Y-143440476D01*
X150690476Y-143392857D01*
X150738095Y-143297619D01*
X150785714Y-143250000D01*
X150880952Y-143202380D01*
X151071428Y-143202380D01*
X151166666Y-143250000D01*
X151214285Y-143297619D01*
X151261904Y-143392857D01*
X151261904Y-143440476D01*
X151214285Y-143535714D01*
X151166666Y-143583333D01*
X151071428Y-143630952D01*
X150880952Y-143630952D01*
X150785714Y-143678571D01*
X150738095Y-143726190D01*
X150690476Y-143821428D01*
X150690476Y-144011904D01*
X150738095Y-144107142D01*
X150785714Y-144154761D01*
X150880952Y-144202380D01*
X151071428Y-144202380D01*
X151166666Y-144154761D01*
X151214285Y-144107142D01*
X151261904Y-144011904D01*
X151261904Y-143821428D01*
X151214285Y-143726190D01*
X151166666Y-143678571D01*
X151071428Y-143630952D01*
%TO.C,C17*%
X134857142Y-107857142D02*
X134809523Y-107904761D01*
X134666666Y-107952380D01*
X134571428Y-107952380D01*
X134428571Y-107904761D01*
X134333333Y-107809523D01*
X134285714Y-107714285D01*
X134238095Y-107523809D01*
X134238095Y-107380952D01*
X134285714Y-107190476D01*
X134333333Y-107095238D01*
X134428571Y-107000000D01*
X134571428Y-106952380D01*
X134666666Y-106952380D01*
X134809523Y-107000000D01*
X134857142Y-107047619D01*
X135809523Y-107952380D02*
X135238095Y-107952380D01*
X135523809Y-107952380D02*
X135523809Y-106952380D01*
X135428571Y-107095238D01*
X135333333Y-107190476D01*
X135238095Y-107238095D01*
X136142857Y-106952380D02*
X136809523Y-106952380D01*
X136380952Y-107952380D01*
%TO.C,C14*%
X118357142Y-96107142D02*
X118309523Y-96154761D01*
X118166666Y-96202380D01*
X118071428Y-96202380D01*
X117928571Y-96154761D01*
X117833333Y-96059523D01*
X117785714Y-95964285D01*
X117738095Y-95773809D01*
X117738095Y-95630952D01*
X117785714Y-95440476D01*
X117833333Y-95345238D01*
X117928571Y-95250000D01*
X118071428Y-95202380D01*
X118166666Y-95202380D01*
X118309523Y-95250000D01*
X118357142Y-95297619D01*
X119309523Y-96202380D02*
X118738095Y-96202380D01*
X119023809Y-96202380D02*
X119023809Y-95202380D01*
X118928571Y-95345238D01*
X118833333Y-95440476D01*
X118738095Y-95488095D01*
X120166666Y-95535714D02*
X120166666Y-96202380D01*
X119928571Y-95154761D02*
X119690476Y-95869047D01*
X120309523Y-95869047D01*
%TO.C,C15*%
X134857142Y-111357142D02*
X134809523Y-111404761D01*
X134666666Y-111452380D01*
X134571428Y-111452380D01*
X134428571Y-111404761D01*
X134333333Y-111309523D01*
X134285714Y-111214285D01*
X134238095Y-111023809D01*
X134238095Y-110880952D01*
X134285714Y-110690476D01*
X134333333Y-110595238D01*
X134428571Y-110500000D01*
X134571428Y-110452380D01*
X134666666Y-110452380D01*
X134809523Y-110500000D01*
X134857142Y-110547619D01*
X135809523Y-111452380D02*
X135238095Y-111452380D01*
X135523809Y-111452380D02*
X135523809Y-110452380D01*
X135428571Y-110595238D01*
X135333333Y-110690476D01*
X135238095Y-110738095D01*
X136714285Y-110452380D02*
X136238095Y-110452380D01*
X136190476Y-110928571D01*
X136238095Y-110880952D01*
X136333333Y-110833333D01*
X136571428Y-110833333D01*
X136666666Y-110880952D01*
X136714285Y-110928571D01*
X136761904Y-111023809D01*
X136761904Y-111261904D01*
X136714285Y-111357142D01*
X136666666Y-111404761D01*
X136571428Y-111452380D01*
X136333333Y-111452380D01*
X136238095Y-111404761D01*
X136190476Y-111357142D01*
%TO.C,C19*%
X113107142Y-58857142D02*
X113059523Y-58904761D01*
X112916666Y-58952380D01*
X112821428Y-58952380D01*
X112678571Y-58904761D01*
X112583333Y-58809523D01*
X112535714Y-58714285D01*
X112488095Y-58523809D01*
X112488095Y-58380952D01*
X112535714Y-58190476D01*
X112583333Y-58095238D01*
X112678571Y-58000000D01*
X112821428Y-57952380D01*
X112916666Y-57952380D01*
X113059523Y-58000000D01*
X113107142Y-58047619D01*
X114059523Y-58952380D02*
X113488095Y-58952380D01*
X113773809Y-58952380D02*
X113773809Y-57952380D01*
X113678571Y-58095238D01*
X113583333Y-58190476D01*
X113488095Y-58238095D01*
X114535714Y-58952380D02*
X114726190Y-58952380D01*
X114821428Y-58904761D01*
X114869047Y-58857142D01*
X114964285Y-58714285D01*
X115011904Y-58523809D01*
X115011904Y-58142857D01*
X114964285Y-58047619D01*
X114916666Y-58000000D01*
X114821428Y-57952380D01*
X114630952Y-57952380D01*
X114535714Y-58000000D01*
X114488095Y-58047619D01*
X114440476Y-58142857D01*
X114440476Y-58380952D01*
X114488095Y-58476190D01*
X114535714Y-58523809D01*
X114630952Y-58571428D01*
X114821428Y-58571428D01*
X114916666Y-58523809D01*
X114964285Y-58476190D01*
X115011904Y-58380952D01*
%TO.C,U4*%
X127238095Y-54702380D02*
X127238095Y-55511904D01*
X127285714Y-55607142D01*
X127333333Y-55654761D01*
X127428571Y-55702380D01*
X127619047Y-55702380D01*
X127714285Y-55654761D01*
X127761904Y-55607142D01*
X127809523Y-55511904D01*
X127809523Y-54702380D01*
X128714285Y-55035714D02*
X128714285Y-55702380D01*
X128476190Y-54654761D02*
X128238095Y-55369047D01*
X128857142Y-55369047D01*
%TO.C,C4*%
X144583333Y-130607142D02*
X144535714Y-130654761D01*
X144392857Y-130702380D01*
X144297619Y-130702380D01*
X144154761Y-130654761D01*
X144059523Y-130559523D01*
X144011904Y-130464285D01*
X143964285Y-130273809D01*
X143964285Y-130130952D01*
X144011904Y-129940476D01*
X144059523Y-129845238D01*
X144154761Y-129750000D01*
X144297619Y-129702380D01*
X144392857Y-129702380D01*
X144535714Y-129750000D01*
X144583333Y-129797619D01*
X145440476Y-130035714D02*
X145440476Y-130702380D01*
X145202380Y-129654761D02*
X144964285Y-130369047D01*
X145583333Y-130369047D01*
%TO.C,C1*%
X146083333Y-112607142D02*
X146035714Y-112654761D01*
X145892857Y-112702380D01*
X145797619Y-112702380D01*
X145654761Y-112654761D01*
X145559523Y-112559523D01*
X145511904Y-112464285D01*
X145464285Y-112273809D01*
X145464285Y-112130952D01*
X145511904Y-111940476D01*
X145559523Y-111845238D01*
X145654761Y-111750000D01*
X145797619Y-111702380D01*
X145892857Y-111702380D01*
X146035714Y-111750000D01*
X146083333Y-111797619D01*
X147035714Y-112702380D02*
X146464285Y-112702380D01*
X146750000Y-112702380D02*
X146750000Y-111702380D01*
X146654761Y-111845238D01*
X146559523Y-111940476D01*
X146464285Y-111988095D01*
%TO.C,C20*%
X136107142Y-66607142D02*
X136059523Y-66654761D01*
X135916666Y-66702380D01*
X135821428Y-66702380D01*
X135678571Y-66654761D01*
X135583333Y-66559523D01*
X135535714Y-66464285D01*
X135488095Y-66273809D01*
X135488095Y-66130952D01*
X135535714Y-65940476D01*
X135583333Y-65845238D01*
X135678571Y-65750000D01*
X135821428Y-65702380D01*
X135916666Y-65702380D01*
X136059523Y-65750000D01*
X136107142Y-65797619D01*
X136488095Y-65797619D02*
X136535714Y-65750000D01*
X136630952Y-65702380D01*
X136869047Y-65702380D01*
X136964285Y-65750000D01*
X137011904Y-65797619D01*
X137059523Y-65892857D01*
X137059523Y-65988095D01*
X137011904Y-66130952D01*
X136440476Y-66702380D01*
X137059523Y-66702380D01*
X137678571Y-65702380D02*
X137773809Y-65702380D01*
X137869047Y-65750000D01*
X137916666Y-65797619D01*
X137964285Y-65892857D01*
X138011904Y-66083333D01*
X138011904Y-66321428D01*
X137964285Y-66511904D01*
X137916666Y-66607142D01*
X137869047Y-66654761D01*
X137773809Y-66702380D01*
X137678571Y-66702380D01*
X137583333Y-66654761D01*
X137535714Y-66607142D01*
X137488095Y-66511904D01*
X137440476Y-66321428D01*
X137440476Y-66083333D01*
X137488095Y-65892857D01*
X137535714Y-65797619D01*
X137583333Y-65750000D01*
X137678571Y-65702380D01*
%TO.C,H4*%
X102738095Y-143452380D02*
X102738095Y-142452380D01*
X102738095Y-142928571D02*
X103309523Y-142928571D01*
X103309523Y-143452380D02*
X103309523Y-142452380D01*
X104214285Y-142785714D02*
X104214285Y-143452380D01*
X103976190Y-142404761D02*
X103738095Y-143119047D01*
X104357142Y-143119047D01*
%TO.C,C2*%
X132808333Y-138857142D02*
X132760714Y-138904761D01*
X132617857Y-138952380D01*
X132522619Y-138952380D01*
X132379761Y-138904761D01*
X132284523Y-138809523D01*
X132236904Y-138714285D01*
X132189285Y-138523809D01*
X132189285Y-138380952D01*
X132236904Y-138190476D01*
X132284523Y-138095238D01*
X132379761Y-138000000D01*
X132522619Y-137952380D01*
X132617857Y-137952380D01*
X132760714Y-138000000D01*
X132808333Y-138047619D01*
X133189285Y-138047619D02*
X133236904Y-138000000D01*
X133332142Y-137952380D01*
X133570238Y-137952380D01*
X133665476Y-138000000D01*
X133713095Y-138047619D01*
X133760714Y-138142857D01*
X133760714Y-138238095D01*
X133713095Y-138380952D01*
X133141666Y-138952380D01*
X133760714Y-138952380D01*
%TO.C,C6*%
X111108333Y-127857142D02*
X111060714Y-127904761D01*
X110917857Y-127952380D01*
X110822619Y-127952380D01*
X110679761Y-127904761D01*
X110584523Y-127809523D01*
X110536904Y-127714285D01*
X110489285Y-127523809D01*
X110489285Y-127380952D01*
X110536904Y-127190476D01*
X110584523Y-127095238D01*
X110679761Y-127000000D01*
X110822619Y-126952380D01*
X110917857Y-126952380D01*
X111060714Y-127000000D01*
X111108333Y-127047619D01*
X111965476Y-126952380D02*
X111775000Y-126952380D01*
X111679761Y-127000000D01*
X111632142Y-127047619D01*
X111536904Y-127190476D01*
X111489285Y-127380952D01*
X111489285Y-127761904D01*
X111536904Y-127857142D01*
X111584523Y-127904761D01*
X111679761Y-127952380D01*
X111870238Y-127952380D01*
X111965476Y-127904761D01*
X112013095Y-127857142D01*
X112060714Y-127761904D01*
X112060714Y-127523809D01*
X112013095Y-127428571D01*
X111965476Y-127380952D01*
X111870238Y-127333333D01*
X111679761Y-127333333D01*
X111584523Y-127380952D01*
X111536904Y-127428571D01*
X111489285Y-127523809D01*
%TO.C,C8*%
X169333333Y-100357142D02*
X169285714Y-100404761D01*
X169142857Y-100452380D01*
X169047619Y-100452380D01*
X168904761Y-100404761D01*
X168809523Y-100309523D01*
X168761904Y-100214285D01*
X168714285Y-100023809D01*
X168714285Y-99880952D01*
X168761904Y-99690476D01*
X168809523Y-99595238D01*
X168904761Y-99500000D01*
X169047619Y-99452380D01*
X169142857Y-99452380D01*
X169285714Y-99500000D01*
X169333333Y-99547619D01*
X169904761Y-99880952D02*
X169809523Y-99833333D01*
X169761904Y-99785714D01*
X169714285Y-99690476D01*
X169714285Y-99642857D01*
X169761904Y-99547619D01*
X169809523Y-99500000D01*
X169904761Y-99452380D01*
X170095238Y-99452380D01*
X170190476Y-99500000D01*
X170238095Y-99547619D01*
X170285714Y-99642857D01*
X170285714Y-99690476D01*
X170238095Y-99785714D01*
X170190476Y-99833333D01*
X170095238Y-99880952D01*
X169904761Y-99880952D01*
X169809523Y-99928571D01*
X169761904Y-99976190D01*
X169714285Y-100071428D01*
X169714285Y-100261904D01*
X169761904Y-100357142D01*
X169809523Y-100404761D01*
X169904761Y-100452380D01*
X170095238Y-100452380D01*
X170190476Y-100404761D01*
X170238095Y-100357142D01*
X170285714Y-100261904D01*
X170285714Y-100071428D01*
X170238095Y-99976190D01*
X170190476Y-99928571D01*
X170095238Y-99880952D01*
%TO.C,J1*%
X169666666Y-139952380D02*
X169666666Y-140666666D01*
X169619047Y-140809523D01*
X169523809Y-140904761D01*
X169380952Y-140952380D01*
X169285714Y-140952380D01*
X170666666Y-140952380D02*
X170095238Y-140952380D01*
X170380952Y-140952380D02*
X170380952Y-139952380D01*
X170285714Y-140095238D01*
X170190476Y-140190476D01*
X170095238Y-140238095D01*
%TO.C,R1*%
X138333333Y-130702380D02*
X138000000Y-130226190D01*
X137761904Y-130702380D02*
X137761904Y-129702380D01*
X138142857Y-129702380D01*
X138238095Y-129750000D01*
X138285714Y-129797619D01*
X138333333Y-129892857D01*
X138333333Y-130035714D01*
X138285714Y-130130952D01*
X138238095Y-130178571D01*
X138142857Y-130226190D01*
X137761904Y-130226190D01*
X139285714Y-130702380D02*
X138714285Y-130702380D01*
X139000000Y-130702380D02*
X139000000Y-129702380D01*
X138904761Y-129845238D01*
X138809523Y-129940476D01*
X138714285Y-129988095D01*
%TO.C,D1*%
X168511904Y-64222380D02*
X168511904Y-63222380D01*
X168750000Y-63222380D01*
X168892857Y-63270000D01*
X168988095Y-63365238D01*
X169035714Y-63460476D01*
X169083333Y-63650952D01*
X169083333Y-63793809D01*
X169035714Y-63984285D01*
X168988095Y-64079523D01*
X168892857Y-64174761D01*
X168750000Y-64222380D01*
X168511904Y-64222380D01*
X170035714Y-64222380D02*
X169464285Y-64222380D01*
X169750000Y-64222380D02*
X169750000Y-63222380D01*
X169654761Y-63365238D01*
X169559523Y-63460476D01*
X169464285Y-63508095D01*
%TO.C,C13*%
X113857142Y-96107142D02*
X113809523Y-96154761D01*
X113666666Y-96202380D01*
X113571428Y-96202380D01*
X113428571Y-96154761D01*
X113333333Y-96059523D01*
X113285714Y-95964285D01*
X113238095Y-95773809D01*
X113238095Y-95630952D01*
X113285714Y-95440476D01*
X113333333Y-95345238D01*
X113428571Y-95250000D01*
X113571428Y-95202380D01*
X113666666Y-95202380D01*
X113809523Y-95250000D01*
X113857142Y-95297619D01*
X114809523Y-96202380D02*
X114238095Y-96202380D01*
X114523809Y-96202380D02*
X114523809Y-95202380D01*
X114428571Y-95345238D01*
X114333333Y-95440476D01*
X114238095Y-95488095D01*
X115142857Y-95202380D02*
X115761904Y-95202380D01*
X115428571Y-95583333D01*
X115571428Y-95583333D01*
X115666666Y-95630952D01*
X115714285Y-95678571D01*
X115761904Y-95773809D01*
X115761904Y-96011904D01*
X115714285Y-96107142D01*
X115666666Y-96154761D01*
X115571428Y-96202380D01*
X115285714Y-96202380D01*
X115190476Y-96154761D01*
X115142857Y-96107142D01*
%TO.C,U3*%
X123988095Y-81952380D02*
X123988095Y-82761904D01*
X124035714Y-82857142D01*
X124083333Y-82904761D01*
X124178571Y-82952380D01*
X124369047Y-82952380D01*
X124464285Y-82904761D01*
X124511904Y-82857142D01*
X124559523Y-82761904D01*
X124559523Y-81952380D01*
X124940476Y-81952380D02*
X125559523Y-81952380D01*
X125226190Y-82333333D01*
X125369047Y-82333333D01*
X125464285Y-82380952D01*
X125511904Y-82428571D01*
X125559523Y-82523809D01*
X125559523Y-82761904D01*
X125511904Y-82857142D01*
X125464285Y-82904761D01*
X125369047Y-82952380D01*
X125083333Y-82952380D01*
X124988095Y-82904761D01*
X124940476Y-82857142D01*
%TO.C,L6*%
X170083333Y-119352380D02*
X169607142Y-119352380D01*
X169607142Y-118352380D01*
X170845238Y-118352380D02*
X170654761Y-118352380D01*
X170559523Y-118400000D01*
X170511904Y-118447619D01*
X170416666Y-118590476D01*
X170369047Y-118780952D01*
X170369047Y-119161904D01*
X170416666Y-119257142D01*
X170464285Y-119304761D01*
X170559523Y-119352380D01*
X170750000Y-119352380D01*
X170845238Y-119304761D01*
X170892857Y-119257142D01*
X170940476Y-119161904D01*
X170940476Y-118923809D01*
X170892857Y-118828571D01*
X170845238Y-118780952D01*
X170750000Y-118733333D01*
X170559523Y-118733333D01*
X170464285Y-118780952D01*
X170416666Y-118828571D01*
X170369047Y-118923809D01*
%TO.C,C12*%
X163357142Y-130107142D02*
X163309523Y-130154761D01*
X163166666Y-130202380D01*
X163071428Y-130202380D01*
X162928571Y-130154761D01*
X162833333Y-130059523D01*
X162785714Y-129964285D01*
X162738095Y-129773809D01*
X162738095Y-129630952D01*
X162785714Y-129440476D01*
X162833333Y-129345238D01*
X162928571Y-129250000D01*
X163071428Y-129202380D01*
X163166666Y-129202380D01*
X163309523Y-129250000D01*
X163357142Y-129297619D01*
X164309523Y-130202380D02*
X163738095Y-130202380D01*
X164023809Y-130202380D02*
X164023809Y-129202380D01*
X163928571Y-129345238D01*
X163833333Y-129440476D01*
X163738095Y-129488095D01*
X164690476Y-129297619D02*
X164738095Y-129250000D01*
X164833333Y-129202380D01*
X165071428Y-129202380D01*
X165166666Y-129250000D01*
X165214285Y-129297619D01*
X165261904Y-129392857D01*
X165261904Y-129488095D01*
X165214285Y-129630952D01*
X164642857Y-130202380D01*
X165261904Y-130202380D01*
%TO.C,R5*%
X170083333Y-58989880D02*
X169750000Y-58513690D01*
X169511904Y-58989880D02*
X169511904Y-57989880D01*
X169892857Y-57989880D01*
X169988095Y-58037500D01*
X170035714Y-58085119D01*
X170083333Y-58180357D01*
X170083333Y-58323214D01*
X170035714Y-58418452D01*
X169988095Y-58466071D01*
X169892857Y-58513690D01*
X169511904Y-58513690D01*
X170988095Y-57989880D02*
X170511904Y-57989880D01*
X170464285Y-58466071D01*
X170511904Y-58418452D01*
X170607142Y-58370833D01*
X170845238Y-58370833D01*
X170940476Y-58418452D01*
X170988095Y-58466071D01*
X171035714Y-58561309D01*
X171035714Y-58799404D01*
X170988095Y-58894642D01*
X170940476Y-58942261D01*
X170845238Y-58989880D01*
X170607142Y-58989880D01*
X170511904Y-58942261D01*
X170464285Y-58894642D01*
%TO.C,R4*%
X136583333Y-53452380D02*
X136250000Y-52976190D01*
X136011904Y-53452380D02*
X136011904Y-52452380D01*
X136392857Y-52452380D01*
X136488095Y-52500000D01*
X136535714Y-52547619D01*
X136583333Y-52642857D01*
X136583333Y-52785714D01*
X136535714Y-52880952D01*
X136488095Y-52928571D01*
X136392857Y-52976190D01*
X136011904Y-52976190D01*
X137440476Y-52785714D02*
X137440476Y-53452380D01*
X137202380Y-52404761D02*
X136964285Y-53119047D01*
X137583333Y-53119047D01*
%TO.C,L2*%
X129408333Y-132702380D02*
X128932142Y-132702380D01*
X128932142Y-131702380D01*
X129694047Y-131797619D02*
X129741666Y-131750000D01*
X129836904Y-131702380D01*
X130075000Y-131702380D01*
X130170238Y-131750000D01*
X130217857Y-131797619D01*
X130265476Y-131892857D01*
X130265476Y-131988095D01*
X130217857Y-132130952D01*
X129646428Y-132702380D01*
X130265476Y-132702380D01*
%TO.C,C3*%
X148583333Y-119357142D02*
X148535714Y-119404761D01*
X148392857Y-119452380D01*
X148297619Y-119452380D01*
X148154761Y-119404761D01*
X148059523Y-119309523D01*
X148011904Y-119214285D01*
X147964285Y-119023809D01*
X147964285Y-118880952D01*
X148011904Y-118690476D01*
X148059523Y-118595238D01*
X148154761Y-118500000D01*
X148297619Y-118452380D01*
X148392857Y-118452380D01*
X148535714Y-118500000D01*
X148583333Y-118547619D01*
X148916666Y-118452380D02*
X149535714Y-118452380D01*
X149202380Y-118833333D01*
X149345238Y-118833333D01*
X149440476Y-118880952D01*
X149488095Y-118928571D01*
X149535714Y-119023809D01*
X149535714Y-119261904D01*
X149488095Y-119357142D01*
X149440476Y-119404761D01*
X149345238Y-119452380D01*
X149059523Y-119452380D01*
X148964285Y-119404761D01*
X148916666Y-119357142D01*
%TO.C,C7*%
X111108333Y-131857142D02*
X111060714Y-131904761D01*
X110917857Y-131952380D01*
X110822619Y-131952380D01*
X110679761Y-131904761D01*
X110584523Y-131809523D01*
X110536904Y-131714285D01*
X110489285Y-131523809D01*
X110489285Y-131380952D01*
X110536904Y-131190476D01*
X110584523Y-131095238D01*
X110679761Y-131000000D01*
X110822619Y-130952380D01*
X110917857Y-130952380D01*
X111060714Y-131000000D01*
X111108333Y-131047619D01*
X111441666Y-130952380D02*
X112108333Y-130952380D01*
X111679761Y-131952380D01*
%TO.C,C9*%
X169358333Y-104857142D02*
X169310714Y-104904761D01*
X169167857Y-104952380D01*
X169072619Y-104952380D01*
X168929761Y-104904761D01*
X168834523Y-104809523D01*
X168786904Y-104714285D01*
X168739285Y-104523809D01*
X168739285Y-104380952D01*
X168786904Y-104190476D01*
X168834523Y-104095238D01*
X168929761Y-104000000D01*
X169072619Y-103952380D01*
X169167857Y-103952380D01*
X169310714Y-104000000D01*
X169358333Y-104047619D01*
X169834523Y-104952380D02*
X170025000Y-104952380D01*
X170120238Y-104904761D01*
X170167857Y-104857142D01*
X170263095Y-104714285D01*
X170310714Y-104523809D01*
X170310714Y-104142857D01*
X170263095Y-104047619D01*
X170215476Y-104000000D01*
X170120238Y-103952380D01*
X169929761Y-103952380D01*
X169834523Y-104000000D01*
X169786904Y-104047619D01*
X169739285Y-104142857D01*
X169739285Y-104380952D01*
X169786904Y-104476190D01*
X169834523Y-104523809D01*
X169929761Y-104571428D01*
X170120238Y-104571428D01*
X170215476Y-104523809D01*
X170263095Y-104476190D01*
X170310714Y-104380952D01*
%TO.C,IC1*%
X119773809Y-110702380D02*
X119773809Y-109702380D01*
X120821428Y-110607142D02*
X120773809Y-110654761D01*
X120630952Y-110702380D01*
X120535714Y-110702380D01*
X120392857Y-110654761D01*
X120297619Y-110559523D01*
X120250000Y-110464285D01*
X120202380Y-110273809D01*
X120202380Y-110130952D01*
X120250000Y-109940476D01*
X120297619Y-109845238D01*
X120392857Y-109750000D01*
X120535714Y-109702380D01*
X120630952Y-109702380D01*
X120773809Y-109750000D01*
X120821428Y-109797619D01*
X121773809Y-110702380D02*
X121202380Y-110702380D01*
X121488095Y-110702380D02*
X121488095Y-109702380D01*
X121392857Y-109845238D01*
X121297619Y-109940476D01*
X121202380Y-109988095D01*
%TO.C,C11*%
X172332142Y-129357142D02*
X172284523Y-129404761D01*
X172141666Y-129452380D01*
X172046428Y-129452380D01*
X171903571Y-129404761D01*
X171808333Y-129309523D01*
X171760714Y-129214285D01*
X171713095Y-129023809D01*
X171713095Y-128880952D01*
X171760714Y-128690476D01*
X171808333Y-128595238D01*
X171903571Y-128500000D01*
X172046428Y-128452380D01*
X172141666Y-128452380D01*
X172284523Y-128500000D01*
X172332142Y-128547619D01*
X173284523Y-129452380D02*
X172713095Y-129452380D01*
X172998809Y-129452380D02*
X172998809Y-128452380D01*
X172903571Y-128595238D01*
X172808333Y-128690476D01*
X172713095Y-128738095D01*
X174236904Y-129452380D02*
X173665476Y-129452380D01*
X173951190Y-129452380D02*
X173951190Y-128452380D01*
X173855952Y-128595238D01*
X173760714Y-128690476D01*
X173665476Y-128738095D01*
%TO.C,U2*%
X127988095Y-138952380D02*
X127988095Y-139761904D01*
X128035714Y-139857142D01*
X128083333Y-139904761D01*
X128178571Y-139952380D01*
X128369047Y-139952380D01*
X128464285Y-139904761D01*
X128511904Y-139857142D01*
X128559523Y-139761904D01*
X128559523Y-138952380D01*
X128988095Y-139047619D02*
X129035714Y-139000000D01*
X129130952Y-138952380D01*
X129369047Y-138952380D01*
X129464285Y-139000000D01*
X129511904Y-139047619D01*
X129559523Y-139142857D01*
X129559523Y-139238095D01*
X129511904Y-139380952D01*
X128940476Y-139952380D01*
X129559523Y-139952380D01*
%TO.C,J2*%
X147166666Y-53452380D02*
X147166666Y-54166666D01*
X147119047Y-54309523D01*
X147023809Y-54404761D01*
X146880952Y-54452380D01*
X146785714Y-54452380D01*
X147595238Y-53547619D02*
X147642857Y-53500000D01*
X147738095Y-53452380D01*
X147976190Y-53452380D01*
X148071428Y-53500000D01*
X148119047Y-53547619D01*
X148166666Y-53642857D01*
X148166666Y-53738095D01*
X148119047Y-53880952D01*
X147547619Y-54452380D01*
X148166666Y-54452380D01*
D14*
%TO.C,SW1*%
X143027500Y-84682500D02*
X162127500Y-84682500D01*
X162127500Y-84682500D02*
X162127500Y-95472500D01*
X162127500Y-95472500D02*
X143027500Y-95472500D01*
X143027500Y-95472500D02*
X143027500Y-84682500D01*
D11*
X148077500Y-84227500D02*
G75*
G03*
X148077500Y-84227500I-100000J0D01*
G01*
D14*
%TO.C,L4*%
X116400000Y-135186500D02*
X119600000Y-135186500D01*
X119600000Y-137813500D02*
X116400000Y-137813500D01*
D15*
%TO.C,L1*%
X143640000Y-118488748D02*
X143640000Y-119011252D01*
X145860000Y-118488748D02*
X145860000Y-119011252D01*
%TO.C,C5*%
X122340000Y-131711252D02*
X122340000Y-130288748D01*
X124160000Y-131711252D02*
X124160000Y-130288748D01*
%TO.C,R2*%
X160727064Y-105410000D02*
X159272936Y-105410000D01*
X160727064Y-103590000D02*
X159272936Y-103590000D01*
%TO.C,L3*%
X152147936Y-112890000D02*
X153352064Y-112890000D01*
X152147936Y-115610000D02*
X153352064Y-115610000D01*
%TO.C,R3*%
X141435000Y-55272936D02*
X141435000Y-56727064D01*
X139615000Y-55272936D02*
X139615000Y-56727064D01*
D16*
%TO.C,IC2*%
X162284000Y-140139000D02*
G75*
G03*
X162284000Y-140139000I-125000J0D01*
G01*
D15*
%TO.C,C10*%
X168263748Y-123590000D02*
X169686252Y-123590000D01*
X168263748Y-125410000D02*
X169686252Y-125410000D01*
%TO.C,J3*%
X159390000Y-53285000D02*
X159390000Y-55785000D01*
X159390000Y-55785000D02*
X160440000Y-55785000D01*
X164440000Y-51315000D02*
X160560000Y-51315000D01*
X165610000Y-53285000D02*
X165610000Y-55785000D01*
X165610000Y-55785000D02*
X164560000Y-55785000D01*
X164560000Y-55785000D02*
X164560000Y-56775000D01*
%TO.C,L5*%
X166390000Y-109738748D02*
X166390000Y-110261252D01*
X168610000Y-109738748D02*
X168610000Y-110261252D01*
D17*
%TO.C,A1*%
X162875000Y-75000000D02*
G75*
G03*
X162875000Y-75000000I-1375000J0D01*
G01*
X162875000Y-124000000D02*
G75*
G03*
X162875000Y-124000000I-1375000J0D01*
G01*
X104875000Y-124000000D02*
G75*
G03*
X104875000Y-124000000I-1375000J0D01*
G01*
X104875000Y-75000000D02*
G75*
G03*
X104875000Y-75000000I-1375000J0D01*
G01*
D15*
%TO.C,C16*%
X153090000Y-139763748D02*
X153090000Y-141186252D01*
X154910000Y-139763748D02*
X154910000Y-141186252D01*
D14*
%TO.C,U1*%
X162122500Y-113594000D02*
X162250000Y-113594000D01*
X162250000Y-111154000D02*
X161602500Y-111154000D01*
X162250000Y-113594000D02*
X162250000Y-111154000D01*
X157755000Y-113594000D02*
X157882500Y-113594000D01*
X157755000Y-111154000D02*
X158402500Y-111154000D01*
X157755000Y-111154000D02*
X157755000Y-113594000D01*
D15*
%TO.C,C18*%
X149090000Y-139763748D02*
X149090000Y-141186252D01*
X150910000Y-139763748D02*
X150910000Y-141186252D01*
%TO.C,C17*%
X130788748Y-108410000D02*
X132211252Y-108410000D01*
X130788748Y-106590000D02*
X132211252Y-106590000D01*
%TO.C,C14*%
X119910000Y-99711252D02*
X119910000Y-98288748D01*
X118090000Y-99711252D02*
X118090000Y-98288748D01*
%TO.C,C15*%
X130788748Y-110090000D02*
X132211252Y-110090000D01*
X130788748Y-111910000D02*
X132211252Y-111910000D01*
%TO.C,C19*%
X117038748Y-59410000D02*
X118461252Y-59410000D01*
X117038748Y-57590000D02*
X118461252Y-57590000D01*
D14*
%TO.C,U4*%
X124200000Y-66750000D02*
X131800000Y-66750000D01*
X124200000Y-56250000D02*
X131800000Y-56250000D01*
D11*
X121395000Y-56465000D02*
G75*
G03*
X121395000Y-56465000I-100000J0D01*
G01*
D15*
%TO.C,C4*%
X144038748Y-131340000D02*
X145461252Y-131340000D01*
X144038748Y-133160000D02*
X145461252Y-133160000D01*
%TO.C,C1*%
X145538748Y-113340000D02*
X146961252Y-113340000D01*
X145538748Y-115160000D02*
X146961252Y-115160000D01*
%TO.C,C20*%
X137685000Y-62288748D02*
X137685000Y-63711252D01*
X135865000Y-62288748D02*
X135865000Y-63711252D01*
%TO.C,C2*%
X133686252Y-137410000D02*
X132263748Y-137410000D01*
X133686252Y-135590000D02*
X132263748Y-135590000D01*
%TO.C,C6*%
X115736252Y-128410000D02*
X114313748Y-128410000D01*
X115736252Y-126590000D02*
X114313748Y-126590000D01*
%TO.C,C8*%
X166736252Y-100910000D02*
X165313748Y-100910000D01*
X166736252Y-99090000D02*
X165313748Y-99090000D01*
D14*
%TO.C,J1*%
X171000000Y-148200000D02*
X169000000Y-148200000D01*
X166800000Y-146000000D02*
X166800000Y-144000000D01*
X169000000Y-141800000D02*
X171000000Y-141800000D01*
X173200000Y-144000000D02*
X173200000Y-146000000D01*
D15*
%TO.C,R1*%
X137772936Y-131340000D02*
X139227064Y-131340000D01*
X137772936Y-133160000D02*
X139227064Y-133160000D01*
%TO.C,D1*%
X171420000Y-62210000D02*
X171264000Y-62210000D01*
X173736000Y-62210000D02*
X173580000Y-62210000D01*
X173579837Y-64811130D02*
G75*
G03*
X173580000Y-62729039I-1079837J1041130D01*
G01*
X171264484Y-62210000D02*
G75*
G03*
X171421392Y-65442335I1235516J-1560000D01*
G01*
X173578608Y-65442335D02*
G75*
G03*
X173735516Y-62210000I-1078608J1672335D01*
G01*
X171420000Y-62729039D02*
G75*
G03*
X171420163Y-64811130I1080000J-1040961D01*
G01*
%TO.C,C13*%
X115410000Y-99711252D02*
X115410000Y-98288748D01*
X113590000Y-99711252D02*
X113590000Y-98288748D01*
D14*
%TO.C,U3*%
X124000000Y-101000000D02*
X124000000Y-85000000D01*
X140000000Y-85000000D02*
X140000000Y-101000000D01*
D11*
X139165000Y-82865000D02*
G75*
G03*
X139165000Y-82865000I-100000J0D01*
G01*
D15*
%TO.C,L6*%
X168860000Y-118297936D02*
X168860000Y-119502064D01*
X166140000Y-118297936D02*
X166140000Y-119502064D01*
%TO.C,C12*%
X164711252Y-130840000D02*
X163288748Y-130840000D01*
X164711252Y-132660000D02*
X163288748Y-132660000D01*
%TO.C,R5*%
X171590000Y-59264564D02*
X171590000Y-57810436D01*
X173410000Y-59264564D02*
X173410000Y-57810436D01*
%TO.C,R4*%
X137685000Y-55272936D02*
X137685000Y-56727064D01*
X135865000Y-55272936D02*
X135865000Y-56727064D01*
%TO.C,L2*%
X132313748Y-133360000D02*
X132836252Y-133360000D01*
X132313748Y-131140000D02*
X132836252Y-131140000D01*
%TO.C,C3*%
X152160000Y-118288748D02*
X152160000Y-119711252D01*
X150340000Y-118288748D02*
X150340000Y-119711252D01*
%TO.C,C7*%
X115736252Y-132410000D02*
X114313748Y-132410000D01*
X115736252Y-130590000D02*
X114313748Y-130590000D01*
%TO.C,C9*%
X166736252Y-103590000D02*
X165313748Y-103590000D01*
X166736252Y-105410000D02*
X165313748Y-105410000D01*
D16*
%TO.C,IC1*%
X122585000Y-109865000D02*
G75*
G03*
X122585000Y-109865000I-125000J0D01*
G01*
D15*
%TO.C,C11*%
X168263748Y-129910000D02*
X169686252Y-129910000D01*
X168263748Y-128090000D02*
X169686252Y-128090000D01*
D18*
%TO.C,U2*%
X127311400Y-140684400D02*
X127311400Y-138246000D01*
X122714000Y-140659000D02*
X122714000Y-138220600D01*
X122714000Y-138220600D02*
X123628400Y-138220600D01*
X127311400Y-138246000D02*
X126397000Y-138246000D01*
X127311400Y-140684400D02*
X126397000Y-140684400D01*
X123603000Y-140659000D02*
X122714000Y-140659000D01*
D15*
%TO.C,J2*%
X149390000Y-55785000D02*
X150440000Y-55785000D01*
X154560000Y-55785000D02*
X154560000Y-56775000D01*
X149390000Y-53285000D02*
X149390000Y-55785000D01*
X155610000Y-53285000D02*
X155610000Y-55785000D01*
X154440000Y-51315000D02*
X150560000Y-51315000D01*
X155610000Y-55785000D02*
X154560000Y-55785000D01*
%TD*%
M02*
